<?xml version="1.0" standalone="no"?>
<!DOCTYPE svg PUBLIC "-//W3C//DTD SVG 1.1//EN" "http://www.w3.org/Graphics/SVG/1.1/DTD/svg11.dtd" >
<svg xmlns="http://www.w3.org/2000/svg" xmlns:xlink="http://www.w3.org/1999/xlink" version="1.1">
<metadata>
Created by FontForge 20170731 at Fri Dec 21 22:55:12 2012
 By Aleksey,,,
Copyright (c) 2012 Linotype GmbH, www.linotype.com. All rights reserved. This font software may not be reproduced, modified, disclosed or transferred without the express written approval of Linotype GmbH. SST is a trademark of Linotype GmbH and may be registered in certain jurisdictions. This typeface is original artwork of Akira Kobayashi. The design may be protected in certain jurisdictions.
</metadata>
<defs>
<font id="SST-LightItalic" horiz-adv-x="379" >
  <font-face 
    font-family="SST Light"
    font-weight="300"
    font-style="italic"
    font-stretch="normal"
    units-per-em="1000"
    panose-1="2 11 3 4 3 5 4 9 2 4"
    ascent="770"
    descent="-230"
    x-height="528"
    cap-height="714"
    bbox="-219 -214 1038 938"
    underline-thickness="50"
    underline-position="-200"
    slope="-11"
    unicode-range="U+000D-FB04"
  />
<missing-glyph horiz-adv-x="512" 
d="M310 117h-56v67h56v-67zM303 234h-46l-2 17q0 56 13 81q15 28 46 59q31 29 40.5 46t9.5 37q0 36 -22.5 60.5t-53.5 24.5q-71 0 -82 -95l-50 8q7 69 43 103t92 34q54 0 89 -36t35 -95q0 -34 -13 -60t-50 -60q-37 -33 -43 -52q-6 -20 -6 -72zM82 50h412v617h-412v-617z
M32 718h512v-718h-512v718z" />
    <glyph glyph-name="IJ" unicode="IJ" horiz-adv-x="549" 
d="M51 0l151 714h56l-151 -714h-56zM566 714l-122 -576q-15 -73 -52.5 -111.5t-116.5 -38.5q-39 0 -67 6l8 50q27 -7 59 -7q49 0 76 25t38 79l121 573h56z" />
    <glyph glyph-name="ij" unicode="ij" horiz-adv-x="472" 
d="M156 528h56l-112 -528h-56zM193 727h63l-15 -69h-63zM451 528l-121 -571q-16 -77 -51.5 -114.5t-109.5 -37.5q-25 0 -48 4l8 45q19 -3 40 -3q49 0 71 28t35 86l120 563h56zM432 727h63l-15 -69h-63z" />
    <glyph glyph-name="napostrophe" unicode="&#x22;n" horiz-adv-x="574" 
d="M156 528h54l-22 -100h2q28 52 76.5 82t104.5 30q73 0 112 -39t39 -104q0 -28 -9 -75l-67 -322h-56l68 321q9 40 9 71q0 44 -26.5 73t-79.5 29q-71 0 -125.5 -53t-73.5 -145l-62 -296h-56zM243 768l-74 -164h-36l56 164h54z" />
    <glyph glyph-name="f_f" unicode="ff" horiz-adv-x="597" 
d="M237 528h236l9 43q16 80 55.5 122t119.5 42q38 0 70 -10l-11 -43q-32 9 -63 9q-51 0 -78.5 -31t-40.5 -99l-7 -33h136l-10 -46h-135l-101 -482h-55l102 482h-236l-101 -482h-55l102 482h-116l11 46h114l9 43q17 81 56 122.5t117 41.5q36 0 72 -10l-11 -43q-29 9 -61 9
q-53 0 -80.5 -31t-40.5 -99z" />
    <glyph glyph-name="fi" unicode="fi" horiz-adv-x="545" 
d="M553 723l-13 -45q-60 11 -128 11q-77 0 -115.5 -29t-52.5 -98l-7 -34h283l-112 -528h-56l102 482h-226l-102 -482h-54l102 482h-116l11 46h114l9 42q18 86 70 125.5t157 39.5q68 0 134 -12z" />
    <glyph glyph-name="fl" unicode="fl" horiz-adv-x="545" 
d="M413 689q-78 0 -116.5 -29t-52.5 -98l-7 -34h136l-11 -46h-134l-102 -482h-54l102 482h-116l11 46h114l9 42q18 86 70 125.5t157 39.5q80 0 142 -14l-153 -721h-56l145 683q-38 6 -84 6z" />
    <glyph glyph-name="f_f_i" unicode="ffi" horiz-adv-x="836" 
d="M237 528h237l9 42q19 86 70 125.5t156 39.5q71 0 135 -12l-13 -45q-61 11 -129 11q-77 0 -115 -28.5t-52 -98.5l-7 -34h283l-112 -528h-56l102 482h-226l-102 -482h-54l102 482h-237l-101 -482h-55l102 482h-116l11 46h114l9 43q17 81 56 122.5t117 41.5q36 0 72 -10
l-11 -43q-29 9 -61 9q-53 0 -80.5 -31t-40.5 -99z" />
    <glyph glyph-name="f_f_l" unicode="ffl" horiz-adv-x="836" 
d="M237 528h237l9 42q19 86 70.5 125.5t155.5 39.5q79 0 143 -14l-153 -721h-56l145 683q-37 6 -85 6q-77 0 -115.5 -29t-52.5 -98l-7 -34h135l-10 -46h-134l-102 -482h-54l102 482h-237l-101 -482h-55l102 482h-116l11 46h114l9 43q17 81 56 122.5t117 41.5q36 0 72 -10
l-11 -43q-29 9 -61 9q-53 0 -80.5 -31t-40.5 -99z" />
    <glyph glyph-name=".notdef" horiz-adv-x="512" 
d="M310 117h-56v67h56v-67zM303 234h-46l-2 17q0 56 13 81q15 28 46 59q31 29 40.5 46t9.5 37q0 36 -22.5 60.5t-53.5 24.5q-71 0 -82 -95l-50 8q7 69 43 103t92 34q54 0 89 -36t35 -95q0 -34 -13 -60t-50 -60q-37 -33 -43 -52q-6 -20 -6 -72zM82 50h412v617h-412v-617z
M32 718h512v-718h-512v718z" />
    <glyph glyph-name=".null" horiz-adv-x="0" 
 />
    <glyph glyph-name="nonmarkingreturn" horiz-adv-x="333" 
 />
    <glyph glyph-name="CR" unicode="&#xd;" horiz-adv-x="0" 
 />
    <glyph glyph-name="space" unicode=" " horiz-adv-x="260" 
 />
    <glyph glyph-name="exclam" unicode="!" horiz-adv-x="305" 
d="M73 0l16 78h71l-16 -78h-71zM125 187l100 527h67l-124 -527h-43z" />
    <glyph glyph-name="quotedbl" unicode="&#x22;" horiz-adv-x="364" 
d="M163 512l35 223h63l-62 -223h-36zM292 512l35 223h61l-60 -223h-36z" />
    <glyph glyph-name="numbersign" unicode="#" horiz-adv-x="555" 
d="M66 0l77 221h-107l10 43h112l66 187h-114l10 43h119l77 220h45l-77 -220h156l77 220h44l-77 -220h96l-9 -43h-102l-65 -187h100l-10 -43h-105l-77 -221h-45l77 221h-156l-77 -221h-45zM269 451l-66 -187h157l65 187h-156z" />
    <glyph glyph-name="dollar" unicode="$" horiz-adv-x="521" 
d="M406 783l-17 -82q68 -3 120 -25l-15 -46q-58 24 -115 25l-59 -277q64 -48 94 -89.5t30 -97.5q0 -85 -56.5 -131t-146.5 -51l-18 -87h-44l18 87q-88 5 -157 38l16 46q71 -35 151 -38l62 294q-64 46 -93 85.5t-29 93.5q0 81 57 125t140 49l18 81h44zM389 186
q0 39 -19.5 70.5t-61.5 65.5l-56 -264q63 5 100 38t37 90zM201 532q0 -37 18.5 -64.5t62.5 -61.5l52 248q-57 -6 -95 -36.5t-38 -85.5z" />
    <glyph glyph-name="percent" unicode="%" horiz-adv-x="760" 
d="M732 714l-597 -714h-46l598 714h45zM397 594q0 -55 -15.5 -106t-54.5 -89.5t-94 -38.5q-50 0 -77.5 32.5t-27.5 87.5t15.5 106t54 90t94.5 39q50 0 77.5 -32.5t27.5 -88.5zM351 593q0 37 -15.5 59.5t-47.5 22.5q-39 0 -66.5 -35t-37.5 -77t-10 -82q0 -36 15.5 -58.5
t46.5 -22.5q39 0 66.5 34t38 76t10.5 83zM693 228q0 -55 -15.5 -105.5t-54.5 -89t-94 -38.5q-50 0 -77.5 32.5t-27.5 87.5t15.5 106t54 90t94.5 39q50 0 77.5 -33t27.5 -89zM647 228q0 37 -16 59.5t-47 22.5q-39 0 -66.5 -35t-37.5 -77t-10 -82q0 -36 15.5 -58.5t46.5 -22.5
q39 0 66.5 34t38 76t10.5 83z" />
    <glyph glyph-name="ampersand" unicode="&#x26;" horiz-adv-x="680" 
d="M322 415q39 14 65.5 26.5t55.5 32.5t43.5 48.5t14.5 63.5q0 41 -27 67.5t-74 26.5q-56 0 -92 -37t-36 -98q0 -58 50 -130zM440 148l-143 211q-92 -35 -137 -79t-45 -116q0 -57 37 -93t96 -36q107 0 192 113zM506 152l105 -152h-68l-73 108q-53 -62 -106 -91t-122 -29
q-81 0 -133 48t-52 127q0 88 56.5 141t159.5 93q-56 81 -56 145q0 89 53.5 136.5t133.5 47.5q68 0 109.5 -39.5t41.5 -99.5q0 -77 -52.5 -123.5t-155.5 -86.5l128 -187q50 66 108 178h62q-86 -149 -139 -216z" />
    <glyph glyph-name="quotesingle" unicode="'" horiz-adv-x="242" 
d="M163 512l35 223h63l-62 -223h-36z" />
    <glyph glyph-name="parenleft" unicode="(" horiz-adv-x="310" 
d="M352 797q-121 -146 -189 -333t-68 -377q0 -159 51 -282h-51q-50 125 -50 284q0 199 70 386.5t184 321.5h53z" />
    <glyph glyph-name="parenright" unicode=")" horiz-adv-x="310" 
d="M-6 -195q122 146 190 332.5t68 377.5q0 159 -51 282h51q50 -125 50 -284q0 -199 -70 -386.5t-184 -321.5h-54z" />
    <glyph glyph-name="asterisk" unicode="*" horiz-adv-x="413" 
d="M296 712v-140l138 43l13 -38l-136 -43l89 -126l-32 -24l-92 128l-90 -128l-33 24l89 126l-136 43l14 38l137 -43v140h39z" />
    <glyph glyph-name="plus" unicode="+" horiz-adv-x="535" 
d="M267 542h46v-205h200v-44h-200v-213h-46v213h-200v44h200v205z" />
    <glyph glyph-name="comma" unicode="," horiz-adv-x="264" 
d="M-3 -146l96 231h64l-122 -231h-38z" />
    <glyph glyph-name="hyphen" unicode="-" horiz-adv-x="380" 
d="M86 277l10 48h232l-10 -48h-232z" />
    <glyph glyph-name="period" unicode="." horiz-adv-x="264" 
d="M54 0l17 81h74l-16 -81h-75z" />
    <glyph glyph-name="slash" unicode="/" horiz-adv-x="493" 
d="M3 0l491 714h58l-491 -714h-58z" />
    <glyph glyph-name="zero" unicode="0" horiz-adv-x="608" 
d="M400 726q95 0 144 -62.5t49 -169.5q0 -62 -11 -128t-36.5 -134.5t-62 -122t-93.5 -87.5t-125 -34q-101 0 -149 61t-48 169q0 61 11 127t36.5 135t62.5 123t94.5 88.5t127.5 34.5zM396 677q-69 0 -123.5 -47t-85 -119.5t-46 -147t-15.5 -141.5q0 -86 34.5 -135.5
t107.5 -49.5q68 0 122 47t84.5 119t46 146t15.5 140q0 88 -34.5 138t-105.5 50z" />
    <glyph glyph-name="one" unicode="1" horiz-adv-x="374" 
d="M362 714l-151 -714h-58l139 657l-174 -104l-21 45l199 116h66z" />
    <glyph glyph-name="two" unicode="2" horiz-adv-x="526" 
d="M448 49l-11 -49h-438l10 53q285 221 373 315.5t88 184.5q0 58 -36.5 90.5t-99.5 32.5q-85 0 -172 -52l-15 43q88 59 190 59q90 0 140.5 -47t50.5 -122q0 -33 -9.5 -64t-22.5 -58.5t-45 -63.5t-59.5 -64t-84.5 -75.5t-101 -82.5t-126 -100h368z" />
    <glyph glyph-name="three" unicode="3" horiz-adv-x="528" 
d="M154 344l11 49h63q102 0 167 41.5t65 128.5q0 54 -37.5 84t-99.5 30q-86 0 -161 -37l-11 46q81 40 178 40q85 0 136.5 -42t51.5 -118q0 -82 -50 -131.5t-135 -66.5v-2q63 -11 98 -52.5t35 -100.5q0 -110 -74 -167.5t-188 -57.5q-116 0 -195 42l20 49q73 -42 171 -42
q89 0 149 42.5t60 130.5q0 68 -53 101t-137 33h-64z" />
    <glyph glyph-name="four" unicode="4" horiz-adv-x="569" 
d="M536 714l-103 -482h105l-10 -50h-105l-38 -182h-57l38 182h-344l13 62l411 470h90zM377 232l92 433h-2l-378 -433h288z" />
    <glyph glyph-name="five" unicode="5" horiz-adv-x="536" 
d="M200 37q102 0 163.5 51.5t61.5 147.5q0 73 -50 111.5t-130 38.5q-64 0 -138 -15l87 343h344l-11 -49h-292l-62 -239q43 8 89 8q96 0 158 -49.5t62 -143.5q0 -120 -77 -186.5t-205 -66.5q-109 0 -185 38l17 49q73 -38 168 -38z" />
    <glyph glyph-name="six" unicode="6" horiz-adv-x="572" 
d="M329 411q-83 0 -144 -59t-61 -144q0 -31 7 -59t22.5 -54.5t45.5 -42t71 -15.5q92 0 145.5 65t53.5 159q0 63 -35 106.5t-105 43.5zM142 357h2q30 47 81.5 74.5t110.5 27.5q94 0 141.5 -55.5t47.5 -136.5q0 -117 -69 -198t-189 -81q-102 0 -150.5 62.5t-48.5 157.5
q0 64 14 133.5t44.5 138.5t73 123.5t106 88.5t137.5 34q67 0 118 -22l-17 -47q-42 19 -102 19t-112 -28t-88.5 -74.5t-61.5 -101.5t-38 -115z" />
    <glyph glyph-name="seven" unicode="7" horiz-adv-x="493" 
d="M131 665l11 49h425l-11 -50q-135 -152 -236.5 -331.5t-149.5 -332.5h-58q47 151 152 336.5t229 328.5h-362z" />
    <glyph glyph-name="eight" unicode="8" horiz-adv-x="581" 
d="M311 346q-83 0 -147.5 -44t-64.5 -126q0 -66 48 -102.5t119 -36.5q87 0 148.5 41.5t61.5 124.5q0 65 -50.5 104t-114.5 39zM376 726q85 0 144 -43.5t59 -126.5t-50 -128.5t-120 -58.5v-2q53 -16 89 -58.5t36 -104.5q0 -56 -23.5 -99.5t-63 -68t-86 -36.5t-97.5 -12
q-96 0 -159.5 47t-63.5 135q0 86 58 139.5t138 67.5v2q-47 16 -75 53.5t-28 88.5q0 95 71.5 150t170.5 55zM331 395q43 0 84 14t73.5 51t32.5 91q0 57 -41.5 91.5t-107.5 34.5q-79 0 -130 -42t-51 -112q0 -60 41 -94t99 -34z" />
    <glyph glyph-name="nine" unicode="9" horiz-adv-x="572" 
d="M297 302q82 0 143.5 58.5t61.5 145.5q0 68 -34 119t-112 51q-92 0 -145.5 -64.5t-53.5 -159.5q0 -63 35 -106.5t105 -43.5zM484 356h-2q-30 -47 -81.5 -74.5t-110.5 -27.5q-94 0 -141.5 55.5t-47.5 136.5q0 117 69.5 198.5t188.5 81.5q102 0 151 -63t49 -158
q0 -83 -22.5 -169.5t-65.5 -166t-118 -130.5t-169 -51q-66 0 -119 21l17 47q44 -19 103 -19q62 0 114.5 27.5t88 74.5t59 101t37.5 116z" />
    <glyph glyph-name="colon" unicode=":" horiz-adv-x="320" 
d="M80 0l17 81h73l-17 -81h-73zM175 447l17 81h73l-18 -81h-72z" />
    <glyph glyph-name="semicolon" unicode=";" horiz-adv-x="320" 
d="M175 447l17 81h73l-18 -81h-72zM11 -146l96 231h64l-122 -231h-38z" />
    <glyph glyph-name="less" unicode="&#x3c;" horiz-adv-x="535" 
d="M513 114l-446 166v63l446 167v-48l-402 -148v-2l402 -151v-47z" />
    <glyph glyph-name="equal" unicode="=" horiz-adv-x="535" 
d="M513 204h-446v44h446v-44zM513 383h-446v44h446v-44z" />
    <glyph glyph-name="greater" unicode="&#x3e;" horiz-adv-x="535" 
d="M513 280l-446 -166v47l401 151v2l-401 148v48l446 -167v-63z" />
    <glyph glyph-name="question" unicode="?" horiz-adv-x="448" 
d="M190 0h-74l16 78h74zM216 190l-6 -28h-51l5 26q13 67 39.5 110.5t77.5 81.5l46 34q55 40 81 74t26 85q0 50 -35.5 76.5t-88.5 26.5q-72 0 -141 -31l-9 45q75 36 159 36q75 0 123 -39t48 -116q0 -35 -9.5 -63.5t-32.5 -53.5t-42.5 -41t-56.5 -42q-64 -45 -92 -82t-41 -99z
" />
    <glyph glyph-name="at" unicode="@" horiz-adv-x="939" 
d="M703 -85l3 -46q-116 -51 -256 -51q-187 0 -292 104.5t-105 263.5q0 234 145 387t372 153q152 0 249 -89.5t97 -235.5q0 -86 -28.5 -166.5t-91.5 -139t-148 -58.5q-45 0 -68.5 21.5t-23.5 54.5q0 9 2 27h-2q-20 -38 -64.5 -70.5t-98.5 -32.5q-62 0 -92 39t-30 103
q0 68 29.5 143.5t92 133.5t141.5 58q55 0 84 -29.5t31 -75.5h2l36 88h49l-111 -271q-22 -55 -22 -89q0 -53 56 -53q84 0 143 92.5t59 223.5q0 126 -81.5 202t-214.5 76q-134 0 -239 -65.5t-161 -177t-56 -247.5q0 -143 91.5 -232.5t254.5 -89.5q136 0 248 49zM530 467
q-59 0 -108 -49t-73 -113t-24 -119q0 -102 81 -102q43 0 79.5 26t59.5 63t39.5 79.5t23.5 75t7 49.5q0 40 -20.5 65t-64.5 25z" />
    <glyph glyph-name="A" unicode="A" horiz-adv-x="616" 
d="M159 227l-136 -227h-64l430 714h79l94 -714h-60l-29 227h-314zM421 670l-236 -393h283z" />
    <glyph glyph-name="B" unicode="B" horiz-adv-x="602" 
d="M51 0l151 714h201q89 0 140.5 -38.5t51.5 -117.5q0 -158 -169 -190v-2q56 -10 90.5 -49.5t34.5 -97.5q0 -100 -72.5 -159.5t-196.5 -59.5h-231zM248 665l-58 -272h151q90 0 143.5 40t53.5 119q0 113 -153 113h-137zM180 344l-62 -295h165q93 0 152 41t59 127
q0 62 -44.5 94.5t-119.5 32.5h-150z" />
    <glyph glyph-name="C" unicode="C" horiz-adv-x="568" 
d="M495 58v-49q-64 -21 -141 -21q-136 0 -204.5 79t-68.5 205q0 116 45.5 218t138.5 169t215 67q78 0 136 -23l-17 -47q-55 21 -123 21q-104 0 -183 -61t-116.5 -151t-37.5 -190q0 -106 55.5 -172t170.5 -66q65 0 130 21z" />
    <glyph glyph-name="D" unicode="D" horiz-adv-x="682" 
d="M51 0l151 714h156q148 0 221.5 -73.5t73.5 -203.5q0 -194 -115.5 -315.5t-318.5 -121.5h-168zM248 665l-130 -616h101q178 0 277.5 106.5t99.5 275.5q0 110 -61.5 172t-193.5 62h-93z" />
    <glyph glyph-name="E" unicode="E" horiz-adv-x="518" 
d="M51 0l151 714h343l-10 -49h-287l-58 -272h278l-10 -49h-278l-62 -295h314l-11 -49h-370z" />
    <glyph glyph-name="F" unicode="F" horiz-adv-x="485" 
d="M51 0l151 714h348l-11 -49h-291l-58 -272h274l-10 -49h-274l-73 -344h-56z" />
    <glyph glyph-name="G" unicode="G" horiz-adv-x="692" 
d="M658 695l-20 -50q-66 32 -153 32q-107 0 -187 -55t-119.5 -142.5t-39.5 -192.5q0 -108 63.5 -179t181.5 -71q79 0 138 25l56 263h-165l10 49h222l-74 -347q-85 -39 -189 -39q-148 0 -224 84t-76 213q0 119 46.5 218t140.5 161t219 62q99 0 170 -31z" />
    <glyph glyph-name="H" unicode="H" horiz-adv-x="668" 
d="M51 0l151 714h56l-68 -321h364l68 321h56l-151 -714h-56l73 344h-364l-73 -344h-56z" />
    <glyph glyph-name="I" unicode="I" horiz-adv-x="248" 
d="M51 0l151 714h56l-151 -714h-56z" />
    <glyph glyph-name="J" unicode="J" horiz-adv-x="309" 
d="M326 714l-122 -576q-15 -73 -52.5 -111.5t-116.5 -38.5q-38 0 -67 6l8 50q27 -7 59 -7q49 0 76 25t38 79l121 573h56z" />
    <glyph glyph-name="K" unicode="K" horiz-adv-x="554" 
d="M552 714h78l-386 -346l266 -368h-69l-256 359h-2l-76 -359h-56l151 714h56l-71 -334h2z" />
    <glyph glyph-name="L" unicode="L" horiz-adv-x="450" 
d="M51 0l151 714h56l-140 -665h293l-11 -49h-349z" />
    <glyph glyph-name="M" unicode="M" horiz-adv-x="844" 
d="M300 714l83 -660h2l372 660h98l-151 -714h-56l142 669h-2l-376 -669h-76l-87 669h-2l-142 -669h-54l151 714h98z" />
    <glyph glyph-name="N" unicode="N" horiz-adv-x="683" 
d="M287 714l210 -654h2l139 654h55l-151 -714h-83l-212 656h-2l-139 -656h-55l151 714h85z" />
    <glyph glyph-name="O" unicode="O" horiz-adv-x="726" 
d="M700 463q0 -65 -13.5 -130.5t-43.5 -128t-72.5 -110.5t-104.5 -77t-136 -29q-121 0 -185 72t-64 193q0 90 25.5 174.5t71.5 151.5t117.5 107t157.5 40q122 0 184.5 -71.5t62.5 -191.5zM334 37q75 0 135.5 38.5t97.5 100.5t56.5 134t19.5 144q0 100 -49 161.5t-146 61.5
q-91 0 -163 -60t-109.5 -154.5t-37.5 -202.5q0 -100 49.5 -161.5t146.5 -61.5z" />
    <glyph glyph-name="P" unicode="P" horiz-adv-x="586" 
d="M51 0l151 714h191q91 0 149 -43t58 -127q0 -114 -79 -172t-200 -58h-147l-67 -314h-56zM248 665l-64 -302h142q41 0 76.5 8.5t68 27t51.5 54.5t19 85q0 67 -45.5 97t-117.5 30h-130z" />
    <glyph glyph-name="Q" unicode="Q" horiz-adv-x="726" 
d="M700 463q0 -127 -52 -247t-149 -180l110 -153h-72l-90 126q-55 -21 -117 -21q-121 0 -185 72t-64 193q0 90 25.5 174.5t71.5 151.5t117.5 107t157.5 40q122 0 184.5 -71.5t62.5 -191.5zM334 37q75 0 135.5 38.5t97.5 100.5t56.5 134t19.5 144q0 100 -49 161.5t-146 61.5
q-91 0 -163 -60t-109.5 -154.5t-37.5 -202.5q0 -100 49.5 -161.5t146.5 -61.5z" />
    <glyph glyph-name="R" unicode="R" horiz-adv-x="613" 
d="M51 0l151 714h206q89 0 143 -40.5t54 -120.5q0 -85 -45.5 -133t-122.5 -63l-1 -2q29 -8 45 -31t23 -70q41 -245 43 -254h-59q-4 22 -18 113t-21 132q-10 54 -35 72.5t-84 18.5h-151l-72 -336h-56zM248 665l-59 -280h152q206 0 206 164q0 116 -152 116h-147z" />
    <glyph glyph-name="S" unicode="S" horiz-adv-x="518" 
d="M522 697l-15 -49q-64 29 -141 29q-70 0 -120.5 -32.5t-50.5 -101.5q0 -46 24.5 -76.5t89.5 -77.5q76 -55 109.5 -99.5t33.5 -108.5q0 -97 -67 -145t-170 -48q-109 0 -192 44l17 49q85 -44 176 -44q80 0 129.5 34.5t49.5 103.5q0 50 -30 88.5t-97 84.5q-68 47 -99 88.5
t-31 102.5q0 64 35 108t84.5 61.5t109.5 17.5q85 0 155 -29z" />
    <glyph glyph-name="T" unicode="T" horiz-adv-x="495" 
d="M167 0l141 665h-215l10 49h481l-11 -49h-209l-140 -665h-57z" />
    <glyph glyph-name="U" unicode="U" horiz-adv-x="670" 
d="M693 714l-105 -495q-24 -112 -89.5 -171.5t-198.5 -59.5q-109 0 -165.5 43.5t-56.5 124.5q0 33 8 71l103 487h56l-102 -484q-7 -29 -7 -67q0 -126 169 -126q107 0 157 47t70 139l104 491h57z" />
    <glyph glyph-name="V" unicode="V" horiz-adv-x="565" 
d="M179 0l-76 714h61l62 -660h2l378 660h64l-415 -714h-76z" />
    <glyph glyph-name="W" unicode="W" horiz-adv-x="913" 
d="M563 0l-8 668h-2l-309 -668h-85l-18 714h59l11 -660h2l304 660h91l7 -660h2l310 660h62l-341 -714h-85z" />
    <glyph glyph-name="X" unicode="X" horiz-adv-x="585" 
d="M-33 0l325 374l-152 340h64l130 -300l257 300h71l-301 -346l165 -368h-65l-142 325l-282 -325h-70z" />
    <glyph glyph-name="Y" unicode="Y" horiz-adv-x="532" 
d="M185 0l62 295l-145 419h62l120 -367l288 367h67l-336 -419l-62 -295h-56z" />
    <glyph glyph-name="Z" unicode="Z" horiz-adv-x="561" 
d="M8 50l518 615h-360l11 49h431l-11 -49l-519 -616h415l-11 -49h-484z" />
    <glyph glyph-name="bracketleft" unicode="[" horiz-adv-x="310" 
d="M361 797l-9 -40h-106l-194 -912h106l-8 -40h-155l211 992h155z" />
    <glyph glyph-name="backslash" unicode="\" horiz-adv-x="493" 
d="M187 714l236 -714h-51l-236 714h51z" />
    <glyph glyph-name="bracketright" unicode="]" horiz-adv-x="310" 
d="M-12 -195l9 40h106l194 912h-106l8 40h155l-211 -992h-155z" />
    <glyph glyph-name="asciicircum" unicode="^" horiz-adv-x="535" 
d="M484 299h-59l-131 337h-2l-130 -337h-58l162 397h55z" />
    <glyph glyph-name="underscore" unicode="_" horiz-adv-x="465" 
d="M-66 -99h464l-8 -35h-464z" />
    <glyph glyph-name="grave" unicode="`" horiz-adv-x="467" 
d="M315 604l-98 164h60l78 -164h-40z" />
    <glyph glyph-name="a" unicode="a" horiz-adv-x="530" 
d="M414 321q10 43 10 68q0 105 -123 105q-64 0 -137 -22l-2 45q71 23 142 23q82 0 128.5 -37t46.5 -108q0 -28 -8 -65l-44 -204q-14 -66 -16 -126h-47q0 41 11 98h-2q-57 -110 -184 -110q-64 0 -104.5 37.5t-40.5 102.5q0 73 49 117t127 60t194 16zM405 278h-27
q-280 0 -280 -147q0 -45 28.5 -71.5t74.5 -26.5q154 0 197 211z" />
    <glyph glyph-name="b" unicode="b" horiz-adv-x="584" 
d="M117 102l-22 -102h-51l157 735h55l-66 -304h2q26 47 70.5 78t103.5 31q92 0 135 -61.5t43 -148.5q0 -143 -73.5 -242.5t-189.5 -99.5q-66 0 -106.5 32.5t-55.5 81.5h-2zM282 34q67 0 115.5 49t69.5 114t21 132q0 71 -32.5 118t-99.5 47q-63 0 -112.5 -46.5t-74 -115
t-24.5 -142.5q0 -71 36 -113.5t101 -42.5z" />
    <glyph glyph-name="c" unicode="c" horiz-adv-x="438" 
d="M454 525l-15 -46q-37 15 -87 15q-104 0 -169 -86.5t-65 -200.5q0 -77 38.5 -125.5t117.5 -48.5q52 0 98 15v-44q-53 -16 -103 -16q-102 0 -154.5 60t-52.5 154q0 137 81 237.5t211 100.5q60 0 100 -15z" />
    <glyph glyph-name="d" unicode="d" horiz-adv-x="584" 
d="M486 426l66 309h55l-156 -735h-51l21 93h-2q-62 -105 -173 -105q-92 0 -137.5 60.5t-45.5 149.5q0 142 75 242t189 100q63 0 102.5 -32t54.5 -82h2zM326 494q-67 0 -116 -49t-70 -114t-21 -132q0 -70 33 -117.5t99 -47.5q94 0 153 93.5t59 210.5q0 70 -36 113t-101 43z
" />
    <glyph glyph-name="e" unicode="e" horiz-adv-x="541" 
d="M497 251h-374q-3 -18 -3 -47q0 -76 43 -123.5t130 -47.5q62 0 118 18v-44q-57 -19 -126 -19q-109 0 -165 58.5t-56 153.5q0 136 76.5 238t198.5 102q86 0 130 -47t44 -129q0 -40 -16 -113zM454 298q8 38 8 63q0 62 -31.5 97.5t-96.5 35.5q-78 0 -131 -56.5t-73 -139.5
h324z" />
    <glyph glyph-name="f" unicode="f" horiz-adv-x="307" 
d="M437 725l-11 -43q-29 9 -61 9q-53 0 -80.5 -31t-40.5 -99l-7 -33h136l-11 -46h-134l-101 -482h-55l102 482h-116l11 46h114l9 43q17 81 56 122.5t117 41.5q36 0 72 -10z" />
    <glyph glyph-name="g" unicode="g" horiz-adv-x="584" 
d="M562 528l-109 -513q-23 -110 -84.5 -160t-168.5 -50q-83 0 -151 27l14 45q66 -26 139 -26q88 0 133.5 40t65.5 128l20 87h-2q-27 -43 -72 -71t-103 -28q-91 0 -136 60t-45 149q0 135 75 229.5t189 94.5q63 0 102 -32t54 -82h2l22 102h55zM326 494q-66 0 -115 -45
t-70.5 -106.5t-21.5 -126.5q0 -70 32 -116.5t98 -46.5q96 0 154 85t58 200q0 72 -35 114t-100 42z" />
    <glyph glyph-name="h" unicode="h" horiz-adv-x="574" 
d="M200 735h56l-66 -306h2q28 53 75.5 82t102.5 29q74 0 113 -39t39 -104q0 -32 -8 -72l-68 -325h-56l68 321q9 40 9 70q0 45 -27 74t-82 29q-69 0 -122.5 -51.5t-73.5 -146.5l-62 -296h-56z" />
    <glyph glyph-name="i" unicode="i" horiz-adv-x="236" 
d="M156 528h56l-112 -528h-56zM193 727h63l-15 -69h-63z" />
    <glyph glyph-name="j" unicode="j" horiz-adv-x="236" 
d="M215 528l-121 -571q-16 -77 -51.5 -114.5t-109.5 -37.5q-25 0 -48 4l8 45q20 -3 40 -3q49 0 71 28t35 86l120 563h56zM196 727h63l-15 -69h-63z" />
    <glyph glyph-name="k" unicode="k" horiz-adv-x="456" 
d="M429 528h74l-285 -242l205 -286h-66l-196 280h-2l-59 -280h-56l156 735h56l-93 -436h2z" />
    <glyph glyph-name="l" unicode="l" horiz-adv-x="237" 
d="M200 735h56l-156 -735h-56z" />
    <glyph glyph-name="m" unicode="m" horiz-adv-x="897" 
d="M694 540q73 0 112 -38.5t39 -105.5q0 -27 -9 -74l-67 -322h-55l67 321q9 40 9 70q0 46 -26.5 74.5t-80.5 28.5q-63 0 -113.5 -45t-66.5 -121l-69 -328h-55l70 328q9 43 9 64q0 47 -25.5 74.5t-77.5 27.5q-66 0 -119.5 -51.5t-72.5 -142.5l-63 -300h-56l112 528h54
l-22 -100h2q29 54 76 83t102 29q62 0 99 -31.5t39 -81.5h3q31 56 80 84.5t105 28.5z" />
    <glyph glyph-name="n" unicode="n" horiz-adv-x="574" 
d="M156 528h54l-22 -100h2q28 52 76.5 82t104.5 30q73 0 112 -39t39 -104q0 -28 -9 -75l-67 -322h-56l68 321q9 40 9 71q0 44 -26.5 73t-79.5 29q-71 0 -125.5 -53t-73.5 -145l-62 -296h-56z" />
    <glyph glyph-name="o" unicode="o" horiz-adv-x="572" 
d="M529 338q0 -44 -9.5 -91t-31.5 -93.5t-52.5 -83t-77.5 -59.5t-103 -23q-95 0 -143.5 56.5t-48.5 149.5q0 144 76 245t195 101q95 0 145 -55t50 -147zM257 34q69 0 120.5 51t73.5 117.5t22 132.5q0 72 -35 115.5t-105 43.5q-67 0 -117 -44.5t-73.5 -110.5t-23.5 -142
q0 -72 34 -117.5t104 -45.5z" />
    <glyph glyph-name="p" unicode="p" horiz-adv-x="584" 
d="M120 101l-63 -296h-55l154 723h55l-21 -97h2q26 47 71 78t102 31q92 0 135.5 -61t43.5 -149q0 -142 -73.5 -242t-189.5 -100q-67 0 -106.5 32t-52.5 81h-2zM282 34q66 0 115 49t70 114t21 132q0 71 -33 118t-99 47q-94 0 -153 -93.5t-59 -210.5q0 -71 36 -113.5
t102 -42.5z" />
    <glyph glyph-name="q" unicode="q" horiz-adv-x="579" 
d="M489 426l22 102h52l-154 -723h-53l63 284h-2q-61 -101 -171 -101q-91 0 -137 60.5t-46 149.5q0 142 75 242t189 100q65 0 105 -32t55 -82h2zM326 494q-67 0 -116 -49t-70 -114t-21 -132q0 -70 33 -117.5t99 -47.5q94 0 153 93.5t59 210.5q0 71 -36 113.5t-101 42.5z" />
    <glyph glyph-name="r" unicode="r" horiz-adv-x="339" 
d="M393 537l-11 -46q-15 3 -37 3q-66 0 -114.5 -52t-67.5 -142l-63 -300h-56l112 528h54l-21 -95h2q24 49 66 78t98 29q23 0 38 -3z" />
    <glyph glyph-name="s" unicode="s" horiz-adv-x="403" 
d="M395 515l-15 -45q-55 24 -113 24q-52 0 -89.5 -21.5t-37.5 -70.5q0 -33 20.5 -56.5t64.5 -53.5q56 -38 85.5 -75t29.5 -85q0 -74 -50.5 -109t-133.5 -35q-84 0 -158 36l17 45q72 -35 141 -35q60 0 95.5 23t35.5 70q0 37 -23.5 65t-72.5 61q-54 37 -79 68.5t-25 77.5
q0 71 53.5 106t126.5 35q69 0 128 -25z" />
    <glyph glyph-name="t" unicode="t" horiz-adv-x="320" 
d="M64 482l11 46h102l27 130h55l-27 -130h126l-11 -46h-126l-73 -349q-7 -29 -7 -48q0 -45 64 -45q34 0 62 4l-8 -44q-32 -6 -75 -6q-98 0 -98 81q0 26 8 61l73 346h-103z" />
    <glyph glyph-name="u" unicode="u" horiz-adv-x="574" 
d="M435 0h-53l22 100h-2q-28 -52 -77 -82t-105 -30q-73 0 -111.5 38.5t-38.5 104.5q0 28 9 75l67 322h56l-68 -321q-9 -40 -9 -71q0 -45 25.5 -73.5t78.5 -28.5q72 0 127 53t74 145l62 296h55z" />
    <glyph glyph-name="v" unicode="v" horiz-adv-x="474" 
d="M123 0l-39 528h56l31 -479h2l297 479h61l-336 -528h-72z" />
    <glyph glyph-name="w" unicode="w" horiz-adv-x="779" 
d="M449 0l-5 479h-2l-259 -479h-76l-12 528h56l4 -479h2l259 479h78l4 -479h2l262 479h62l-299 -528h-76z" />
    <glyph glyph-name="x" unicode="x" horiz-adv-x="471" 
d="M29 0h-67l251 277l-117 251h62l98 -218l192 218h69l-234 -257l128 -271h-62l-109 236z" />
    <glyph glyph-name="y" unicode="y" horiz-adv-x="474" 
d="M141 528l41 -459h2l286 459h63l-467 -723h-61l130 199l-50 524h56z" />
    <glyph glyph-name="z" unicode="z" horiz-adv-x="468" 
d="M13 46l385 437h-282l10 45h350l-11 -45l-382 -437h314l-10 -46h-384z" />
    <glyph glyph-name="braceleft" unicode="{" horiz-adv-x="310" 
d="M30 282l9 41q51 7 71.5 33.5t35.5 97.5l46 214q15 69 45.5 99t83.5 30h54l-8 -40h-36q-42 0 -61.5 -21.5t-32.5 -81.5l-43 -202q-16 -75 -39 -105.5t-75 -43.5l-1 -2q31 -11 44.5 -31.5t13.5 -55.5q0 -28 -9 -72l-41 -194q-6 -27 -6 -45q0 -58 62 -58h30l-9 -40h-33
q-47 0 -73 23.5t-26 66.5q0 27 9 65l39 181q12 55 12 76q0 29 -14.5 44.5t-47.5 20.5z" />
    <glyph glyph-name="bar" unicode="|" horiz-adv-x="465" 
d="M231 735h46v-930h-46v930z" />
    <glyph glyph-name="braceright" unicode="}" horiz-adv-x="310" 
d="M319 320l-9 -41q-51 -7 -71.5 -33.5t-35.5 -97.5l-46 -214q-15 -69 -45.5 -99t-83.5 -30h-54l8 40h36q42 0 61.5 21.5t32.5 81.5l43 202q16 75 39 105.5t75 43.5l1 2q-31 11 -44.5 31.5t-13.5 55.5q0 28 9 72l41 194q6 27 6 45q0 58 -62 58h-30l9 40h33q47 0 73 -23.5
t26 -67.5q0 -26 -9 -64l-39 -181q-12 -55 -12 -76q0 -29 14.5 -44.5t47.5 -20.5z" />
    <glyph glyph-name="asciitilde" unicode="~" horiz-adv-x="535" 
d="M513 354v-49q-49 -43 -121 -43q-43 0 -108 31t-104 31q-58 0 -113 -48v49q49 43 121 43q43 0 108 -31t104 -31q58 0 113 48z" />
    <glyph glyph-name="uni00A0" unicode="&#xa0;" horiz-adv-x="260" 
 />
    <glyph glyph-name="exclamdown" unicode="&#xa1;" horiz-adv-x="305" 
d="M254 528l-16 -78h-71l16 78h71zM202 341l-100 -527h-67l124 527h43z" />
    <glyph glyph-name="cent" unicode="&#xa2;" horiz-adv-x="493" 
d="M481 525l-16 -46q-36 14 -80 14l-97 -458q54 0 107 20v-46q-63 -21 -117 -21l-12 -55h-45l12 58q-82 11 -123 69t-41 142q0 134 79.5 230.5t200.5 104.5l14 63h45l-13 -60q49 -1 86 -15zM244 38l96 452q-97 -12 -155.5 -95t-58.5 -191q0 -67 29 -112t89 -54z" />
    <glyph glyph-name="sterling" unicode="&#xa3;" horiz-adv-x="588" 
d="M586 703l-18 -47q-42 21 -98 21q-136 0 -170 -160l-27 -124h160l-8 -41h-160l-64 -302h298l-10 -50h-464l11 50h108l64 302h-104l9 41h103l28 129q20 93 74.5 148.5t151.5 55.5q70 0 116 -23z" />
    <glyph glyph-name="currency" unicode="&#xa4;" horiz-adv-x="533" 
d="M462 351q0 -80 -55 -135l66 -83l-39 -29l-66 82q-46 -27 -103 -27q-56 0 -95 33l-85 -69l-30 38l85 69q-17 28 -17 66q0 82 55 135l-66 84l39 29l66 -83q47 28 103 28q55 0 95 -34l85 70l30 -38l-84 -69q16 -30 16 -67zM270 209q58 0 98 39t40 98q0 40 -25.5 66.5
t-66.5 26.5q-59 0 -99 -39.5t-40 -98.5q0 -40 25.5 -66t67.5 -26z" />
    <glyph glyph-name="yen" unicode="&#xa5;" horiz-adv-x="575" 
d="M79 192h173l23 107h-173l9 40h160l-133 375h60l117 -359l268 359h63l-289 -375h159l-9 -40h-177l-23 -107h177l-9 -40h-176l-32 -152h-55l32 152h-174z" />
    <glyph glyph-name="brokenbar" unicode="&#xa6;" horiz-adv-x="465" 
d="M231 735h46v-368h-46v368zM231 172h46v-367h-46v367z" />
    <glyph glyph-name="section" unicode="&#xa7;" horiz-adv-x="538" 
d="M109 310q0 58 41.5 93t106.5 42q-67 64 -67 130q0 71 50.5 111t137.5 40q76 0 126 -21l-17 -46q-47 18 -110 18q-60 0 -95.5 -24.5t-35.5 -75.5q0 -34 24.5 -65.5t82.5 -76.5q65 -51 90 -90t25 -85q0 -55 -40 -90t-104 -43q71 -67 71 -133q0 -75 -58 -113.5t-146 -38.5
q-83 0 -144 28l19 47q57 -26 130 -26q63 0 103 26t40 76q0 32 -25.5 65.5t-89.5 82.5q-62 47 -88.5 85t-26.5 84zM250 188l37 -28q127 9 127 98q0 34 -19.5 62.5t-63.5 63.5l-38 29q-58 -2 -94 -26.5t-36 -70.5q0 -32 18.5 -60.5t68.5 -67.5z" />
    <glyph glyph-name="dieresis" unicode="&#xa8;" horiz-adv-x="467" 
d="M219 715h59l-16 -73h-59zM392 715h59l-16 -73h-59z" />
    <glyph glyph-name="copyright" unicode="&#xa9;" horiz-adv-x="800" 
d="M109 356q0 -138 92 -232t232 -94q139 0 230.5 94t91.5 232q0 139 -91.5 234t-230.5 95q-140 0 -232 -95t-92 -234zM67 356q0 155 104.5 261t261.5 106t260.5 -105.5t103.5 -261.5q0 -154 -103.5 -259.5t-260.5 -105.5t-261.5 105.5t-104.5 259.5zM549 565l-12 -42
q-39 18 -83 18q-81 0 -122.5 -50.5t-41.5 -132.5q0 -80 42 -131t120 -51q52 0 93 18l10 -41q-43 -20 -109 -20q-97 0 -152.5 62t-55.5 163t56 163t156 62q64 0 99 -18z" />
    <glyph glyph-name="ordfeminine" unicode="&#xaa;" horiz-adv-x="338" 
d="M315 567q6 28 6 38q0 53 -66 53q-41 0 -89 -16l-1 38q53 17 97 17q51 0 78.5 -23t27.5 -67q0 -16 -5 -39l-26 -121q-10 -48 -10 -74h-44q0 22 6 50h-2q-35 -58 -100 -58q-41 0 -66.5 23t-25.5 60q0 66 57 92.5t163 26.5zM308 533h-12q-154 0 -154 -80q0 -23 14 -37
t39 -14q45 0 72.5 33.5t35.5 74.5z" />
    <glyph glyph-name="guillemotleft" unicode="&#xab;" horiz-adv-x="509" 
d="M313 481l-161 -185l80 -181h-50l-82 184l1 5l157 177h55zM484 481l-161 -185l80 -181h-50l-83 184l1 5l158 177h55z" />
    <glyph glyph-name="logicalnot" unicode="&#xac;" horiz-adv-x="535" 
d="M469 396h-402v44h446v-251h-44v207z" />
    <glyph glyph-name="uni00AD" unicode="&#xad;" horiz-adv-x="380" 
d="M86 277l10 48h232l-10 -48h-232z" />
    <glyph glyph-name="registered" unicode="&#xae;" horiz-adv-x="503" 
d="M106 525q0 89 60 149t152 60q91 0 150 -60t59 -149t-59 -149.5t-150 -60.5q-92 0 -152 60.5t-60 149.5zM134 525q0 -78 52 -131t132 -53q79 0 130.5 53.5t51.5 130.5t-51.5 129.5t-130.5 52.5q-80 0 -132 -52.5t-52 -129.5zM240 404v243h87q76 0 76 -62q0 -47 -44 -60
q23 -9 34 -44l24 -77h-34l-20 69q-6 23 -16 30.5t-37 7.5h-37v-107h-33zM273 621v-84h45q23 0 37.5 11t14.5 32q0 41 -49 41h-48z" />
    <glyph glyph-name="macron" unicode="&#xaf;" horiz-adv-x="467" 
d="M455 697l-9 -43h-247l9 43h247z" />
    <glyph glyph-name="degree" unicode="&#xb0;" horiz-adv-x="365" 
d="M255 725q54 0 92 -38.5t38 -93.5q0 -56 -38 -94t-94 -38t-94 38t-38 95q0 55 39 93t95 38zM253 689q-40 0 -67.5 -27.5t-27.5 -68.5t27 -68.5t68 -27.5t68 27.5t27 69.5q0 40 -27 67.5t-68 27.5z" />
    <glyph glyph-name="plusminus" unicode="&#xb1;" horiz-adv-x="535" 
d="M513 81h-446v44h446v-44zM267 197v162h-200v44h200v162h46v-162h200v-44h-200v-162h-46z" />
    <glyph glyph-name="twosuperior" unicode="&#xb2;" 
d="M380 470l-9 -42h-270l8 45q165 126 216.5 181t51.5 102q0 30 -20 48t-53 18q-43 0 -105 -34l-12 38q59 38 124 38q53 0 84 -27.5t31 -74.5q0 -62 -50.5 -118t-202.5 -173v-1h207z" />
    <glyph glyph-name="threesuperior" unicode="&#xb3;" 
d="M200 629l8 40h50q50 0 86 24t36 67q0 30 -19.5 46t-53.5 16q-50 0 -103 -25l-10 39q59 28 118 28q55 0 86 -26t31 -71q0 -46 -26.5 -75.5t-71.5 -41.5v-2q32 -9 50 -33.5t18 -57.5q0 -66 -45.5 -101t-121.5 -35q-69 0 -119 28l18 40q49 -26 101 -26q51 0 84.5 23.5
t33.5 70.5q0 34 -26 53t-73 19h-51z" />
    <glyph glyph-name="acute" unicode="&#xb4;" horiz-adv-x="467" 
d="M464 768l-151 -164h-44l132 164h63z" />
    <glyph glyph-name="mu" unicode="&#xb5;" horiz-adv-x="601" 
d="M2 -195l153 723h56l-66 -312q-11 -50 -11 -79q0 -55 29.5 -79t74.5 -24q70 0 125.5 52t75.5 146l62 296h55l-84 -396q-8 -36 -8 -54q0 -38 38 -38q18 0 27 3l-8 -44q-17 -5 -38 -5q-70 0 -73 68q0 20 3 38h-2q-30 -54 -78.5 -83t-103.5 -29q-48 0 -79.5 17.5t-38.5 42.5
h-2l-52 -243h-55z" />
    <glyph glyph-name="paragraph" unicode="&#xb6;" horiz-adv-x="543" 
d="M588 714l-176 -831h-46l167 792h-146l-168 -792h-46l93 441q-79 0 -125.5 42t-46.5 113q0 107 78 171t199 64h217z" />
    <glyph glyph-name="periodcentered" unicode="&#xb7;" horiz-adv-x="264" 
d="M104 263l18 80h75l-18 -80h-75z" />
    <glyph glyph-name="cedilla" unicode="&#xb8;" horiz-adv-x="467" 
d="M171 8l-30 -72q10 2 27 2q31 0 50.5 -16.5t19.5 -46.5q0 -87 -121 -87q-25 0 -50 5l5 32q23 -4 46 -4q78 0 78 52q0 35 -54 35q-22 0 -45 -4l39 104h35z" />
    <glyph glyph-name="onesuperior" unicode="&#xb9;" 
d="M368 857l-91 -429h-50l80 377l-99 -56l-18 36l128 72h50z" />
    <glyph glyph-name="ordmasculine" unicode="&#xba;" horiz-adv-x="368" 
d="M398 574q0 -83 -44.5 -145.5t-128.5 -62.5q-56 0 -87.5 34t-31.5 90q0 88 45.5 147.5t126.5 59.5q56 0 88 -33.5t32 -89.5zM229 404q57 0 88.5 52.5t31.5 117.5q0 39 -19 62t-56 23q-56 0 -87.5 -50.5t-31.5 -116.5q0 -40 19 -64t55 -24z" />
    <glyph glyph-name="guillemotright" unicode="&#xbb;" horiz-adv-x="509" 
d="M231 115l161 184l-80 182h50l83 -185l-1 -5l-158 -176h-55zM60 115l162 184l-80 182h50l82 -185l-1 -5l-158 -176h-55z" />
    <glyph glyph-name="onequarter" unicode="&#xbc;" horiz-adv-x="883" 
d="M338 714l-91 -429h-50l80 377l-99 -56l-18 36l128 72h50zM782 714l-565 -714h-47l565 714h47zM814 429l-61 -284h61l-9 -41h-60l-22 -104h-48l22 104h-200l9 47l244 278h64zM706 145l48 230h-1l-200 -230h153z" />
    <glyph glyph-name="onehalf" unicode="&#xbd;" horiz-adv-x="883" 
d="M338 714l-91 -429h-50l80 377l-99 -56l-18 36l128 72h50zM787 42l-9 -42h-270l8 45q165 126 216.5 181t51.5 102q0 30 -20 48t-53 18q-43 0 -105 -34l-12 38q59 38 124 38q53 0 84 -27.5t31 -74.5q0 -62 -50.5 -118t-202.5 -173v-1h207zM779 714l-565 -714h-47l565 714
h47z" />
    <glyph glyph-name="threequarters" unicode="&#xbe;" horiz-adv-x="883" 
d="M170 486l8 40h50q50 0 86 24t36 67q0 30 -19.5 46t-53.5 16q-50 0 -103 -25l-10 39q59 28 118 28q55 0 86 -26t31 -71q0 -46 -26.5 -75.5t-71.5 -41.5v-2q32 -9 50 -33.5t18 -57.5q0 -66 -45.5 -101t-121.5 -35q-69 0 -119 28l18 40q49 -26 101 -26q51 0 84.5 23.5
t33.5 70.5q0 34 -26 53t-73 19h-51zM814 429l-61 -284h61l-9 -41h-60l-22 -104h-48l22 104h-200l9 47l244 278h64zM706 145l48 230h-1l-200 -230h153zM792 714l-565 -714h-47l565 714h47z" />
    <glyph glyph-name="questiondown" unicode="&#xbf;" horiz-adv-x="448" 
d="M277 528h74l-16 -78h-74zM251 338l6 28h51l-5 -26q-13 -67 -39.5 -110.5t-77.5 -81.5l-46 -34q-55 -40 -81 -74t-26 -85q0 -50 35.5 -76.5t88.5 -26.5q72 0 141 31l9 -45q-75 -36 -159 -36q-75 0 -123 39t-48 116q0 35 9.5 63.5t32.5 53.5t42.5 41t56.5 42q64 45 92 82
t41 99z" />
    <glyph glyph-name="Agrave" unicode="&#xc0;" horiz-adv-x="616" 
d="M159 227l-136 -227h-64l430 714h79l94 -714h-60l-29 227h-314zM421 670l-236 -393h283zM324 904h63l84 -134h-42z" />
    <glyph glyph-name="Aacute" unicode="&#xc1;" horiz-adv-x="616" 
d="M159 227l-136 -227h-64l430 714h79l94 -714h-60l-29 227h-314zM421 670l-236 -393h283zM524 903h67l-136 -134h-45z" />
    <glyph glyph-name="Acircumflex" unicode="&#xc2;" horiz-adv-x="616" 
d="M159 227l-136 -227h-64l430 714h79l94 -714h-60l-29 227h-314zM421 670l-236 -393h283zM585 762h-44l-78 111l-125 -111h-52l152 146h57z" />
    <glyph glyph-name="Atilde" unicode="&#xc3;" horiz-adv-x="616" 
d="M159 227l-136 -227h-64l430 714h79l94 -714h-60l-29 227h-314zM421 670l-236 -393h283zM464 854q34 -33 58 -33q20 0 35.5 18t21.5 51h42q-10 -50 -36 -80t-65 -30q-33 0 -75 37q-37 32 -59 32q-43 0 -56 -69h-42q22 110 99 110q36 0 77 -36z" />
    <glyph glyph-name="Adieresis" unicode="&#xc4;" horiz-adv-x="616" 
d="M159 227l-136 -227h-64l430 714h79l94 -714h-60l-29 227h-314zM421 670l-236 -393h283zM349 876h59l-16 -73h-59zM522 876h59l-16 -73h-59z" />
    <glyph glyph-name="Aring" unicode="&#xc5;" horiz-adv-x="616" 
d="M159 227l-136 -227h-64l430 714h79l94 -714h-60l-29 227h-314zM421 670l-236 -393h283zM456 908q-27 0 -46 -18.5t-19 -45.5q0 -28 19 -46.5t46 -18.5q28 0 46.5 18.5t18.5 46.5q0 27 -19 45.5t-46 18.5zM457 938q39 0 66.5 -28t27.5 -66q0 -40 -27.5 -67.5t-67.5 -27.5
t-67.5 27.5t-27.5 67.5t27.5 67t68.5 27z" />
    <glyph glyph-name="AE" unicode="&#xc6;" horiz-adv-x="841" 
d="M374 0l44 207h-243l-152 -207h-64l525 714h384l-10 -49h-287l-58 -272h278l-10 -49h-278l-62 -295h314l-11 -49h-370zM514 669l-303 -412h217l88 412h-2z" />
    <glyph glyph-name="Ccedilla" unicode="&#xc7;" horiz-adv-x="568" 
d="M317 -10l-22 -54q10 2 27 2q31 0 50.5 -16.5t19.5 -46.5q0 -87 -121 -87q-25 0 -50 5l5 32q23 -4 46 -4q78 0 78 52q0 35 -54 35q-22 0 -45 -4l34 91q-102 19 -153 94t-51 183q0 116 45.5 218t138.5 169t215 67q78 0 136 -23l-17 -47q-55 21 -123 21q-104 0 -183 -61
t-116.5 -151t-37.5 -190q0 -106 55.5 -172t170.5 -66q65 0 130 21v-49q-64 -21 -141 -21q-13 0 -37 2z" />
    <glyph glyph-name="Egrave" unicode="&#xc8;" horiz-adv-x="518" 
d="M51 0l151 714h343l-10 -49h-287l-58 -272h278l-10 -49h-278l-62 -295h314l-11 -49h-370zM274 904h63l84 -134h-42z" />
    <glyph glyph-name="Eacute" unicode="&#xc9;" horiz-adv-x="518" 
d="M51 0l151 714h343l-10 -49h-287l-58 -272h278l-10 -49h-278l-62 -295h314l-11 -49h-370zM460 903h67l-136 -134h-45z" />
    <glyph glyph-name="Ecircumflex" unicode="&#xca;" horiz-adv-x="518" 
d="M51 0l151 714h343l-10 -49h-287l-58 -272h278l-10 -49h-278l-62 -295h314l-11 -49h-370zM532 762h-44l-78 111l-125 -111h-52l152 146h57z" />
    <glyph glyph-name="Edieresis" unicode="&#xcb;" horiz-adv-x="518" 
d="M51 0l151 714h343l-10 -49h-287l-58 -272h278l-10 -49h-278l-62 -295h314l-11 -49h-370zM294 876h59l-16 -73h-59zM467 876h59l-16 -73h-59z" />
    <glyph glyph-name="Igrave" unicode="&#xcc;" horiz-adv-x="248" 
d="M51 0l151 714h56l-151 -714h-56zM121 904h63l84 -134h-42z" />
    <glyph glyph-name="Iacute" unicode="&#xcd;" horiz-adv-x="248" 
d="M51 0l151 714h56l-151 -714h-56zM328 903h67l-136 -134h-45z" />
    <glyph glyph-name="Icircumflex" unicode="&#xce;" horiz-adv-x="248" 
d="M51 0l151 714h56l-151 -714h-56zM387 762h-44l-78 111l-125 -111h-52l152 146h57z" />
    <glyph glyph-name="Idieresis" unicode="&#xcf;" horiz-adv-x="248" 
d="M51 0l151 714h56l-151 -714h-56zM150 876h59l-16 -73h-59zM323 876h59l-16 -73h-59z" />
    <glyph glyph-name="Eth" unicode="&#xd0;" horiz-adv-x="682" 
d="M51 0l74 350h-74l8 37h74l69 327h156q148 0 221.5 -73.5t73.5 -203.5q0 -194 -115.5 -315.5t-318.5 -121.5h-168zM248 665l-59 -278h135l-8 -37h-135l-63 -301h101q178 0 277.5 106.5t99.5 275.5q0 110 -61.5 172t-193.5 62h-93z" />
    <glyph glyph-name="Ntilde" unicode="&#xd1;" horiz-adv-x="683" 
d="M287 714l210 -654h2l139 654h55l-151 -714h-83l-212 656h-2l-139 -656h-55l151 714h85zM483 854q35 -33 58 -33q20 0 35.5 18t21.5 51h42q-10 -50 -36 -80t-65 -30q-33 0 -75 37q-37 32 -59 32q-43 0 -56 -69h-42q22 110 99 110q36 0 77 -36z" />
    <glyph glyph-name="Ograve" unicode="&#xd2;" horiz-adv-x="726" 
d="M700 463q0 -65 -13.5 -130.5t-43.5 -128t-72.5 -110.5t-104.5 -77t-136 -29q-121 0 -185 72t-64 193q0 90 25.5 174.5t71.5 151.5t117.5 107t157.5 40q122 0 184.5 -71.5t62.5 -191.5zM334 37q75 0 135.5 38.5t97.5 100.5t56.5 134t19.5 144q0 100 -49 161.5t-146 61.5
q-91 0 -163 -60t-109.5 -154.5t-37.5 -202.5q0 -100 49.5 -161.5t146.5 -61.5zM376 904h63l84 -134h-42z" />
    <glyph glyph-name="Oacute" unicode="&#xd3;" horiz-adv-x="726" 
d="M700 463q0 -65 -13.5 -130.5t-43.5 -128t-72.5 -110.5t-104.5 -77t-136 -29q-121 0 -185 72t-64 193q0 90 25.5 174.5t71.5 151.5t117.5 107t157.5 40q122 0 184.5 -71.5t62.5 -191.5zM334 37q75 0 135.5 38.5t97.5 100.5t56.5 134t19.5 144q0 100 -49 161.5t-146 61.5
q-91 0 -163 -60t-109.5 -154.5t-37.5 -202.5q0 -100 49.5 -161.5t146.5 -61.5zM544 903h67l-136 -134h-45z" />
    <glyph glyph-name="Ocircumflex" unicode="&#xd4;" horiz-adv-x="726" 
d="M700 463q0 -65 -13.5 -130.5t-43.5 -128t-72.5 -110.5t-104.5 -77t-136 -29q-121 0 -185 72t-64 193q0 90 25.5 174.5t71.5 151.5t117.5 107t157.5 40q122 0 184.5 -71.5t62.5 -191.5zM334 37q75 0 135.5 38.5t97.5 100.5t56.5 134t19.5 144q0 100 -49 161.5t-146 61.5
q-91 0 -163 -60t-109.5 -154.5t-37.5 -202.5q0 -100 49.5 -161.5t146.5 -61.5zM624 762h-44l-78 111l-125 -111h-52l152 146h57z" />
    <glyph glyph-name="Otilde" unicode="&#xd5;" horiz-adv-x="726" 
d="M700 463q0 -65 -13.5 -130.5t-43.5 -128t-72.5 -110.5t-104.5 -77t-136 -29q-121 0 -185 72t-64 193q0 90 25.5 174.5t71.5 151.5t117.5 107t157.5 40q122 0 184.5 -71.5t62.5 -191.5zM334 37q75 0 135.5 38.5t97.5 100.5t56.5 134t19.5 144q0 100 -49 161.5t-146 61.5
q-91 0 -163 -60t-109.5 -154.5t-37.5 -202.5q0 -100 49.5 -161.5t146.5 -61.5zM502 854q34 -33 58 -33q20 0 35.5 18t21.5 51h42q-10 -50 -36 -80t-65 -30q-33 0 -75 37q-37 32 -59 32q-43 0 -56 -69h-42q22 110 99 110q36 0 77 -36z" />
    <glyph glyph-name="Odieresis" unicode="&#xd6;" horiz-adv-x="726" 
d="M700 463q0 -65 -13.5 -130.5t-43.5 -128t-72.5 -110.5t-104.5 -77t-136 -29q-121 0 -185 72t-64 193q0 90 25.5 174.5t71.5 151.5t117.5 107t157.5 40q122 0 184.5 -71.5t62.5 -191.5zM334 37q75 0 135.5 38.5t97.5 100.5t56.5 134t19.5 144q0 100 -49 161.5t-146 61.5
q-91 0 -163 -60t-109.5 -154.5t-37.5 -202.5q0 -100 49.5 -161.5t146.5 -61.5zM385 876h59l-16 -73h-59zM558 876h59l-16 -73h-59z" />
    <glyph glyph-name="multiply" unicode="&#xd7;" horiz-adv-x="535" 
d="M514 501l-193 -193l193 -193l-32 -32l-193 193l-192 -193l-32 32l192 193l-192 193l33 32l191 -193l192 193z" />
    <glyph glyph-name="Oslash" unicode="&#xd8;" horiz-adv-x="726" 
d="M700 463q0 -65 -13.5 -130.5t-43.5 -128t-72.5 -110.5t-104.5 -77t-136 -29q-129 0 -195 83l-83 -85l-27 27l89 90q-33 63 -33 150q0 90 25.5 174.5t71.5 151.5t117.5 107t157.5 40q129 0 193 -83l79 80l26 -27l-84 -85q33 -61 33 -148zM334 37q75 0 135.5 38.5
t97.5 100.5t56.5 134t19.5 144q0 61 -20 112l-447 -454q52 -75 158 -75zM138 260q0 -66 20 -112l446 453q-50 76 -156 76q-91 0 -163 -60t-109.5 -154.5t-37.5 -202.5z" />
    <glyph glyph-name="Ugrave" unicode="&#xd9;" horiz-adv-x="670" 
d="M693 714l-105 -495q-24 -112 -89.5 -171.5t-198.5 -59.5q-109 0 -165.5 43.5t-56.5 124.5q0 33 8 71l103 487h56l-102 -484q-7 -29 -7 -67q0 -126 169 -126q107 0 157 47t70 139l104 491h57zM341 904h63l84 -134h-42z" />
    <glyph glyph-name="Uacute" unicode="&#xda;" horiz-adv-x="670" 
d="M693 714l-105 -495q-24 -112 -89.5 -171.5t-198.5 -59.5q-109 0 -165.5 43.5t-56.5 124.5q0 33 8 71l103 487h56l-102 -484q-7 -29 -7 -67q0 -126 169 -126q107 0 157 47t70 139l104 491h57zM525 903h67l-136 -134h-45z" />
    <glyph glyph-name="Ucircumflex" unicode="&#xdb;" horiz-adv-x="670" 
d="M693 714l-105 -495q-24 -112 -89.5 -171.5t-198.5 -59.5q-109 0 -165.5 43.5t-56.5 124.5q0 33 8 71l103 487h56l-102 -484q-7 -29 -7 -67q0 -126 169 -126q107 0 157 47t70 139l104 491h57zM599 762h-44l-78 111l-125 -111h-52l152 146h57z" />
    <glyph glyph-name="Udieresis" unicode="&#xdc;" horiz-adv-x="670" 
d="M693 714l-105 -495q-24 -112 -89.5 -171.5t-198.5 -59.5q-109 0 -165.5 43.5t-56.5 124.5q0 33 8 71l103 487h56l-102 -484q-7 -29 -7 -67q0 -126 169 -126q107 0 157 47t70 139l104 491h57zM360 876h59l-16 -73h-59zM533 876h59l-16 -73h-59z" />
    <glyph glyph-name="Yacute" unicode="&#xdd;" horiz-adv-x="532" 
d="M185 0l62 295l-145 419h62l120 -367l288 367h67l-336 -419l-62 -295h-56zM443 903h67l-136 -134h-45z" />
    <glyph glyph-name="Thorn" unicode="&#xde;" horiz-adv-x="588" 
d="M51 0l151 714h56l-27 -130h134q91 0 149 -43t58 -127q0 -114 -79 -172t-200 -58h-147l-39 -184h-56zM350 535h-130l-64 -302h142q41 0 76.5 8.5t68 27t51.5 54.5t19 85q0 67 -45.5 97t-117.5 30z" />
    <glyph glyph-name="germandbls" unicode="&#xdf;" horiz-adv-x="628" 
d="M412 735q86 0 137 -46.5t51 -124.5t-49 -129t-134 -62v-2q67 -12 105.5 -56.5t38.5 -109.5q0 -101 -63.5 -159t-172.5 -58q-75 0 -125 22l16 44q49 -20 108 -20q84 0 132.5 44.5t48.5 124.5q0 61 -43 101t-131 40l10 49q86 4 144.5 46t58.5 121q0 60 -38 93t-100 33
q-162 0 -204 -205l-102 -481h-56l103 485q27 129 92.5 189.5t172.5 60.5z" />
    <glyph glyph-name="agrave" unicode="&#xe0;" horiz-adv-x="530" 
d="M414 321q10 43 10 68q0 105 -123 105q-64 0 -137 -22l-2 45q71 23 142 23q82 0 128.5 -37t46.5 -108q0 -28 -8 -65l-44 -204q-14 -66 -16 -126h-47q0 41 11 98h-2q-57 -110 -184 -110q-64 0 -104.5 37.5t-40.5 102.5q0 73 49 117t127 60t194 16zM405 278h-27
q-280 0 -280 -147q0 -45 28.5 -71.5t74.5 -26.5q154 0 197 211zM345 604l-98 164h60l78 -164h-40z" />
    <glyph glyph-name="aacute" unicode="&#xe1;" horiz-adv-x="530" 
d="M414 321q10 43 10 68q0 105 -123 105q-64 0 -137 -22l-2 45q71 23 142 23q82 0 128.5 -37t46.5 -108q0 -28 -8 -65l-44 -204q-14 -66 -16 -126h-47q0 41 11 98h-2q-57 -110 -184 -110q-64 0 -104.5 37.5t-40.5 102.5q0 73 49 117t127 60t194 16zM405 278h-27
q-280 0 -280 -147q0 -45 28.5 -71.5t74.5 -26.5q154 0 197 211zM490 768l-151 -164h-44l132 164h63z" />
    <glyph glyph-name="acircumflex" unicode="&#xe2;" horiz-adv-x="530" 
d="M414 321q10 43 10 68q0 105 -123 105q-64 0 -137 -22l-2 45q71 23 142 23q82 0 128.5 -37t46.5 -108q0 -28 -8 -65l-44 -204q-14 -66 -16 -126h-47q0 41 11 98h-2q-57 -110 -184 -110q-64 0 -104.5 37.5t-40.5 102.5q0 73 49 117t127 60t194 16zM405 278h-27
q-280 0 -280 -147q0 -45 28.5 -71.5t74.5 -26.5q154 0 197 211zM490 604h-45l-75 129l-128 -129h-51l154 164h57z" />
    <glyph glyph-name="atilde" unicode="&#xe3;" horiz-adv-x="530" 
d="M414 321q10 43 10 68q0 105 -123 105q-64 0 -137 -22l-2 45q71 23 142 23q82 0 128.5 -37t46.5 -108q0 -28 -8 -65l-44 -204q-14 -66 -16 -126h-47q0 41 11 98h-2q-57 -110 -184 -110q-64 0 -104.5 37.5t-40.5 102.5q0 73 49 117t127 60t194 16zM405 278h-27
q-280 0 -280 -147q0 -45 28.5 -71.5t74.5 -26.5q154 0 197 211zM361 702q35 -33 58 -33q45 0 57 68h42q-22 -110 -102 -110q-21 0 -36.5 8.5t-38.5 27.5q-36 33 -57 33q-43 0 -57 -69h-42q22 110 102 110q36 0 74 -35z" />
    <glyph glyph-name="adieresis" unicode="&#xe4;" horiz-adv-x="530" 
d="M414 321q10 43 10 68q0 105 -123 105q-64 0 -137 -22l-2 45q71 23 142 23q82 0 128.5 -37t46.5 -108q0 -28 -8 -65l-44 -204q-14 -66 -16 -126h-47q0 41 11 98h-2q-57 -110 -184 -110q-64 0 -104.5 37.5t-40.5 102.5q0 73 49 117t127 60t194 16zM405 278h-27
q-280 0 -280 -147q0 -45 28.5 -71.5t74.5 -26.5q154 0 197 211zM248 715h59l-16 -73h-59zM421 715h59l-16 -73h-59z" />
    <glyph glyph-name="aring" unicode="&#xe5;" horiz-adv-x="530" 
d="M414 321q10 43 10 68q0 105 -123 105q-64 0 -137 -22l-2 45q71 23 142 23q82 0 128.5 -37t46.5 -108q0 -28 -8 -65l-44 -204q-14 -66 -16 -126h-47q0 41 11 98h-2q-57 -110 -184 -110q-64 0 -104.5 37.5t-40.5 102.5q0 73 49 117t127 60t194 16zM405 278h-27
q-280 0 -280 -147q0 -45 28.5 -71.5t74.5 -26.5q154 0 197 211zM361 756q-27 0 -46 -19t-19 -46t19 -46t47 -19q27 0 45.5 19t18.5 46t-19 46t-46 19zM362 786q39 0 66.5 -28t27.5 -67q0 -40 -27.5 -67.5t-66.5 -27.5q-40 0 -68 27.5t-28 67.5t28 67.5t68 27.5z" />
    <glyph glyph-name="ae" unicode="&#xe6;" horiz-adv-x="873" 
d="M743 51v-44q-57 -19 -127 -19q-168 0 -205 145h-2q-66 -145 -211 -145q-70 0 -112 37t-42 100q0 101 92.5 143.5t274.5 42.5q12 48 12 78q0 105 -122 105q-65 0 -137 -22l-2 45q71 23 143 23q142 0 165 -111h2q33 51 85 81t114 30q86 0 130 -46.5t44 -128.5
q0 -40 -14 -102h-374q-6 -36 -6 -59q0 -76 43 -123.5t130 -47.5q58 0 119 18zM402 268h-24q-280 0 -280 -140q0 -43 29 -69t78 -26q149 0 188 193zM666 494q-77 0 -128 -53t-73 -131h323q6 29 6 51q0 133 -128 133z" />
    <glyph glyph-name="ccedilla" unicode="&#xe7;" horiz-adv-x="438" 
d="M454 525l-15 -46q-37 15 -87 15q-104 0 -169 -86.5t-65 -200.5q0 -77 38.5 -125.5t117.5 -48.5q52 0 98 15v-44q-53 -16 -103 -16q-20 0 -33 2l-22 -54q10 2 27 2q31 0 50.5 -16.5t19.5 -46.5q0 -87 -121 -87q-25 0 -50 5l5 32q23 -4 46 -4q78 0 78 52q0 35 -54 35
q-22 0 -45 -4l34 92q-71 17 -106.5 72.5t-35.5 133.5q0 137 81 237.5t211 100.5q60 0 100 -15z" />
    <glyph glyph-name="egrave" unicode="&#xe8;" horiz-adv-x="541" 
d="M497 251h-374q-3 -18 -3 -47q0 -76 43 -123.5t130 -47.5q62 0 118 18v-44q-57 -19 -126 -19q-109 0 -165 58.5t-56 153.5q0 136 76.5 238t198.5 102q86 0 130 -47t44 -129q0 -40 -16 -113zM454 298q8 38 8 63q0 62 -31.5 97.5t-96.5 35.5q-78 0 -131 -56.5t-73 -139.5
h324zM357 604l-98 164h60l78 -164h-40z" />
    <glyph glyph-name="eacute" unicode="&#xe9;" horiz-adv-x="541" 
d="M497 251h-374q-3 -18 -3 -47q0 -76 43 -123.5t130 -47.5q62 0 118 18v-44q-57 -19 -126 -19q-109 0 -165 58.5t-56 153.5q0 136 76.5 238t198.5 102q86 0 130 -47t44 -129q0 -40 -16 -113zM454 298q8 38 8 63q0 62 -31.5 97.5t-96.5 35.5q-78 0 -131 -56.5t-73 -139.5
h324zM513 768l-151 -164h-44l132 164h63z" />
    <glyph glyph-name="ecircumflex" unicode="&#xea;" horiz-adv-x="541" 
d="M497 251h-374q-3 -18 -3 -47q0 -76 43 -123.5t130 -47.5q62 0 118 18v-44q-57 -19 -126 -19q-109 0 -165 58.5t-56 153.5q0 136 76.5 238t198.5 102q86 0 130 -47t44 -129q0 -40 -16 -113zM454 298q8 38 8 63q0 62 -31.5 97.5t-96.5 35.5q-78 0 -131 -56.5t-73 -139.5
h324zM514 604h-45l-75 129l-128 -129h-51l154 164h57z" />
    <glyph glyph-name="edieresis" unicode="&#xeb;" horiz-adv-x="541" 
d="M497 251h-374q-3 -18 -3 -47q0 -76 43 -123.5t130 -47.5q62 0 118 18v-44q-57 -19 -126 -19q-109 0 -165 58.5t-56 153.5q0 136 76.5 238t198.5 102q86 0 130 -47t44 -129q0 -40 -16 -113zM454 298q8 38 8 63q0 62 -31.5 97.5t-96.5 35.5q-78 0 -131 -56.5t-73 -139.5
h324zM275 715h59l-16 -73h-59zM448 715h59l-16 -73h-59z" />
    <glyph glyph-name="igrave" unicode="&#xec;" horiz-adv-x="236" 
d="M156 528h56l-112 -528h-56zM186 604l-98 164h60l78 -164h-40z" />
    <glyph glyph-name="iacute" unicode="&#xed;" horiz-adv-x="236" 
d="M156 528h56l-112 -528h-56zM369 768l-151 -164h-44l132 164h63z" />
    <glyph glyph-name="icircumflex" unicode="&#xee;" horiz-adv-x="236" 
d="M156 528h56l-112 -528h-56zM348 604h-45l-75 129l-128 -129h-51l154 164h57z" />
    <glyph glyph-name="idieresis" unicode="&#xef;" horiz-adv-x="236" 
d="M156 528h56l-112 -528h-56zM108 715h59l-16 -73h-59zM281 715h59l-16 -73h-59z" />
    <glyph glyph-name="eth" unicode="&#xf0;" horiz-adv-x="572" 
d="M549 668l-93 -36q76 -88 76 -244q0 -66 -14.5 -132t-45 -128.5t-86.5 -101t-130 -38.5q-93 0 -143 55.5t-50 146.5q0 125 75.5 214.5t187.5 89.5q56 0 96 -25.5t55 -68.5h2q0 137 -75 212l-167 -63v41l132 51q-46 30 -110 45l22 43q90 -21 144 -67l124 48v-42zM257 34
q48 0 88.5 25t65.5 64.5t38.5 84t13.5 86.5q0 68 -35 111t-104 43q-91 0 -148 -78t-57 -176q0 -71 34.5 -115.5t103.5 -44.5z" />
    <glyph glyph-name="ntilde" unicode="&#xf1;" horiz-adv-x="574" 
d="M156 528h54l-22 -100h2q28 52 76.5 82t104.5 30q73 0 112 -39t39 -104q0 -28 -9 -75l-67 -322h-56l68 321q9 40 9 71q0 44 -26.5 73t-79.5 29q-71 0 -125.5 -53t-73.5 -145l-62 -296h-56zM403 702q35 -33 58 -33q45 0 57 68h42q-22 -110 -102 -110q-21 0 -36.5 8.5
t-38.5 27.5q-36 33 -57 33q-43 0 -57 -69h-42q22 110 102 110q36 0 74 -35z" />
    <glyph glyph-name="ograve" unicode="&#xf2;" horiz-adv-x="572" 
d="M529 338q0 -44 -9.5 -91t-31.5 -93.5t-52.5 -83t-77.5 -59.5t-103 -23q-95 0 -143.5 56.5t-48.5 149.5q0 144 76 245t195 101q95 0 145 -55t50 -147zM257 34q69 0 120.5 51t73.5 117.5t22 132.5q0 72 -35 115.5t-105 43.5q-67 0 -117 -44.5t-73.5 -110.5t-23.5 -142
q0 -72 34 -117.5t104 -45.5zM366 604l-98 164h60l78 -164h-40z" />
    <glyph glyph-name="oacute" unicode="&#xf3;" horiz-adv-x="572" 
d="M529 338q0 -44 -9.5 -91t-31.5 -93.5t-52.5 -83t-77.5 -59.5t-103 -23q-95 0 -143.5 56.5t-48.5 149.5q0 144 76 245t195 101q95 0 145 -55t50 -147zM257 34q69 0 120.5 51t73.5 117.5t22 132.5q0 72 -35 115.5t-105 43.5q-67 0 -117 -44.5t-73.5 -110.5t-23.5 -142
q0 -72 34 -117.5t104 -45.5zM519 768l-151 -164h-44l132 164h63z" />
    <glyph glyph-name="ocircumflex" unicode="&#xf4;" horiz-adv-x="572" 
d="M529 338q0 -44 -9.5 -91t-31.5 -93.5t-52.5 -83t-77.5 -59.5t-103 -23q-95 0 -143.5 56.5t-48.5 149.5q0 144 76 245t195 101q95 0 145 -55t50 -147zM257 34q69 0 120.5 51t73.5 117.5t22 132.5q0 72 -35 115.5t-105 43.5q-67 0 -117 -44.5t-73.5 -110.5t-23.5 -142
q0 -72 34 -117.5t104 -45.5zM517 604h-45l-75 129l-128 -129h-51l154 164h57z" />
    <glyph glyph-name="otilde" unicode="&#xf5;" horiz-adv-x="572" 
d="M529 338q0 -44 -9.5 -91t-31.5 -93.5t-52.5 -83t-77.5 -59.5t-103 -23q-95 0 -143.5 56.5t-48.5 149.5q0 144 76 245t195 101q95 0 145 -55t50 -147zM257 34q69 0 120.5 51t73.5 117.5t22 132.5q0 72 -35 115.5t-105 43.5q-67 0 -117 -44.5t-73.5 -110.5t-23.5 -142
q0 -72 34 -117.5t104 -45.5zM396 702q35 -33 58 -33q45 0 57 68h42q-22 -110 -102 -110q-21 0 -36.5 8.5t-38.5 27.5q-36 33 -57 33q-43 0 -57 -69h-42q22 110 102 110q36 0 74 -35z" />
    <glyph glyph-name="odieresis" unicode="&#xf6;" horiz-adv-x="572" 
d="M529 338q0 -44 -9.5 -91t-31.5 -93.5t-52.5 -83t-77.5 -59.5t-103 -23q-95 0 -143.5 56.5t-48.5 149.5q0 144 76 245t195 101q95 0 145 -55t50 -147zM257 34q69 0 120.5 51t73.5 117.5t22 132.5q0 72 -35 115.5t-105 43.5q-67 0 -117 -44.5t-73.5 -110.5t-23.5 -142
q0 -72 34 -117.5t104 -45.5zM276 715h59l-16 -73h-59zM449 715h59l-16 -73h-59z" />
    <glyph glyph-name="divide" unicode="&#xf7;" horiz-adv-x="535" 
d="M513 293h-446v44h446v-44zM325 171v-72h-66v72h66zM325 530v-73h-66v73h66z" />
    <glyph glyph-name="oslash" unicode="&#xf8;" horiz-adv-x="572" 
d="M579 515l-73 -70q23 -46 23 -107q0 -44 -9.5 -91t-31.5 -93.5t-52.5 -83t-77.5 -59.5t-103 -23q-105 0 -154 70l-74 -71l-22 23l79 76q-21 46 -21 108q0 144 76 245t195 101q104 0 155 -67l68 65zM257 34q69 0 120.5 51t73.5 117.5t22 132.5q0 39 -10 69l-322 -307
q36 -63 116 -63zM119 197q0 -37 9 -69l321 307q-36 59 -116 59q-67 0 -117 -44.5t-73.5 -110.5t-23.5 -142z" />
    <glyph glyph-name="ugrave" unicode="&#xf9;" horiz-adv-x="574" 
d="M435 0h-53l22 100h-2q-28 -52 -77 -82t-105 -30q-73 0 -111.5 38.5t-38.5 104.5q0 28 9 75l67 322h56l-68 -321q-9 -40 -9 -71q0 -45 25.5 -73.5t78.5 -28.5q72 0 127 53t74 145l62 296h55zM358 604l-98 164h60l78 -164h-40z" />
    <glyph glyph-name="uacute" unicode="&#xfa;" horiz-adv-x="574" 
d="M435 0h-53l22 100h-2q-28 -52 -77 -82t-105 -30q-73 0 -111.5 38.5t-38.5 104.5q0 28 9 75l67 322h56l-68 -321q-9 -40 -9 -71q0 -45 25.5 -73.5t78.5 -28.5q72 0 127 53t74 145l62 296h55zM524 768l-151 -164h-44l132 164h63z" />
    <glyph glyph-name="ucircumflex" unicode="&#xfb;" horiz-adv-x="574" 
d="M435 0h-53l22 100h-2q-28 -52 -77 -82t-105 -30q-73 0 -111.5 38.5t-38.5 104.5q0 28 9 75l67 322h56l-68 -321q-9 -40 -9 -71q0 -45 25.5 -73.5t78.5 -28.5q72 0 127 53t74 145l62 296h55zM511 604h-45l-75 129l-128 -129h-51l154 164h57z" />
    <glyph glyph-name="udieresis" unicode="&#xfc;" horiz-adv-x="574" 
d="M435 0h-53l22 100h-2q-28 -52 -77 -82t-105 -30q-73 0 -111.5 38.5t-38.5 104.5q0 28 9 75l67 322h56l-68 -321q-9 -40 -9 -71q0 -45 25.5 -73.5t78.5 -28.5q72 0 127 53t74 145l62 296h55zM273 715h59l-16 -73h-59zM446 715h59l-16 -73h-59z" />
    <glyph glyph-name="yacute" unicode="&#xfd;" horiz-adv-x="474" 
d="M141 528l41 -459h2l286 459h63l-467 -723h-61l130 199l-50 524h56zM478 768l-151 -164h-44l132 164h63z" />
    <glyph glyph-name="thorn" unicode="&#xfe;" horiz-adv-x="584" 
d="M120 101l-63 -296h-55l199 930h55l-66 -304h2q26 47 71 78t102 31q92 0 135.5 -61t43.5 -149q0 -142 -73.5 -242t-189.5 -100q-67 0 -106.5 32t-52.5 81h-2zM282 34q66 0 115 49t70 114t21 132q0 71 -33 118t-99 47q-94 0 -153 -93.5t-59 -210.5q0 -71 36 -113.5
t102 -42.5z" />
    <glyph glyph-name="ydieresis" unicode="&#xff;" horiz-adv-x="474" 
d="M141 528l41 -459h2l286 459h63l-467 -723h-61l130 199l-50 524h56zM225 715h59l-16 -73h-59zM398 715h59l-16 -73h-59z" />
    <glyph glyph-name="Amacron" unicode="&#x100;" horiz-adv-x="616" 
d="M159 227l-136 -227h-64l430 714h79l94 -714h-60l-29 227h-314zM421 670l-236 -393h283zM583 856l-9 -43h-247l10 43h246z" />
    <glyph glyph-name="amacron" unicode="&#x101;" horiz-adv-x="530" 
d="M414 321q10 43 10 68q0 105 -123 105q-64 0 -137 -22l-2 45q71 23 142 23q82 0 128.5 -37t46.5 -108q0 -28 -8 -65l-44 -204q-14 -66 -16 -126h-47q0 41 11 98h-2q-57 -110 -184 -110q-64 0 -104.5 37.5t-40.5 102.5q0 73 49 117t127 60t194 16zM405 278h-27
q-280 0 -280 -147q0 -45 28.5 -71.5t74.5 -26.5q154 0 197 211zM482 697l-9 -43h-247l9 43h247z" />
    <glyph glyph-name="Abreve" unicode="&#x102;" horiz-adv-x="616" 
d="M159 227l-136 -227h-64l430 714h79l94 -714h-60l-29 227h-314zM421 670l-236 -393h283zM453 813q95 0 111 88h42q-24 -128 -155 -128q-60 0 -90.5 27t-30.5 71q0 16 2 30h41q-2 -14 -2 -25q0 -63 82 -63z" />
    <glyph glyph-name="abreve" unicode="&#x103;" horiz-adv-x="530" 
d="M414 321q10 43 10 68q0 105 -123 105q-64 0 -137 -22l-2 45q71 23 142 23q82 0 128.5 -37t46.5 -108q0 -28 -8 -65l-44 -204q-14 -66 -16 -126h-47q0 41 11 98h-2q-57 -110 -184 -110q-64 0 -104.5 37.5t-40.5 102.5q0 73 49 117t127 60t194 16zM405 278h-27
q-280 0 -280 -147q0 -45 28.5 -71.5t74.5 -26.5q154 0 197 211zM351 653q95 0 111 88h42q-24 -128 -155 -128q-60 0 -90.5 27t-30.5 71q0 16 2 30h41q-2 -14 -2 -25q0 -63 82 -63z" />
    <glyph glyph-name="Aogonek" unicode="&#x104;" horiz-adv-x="616" 
d="M159 227l-136 -227h-64l430 714h79l94 -714h-23q-60 -54 -80 -81t-20 -52q0 -36 44 -36q31 0 58 11l-2 -34q-32 -13 -68 -13q-32 0 -53.5 15.5t-21.5 45.5q0 32 22.5 64t83.5 80l-29 227h-314zM421 670l-236 -393h283z" />
    <glyph glyph-name="aogonek" unicode="&#x105;" horiz-adv-x="530" 
d="M414 321q10 43 10 68q0 105 -123 105q-64 0 -137 -22l-2 45q71 23 142 23q82 0 128.5 -37t46.5 -108q0 -28 -8 -65l-44 -204q-14 -66 -16 -126h-10q-60 -54 -80 -81t-20 -52q0 -36 44 -36q31 0 58 11l-2 -34q-33 -13 -68 -13q-32 0 -53.5 15.5t-21.5 45.5q0 32 22.5 64
t83.5 80q0 41 11 98h-2q-57 -110 -184 -110q-64 0 -104.5 37.5t-40.5 102.5q0 73 49 117t127 60t194 16zM405 278h-27q-280 0 -280 -147q0 -45 28.5 -71.5t74.5 -26.5q154 0 197 211z" />
    <glyph glyph-name="Cacute" unicode="&#x106;" horiz-adv-x="568" 
d="M495 58v-49q-64 -21 -141 -21q-136 0 -204.5 79t-68.5 205q0 116 45.5 218t138.5 169t215 67q78 0 136 -23l-17 -47q-55 21 -123 21q-104 0 -183 -61t-116.5 -151t-37.5 -190q0 -106 55.5 -172t170.5 -66q65 0 130 21zM537 903h67l-136 -134h-45z" />
    <glyph glyph-name="cacute" unicode="&#x107;" horiz-adv-x="438" 
d="M454 525l-15 -46q-37 15 -87 15q-104 0 -169 -86.5t-65 -200.5q0 -77 38.5 -125.5t117.5 -48.5q52 0 98 15v-44q-53 -16 -103 -16q-102 0 -154.5 60t-52.5 154q0 137 81 237.5t211 100.5q60 0 100 -15zM507 768l-151 -164h-44l132 164h63z" />
    <glyph glyph-name="Ccircumflex" unicode="&#x108;" horiz-adv-x="568" 
d="M495 58v-49q-64 -21 -141 -21q-136 0 -204.5 79t-68.5 205q0 116 45.5 218t138.5 169t215 67q78 0 136 -23l-17 -47q-55 21 -123 21q-104 0 -183 -61t-116.5 -151t-37.5 -190q0 -106 55.5 -172t170.5 -66q65 0 130 21zM620 762h-44l-78 111l-125 -111h-52l152 146h57z
" />
    <glyph glyph-name="ccircumflex" unicode="&#x109;" horiz-adv-x="438" 
d="M454 525l-15 -46q-37 15 -87 15q-104 0 -169 -86.5t-65 -200.5q0 -77 38.5 -125.5t117.5 -48.5q52 0 98 15v-44q-53 -16 -103 -16q-102 0 -154.5 60t-52.5 154q0 137 81 237.5t211 100.5q60 0 100 -15zM496 604h-45l-75 129l-128 -129h-51l154 164h57z" />
    <glyph glyph-name="Cdotaccent" unicode="&#x10a;" horiz-adv-x="568" 
d="M495 58v-49q-64 -21 -141 -21q-136 0 -204.5 79t-68.5 205q0 116 45.5 218t138.5 169t215 67q78 0 136 -23l-17 -47q-55 21 -123 21q-104 0 -183 -61t-116.5 -151t-37.5 -190q0 -106 55.5 -172t170.5 -66q65 0 130 21zM467 874h66l-16 -75h-66z" />
    <glyph glyph-name="cdotaccent" unicode="&#x10b;" horiz-adv-x="438" 
d="M454 525l-15 -46q-37 15 -87 15q-104 0 -169 -86.5t-65 -200.5q0 -77 38.5 -125.5t117.5 -48.5q52 0 98 15v-44q-53 -16 -103 -16q-102 0 -154.5 60t-52.5 154q0 137 81 237.5t211 100.5q60 0 100 -15zM341 717h66l-16 -75h-66z" />
    <glyph glyph-name="Ccaron" unicode="&#x10c;" horiz-adv-x="568" 
d="M495 58v-49q-64 -21 -141 -21q-136 0 -204.5 79t-68.5 205q0 116 45.5 218t138.5 169t215 67q78 0 136 -23l-17 -47q-55 21 -123 21q-104 0 -183 -61t-116.5 -151t-37.5 -190q0 -106 55.5 -172t170.5 -66q65 0 130 21zM356 907h45l78 -111l125 111h51l-152 -146h-57z" />
    <glyph glyph-name="ccaron" unicode="&#x10d;" horiz-adv-x="438" 
d="M454 525l-15 -46q-37 15 -87 15q-104 0 -169 -86.5t-65 -200.5q0 -77 38.5 -125.5t117.5 -48.5q52 0 98 15v-44q-53 -16 -103 -16q-102 0 -154.5 60t-52.5 154q0 137 81 237.5t211 100.5q60 0 100 -15zM234 766h45l76 -129l127 129h51l-154 -164h-57z" />
    <glyph glyph-name="Dcaron" unicode="&#x10e;" horiz-adv-x="682" 
d="M51 0l151 714h156q148 0 221.5 -73.5t73.5 -203.5q0 -194 -115.5 -315.5t-318.5 -121.5h-168zM248 665l-130 -616h101q178 0 277.5 106.5t99.5 275.5q0 110 -61.5 172t-193.5 62h-93zM286 907h45l78 -111l125 111h51l-152 -146h-57z" />
    <glyph glyph-name="dcaron" unicode="&#x10f;" horiz-adv-x="584" 
d="M486 426l66 309h55l-156 -735h-51l21 93h-2q-62 -105 -173 -105q-92 0 -137.5 60.5t-45.5 149.5q0 142 75 242t189 100q63 0 102.5 -32t54.5 -82h2zM326 494q-67 0 -116 -49t-70 -114t-21 -132q0 -70 33 -117.5t99 -47.5q94 0 153 93.5t59 210.5q0 70 -36 113t-101 43z
M757 768l-74 -164h-36l56 164h54z" />
    <glyph glyph-name="Dcroat" unicode="&#x110;" horiz-adv-x="682" 
d="M51 0l74 350h-74l8 37h74l69 327h156q148 0 221.5 -73.5t73.5 -203.5q0 -194 -115.5 -315.5t-318.5 -121.5h-168zM248 665l-59 -278h135l-8 -37h-135l-63 -301h101q178 0 277.5 106.5t99.5 275.5q0 110 -61.5 172t-193.5 62h-93z" />
    <glyph glyph-name="dcroat" unicode="&#x111;" horiz-adv-x="584" 
d="M625 612h-44l-130 -612h-51l21 93h-2q-62 -105 -173 -105q-92 0 -137.5 60.5t-45.5 149.5q0 142 75 242t189 100q63 0 102.5 -32t54.5 -82h2l40 186h-117l9 41h116l18 82h55l-18 -82h45zM326 494q-67 0 -116 -49t-70 -114t-21 -132q0 -70 33 -117.5t99 -47.5
q94 0 153 93.5t59 210.5q0 70 -36 113t-101 43z" />
    <glyph glyph-name="Emacron" unicode="&#x112;" horiz-adv-x="518" 
d="M51 0l151 714h343l-10 -49h-287l-58 -272h278l-10 -49h-278l-62 -295h314l-11 -49h-370zM528 856l-9 -43h-247l10 43h246z" />
    <glyph glyph-name="emacron" unicode="&#x113;" horiz-adv-x="541" 
d="M497 251h-374q-3 -18 -3 -47q0 -76 43 -123.5t130 -47.5q62 0 118 18v-44q-57 -19 -126 -19q-109 0 -165 58.5t-56 153.5q0 136 76.5 238t198.5 102q86 0 130 -47t44 -129q0 -40 -16 -113zM454 298q8 38 8 63q0 62 -31.5 97.5t-96.5 35.5q-78 0 -131 -56.5t-73 -139.5
h324zM510 697l-9 -43h-247l9 43h247z" />
    <glyph glyph-name="Ebreve" unicode="&#x114;" horiz-adv-x="518" 
d="M51 0l151 714h343l-10 -49h-287l-58 -272h278l-10 -49h-278l-62 -295h314l-11 -49h-370zM396 813q95 0 111 88h42q-24 -128 -155 -128q-60 0 -90.5 27t-30.5 71q0 16 2 30h41q-2 -14 -2 -25q0 -63 82 -63z" />
    <glyph glyph-name="ebreve" unicode="&#x115;" horiz-adv-x="541" 
d="M497 251h-374q-3 -18 -3 -47q0 -76 43 -123.5t130 -47.5q62 0 118 18v-44q-57 -19 -126 -19q-109 0 -165 58.5t-56 153.5q0 136 76.5 238t198.5 102q86 0 130 -47t44 -129q0 -40 -16 -113zM454 298q8 38 8 63q0 62 -31.5 97.5t-96.5 35.5q-78 0 -131 -56.5t-73 -139.5
h324zM376 653q95 0 111 88h42q-24 -128 -155 -128q-60 0 -90.5 27t-30.5 71q0 16 2 30h41q-2 -14 -2 -25q0 -63 82 -63z" />
    <glyph glyph-name="Edotaccent" unicode="&#x116;" horiz-adv-x="518" 
d="M51 0l151 714h343l-10 -49h-287l-58 -272h278l-10 -49h-278l-62 -295h314l-11 -49h-370zM375 874h66l-16 -75h-66z" />
    <glyph glyph-name="edotaccent" unicode="&#x117;" horiz-adv-x="541" 
d="M497 251h-374q-3 -18 -3 -47q0 -76 43 -123.5t130 -47.5q62 0 118 18v-44q-57 -19 -126 -19q-109 0 -165 58.5t-56 153.5q0 136 76.5 238t198.5 102q86 0 130 -47t44 -129q0 -40 -16 -113zM454 298q8 38 8 63q0 62 -31.5 97.5t-96.5 35.5q-78 0 -131 -56.5t-73 -139.5
h324zM356 717h66l-16 -75h-66z" />
    <glyph glyph-name="Eogonek" unicode="&#x118;" horiz-adv-x="518" 
d="M51 0l151 714h343l-10 -49h-287l-58 -272h278l-10 -49h-278l-62 -295h314l-11 -49h-32q-60 -54 -80 -81t-20 -52q0 -36 44 -36q31 0 58 11l-2 -34q-32 -13 -68 -13q-32 0 -53.5 15.5t-21.5 45.5q0 32 22.5 64.5t82.5 79.5h-300z" />
    <glyph glyph-name="eogonek" unicode="&#x119;" horiz-adv-x="541" 
d="M497 251h-374q-3 -18 -3 -47q0 -76 43 -123.5t130 -47.5q62 0 118 18v-44q-11 -4 -25 -7q-60 -55 -80 -82t-20 -51q0 -36 44 -36q31 0 58 11l-2 -34q-33 -13 -68 -13q-32 0 -53.5 15.5t-21.5 45.5q0 31 20 61t74 74q-25 -3 -52 -3q-109 0 -165 58.5t-56 153.5
q0 136 76.5 238t198.5 102q86 0 130 -47t44 -129q0 -40 -16 -113zM454 298q8 38 8 63q0 62 -31.5 97.5t-96.5 35.5q-78 0 -131 -56.5t-73 -139.5h324z" />
    <glyph glyph-name="Ecaron" unicode="&#x11a;" horiz-adv-x="518" 
d="M51 0l151 714h343l-10 -49h-287l-58 -272h278l-10 -49h-278l-62 -295h314l-11 -49h-370zM265 907h45l78 -111l125 111h51l-152 -146h-57z" />
    <glyph glyph-name="ecaron" unicode="&#x11b;" horiz-adv-x="541" 
d="M497 251h-374q-3 -18 -3 -47q0 -76 43 -123.5t130 -47.5q62 0 118 18v-44q-57 -19 -126 -19q-109 0 -165 58.5t-56 153.5q0 136 76.5 238t198.5 102q86 0 130 -47t44 -129q0 -40 -16 -113zM454 298q8 38 8 63q0 62 -31.5 97.5t-96.5 35.5q-78 0 -131 -56.5t-73 -139.5
h324zM248 766h45l76 -129l127 129h51l-154 -164h-57z" />
    <glyph glyph-name="Gcircumflex" unicode="&#x11c;" horiz-adv-x="692" 
d="M658 695l-20 -50q-66 32 -153 32q-107 0 -187 -55t-119.5 -142.5t-39.5 -192.5q0 -108 63.5 -179t181.5 -71q79 0 138 25l56 263h-165l10 49h222l-74 -347q-85 -39 -189 -39q-148 0 -224 84t-76 213q0 119 46.5 218t140.5 161t219 62q99 0 170 -31zM644 762h-44l-78 111
l-125 -111h-52l152 146h57z" />
    <glyph glyph-name="gcircumflex" unicode="&#x11d;" horiz-adv-x="584" 
d="M562 528l-109 -513q-23 -110 -84.5 -160t-168.5 -50q-83 0 -151 27l14 45q66 -26 139 -26q88 0 133.5 40t65.5 128l20 87h-2q-27 -43 -72 -71t-103 -28q-91 0 -136 60t-45 149q0 135 75 229.5t189 94.5q63 0 102 -32t54 -82h2l22 102h55zM326 494q-66 0 -115 -45
t-70.5 -106.5t-21.5 -126.5q0 -70 32 -116.5t98 -46.5q96 0 154 85t58 200q0 72 -35 114t-100 42zM514 604h-45l-75 129l-128 -129h-51l154 164h57z" />
    <glyph glyph-name="Gbreve" unicode="&#x11e;" horiz-adv-x="692" 
d="M658 695l-20 -50q-66 32 -153 32q-107 0 -187 -55t-119.5 -142.5t-39.5 -192.5q0 -108 63.5 -179t181.5 -71q79 0 138 25l56 263h-165l10 49h222l-74 -347q-85 -39 -189 -39q-148 0 -224 84t-76 213q0 119 46.5 218t140.5 161t219 62q99 0 170 -31zM511 813q95 0 111 88
h42q-24 -128 -155 -128q-60 0 -90.5 27t-30.5 71q0 16 2 30h41q-2 -14 -2 -25q0 -63 82 -63z" />
    <glyph glyph-name="gbreve" unicode="&#x11f;" horiz-adv-x="584" 
d="M562 528l-109 -513q-23 -110 -84.5 -160t-168.5 -50q-83 0 -151 27l14 45q66 -26 139 -26q88 0 133.5 40t65.5 128l20 87h-2q-27 -43 -72 -71t-103 -28q-91 0 -136 60t-45 149q0 135 75 229.5t189 94.5q63 0 102 -32t54 -82h2l22 102h55zM326 494q-66 0 -115 -45
t-70.5 -106.5t-21.5 -126.5q0 -70 32 -116.5t98 -46.5q96 0 154 85t58 200q0 72 -35 114t-100 42zM365 653q95 0 111 88h42q-24 -128 -155 -128q-60 0 -90.5 27t-30.5 71q0 16 2 30h41q-2 -14 -2 -25q0 -63 82 -63z" />
    <glyph glyph-name="Gdotaccent" unicode="&#x120;" horiz-adv-x="692" 
d="M658 695l-20 -50q-66 32 -153 32q-107 0 -187 -55t-119.5 -142.5t-39.5 -192.5q0 -108 63.5 -179t181.5 -71q79 0 138 25l56 263h-165l10 49h222l-74 -347q-85 -39 -189 -39q-148 0 -224 84t-76 213q0 119 46.5 218t140.5 161t219 62q99 0 170 -31zM487 874h66l-16 -75
h-66z" />
    <glyph glyph-name="gdotaccent" unicode="&#x121;" horiz-adv-x="584" 
d="M562 528l-109 -513q-23 -110 -84.5 -160t-168.5 -50q-83 0 -151 27l14 45q66 -26 139 -26q88 0 133.5 40t65.5 128l20 87h-2q-27 -43 -72 -71t-103 -28q-91 0 -136 60t-45 149q0 135 75 229.5t189 94.5q63 0 102 -32t54 -82h2l22 102h55zM326 494q-66 0 -115 -45
t-70.5 -106.5t-21.5 -126.5q0 -70 32 -116.5t98 -46.5q96 0 154 85t58 200q0 72 -35 114t-100 42zM347 717h66l-16 -75h-66z" />
    <glyph glyph-name="Gcommaaccent" unicode="&#x122;" horiz-adv-x="692" 
d="M658 695l-20 -50q-66 32 -153 32q-107 0 -187 -55t-119.5 -142.5t-39.5 -192.5q0 -108 63.5 -179t181.5 -71q79 0 138 25l56 263h-165l10 49h222l-74 -347q-85 -39 -189 -39q-148 0 -224 84t-76 213q0 119 46.5 218t140.5 161t219 62q99 0 170 -31zM366 -58l-106 -156
h-41l84 156h63z" />
    <glyph glyph-name="gcommaaccent" unicode="&#x123;" horiz-adv-x="584" 
d="M562 528l-109 -513q-23 -110 -84.5 -160t-168.5 -50q-83 0 -151 27l14 45q66 -26 139 -26q88 0 133.5 40t65.5 128l20 87h-2q-27 -43 -72 -71t-103 -28q-91 0 -136 60t-45 149q0 135 75 229.5t189 94.5q63 0 102 -32t54 -82h2l22 102h55zM326 494q-66 0 -115 -45
t-70.5 -106.5t-21.5 -126.5q0 -70 32 -116.5t98 -46.5q96 0 154 85t58 200q0 72 -35 114t-100 42zM315 604l110 164h39l-88 -164h-61z" />
    <glyph glyph-name="Hcircumflex" unicode="&#x124;" horiz-adv-x="668" 
d="M51 0l151 714h56l-68 -321h364l68 321h56l-151 -714h-56l73 344h-364l-73 -344h-56zM599 762h-44l-78 111l-125 -111h-52l152 146h57z" />
    <glyph glyph-name="hcircumflex" unicode="&#x125;" horiz-adv-x="574" 
d="M200 735h56l-66 -306h2q28 53 75.5 82t102.5 29q74 0 113 -39t39 -104q0 -32 -8 -72l-68 -325h-56l68 321q9 40 9 70q0 45 -27 74t-82 29q-69 0 -122.5 -51.5t-73.5 -146.5l-62 -296h-56zM546 784h-44l-78 111l-125 -111h-52l152 146h57z" />
    <glyph glyph-name="Hbar" unicode="&#x126;" horiz-adv-x="668" 
d="M51 0l119 564h-79l10 41h78l23 109h56l-23 -109h364l23 109h56l-23 -109h80l-9 -41h-80l-119 -564h-56l73 344h-364l-73 -344h-56zM190 393h364l36 171h-364z" />
    <glyph glyph-name="hbar" unicode="&#x127;" horiz-adv-x="574" 
d="M335 612h-106l-39 -183h2q28 53 75.5 82t102.5 29q74 0 113 -39t39 -104q0 -32 -8 -72l-68 -325h-56l68 321q9 40 9 70q0 45 -27 74t-82 29q-69 0 -122.5 -51.5t-73.5 -146.5l-62 -296h-56l130 612h-55l9 41h55l17 82h56l-18 -82h106z" />
    <glyph glyph-name="Itilde" unicode="&#x128;" horiz-adv-x="248" 
d="M51 0l151 714h56l-151 -714h-56zM266 854q35 -33 58 -33q20 0 35.5 18t21.5 51h42q-10 -50 -36 -80t-65 -30q-33 0 -75 37q-37 32 -59 32q-43 0 -56 -69h-42q22 110 99 110q36 0 77 -36z" />
    <glyph glyph-name="itilde" unicode="&#x129;" horiz-adv-x="236" 
d="M156 528h56l-112 -528h-56zM226 702q34 -33 58 -33q45 0 57 68h42q-22 -110 -102 -110q-21 0 -36.5 8.5t-38.5 27.5q-36 33 -57 33q-43 0 -57 -69h-42q22 110 102 110q36 0 74 -35z" />
    <glyph glyph-name="Imacron" unicode="&#x12a;" horiz-adv-x="248" 
d="M51 0l151 714h56l-151 -714h-56zM383 856l-9 -43h-247l10 43h246z" />
    <glyph glyph-name="imacron" unicode="&#x12b;" horiz-adv-x="236" 
d="M156 528h56l-112 -528h-56zM344 697l-9 -43h-247l9 43h247z" />
    <glyph glyph-name="Ibreve" unicode="&#x12c;" horiz-adv-x="248" 
d="M51 0l151 714h56l-151 -714h-56zM251 813q95 0 111 88h42q-24 -128 -155 -128q-60 0 -90.5 27t-30.5 71q0 16 2 30h41q-2 -14 -2 -25q0 -63 82 -63z" />
    <glyph glyph-name="ibreve" unicode="&#x12d;" horiz-adv-x="236" 
d="M156 528h56l-112 -528h-56zM212 653q95 0 111 88h42q-24 -128 -155 -128q-60 0 -90.5 27t-30.5 71q0 16 2 30h41q-2 -14 -2 -25q0 -63 82 -63z" />
    <glyph glyph-name="Iogonek" unicode="&#x12e;" horiz-adv-x="248" 
d="M107 0h-19q-60 -54 -80 -81t-20 -52q0 -36 44 -36q31 0 58 11l-2 -34q-33 -13 -68 -13q-32 0 -53.5 15.5t-21.5 45.5q0 32 22.5 64t83.5 80l151 714h56z" />
    <glyph glyph-name="iogonek" unicode="&#x12f;" horiz-adv-x="236" 
d="M156 528h56l-112 -528h-12q-60 -53 -80.5 -80.5t-20.5 -52.5q0 -36 44 -36q32 0 59 11l-2 -34q-34 -13 -69 -13q-32 0 -53 15t-21 46q0 33 22 64.5t84 79.5h-7zM193 727h63l-15 -69h-63z" />
    <glyph glyph-name="Idotaccent" unicode="&#x130;" horiz-adv-x="248" 
d="M51 0l151 714h56l-151 -714h-56zM230 874h66l-16 -75h-66z" />
    <glyph glyph-name="dotlessi" unicode="&#x131;" horiz-adv-x="236" 
d="M156 528h56l-112 -528h-56z" />
    <glyph glyph-name="Jcircumflex" unicode="&#x134;" horiz-adv-x="309" 
d="M326 714l-122 -576q-15 -73 -52.5 -111.5t-116.5 -38.5q-38 0 -67 6l8 50q27 -7 59 -7q49 0 76 25t38 79l121 573h56zM454 762h-44l-78 111l-125 -111h-52l152 146h57z" />
    <glyph glyph-name="jcircumflex" unicode="&#x135;" horiz-adv-x="236" 
d="M215 528l-121 -571q-16 -77 -51.5 -114.5t-109.5 -37.5q-25 0 -48 4l8 45q24 -3 40 -3q49 0 71 28t35 86l120 563h56zM351 604h-45l-75 129l-128 -129h-51l154 164h57z" />
    <glyph glyph-name="Kcommaaccent" unicode="&#x136;" horiz-adv-x="554" 
d="M552 714h78l-386 -346l266 -368h-69l-256 359h-2l-76 -359h-56l151 714h56l-71 -334h2zM278 -58l-106 -156h-41l84 156h63z" />
    <glyph glyph-name="kcommaaccent" unicode="&#x137;" horiz-adv-x="456" 
d="M429 528h74l-285 -242l205 -286h-66l-196 280h-2l-59 -280h-56l156 735h56l-93 -436h2zM246 -58l-106 -156h-41l84 156h63z" />
    <glyph glyph-name="kgreenlandic" unicode="&#x138;" horiz-adv-x="456" 
d="M429 528h74l-285 -242l205 -286h-66l-196 280h-2l-59 -280h-56l112 528h56l-49 -229h2z" />
    <glyph glyph-name="Lacute" unicode="&#x139;" horiz-adv-x="450" 
d="M51 0l151 714h56l-140 -665h293l-11 -49h-349zM335 903h67l-136 -134h-45z" />
    <glyph glyph-name="lacute" unicode="&#x13a;" horiz-adv-x="237" 
d="M200 735h56l-156 -735h-56zM331 925h67l-136 -134h-45z" />
    <glyph glyph-name="Lcommaaccent" unicode="&#x13b;" horiz-adv-x="450" 
d="M51 0l151 714h56l-140 -665h293l-11 -49h-349zM239 -58l-106 -156h-41l84 156h63z" />
    <glyph glyph-name="lcommaaccent" unicode="&#x13c;" horiz-adv-x="237" 
d="M200 735h56l-156 -735h-56zM93 -58l-106 -156h-41l84 156h63z" />
    <glyph glyph-name="Lcaron" unicode="&#x13d;" horiz-adv-x="450" 
d="M51 0l151 714h56l-140 -665h293l-11 -49h-349zM429 768l-74 -164h-36l56 164h54z" />
    <glyph glyph-name="lcaron" unicode="&#x13e;" horiz-adv-x="237" 
d="M200 735h56l-156 -735h-56zM402 768l-74 -164h-36l56 164h54z" />
    <glyph glyph-name="Ldot" unicode="&#x13f;" horiz-adv-x="459" 
d="M51 0l151 714h56l-140 -665h293l-11 -49h-349zM363 416h66l-16 -75h-66z" />
    <glyph glyph-name="ldot" unicode="&#x140;" horiz-adv-x="342" 
d="M200 735h56l-156 -735h-56zM298 416h66l-16 -75h-66z" />
    <glyph glyph-name="Lslash" unicode="&#x141;" horiz-adv-x="450" 
d="M51 0l71 335l-81 -46l10 44l80 46l71 335h56l-64 -303l121 70l-9 -45l-121 -70l-67 -317h293l-11 -49h-349z" />
    <glyph glyph-name="lslash" unicode="&#x142;" horiz-adv-x="237" 
d="M200 735h56l-59 -279l82 52l-10 -45l-82 -52l-87 -411h-56l79 372l-80 -51l10 45l80 51z" />
    <glyph glyph-name="Nacute" unicode="&#x143;" horiz-adv-x="683" 
d="M287 714l210 -654h2l139 654h55l-151 -714h-83l-212 656h-2l-139 -656h-55l151 714h85zM535 903h67l-136 -134h-45z" />
    <glyph glyph-name="nacute" unicode="&#x144;" horiz-adv-x="574" 
d="M156 528h54l-22 -100h2q28 52 76.5 82t104.5 30q73 0 112 -39t39 -104q0 -28 -9 -75l-67 -322h-56l68 321q9 40 9 71q0 44 -26.5 73t-79.5 29q-71 0 -125.5 -53t-73.5 -145l-62 -296h-56zM531 768l-151 -164h-44l132 164h63z" />
    <glyph glyph-name="Ncommaaccent" unicode="&#x145;" horiz-adv-x="683" 
d="M287 714l210 -654h2l139 654h55l-151 -714h-83l-212 656h-2l-139 -656h-55l151 714h85zM326 -58l-106 -156h-41l84 156h63z" />
    <glyph glyph-name="ncommaaccent" unicode="&#x146;" horiz-adv-x="574" 
d="M156 528h54l-22 -100h2q28 52 76.5 82t104.5 30q73 0 112 -39t39 -104q0 -28 -9 -75l-67 -322h-56l68 321q9 40 9 71q0 44 -26.5 73t-79.5 29q-71 0 -125.5 -53t-73.5 -145l-62 -296h-56zM279 -58l-106 -156h-41l84 156h63z" />
    <glyph glyph-name="Ncaron" unicode="&#x147;" horiz-adv-x="683" 
d="M287 714l210 -654h2l139 654h55l-151 -714h-83l-212 656h-2l-139 -656h-55l151 714h85zM347 907h45l78 -111l125 111h51l-152 -146h-57z" />
    <glyph glyph-name="ncaron" unicode="&#x148;" horiz-adv-x="574" 
d="M156 528h54l-22 -100h2q28 52 76.5 82t104.5 30q73 0 112 -39t39 -104q0 -28 -9 -75l-67 -322h-56l68 321q9 40 9 71q0 44 -26.5 73t-79.5 29q-71 0 -125.5 -53t-73.5 -145l-62 -296h-56zM268 766h45l76 -129l127 129h51l-154 -164h-57z" />
    <glyph glyph-name="Eng" unicode="&#x14a;" horiz-adv-x="683" 
d="M287 714l210 -654h2l139 654h55l-160 -757q-16 -77 -51.5 -114.5t-109.5 -37.5q-25 0 -48 4l8 45q20 -3 40 -3q49 0 70.5 27.5t35.5 86.5l8 35h-27l-212 656h-2l-139 -656h-55l151 714h85z" />
    <glyph glyph-name="eng" unicode="&#x14b;" horiz-adv-x="574" 
d="M382 -35l76 356q9 40 9 71q0 44 -26.5 73t-79.5 29q-71 0 -125.5 -53t-73.5 -145l-62 -296h-56l112 528h54l-22 -100h2q28 52 76.5 82t104.5 30q73 0 112 -39t39 -104q0 -28 -9 -75l-77 -365q-16 -78 -51 -115t-109 -37q-25 0 -48 4l8 45q19 -3 40 -3q49 0 71 28t35 86z
" />
    <glyph glyph-name="Omacron" unicode="&#x14c;" horiz-adv-x="726" 
d="M700 463q0 -65 -13.5 -130.5t-43.5 -128t-72.5 -110.5t-104.5 -77t-136 -29q-121 0 -185 72t-64 193q0 90 25.5 174.5t71.5 151.5t117.5 107t157.5 40q122 0 184.5 -71.5t62.5 -191.5zM334 37q75 0 135.5 38.5t97.5 100.5t56.5 134t19.5 144q0 100 -49 161.5t-146 61.5
q-91 0 -163 -60t-109.5 -154.5t-37.5 -202.5q0 -100 49.5 -161.5t146.5 -61.5zM620 856l-9 -43h-247l10 43h246z" />
    <glyph glyph-name="omacron" unicode="&#x14d;" horiz-adv-x="572" 
d="M529 338q0 -44 -9.5 -91t-31.5 -93.5t-52.5 -83t-77.5 -59.5t-103 -23q-95 0 -143.5 56.5t-48.5 149.5q0 144 76 245t195 101q95 0 145 -55t50 -147zM257 34q69 0 120.5 51t73.5 117.5t22 132.5q0 72 -35 115.5t-105 43.5q-67 0 -117 -44.5t-73.5 -110.5t-23.5 -142
q0 -72 34 -117.5t104 -45.5zM511 697l-9 -43h-247l9 43h247z" />
    <glyph glyph-name="Obreve" unicode="&#x14e;" horiz-adv-x="726" 
d="M700 463q0 -65 -13.5 -130.5t-43.5 -128t-72.5 -110.5t-104.5 -77t-136 -29q-121 0 -185 72t-64 193q0 90 25.5 174.5t71.5 151.5t117.5 107t157.5 40q122 0 184.5 -71.5t62.5 -191.5zM334 37q75 0 135.5 38.5t97.5 100.5t56.5 134t19.5 144q0 100 -49 161.5t-146 61.5
q-91 0 -163 -60t-109.5 -154.5t-37.5 -202.5q0 -100 49.5 -161.5t146.5 -61.5zM489 813q95 0 111 88h42q-24 -128 -155 -128q-60 0 -90.5 27t-30.5 71q0 16 2 30h41q-2 -14 -2 -25q0 -63 82 -63z" />
    <glyph glyph-name="obreve" unicode="&#x14f;" horiz-adv-x="572" 
d="M529 338q0 -44 -9.5 -91t-31.5 -93.5t-52.5 -83t-77.5 -59.5t-103 -23q-95 0 -143.5 56.5t-48.5 149.5q0 144 76 245t195 101q95 0 145 -55t50 -147zM257 34q69 0 120.5 51t73.5 117.5t22 132.5q0 72 -35 115.5t-105 43.5q-67 0 -117 -44.5t-73.5 -110.5t-23.5 -142
q0 -72 34 -117.5t104 -45.5zM379 653q95 0 111 88h42q-24 -128 -155 -128q-60 0 -90.5 27t-30.5 71q0 16 2 30h41q-2 -14 -2 -25q0 -63 82 -63z" />
    <glyph glyph-name="Ohungarumlaut" unicode="&#x150;" horiz-adv-x="726" 
d="M700 463q0 -65 -13.5 -130.5t-43.5 -128t-72.5 -110.5t-104.5 -77t-136 -29q-121 0 -185 72t-64 193q0 90 25.5 174.5t71.5 151.5t117.5 107t157.5 40q122 0 184.5 -71.5t62.5 -191.5zM334 37q75 0 135.5 38.5t97.5 100.5t56.5 134t19.5 144q0 100 -49 161.5t-146 61.5
q-91 0 -163 -60t-109.5 -154.5t-37.5 -202.5q0 -100 49.5 -161.5t146.5 -61.5zM547 905l-118 -137h-41l98 137h61zM674 905l-127 -137h-43l105 137h65z" />
    <glyph glyph-name="ohungarumlaut" unicode="&#x151;" horiz-adv-x="572" 
d="M529 338q0 -44 -9.5 -91t-31.5 -93.5t-52.5 -83t-77.5 -59.5t-103 -23q-95 0 -143.5 56.5t-48.5 149.5q0 144 76 245t195 101q95 0 145 -55t50 -147zM257 34q69 0 120.5 51t73.5 117.5t22 132.5q0 72 -35 115.5t-105 43.5q-67 0 -117 -44.5t-73.5 -110.5t-23.5 -142
q0 -72 34 -117.5t104 -45.5zM452 768l-133 -164h-40l113 164h60zM579 768l-143 -164h-40l119 164h64z" />
    <glyph glyph-name="OE" unicode="&#x152;" horiz-adv-x="922" 
d="M825 0h-452q-144 0 -218 72.5t-74 194.5q0 86 26.5 165.5t77 142.5t131.5 101t181 38h452l-10 -49h-287l-58 -272h278l-10 -49h-278l-62 -295h314zM139 270q0 -105 61 -163t179 -58h86l130 616h-101q-166 0 -260.5 -113t-94.5 -282z" />
    <glyph glyph-name="oe" unicode="&#x153;" horiz-adv-x="935" 
d="M805 51v-44q-57 -19 -126 -19q-85 0 -137.5 39.5t-68.5 107.5l-2 -2q-72 -145 -216 -145q-95 0 -143.5 56.5t-48.5 149.5q0 144 76 245t195 101q74 0 121 -38t58 -103q0 -1 0.5 -1t0.5 -1q34 66 91 104.5t128 38.5q86 0 130 -46.5t44 -128.5q0 -41 -16 -114h-374
q-3 -18 -3 -47q0 -76 43 -123.5t130 -47.5q61 0 118 18zM257 34q71 0 122 51t72.5 117t21.5 133q0 72 -35 115.5t-105 43.5q-67 0 -117 -44.5t-73.5 -110.5t-23.5 -142q0 -72 34 -117.5t104 -45.5zM728 494q-78 0 -131 -56.5t-73 -139.5h324q8 38 8 63q0 133 -128 133z" />
    <glyph glyph-name="Racute" unicode="&#x154;" horiz-adv-x="613" 
d="M51 0l151 714h206q89 0 143 -40.5t54 -120.5q0 -85 -45.5 -133t-122.5 -63l-1 -2q29 -8 45 -31t23 -70q41 -245 43 -254h-59q-4 22 -18 113t-21 132q-10 54 -35 72.5t-84 18.5h-151l-72 -336h-56zM248 665l-59 -280h152q206 0 206 164q0 116 -152 116h-147zM472 903h67
l-136 -134h-45z" />
    <glyph glyph-name="racute" unicode="&#x155;" horiz-adv-x="339" 
d="M393 537l-11 -46q-15 3 -37 3q-66 0 -114.5 -52t-67.5 -142l-63 -300h-56l112 528h54l-21 -95h2q24 49 66 78t98 29q23 0 38 -3zM432 768l-151 -164h-44l132 164h63z" />
    <glyph glyph-name="Rcommaaccent" unicode="&#x156;" horiz-adv-x="613" 
d="M51 0l151 714h206q89 0 143 -40.5t54 -120.5q0 -85 -45.5 -133t-122.5 -63l-1 -2q29 -8 45 -31t23 -70q41 -245 43 -254h-59q-4 22 -18 113t-21 132q-10 54 -35 72.5t-84 18.5h-151l-72 -336h-56zM248 665l-59 -280h152q206 0 206 164q0 116 -152 116h-147zM315 -58
l-106 -156h-41l84 156h63z" />
    <glyph glyph-name="rcommaaccent" unicode="&#x157;" horiz-adv-x="339" 
d="M393 537l-11 -46q-15 3 -37 3q-66 0 -114.5 -52t-67.5 -142l-63 -300h-56l112 528h54l-21 -95h2q24 49 66 78t98 29q23 0 38 -3zM94 -58l-106 -156h-41l84 156h63z" />
    <glyph glyph-name="Rcaron" unicode="&#x158;" horiz-adv-x="613" 
d="M51 0l151 714h206q89 0 143 -40.5t54 -120.5q0 -85 -45.5 -133t-122.5 -63l-1 -2q29 -8 45 -31t23 -70q41 -245 43 -254h-59q-4 22 -18 113t-21 132q-10 54 -35 72.5t-84 18.5h-151l-72 -336h-56zM248 665l-59 -280h152q206 0 206 164q0 116 -152 116h-147zM289 907h45
l78 -111l125 111h51l-152 -146h-57z" />
    <glyph glyph-name="rcaron" unicode="&#x159;" horiz-adv-x="339" 
d="M393 537l-11 -46q-15 3 -37 3q-66 0 -114.5 -52t-67.5 -142l-63 -300h-56l112 528h54l-21 -95h2q24 49 66 78t98 29q23 0 38 -3zM157 766h45l76 -129l127 129h51l-154 -164h-57z" />
    <glyph glyph-name="Sacute" unicode="&#x15a;" horiz-adv-x="518" 
d="M522 697l-15 -49q-64 29 -141 29q-70 0 -120.5 -32.5t-50.5 -101.5q0 -46 24.5 -76.5t89.5 -77.5q76 -55 109.5 -99.5t33.5 -108.5q0 -97 -67 -145t-170 -48q-109 0 -192 44l17 49q85 -44 176 -44q80 0 129.5 34.5t49.5 103.5q0 50 -30 88.5t-97 84.5q-68 47 -99 88.5
t-31 102.5q0 64 35 108t84.5 61.5t109.5 17.5q85 0 155 -29zM455 903h67l-136 -134h-45z" />
    <glyph glyph-name="sacute" unicode="&#x15b;" horiz-adv-x="403" 
d="M395 515l-15 -45q-55 24 -113 24q-52 0 -89.5 -21.5t-37.5 -70.5q0 -33 20.5 -56.5t64.5 -53.5q56 -38 85.5 -75t29.5 -85q0 -74 -50.5 -109t-133.5 -35q-84 0 -158 36l17 45q72 -35 141 -35q60 0 95.5 23t35.5 70q0 37 -23.5 65t-72.5 61q-54 37 -79 68.5t-25 77.5
q0 71 53.5 106t126.5 35q69 0 128 -25zM439 768l-151 -164h-44l132 164h63z" />
    <glyph glyph-name="Scircumflex" unicode="&#x15c;" horiz-adv-x="518" 
d="M522 697l-15 -49q-64 29 -141 29q-70 0 -120.5 -32.5t-50.5 -101.5q0 -46 24.5 -76.5t89.5 -77.5q76 -55 109.5 -99.5t33.5 -108.5q0 -97 -67 -145t-170 -48q-109 0 -192 44l17 49q85 -44 176 -44q80 0 129.5 34.5t49.5 103.5q0 50 -30 88.5t-97 84.5q-68 47 -99 88.5
t-31 102.5q0 64 35 108t84.5 61.5t109.5 17.5q85 0 155 -29zM523 762h-44l-78 111l-125 -111h-52l152 146h57z" />
    <glyph glyph-name="scircumflex" unicode="&#x15d;" horiz-adv-x="403" 
d="M395 515l-15 -45q-55 24 -113 24q-52 0 -89.5 -21.5t-37.5 -70.5q0 -33 20.5 -56.5t64.5 -53.5q56 -38 85.5 -75t29.5 -85q0 -74 -50.5 -109t-133.5 -35q-84 0 -158 36l17 45q72 -35 141 -35q60 0 95.5 23t35.5 70q0 37 -23.5 65t-72.5 61q-54 37 -79 68.5t-25 77.5
q0 71 53.5 106t126.5 35q69 0 128 -25zM431 604h-45l-75 129l-128 -129h-51l154 164h57z" />
    <glyph glyph-name="Scedilla" unicode="&#x15e;" horiz-adv-x="518" 
d="M221 -12l-22 -52q10 2 27 2q31 0 50.5 -16.5t19.5 -46.5q0 -87 -121 -87q-25 0 -50 5l5 32q23 -4 46 -4q78 0 78 52q0 35 -54 35q-22 0 -45 -4l32 85q-96 7 -164 43l17 49q85 -44 176 -44q80 0 129.5 34.5t49.5 103.5q0 50 -30 88.5t-97 84.5q-68 47 -99 88.5t-31 102.5
q0 64 35 108t84.5 61.5t109.5 17.5q85 0 155 -29l-15 -49q-64 29 -141 29q-70 0 -120.5 -32.5t-50.5 -101.5q0 -46 24.5 -76.5t89.5 -77.5q76 -55 109.5 -99.5t33.5 -108.5q0 -96 -65 -143.5t-166 -49.5z" />
    <glyph glyph-name="scedilla" unicode="&#x15f;" horiz-adv-x="403" 
d="M395 515l-15 -45q-55 24 -113 24q-52 0 -89.5 -21.5t-37.5 -70.5q0 -33 20.5 -56.5t64.5 -53.5q56 -38 85.5 -75t29.5 -85q0 -74 -50 -108.5t-132 -35.5l-21 -52q10 2 27 2q31 0 50.5 -16.5t19.5 -46.5q0 -87 -121 -87q-25 0 -50 5l5 32q23 -4 46 -4q78 0 78 52
q0 35 -54 35q-22 0 -45 -4l32 86q-72 7 -127 34l17 45q72 -35 141 -35q60 0 95.5 23t35.5 70q0 37 -23.5 65t-72.5 61q-54 37 -79 68.5t-25 77.5q0 71 53.5 106t126.5 35q69 0 128 -25z" />
    <glyph glyph-name="Scaron" unicode="&#x160;" horiz-adv-x="518" 
d="M522 697l-15 -49q-64 29 -141 29q-70 0 -120.5 -32.5t-50.5 -101.5q0 -46 24.5 -76.5t89.5 -77.5q76 -55 109.5 -99.5t33.5 -108.5q0 -97 -67 -145t-170 -48q-109 0 -192 44l17 49q85 -44 176 -44q80 0 129.5 34.5t49.5 103.5q0 50 -30 88.5t-97 84.5q-68 47 -99 88.5
t-31 102.5q0 64 35 108t84.5 61.5t109.5 17.5q85 0 155 -29zM259 907h45l78 -111l125 111h51l-152 -146h-57z" />
    <glyph glyph-name="scaron" unicode="&#x161;" horiz-adv-x="403" 
d="M395 515l-15 -45q-55 24 -113 24q-52 0 -89.5 -21.5t-37.5 -70.5q0 -33 20.5 -56.5t64.5 -53.5q56 -38 85.5 -75t29.5 -85q0 -74 -50.5 -109t-133.5 -35q-84 0 -158 36l17 45q72 -35 141 -35q60 0 95.5 23t35.5 70q0 37 -23.5 65t-72.5 61q-54 37 -79 68.5t-25 77.5
q0 71 53.5 106t126.5 35q69 0 128 -25zM165 766h45l76 -129l127 129h51l-154 -164h-57z" />
    <glyph glyph-name="uni0162" unicode="&#x162;" horiz-adv-x="495" 
d="M167 0l141 665h-215l10 49h481l-11 -49h-209l-140 -665h-57zM216 -58l-106 -156h-41l84 156h63z" />
    <glyph glyph-name="uni0163" unicode="&#x163;" horiz-adv-x="320" 
d="M64 482l11 46h102l27 130h55l-27 -130h126l-11 -46h-126l-73 -349q-7 -29 -7 -48q0 -45 64 -45q34 0 62 4l-8 -44q-32 -6 -75 -6q-98 0 -98 81q0 26 8 61l73 346h-103zM169 -58l-106 -156h-41l84 156h63z" />
    <glyph glyph-name="Tcaron" unicode="&#x164;" horiz-adv-x="495" 
d="M167 0l141 665h-215l10 49h481l-11 -49h-209l-140 -665h-57zM238 907h45l78 -111l125 111h51l-152 -146h-57z" />
    <glyph glyph-name="tcaron" unicode="&#x165;" horiz-adv-x="320" 
d="M64 482l11 46h102l27 130h55l-27 -130h126l-11 -46h-126l-73 -349q-7 -29 -7 -48q0 -45 64 -45q34 0 62 4l-8 -44q-32 -6 -75 -6q-98 0 -98 81q0 26 8 61l73 346h-103zM443 768l-74 -164h-36l56 164h54z" />
    <glyph glyph-name="Tbar" unicode="&#x166;" horiz-adv-x="495" 
d="M167 0l84 395h-114l8 37h114l49 233h-215l10 49h481l-11 -49h-209l-49 -233h114l-8 -37h-114l-83 -395h-57z" />
    <glyph glyph-name="tbar" unicode="&#x167;" horiz-adv-x="320" 
d="M271 259h-97l-26 -126q-7 -29 -7 -48q0 -45 64 -45q34 0 62 4l-8 -44q-32 -6 -75 -6q-98 0 -98 81q0 26 8 61l26 123h-82l7 34h82l40 189h-103l11 46h102l27 130h55l-27 -130h126l-11 -46h-126l-40 -189h97z" />
    <glyph glyph-name="Utilde" unicode="&#x168;" horiz-adv-x="670" 
d="M693 714l-105 -495q-24 -112 -89.5 -171.5t-198.5 -59.5q-109 0 -165.5 43.5t-56.5 124.5q0 33 8 71l103 487h56l-102 -484q-7 -29 -7 -67q0 -126 169 -126q107 0 157 47t70 139l104 491h57zM477 854q35 -33 58 -33q20 0 35.5 18t21.5 51h42q-10 -50 -36 -80t-65 -30
q-33 0 -75 37q-37 32 -59 32q-43 0 -56 -69h-42q22 110 99 110q36 0 77 -36z" />
    <glyph glyph-name="utilde" unicode="&#x169;" horiz-adv-x="574" 
d="M435 0h-53l22 100h-2q-28 -52 -77 -82t-105 -30q-73 0 -111.5 38.5t-38.5 104.5q0 28 9 75l67 322h56l-68 -321q-9 -40 -9 -71q0 -45 25.5 -73.5t78.5 -28.5q72 0 127 53t74 145l62 296h55zM391 702q35 -33 58 -33q45 0 57 68h42q-22 -110 -102 -110q-21 0 -36.5 8.5
t-38.5 27.5q-36 33 -57 33q-43 0 -57 -69h-42q22 110 102 110q36 0 74 -35z" />
    <glyph glyph-name="Umacron" unicode="&#x16a;" horiz-adv-x="670" 
d="M693 714l-105 -495q-24 -112 -89.5 -171.5t-198.5 -59.5q-109 0 -165.5 43.5t-56.5 124.5q0 33 8 71l103 487h56l-102 -484q-7 -29 -7 -67q0 -126 169 -126q107 0 157 47t70 139l104 491h57zM594 856l-9 -43h-247l10 43h246z" />
    <glyph glyph-name="umacron" unicode="&#x16b;" horiz-adv-x="574" 
d="M435 0h-53l22 100h-2q-28 -52 -77 -82t-105 -30q-73 0 -111.5 38.5t-38.5 104.5q0 28 9 75l67 322h56l-68 -321q-9 -40 -9 -71q0 -45 25.5 -73.5t78.5 -28.5q72 0 127 53t74 145l62 296h55zM507 697l-9 -43h-247l9 43h247z" />
    <glyph glyph-name="Ubreve" unicode="&#x16c;" horiz-adv-x="670" 
d="M693 714l-105 -495q-24 -112 -89.5 -171.5t-198.5 -59.5q-109 0 -165.5 43.5t-56.5 124.5q0 33 8 71l103 487h56l-102 -484q-7 -29 -7 -67q0 -126 169 -126q107 0 157 47t70 139l104 491h57zM464 813q95 0 111 88h42q-24 -128 -155 -128q-60 0 -90.5 27t-30.5 71
q0 16 2 30h41q-2 -14 -2 -25q0 -63 82 -63z" />
    <glyph glyph-name="ubreve" unicode="&#x16d;" horiz-adv-x="574" 
d="M435 0h-53l22 100h-2q-28 -52 -77 -82t-105 -30q-73 0 -111.5 38.5t-38.5 104.5q0 28 9 75l67 322h56l-68 -321q-9 -40 -9 -71q0 -45 25.5 -73.5t78.5 -28.5q72 0 127 53t74 145l62 296h55zM374 653q95 0 111 88h42q-24 -128 -155 -128q-60 0 -90.5 27t-30.5 71
q0 16 2 30h41q-2 -14 -2 -25q0 -63 82 -63z" />
    <glyph glyph-name="Uring" unicode="&#x16e;" horiz-adv-x="670" 
d="M693 714l-105 -495q-24 -112 -89.5 -171.5t-198.5 -59.5q-109 0 -165.5 43.5t-56.5 124.5q0 33 8 71l103 487h56l-102 -484q-7 -29 -7 -67q0 -126 169 -126q107 0 157 47t70 139l104 491h57zM469 908q-27 0 -46 -18.5t-19 -45.5q0 -28 19 -46.5t46 -18.5q28 0 46.5 18.5
t18.5 46.5q0 27 -19 45.5t-46 18.5zM470 938q39 0 66.5 -28t27.5 -66q0 -40 -27.5 -67.5t-67.5 -27.5t-67.5 27.5t-27.5 67.5t27.5 67t68.5 27z" />
    <glyph glyph-name="uring" unicode="&#x16f;" horiz-adv-x="574" 
d="M435 0h-53l22 100h-2q-28 -52 -77 -82t-105 -30q-73 0 -111.5 38.5t-38.5 104.5q0 28 9 75l67 322h56l-68 -321q-9 -40 -9 -71q0 -45 25.5 -73.5t78.5 -28.5q72 0 127 53t74 145l62 296h55zM382 756q-27 0 -46 -19t-19 -46t19 -46t47 -19q27 0 45.5 19t18.5 46t-19 46
t-46 19zM383 786q39 0 66.5 -28t27.5 -67q0 -40 -27.5 -67.5t-66.5 -27.5q-40 0 -68 27.5t-28 67.5t28 67.5t68 27.5z" />
    <glyph glyph-name="Uhungarumlaut" unicode="&#x170;" horiz-adv-x="670" 
d="M693 714l-105 -495q-24 -112 -89.5 -171.5t-198.5 -59.5q-109 0 -165.5 43.5t-56.5 124.5q0 33 8 71l103 487h56l-102 -484q-7 -29 -7 -67q0 -126 169 -126q107 0 157 47t70 139l104 491h57zM520 905l-118 -137h-41l98 137h61zM647 905l-127 -137h-43l105 137h65z" />
    <glyph glyph-name="uhungarumlaut" unicode="&#x171;" horiz-adv-x="574" 
d="M435 0h-53l22 100h-2q-28 -52 -77 -82t-105 -30q-73 0 -111.5 38.5t-38.5 104.5q0 28 9 75l67 322h56l-68 -321q-9 -40 -9 -71q0 -45 25.5 -73.5t78.5 -28.5q72 0 127 53t74 145l62 296h55zM449 768l-133 -164h-40l113 164h60zM576 768l-143 -164h-40l119 164h64z" />
    <glyph glyph-name="Uogonek" unicode="&#x172;" horiz-adv-x="670" 
d="M693 714l-105 -495q-23 -108 -84.5 -167.5t-184.5 -63.5q-51 -46 -69 -71.5t-18 -49.5q0 -36 44 -36q31 0 58 11l-2 -34q-32 -13 -68 -13q-32 0 -53.5 15.5t-21.5 45.5t19.5 59.5t71.5 72.5q-99 4 -150.5 47.5t-51.5 120.5q0 33 8 71l103 487h56l-102 -484q-7 -29 -7 -67
q0 -126 169 -126q107 0 157 47t70 139l104 491h57z" />
    <glyph glyph-name="uogonek" unicode="&#x173;" horiz-adv-x="574" 
d="M435 0h-16q-60 -54 -80 -81t-20 -52q0 -36 44 -36q31 0 58 11l-2 -34q-32 -13 -68 -13q-32 0 -53.5 15.5t-21.5 45.5q0 33 22.5 65t83.5 79l22 100h-2q-28 -52 -77 -82t-105 -30q-73 0 -111.5 38.5t-38.5 104.5q0 28 9 75l67 322h56l-68 -321q-9 -40 -9 -71
q0 -45 25.5 -73.5t78.5 -28.5q72 0 127 53t74 145l62 296h55z" />
    <glyph glyph-name="Wcircumflex" unicode="&#x174;" horiz-adv-x="913" 
d="M563 0l-8 668h-2l-309 -668h-85l-18 714h59l11 -660h2l304 660h91l7 -660h2l310 660h62l-341 -714h-85zM721 762h-44l-78 111l-125 -111h-52l152 146h57z" />
    <glyph glyph-name="wcircumflex" unicode="&#x175;" horiz-adv-x="779" 
d="M449 0l-5 479h-2l-259 -479h-76l-12 528h56l4 -479h2l259 479h78l4 -479h2l262 479h62l-299 -528h-76zM621 604h-45l-75 129l-128 -129h-51l154 164h57z" />
    <glyph glyph-name="Ycircumflex" unicode="&#x176;" horiz-adv-x="532" 
d="M185 0l62 295l-145 419h62l120 -367l288 367h67l-336 -419l-62 -295h-56zM521 762h-44l-78 111l-125 -111h-52l152 146h57z" />
    <glyph glyph-name="ycircumflex" unicode="&#x177;" horiz-adv-x="474" 
d="M141 528l41 -459h2l286 459h63l-467 -723h-61l130 199l-50 524h56zM472 604h-45l-75 129l-128 -129h-51l154 164h57z" />
    <glyph glyph-name="Ydieresis" unicode="&#x178;" horiz-adv-x="532" 
d="M185 0l62 295l-145 419h62l120 -367l288 367h67l-336 -419l-62 -295h-56zM283 876h59l-16 -73h-59zM456 876h59l-16 -73h-59z" />
    <glyph glyph-name="Zacute" unicode="&#x179;" horiz-adv-x="561" 
d="M8 50l518 615h-360l11 49h431l-11 -49l-519 -616h415l-11 -49h-484zM466 903h67l-136 -134h-45z" />
    <glyph glyph-name="zacute" unicode="&#x17a;" horiz-adv-x="468" 
d="M13 46l385 437h-282l10 45h350l-11 -45l-382 -437h314l-10 -46h-384zM467 768l-151 -164h-44l132 164h63z" />
    <glyph glyph-name="Zdotaccent" unicode="&#x17b;" horiz-adv-x="561" 
d="M8 50l518 615h-360l11 49h431l-11 -49l-519 -616h415l-11 -49h-484zM385 874h66l-16 -75h-66z" />
    <glyph glyph-name="zdotaccent" unicode="&#x17c;" horiz-adv-x="468" 
d="M13 46l385 437h-282l10 45h350l-11 -45l-382 -437h314l-10 -46h-384zM303 717h66l-16 -75h-66z" />
    <glyph glyph-name="Zcaron" unicode="&#x17d;" horiz-adv-x="561" 
d="M8 50l518 615h-360l11 49h431l-11 -49l-519 -616h415l-11 -49h-484zM279 907h45l78 -111l125 111h51l-152 -146h-57z" />
    <glyph glyph-name="zcaron" unicode="&#x17e;" horiz-adv-x="468" 
d="M13 46l385 437h-282l10 45h350l-11 -45l-382 -437h314l-10 -46h-384zM199 766h45l76 -129l127 129h51l-154 -164h-57z" />
    <glyph glyph-name="florin" unicode="&#x192;" horiz-adv-x="526" 
d="M473 393l-10 -45h-145l-91 -330q-21 -75 -56.5 -114.5t-105.5 -39.5q-49 0 -83 15l12 47q36 -13 72 -13q46 0 68.5 27t38.5 88l87 320h-134l10 45h137l50 180q20 71 59 112t113 41q50 0 84 -13l-14 -47q-33 11 -70 11q-52 0 -78 -30t-42 -88l-46 -166h144z" />
    <glyph glyph-name="Scommaaccent" unicode="&#x218;" horiz-adv-x="518" 
d="M522 697l-15 -49q-64 29 -141 29q-70 0 -120.5 -32.5t-50.5 -101.5q0 -46 24.5 -76.5t89.5 -77.5q76 -55 109.5 -99.5t33.5 -108.5q0 -97 -67 -145t-170 -48q-109 0 -192 44l17 49q85 -44 176 -44q80 0 129.5 34.5t49.5 103.5q0 50 -30 88.5t-97 84.5q-68 47 -99 88.5
t-31 102.5q0 64 35 108t84.5 61.5t109.5 17.5q85 0 155 -29zM246 -58l-106 -156h-41l84 156h63z" />
    <glyph glyph-name="scommaaccent" unicode="&#x219;" horiz-adv-x="403" 
d="M395 515l-15 -45q-55 24 -113 24q-52 0 -89.5 -21.5t-37.5 -70.5q0 -33 20.5 -56.5t64.5 -53.5q56 -38 85.5 -75t29.5 -85q0 -74 -50.5 -109t-133.5 -35q-84 0 -158 36l17 45q72 -35 141 -35q60 0 95.5 23t35.5 70q0 37 -23.5 65t-72.5 61q-54 37 -79 68.5t-25 77.5
q0 71 53.5 106t126.5 35q69 0 128 -25zM187 -58l-106 -156h-41l84 156h63z" />
    <glyph glyph-name="uni021A" unicode="&#x21a;" horiz-adv-x="495" 
d="M167 0l141 665h-215l10 49h481l-11 -49h-209l-140 -665h-57zM216 -58l-106 -156h-41l84 156h63z" />
    <glyph glyph-name="uni021B" unicode="&#x21b;" horiz-adv-x="320" 
d="M64 482l11 46h102l27 130h55l-27 -130h126l-11 -46h-126l-73 -349q-7 -29 -7 -48q0 -45 64 -45q34 0 62 4l-8 -44q-32 -6 -75 -6q-98 0 -98 81q0 26 8 61l73 346h-103zM169 -58l-106 -156h-41l84 156h63z" />
    <glyph glyph-name="dotlessj" unicode="&#x237;" horiz-adv-x="236" 
d="M215 528l-121 -571q-16 -77 -51.5 -114.5t-109.5 -37.5q-25 0 -48 4l8 45q24 -3 40 -3q49 0 71 28t35 86l120 563h56z" />
    <glyph glyph-name="circumflex" unicode="&#x2c6;" horiz-adv-x="467" 
d="M458 604h-45l-75 129l-128 -129h-51l154 164h57z" />
    <glyph glyph-name="caron" unicode="&#x2c7;" horiz-adv-x="467" 
d="M195 766h45l76 -129l127 129h51l-154 -164h-57z" />
    <glyph glyph-name="uni02C9" unicode="&#x2c9;" horiz-adv-x="467" 
d="M473 755l-9 -42h-247l9 42h247z" />
    <glyph glyph-name="breve" unicode="&#x2d8;" horiz-adv-x="467" 
d="M322 653q95 0 111 88h42q-24 -128 -155 -128q-60 0 -90.5 27t-30.5 71q0 16 2 30h41q-2 -14 -2 -25q0 -63 82 -63z" />
    <glyph glyph-name="dotaccent" unicode="&#x2d9;" horiz-adv-x="467" 
d="M303 717h66l-16 -75h-66z" />
    <glyph glyph-name="ring" unicode="&#x2da;" horiz-adv-x="467" 
d="M330 756q-27 0 -46 -19t-19 -46t19 -46t47 -19q27 0 45.5 19t18.5 46t-19 46t-46 19zM331 786q39 0 66.5 -28t27.5 -67q0 -40 -27.5 -67.5t-66.5 -27.5q-40 0 -68 27.5t-28 67.5t28 67.5t68 27.5z" />
    <glyph glyph-name="ogonek" unicode="&#x2db;" horiz-adv-x="467" 
d="M201 8h36q-66 -58 -87.5 -87t-21.5 -54q0 -36 44 -36q31 0 58 11l-2 -34q-33 -13 -68 -13q-32 0 -53.5 15.5t-21.5 45.5q0 33 24.5 66.5t91.5 85.5z" />
    <glyph glyph-name="tilde" unicode="&#x2dc;" horiz-adv-x="467" 
d="M338 702q35 -33 58 -33q45 0 57 68h42q-22 -110 -102 -110q-21 0 -36.5 8.5t-38.5 27.5q-36 33 -57 33q-43 0 -57 -69h-42q22 110 102 110q36 0 74 -35z" />
    <glyph glyph-name="hungarumlaut" unicode="&#x2dd;" horiz-adv-x="467" 
d="M381 768l-133 -164h-40l113 164h60zM508 768l-143 -164h-40l119 164h64z" />
    <glyph glyph-name="uni0374" unicode="&#x374;" horiz-adv-x="278" 
d="M138 531l91 204h74l-125 -204h-40z" />
    <glyph glyph-name="uni0375" unicode="&#x375;" horiz-adv-x="278" 
d="M190 21l-91 -204h-74l125 204h40z" />
    <glyph glyph-name="uni037E" unicode="&#x37e;" horiz-adv-x="320" 
d="M175 447l17 81h73l-18 -81h-72zM11 -146l96 231h64l-122 -231h-38z" />
    <glyph glyph-name="tonos" unicode="&#x384;" horiz-adv-x="442" 
d="M247 604l93 164h73l-124 -164h-42z" />
    <glyph glyph-name="dieresistonos" unicode="&#x385;" horiz-adv-x="442" 
d="M433 642l16 73h59l-16 -73h-59zM300 604l74 164h65l-103 -164h-36zM218 642l16 73h59l-16 -73h-59z" />
    <glyph glyph-name="Alphatonos" unicode="&#x386;" horiz-adv-x="616" 
d="M80 550l93 164h73l-124 -164h-42zM159 227l-136 -227h-64l430 714h79l94 -714h-60l-29 227h-314zM421 670l-236 -393h283z" />
    <glyph glyph-name="anoteleia" unicode="&#x387;" horiz-adv-x="264" 
d="M104 263l18 80h75l-18 -80h-75z" />
    <glyph glyph-name="Epsilontonos" unicode="&#x388;" horiz-adv-x="518" 
d="M-41 550l93 164h73l-124 -164h-42zM51 0l151 714h343l-10 -49h-287l-58 -272h278l-10 -49h-278l-62 -295h314l-11 -49h-370z" />
    <glyph glyph-name="Etatonos" unicode="&#x389;" horiz-adv-x="668" 
d="M-41 550l93 164h73l-124 -164h-42zM51 0l151 714h56l-68 -321h364l68 321h56l-151 -714h-56l73 344h-364l-73 -344h-56z" />
    <glyph glyph-name="Iotatonos" unicode="&#x38a;" horiz-adv-x="248" 
d="M-41 550l93 164h73l-124 -164h-42zM51 0l151 714h56l-151 -714h-56z" />
    <glyph glyph-name="Omicrontonos" unicode="&#x38c;" horiz-adv-x="726" 
d="M-6 550l93 164h73l-124 -164h-42zM700 463q0 -65 -13.5 -130.5t-43.5 -128t-72.5 -110.5t-104.5 -77t-136 -29q-121 0 -185 72t-64 193q0 90 25.5 174.5t71.5 151.5t117.5 107t157.5 40q122 0 184.5 -71.5t62.5 -191.5zM334 37q75 0 135.5 38.5t97.5 100.5t56.5 134
t19.5 144q0 100 -49 161.5t-146 61.5q-91 0 -163 -60t-109.5 -154.5t-37.5 -202.5q0 -100 49.5 -161.5t146.5 -61.5z" />
    <glyph glyph-name="Upsilontonos" unicode="&#x38e;" horiz-adv-x="532" 
d="M-118 550l93 164h73l-124 -164h-42zM185 0l62 295l-145 419h62l120 -367l288 367h67l-336 -419l-62 -295h-56z" />
    <glyph glyph-name="Omegatonos" unicode="&#x38f;" horiz-adv-x="728" 
d="M445 676q-61 0 -112.5 -22t-85 -57.5t-57 -81.5t-34 -92.5t-10.5 -91.5q0 -152 140 -197l-28 -134h-225l10 50h173l12 55q-142 57 -142 225q0 53 13 106.5t41.5 106t70 93t104.5 65.5t139 25q122 0 184.5 -67t62.5 -176q0 -145 -73.5 -247t-184.5 -133l-11 -53h186
l-10 -50h-240l28 132q115 23 180 121.5t65 221.5q0 91 -49 146t-147 55zM-20 550l93 164h73l-124 -164h-42z" />
    <glyph glyph-name="iotadieresistonos" unicode="&#x390;" horiz-adv-x="302" 
d="M167 -6q-97 0 -97 80q0 27 12 81l79 373h54l-83 -395q-7 -31 -7 -47q0 -25 15.5 -35.5t50.5 -10.5q26 0 56 4l-8 -44q-32 -6 -72 -6zM318 642l16 73h59l-16 -73h-59zM185 604l74 164h65l-103 -164h-36zM103 642l16 73h59l-16 -73h-59z" />
    <glyph glyph-name="Alpha" unicode="&#x391;" horiz-adv-x="616" 
d="M159 227l-136 -227h-64l430 714h79l94 -714h-60l-29 227h-314zM421 670l-236 -393h283z" />
    <glyph glyph-name="Beta" unicode="&#x392;" horiz-adv-x="602" 
d="M51 0l151 714h201q89 0 140.5 -38.5t51.5 -117.5q0 -158 -169 -190v-2q56 -10 90.5 -49.5t34.5 -97.5q0 -100 -72.5 -159.5t-196.5 -59.5h-231zM248 665l-58 -272h151q90 0 143.5 40t53.5 119q0 113 -153 113h-137zM180 344l-62 -295h165q93 0 152 41t59 127
q0 62 -44.5 94.5t-119.5 32.5h-150z" />
    <glyph glyph-name="Gamma" unicode="&#x393;" horiz-adv-x="486" 
d="M50 0l151 714h348l-11 -49h-291l-141 -665h-56z" />
    <glyph glyph-name="uni0394" unicode="&#x394;" horiz-adv-x="617" 
d="M-22 0l11 50l400 664h79l88 -665l-11 -49h-567zM52 49h444l-75 621z" />
    <glyph glyph-name="Epsilon" unicode="&#x395;" horiz-adv-x="518" 
d="M51 0l151 714h343l-10 -49h-287l-58 -272h278l-10 -49h-278l-62 -295h314l-11 -49h-370z" />
    <glyph glyph-name="Zeta" unicode="&#x396;" horiz-adv-x="561" 
d="M8 50l518 615h-360l11 49h431l-11 -49l-519 -616h415l-11 -49h-484z" />
    <glyph glyph-name="Eta" unicode="&#x397;" horiz-adv-x="668" 
d="M51 0l151 714h56l-68 -321h364l68 321h56l-151 -714h-56l73 344h-364l-73 -344h-56z" />
    <glyph glyph-name="Theta" unicode="&#x398;" horiz-adv-x="726" 
d="M230 333l11 50h309l-11 -50h-309zM700 463q0 -65 -13.5 -130.5t-43.5 -128t-72.5 -110.5t-104.5 -77t-136 -29q-121 0 -185 72t-64 193q0 90 25.5 174.5t71.5 151.5t117.5 107t157.5 40q122 0 184.5 -71.5t62.5 -191.5zM334 37q75 0 135.5 38.5t97.5 100.5t56.5 134
t19.5 144q0 100 -49 161.5t-146 61.5q-91 0 -163 -60t-109.5 -154.5t-37.5 -202.5q0 -100 49.5 -161.5t146.5 -61.5z" />
    <glyph glyph-name="Iota" unicode="&#x399;" horiz-adv-x="248" 
d="M51 0l151 714h56l-151 -714h-56z" />
    <glyph glyph-name="Kappa" unicode="&#x39a;" horiz-adv-x="554" 
d="M552 714h78l-386 -346l266 -368h-69l-256 359h-2l-76 -359h-56l151 714h56l-71 -334h2z" />
    <glyph glyph-name="Lambda" unicode="&#x39b;" horiz-adv-x="611" 
d="M-34 0l420 714h79l84 -714h-60l-71 670l-388 -670h-64z" />
    <glyph glyph-name="Mu" unicode="&#x39c;" horiz-adv-x="844" 
d="M300 714l83 -660h2l372 660h98l-151 -714h-56l142 669h-2l-376 -669h-76l-87 669h-2l-142 -669h-54l151 714h98z" />
    <glyph glyph-name="Nu" unicode="&#x39d;" horiz-adv-x="683" 
d="M287 714l210 -654h2l139 654h55l-151 -714h-83l-212 656h-2l-139 -656h-55l151 714h85z" />
    <glyph glyph-name="Xi" unicode="&#x39e;" horiz-adv-x="614" 
d="M31 0l11 52h470l-11 -52h-470zM134 342l11 52h404l-11 -52h-404zM167 662l11 52h463l-11 -52h-463z" />
    <glyph glyph-name="Omicron" unicode="&#x39f;" horiz-adv-x="726" 
d="M700 463q0 -65 -13.5 -130.5t-43.5 -128t-72.5 -110.5t-104.5 -77t-136 -29q-121 0 -185 72t-64 193q0 90 25.5 174.5t71.5 151.5t117.5 107t157.5 40q122 0 184.5 -71.5t62.5 -191.5zM334 37q75 0 135.5 38.5t97.5 100.5t56.5 134t19.5 144q0 100 -49 161.5t-146 61.5
q-91 0 -163 -60t-109.5 -154.5t-37.5 -202.5q0 -100 49.5 -161.5t146.5 -61.5z" />
    <glyph glyph-name="Pi" unicode="&#x3a0;" horiz-adv-x="665" 
d="M51 0l151 714h473l-151 -714h-56l141 665h-361l-141 -665h-56z" />
    <glyph glyph-name="Rho" unicode="&#x3a1;" horiz-adv-x="586" 
d="M51 0l151 714h191q91 0 149 -43t58 -127q0 -114 -79 -172t-200 -58h-147l-67 -314h-56zM248 665l-64 -302h142q41 0 76.5 8.5t68 27t51.5 54.5t19 85q0 67 -45.5 97t-117.5 30h-130z" />
    <glyph glyph-name="Sigma" unicode="&#x3a3;" horiz-adv-x="547" 
d="M5 0l11 50l298 317v2l-170 296l10 49h449l-10 -49h-386l172 -300l-297 -316h405l-10 -49h-472z" />
    <glyph glyph-name="Tau" unicode="&#x3a4;" horiz-adv-x="495" 
d="M167 0l141 665h-215l10 49h481l-11 -49h-209l-140 -665h-57z" />
    <glyph glyph-name="Upsilon" unicode="&#x3a5;" horiz-adv-x="532" 
d="M185 0l62 295l-145 419h62l120 -367l288 367h67l-336 -419l-62 -295h-56z" />
    <glyph glyph-name="Phi" unicode="&#x3a6;" horiz-adv-x="823" 
d="M797 424q0 -55 -13.5 -106.5t-44.5 -100t-75.5 -84t-112 -57.5t-149.5 -23l-15 -70h-56l15 71q-265 18 -265 242q0 73 24 138t71 117.5t124.5 83.5t175.5 32l15 70h56l-15 -71q265 -18 265 -242zM138 300q0 -100 59 -147.5t159 -50.5l110 517q-90 -2 -156.5 -31.5
t-102.5 -77t-52.5 -100t-16.5 -110.5zM740 422q0 96 -58 145t-160 52l-110 -517q166 4 247 95t81 225z" />
    <glyph glyph-name="Chi" unicode="&#x3a7;" horiz-adv-x="585" 
d="M-33 0l325 374l-152 340h64l130 -300l257 300h71l-301 -346l165 -368h-65l-142 325l-282 -325h-70z" />
    <glyph glyph-name="Psi" unicode="&#x3a8;" horiz-adv-x="794" 
d="M323 0l27 126q-242 4 -242 173q0 32 10 79l71 336h56l-69 -327q-10 -46 -10 -78q0 -69 45.5 -100.5t148.5 -32.5l114 538h56l-114 -538q134 6 193 55.5t82 156.5l69 326h56l-72 -340q-27 -127 -105.5 -187.5t-232.5 -60.5l-27 -126h-56z" />
    <glyph glyph-name="uni03A9" unicode="&#x3a9;" horiz-adv-x="728" 
d="M445 676q-61 0 -112.5 -22t-85 -57.5t-57 -81.5t-34 -92.5t-10.5 -91.5q0 -152 140 -197l-28 -134h-225l10 50h173l12 55q-142 57 -142 225q0 53 13 106.5t41.5 106t70 93t104.5 65.5t139 25q122 0 184.5 -67t62.5 -176q0 -145 -73.5 -247t-184.5 -133l-11 -53h186
l-10 -50h-240l28 132q115 23 180 121.5t65 221.5q0 91 -49 146t-147 55z" />
    <glyph glyph-name="Iotadieresis" unicode="&#x3aa;" horiz-adv-x="248" 
d="M148 876h59l-16 -73h-59zM321 876h59l-16 -73h-59zM51 0l151 714h56l-151 -714h-56z" />
    <glyph glyph-name="Upsilondieresis" unicode="&#x3ab;" horiz-adv-x="532" 
d="M278 876h59l-16 -73h-59zM451 876h59l-16 -73h-59zM185 0l62 295l-145 419h62l120 -367l288 367h67l-336 -419l-62 -295h-56z" />
    <glyph glyph-name="alphatonos" unicode="&#x3ac;" horiz-adv-x="638" 
d="M232 -12q-51 0 -86.5 19t-52.5 51t-23.5 62.5t-6.5 65.5q0 86 27.5 164.5t88.5 134t143 55.5q78 0 118.5 -48.5t40.5 -133.5q0 -28 -2 -42h2q51 110 83 212h49q-54 -177 -132 -312q0 -107 10.5 -141.5t49.5 -34.5q18 0 30 3l-8 -44q-15 -5 -37 -5q-51 0 -69.5 29.5
t-18.5 89.5q0 5 0.5 15.5t0.5 16.5h-2q-81 -157 -205 -157zM239 34q118 0 195 193q6 33 6 82q0 185 -119 185q-64 0 -112 -49.5t-69 -116.5t-21 -136q0 -158 120 -158zM333 604l93 164h73l-124 -164h-42z" />
    <glyph glyph-name="epsilontonos" unicode="&#x3ad;" horiz-adv-x="495" 
d="M259 -12q-206 0 -206 139q0 59 38.5 100t101.5 52v2q-80 20 -80 102q0 67 57 112t163 45q105 0 157 -37l-22 -43q-55 34 -142 34q-81 0 -120 -32t-39 -78q0 -82 131 -82l83 1l-11 -49q-71 2 -85 2q-99 0 -137 -36t-38 -82q0 -104 157 -104q93 0 157 27v-46
q-61 -27 -165 -27zM319 604l93 164h73l-124 -164h-42z" />
    <glyph glyph-name="etatonos" unicode="&#x3ae;" horiz-adv-x="577" 
d="M47 0l86 405q14 72 16 123h54q0 -54 -12 -102h2q26 55 76.5 84.5t104.5 29.5q73 0 112 -39t39 -105q0 -27 -9 -74l-108 -517h-56l109 515q9 41 9 71q0 45 -26.5 74t-79.5 29q-71 0 -125.5 -53t-73.5 -145l-62 -296h-56zM309 604l93 164h73l-124 -164h-42z" />
    <glyph glyph-name="iotatonos" unicode="&#x3af;" horiz-adv-x="302" 
d="M167 -6q-97 0 -97 80q0 27 12 81l79 373h54l-83 -395q-7 -31 -7 -47q0 -25 15.5 -35.5t50.5 -10.5q26 0 56 4l-8 -44q-32 -6 -72 -6zM184 604l93 164h73l-124 -164h-42z" />
    <glyph glyph-name="upsilondieresistonos" unicode="&#x3b0;" horiz-adv-x="553" 
d="M225 -12q-82 0 -118.5 40.5t-36.5 101.5q0 32 9 76l67 322h56l-64 -302q-13 -58 -13 -88q0 -53 28.5 -78.5t73.5 -25.5q104 0 162.5 112t58.5 294q0 40 -6 88h54q7 -28 7 -88q0 -202 -73.5 -327t-204.5 -125zM420 642l16 73h59l-16 -73h-59zM287 604l74 164h65l-103 -164
h-36zM205 642l16 73h59l-16 -73h-59z" />
    <glyph glyph-name="alpha" unicode="&#x3b1;" horiz-adv-x="638" 
d="M232 -12q-51 0 -86.5 19t-52.5 51t-23.5 62.5t-6.5 65.5q0 86 27.5 164.5t88.5 134t143 55.5q78 0 118.5 -48.5t40.5 -133.5q0 -28 -2 -42h2q51 110 83 212h49q-54 -177 -132 -312q0 -107 10.5 -141.5t49.5 -34.5q18 0 30 3l-8 -44q-15 -5 -37 -5q-51 0 -69.5 29.5
t-18.5 89.5q0 5 0.5 15.5t0.5 16.5h-2q-81 -157 -205 -157zM239 34q118 0 195 193q6 33 6 82q0 185 -119 185q-64 0 -112 -49.5t-69 -116.5t-21 -136q0 -158 120 -158z" />
    <glyph glyph-name="beta" unicode="&#x3b2;" horiz-adv-x="578" 
d="M282 34q82 0 132.5 54.5t50.5 143.5q0 66 -40 102.5t-115 36.5h-52l10 48q114 0 167.5 43t53.5 117q0 54 -31.5 82t-79.5 28q-74 0 -112.5 -44.5t-59.5 -138.5l-49 -228q-12 -58 -12 -91q0 -75 37 -114t100 -39zM2 -195l149 702q49 228 229 228q79 0 122.5 -42.5
t43.5 -111.5q0 -66 -40.5 -114t-105.5 -67v-2q55 -13 88.5 -54.5t33.5 -111.5q0 -98 -65 -171t-171 -73q-71 0 -110.5 33t-54.5 80h-2l-62 -296h-55z" />
    <glyph glyph-name="gamma" unicode="&#x3b3;" horiz-adv-x="496" 
d="M127 -195q24 123 24 228q0 143 -17.5 287t-38.5 208h56q14 -33 32 -173t18 -276v-39h3q219 236 219 434q0 27 -4 54h53q4 -27 4 -54q0 -241 -278 -504q-3 -91 -23 -165h-48z" />
    <glyph glyph-name="delta" unicode="&#x3b4;" horiz-adv-x="548" 
d="M266 -12q-87 0 -145 55t-58 164t62 190t188 96v2q-39 32 -55.5 58t-16.5 57q0 58 42 91.5t114 33.5q101 0 157 -41l-24 -45q-56 38 -133 38q-45 0 -72 -19.5t-27 -53.5q0 -23 14.5 -41.5t69.5 -66.5q63 -55 93 -109.5t30 -133.5q0 -49 -14.5 -96t-42 -88t-75 -66
t-107.5 -25zM270 34q76 0 127.5 62t51.5 171q0 106 -75 178l-18 17q-119 -6 -178 -77t-59 -176q0 -75 37.5 -125t113.5 -50z" />
    <glyph glyph-name="epsilon" unicode="&#x3b5;" horiz-adv-x="495" 
d="M259 -12q-206 0 -206 139q0 59 38.5 100t101.5 52v2q-80 20 -80 102q0 67 57 112t163 45q105 0 157 -37l-22 -43q-55 34 -142 34q-81 0 -120 -32t-39 -78q0 -82 131 -82l83 1l-11 -49q-71 2 -85 2q-99 0 -137 -36t-38 -82q0 -104 157 -104q93 0 157 27v-46
q-61 -27 -165 -27z" />
    <glyph glyph-name="zeta" unicode="&#x3b6;" horiz-adv-x="427" 
d="M120 243q0 -62 31.5 -99t106.5 -77q74 -41 97.5 -64t23.5 -65q0 -49 -53 -118h-55q52 72 52 110q0 28 -17.5 44t-80.5 50q-90 47 -126 93.5t-36 119.5q0 138 99 262.5t232 186.5v2h-221l10 47h309v-47q-158 -65 -265 -185.5t-107 -259.5z" />
    <glyph glyph-name="eta" unicode="&#x3b7;" horiz-adv-x="577" 
d="M47 0l86 405q14 72 16 123h54q0 -54 -12 -102h2q26 55 76.5 84.5t104.5 29.5q73 0 112 -39t39 -105q0 -27 -9 -74l-108 -517h-56l109 515q9 41 9 71q0 45 -26.5 74t-79.5 29q-71 0 -125.5 -53t-73.5 -145l-62 -296h-56z" />
    <glyph glyph-name="theta" unicode="&#x3b8;" horiz-adv-x="570" 
d="M245 -12q-84 0 -129 56t-45 167q0 78 17 163.5t51.5 169t98.5 137.5t146 54q81 0 127 -56t46 -165q0 -82 -17.5 -168.5t-52.5 -169t-98 -135.5t-144 -53zM378 689q-49 0 -89.5 -28t-68 -75.5t-45 -96.5t-28.5 -104h342q11 56 11 123q0 181 -122 181zM253 34q48 0 88 28.5
t67 76t44.5 96.5t28.5 104h-343q-11 -59 -11 -119q0 -186 126 -186z" />
    <glyph glyph-name="iota" unicode="&#x3b9;" horiz-adv-x="302" 
d="M167 -6q-97 0 -97 80q0 27 12 81l79 373h54l-83 -395q-7 -31 -7 -47q0 -25 15.5 -35.5t50.5 -10.5q26 0 56 4l-8 -44q-32 -6 -72 -6z" />
    <glyph glyph-name="kappa" unicode="&#x3ba;" horiz-adv-x="532" 
d="M44 0l112 528h56l-61 -287h2l252 247q31 31 48 40t41 9q22 0 33 -4l-13 -52q-9 2 -17 2q-15 0 -28 -7.5t-37 -30.5l-131 -127l162 -318h-59l-143 281l-127 -122l-34 -159h-56z" />
    <glyph glyph-name="lambda" unicode="&#x3bb;" horiz-adv-x="527" 
d="M0 0l325 504l-11 107q-8 77 -61 77q-13 0 -29 -4v45q20 6 41 6q47 0 70.5 -27t30.5 -93l52 -525q2 -27 11 -38.5t29 -11.5q12 0 24 3l-8 -44q-15 -5 -34 -5q-43 0 -58 25.5t-19 72.5l-30 337h-3l-269 -429h-61z" />
    <glyph glyph-name="uni03BC" unicode="&#x3bc;" horiz-adv-x="601" 
d="M2 -195l153 723h56l-66 -312q-11 -50 -11 -79q0 -55 29.5 -79t74.5 -24q70 0 125.5 52t75.5 146l62 296h55l-84 -396q-8 -36 -8 -54q0 -38 38 -38q18 0 27 3l-8 -44q-17 -5 -38 -5q-70 0 -73 68q0 20 3 38h-2q-30 -54 -78.5 -83t-103.5 -29q-48 0 -79.5 17.5t-38.5 42.5
h-2l-52 -243h-55z" />
    <glyph glyph-name="nu" unicode="&#x3bd;" horiz-adv-x="496" 
d="M150 0q0 7 0.5 23t0.5 24q0 132 -18 276t-38 205h56q15 -39 32.5 -176.5t17.5 -264.5v-37h3q219 234 219 425q0 30 -4 53h53q4 -32 4 -51q0 -101 -66 -228t-191 -249h-69z" />
    <glyph glyph-name="xi" unicode="&#x3be;" horiz-adv-x="465" 
d="M278 -180q52 73 52 111q0 28 -19 45t-77 46q-41 20 -62.5 31.5t-47 29.5t-37 34t-19.5 38.5t-8 51.5q0 75 47 123t127 66v2q-92 34 -92 125q0 72 47 113t106 50v2h-126l10 47h336l-10 -46q-162 0 -238 -44t-76 -117q0 -63 50.5 -84.5t154.5 -21.5h24l-10 -48h-26
q-142 0 -205 -44t-63 -116q0 -45 28.5 -73.5t112.5 -70.5q77 -39 103 -64t26 -67q0 -50 -53 -119h-55z" />
    <glyph glyph-name="omicron" unicode="&#x3bf;" horiz-adv-x="572" 
d="M529 338q0 -44 -9.5 -91t-31.5 -93.5t-52.5 -83t-77.5 -59.5t-103 -23q-95 0 -143.5 56.5t-48.5 149.5q0 144 76 245t195 101q95 0 145 -55t50 -147zM257 34q69 0 120.5 51t73.5 117.5t22 132.5q0 72 -35 115.5t-105 43.5q-67 0 -117 -44.5t-73.5 -110.5t-23.5 -142
q0 -72 34 -117.5t104 -45.5z" />
    <glyph glyph-name="pi" unicode="&#x3c0;" horiz-adv-x="629" 
d="M55 0l152 481h-127l10 47h559l-10 -47h-121l-74 -353q-6 -25 -6 -43q0 -45 55 -45q16 0 35 3l-8 -44q-22 -5 -51 -5q-86 0 -86 80q0 26 11 76l70 331h-204l-148 -481h-57z" />
    <glyph glyph-name="rho" unicode="&#x3c1;" horiz-adv-x="577" 
d="M-8 -195l99 464q12 55 31 100.5t49.5 85.5t76.5 62.5t104 22.5q94 0 138 -60t44 -149q0 -147 -74.5 -245t-188.5 -98q-66 0 -106 32t-53 81h-2l-63 -296h-55zM272 34q95 0 150.5 92t55.5 206q0 68 -33 115t-100 47t-117 -51t-72 -118.5t-22 -135.5q0 -70 36.5 -112.5
t101.5 -42.5z" />
    <glyph glyph-name="sigma1" unicode="&#x3c2;" horiz-adv-x="443" 
d="M119 241q0 -60 31.5 -96.5t106.5 -77.5q74 -40 97.5 -64t23.5 -65q0 -48 -53 -118h-55q52 72 52 110q0 28 -17.5 44t-76.5 48q-94 50 -130 96t-36 121q0 132 80 216.5t206 84.5q69 0 111 -22l-16 -48q-39 20 -99 20q-95 0 -160 -67t-65 -182z" />
    <glyph glyph-name="sigma" unicode="&#x3c3;" horiz-adv-x="583" 
d="M250 -12q-88 0 -139 54t-51 150q0 43 8.5 87t29.5 89.5t52.5 80.5t83 57t114.5 22h250l-10 -47h-140l-1 -2q69 -50 69 -159q0 -53 -16.5 -109.5t-47.5 -107t-84 -83t-118 -32.5zM252 34q67 0 116.5 48t70.5 111.5t21 127.5q0 75 -33.5 118t-96.5 43q-56 0 -99.5 -28.5
t-67 -73.5t-35.5 -92t-12 -92q0 -80 36.5 -121t99.5 -41z" />
    <glyph glyph-name="tau" unicode="&#x3c4;" horiz-adv-x="462" 
d="M253 -6q-96 0 -96 81q0 25 12 80l69 326h-168l10 47h402l-11 -47h-179l-72 -343q-8 -35 -8 -54q0 -44 62 -44q23 0 57 4l-8 -44q-32 -6 -70 -6z" />
    <glyph glyph-name="upsilon" unicode="&#x3c5;" horiz-adv-x="553" 
d="M225 -12q-82 0 -118.5 40.5t-36.5 101.5q0 32 9 76l67 322h56l-64 -302q-13 -58 -13 -88q0 -53 28.5 -78.5t73.5 -25.5q104 0 162.5 112t58.5 294q0 40 -6 88h54q7 -28 7 -88q0 -202 -73.5 -327t-204.5 -125z" />
    <glyph glyph-name="phi" unicode="&#x3c6;" horiz-adv-x="720" 
d="M244 -195l39 182q-113 7 -167 62t-54 147q0 45 10 90t34.5 92t61.5 82.5t97 58t135 22.5l29 136h56l-29 -136q101 -6 161 -58t60 -152q0 -38 -7 -77.5t-29 -89t-57 -86.5t-98.5 -63.5t-146.5 -27.5l-39 -182h-56zM292 32l98 463q-66 0 -117 -22.5t-79.5 -54.5t-47 -74.5
t-24 -76t-5.5 -64.5q0 -80 45.5 -123.5t129.5 -47.5zM446 494l-98 -462q73 0 128.5 26.5t85.5 70.5t44.5 94.5t14.5 105.5q0 79 -46.5 120.5t-128.5 44.5z" />
    <glyph glyph-name="chi" unicode="&#x3c7;" horiz-adv-x="552" 
d="M-45 -195l288 377l-64 250q-6 22 -10.5 33t-14 19t-24.5 8q-13 0 -26 -5l3 45q13 6 36 6q40 0 57 -21t31 -76l53 -210h2l223 297h63l-273 -360l71 -275q7 -29 15 -38.5t28 -9.5q17 0 27 3l-9 -44q-20 -5 -34 -5q-36 0 -52 17.5t-27 63.5l-60 240h-2l-239 -315h-62z" />
    <glyph glyph-name="psi" unicode="&#x3c8;" horiz-adv-x="707" 
d="M229 -195l39 183q-112 6 -155 44t-43 102q0 34 19 122l57 272h56l-63 -297q-14 -64 -14 -94q0 -56 39.5 -77.5t113.5 -25.5l136 643h55l-136 -643q73 0 126.5 31.5t84 89t44.5 128.5t14 159q0 38 -6 86h54q7 -28 7 -85q0 -49 -5 -95t-17.5 -100t-37 -98.5t-59.5 -82
t-90.5 -58.5t-124.5 -21l-39 -183h-55z" />
    <glyph glyph-name="omega" unicode="&#x3c9;" horiz-adv-x="764" 
d="M210 -12q-72 0 -109.5 47t-37.5 127q0 94 40 201t98 165h58q-67 -73 -103.5 -175.5t-36.5 -193.5q0 -61 25 -93t69 -32q101 0 133 148l45 213h56l-39 -186q-10 -43 -10 -77q0 -52 20.5 -75t64.5 -23q74 0 124.5 85.5t50.5 237.5q0 94 -23 171h54q25 -61 25 -165
q0 -180 -67 -277.5t-165 -97.5q-116 0 -121 112h-2q-20 -48 -60 -80t-89 -32z" />
    <glyph glyph-name="iotadieresis" unicode="&#x3ca;" horiz-adv-x="302" 
d="M167 -6q-97 0 -97 80q0 27 12 81l79 373h54l-83 -395q-7 -31 -7 -47q0 -25 15.5 -35.5t50.5 -10.5q26 0 56 4l-8 -44q-32 -6 -72 -6zM111 715h59l-16 -73h-59zM284 715h59l-16 -73h-59z" />
    <glyph glyph-name="upsilondieresis" unicode="&#x3cb;" horiz-adv-x="553" 
d="M225 -12q-82 0 -118.5 40.5t-36.5 101.5q0 32 9 76l67 322h56l-64 -302q-13 -58 -13 -88q0 -53 28.5 -78.5t73.5 -25.5q104 0 162.5 112t58.5 294q0 40 -6 88h54q7 -28 7 -88q0 -202 -73.5 -327t-204.5 -125zM234 715h59l-16 -73h-59zM407 715h59l-16 -73h-59z" />
    <glyph glyph-name="omicrontonos" unicode="&#x3cc;" horiz-adv-x="572" 
d="M333 604l93 164h73l-124 -164h-42zM529 338q0 -44 -9.5 -91t-31.5 -93.5t-52.5 -83t-77.5 -59.5t-103 -23q-95 0 -143.5 56.5t-48.5 149.5q0 144 76 245t195 101q95 0 145 -55t50 -147zM257 34q69 0 120.5 51t73.5 117.5t22 132.5q0 72 -35 115.5t-105 43.5
q-67 0 -117 -44.5t-73.5 -110.5t-23.5 -142q0 -72 34 -117.5t104 -45.5z" />
    <glyph glyph-name="upsilontonos" unicode="&#x3cd;" horiz-adv-x="553" 
d="M225 -12q-82 0 -118.5 40.5t-36.5 101.5q0 32 9 76l67 322h56l-64 -302q-13 -58 -13 -88q0 -53 28.5 -78.5t73.5 -25.5q104 0 162.5 112t58.5 294q0 40 -6 88h54q7 -28 7 -88q0 -202 -73.5 -327t-204.5 -125zM302 604l93 164h73l-124 -164h-42z" />
    <glyph glyph-name="omegatonos" unicode="&#x3ce;" horiz-adv-x="764" 
d="M210 -12q-72 0 -109.5 47t-37.5 127q0 94 40 201t98 165h58q-67 -73 -103.5 -175.5t-36.5 -193.5q0 -61 25 -93t69 -32q101 0 133 148l45 213h56l-39 -186q-10 -43 -10 -77q0 -52 20.5 -75t64.5 -23q74 0 124.5 85.5t50.5 237.5q0 94 -23 171h54q25 -61 25 -165
q0 -180 -67 -277.5t-165 -97.5q-116 0 -121 112h-2q-20 -48 -60 -80t-89 -32zM422 604l93 164h73l-124 -164h-42z" />
    <glyph glyph-name="uni0400" unicode="&#x400;" horiz-adv-x="518" 
d="M275 904h63l84 -134h-42zM51 0l151 714h343l-10 -49h-287l-58 -272h278l-10 -49h-278l-62 -295h314l-11 -49h-370z" />
    <glyph glyph-name="uni0401" unicode="&#x401;" horiz-adv-x="518" 
d="M285 876h59l-16 -73h-59zM458 876h59l-16 -73h-59zM51 0l151 714h343l-10 -49h-287l-58 -272h278l-10 -49h-278l-62 -295h314l-11 -49h-370z" />
    <glyph glyph-name="uni0402" unicode="&#x402;" horiz-adv-x="729" 
d="M411 -6q-37 0 -65 6l10 49q23 -5 52 -5q89 0 151.5 48t62.5 143q0 71 -47 105t-115 34q-78 0 -164 -32l-72 -342h-57l141 665h-215l10 49h481l-11 -49h-209l-57 -269q88 27 160 27q98 0 155.5 -48.5t57.5 -136.5q0 -115 -77 -179.5t-192 -64.5z" />
    <glyph glyph-name="uni0403" unicode="&#x403;" horiz-adv-x="481" 
d="M51 0l151 714h368l-11 -49h-311l-141 -665h-56zM451 903h67l-136 -134h-45z" />
    <glyph glyph-name="uni0404" unicode="&#x404;" horiz-adv-x="568" 
d="M354 -12q-136 0 -204.5 79t-68.5 205q0 84 25 163.5t73 145t126 105.5t175 40q78 0 136 -23l-17 -47q-55 21 -123 21q-86 0 -154.5 -41t-109 -103t-59.5 -140h275l-10 -49h-275q-4 -31 -4 -69q0 -106 55.5 -172t170.5 -66q73 0 131 22v-50q-65 -21 -142 -21z" />
    <glyph glyph-name="uni0405" unicode="&#x405;" horiz-adv-x="518" 
d="M522 697l-15 -49q-64 29 -141 29q-70 0 -120.5 -32.5t-50.5 -101.5q0 -46 24.5 -76.5t89.5 -77.5q76 -55 109.5 -99.5t33.5 -108.5q0 -97 -67 -145t-170 -48q-109 0 -192 44l17 49q85 -44 176 -44q80 0 129.5 34.5t49.5 103.5q0 50 -30 88.5t-97 84.5q-68 47 -99 88.5
t-31 102.5q0 64 35 108t84.5 61.5t109.5 17.5q85 0 155 -29z" />
    <glyph glyph-name="uni0406" unicode="&#x406;" horiz-adv-x="248" 
d="M51 0l151 714h56l-151 -714h-56z" />
    <glyph glyph-name="uni0407" unicode="&#x407;" horiz-adv-x="248" 
d="M146 876h59l-16 -73h-59zM319 876h59l-16 -73h-59zM51 0l151 714h56l-151 -714h-56z" />
    <glyph glyph-name="uni0408" unicode="&#x408;" horiz-adv-x="309" 
d="M326 714l-122 -576q-15 -73 -52.5 -111.5t-116.5 -38.5q-38 0 -67 6l8 50q27 -7 59 -7q49 0 76 25t38 79l121 573h56z" />
    <glyph glyph-name="uni0409" unicode="&#x409;" horiz-adv-x="1029" 
d="M11 -3q-25 0 -46 3l11 48q16 -3 33 -3q90 0 145 101q48 87 109 342q9 40 29 128l23 98h384l-66 -311h139q91 0 149.5 -44t58.5 -132q0 -112 -79.5 -169.5t-201.5 -57.5h-208l141 665h-275q-73 -326 -107 -428q-55 -164 -134 -213q-45 -27 -105 -27zM558 49h147
q56 0 102 14t80.5 55.5t34.5 106.5q0 68 -46 98.5t-119 30.5h-135z" />
    <glyph glyph-name="uni040A" unicode="&#x40a;" horiz-adv-x="1009" 
d="M51 0l151 714h56l-67 -317h364l67 317h57l-67 -317h143q90 0 147.5 -43.5t57.5 -129.5q0 -110 -78 -167t-198 -57h-213l74 348h-364l-74 -348h-56zM539 49h150q41 0 76 8.5t67.5 27t51 53.5t18.5 84q0 66 -45 96t-116 30h-140z" />
    <glyph glyph-name="uni040B" unicode="&#x40b;" horiz-adv-x="728" 
d="M167 0l141 665h-215l10 49h481l-11 -49h-209l-57 -272q90 30 168 30q179 0 179 -141q0 -32 -9 -74l-43 -208h-56l45 213q7 31 7 58q0 57 -36 80t-105 23q-74 0 -161 -32l-72 -342h-57z" />
    <glyph glyph-name="uni040C" unicode="&#x40c;" horiz-adv-x="554" 
d="M471 903h67l-136 -134h-45zM552 714h78l-386 -346l266 -368h-69l-256 359h-2l-76 -359h-56l151 714h56l-71 -334h2z" />
    <glyph glyph-name="uni040D" unicode="&#x40d;" horiz-adv-x="689" 
d="M51 0l151 714h56l-137 -648h2l491 648h85l-151 -714h-56l137 651h-2l-493 -651h-83zM315 904h63l84 -134h-42z" />
    <glyph glyph-name="uni040E" unicode="&#x40e;" horiz-adv-x="572" 
d="M77 0l184 245l-159 469h61l137 -420l310 420h67l-533 -714h-67zM395 773q-60 0 -90.5 27t-30.5 71q0 15 3 30h40q-2 -18 -2 -25q0 -63 82 -63q94 0 112 88h42q-26 -128 -156 -128z" />
    <glyph glyph-name="uni040F" unicode="&#x40f;" horiz-adv-x="659" 
d="M226 -174l29 174h-204l151 714h57l-141 -665h354l141 665h57l-152 -714h-205l-43 -174h-44z" />
    <glyph glyph-name="uni0410" unicode="&#x410;" horiz-adv-x="616" 
d="M159 227l-136 -227h-64l430 714h79l94 -714h-60l-29 227h-314zM421 670l-236 -393h283z" />
    <glyph glyph-name="uni0411" unicode="&#x411;" horiz-adv-x="600" 
d="M51 0l151 714h391l-11 -49h-334l-56 -265h151q91 0 149 -43.5t58 -130.5q0 -112 -79 -169t-200 -57h-220zM118 49h158q41 0 76.5 8.5t68 27t51.5 54.5t19 85q0 67 -45.5 97t-117.5 30h-147z" />
    <glyph glyph-name="uni0412" unicode="&#x412;" horiz-adv-x="602" 
d="M51 0l151 714h201q89 0 140.5 -38.5t51.5 -117.5q0 -158 -169 -190v-2q56 -10 90.5 -49.5t34.5 -97.5q0 -100 -72.5 -159.5t-196.5 -59.5h-231zM248 665l-58 -272h151q90 0 143.5 40t53.5 119q0 113 -153 113h-137zM180 344l-62 -295h165q93 0 152 41t59 127
q0 62 -44.5 94.5t-119.5 32.5h-150z" />
    <glyph glyph-name="uni0413" unicode="&#x413;" horiz-adv-x="481" 
d="M51 0l151 714h368l-11 -49h-311l-141 -665h-56z" />
    <glyph glyph-name="uni0414" unicode="&#x414;" horiz-adv-x="695" 
d="M-73 -174l47 223h65q79 84 135.5 208t100.5 334l26 123h390l-140 -665h94l-48 -223h-47l29 174h-562l-43 -174h-47zM107 49h387l130 616h-279l-20 -93q-77 -367 -218 -523z" />
    <glyph glyph-name="uni0415" unicode="&#x415;" horiz-adv-x="518" 
d="M51 0l151 714h343l-10 -49h-287l-58 -272h278l-10 -49h-278l-62 -295h314l-11 -49h-370z" />
    <glyph glyph-name="uni0416" unicode="&#x416;" horiz-adv-x="842" 
d="M-47 0l408 375l-244 339h69l235 -334h2l71 334h57l-71 -334h2l358 334h79l-382 -347l262 -367h-69l-252 359h-2l-76 -359h-57l76 359h-2l-386 -359h-78z" />
    <glyph glyph-name="uni0417" unicode="&#x417;" horiz-adv-x="523" 
d="M200 -12q-99 0 -187 44l17 49q85 -44 171 -44q88 0 146.5 45t58.5 130q0 67 -47.5 99.5t-124.5 32.5h-53l9 49h52q94 0 151.5 43t57.5 129q0 52 -36 82t-97 30q-79 0 -162 -38l-10 49q87 38 175 38q85 0 135.5 -43.5t50.5 -116.5q0 -77 -48 -129t-123 -69v-2
q58 -11 92 -52t34 -100q0 -103 -72.5 -164.5t-189.5 -61.5z" />
    <glyph glyph-name="uni0418" unicode="&#x418;" horiz-adv-x="689" 
d="M51 0l151 714h56l-137 -648h2l491 648h85l-151 -714h-56l137 651h-2l-493 -651h-83z" />
    <glyph glyph-name="uni0419" unicode="&#x419;" horiz-adv-x="689" 
d="M51 0l151 714h56l-137 -648h2l491 648h85l-151 -714h-56l137 651h-2l-493 -651h-83zM451 773q-60 0 -90.5 27t-30.5 71q0 15 3 30h40q-2 -18 -2 -25q0 -63 82 -63q94 0 112 88h42q-26 -128 -156 -128z" />
    <glyph glyph-name="uni041A" unicode="&#x41a;" horiz-adv-x="554" 
d="M552 714h78l-386 -346l266 -368h-69l-256 359h-2l-76 -359h-56l151 714h56l-71 -334h2z" />
    <glyph glyph-name="uni041B" unicode="&#x41b;" horiz-adv-x="688" 
d="M10 -3q-26 0 -45 3l10 48q17 -3 33 -3q90 0 145 100q48 87 107 341q10 40 30 128q15 65 23 100h386l-152 -714h-56l140 665h-274q-73 -326 -107 -428q-55 -164 -135 -213q-44 -27 -105 -27z" />
    <glyph glyph-name="uni041C" unicode="&#x41c;" horiz-adv-x="844" 
d="M300 714l83 -660h2l372 660h98l-151 -714h-56l142 669h-2l-376 -669h-76l-87 669h-2l-142 -669h-54l151 714h98z" />
    <glyph glyph-name="uni041D" unicode="&#x41d;" horiz-adv-x="668" 
d="M51 0l151 714h56l-68 -321h364l68 321h56l-151 -714h-56l73 344h-364l-73 -344h-56z" />
    <glyph glyph-name="uni041E" unicode="&#x41e;" horiz-adv-x="726" 
d="M700 463q0 -65 -13.5 -130.5t-43.5 -128t-72.5 -110.5t-104.5 -77t-136 -29q-121 0 -185 72t-64 193q0 90 25.5 174.5t71.5 151.5t117.5 107t157.5 40q122 0 184.5 -71.5t62.5 -191.5zM334 37q75 0 135.5 38.5t97.5 100.5t56.5 134t19.5 144q0 100 -49 161.5t-146 61.5
q-91 0 -163 -60t-109.5 -154.5t-37.5 -202.5q0 -100 49.5 -161.5t146.5 -61.5z" />
    <glyph glyph-name="uni041F" unicode="&#x41f;" horiz-adv-x="659" 
d="M51 0l151 714h467l-151 -714h-57l141 665h-354l-141 -665h-56z" />
    <glyph glyph-name="uni0420" unicode="&#x420;" horiz-adv-x="586" 
d="M51 0l151 714h191q91 0 149 -43t58 -127q0 -114 -79 -172t-200 -58h-147l-67 -314h-56zM248 665l-64 -302h142q41 0 76.5 8.5t68 27t51.5 54.5t19 85q0 67 -45.5 97t-117.5 30h-130z" />
    <glyph glyph-name="uni0421" unicode="&#x421;" horiz-adv-x="568" 
d="M495 58v-49q-64 -21 -141 -21q-136 0 -204.5 79t-68.5 205q0 116 45.5 218t138.5 169t215 67q78 0 136 -23l-17 -47q-55 21 -123 21q-104 0 -183 -61t-116.5 -151t-37.5 -190q0 -106 55.5 -172t170.5 -66q65 0 130 21z" />
    <glyph glyph-name="uni0422" unicode="&#x422;" horiz-adv-x="495" 
d="M167 0l141 665h-215l10 49h481l-11 -49h-209l-140 -665h-57z" />
    <glyph glyph-name="uni0423" unicode="&#x423;" horiz-adv-x="572" 
d="M77 0l184 245l-159 469h61l137 -420l310 420h67l-533 -714h-67z" />
    <glyph glyph-name="uni0424" unicode="&#x424;" horiz-adv-x="781" 
d="M313 -12l19 94q-125 13 -191 82.5t-66 168.5q0 140 100.5 230.5t279.5 90.5l15 72h56l-16 -76q127 -13 192.5 -83.5t65.5 -170.5q0 -145 -103.5 -231.5t-276.5 -86.5l-19 -90h-56zM343 131l101 473q-142 0 -226.5 -76t-84.5 -195q0 -78 54 -134.5t156 -67.5zM398 128
q136 2 224 72t88 196q0 79 -53 136.5t-158 68.5z" />
    <glyph glyph-name="uni0425" unicode="&#x425;" horiz-adv-x="585" 
d="M-33 0l325 374l-152 340h64l130 -300l257 300h71l-301 -346l165 -368h-65l-142 325l-282 -325h-70z" />
    <glyph glyph-name="uni0426" unicode="&#x426;" horiz-adv-x="674" 
d="M528 -174l30 174h-507l151 714h57l-141 -665h354l141 665h57l-141 -665h95l-48 -223h-48z" />
    <glyph glyph-name="uni0427" unicode="&#x427;" horiz-adv-x="602" 
d="M405 0l66 316q-88 -25 -166 -25q-83 0 -129.5 30t-46.5 111q0 34 9 77l43 205h56l-45 -213q-7 -32 -7 -59q0 -57 34.5 -79.5t102.5 -22.5q85 0 160 26l74 348h57l-151 -714h-57z" />
    <glyph glyph-name="uni0428" unicode="&#x428;" horiz-adv-x="949" 
d="M51 0l151 714h56l-140 -665h293l141 665h57l-141 -665h294l141 665h56l-151 -714h-757z" />
    <glyph glyph-name="uni0429" unicode="&#x429;" horiz-adv-x="964" 
d="M818 -174l30 174h-797l151 714h57l-141 -665h294l141 665h56l-140 -665h294l140 665h57l-141 -665h95l-48 -223h-48z" />
    <glyph glyph-name="uni042A" unicode="&#x42a;" horiz-adv-x="665" 
d="M127 0l140 665h-174l10 49h232l-66 -311h139q91 0 149.5 -44t58.5 -132q0 -112 -79.5 -169.5t-201.5 -57.5h-208zM194 49h147q41 0 77.5 8.5t69 27.5t51.5 55t19 85q0 68 -46 98.5t-119 30.5h-134z" />
    <glyph glyph-name="uni042B" unicode="&#x42b;" horiz-adv-x="784" 
d="M51 0l151 714h56l-65 -311h139q91 0 149.5 -44t58.5 -132q0 -112 -79.5 -169.5t-201.5 -57.5h-208zM118 49h147q56 0 102 14t80.5 55.5t34.5 106.5q0 68 -46 98.5t-119 30.5h-135zM586 0l151 714h57l-151 -714h-57z" />
    <glyph glyph-name="uni042C" unicode="&#x42c;" horiz-adv-x="589" 
d="M51 0l151 714h56l-65 -311h139q91 0 149.5 -44t58.5 -132q0 -112 -79.5 -169.5t-201.5 -57.5h-208zM118 49h147q56 0 102 14t80.5 55.5t34.5 106.5q0 68 -46 98.5t-119 30.5h-135z" />
    <glyph glyph-name="uni042D" unicode="&#x42d;" horiz-adv-x="568" 
d="M150 -12q-82 0 -144 23l17 48q53 -22 131 -22q130 0 212.5 88.5t108.5 218.5h-276l10 49h273q3 26 3 50q0 105 -51 169t-154 64q-68 0 -137 -27l-7 48q75 29 154 29q125 0 188.5 -78t63.5 -203q0 -84 -23.5 -163t-69 -146t-123 -107.5t-176.5 -40.5z" />
    <glyph glyph-name="uni042E" unicode="&#x42e;" horiz-adv-x="934" 
d="M547 -12q-117 0 -177.5 70t-60.5 188q0 40 7 98h-133l-73 -344h-58l151 714h58l-68 -321h133q34 144 124 238.5t223 94.5q116 0 175.5 -69.5t59.5 -186.5q0 -82 -21.5 -164t-63.5 -154.5t-114 -118t-162 -45.5zM551 37q73 0 132.5 40t95 104t54 136.5t18.5 143.5
q0 97 -46 156.5t-137 59.5t-162 -64.5t-105.5 -160t-34.5 -199.5q0 -98 46.5 -157t138.5 -59z" />
    <glyph glyph-name="uni042F" unicode="&#x42f;" horiz-adv-x="592" 
d="M-14 0l275 319q-64 14 -102.5 56t-38.5 112q0 112 79.5 169.5t201.5 57.5h201l-151 -714h-56l65 311h-136l-263 -311h-75zM343 360h128l64 305h-140q-56 0 -102 -14t-80.5 -55.5t-34.5 -106.5q0 -68 46 -98.5t119 -30.5z" />
    <glyph glyph-name="uni0430" unicode="&#x430;" horiz-adv-x="530" 
d="M414 321q10 43 10 68q0 105 -123 105q-64 0 -137 -22l-2 45q71 23 142 23q82 0 128.5 -37t46.5 -108q0 -28 -8 -65l-44 -204q-14 -66 -16 -126h-47q0 41 11 98h-2q-57 -110 -184 -110q-64 0 -104.5 37.5t-40.5 102.5q0 73 49 117t127 60t194 16zM405 278h-27
q-280 0 -280 -147q0 -45 28.5 -71.5t74.5 -26.5q154 0 197 211z" />
    <glyph glyph-name="uni0431" unicode="&#x431;" horiz-adv-x="575" 
d="M255 -12q-88 0 -136 55.5t-48 144.5q0 109 44.5 256.5t116.5 202.5q38 30 93.5 44.5t142.5 25t124 17.5l7 -48q-20 -5 -136 -20.5t-169 -38.5q-88 -38 -139 -223h2q32 58 84 91t112 33q89 0 132.5 -53.5t43.5 -146.5q0 -137 -76 -238.5t-198 -101.5zM263 34
q93 0 151.5 88.5t58.5 204.5q0 70 -32 113t-97 43q-93 0 -155 -87t-62 -203q0 -74 35.5 -116.5t100.5 -42.5z" />
    <glyph glyph-name="uni0432" unicode="&#x432;" horiz-adv-x="527" 
d="M44 0l112 528h194q66 0 104.5 -28.5t38.5 -88.5q0 -112 -123 -137v-1q41 -8 66 -38t25 -73q0 -74 -54.5 -118t-146.5 -44h-216zM110 46h146q67 0 108 28.5t41 88.5q0 43 -31.5 66t-83.5 23h-137zM163 298h147q61 0 96.5 26.5t35.5 81.5q0 76 -102 76h-138z" />
    <glyph glyph-name="uni0433" unicode="&#x433;" horiz-adv-x="409" 
d="M44 0l112 528h303l-10 -46h-247l-102 -482h-56z" />
    <glyph glyph-name="uni0434" unicode="&#x434;" horiz-adv-x="596" 
d="M-67 -158l43 204h63q59 66 99.5 149t69.5 225l22 108h328l-102 -482h84l-44 -204h-44l27 158h-462l-40 -158h-44zM102 46h299l91 436h-218l-13 -63q-49 -254 -159 -373z" />
    <glyph glyph-name="uni0435" unicode="&#x435;" horiz-adv-x="541" 
d="M497 251h-374q-3 -18 -3 -47q0 -76 43 -123.5t130 -47.5q62 0 118 18v-44q-57 -19 -126 -19q-109 0 -165 58.5t-56 153.5q0 136 76.5 238t198.5 102q86 0 130 -47t44 -129q0 -40 -16 -113zM454 298q8 38 8 63q0 62 -31.5 97.5t-96.5 35.5q-78 0 -131 -56.5t-73 -139.5
h324z" />
    <glyph glyph-name="uni0436" unicode="&#x436;" horiz-adv-x="685" 
d="M-46 0l313 278l-187 250h65l180 -244h2l52 244h56l-52 -244h2l270 244h73l-290 -254l208 -274h-68l-197 266h-2l-56 -266h-56l57 266h-2l-295 -266h-73z" />
    <glyph glyph-name="uni0437" unicode="&#x437;" horiz-adv-x="431" 
d="M156 -12q-95 0 -161 34l18 46q59 -34 140 -34q69 0 114 34.5t45 92.5q0 91 -130 91h-44l9 46h44q63 0 106 30t43 85q0 39 -29 60t-77 21q-71 0 -133 -30l-12 43q66 33 155 33q69 0 109 -33t40 -90q0 -53 -33.5 -89t-84.5 -51v-2q40 -9 65.5 -38t25.5 -75q0 -82 -62 -128
t-148 -46z" />
    <glyph glyph-name="uni0438" unicode="&#x438;" horiz-adv-x="597" 
d="M44 0l112 528h56l-99 -466h2l374 466h82l-112 -528h-56l99 468h-2l-376 -468h-80z" />
    <glyph glyph-name="uni0439" unicode="&#x439;" horiz-adv-x="597" 
d="M44 0l112 528h56l-99 -466h2l374 466h82l-112 -528h-56l99 468h-2l-376 -468h-80zM366 614q-60 0 -90.5 26.5t-30.5 71.5q0 14 3 30h41q-2 -9 -2 -25q0 -63 81 -63q94 0 112 88h42q-26 -128 -156 -128z" />
    <glyph glyph-name="uni043A" unicode="&#x43a;" horiz-adv-x="470" 
d="M44 0l112 528h56l-52 -242h2l278 242h73l-299 -254l216 -274h-67l-205 264h-2l-56 -264h-56z" />
    <glyph glyph-name="uni043B" unicode="&#x43b;" horiz-adv-x="581" 
d="M7 -4q-21 0 -45 4l10 46q27 -3 31 -3q80 0 123.5 100.5t104.5 384.5h324l-112 -528h-55l101 482h-215q-16 -74 -26 -117t-24 -98t-25 -85.5t-26.5 -66.5t-31 -54t-36.5 -35t-45 -23.5t-53 -6.5z" />
    <glyph glyph-name="uni043C" unicode="&#x43c;" horiz-adv-x="719" 
d="M44 0l112 528h89l73 -479h2l279 479h94l-112 -528h-55l102 482h-2l-281 -482h-69l-74 482h-1l-102 -482h-55z" />
    <glyph glyph-name="uni043D" unicode="&#x43d;" horiz-adv-x="581" 
d="M44 0l112 528h56l-49 -230h287l49 230h56l-112 -528h-56l54 252h-287l-54 -252h-56z" />
    <glyph glyph-name="uni043E" unicode="&#x43e;" horiz-adv-x="572" 
d="M529 338q0 -44 -9.5 -91t-31.5 -93.5t-52.5 -83t-77.5 -59.5t-103 -23q-95 0 -143.5 56.5t-48.5 149.5q0 144 76 245t195 101q95 0 145 -55t50 -147zM257 34q69 0 120.5 51t73.5 117.5t22 132.5q0 72 -35 115.5t-105 43.5q-67 0 -117 -44.5t-73.5 -110.5t-23.5 -142
q0 -72 34 -117.5t104 -45.5z" />
    <glyph glyph-name="uni043F" unicode="&#x43f;" horiz-adv-x="575" 
d="M44 0l112 528h393l-112 -528h-56l102 482h-281l-102 -482h-56z" />
    <glyph glyph-name="uni0440" unicode="&#x440;" horiz-adv-x="584" 
d="M120 101l-63 -296h-55l154 723h55l-21 -97h2q26 47 71 78t102 31q92 0 135.5 -61t43.5 -149q0 -142 -73.5 -242t-189.5 -100q-67 0 -106.5 32t-52.5 81h-2zM282 34q66 0 115 49t70 114t21 132q0 71 -33 118t-99 47q-94 0 -153 -93.5t-59 -210.5q0 -71 36 -113.5
t102 -42.5z" />
    <glyph glyph-name="uni0441" unicode="&#x441;" horiz-adv-x="438" 
d="M454 525l-15 -46q-37 15 -87 15q-104 0 -169 -86.5t-65 -200.5q0 -77 38.5 -125.5t117.5 -48.5q52 0 98 15v-44q-53 -16 -103 -16q-102 0 -154.5 60t-52.5 154q0 137 81 237.5t211 100.5q60 0 100 -15z" />
    <glyph glyph-name="uni0442" unicode="&#x442;" horiz-adv-x="421" 
d="M133 0l102 482h-173l10 46h399l-11 -46h-169l-102 -482h-56z" />
    <glyph glyph-name="uni0443" unicode="&#x443;" horiz-adv-x="474" 
d="M141 528l41 -459h2l286 459h63l-467 -723h-61l130 199l-50 524h56z" />
    <glyph glyph-name="uni0444" unicode="&#x444;" horiz-adv-x="697" 
d="M233 -195l40 191q-98 8 -155.5 65.5t-57.5 152.5q0 147 93.5 233t234.5 88l43 200h55l-43 -202q98 -9 155.5 -67t57.5 -152q0 -147 -94 -232.5t-234 -87.5l-40 -189h-55zM283 40l95 449q-114 -2 -188 -77.5t-74 -197.5q0 -76 44.5 -122t122.5 -52zM338 39q114 2 188 77.5
t74 197.5q0 75 -44.5 121t-122.5 53z" />
    <glyph glyph-name="uni0445" unicode="&#x445;" horiz-adv-x="471" 
d="M29 0h-67l251 277l-117 251h62l98 -218l192 218h69l-234 -257l128 -271h-62l-109 236z" />
    <glyph glyph-name="uni0446" unicode="&#x446;" horiz-adv-x="587" 
d="M442 -158l27 158h-425l112 528h56l-102 -482h281l102 482h56l-102 -482h83l-44 -204h-44z" />
    <glyph glyph-name="uni0447" unicode="&#x447;" horiz-adv-x="521" 
d="M327 0l48 224q-78 -26 -152 -26q-141 0 -141 112q0 28 7 57l34 161h56l-34 -157q-6 -29 -6 -51q0 -41 24.5 -58.5t82.5 -17.5q32 0 75 9.5t63 17.5l55 257h56l-112 -528h-56z" />
    <glyph glyph-name="uni0448" unicode="&#x448;" horiz-adv-x="840" 
d="M44 0l112 528h56l-102 -482h245l102 482h56l-102 -482h245l102 482h56l-112 -528h-658z" />
    <glyph glyph-name="uni0449" unicode="&#x449;" horiz-adv-x="852" 
d="M708 -158l27 158h-691l112 528h56l-102 -482h245l102 482h56l-102 -482h245l102 482h56l-102 -482h85l-45 -204h-44z" />
    <glyph glyph-name="uni044A" unicode="&#x44a;" horiz-adv-x="563" 
d="M103 0l102 482h-143l10 46h199l-46 -215h128q73 0 119 -33.5t46 -102.5q0 -88 -61.5 -132.5t-156.5 -44.5h-197zM169 46h134q65 0 111.5 29.5t46.5 98.5q0 49 -33.5 71t-86.5 22h-125z" />
    <glyph glyph-name="uni044B" unicode="&#x44b;" horiz-adv-x="688" 
d="M44 0l112 528h56l-46 -215h121q73 0 118.5 -33.5t45.5 -102.5q0 -88 -61 -132.5t-156 -44.5h-190zM110 46h127q65 0 111 29.5t46 98.5q0 93 -120 93h-118zM495 0l112 528h55l-112 -528h-55z" />
    <glyph glyph-name="uni044C" unicode="&#x44c;" horiz-adv-x="505" 
d="M44 0l112 528h56l-46 -215h129q73 0 118.5 -33.5t45.5 -102.5q0 -88 -61 -132.5t-156 -44.5h-198zM110 46h134q65 0 111.5 29.5t46.5 98.5q0 49 -33.5 71t-86.5 22h-126z" />
    <glyph glyph-name="uni044D" unicode="&#x44d;" horiz-adv-x="440" 
d="M107 -12q-60 0 -108 16l16 46q40 -16 95 -16q86 0 146 62t78 156h-200l10 46h196q1 7 1 25q0 171 -145 171q-48 0 -95 -15l-7 44q51 17 109 17q99 0 146.5 -60t47.5 -155q0 -139 -80 -238t-210 -99z" />
    <glyph glyph-name="uni044E" unicode="&#x44e;" horiz-adv-x="754" 
d="M443 -12q-90 0 -138.5 56.5t-48.5 149.5q0 33 4 58h-107l-53 -252h-56l112 528h56l-49 -230h105q25 107 93.5 174.5t160.5 67.5q90 0 139.5 -55t49.5 -147q0 -55 -16 -113.5t-46.5 -113t-84 -89t-121.5 -34.5zM445 34q67 0 116.5 51t71.5 117.5t22 132.5
q0 72 -33.5 115.5t-101.5 43.5q-95 0 -151.5 -89.5t-56.5 -207.5q0 -72 33.5 -117.5t99.5 -45.5z" />
    <glyph glyph-name="uni044F" unicode="&#x44f;" horiz-adv-x="529" 
d="M-2 0l197 218q-102 28 -102 130q0 88 63 134t161 46h186l-112 -528h-56l44 210h-85q-27 0 -40 1l-185 -211h-71zM271 256h118l48 226h-128q-65 0 -112.5 -31t-47.5 -100q0 -50 34 -72.5t88 -22.5z" />
    <glyph glyph-name="uni0450" unicode="&#x450;" horiz-adv-x="541" 
d="M350 604l-98 164h60l78 -164h-40zM497 251h-374q-3 -18 -3 -47q0 -76 43 -123.5t130 -47.5q62 0 118 18v-44q-57 -19 -126 -19q-109 0 -165 58.5t-56 153.5q0 136 76.5 238t198.5 102q86 0 130 -47t44 -129q0 -40 -16 -113zM454 298q8 38 8 63q0 62 -31.5 97.5
t-96.5 35.5q-78 0 -131 -56.5t-73 -139.5h324z" />
    <glyph glyph-name="uni0451" unicode="&#x451;" horiz-adv-x="541" 
d="M269 714h59l-16 -73h-59zM442 714h59l-16 -73h-59zM497 251h-374q-3 -18 -3 -47q0 -76 43 -123.5t130 -47.5q62 0 118 18v-44q-57 -19 -126 -19q-109 0 -165 58.5t-56 153.5q0 136 76.5 238t198.5 102q86 0 130 -47t44 -129q0 -40 -16 -113zM454 298q8 38 8 63
q0 62 -31.5 97.5t-96.5 35.5q-78 0 -131 -56.5t-73 -139.5h324z" />
    <glyph glyph-name="uni0452" unicode="&#x452;" horiz-adv-x="574" 
d="M265 -195q-38 0 -72 10l11 43q28 -9 60 -9q53 0 80 30.5t42 99.5l69 330q10 44 10 70q0 45 -27.5 74t-82.5 29q-69 0 -122.5 -51.5t-73.5 -146.5l-59 -284h-56l124 586h-101l10 46h101l22 103h56l-23 -103h151l-10 -46h-151l-36 -169h2q28 52 76 81.5t102 29.5
q74 0 113.5 -39t39.5 -104q0 -27 -9 -72l-72 -344q-16 -80 -56 -122t-118 -42z" />
    <glyph glyph-name="uni0453" unicode="&#x453;" horiz-adv-x="409" 
d="M44 0l112 528h303l-10 -46h-247l-102 -482h-56zM452 768l-151 -164h-44l132 164h63z" />
    <glyph glyph-name="uni0454" unicode="&#x454;" horiz-adv-x="440" 
d="M269 -12q-103 0 -155 60.5t-52 157.5q0 87 34.5 162.5t102.5 123.5t155 48q61 0 102 -16l-15 -45q-38 15 -90 15q-82 0 -142 -57t-80 -139h208l-11 -46h-205q-3 -22 -3 -45q0 -77 38.5 -125.5t117.5 -48.5q54 0 100 15l1 -43q-53 -17 -106 -17z" />
    <glyph glyph-name="uni0455" unicode="&#x455;" horiz-adv-x="403" 
d="M395 515l-15 -45q-55 24 -113 24q-52 0 -89.5 -21.5t-37.5 -70.5q0 -33 20.5 -56.5t64.5 -53.5q56 -38 85.5 -75t29.5 -85q0 -74 -50.5 -109t-133.5 -35q-84 0 -158 36l17 45q72 -35 141 -35q60 0 95.5 23t35.5 70q0 37 -23.5 65t-72.5 61q-54 37 -79 68.5t-25 77.5
q0 71 53.5 106t126.5 35q69 0 128 -25z" />
    <glyph glyph-name="uni0456" unicode="&#x456;" horiz-adv-x="236" 
d="M156 528h56l-112 -528h-56zM193 727h63l-15 -69h-63z" />
    <glyph glyph-name="uni0457" unicode="&#x457;" horiz-adv-x="236" 
d="M156 528h56l-112 -528h-56zM106 714h59l-16 -73h-59zM279 714h59l-16 -73h-59z" />
    <glyph glyph-name="uni0458" unicode="&#x458;" horiz-adv-x="236" 
d="M215 528l-121 -571q-16 -77 -51.5 -114.5t-109.5 -37.5q-25 0 -48 4l8 45q20 -3 40 -3q49 0 71 28t35 86l120 563h56zM196 727h63l-15 -69h-63z" />
    <glyph glyph-name="uni0459" unicode="&#x459;" horiz-adv-x="848" 
d="M7 -4q-21 0 -45 4l10 46q27 -3 31 -3q80 0 123.5 100.5t104.5 384.5h324l-45 -213h127q74 0 119.5 -33.5t45.5 -103.5q0 -88 -61.5 -133t-156.5 -45h-196l101 482h-215q-16 -74 -26 -117t-24 -98t-25 -85.5t-26.5 -66.5t-31 -54t-36.5 -35t-45 -23.5t-53 -6.5zM453 46
h134q41 0 74.5 10t59 40.5t25.5 78.5q0 50 -33.5 72t-87.5 22h-125z" />
    <glyph glyph-name="uni045A" unicode="&#x45a;" horiz-adv-x="848" 
d="M44 0l112 528h56l-48 -228h287l48 228h56l-49 -228h138q70 0 114 -32t44 -98q0 -84 -59 -127t-150 -43h-206l54 254h-287l-54 -254h-56zM452 46h144q62 0 105.5 27.5t43.5 92.5q0 88 -113 88h-136z" />
    <glyph glyph-name="uni045B" unicode="&#x45b;" horiz-adv-x="574" 
d="M44 0l124 586h-101l10 46h101l22 103h56l-23 -103h151l-10 -46h-151l-36 -169h2q28 52 76 81.5t102 29.5q74 0 113.5 -39t39.5 -104q0 -27 -9 -72l-65 -313h-56l65 309q10 44 10 70q0 45 -27.5 74t-82.5 29q-69 0 -122.5 -51.5t-73.5 -146.5l-59 -284h-56z" />
    <glyph glyph-name="uni045C" unicode="&#x45c;" horiz-adv-x="470" 
d="M44 0l112 528h56l-52 -242h2l278 242h73l-299 -254l216 -274h-67l-205 264h-2l-56 -264h-56zM482 768l-151 -164h-44l132 164h63z" />
    <glyph glyph-name="uni045D" unicode="&#x45d;" horiz-adv-x="597" 
d="M44 0l112 528h56l-99 -466h2l374 466h82l-112 -528h-56l99 468h-2l-376 -468h-80zM357 604l-98 164h60l78 -164h-40z" />
    <glyph glyph-name="uni045E" unicode="&#x45e;" horiz-adv-x="474" 
d="M316 614q-60 0 -90.5 26.5t-30.5 71.5q0 14 3 30h41q-2 -9 -2 -25q0 -63 81 -63q94 0 112 88h42q-26 -128 -156 -128zM141 528l41 -459h2l286 459h63l-467 -723h-61l130 199l-50 524h56z" />
    <glyph glyph-name="uni045F" unicode="&#x45f;" horiz-adv-x="575" 
d="M185 -158l27 158h-168l112 528h56l-102 -482h281l102 482h56l-112 -528h-169l-42 -158h-41z" />
    <glyph glyph-name="uni0490" unicode="&#x490;" horiz-adv-x="481" 
d="M51 0l151 714h315l40 148h45l-43 -197h-311l-141 -665h-56z" />
    <glyph glyph-name="uni0491" unicode="&#x491;" horiz-adv-x="409" 
d="M44 0l112 528h252l35 135h45l-39 -181h-247l-102 -482h-56z" />
    <glyph glyph-name="Wgrave" unicode="&#x1e80;" horiz-adv-x="913" 
d="M563 0l-8 668h-2l-309 -668h-85l-18 714h59l11 -660h2l304 660h91l7 -660h2l310 660h62l-341 -714h-85zM456 904h63l84 -134h-42z" />
    <glyph glyph-name="wgrave" unicode="&#x1e81;" horiz-adv-x="779" 
d="M449 0l-5 479h-2l-259 -479h-76l-12 528h56l4 -479h2l259 479h78l4 -479h2l262 479h62l-299 -528h-76zM461 604l-98 164h60l78 -164h-40z" />
    <glyph glyph-name="Wacute" unicode="&#x1e82;" horiz-adv-x="913" 
d="M563 0l-8 668h-2l-309 -668h-85l-18 714h59l11 -660h2l304 660h91l7 -660h2l310 660h62l-341 -714h-85zM659 903h67l-136 -134h-45z" />
    <glyph glyph-name="wacute" unicode="&#x1e83;" horiz-adv-x="779" 
d="M449 0l-5 479h-2l-259 -479h-76l-12 528h56l4 -479h2l259 479h78l4 -479h2l262 479h62l-299 -528h-76zM640 768l-151 -164h-44l132 164h63z" />
    <glyph glyph-name="Wdieresis" unicode="&#x1e84;" horiz-adv-x="913" 
d="M563 0l-8 668h-2l-309 -668h-85l-18 714h59l11 -660h2l304 660h91l7 -660h2l310 660h62l-341 -714h-85zM482 876h59l-16 -73h-59zM655 876h59l-16 -73h-59z" />
    <glyph glyph-name="wdieresis" unicode="&#x1e85;" horiz-adv-x="779" 
d="M449 0l-5 479h-2l-259 -479h-76l-12 528h56l4 -479h2l259 479h78l4 -479h2l262 479h62l-299 -528h-76zM380 715h59l-16 -73h-59zM553 715h59l-16 -73h-59z" />
    <glyph glyph-name="Ygrave" unicode="&#x1ef2;" horiz-adv-x="532" 
d="M185 0l62 295l-145 419h62l120 -367l288 367h67l-336 -419l-62 -295h-56zM265 904h63l84 -134h-42z" />
    <glyph glyph-name="ygrave" unicode="&#x1ef3;" horiz-adv-x="474" 
d="M141 528l41 -459h2l286 459h63l-467 -723h-61l130 199l-50 524h56zM306 604l-98 164h60l78 -164h-40z" />
    <glyph glyph-name="uni2010" unicode="&#x2010;" horiz-adv-x="380" 
d="M86 277l10 48h232l-10 -48h-232z" />
    <glyph glyph-name="endash" unicode="&#x2013;" horiz-adv-x="446" 
d="M40 280l8 40h392l-9 -40h-391z" />
    <glyph glyph-name="emdash" unicode="&#x2014;" horiz-adv-x="698" 
d="M40 280l8 40h644l-8 -40h-644z" />
    <glyph glyph-name="afii00208" unicode="&#x2015;" horiz-adv-x="698" 
d="M40 280l8 40h644l-8 -40h-644z" />
    <glyph glyph-name="quoteleft" unicode="&#x2018;" horiz-adv-x="271" 
d="M303 735l-95 -211h-63l118 211h40z" />
    <glyph glyph-name="quoteright" unicode="&#x2019;" horiz-adv-x="271" 
d="M144 523l95 212h64l-118 -212h-41z" />
    <glyph glyph-name="quotesinglbase" unicode="&#x201a;" horiz-adv-x="271" 
d="M5 -130l95 210h63l-118 -210h-40z" />
    <glyph glyph-name="quotedblleft" unicode="&#x201c;" horiz-adv-x="399" 
d="M431 735l-95 -212h-61l117 212h39zM303 735l-98 -212h-61l120 212h39z" />
    <glyph glyph-name="quotedblright" unicode="&#x201d;" horiz-adv-x="399" 
d="M145 524l94 211h62l-116 -211h-40zM273 524l97 211h61l-119 -211h-39z" />
    <glyph glyph-name="quotedblbase" unicode="&#x201e;" horiz-adv-x="399" 
d="M5 -130l94 210h62l-116 -210h-40zM133 -130l97 210h61l-119 -210h-39z" />
    <glyph glyph-name="dagger" unicode="&#x2020;" horiz-adv-x="510" 
d="M378 668l-43 -202h196l-11 -50h-195l-116 -542h-53l115 542h-196l10 50h197l43 202h53z" />
    <glyph glyph-name="daggerdbl" unicode="&#x2021;" horiz-adv-x="510" 
d="M378 668l-41 -191h187l-11 -50h-186l-67 -313h187l-10 -50h-188l-40 -190h-53l40 190h-187l10 50h188l66 313h-188l11 50h188l41 191h53z" />
    <glyph glyph-name="bullet" unicode="&#x2022;" horiz-adv-x="465" 
d="M91 329q0 68 48 116.5t116 48.5q69 0 117 -48.5t48 -116.5t-48 -116t-117 -48q-68 0 -116 48t-48 116z" />
    <glyph glyph-name="ellipsis" unicode="&#x2026;" horiz-adv-x="792" 
d="M54 0l17 81h74l-16 -81h-75zM318 0l17 81h74l-16 -81h-75zM582 0l17 81h74l-16 -81h-75z" />
    <glyph glyph-name="perthousand" unicode="&#x2030;" horiz-adv-x="1081" 
d="M89 0l598 714h45l-597 -714h-46zM397 594q0 -55 -15.5 -106t-54.5 -89.5t-94 -38.5q-50 0 -77.5 32.5t-27.5 87.5t15.5 106t54 90t94.5 39q50 0 77.5 -32.5t27.5 -88.5zM351 593q0 37 -15.5 59.5t-47.5 22.5q-39 0 -66.5 -35t-37.5 -77t-10 -82q0 -36 15.5 -58.5
t46.5 -22.5q39 0 66.5 34t38 76t10.5 83zM693 228q0 -55 -15.5 -105.5t-54.5 -89t-94 -38.5q-50 0 -77.5 32.5t-27.5 87.5t15.5 106t54 90t94.5 39q50 0 77.5 -33t27.5 -89zM647 228q0 37 -16 59.5t-47 22.5q-39 0 -66.5 -35t-37.5 -77t-10 -82q0 -36 15.5 -58.5t46.5 -22.5
q39 0 66.5 34t38 76t10.5 83zM1014 228q0 -40 -9.5 -79t-28.5 -74.5t-52 -57.5t-75 -22q-49 0 -76.5 32.5t-27.5 87.5t15 106t53.5 90t94.5 39q50 0 78 -33t28 -89zM968 228q0 37 -16 59.5t-47 22.5q-39 0 -66.5 -35t-37.5 -77t-10 -82q0 -36 15.5 -58.5t46.5 -22.5
q39 0 66.5 34t38 76t10.5 83z" />
    <glyph glyph-name="guilsinglleft" unicode="&#x2039;" horiz-adv-x="334" 
d="M313 481l-162 -185l81 -181h-51l-82 184l1 5l158 177h55z" />
    <glyph glyph-name="guilsinglright" unicode="&#x203a;" horiz-adv-x="334" 
d="M59 115l161 184l-80 182h50l82 -185l-1 -5l-158 -176h-54z" />
    <glyph glyph-name="interrobang" unicode="&#x203d;" horiz-adv-x="448" 
d="M293 553l-49 -216h2q24 28 59 55l32 24q97 73 97 156q0 51 -34.5 78t-90.5 27q-77 0 -140 -31l-9 45q74 35 159 35q75 0 123.5 -38t48.5 -110q0 -65 -35 -111.5t-110 -99.5q-64 -45 -90.5 -79.5t-38.5 -93.5l-7 -32h-51l78 391h56zM116 0l16 78h74l-16 -78h-74z" />
    <glyph glyph-name="fraction" unicode="&#x2044;" horiz-adv-x="111" 
d="M393 714l-565 -714h-47l565 714h47z" />
    <glyph glyph-name="zero.superior" unicode="&#x2070;" 
d="M322 864q59 0 89 -38t30 -104q0 -50 -11.5 -100.5t-34 -96.5t-62.5 -75t-91 -29q-60 0 -90.5 38t-30.5 104q0 69 19.5 135t67 116t114.5 50zM319 824q-38 0 -68 -27.5t-47 -69t-25.5 -84t-8.5 -79.5q0 -103 74 -103q50 0 85.5 46.5t49 102t13.5 107.5q0 107 -73 107z" />
    <glyph glyph-name="four.superior" unicode="&#x2074;" 
d="M422 857l-61 -284h61l-9 -41h-60l-22 -104h-48l22 104h-200l9 47l244 278h64zM314 573l48 230h-1l-200 -230h153z" />
    <glyph glyph-name="five.superior" unicode="&#x2075;" 
d="M226 463q60 0 93.5 28.5t33.5 79.5q0 39 -26.5 59.5t-70.5 20.5q-39 0 -92 -11l56 217h217l-9 -42h-173l-33 -129q28 6 52 6q58 0 93.5 -30.5t35.5 -87.5q0 -74 -49 -113.5t-129 -39.5q-65 0 -114 25l16 40q48 -23 99 -23z" />
    <glyph glyph-name="six.superior" unicode="&#x2076;" 
d="M190 655h2q37 51 104 51q55 0 85 -34.5t30 -83.5q0 -71 -43.5 -119t-115.5 -48q-60 0 -92 37t-32 99q0 51 13.5 103t39.5 98.5t71.5 76t102.5 29.5q43 0 77 -14l-14 -40q-27 13 -65 13q-62 0 -102.5 -47t-60.5 -121zM282 666q-48 0 -77 -33t-29 -82q0 -37 20.5 -63
t59.5 -26q47 0 77 36t30 86q0 35 -21 58.5t-60 23.5z" />
    <glyph glyph-name="seven.superior" unicode="&#x2077;" 
d="M190 815l9 42h260l-8 -39q-169 -204 -223 -390h-50q25 92 83.5 193.5t136.5 193.5h-208z" />
    <glyph glyph-name="eight.superior" unicode="&#x2078;" 
d="M275 630q-46 0 -81 -24.5t-35 -71.5q0 -32 25.5 -52t64.5 -20q47 0 80.5 23t33.5 68q0 35 -25.5 56t-62.5 21zM314 864q52 0 87.5 -26.5t35.5 -74.5q0 -85 -93 -112l-1 -2q31 -11 50 -35.5t19 -59.5q0 -66 -47.5 -99.5t-116.5 -33.5q-60 0 -99 28t-39 80q0 49 30 80.5
t80 44.5l1 2q-27 9 -42.5 31t-15.5 52q0 59 43.5 92t107.5 33zM286 671q41 0 71.5 21.5t30.5 66.5q0 29 -22 47t-56 18q-43 0 -71 -23.5t-28 -63.5q0 -30 21.5 -48t53.5 -18z" />
    <glyph glyph-name="nine.superior" unicode="&#x2079;" 
d="M371 630h-2q-37 -51 -104 -51q-55 0 -85 34.5t-30 83.5q0 71 43.5 119t115.5 48q60 0 92 -37t32 -99q0 -51 -13.5 -103t-39.5 -98.5t-71.5 -76t-102.5 -29.5q-43 0 -77 14l14 40q27 -13 65 -13q62 0 102.5 47t60.5 121zM279 619q48 0 77 33t29 82q0 37 -20.5 63t-59.5 26
q-47 0 -77 -36t-30 -86q0 -35 21 -58.5t60 -23.5z" />
    <glyph glyph-name="zero.inferior" unicode="&#x2080;" 
d="M201 296q59 0 89 -38t30 -104q0 -50 -11.5 -100.5t-34 -96.5t-62.5 -75t-91 -29q-60 0 -90.5 38t-30.5 104q0 69 19.5 135t67 116t114.5 50zM198 256q-38 0 -68 -27.5t-47 -69t-25.5 -84t-8.5 -79.5q0 -103 74 -103q50 0 85.5 46.5t49 102t13.5 107.5q0 107 -73 107z" />
    <glyph glyph-name="one.inferior" unicode="&#x2081;" 
d="M247 289l-91 -429h-50l80 377l-99 -56l-18 36l128 72h50z" />
    <glyph glyph-name="two.inferior" unicode="&#x2082;" 
d="M259 -98l-9 -42h-270l8 45q165 126 216.5 181t51.5 102q0 30 -20 48t-53 18q-43 0 -105 -34l-12 38q59 38 124 38q53 0 84 -27.5t31 -74.5q0 -62 -50.5 -118t-202.5 -173v-1h207z" />
    <glyph glyph-name="three.inferior" unicode="&#x2083;" 
d="M79 61l8 40h50q50 0 86 24t36 67q0 30 -19.5 46t-53.5 16q-50 0 -103 -25l-10 39q59 28 118 28q55 0 86 -26t31 -71q0 -46 -26.5 -75.5t-71.5 -41.5v-2q32 -9 50 -33.5t18 -57.5q0 -66 -45.5 -101t-121.5 -35q-69 0 -119 28l18 40q49 -26 101 -26q51 0 84.5 23.5
t33.5 70.5q0 34 -26 53t-73 19h-51z" />
    <glyph glyph-name="four.inferior" unicode="&#x2084;" 
d="M301 289l-61 -284h61l-9 -41h-60l-22 -104h-48l22 104h-200l9 47l244 278h64zM193 5l48 230h-1l-200 -230h153z" />
    <glyph glyph-name="five.inferior" unicode="&#x2085;" 
d="M107 -105q60 0 93.5 28.5t33.5 79.5q0 39 -26.5 59.5t-70.5 20.5q-39 0 -92 -11l56 217h217l-9 -42h-173l-33 -129q28 6 52 6q58 0 93.5 -30.5t35.5 -87.5q0 -74 -49 -113.5t-129 -39.5q-65 0 -114 25l16 40q48 -23 99 -23z" />
    <glyph glyph-name="six.inferior" unicode="&#x2086;" 
d="M70 87h2q37 51 104 51q55 0 85 -34.5t30 -83.5q0 -71 -43.5 -119t-115.5 -48q-60 0 -92 37t-32 99q0 51 13.5 103t39.5 98.5t71.5 76t102.5 29.5q43 0 77 -14l-14 -40q-27 13 -65 13q-62 0 -102.5 -47t-60.5 -121zM162 98q-48 0 -77 -33t-29 -82q0 -37 20.5 -63t59.5 -26
q47 0 77 36t30 86q0 35 -21 58.5t-60 23.5z" />
    <glyph glyph-name="seven.inferior" unicode="&#x2087;" 
d="M69 247l9 42h260l-8 -39q-169 -204 -223 -390h-50q25 92 83.5 193.5t136.5 193.5h-208z" />
    <glyph glyph-name="eight.inferior" unicode="&#x2088;" 
d="M156 62q-46 0 -81 -24.5t-35 -71.5q0 -32 25.5 -52t64.5 -20q47 0 80.5 23t33.5 68q0 35 -25.5 56t-62.5 21zM195 296q52 0 87.5 -26.5t35.5 -74.5q0 -85 -93 -112l-1 -2q31 -11 50 -35.5t19 -59.5q0 -66 -47.5 -99.5t-116.5 -33.5q-60 0 -99 28t-39 80q0 49 30 80.5
t80 44.5l1 2q-27 9 -42.5 31t-15.5 52q0 59 43.5 92t107.5 33zM167 103q41 0 71.5 21.5t30.5 66.5q0 29 -22 47t-56 18q-43 0 -71 -23.5t-28 -63.5q0 -30 21.5 -48t53.5 -18z" />
    <glyph glyph-name="nine.inferior" unicode="&#x2089;" 
d="M251 62h-2q-37 -51 -104 -51q-55 0 -85 34.5t-30 83.5q0 71 43.5 119t115.5 48q60 0 92 -37t32 -99q0 -51 -13.5 -103t-39.5 -98.5t-71.5 -76t-102.5 -29.5q-43 0 -77 14l14 40q27 -13 65 -13q62 0 102.5 47t60.5 121zM159 51q48 0 77 33t29 82q0 37 -20.5 63t-59.5 26
q-47 0 -77 -36t-30 -86q0 -35 21 -58.5t60 -23.5z" />
    <glyph glyph-name="Euro" unicode="&#x20ac;" horiz-adv-x="664" 
d="M559 61l5 -48q-72 -25 -154 -25q-131 0 -200 79.5t-69 203.5h-87l17 40h71q5 61 21 108h-78l17 40h74q45 118 138 192.5t226 74.5q79 0 131 -22l-18 -46q-45 18 -114 18q-111 0 -189 -59.5t-116 -157.5h336l-17 -40h-333q-17 -49 -22 -108h317l-17 -40h-301
q0 -102 55.5 -168t166.5 -66q75 0 140 24z" />
    <glyph glyph-name="afii61248" unicode="&#x2105;" horiz-adv-x="756" 
d="M693 196q0 -83 -45 -145.5t-128 -62.5q-57 0 -88.5 33.5t-31.5 90.5q0 88 45.5 147.5t126.5 59.5q56 0 88.5 -33.5t32.5 -89.5zM524 26q57 0 88.5 52.5t31.5 116.5q0 39 -19 62.5t-57 23.5q-56 0 -87.5 -51t-31.5 -117q0 -40 19 -63.5t56 -23.5zM326 443v-38
q-31 -11 -69 -11q-64 0 -97 36.5t-33 93.5q0 82 50 141.5t131 59.5q35 0 68 -11l-13 -38q-30 11 -57 11q-58 0 -94 -48t-36 -112q0 -42 20.5 -68.5t63.5 -26.5q32 0 66 11zM711 714l-566 -714h-48l566 714h48z" />
    <glyph glyph-name="afii61289" unicode="&#x2113;" horiz-adv-x="403" 
d="M40 204q37 6 82 26q26 134 47.5 220.5t49 153.5t60 97t73.5 30q79 0 79 -93q0 -108 -72 -238t-183 -190q-10 -59 -10 -82q0 -52 17.5 -71.5t51.5 -19.5q29 0 62 11l-9 -45q-35 -12 -61 -12q-61 0 -89 31.5t-28 95.5q0 22 7 65q-46 -18 -87 -26zM349 687q-41 0 -80.5 -98
t-84.5 -324q87 60 142.5 174.5t55.5 201.5q0 46 -33 46z" />
    <glyph glyph-name="uni2116" unicode="&#x2116;" horiz-adv-x="984" 
d="M51 0l151 714h85l210 -654h2l139 654h55l-151 -714h-83l-212 656h-2l-139 -656h-55zM716 311l9 42h245l-9 -42h-245zM863 395q-57 0 -88.5 34.5t-31.5 91.5q0 86 46 145.5t126 59.5q58 0 90.5 -34t32.5 -91q0 -85 -47 -145.5t-128 -60.5zM867 433q57 0 89.5 51.5
t32.5 116.5q0 39 -20 63t-58 24q-55 0 -87 -50.5t-32 -115.5q0 -41 19 -65t56 -24z" />
    <glyph glyph-name="published" unicode="&#x2117;" horiz-adv-x="800" 
d="M109 356q0 -138 92 -232t232 -94q139 0 230.5 94t91.5 232t-91.5 233.5t-230.5 95.5t-231.5 -95.5t-92.5 -233.5zM67 356q0 155 104.5 261t261.5 106t260.5 -105.5t103.5 -261.5q0 -154 -103.5 -259.5t-260.5 -105.5t-261.5 105.5t-104.5 259.5zM314 137v432h144
q64 0 105.5 -29.5t41.5 -96.5q0 -69 -41.5 -101t-104.5 -32h-97v-173h-48zM362 526v-173h93q102 0 102 89q0 84 -106 84h-89z" />
    <glyph glyph-name="trademark" unicode="&#x2122;" horiz-adv-x="917" 
d="M418 714v-37h-107v-346h-43v346h-109v37h259zM831 714v-383h-39v339h-2l-115 -339h-44l-115 339h-2v-339h-40v383h70l109 -330h2l108 330h68z" />
    <glyph glyph-name="Omega" unicode="&#x2126;" horiz-adv-x="728" 
d="M445 676q-61 0 -112.5 -22t-85 -57.5t-57 -81.5t-34 -92.5t-10.5 -91.5q0 -152 140 -197l-28 -134h-225l10 50h173l12 55q-142 57 -142 225q0 53 13 106.5t41.5 106t70 93t104.5 65.5t139 25q122 0 184.5 -67t62.5 -176q0 -145 -73.5 -247t-184.5 -133l-11 -53h186
l-10 -50h-240l28 132q115 23 180 121.5t65 221.5q0 91 -49 146t-147 55z" />
    <glyph glyph-name="estimated" unicode="&#x212e;" horiz-adv-x="795" 
d="M651 126h63q-56 -63 -128 -100t-179 -37q-144 0 -246.5 90.5t-102.5 240.5q0 146 109.5 243t261.5 97q86 0 155 -29.5t111.5 -77.5t65 -107t22.5 -121v-3h-570l-8 -10v-213q86 -77 208 -77q145 0 238 104zM629 355l8 9v190q-78 73 -208 73q-138 0 -224 -81v-182l8 -9h416
z" />
    <glyph glyph-name="partialdiff" unicode="&#x2202;" horiz-adv-x="596" 
d="M466 403q-30 104 -112 180.5t-192 113.5l33 34q165 -59 255 -185.5t90 -294.5q0 -115 -63.5 -189t-171.5 -74q-103 0 -168.5 68t-65.5 178t63 179t163 69q108 0 167 -79h2zM305 439q-81 0 -130 -55.5t-49 -149.5q0 -92 51 -146t130 -54q82 0 130 58t48 150t-51.5 144.5
t-128.5 52.5z" />
    <glyph glyph-name="Delta" unicode="&#x2206;" horiz-adv-x="617" 
d="M-22 0l11 50l400 664h79l88 -665l-11 -49h-567zM52 49h444l-75 621z" />
    <glyph glyph-name="product" unicode="&#x220f;" horiz-adv-x="724" 
d="M656 714v-909h-57v860h-412v-860h-56v909h525z" />
    <glyph glyph-name="summation" unicode="&#x2211;" horiz-adv-x="627" 
d="M419 272l-293 -418h472v-49h-531v49l287 414l-278 396v50h509v-49h-444z" />
    <glyph glyph-name="minus" unicode="&#x2212;" horiz-adv-x="535" 
d="M513 293h-446v44h446v-44z" />
    <glyph glyph-name="uni2215" unicode="&#x2215;" horiz-adv-x="111" 
d="M393 714l-565 -714h-47l565 714h47z" />
    <glyph glyph-name="uni2219" unicode="&#x2219;" horiz-adv-x="264" 
d="M104 263l18 80h75l-18 -80h-75z" />
    <glyph glyph-name="radical" unicode="&#x221a;" horiz-adv-x="596" 
d="M246 213l96 -350h2l201 851h50l-223 -909h-57l-107 366h-136v42h174z" />
    <glyph glyph-name="infinity" unicode="&#x221e;" horiz-adv-x="835" 
d="M399 243q-58 145 -164 145q-57 0 -93 -41.5t-36 -107.5q0 -64 36.5 -105.5t94.5 -41.5q109 0 162 151zM418 192q-61 -150 -186 -150q-76 0 -125.5 55t-49.5 144q0 87 50 142t127 55q129 0 196 -149q62 149 185 149q77 0 126.5 -55.5t49.5 -143.5q0 -87 -50 -142t-128 -55
q-130 0 -195 150zM448 238q57 -146 164 -146q57 0 93.5 42t36.5 107q0 64 -37 105.5t-94 41.5q-109 0 -163 -150z" />
    <glyph glyph-name="integral" unicode="&#x222b;" horiz-adv-x="316" 
d="M147 -50v614q0 150 121 150q36 0 63 -10l-8 -48q-21 9 -48 9q-38 0 -55 -25.5t-17 -77.5v-612q0 -145 -125 -145q-33 0 -57 9l6 49q21 -9 48 -9q38 0 55 23t17 73z" />
    <glyph glyph-name="approxequal" unicode="&#x2248;" horiz-adv-x="535" 
d="M513 441v-49q-49 -43 -121 -43q-43 0 -108 31t-104 31q-58 0 -113 -48v49q49 43 121 43q43 0 108 -31t104 -31q58 0 113 48zM513 261v-49q-49 -43 -121 -43q-43 0 -108 31t-104 31q-58 0 -113 -48v49q49 43 121 43q43 0 108 -31t104 -31q58 0 113 48z" />
    <glyph glyph-name="notequal" unicode="&#x2260;" horiz-adv-x="535" 
d="M513 384h-161l-73 -137h234v-44h-258l-83 -157h-51l83 157h-137v44h161l74 137h-235v44h258l85 157h50l-85 -157h138v-44z" />
    <glyph glyph-name="lessequal" unicode="&#x2264;" horiz-adv-x="535" 
d="M513 176l-446 155v63l446 155v-47l-402 -138v-2l402 -140v-46zM513 81h-446v44h446v-44z" />
    <glyph glyph-name="greaterequal" unicode="&#x2265;" horiz-adv-x="535" 
d="M513 331l-446 -155v46l401 140v2l-401 138v47l446 -155v-63zM513 81h-446v44h446v-44z" />
    <glyph glyph-name="lozenge" unicode="&#x25ca;" horiz-adv-x="445" 
d="M437 324l-165 -324h-52l-165 324l165 324h51zM245 604l-139 -280l140 -280h2l138 280l-139 280h-2z" />
    <glyph glyph-name="f_i" unicode="&#xf001;" horiz-adv-x="545" 
d="M553 723l-13 -45q-60 11 -128 11q-77 0 -115.5 -29t-52.5 -98l-7 -34h283l-112 -528h-56l102 482h-226l-102 -482h-54l102 482h-116l11 46h114l9 42q18 86 70 125.5t157 39.5q68 0 134 -12z" />
    <glyph glyph-name="f_l" unicode="&#xf002;" horiz-adv-x="545" 
d="M413 689q-78 0 -116.5 -29t-52.5 -98l-7 -34h136l-11 -46h-134l-102 -482h-54l102 482h-116l11 46h114l9 42q18 86 70 125.5t157 39.5q80 0 142 -14l-153 -721h-56l145 683q-38 6 -84 6z" />
    <glyph glyph-name="uniF8FF" unicode="&#xf8ff;" horiz-adv-x="512" 
d="M310 117h-56v67h56v-67zM303 234h-46l-2 17q0 56 13 81q15 28 46 59q31 29 40.5 46t9.5 37q0 36 -22.5 60.5t-53.5 24.5q-71 0 -82 -95l-50 8q7 69 43 103t92 34q54 0 89 -36t35 -95q0 -34 -13 -60t-50 -60q-37 -33 -43 -52q-6 -20 -6 -72zM82 50h412v617h-412v-617z
M32 718h512v-718h-512v718z" />
    <glyph glyph-name="grave.cap" horiz-adv-x="467" 
d="M232 904h63l84 -134h-42z" />
    <glyph glyph-name="acute.cap" horiz-adv-x="467" 
d="M420 903h67l-136 -134h-45z" />
    <glyph glyph-name="circumflex.cap" horiz-adv-x="467" 
d="M485 762h-44l-78 111l-125 -111h-52l152 146h57z" />
    <glyph glyph-name="caron.cap" horiz-adv-x="467" 
d="M221 907h45l78 -111l125 111h51l-152 -146h-57z" />
    <glyph glyph-name="caron.alt" horiz-adv-x="467" 
d="M383 768l-74 -164h-36l56 164h54z" />
    <glyph glyph-name="tilde.cap" horiz-adv-x="467" 
d="M367 854q34 -33 58 -33q20 0 35.5 18t21.5 51h42q-10 -50 -36 -80t-65 -30q-33 0 -75 37q-37 32 -59 32q-43 0 -56 -69h-42q22 110 99 110q36 0 77 -36z" />
    <glyph glyph-name="dieresis.cap" horiz-adv-x="467" 
d="M247 876h59l-16 -73h-59zM420 876h59l-16 -73h-59z" />
    <glyph glyph-name="macron.cap" horiz-adv-x="467" 
d="M481 856l-9 -43h-247l10 43h246z" />
    <glyph glyph-name="breve.cap" horiz-adv-x="467" 
d="M351 813q95 0 111 88h42q-24 -128 -155 -128q-60 0 -90.5 27t-30.5 71q0 16 2 30h41q-2 -14 -2 -25q0 -63 82 -63z" />
    <glyph glyph-name="ring.cap" horiz-adv-x="467" 
d="M355 908q-27 0 -46 -18.5t-19 -45.5q0 -28 19 -46.5t46 -18.5q28 0 46.5 18.5t18.5 46.5q0 27 -19 45.5t-46 18.5zM356 938q39 0 66.5 -28t27.5 -66q0 -40 -27.5 -67.5t-67.5 -27.5t-67.5 27.5t-27.5 67.5t27.5 67t68.5 27z" />
    <glyph glyph-name="hungarumlaut.cap" horiz-adv-x="467" 
d="M401 905l-118 -137h-41l98 137h61zM528 905l-127 -137h-43l105 137h65z" />
    <glyph glyph-name="dotaccent.cap" horiz-adv-x="467" 
d="M331 874h66l-16 -75h-66z" />
    <glyph glyph-name="commaaccent" horiz-adv-x="467" 
d="M226 -58l-106 -156h-41l84 156h63z" />
    <glyph glyph-name="commaaccent.alt" horiz-adv-x="467" 
d="M257 604l110 164h39l-88 -164h-61z" />
    <glyph glyph-name="zero.denominator" 
d="M231 436q59 0 89 -38t30 -104q0 -50 -11.5 -100.5t-34 -96.5t-62.5 -75t-91 -29q-60 0 -90.5 38t-30.5 104q0 69 19.5 135t67 116t114.5 50zM228 396q-38 0 -68 -27.5t-47 -69t-25.5 -84t-8.5 -79.5q0 -103 74 -103q50 0 85.5 46.5t49 102t13.5 107.5q0 107 -73 107z" />
    <glyph glyph-name="one.denominator" 
d="M277 429l-91 -429h-50l80 377l-99 -56l-18 36l128 72h50z" />
    <glyph glyph-name="two.denominator" 
d="M289 42l-9 -42h-270l8 45q165 126 216.5 181t51.5 102q0 30 -20 48t-53 18q-43 0 -105 -34l-12 38q59 38 124 38q53 0 84 -27.5t31 -74.5q0 -62 -50.5 -118t-202.5 -173v-1h207z" />
    <glyph glyph-name="three.denominator" 
d="M109 201l8 40h50q50 0 86 24t36 67q0 30 -19.5 46t-53.5 16q-50 0 -103 -25l-10 39q59 28 118 28q55 0 86 -26t31 -71q0 -46 -26.5 -75.5t-71.5 -41.5v-2q32 -9 50 -33.5t18 -57.5q0 -66 -45.5 -101t-121.5 -35q-69 0 -119 28l18 40q49 -26 101 -26q51 0 84.5 23.5
t33.5 70.5q0 34 -26 53t-73 19h-51z" />
    <glyph glyph-name="four.denominator" 
d="M331 429l-61 -284h61l-9 -41h-60l-22 -104h-48l22 104h-200l9 47l244 278h64zM223 145l48 230h-1l-200 -230h153z" />
    <glyph glyph-name="five.denominator" 
d="M136 35q60 0 93.5 28.5t33.5 79.5q0 39 -26.5 59.5t-70.5 20.5q-39 0 -92 -11l56 217h217l-9 -42h-173l-33 -129q28 6 52 6q58 0 93.5 -30.5t35.5 -87.5q0 -74 -49 -113.5t-129 -39.5q-65 0 -114 25l16 40q48 -23 99 -23z" />
    <glyph glyph-name="six.denominator" 
d="M100 227h2q37 51 104 51q55 0 85 -34.5t30 -83.5q0 -71 -43.5 -119t-115.5 -48q-60 0 -92 37t-32 99q0 51 13.5 103t39.5 98.5t71.5 76t102.5 29.5q43 0 77 -14l-14 -40q-27 13 -65 13q-62 0 -102.5 -47t-60.5 -121zM192 238q-48 0 -77 -33t-29 -82q0 -37 20.5 -63
t59.5 -26q47 0 77 36t30 86q0 35 -21 58.5t-60 23.5z" />
    <glyph glyph-name="seven.denominator" 
d="M99 387l9 42h260l-8 -39q-169 -204 -223 -390h-50q25 92 83.5 193.5t136.5 193.5h-208z" />
    <glyph glyph-name="eight.denominator" 
d="M185 202q-46 0 -81 -24.5t-35 -71.5q0 -32 25.5 -52t64.5 -20q47 0 80.5 23t33.5 68q0 35 -25.5 56t-62.5 21zM224 436q52 0 87.5 -26.5t35.5 -74.5q0 -85 -93 -112l-1 -2q31 -11 50 -35.5t19 -59.5q0 -66 -47.5 -99.5t-116.5 -33.5q-60 0 -99 28t-39 80q0 49 30 80.5
t80 44.5l1 2q-27 9 -42.5 31t-15.5 52q0 59 43.5 92t107.5 33zM196 243q41 0 71.5 21.5t30.5 66.5q0 29 -22 47t-56 18q-43 0 -71 -23.5t-28 -63.5q0 -30 21.5 -48t53.5 -18z" />
    <glyph glyph-name="nine.denominator" 
d="M280 202h-2q-37 -51 -104 -51q-55 0 -85 34.5t-30 83.5q0 71 43.5 119t115.5 48q60 0 92 -37t32 -99q0 -51 -13.5 -103t-39.5 -98.5t-71.5 -76t-102.5 -29.5q-43 0 -77 14l14 40q27 -13 65 -13q62 0 102.5 47t60.5 121zM188 191q48 0 77 33t29 82q0 37 -20.5 63t-59.5 26
q-47 0 -77 -36t-30 -86q0 -35 21 -58.5t60 -23.5z" />
    <glyph glyph-name="zero.numerator" 
d="M292 721q59 0 89 -38t30 -104q0 -50 -11.5 -100.5t-34 -96.5t-62.5 -75t-91 -29q-60 0 -90.5 38t-30.5 104q0 69 19.5 135t67 116t114.5 50zM289 681q-38 0 -68 -27.5t-47 -69t-25.5 -84t-8.5 -79.5q0 -103 74 -103q50 0 85.5 46.5t49 102t13.5 107.5q0 107 -73 107z" />
    <glyph glyph-name="one.numerator" 
d="M338 714l-91 -429h-50l80 377l-99 -56l-18 36l128 72h50z" />
    <glyph glyph-name="two.numerator" 
d="M350 327l-9 -42h-270l8 45q165 126 216.5 181t51.5 102q0 30 -20 48t-53 18q-43 0 -105 -34l-12 38q59 38 124 38q53 0 84 -27.5t31 -74.5q0 -62 -50.5 -118t-202.5 -173v-1h207z" />
    <glyph glyph-name="three.numerator" 
d="M170 486l8 40h50q50 0 86 24t36 67q0 30 -19.5 46t-53.5 16q-50 0 -103 -25l-10 39q59 28 118 28q55 0 86 -26t31 -71q0 -46 -26.5 -75.5t-71.5 -41.5v-2q32 -9 50 -33.5t18 -57.5q0 -66 -45.5 -101t-121.5 -35q-69 0 -119 28l18 40q49 -26 101 -26q51 0 84.5 23.5
t33.5 70.5q0 34 -26 53t-73 19h-51z" />
    <glyph glyph-name="four.numerator" 
d="M392 714l-61 -284h61l-9 -41h-60l-22 -104h-48l22 104h-200l9 47l244 278h64zM284 430l48 230h-1l-200 -230h153z" />
    <glyph glyph-name="five.numerator" 
d="M197 320q60 0 93.5 28.5t33.5 79.5q0 39 -26.5 59.5t-70.5 20.5q-39 0 -92 -11l56 217h217l-9 -42h-173l-33 -129q29 6 52 6q58 0 93.5 -30.5t35.5 -87.5q0 -74 -49 -113.5t-129 -39.5q-65 0 -114 25l16 40q48 -23 99 -23z" />
    <glyph glyph-name="six.numerator" 
d="M161 512h2q37 51 104 51q55 0 85 -34.5t30 -83.5q0 -71 -43.5 -119t-115.5 -48q-60 0 -92 37t-32 99q0 51 13.5 103t39.5 98.5t71.5 76t102.5 29.5q43 0 77 -14l-14 -40q-27 13 -65 13q-62 0 -102.5 -47t-60.5 -121zM253 523q-48 0 -77 -33t-29 -82q0 -37 20.5 -63
t59.5 -26q47 0 77 36t30 86q0 35 -21 58.5t-60 23.5z" />
    <glyph glyph-name="seven.numerator" 
d="M160 672l9 42h260l-8 -39q-169 -204 -223 -390h-50q25 92 83.5 193.5t136.5 193.5h-208z" />
    <glyph glyph-name="eight.numerator" 
d="M246 487q-46 0 -81 -24.5t-35 -71.5q0 -32 25.5 -52t64.5 -20q47 0 80.5 23t33.5 68q0 35 -25.5 56t-62.5 21zM285 721q52 0 87.5 -26.5t35.5 -74.5q0 -85 -93 -112l-1 -2q31 -11 50 -35.5t19 -59.5q0 -66 -47.5 -99.5t-116.5 -33.5q-60 0 -99 28t-39 80q0 49 30 80.5
t80 44.5l1 2q-27 9 -42.5 31t-15.5 52q0 59 43.5 92t107.5 33zM257 528q41 0 71.5 21.5t30.5 66.5q0 29 -22 47t-56 18q-43 0 -71 -23.5t-28 -63.5q0 -30 21.5 -48t53.5 -18z" />
    <glyph glyph-name="nine.numerator" 
d="M341 487h-2q-37 -51 -104 -51q-55 0 -85 34.5t-30 83.5q0 71 43.5 119t115.5 48q60 0 92 -37t32 -99q0 -51 -13.5 -103t-39.5 -98.5t-71.5 -76t-102.5 -29.5q-43 0 -77 14l14 40q27 -13 65 -13q62 0 102.5 47t60.5 121zM249 476q48 0 77 33t29 82q0 37 -20.5 63t-59.5 26
q-47 0 -77 -36t-30 -86q0 -35 21 -58.5t60 -23.5z" />
    <glyph glyph-name="tonos.cap" horiz-adv-x="442" 
d="M247 550l93 164h73l-124 -164h-42z" />
    <glyph glyph-name="hyphen.cap" horiz-adv-x="380" 
d="M101 345l10 48h232l-10 -48h-232z" />
    <glyph glyph-name="endash.cap" horiz-adv-x="446" 
d="M56 348l8 40h392l-9 -40h-391z" />
    <glyph glyph-name="emdash.cap" horiz-adv-x="698" 
d="M55 348l8 40h644l-8 -40h-644z" />
    <glyph glyph-name="zero.tnum" horiz-adv-x="581" 
d="M391 726q92 0 137 -62t45 -170q0 -78 -18.5 -162t-54.5 -163t-99.5 -130t-142.5 -51q-184 0 -184 230q0 61 10.5 127t35.5 134.5t60.5 123t90.5 89t120 34.5zM387 677q-51 0 -94.5 -31.5t-72.5 -81t-50 -111t-30 -120.5t-9 -111q0 -185 130 -185q51 0 94.5 31.5t72.5 81
t49.5 110.5t29.5 119.5t9 109.5q0 188 -129 188z" />
    <glyph glyph-name="one.tnum" horiz-adv-x="581" 
d="M466 714l-151 -714h-58l139 657l-174 -104l-21 45l199 116h66z" />
    <glyph glyph-name="two.tnum" horiz-adv-x="581" 
d="M478 49l-11 -49h-438l10 53q285 221 373 315.5t88 184.5q0 58 -36.5 90.5t-99.5 32.5q-85 0 -172 -52l-15 43q88 59 190 59q90 0 140.5 -47t50.5 -122q0 -33 -9.5 -64t-22.5 -58.5t-45 -63.5t-59.5 -64t-84.5 -75.5t-101 -82.5t-126 -100h368z" />
    <glyph glyph-name="three.tnum" horiz-adv-x="581" 
d="M192 344l11 49h63q102 0 167 41.5t65 128.5q0 54 -37.5 84t-99.5 30q-86 0 -161 -37l-11 46q81 40 178 40q85 0 136.5 -42t51.5 -118q0 -82 -50 -131.5t-135 -66.5v-2q63 -11 98 -52.5t35 -100.5q0 -110 -74 -167.5t-188 -57.5q-116 0 -195 42l20 49q73 -42 171 -42
q89 0 149 42.5t60 130.5q0 68 -53 101t-137 33h-64z" />
    <glyph glyph-name="four.tnum" horiz-adv-x="581" 
d="M550 714l-103 -482h105l-10 -50h-105l-38 -182h-57l38 182h-344l13 62l411 470h90zM391 232l92 433h-2l-378 -433h288z" />
    <glyph glyph-name="five.tnum" horiz-adv-x="581" 
d="M228 37q102 0 163.5 51.5t61.5 147.5q0 73 -50 111.5t-130 38.5q-64 0 -138 -15l87 343h344l-11 -49h-292l-62 -239q43 8 89 8q96 0 158 -49.5t62 -143.5q0 -120 -77 -186.5t-205 -66.5q-109 0 -185 38l17 49q73 -38 168 -38z" />
    <glyph glyph-name="six.tnum" horiz-adv-x="581" 
d="M337 411q-83 0 -144 -59t-61 -144q0 -31 7 -59t22.5 -54.5t45.5 -42t71 -15.5q92 0 145.5 65t53.5 159q0 63 -35 106.5t-105 43.5zM150 357h2q30 47 81.5 74.5t110.5 27.5q94 0 141.5 -55.5t47.5 -136.5q0 -117 -69 -198t-189 -81q-102 0 -150.5 62.5t-48.5 157.5
q0 64 14 133.5t44.5 138.5t73 123.5t106 88.5t137.5 34q67 0 118 -22l-17 -47q-42 19 -102 19t-112 -28t-88.5 -74.5t-61.5 -101.5t-38 -115z" />
    <glyph glyph-name="seven.tnum" horiz-adv-x="581" 
d="M176 665l11 49h425l-11 -50q-135 -152 -236.5 -331.5t-149.5 -332.5h-58q47 151 152 336.5t229 328.5h-362z" />
    <glyph glyph-name="eight.tnum" horiz-adv-x="581" 
d="M316 346q-83 0 -147.5 -44t-64.5 -126q0 -66 48 -102.5t119 -36.5q87 0 148.5 41.5t61.5 124.5q0 65 -50.5 104t-114.5 39zM381 726q85 0 144 -43.5t59 -126.5t-50 -128.5t-120 -58.5v-2q53 -16 89 -58.5t36 -104.5q0 -56 -23.5 -99.5t-63 -68t-86 -36.5t-97.5 -12
q-96 0 -159.5 47t-63.5 135q0 86 58 139.5t138 67.5v2q-47 16 -75 53.5t-28 88.5q0 95 71.5 150t170.5 55zM336 395q43 0 84 14t73.5 51t32.5 91q0 57 -41.5 91.5t-107.5 34.5q-79 0 -130 -42t-51 -112q0 -60 41 -94t99 -34z" />
    <glyph glyph-name="nine.tnum" horiz-adv-x="581" 
d="M305 302q82 0 143.5 58.5t61.5 145.5q0 68 -34 119t-112 51q-92 0 -145.5 -64.5t-53.5 -159.5q0 -63 35 -106.5t105 -43.5zM492 356h-2q-30 -47 -81.5 -74.5t-110.5 -27.5q-94 0 -141.5 55.5t-47.5 136.5q0 117 69.5 198.5t188.5 81.5q102 0 151 -63t49 -158
q0 -83 -22.5 -169.5t-65.5 -166t-118 -130.5t-169 -51q-66 0 -119 21l17 47q44 -19 103 -19q62 0 114.5 27.5t88 74.5t59 101t37.5 116z" />
    <glyph glyph-name="dollar.tnum" horiz-adv-x="581" 
d="M438 783l-17 -82q68 -3 120 -25l-15 -46q-58 24 -115 25l-59 -277q64 -48 94 -89.5t30 -97.5q0 -85 -56.5 -131t-146.5 -51l-18 -87h-44l18 87q-88 5 -157 38l16 46q71 -35 151 -38l62 294q-64 46 -93 85.5t-29 93.5q0 81 57 125t140 49l18 81h44zM421 186
q0 39 -19.5 70.5t-61.5 65.5l-56 -264q63 5 100 38t37 90zM233 532q0 -37 18.5 -64.5t62.5 -61.5l52 248q-57 -6 -95 -36.5t-38 -85.5z" />
    <glyph glyph-name="currency.tnum" horiz-adv-x="581" 
d="M490 351q0 -80 -55 -135l66 -83l-39 -29l-66 82q-46 -27 -103 -27q-56 0 -95 33l-85 -69l-30 38l85 69q-17 28 -17 66q0 82 55 135l-66 84l39 29l66 -83q47 28 103 28q55 0 95 -34l85 70l30 -38l-84 -69q16 -30 16 -67zM298 209q58 0 98 39t40 98q0 40 -25.5 66.5
t-66.5 26.5q-59 0 -99 -39.5t-40 -98.5q0 -40 25.5 -66t67.5 -26z" />
    <glyph glyph-name="Euro.tnum" horiz-adv-x="581" 
d="M75 311h71q3 48 21 108h-78l17 40h74q45 119 138 193t225 74q42 0 75 -6l-18 -48q-26 4 -58 4q-109 0 -187.5 -59t-116.5 -158h287l-17 -40h-284q-19 -60 -22 -108h267l-18 -40h-250q0 -104 54 -169t165 -65q42 0 76 9l6 -48q-40 -10 -91 -10q-130 0 -198 78.5t-68 204.5
h-87z" />
    <glyph glyph-name="cent.tnum" horiz-adv-x="581" 
d="M533 525l-16 -46q-36 14 -80 14l-97 -458q54 0 107 20v-46q-63 -21 -117 -21l-12 -55h-45l12 58q-82 11 -123 69t-41 142q0 134 79.5 230.5t200.5 104.5l14 63h45l-13 -60q49 -1 86 -15zM296 38l96 452q-97 -12 -155.5 -95t-58.5 -191q0 -67 29 -112t89 -54z" />
    <glyph glyph-name="sterling.tnum" horiz-adv-x="581" 
d="M595 703l-18 -47q-42 21 -98 21q-136 0 -170 -160l-27 -124h160l-8 -41h-160l-64 -302h298l-10 -50h-464l11 50h108l64 302h-104l9 41h103l28 129q20 93 74.5 148.5t151.5 55.5q70 0 116 -23z" />
    <glyph glyph-name="florin.tnum" horiz-adv-x="581" 
d="M504 393l-10 -45h-145l-91 -330q-21 -75 -56.5 -114.5t-105.5 -39.5q-48 0 -83 15l12 47q36 -13 72 -13q46 0 68.5 27t38.5 88l87 320h-134l10 45h137l50 180q20 71 59 112t113 41q50 0 84 -13l-14 -47q-33 11 -70 11q-52 0 -78 -30t-42 -88l-46 -166h144z" />
    <glyph glyph-name="yen.tnum" horiz-adv-x="581" 
d="M81 192h173l23 107h-173l9 40h160l-133 375h60l117 -359l268 359h63l-289 -375h159l-9 -40h-177l-23 -107h177l-9 -40h-176l-32 -152h-55l32 152h-174z" />
    <glyph glyph-name="colon.cap" horiz-adv-x="320" 
d="M100 93l17 81h73l-17 -81h-73zM195 540l17 81h73l-18 -81h-72z" />
    <glyph glyph-name="zero.slash" horiz-adv-x="581" 
d="M391 726q92 0 137 -62t45 -170q0 -78 -18.5 -162t-54.5 -163t-99.5 -130t-142.5 -51q-184 0 -184 230q0 61 10.5 127t35.5 134.5t60.5 123t90.5 89t120 34.5zM387 677q-51 0 -94.5 -31.5t-72.5 -81t-50 -111t-30 -120.5t-9 -111q0 -39 4 -64l368 432q-27 87 -116 87z
M516 489q0 37 -4 62l-367 -431q29 -83 116 -83q51 0 94.5 31.5t72.5 81t49.5 110.5t29.5 119.5t9 109.5z" />
    <glyph glyph-name="registered.alt1" horiz-adv-x="800" 
d="M109 356q0 -138 92 -232t232 -94q139 0 230.5 94t91.5 232t-91.5 233.5t-230.5 95.5t-231.5 -95.5t-92.5 -233.5zM67 356q0 155 104.5 261t261.5 106t260.5 -105.5t103.5 -261.5q0 -154 -103.5 -259.5t-260.5 -105.5t-261.5 105.5t-104.5 259.5zM297 142v432h145
q150 0 150 -114q0 -43 -22.5 -69.5t-59.5 -35.5v-2q22 -8 35 -24t25 -56q8 -23 21.5 -66.5t20.5 -64.5h-56q-20 75 -34 119q-14 43 -32 57t-65 14h-79v-190h-49zM346 531v-157h89q108 0 108 82q0 75 -108 75h-89z" />
    <glyph glyph-name="cyrbreve" horiz-adv-x="467" 
d="M320 614q-60 0 -90.5 26.5t-30.5 71.5q0 14 3 30h41q-2 -9 -2 -25q0 -63 81 -63q94 0 112 88h42q-26 -128 -156 -128z" />
    <glyph glyph-name="cyrbreve.cap" horiz-adv-x="467" 
d="M349 773q-60 0 -90.5 27t-30.5 71q0 15 3 30h40q-2 -18 -2 -25q0 -63 82 -63q94 0 112 88h42q-26 -128 -156 -128z" />
    <glyph glyph-name="phi.alt" horiz-adv-x="709" 
d="M513 536q69 0 111 -50t42 -140q0 -48 -9 -94.5t-33 -95.5t-60.5 -85.5t-96 -60t-134.5 -23.5l-39 -182h-56l39 182q-105 7 -159.5 67.5t-54.5 156.5q0 118 54 207t137 122l29 -35q-81 -39 -123 -116.5t-42 -175.5q0 -169 168 -180l71 331q17 83 51.5 127.5t104.5 44.5z
M408 344l-66 -311q61 1 109 21.5t77.5 51.5t48.5 72.5t26 81.5t7 82q0 68 -25 108t-70 40t-67.5 -31t-39.5 -115z" />
    <glyph glyph-name="beta.alt" horiz-adv-x="559" 
d="M546 599q0 -122 -118 -194v-2q71 -56 71 -165q0 -104 -61.5 -177t-164.5 -73q-197 0 -197 243q0 62 11.5 129t37.5 134.5t63 120.5t93 86.5t122 33.5q69 0 106 -38t37 -98zM446 232q0 106 -59 148q-100 -40 -248 -43q-10 -50 -10 -101q0 -202 145 -202q83 0 127.5 60.5
t44.5 137.5zM148 384q164 1 253 57.5t89 148.5q0 43 -23 71t-73 28q-87 0 -150.5 -84.5t-95.5 -220.5z" />
    <glyph glyph-name="theta.alt" horiz-adv-x="554" 
d="M211 -12q-27 0 -52.5 6.5t-51 21t-40.5 44t-15 70.5q0 36 15 106l23 111h55l-21 -101q-17 -84 -17 -113q0 -42 25 -70.5t82 -28.5q49 0 90.5 26.5t71 73t50 99.5t34.5 116q-155 0 -231 46t-76 142q0 46 17.5 89t64 76t114.5 33q88 0 137.5 -51.5t49.5 -156.5
q0 -52 -10 -117t-34.5 -140.5t-60 -137.5t-93.5 -103t-127 -41zM469 398q13 68 13 124q0 167 -136 167q-68 0 -102.5 -43.5t-34.5 -106.5q0 -82 63.5 -111.5t196.5 -29.5z" />
    </font>
</defs>
</svg>
