<?xml version="1.0" standalone="no"?>
<!DOCTYPE svg PUBLIC "-//W3C//DTD SVG 1.1//EN" "http://www.w3.org/Graphics/SVG/1.1/DTD/svg11.dtd" >
<svg xmlns="http://www.w3.org/2000/svg" xmlns:xlink="http://www.w3.org/1999/xlink" version="1.1">
<metadata>
Created by FontForge 20170731 at Wed May 24 14:50:13 2017
 By Aleksey,,,
Copyright (c) 2012-2017 Monotype GmbH, www.monotype.com. All rights reserved. This font software may not be reproduced, modified, disclosed or transferred without the express written approval of Linotype GmbH. SST is a trademark of Linotype GmbH and may be registered in certain jurisdictions. This typeface is original artwork of Akira Kobayashi. The design may be protected in certain jurisdictions.
</metadata>
<defs>
<font id="SSTVietnamese-Light" horiz-adv-x="467" >
  <font-face 
    font-family="SST Vietnamese Light"
    font-weight="300"
    font-stretch="normal"
    units-per-em="1000"
    panose-1="2 11 3 4 3 5 4 2 2 4"
    ascent="770"
    descent="-230"
    x-height="528"
    cap-height="714"
    bbox="-310 -214 1023 1061"
    underline-thickness="50"
    underline-position="-200"
    unicode-range="U+0020-FEFF"
  />
<missing-glyph horiz-adv-x="512" 
d="M278 117h-56v67h56v-67zM271 234h-46l-2 17q0 56 13 81q15 28 46 59q31 29 40.5 46t9.5 37q0 36 -22.5 60.5t-53.5 24.5q-71 0 -82 -95l-50 8q7 69 43 103t92 34q54 0 89 -36t35 -95q0 -34 -13 -60t-50 -60q-37 -33 -43 -52q-6 -20 -6 -72zM50 50h412v617h-412v-617z
M0 718h512v-718h-512v718z" />
    <glyph glyph-name="IJ" unicode="IJ" horiz-adv-x="527" 
d="M95 0v714h58v-714h-58zM443 714v-575q0 -151 -141 -151q-40 0 -69 6v50q29 -6 60 -6q49 1 70.5 25t21.5 78v573h58z" />
    <glyph glyph-name="ij" unicode="ij" horiz-adv-x="474" 
d="M90 528h57v-528h-57v528zM86 727h65v-69h-65v69zM384 528v-577q0 -146 -134 -146q-23 0 -47 4v46q24 -3 41 -3q48 0 65.5 26t17.5 82v568h57zM323 727h65v-69h-65v69z" />
    <glyph glyph-name="napostrophe" unicode="&#x22;n" horiz-adv-x="590" 
d="M90 528h55v-90h2q23 48 69.5 75t103.5 27q89 0 138 -52.5t49 -141.5v-346h-58v326q0 167 -141 167q-68 0 -114.5 -46.5t-46.5 -138.5v-308h-57v528zM123 768l-37 -164h-36l19 164h54z" />
    <glyph glyph-name="f_f" unicode="ff" horiz-adv-x="605" 
d="M651 724l-4 -46q-36 10 -78 10q-51 0 -72.5 -29t-21.5 -98v-33h134v-47h-134v-481h-57v481h-238v-481h-57v481h-115v47h115v43q0 80 35 122t116 42q44 0 82 -11l-4 -46q-36 10 -77 10q-53 0 -74 -29t-21 -98v-33h238v43q0 80 35 122t116 42q44 0 82 -11z" />
    <glyph glyph-name="fi" unicode="fi" horiz-adv-x="542" 
d="M451 723l-5 -47q-74 13 -129 13q-73 0 -105 -30.5t-32 -99.5v-31h277v-528h-57v481h-220v-481h-57v481h-114v47h114v43q0 82 46.5 123t147.5 41q70 0 134 -12z" />
    <glyph glyph-name="fl" unicode="fl" horiz-adv-x="546" 
d="M315 528v-47h-135v-481h-57v481h-114v47h114v42q0 165 194 165q58 0 140 -14v-721h-57v681q-44 7 -82 7q-73 0 -105.5 -29.5t-32.5 -98.5v-32h135z" />
    <glyph glyph-name="f_f_i" unicode="ffi" horiz-adv-x="844" 
d="M750 723l-5 -47q-69 12 -133 12q-73 0 -105 -30t-32 -99v-31h281v-528h-57v481h-224v-481h-57v481h-238v-481h-57v481h-115v47h115v43q0 80 35 122t116 42q44 0 82 -11l-4 -46q-36 10 -77 10q-53 0 -74 -29t-21 -98v-33h238v43q0 82 46.5 123t147.5 41q74 0 138 -12z" />
    <glyph glyph-name="f_f_l" unicode="ffl" horiz-adv-x="848" 
d="M610 528v-47h-135v-481h-57v481h-238v-481h-57v481h-115v47h115v42q0 81 35 123t116 42q38 0 82 -11l-5 -47q-34 11 -77 11q-52 0 -73 -29.5t-21 -98.5v-32h238v42q0 165 194 165q64 0 146 -14v-721h-57v682q-27 4 -85 6q-73 2 -107 -28.5t-34 -99.5v-32h135z" />
    <glyph glyph-name=".notdef" horiz-adv-x="512" 
d="M278 117h-56v67h56v-67zM271 234h-46l-2 17q0 56 13 81q15 28 46 59q31 29 40.5 46t9.5 37q0 36 -22.5 60.5t-53.5 24.5q-71 0 -82 -95l-50 8q7 69 43 103t92 34q54 0 89 -36t35 -95q0 -34 -13 -60t-50 -60q-37 -33 -43 -52q-6 -20 -6 -72zM50 50h412v617h-412v-617z
M0 718h512v-718h-512v718z" />
    <glyph glyph-name=".null" horiz-adv-x="0" 
 />
    <glyph glyph-name=".null" horiz-adv-x="0" 
 />
    <glyph glyph-name="nonmarkingreturn" horiz-adv-x="333" 
 />
    <glyph glyph-name="space" unicode=" " horiz-adv-x="260" 
 />
    <glyph glyph-name="exclam" unicode="!" horiz-adv-x="305" 
d="M116 0v78h72v-78h-72zM130 187l-12 527h69l-12 -527h-45z" />
    <glyph glyph-name="quotedbl" unicode="&#x22;" horiz-adv-x="364" 
d="M100 512l-13 223h62l-13 -223h-36zM228 512l-13 223h62l-13 -223h-36z" />
    <glyph glyph-name="numbersign" unicode="#" horiz-adv-x="555" 
d="M113 0l31 221h-107v43h113l26 187h-114v43h120l30 220h44l-31 -220h158l31 220h44l-31 -220h95v-43h-101l-26 -187h100v-43h-106l-31 -221h-45l32 221h-157l-31 -221h-44zM219 451l-25 -187h157l27 187h-159z" />
    <glyph glyph-name="dollar" unicode="$" horiz-adv-x="531" 
d="M442 671l-14 -45q-66 28 -135 30v-275q90 -35 133.5 -78t43.5 -115q0 -79 -49.5 -124t-127.5 -53v-89h-44v87q-99 0 -187 44q3 9 8 25.5t6 21.5q84 -44 173 -46v289l-28 12q-77 33 -112.5 73t-35.5 105q0 74 50 117t126 50v83h44v-81q86 -3 149 -31zM415 185
q0 48 -30.5 80t-91.5 59v-266q57 8 89.5 40t32.5 87zM126 537q0 -50 29.5 -80.5t93.5 -57.5v256q-55 -6 -89 -35.5t-34 -82.5z" />
    <glyph glyph-name="percent" unicode="%" horiz-adv-x="765" 
d="M135 0h1q298 476 446 714h43l-446 -714h-44zM278 536q1 61 -20 99t-62 38q-84 0 -84 -137q0 -61 20.5 -98.5t63.5 -37.5q80 0 82 136zM326 536q0 -81 -33.5 -129t-96.5 -48t-97.5 48.5t-34.5 128.5q0 81 34.5 129.5t97.5 48.5t96.5 -48.5t33.5 -129.5zM652 172
q0 136 -82 136q-42 0 -63 -37.5t-21 -98.5q0 -60 21 -98t63 -38t62 37.5t20 98.5zM699 172q0 -81 -33.5 -129t-95.5 -48q-63 0 -97.5 48t-34.5 129t34.5 129.5t97.5 48.5q62 0 95.5 -48t33.5 -130z" />
    <glyph glyph-name="ampersand" unicode="&#x26;" horiz-adv-x="691" 
d="M418 575q0 49 -30 77t-81 28t-81.5 -30.5t-30.5 -80.5q0 -41 20 -75t60 -77q65 28 104 65t39 93zM445 148l-189 213q-138 -60 -138 -178q0 -65 42 -106.5t109 -41.5q111 0 176 113zM514 157l139 -157h-76l-96 109q-81 -121 -214 -121q-89 0 -147.5 51t-58.5 141
q0 78 42.5 130t122.5 87q-85 88 -85 169q0 74 47 117t119 43q74 0 119.5 -39t45.5 -112q0 -122 -165 -194l168 -187q42 77 80 174h62q-60 -135 -103 -211z" />
    <glyph glyph-name="quotesingle" unicode="'" horiz-adv-x="242" 
d="M100 512l-13 223h62l-13 -223h-36z" />
    <glyph glyph-name="parenleft" unicode="(" horiz-adv-x="310" 
d="M96 302q0 -134 34 -264t99 -233h-54q-60 97 -95 226t-35 271q0 285 130 495h54q-65 -103 -99 -232.5t-34 -262.5z" />
    <glyph glyph-name="parenright" unicode=")" horiz-adv-x="310" 
d="M214 299q0 286 -133 498h53q131 -212 131 -498q0 -285 -131 -494h-53q65 103 99 232.5t34 261.5z" />
    <glyph glyph-name="asterisk" unicode="*" horiz-adv-x="413" 
d="M226 712v-140l138 43l13 -38l-136 -43l89 -126l-32 -24l-92 128l-90 -128l-33 24l89 126l-136 43l14 38l137 -43v140h39z" />
    <glyph glyph-name="plus" unicode="+" horiz-adv-x="536" 
d="M245 542h46v-205h200v-44h-200v-213h-46v213h-200v44h200v205z" />
    <glyph glyph-name="comma" unicode="," horiz-adv-x="264" 
d="M65 -145l47 229h64l-74 -229h-37z" />
    <glyph glyph-name="hyphen" unicode="-" horiz-adv-x="380" 
d="M74 277v48h232v-48h-232z" />
    <glyph glyph-name="period" unicode="." horiz-adv-x="264" 
d="M94 0v81h75v-81h-75z" />
    <glyph glyph-name="slash" unicode="/" horiz-adv-x="493" 
d="M47 0l341 714h58l-341 -714h-58z" />
    <glyph glyph-name="zero" unicode="0" horiz-adv-x="608" 
d="M304 726q124 0 186.5 -100t62.5 -271t-62.5 -269t-186.5 -98q-126 0 -187.5 98t-61.5 269q0 172 61.5 271.5t187.5 99.5zM304 676q-191 0 -191 -321q0 -317 191 -317q97 0 144 84t47 233q0 150 -47 235.5t-144 85.5z" />
    <glyph glyph-name="one" unicode="1" horiz-adv-x="374" 
d="M256 714v-714h-58v658l-154 -105l-27 42l175 119h64z" />
    <glyph glyph-name="two" unicode="2" horiz-adv-x="526" 
d="M479 50v-50h-440v53q160 149 236.5 231.5t106 137t29.5 111.5q0 66 -45 104.5t-115 38.5q-91 0 -169 -70l-27 41q82 79 197 79q96 0 156.5 -50t60.5 -141q0 -52 -13.5 -92.5t-58 -99t-105.5 -119.5t-180 -174h367z" />
    <glyph glyph-name="three" unicode="3" horiz-adv-x="528" 
d="M129 343v50h67q89 0 144.5 37t55.5 110q0 65 -43.5 100.5t-115.5 35.5q-94 0 -170 -45l-19 48q84 47 192 47q95 0 154.5 -49t59.5 -133q0 -135 -147 -173v-2q78 -12 123 -57t45 -119q0 -95 -67 -150t-174 -55q-119 0 -203 47l19 48q81 -45 185 -45q82 0 132 39t50 116
q0 79 -63 114.5t-158 35.5h-67z" />
    <glyph glyph-name="four" unicode="4" horiz-adv-x="569" 
d="M431 714v-482h105v-50h-105v-182h-58v182h-349v61l316 471h91zM373 232v433h-2l-290 -433h292z" />
    <glyph glyph-name="five" unicode="5" horiz-adv-x="536" 
d="M424 216q0 87 -59.5 128t-146.5 41q-73 0 -145 -15l14 344h354v-50h-302l-11 -238q49 8 100 8q109 0 181.5 -55.5t72.5 -159.5q0 -111 -71 -171t-182 -60q-104 0 -186 38l18 49q79 -37 167 -37t142 45t54 133z" />
    <glyph glyph-name="six" unicode="6" horiz-adv-x="572" 
d="M117 249q0 -51 16.5 -97t58.5 -80t103 -34q79 0 126.5 53t47.5 137q0 78 -44 130t-123 52t-132 -48t-53 -113zM112 357h2q26 46 77 74.5t114 28.5q101 0 161.5 -65.5t60.5 -166.5q0 -105 -64 -172.5t-166 -67.5q-54 0 -96.5 18.5t-69.5 48.5t-44.5 72t-24.5 86t-7 93
q0 88 15.5 162t47.5 133t86.5 92t127.5 33q72 0 134 -25l-15 -47q-55 22 -119 22q-58 0 -101 -27t-67.5 -74.5t-36.5 -101t-15 -116.5z" />
    <glyph glyph-name="seven" unicode="7" horiz-adv-x="493" 
d="M35 664v50h425v-50q-103 -152 -166.5 -331.5t-79.5 -332.5h-58q15 152 81 337t160 327h-362z" />
    <glyph glyph-name="eight" unicode="8" horiz-adv-x="581" 
d="M290 346q-74 0 -130 -40t-56 -115q0 -76 52 -114.5t134 -38.5q83 0 135 38.5t52 114.5q0 75 -56.5 115t-130.5 40zM289 726q92 0 157 -48.5t65 -137.5q0 -69 -35.5 -109.5t-92.5 -55.5v-2q152 -43 152 -186q0 -98 -70 -148.5t-175 -50.5t-174.5 50.5t-69.5 148.5
q0 74 44.5 121t109.5 62v2q-56 14 -93 57t-37 111q0 89 64 137.5t155 48.5zM290 395q69 0 116 36t47 109q0 62 -45 99t-119 37q-72 0 -115.5 -37t-43.5 -99q0 -73 45.5 -109t114.5 -36z" />
    <glyph glyph-name="nine" unicode="9" horiz-adv-x="572" 
d="M456 465q0 82 -45 146.5t-134 64.5q-79 0 -126.5 -53t-47.5 -137q0 -78 44 -130t123 -52q80 0 133 48t53 113zM460 357h-2q-25 -46 -76.5 -74.5t-114.5 -28.5q-100 0 -161 65.5t-61 166.5q0 105 64 172.5t166 67.5q67 0 116 -27t75.5 -74.5t39 -101t12.5 -115.5
q0 -88 -15.5 -162t-47.5 -133t-86.5 -92t-126.5 -33q-86 0 -146 25l13 48q62 -23 131 -23q58 0 101.5 27.5t67.5 75t36.5 101t14.5 115.5z" />
    <glyph glyph-name="colon" unicode=":" horiz-adv-x="320" 
d="M125 0v81h72v-81h-72zM125 447v81h72v-81h-72z" />
    <glyph glyph-name="semicolon" unicode=";" horiz-adv-x="320" 
d="M86 -145l48 229h63l-73 -229h-38zM125 447v81h72v-81h-72z" />
    <glyph glyph-name="less" unicode="&#x3c;" horiz-adv-x="536" 
d="M491 114l-446 166v63l446 167v-48l-402 -148v-2l402 -151v-47z" />
    <glyph glyph-name="equal" unicode="=" horiz-adv-x="536" 
d="M491 383h-446v44h446v-44zM491 204h-446v44h446v-44z" />
    <glyph glyph-name="greater" unicode="&#x3e;" horiz-adv-x="536" 
d="M491 280l-446 -166v47l401 151v2l-401 148v48l446 -167v-63z" />
    <glyph glyph-name="question" unicode="?" horiz-adv-x="462" 
d="M248 0h-76v78h76v-78zM236 194v-32h-53v36q0 64 17.5 104.5t59.5 77.5l38 34q73 64 73 139q0 63 -40.5 93t-105.5 30q-73 0 -141 -40l-18 46q77 44 164 44t143 -41.5t56 -129.5q0 -94 -82 -166l-35 -31q-44 -39 -60 -72t-16 -92z" />
    <glyph glyph-name="at" unicode="@" horiz-adv-x="930" 
d="M479 467q-48 0 -85.5 -36.5t-56 -88.5t-18.5 -106q0 -61 25.5 -106.5t83.5 -45.5q40 0 72 24.5t49.5 62.5t26.5 77t9 74q0 62 -24 103.5t-82 41.5zM730 -84l12 -46q-108 -52 -255 -52q-204 0 -321 125t-117 328q0 197 124 326t309 129q82 0 153 -23.5t126.5 -69.5
t87 -121t31.5 -171q0 -138 -57.5 -221t-146.5 -83q-53 0 -77.5 31.5t-24.5 71.5h-2q-15 -36 -55 -69.5t-97 -33.5q-77 0 -116.5 56t-39.5 146q0 108 60.5 191.5t156.5 83.5q52 0 84 -30.5t42 -74.5h2l18 88h48l-45 -226q-13 -69 -13 -103q0 -84 67 -84q63 0 103.5 72.5
t40.5 179.5q0 165 -96.5 254t-250.5 89q-164 0 -270.5 -116.5t-106.5 -292.5q0 -184 105 -293.5t285 -109.5q130 0 236 49z" />
    <glyph glyph-name="A" unicode="A" horiz-adv-x="642" 
d="M156 227l-88 -227h-62l277 714h80l273 -714h-63l-89 227h-328zM322 670l-150 -393h297z" />
    <glyph glyph-name="B" unicode="B" horiz-adv-x="610" 
d="M95 0v714h223q99 0 157.5 -45t58.5 -135q0 -67 -37 -108t-100 -55v-2q69 -13 113 -55t43 -117q0 -88 -58 -142.5t-168 -54.5h-232zM153 664v-271h148q83 0 129 34.5t46 103.5q0 133 -168 133h-155zM153 343v-293h165q177 0 177 148q0 145 -191 145h-151z" />
    <glyph glyph-name="C" unicode="C" horiz-adv-x="605" 
d="M567 691l-18 -47q-62 32 -146 32q-136 0 -210.5 -90t-74.5 -232q0 -137 74 -226.5t210 -89.5q90 0 156 37l17 -47q-75 -40 -176 -40q-159 0 -249 101.5t-90 265.5q0 108 38.5 190.5t117 131t187.5 49.5q97 2 164 -35z" />
    <glyph glyph-name="D" unicode="D" horiz-adv-x="687" 
d="M95 0v714h180q166 1 260.5 -92.5t94.5 -264.5q0 -172 -94 -264.5t-261 -92.5h-180zM153 664v-614h114q150 0 227.5 79.5t77.5 227.5t-78 227.5t-227 79.5h-114z" />
    <glyph glyph-name="E" unicode="E" horiz-adv-x="536" 
d="M95 0v714h380v-50h-322v-271h299v-50h-299v-293h331v-50h-389z" />
    <glyph glyph-name="F" unicode="F" horiz-adv-x="502" 
d="M95 0v714h366v-50h-308v-271h290v-50h-290v-343h-58z" />
    <glyph glyph-name="G" unicode="G" horiz-adv-x="709" 
d="M605 686l-18 -51q-77 41 -171 41q-141 0 -219.5 -90.5t-78.5 -228.5q0 -137 79 -228t218 -91q88 0 150 35v251h-165v50h223v-334q-96 -52 -212 -52q-162 0 -256.5 103.5t-94.5 267.5q0 162 96 264.5t261 102.5q106 0 188 -40z" />
    <glyph glyph-name="H" unicode="H" horiz-adv-x="685" 
d="M95 0v714h58v-321h379v321h58v-714h-58v343h-379v-343h-58z" />
    <glyph glyph-name="I" unicode="I" horiz-adv-x="248" 
d="M95 0v714h58v-714h-58z" />
    <glyph glyph-name="J" unicode="J" horiz-adv-x="301" 
d="M217 714v-575q0 -151 -141 -151q-40 0 -69 6v50q29 -6 60 -6q49 1 70.5 25t21.5 78v573h58z" />
    <glyph glyph-name="K" unicode="K" horiz-adv-x="563" 
d="M464 714h76l-323 -342l339 -372h-77l-324 359h-2v-359h-58v714h58v-334h2z" />
    <glyph glyph-name="L" unicode="L" horiz-adv-x="470" 
d="M95 0v714h58v-664h303v-50h-361z" />
    <glyph glyph-name="M" unicode="M" horiz-adv-x="861" 
d="M195 714l233 -660h2l236 660h100v-714h-56v669h-2l-243 -669h-75l-238 669h-2v-669h-55v714h100z" />
    <glyph glyph-name="N" unicode="N" horiz-adv-x="691" 
d="M185 714l354 -654h2v654h55v-714h-89l-355 656h-2v-656h-55v714h90z" />
    <glyph glyph-name="O" unicode="O" horiz-adv-x="747" 
d="M684 356q0 -164 -83 -266t-227 -102q-145 0 -228 101.5t-83 266.5q0 166 82.5 268t228.5 102t228 -102t82 -268zM626 356q0 139 -66 229.5t-186 90.5q-121 0 -187 -90.5t-66 -229.5q0 -138 65.5 -228t187.5 -90q121 0 186.5 90.5t65.5 227.5z" />
    <glyph glyph-name="P" unicode="P" horiz-adv-x="593" 
d="M95 0v714h215q234 0 234 -195q0 -205 -233 -205h-158v-314h-58zM153 664v-300h152q181 -2 181 152q0 45 -14.5 75.5t-42.5 45.5t-58.5 21t-71.5 6h-146z" />
    <glyph glyph-name="Q" unicode="Q" horiz-adv-x="747" 
d="M684 356q0 -113 -41 -199.5t-116 -129.5l127 -144h-77l-103 121q-50 -16 -100 -16q-145 0 -228 101.5t-83 266.5q0 166 82.5 268t228.5 102t228 -102t82 -268zM626 356q0 139 -66 229.5t-186 90.5q-121 0 -187 -90.5t-66 -229.5q0 -138 65.5 -228t187.5 -90
q121 0 186.5 90t65.5 228z" />
    <glyph glyph-name="R" unicode="R" horiz-adv-x="613" 
d="M95 0v714h231q102 0 159.5 -45t57.5 -140q0 -67 -37 -110t-99 -57v-2q41 -10 65 -40.5t43 -96.5q28 -98 67 -223h-62q-9 29 -31.5 110.5t-30.5 108.5q-21 69 -52.5 92.5t-107.5 23.5h-145v-335h-58zM153 664v-279h159q82 0 127.5 36t45.5 105q0 77 -45 107.5t-124 30.5
h-163z" />
    <glyph glyph-name="S" unicode="S" horiz-adv-x="529" 
d="M451 694l-16 -50q-73 32 -156 32q-69 0 -116 -31t-47 -96q0 -56 36 -89t121 -67q106 -42 156.5 -88.5t50.5 -125.5q0 -94 -64.5 -142.5t-163.5 -48.5q-109 0 -204 45l16 52q88 -47 189 -47q77 0 123 35t46 102q0 60 -43.5 96t-137.5 74q-94 39 -138.5 84t-44.5 117
q0 88 65.5 134t156.5 46q97 0 171 -32z" />
    <glyph glyph-name="T" unicode="T" horiz-adv-x="530" 
d="M239 0v664h-225v50h502v-50h-219v-664h-58z" />
    <glyph glyph-name="U" unicode="U" horiz-adv-x="679" 
d="M596 714v-495q0 -105 -65.5 -168t-192.5 -63t-191 62.5t-64 168.5v495h58v-491q0 -185 197 -185q101 0 150 49.5t49 135.5v491h59z" />
    <glyph glyph-name="V" unicode="V" horiz-adv-x="606" 
d="M264 0l-258 714h62l234 -660h2l234 660h62l-260 -714h-76z" />
    <glyph glyph-name="W" unicode="W" horiz-adv-x="933" 
d="M626 0l-160 668h-2l-157 -668h-85l-180 714h62l160 -660h2l155 660h90l157 -660h2l160 660h61l-181 -714h-84z" />
    <glyph glyph-name="X" unicode="X" horiz-adv-x="586" 
d="M10 0l249 371l-226 343h68l193 -300l197 300h66l-229 -343l246 -371h-70l-212 325l-214 -325h-68z" />
    <glyph glyph-name="Y" unicode="Y" horiz-adv-x="587" 
d="M264 0v295l-263 419h70l223 -365l227 365h65l-264 -419v-295h-58z" />
    <glyph glyph-name="Z" unicode="Z" horiz-adv-x="561" 
d="M42 50l404 614h-372v50h440v-50l-406 -614h414v-50h-480v50z" />
    <glyph glyph-name="bracketleft" unicode="[" horiz-adv-x="310" 
d="M237 797v-40h-106v-912h106v-40h-156v992h156z" />
    <glyph glyph-name="backslash" unicode="\" horiz-adv-x="493" 
d="M107 714l340 -714h-61l-340 714h61z" />
    <glyph glyph-name="bracketright" unicode="]" horiz-adv-x="310" 
d="M73 -195v40h106v912h-106v40h156v-992h-156z" />
    <glyph glyph-name="asciicircum" unicode="^" horiz-adv-x="536" 
d="M458 299h-59l-131 337h-2l-130 -337h-58l162 397h55z" />
    <glyph glyph-name="underscore" unicode="_" horiz-adv-x="465" 
d="M0 -99h465v-35h-465v35z" />
    <glyph glyph-name="grave" unicode="`" 
d="M234 604l-117 164h64l96 -164h-43z" />
    <glyph glyph-name="a" unicode="a" horiz-adv-x="546" 
d="M403 321v25q0 147 -144 147q-72 0 -138 -30l-13 48q74 29 154 29q198 0 198 -189v-224q0 -74 10 -127h-52q-8 39 -10 101h-2q-21 -50 -67.5 -81.5t-116.5 -31.5q-71 0 -119 40t-48 116q0 53 25.5 88.5t75 54.5t108.5 26.5t139 7.5zM403 278h-25q-59 0 -103.5 -5.5
t-83.5 -19.5t-60 -40.5t-21 -65.5q0 -51 30 -81.5t86 -30.5q87 0 132 56t45 137v50z" />
    <glyph glyph-name="b" unicode="b" horiz-adv-x="602" 
d="M145 99v-99h-55v735h57v-311h2q24 51 71.5 83.5t107.5 32.5q100 0 158 -78t58 -197q0 -120 -59.5 -198.5t-160.5 -78.5q-59 0 -105.5 31t-71.5 80h-2zM487 265q0 99 -44 163.5t-123 64.5q-82 0 -129 -63t-47 -165q0 -101 47.5 -165.5t127.5 -64.5t124 65t44 165z" />
    <glyph glyph-name="c" unicode="c" horiz-adv-x="475" 
d="M435 520l-13 -47q-44 20 -103 20q-96 0 -150 -65t-54 -164t54 -164t149 -65q59 0 107 20l10 -46q-53 -21 -118 -21q-123 0 -191 77.5t-68 198.5t70 198.5t190 77.5q65 0 117 -20z" />
    <glyph glyph-name="d" unicode="d" horiz-adv-x="602" 
d="M456 429v306h57v-735h-56v104h-2q-26 -52 -73.5 -84t-107.5 -32q-100 0 -158 78.5t-58 198.5q0 119 59.5 197t159.5 78q119 0 177 -111h2zM115 265q0 -100 44 -165t123 -65q81 0 129 64t48 165t-48.5 165t-127.5 64q-80 0 -124 -64.5t-44 -163.5z" />
    <glyph glyph-name="e" unicode="e" horiz-adv-x="557" 
d="M504 283v-32h-391q2 -94 55.5 -155t151.5 -61q81 0 140 25l10 -46q-67 -26 -152 -26q-126 0 -193.5 77.5t-67.5 202.5q0 116 61.5 194t170.5 78q108 0 161.5 -69t53.5 -188zM451 298v5q0 87 -42 138.5t-120 51.5q-83 0 -127 -56t-49 -139h338z" />
    <glyph glyph-name="f" unicode="f" horiz-adv-x="310" 
d="M356 724l-4 -46q-36 10 -77 10q-53 0 -74 -29t-21 -98v-33h135v-47h-135v-481h-57v481h-115v47h115v43q0 80 35 122t116 42q44 0 82 -11z" />
    <glyph glyph-name="g" unicode="g" horiz-adv-x="601" 
d="M513 528v-503q0 -107 -64 -163.5t-172 -56.5q-91 0 -157 28l12 47q64 -28 145 -28q90 0 135.5 45t45.5 131v89h-2q-26 -50 -72 -80.5t-107 -30.5q-102 0 -160.5 75t-58.5 192q0 116 60 191.5t161 75.5q61 0 106.5 -29.5t70.5 -80.5h2v98h55zM115 273q0 -97 44 -158.5
t125 -61.5t128 60.5t47 159.5t-47.5 159.5t-126.5 60.5q-81 0 -125.5 -61.5t-44.5 -158.5z" />
    <glyph glyph-name="h" unicode="h" horiz-adv-x="590" 
d="M90 735h57v-297h2q23 48 68.5 75t102.5 27q89 0 138 -52.5t49 -141.5v-346h-57v326q0 167 -142 167q-68 0 -114.5 -46.5t-46.5 -138.5v-308h-57v735z" />
    <glyph glyph-name="i" unicode="i" horiz-adv-x="237" 
d="M90 528h57v-528h-57v528zM86 727h65v-69h-65v69z" />
    <glyph glyph-name="j" unicode="j" horiz-adv-x="237" 
d="M147 528v-577q0 -146 -134 -146q-23 0 -47 4v46q24 -3 41 -3q48 0 65.5 26t17.5 82v568h57zM86 727h65v-69h-65v69z" />
    <glyph glyph-name="k" unicode="k" horiz-adv-x="487" 
d="M386 528h75l-252 -237l264 -291h-76l-248 278h-2v-278h-57v735h57v-436h2z" />
    <glyph glyph-name="l" unicode="l" horiz-adv-x="237" 
d="M90 735h57v-735h-57v735z" />
    <glyph glyph-name="m" unicode="m" horiz-adv-x="911" 
d="M90 528h55v-92q22 49 67.5 76.5t100.5 27.5q125 0 159 -99h5q47 99 171 99q89 0 134.5 -53.5t45.5 -142.5v-344h-57v323q0 170 -136 170q-61 0 -104 -41t-43 -118v-334h-57v333q0 79 -29 119.5t-102 40.5q-64 0 -108.5 -45.5t-44.5 -133.5v-314h-57v528z" />
    <glyph glyph-name="n" unicode="n" horiz-adv-x="590" 
d="M90 528h55v-90h2q23 48 69.5 75t103.5 27q89 0 138 -52.5t49 -141.5v-346h-58v326q0 167 -141 167q-68 0 -114.5 -46.5t-46.5 -138.5v-308h-57v528z" />
    <glyph glyph-name="o" unicode="o" horiz-adv-x="591" 
d="M533 265q0 -127 -63 -202t-174 -75t-174.5 75t-63.5 202t63 201t175 74q111 0 174 -74t63 -201zM476 265q0 102 -45.5 165t-134.5 63t-135 -63t-46 -165t46.5 -166t134.5 -64q89 0 134.5 63.5t45.5 166.5z" />
    <glyph glyph-name="p" unicode="p" horiz-adv-x="602" 
d="M147 99v-294h-57v723h55v-104h2q24 51 72 83.5t109 32.5q100 0 158 -78.5t58 -197.5q0 -120 -59.5 -198t-160.5 -78q-58 0 -103.5 30.5t-71.5 80.5h-2zM487 264q0 100 -44 164.5t-123 64.5q-82 0 -129 -63.5t-47 -165.5q0 -101 47.5 -165t127.5 -64t124 65t44 164z" />
    <glyph glyph-name="q" unicode="q" horiz-adv-x="602" 
d="M457 429v99h56v-723h-57v299h-2q-27 -52 -74 -84t-106 -32q-100 0 -158 78.5t-58 198.5q0 119 60 197t160 78q121 0 177 -111h2zM115 265q0 -100 44 -165t123 -65q81 0 129 64t48 165t-48.5 165t-127.5 64q-80 0 -124 -64.5t-44 -163.5z" />
    <glyph glyph-name="r" unicode="r" horiz-adv-x="339" 
d="M330 538l-3 -48q-18 3 -41 3q-63 0 -101 -47t-38 -136v-310h-57v528h55v-89h2q17 47 55 74t90 27q25 0 38 -2z" />
    <glyph glyph-name="s" unicode="s" horiz-adv-x="456" 
d="M378 511l-15 -45q-55 27 -127 27q-51 0 -84.5 -21t-33.5 -67q0 -41 26.5 -63.5t92.5 -47.5q83 -30 123 -64.5t40 -95.5q0 -73 -51.5 -109.5t-129.5 -36.5q-95 0 -168 38l16 46q76 -37 156 -37q120 0 120 96q0 42 -32.5 67.5t-102.5 51.5q-75 28 -111 61t-36 89
q0 68 51.5 104t123.5 36q85 0 142 -29z" />
    <glyph glyph-name="t" unicode="t" horiz-adv-x="331" 
d="M16 481v47h99v130h57v-130h128v-47h-128v-352q0 -54 15 -71.5t60 -17.5q32 0 56 4v-44q-40 -7 -70 -7q-67 0 -92.5 30.5t-25.5 101.5v356h-99z" />
    <glyph glyph-name="u" unicode="u" horiz-adv-x="590" 
d="M500 0h-55v90h-2q-23 -48 -69.5 -75t-103.5 -27q-89 0 -138 52.5t-49 141.5v346h57v-326q0 -167 142 -167q68 0 114.5 46.5t46.5 138.5v308h57v-528z" />
    <glyph glyph-name="v" unicode="v" horiz-adv-x="484" 
d="M208 0l-202 528h62l174 -478h2l173 478h61l-202 -528h-68z" />
    <glyph glyph-name="w" unicode="w" horiz-adv-x="779" 
d="M522 0l-131 479h-2l-133 -479h-76l-156 528h62l132 -478h2l130 478h80l131 -478h2l131 478h61l-157 -528h-76z" />
    <glyph glyph-name="x" unicode="x" horiz-adv-x="478" 
d="M80 0h-65l190 274l-173 254h66l143 -217l145 217h64l-174 -253l187 -275h-66l-158 236z" />
    <glyph glyph-name="y" unicode="y" horiz-adv-x="485" 
d="M69 528l177 -454h2l170 454h61l-285 -723h-60l81 203l-208 520h62z" />
    <glyph glyph-name="z" unicode="z" horiz-adv-x="479" 
d="M46 45l311 436h-292v47h357v-46l-310 -435h321v-47h-387v45z" />
    <glyph glyph-name="braceleft" unicode="{" horiz-adv-x="310" 
d="M14 279v44q50 6 65 36.5t15 103.5v190q0 144 114 144h46v-40h-34q-39 0 -57.5 -23.5t-18.5 -78.5v-194q0 -74 -19 -109t-66 -49v-2q47 -16 66 -51t19 -108v-194q0 -55 18.5 -79t57.5 -24h34v-40h-46q-114 0 -114 145v189q0 73 -15 103.5t-65 36.5z" />
    <glyph glyph-name="bar" unicode="|" horiz-adv-x="465" 
d="M210 735h45v-930h-45v930z" />
    <glyph glyph-name="braceright" unicode="}" horiz-adv-x="310" 
d="M296 323v-44q-50 -7 -65 -37.5t-15 -103.5v-189q0 -144 -114 -144h-46v40h34q38 0 57 23.5t19 78.5v194q0 74 18.5 109t65.5 49v2q-47 16 -65.5 50.5t-18.5 108.5v194q0 55 -19 79t-57 24h-34v40h46q114 0 114 -145v-189q0 -73 15 -103.5t65 -36.5z" />
    <glyph glyph-name="asciitilde" unicode="~" horiz-adv-x="536" 
d="M491 354v-49q-49 -43 -121 -43q-43 0 -108 31t-104 31q-58 0 -113 -48v49q49 43 121 43q43 0 108 -31t104 -31q58 0 113 48z" />
    <glyph glyph-name="uni00A0" unicode="&#xa0;" horiz-adv-x="260" 
 />
    <glyph glyph-name="exclamdown" unicode="&#xa1;" horiz-adv-x="305" 
d="M188 528v-78h-72v78h72zM174 341l12 -527h-70l13 527h45z" />
    <glyph glyph-name="cent" unicode="&#xa2;" horiz-adv-x="493" 
d="M282 -67v58q-104 12 -161 86t-57 186t58 186t160 87v64h45v-60q66 -1 114 -19l-14 -47q-45 18 -100 19v-459q59 1 105 21l10 -47q-54 -19 -115 -20v-55h-45zM122 263q0 -88 41 -149.5t119 -75.5v451q-78 -14 -119 -75.5t-41 -150.5z" />
    <glyph glyph-name="sterling" unicode="&#xa3;" horiz-adv-x="588" 
d="M503 695l-20 -49q-52 30 -108 30q-70 0 -104.5 -41.5t-34.5 -112.5v-129h158v-42h-158v-301h294v-50h-464v50h112v301h-104v42h104v134q0 91 51.5 145t145.5 54q71 0 128 -31z" />
    <glyph glyph-name="currency" unicode="&#xa4;" horiz-adv-x="534" 
d="M268 212q48 0 79 32t31 81t-31.5 80.5t-78.5 31.5q-48 0 -79.5 -31.5t-31.5 -80.5t31.5 -81t79.5 -32zM46 507l39 39l87 -86q42 29 96 29q53 0 95 -29l87 86l38 -38l-86 -86q31 -44 31 -97q0 -56 -30 -97l85 -86l-39 -38l-86 84q-40 -29 -95 -29t-97 31l-87 -86l-38 38
l86 86q-30 39 -30 97q0 55 29 96z" />
    <glyph glyph-name="yen" unicode="&#xa5;" horiz-adv-x="575" 
d="M82 193h178v105h-178v42h163l-210 374h62l194 -359l191 359h60l-209 -374h162v-42h-178v-105h178v-42h-178v-151h-57v151h-178v42z" />
    <glyph glyph-name="brokenbar" unicode="&#xa6;" horiz-adv-x="465" 
d="M209 172h46v-367h-46v367zM255 367h-46v368h46v-368z" />
    <glyph glyph-name="section" unicode="&#xa7;" horiz-adv-x="538" 
d="M465 268q0 -94 -100 -133q85 -50 85 -133t-57 -121.5t-142 -38.5q-79 0 -151 33l18 49q69 -32 136 -32q61 0 100 25t39 83q0 42 -33 72t-119 70q-82 38 -120.5 72.5t-38.5 95.5q0 95 108 131q-83 52 -83 130q0 80 55 117.5t136 37.5q76 0 124 -22l-16 -49q-44 21 -109 21
q-60 0 -96.5 -25.5t-36.5 -78.5q0 -44 32.5 -73t110.5 -65q84 -38 121 -73.5t37 -92.5zM293 386l-61 29q-42 -10 -69.5 -36t-27.5 -66t27.5 -66.5t96.5 -58.5l65 -30q89 30 89 104q0 42 -28 68t-92 56z" />
    <glyph glyph-name="dieresis" unicode="&#xa8;" 
d="M117 714h62v-73h-62v73zM288 714h61v-73h-61v73z" />
    <glyph glyph-name="copyright" unicode="&#xa9;" horiz-adv-x="804" 
d="M79 356q0 -138 92 -232t232 -94q139 0 230.5 94t91.5 232q0 139 -91.5 234t-230.5 95q-140 0 -232 -95t-92 -234zM37 356q0 155 104.5 261t261.5 106t260.5 -105.5t103.5 -261.5q0 -154 -103.5 -259.5t-260.5 -105.5t-261.5 105.5t-104.5 259.5zM519 565l-12 -42
q-39 18 -83 18q-81 0 -122.5 -50.5t-41.5 -132.5q0 -80 42 -131t119 -51q53 0 94 18l10 -41q-45 -20 -109 -20q-97 0 -152.5 62t-55.5 163t55.5 163t156.5 62q64 0 99 -18z" />
    <glyph glyph-name="ordfeminine" unicode="&#xaa;" horiz-adv-x="339" 
d="M241 567v13q0 78 -79 78q-42 0 -87 -20l-9 40q45 19 99 19q124 0 124 -115v-133q0 -41 5 -76h-45q-4 28 -4 50h-2q-30 -57 -109 -57q-42 0 -71 23.5t-29 69.5q0 61 53.5 84.5t153.5 23.5zM240 533h-11q-147 0 -147 -71q0 -59 63 -59q47 0 71 32t24 75v23z" />
    <glyph glyph-name="guillemotleft" unicode="&#xab;" horiz-adv-x="509" 
d="M254 481l-120 -183l120 -183h-54l-119 180v5l120 181h53zM429 481l-120 -183l120 -183h-55l-119 180v5l121 181h53z" />
    <glyph glyph-name="logicalnot" unicode="&#xac;" horiz-adv-x="536" 
d="M447 396h-402v44h446v-251h-44v207z" />
    <glyph glyph-name="uni00AD" unicode="&#xad;" horiz-adv-x="380" 
d="M74 277v48h232v-48h-232z" />
    <glyph glyph-name="registered" unicode="&#xae;" horiz-adv-x="503" 
d="M41 525q0 89 60 149t151 60t150 -60t59 -149t-59 -149.5t-150 -60.5t-151 60.5t-60 149.5zM68 525q0 -78 52 -131t132 -53q79 0 130.5 53.5t51.5 130.5t-51.5 129.5t-130.5 52.5q-80 0 -132 -52.5t-52 -129.5zM174 404v243h87q76 0 76 -62q0 -47 -44 -60q25 -9 34 -44
l24 -77h-34l-20 69q-6 23 -16 30.5t-37 7.5h-37v-107h-33zM207 621v-84h45q23 0 37.5 11t14.5 32q0 41 -49 41h-48z" />
    <glyph glyph-name="macron" unicode="&#xaf;" 
d="M357 698v-45h-247v45h247z" />
    <glyph glyph-name="degree" unicode="&#xb0;" horiz-adv-x="365" 
d="M184 725q55 0 93 -38.5t38 -93.5q0 -56 -38 -94t-94 -38t-94.5 38t-38.5 95q0 55 39 93t95 38zM182 689q-40 0 -67.5 -27.5t-27.5 -68.5t27.5 -68.5t68.5 -27.5t68 27.5t27 69.5q0 40 -27.5 67.5t-68.5 27.5z" />
    <glyph glyph-name="plusminus" unicode="&#xb1;" horiz-adv-x="536" 
d="M491 81h-446v44h446v-44zM245 197v162h-200v44h200v162h46v-162h200v-44h-200v-162h-46z" />
    <glyph glyph-name="twosuperior" unicode="&#xb2;" horiz-adv-x="379" 
d="M324 471v-43h-271v45q133 121 173 172.5t40 97.5q0 37 -23 58t-61 21q-52 0 -102 -40l-20 36q54 46 125 46q60 0 95.5 -31t35.5 -89q0 -57 -39.5 -107.5t-165.5 -164.5v-1h213z" />
    <glyph glyph-name="threesuperior" unicode="&#xb3;" horiz-adv-x="379" 
d="M111 629v40h50q48 0 76 21t28 59q0 35 -23.5 54t-63.5 19q-54 0 -101 -27l-14 40q51 29 118 29q61 0 97.5 -29t36.5 -81q0 -79 -82 -102v-1q43 -9 68.5 -37t25.5 -68q0 -59 -41.5 -92t-107.5 -33q-73 0 -128 29l16 41q50 -28 111 -28q45 0 72.5 21t27.5 62
q0 42 -32.5 62.5t-83.5 20.5h-50z" />
    <glyph glyph-name="acute" unicode="&#xb4;" 
d="M351 768l-117 -164h-43l97 164h63z" />
    <glyph glyph-name="mu" unicode="&#xb5;" horiz-adv-x="621" 
d="M90 -195v723h57v-326q0 -167 142 -167q68 0 114.5 46.5t46.5 138.5v308h57v-428q0 -33 10.5 -46.5t34.5 -13.5q10 0 24 2v-45q-13 -4 -37 -4q-87 0 -86 100h-2q-22 -50 -69 -77.5t-105 -27.5q-95 0 -127 60h-2v-243h-58z" />
    <glyph glyph-name="paragraph" unicode="&#xb6;" horiz-adv-x="543" 
d="M493 714v-831h-46v792h-146v-792h-47v441q-91 0 -149.5 53t-58.5 133q0 97 60.5 150.5t166.5 53.5h220z" />
    <glyph glyph-name="periodcentered" unicode="&#xb7;" horiz-adv-x="264" 
d="M94 263v80h75v-80h-75z" />
    <glyph glyph-name="cedilla" unicode="&#xb8;" 
d="M215 8l-14 -72q12 3 29 3q36 0 58 -18t22 -51q0 -40 -30 -61t-76 -21q-30 0 -55 5l4 34q20 -4 46 -4q68 0 68 45q0 38 -58 38q-23 0 -47 -3l15 105h38z" />
    <glyph glyph-name="onesuperior" unicode="&#xb9;" horiz-adv-x="379" 
d="M231 857v-429h-51v379l-90 -56l-19 37l111 69h49z" />
    <glyph glyph-name="ordmasculine" unicode="&#xba;" horiz-adv-x="368" 
d="M333 532q0 -76 -40 -121t-109 -45t-109 45.5t-40 120.5q0 76 40 120.5t109 44.5q70 0 109.5 -44.5t39.5 -120.5zM283 532q0 57 -25 91.5t-74 34.5t-74 -34.5t-25 -91.5t26 -92t73 -35q49 0 74 35t25 92z" />
    <glyph glyph-name="guillemotright" unicode="&#xbb;" horiz-adv-x="509" 
d="M255 115l120 183l-120 183h55l119 -181v-5l-122 -180h-52zM81 115l120 183l-120 183h54l119 -181v-5l-121 -180h-52z" />
    <glyph glyph-name="onequarter" unicode="&#xbc;" horiz-adv-x="883" 
d="M231 714v-429h-51v379l-90 -56l-19 37l111 69h49zM669 714l-415 -714h-44l414 714h45zM743 429v-282h62v-43h-62v-104h-48v104h-202v47l186 278h64zM695 147v234h-1l-154 -234h155z" />
    <glyph glyph-name="onehalf" unicode="&#xbd;" horiz-adv-x="883" 
d="M231 714v-429h-51v379l-90 -56l-19 37l111 69h49zM813 43v-43h-271v45q133 121 173 172.5t40 97.5q0 37 -23 58t-61 21q-52 0 -102 -40l-20 36q54 46 125 46q60 0 95.5 -31t35.5 -89q0 -57 -39.5 -107.5t-165.5 -164.5v-1h213zM669 714l-415 -714h-44l414 714h45z" />
    <glyph glyph-name="threequarters" unicode="&#xbe;" horiz-adv-x="883" 
d="M111 486v40h50q48 0 76 21t28 59q0 35 -23.5 54t-63.5 19q-54 0 -101 -27l-14 40q51 29 118 29q61 0 97.5 -29t36.5 -81q0 -79 -82 -102v-1q43 -9 68.5 -37t25.5 -68q0 -59 -41.5 -92t-107.5 -33q-73 0 -128 29l16 41q50 -28 111 -28q45 0 72.5 21t27.5 62
q0 42 -32.5 62.5t-83.5 20.5h-50zM743 429v-282h62v-43h-62v-104h-48v104h-202v47l186 278h64zM695 147v234h-1l-154 -234h155zM669 714l-415 -714h-44l414 714h45z" />
    <glyph glyph-name="questiondown" unicode="&#xbf;" horiz-adv-x="462" 
d="M214 528h76v-78h-76v78zM226 334v32h53v-36q0 -64 -17.5 -104.5t-59.5 -77.5l-38 -34q-73 -64 -73 -139q0 -63 40.5 -93t105.5 -30q73 0 141 40l18 -46q-77 -44 -164 -44t-143 41.5t-56 129.5q0 94 82 166l35 31q44 39 60 72t16 92z" />
    <glyph glyph-name="Agrave" unicode="&#xc0;" horiz-adv-x="642" 
d="M156 227l-88 -227h-62l277 714h80l273 -714h-63l-89 227h-328zM322 670l-150 -393h297zM211 904h67l84 -134h-45z" />
    <glyph glyph-name="Aacute" unicode="&#xc1;" horiz-adv-x="642" 
d="M156 227l-88 -227h-62l277 714h80l273 -714h-63l-89 227h-328zM322 670l-150 -393h297zM378 903h67l-108 -134h-44z" />
    <glyph glyph-name="Acircumflex" unicode="&#xc2;" horiz-adv-x="642" 
d="M156 227l-88 -227h-62l277 714h80l273 -714h-63l-89 227h-328zM322 670l-150 -393h297zM473 762h-49l-102 111l-101 -111h-49l120 146h60z" />
    <glyph glyph-name="Atilde" unicode="&#xc3;" horiz-adv-x="642" 
d="M156 227l-88 -227h-62l277 714h80l273 -714h-63l-89 227h-328zM322 670l-150 -393h297zM333 856q43 -32 63 -32q40 0 43 67h43q-5 -111 -84 -111q-34 0 -79 34q-41 33 -63 33q-40 0 -43 -67h-43q2 51 23.5 81t61.5 30q34 0 78 -35z" />
    <glyph glyph-name="Adieresis" unicode="&#xc4;" horiz-adv-x="642" 
d="M156 227l-88 -227h-62l277 714h80l273 -714h-63l-89 227h-328zM322 670l-150 -393h297zM206 876h62v-73h-62v73zM377 876h61v-73h-61v73z" />
    <glyph glyph-name="Aring" unicode="&#xc5;" horiz-adv-x="642" 
d="M156 227l-88 -227h-62l277 714h80l273 -714h-63l-89 227h-328zM322 670l-150 -393h297zM323 940q39 0 67 -29t28 -68q0 -40 -27.5 -67.5t-67.5 -27.5q-41 0 -69 27.5t-28 67.5q0 41 28 69t69 28zM322 907q-26 0 -45 -18.5t-19 -45.5q0 -26 19 -44.5t46 -18.5
q26 0 44.5 18.5t18.5 44.5q0 28 -18.5 46t-45.5 18z" />
    <glyph glyph-name="AE" unicode="&#xc6;" horiz-adv-x="856" 
d="M175 207l-108 -207h-65l374 714h419v-50h-321v-271h298v-50h-298v-293h330v-50h-388v207h-241zM414 669l-215 -412h217v412h-2z" />
    <glyph glyph-name="Ccedilla" unicode="&#xc7;" horiz-adv-x="605" 
d="M567 691l-18 -47q-62 32 -145 32q-138 0 -212 -89.5t-74 -232.5q0 -137 74 -226.5t210 -89.5q90 0 156 37l17 -47q-75 -40 -176 -40h-17l-10 -52q12 3 29 3q36 0 58 -18t22 -51q0 -40 -30 -61t-76 -21q-30 0 -55 5l4 34q20 -4 46 -4q68 0 68 45q0 38 -58 38q-23 0 -47 -3
l12 89q-135 17 -210 115.5t-75 247.5q0 165 90.5 268t252.5 103q100 0 164 -35z" />
    <glyph glyph-name="Egrave" unicode="&#xc8;" horiz-adv-x="536" 
d="M95 0v714h380v-50h-322v-271h299v-50h-299v-293h331v-50h-389zM176 904h67l84 -134h-45z" />
    <glyph glyph-name="Eacute" unicode="&#xc9;" horiz-adv-x="536" 
d="M95 0v714h380v-50h-322v-271h299v-50h-299v-293h331v-50h-389zM341 903h67l-108 -134h-44z" />
    <glyph glyph-name="Ecircumflex" unicode="&#xca;" horiz-adv-x="536" 
d="M95 0v714h380v-50h-322v-271h299v-50h-299v-293h331v-50h-389zM438 762h-49l-102 111l-101 -111h-49l120 146h60z" />
    <glyph glyph-name="Edieresis" unicode="&#xcb;" horiz-adv-x="536" 
d="M95 0v714h380v-50h-322v-271h299v-50h-299v-293h331v-50h-389zM175 876h62v-73h-62v73zM346 876h61v-73h-61v73z" />
    <glyph glyph-name="Igrave" unicode="&#xcc;" horiz-adv-x="248" 
d="M95 0v714h58v-714h-58zM0 904h67l84 -134h-45z" />
    <glyph glyph-name="Iacute" unicode="&#xcd;" horiz-adv-x="248" 
d="M95 0v714h58v-714h-58zM184 903h67l-108 -134h-44z" />
    <glyph glyph-name="Icircumflex" unicode="&#xce;" horiz-adv-x="248" 
d="M95 0v714h58v-714h-58zM274 762h-49l-102 111l-101 -111h-49l120 146h60z" />
    <glyph glyph-name="Idieresis" unicode="&#xcf;" horiz-adv-x="248" 
d="M95 0v714h58v-714h-58zM8 876h62v-73h-62v73zM179 876h61v-73h-61v73z" />
    <glyph glyph-name="Eth" unicode="&#xd0;" horiz-adv-x="687" 
d="M290 349h-137v-299h114q149 0 227 79.5t78 227.5t-78 227.5t-227 79.5h-114v-276h137v-39zM21 388h74v326h180q167 0 261 -92.5t94 -264.5t-94 -264.5t-261 -92.5h-180v349h-74v39z" />
    <glyph glyph-name="Ntilde" unicode="&#xd1;" horiz-adv-x="691" 
d="M185 714l354 -654h2v654h55v-714h-89l-355 656h-2v-656h-55v714h90zM354 856q43 -32 63 -32q40 0 43 67h43q-5 -111 -84 -111q-34 0 -79 34q-41 33 -63 33q-40 0 -43 -67h-43q2 51 23.5 81t61.5 30q34 0 78 -35z" />
    <glyph glyph-name="Ograve" unicode="&#xd2;" horiz-adv-x="747" 
d="M684 356q0 -164 -83 -266t-227 -102q-145 0 -228 101.5t-83 266.5q0 166 82.5 268t228.5 102t228 -102t82 -268zM626 356q0 139 -66 229.5t-186 90.5q-121 0 -187 -90.5t-66 -229.5q0 -138 65.5 -228t187.5 -90q121 0 186.5 90.5t65.5 227.5zM260 904h67l84 -134h-45z
" />
    <glyph glyph-name="Oacute" unicode="&#xd3;" horiz-adv-x="747" 
d="M684 356q0 -164 -83 -266t-227 -102q-145 0 -228 101.5t-83 266.5q0 166 82.5 268t228.5 102t228 -102t82 -268zM626 356q0 139 -66 229.5t-186 90.5q-121 0 -187 -90.5t-66 -229.5q0 -138 65.5 -228t187.5 -90q121 0 186.5 90.5t65.5 227.5zM413 903h67l-108 -134h-44z
" />
    <glyph glyph-name="Ocircumflex" unicode="&#xd4;" horiz-adv-x="747" 
d="M684 356q0 -164 -83 -266t-227 -102q-145 0 -228 101.5t-83 266.5q0 166 82.5 268t228.5 102t228 -102t82 -268zM626 356q0 139 -66 229.5t-186 90.5q-121 0 -187 -90.5t-66 -229.5q0 -138 65.5 -228t187.5 -90q121 0 186.5 90.5t65.5 227.5zM524 762h-49l-102 111
l-101 -111h-49l120 146h60z" />
    <glyph glyph-name="Otilde" unicode="&#xd5;" horiz-adv-x="747" 
d="M684 356q0 -164 -83 -266t-227 -102q-145 0 -228 101.5t-83 266.5q0 166 82.5 268t228.5 102t228 -102t82 -268zM626 356q0 139 -66 229.5t-186 90.5q-121 0 -187 -90.5t-66 -229.5q0 -138 65.5 -228t187.5 -90q121 0 186.5 90.5t65.5 227.5zM380 856q43 -32 63 -32
q40 0 43 67h43q-5 -111 -84 -111q-34 0 -79 34q-41 33 -63 33q-40 0 -43 -67h-43q2 51 23.5 81t61.5 30q34 0 78 -35z" />
    <glyph glyph-name="Odieresis" unicode="&#xd6;" horiz-adv-x="747" 
d="M684 356q0 -164 -83 -266t-227 -102q-145 0 -228 101.5t-83 266.5q0 166 82.5 268t228.5 102t228 -102t82 -268zM626 356q0 139 -66 229.5t-186 90.5q-121 0 -187 -90.5t-66 -229.5q0 -138 65.5 -228t187.5 -90q121 0 186.5 90.5t65.5 227.5zM257 876h62v-73h-62v73z
M428 876h61v-73h-61v73z" />
    <glyph glyph-name="multiply" unicode="&#xd7;" horiz-adv-x="536" 
d="M43 115l192 193l-192 193l33 32l192 -193l192 193l32 -32l-193 -193l193 -193l-31 -32l-194 192l-191 -192z" />
    <glyph glyph-name="Oslash" unicode="&#xd8;" horiz-adv-x="747" 
d="M103 -24l-31 24l71 92q-80 100 -80 264q0 166 82.5 268t228.5 102q121 0 201 -74l62 80l32 -25l-66 -85q81 -99 81 -266q0 -164 -83 -266t-227 -102q-123 0 -204 75zM626 356q0 133 -59 219l-363 -468q66 -69 170 -69q121 0 186.5 90t65.5 228zM121 356q0 -133 58 -218
l362 470q-66 68 -167 68q-121 0 -187 -90.5t-66 -229.5z" />
    <glyph glyph-name="Ugrave" unicode="&#xd9;" horiz-adv-x="679" 
d="M596 714v-495q0 -105 -65.5 -168t-192.5 -63t-191 62.5t-64 168.5v495h58v-491q0 -185 197 -185q101 0 150 49.5t49 135.5v491h59zM221 904h67l84 -134h-45z" />
    <glyph glyph-name="Uacute" unicode="&#xda;" horiz-adv-x="679" 
d="M596 714v-495q0 -105 -65.5 -168t-192.5 -63t-191 62.5t-64 168.5v495h58v-491q0 -185 197 -185q101 0 150 49.5t49 135.5v491h59zM384 903h67l-108 -134h-44z" />
    <glyph glyph-name="Ucircumflex" unicode="&#xdb;" horiz-adv-x="679" 
d="M596 714v-495q0 -105 -65.5 -168t-192.5 -63t-191 62.5t-64 168.5v495h58v-491q0 -185 197 -185q101 0 150 49.5t49 135.5v491h59zM488 762h-49l-102 111l-101 -111h-49l120 146h60z" />
    <glyph glyph-name="Udieresis" unicode="&#xdc;" horiz-adv-x="679" 
d="M596 714v-495q0 -105 -65.5 -168t-192.5 -63t-191 62.5t-64 168.5v495h58v-491q0 -185 197 -185q101 0 150 49.5t49 135.5v491h59zM223 876h62v-73h-62v73zM394 876h61v-73h-61v73z" />
    <glyph glyph-name="Yacute" unicode="&#xdd;" horiz-adv-x="587" 
d="M264 0v295l-263 419h70l223 -365l227 365h65l-264 -419v-295h-58zM349 903h67l-108 -134h-44z" />
    <glyph glyph-name="Thorn" unicode="&#xde;" horiz-adv-x="598" 
d="M95 0v714h58v-130h160q231 0 231 -197q0 -204 -230 -204h-161v-183h-58zM153 534v-301h155q81 0 129.5 32.5t48.5 118.5q0 45 -14.5 76t-41.5 46.5t-57.5 21.5t-71.5 6h-148z" />
    <glyph glyph-name="germandbls" unicode="&#xdf;" horiz-adv-x="651" 
d="M330 735q98 0 158 -49t60 -142q0 -71 -44 -115.5t-118 -53.5v-2q84 -7 140.5 -50.5t56.5 -132.5q0 -101 -62 -151.5t-154 -50.5q-74 0 -126 23l11 46q53 -22 115 -22q72 0 115.5 39t43.5 113q0 71 -53 113.5t-169 42.5v50q187 9 187 146q0 71 -45.5 110t-116.5 39
q-182 0 -182 -208v-480h-57v491q0 127 67.5 185.5t172.5 58.5z" />
    <glyph glyph-name="agrave" unicode="&#xe0;" horiz-adv-x="546" 
d="M403 321v25q0 147 -144 147q-72 0 -138 -30l-13 48q74 29 154 29q198 0 198 -189v-224q0 -74 10 -127h-52q-8 39 -10 101h-2q-21 -50 -67.5 -81.5t-116.5 -31.5q-71 0 -119 40t-48 116q0 53 25.5 88.5t75 54.5t108.5 26.5t139 7.5zM403 278h-25q-59 0 -103.5 -5.5
t-83.5 -19.5t-60 -40.5t-21 -65.5q0 -51 30 -81.5t86 -30.5q87 0 132 56t45 137v50zM279 604l-117 164h64l96 -164h-43z" />
    <glyph glyph-name="aacute" unicode="&#xe1;" horiz-adv-x="546" 
d="M403 321v25q0 147 -144 147q-72 0 -138 -30l-13 48q74 29 154 29q198 0 198 -189v-224q0 -74 10 -127h-52q-8 39 -10 101h-2q-21 -50 -67.5 -81.5t-116.5 -31.5q-71 0 -119 40t-48 116q0 53 25.5 88.5t75 54.5t108.5 26.5t139 7.5zM403 278h-25q-59 0 -103.5 -5.5
t-83.5 -19.5t-60 -40.5t-21 -65.5q0 -51 30 -81.5t86 -30.5q87 0 132 56t45 137v50zM388 768l-117 -164h-43l97 164h63z" />
    <glyph glyph-name="acircumflex" unicode="&#xe2;" horiz-adv-x="546" 
d="M403 321v25q0 147 -144 147q-72 0 -138 -30l-13 48q74 29 154 29q198 0 198 -189v-224q0 -74 10 -127h-52q-8 39 -10 101h-2q-21 -50 -67.5 -81.5t-116.5 -31.5q-71 0 -119 40t-48 116q0 53 25.5 88.5t75 54.5t108.5 26.5t139 7.5zM403 278h-25q-59 0 -103.5 -5.5
t-83.5 -19.5t-60 -40.5t-21 -65.5q0 -51 30 -81.5t86 -30.5q87 0 132 56t45 137v50zM426 604h-49l-102 129l-101 -129h-49l120 164h60z" />
    <glyph glyph-name="atilde" unicode="&#xe3;" horiz-adv-x="546" 
d="M403 321v25q0 147 -144 147q-72 0 -138 -30l-13 48q74 29 154 29q198 0 198 -189v-224q0 -74 10 -127h-52q-8 39 -10 101h-2q-21 -50 -67.5 -81.5t-116.5 -31.5q-71 0 -119 40t-48 116q0 53 25.5 88.5t75 54.5t108.5 26.5t139 7.5zM403 278h-25q-59 0 -103.5 -5.5
t-83.5 -19.5t-60 -40.5t-21 -65.5q0 -51 30 -81.5t86 -30.5q87 0 132 56t45 137v50zM281 703q44 -33 63 -33q40 0 43 67h43q-5 -110 -84 -110q-34 0 -79 34q-42 33 -63 33q-40 0 -43 -67h-43q2 51 23.5 80.5t61.5 29.5q33 0 78 -34z" />
    <glyph glyph-name="adieresis" unicode="&#xe4;" horiz-adv-x="546" 
d="M403 321v25q0 147 -144 147q-72 0 -138 -30l-13 48q74 29 154 29q198 0 198 -189v-224q0 -74 10 -127h-52q-8 39 -10 101h-2q-21 -50 -67.5 -81.5t-116.5 -31.5q-71 0 -119 40t-48 116q0 53 25.5 88.5t75 54.5t108.5 26.5t139 7.5zM403 278h-25q-59 0 -103.5 -5.5
t-83.5 -19.5t-60 -40.5t-21 -65.5q0 -51 30 -81.5t86 -30.5q87 0 132 56t45 137v50zM161 714h62v-73h-62v73zM332 714h61v-73h-61v73z" />
    <glyph glyph-name="aring" unicode="&#xe5;" horiz-adv-x="546" 
d="M403 321v25q0 147 -144 147q-72 0 -138 -30l-13 48q74 29 154 29q198 0 198 -189v-224q0 -74 10 -127h-52q-8 39 -10 101h-2q-21 -50 -67.5 -81.5t-116.5 -31.5q-71 0 -119 40t-48 116q0 53 25.5 88.5t75 54.5t108.5 26.5t139 7.5zM403 278h-25q-59 0 -103.5 -5.5
t-83.5 -19.5t-60 -40.5t-21 -65.5q0 -51 30 -81.5t86 -30.5q87 0 132 56t45 137v50zM280 787q39 0 67 -28.5t28 -67.5q0 -40 -27.5 -68t-67.5 -28t-68.5 28t-28.5 68t28.5 68t68.5 28zM279 755q-26 0 -45 -19t-19 -45q0 -27 19 -45.5t46 -18.5q26 0 44.5 18.5t18.5 45.5
t-18.5 45.5t-45.5 18.5z" />
    <glyph glyph-name="ae" unicode="&#xe6;" horiz-adv-x="898" 
d="M660 35q78 0 141 25l10 -45q-61 -27 -153 -27q-169 0 -226 153h-2q-18 -70 -70.5 -111.5t-136.5 -41.5q-73 0 -120.5 39t-47.5 114q0 42 17.5 73t46 49.5t74.5 29t95 14.5t115 4v35q0 147 -144 147q-72 0 -138 -30l-13 48q74 29 154 29q149 0 181 -117h2q23 52 71.5 84.5
t115.5 32.5q103 0 158 -64.5t55 -178.5v-34h-388q3 -99 54.5 -163.5t148.5 -64.5zM403 268h-25q-61 0 -105.5 -5t-83.5 -18t-59 -38t-20 -63q0 -52 32 -80.5t89 -28.5q85 0 128.5 59t43.5 139v35zM632 493q-80 0 -124 -52.5t-50 -131.5h334v6q0 79 -41.5 128.5t-118.5 49.5z
" />
    <glyph glyph-name="ccedilla" unicode="&#xe7;" horiz-adv-x="475" 
d="M435 520l-13 -47q-44 20 -103 20q-96 0 -150 -65t-54 -164t54 -164t149 -65q59 0 107 20l10 -46q-53 -21 -118 -21q-14 0 -25 1l-10 -53q12 3 29 3q36 0 58 -18t22 -51q0 -40 -30 -61t-76 -21q-30 0 -55 5l4 34q20 -4 46 -4q68 0 68 45q0 38 -58 38q-23 0 -47 -3l13 91
q-95 19 -146.5 92.5t-51.5 177.5q0 121 70 198.5t190 77.5q65 0 117 -20z" />
    <glyph glyph-name="egrave" unicode="&#xe8;" horiz-adv-x="557" 
d="M504 283v-32h-391q2 -94 55.5 -155t151.5 -61q81 0 140 25l10 -46q-67 -26 -152 -26q-126 0 -193.5 77.5t-67.5 202.5q0 116 61.5 194t170.5 78q108 0 161.5 -69t53.5 -188zM451 298v5q0 87 -42 138.5t-120 51.5q-83 0 -127 -56t-49 -139h338zM294 604l-117 164h64
l96 -164h-43z" />
    <glyph glyph-name="eacute" unicode="&#xe9;" horiz-adv-x="557" 
d="M504 283v-32h-391q2 -94 55.5 -155t151.5 -61q81 0 140 25l10 -46q-67 -26 -152 -26q-126 0 -193.5 77.5t-67.5 202.5q0 116 61.5 194t170.5 78q108 0 161.5 -69t53.5 -188zM451 298v5q0 87 -42 138.5t-120 51.5q-83 0 -127 -56t-49 -139h338zM417 768l-117 -164h-43
l97 164h63z" />
    <glyph glyph-name="ecircumflex" unicode="&#xea;" horiz-adv-x="557" 
d="M504 283v-32h-391q2 -94 55.5 -155t151.5 -61q81 0 140 25l10 -46q-67 -26 -152 -26q-126 0 -193.5 77.5t-67.5 202.5q0 116 61.5 194t170.5 78q108 0 161.5 -69t53.5 -188zM451 298v5q0 87 -42 138.5t-120 51.5q-83 0 -127 -56t-49 -139h338zM447 604h-49l-102 129
l-101 -129h-49l120 164h60z" />
    <glyph glyph-name="edieresis" unicode="&#xeb;" horiz-adv-x="557" 
d="M504 283v-32h-391q2 -94 55.5 -155t151.5 -61q81 0 140 25l10 -46q-67 -26 -152 -26q-126 0 -193.5 77.5t-67.5 202.5q0 116 61.5 194t170.5 78q108 0 161.5 -69t53.5 -188zM451 298v5q0 87 -42 138.5t-120 51.5q-83 0 -127 -56t-49 -139h338zM181 714h62v-73h-62v73z
M352 714h61v-73h-61v73z" />
    <glyph glyph-name="igrave" unicode="&#xec;" horiz-adv-x="237" 
d="M90 528h57v-528h-57v528zM102 604l-117 164h64l96 -164h-43z" />
    <glyph glyph-name="iacute" unicode="&#xed;" horiz-adv-x="237" 
d="M90 528h57v-528h-57v528zM252 768l-117 -164h-43l97 164h63z" />
    <glyph glyph-name="icircumflex" unicode="&#xee;" horiz-adv-x="237" 
d="M90 528h57v-528h-57v528zM269 604h-49l-102 129l-101 -129h-49l120 164h60z" />
    <glyph glyph-name="idieresis" unicode="&#xef;" horiz-adv-x="237" 
d="M90 528h57v-528h-57v528zM2 714h62v-73h-62v73zM173 714h61v-73h-61v73z" />
    <glyph glyph-name="eth" unicode="&#xf0;" horiz-adv-x="592" 
d="M164 584l132 55q-56 31 -128 43l18 48q100 -18 169 -66l122 51v-45l-85 -36q142 -130 142 -380q0 -121 -62 -193.5t-176 -72.5q-111 0 -174.5 69.5t-63.5 184.5q0 116 63.5 184.5t174.5 68.5q102 0 160 -66h1q-32 113 -120 182l-173 -72v45zM478 242q0 96 -48 151
t-134 55t-133.5 -57.5t-47.5 -148.5t47.5 -149t133.5 -58q87 0 134.5 57.5t47.5 149.5z" />
    <glyph glyph-name="ntilde" unicode="&#xf1;" horiz-adv-x="590" 
d="M90 528h55v-90h2q23 48 69.5 75t103.5 27q89 0 138 -52.5t49 -141.5v-346h-58v326q0 167 -141 167q-68 0 -114.5 -46.5t-46.5 -138.5v-308h-57v528zM319 703q44 -33 63 -33q40 0 43 67h43q-5 -110 -84 -110q-34 0 -79 34q-42 33 -63 33q-40 0 -43 -67h-43q2 51 23.5 80.5
t61.5 29.5q33 0 78 -34z" />
    <glyph glyph-name="ograve" unicode="&#xf2;" horiz-adv-x="591" 
d="M533 265q0 -127 -63 -202t-174 -75t-174.5 75t-63.5 202t63 201t175 74q111 0 174 -74t63 -201zM476 265q0 102 -45.5 165t-134.5 63t-135 -63t-46 -165t46.5 -166t134.5 -64q89 0 134.5 63.5t45.5 166.5zM293 604l-117 164h64l96 -164h-43z" />
    <glyph glyph-name="oacute" unicode="&#xf3;" horiz-adv-x="591" 
d="M533 265q0 -127 -63 -202t-174 -75t-174.5 75t-63.5 202t63 201t175 74q111 0 174 -74t63 -201zM476 265q0 102 -45.5 165t-134.5 63t-135 -63t-46 -165t46.5 -166t134.5 -64q89 0 134.5 63.5t45.5 166.5zM412 768l-117 -164h-43l97 164h63z" />
    <glyph glyph-name="ocircumflex" unicode="&#xf4;" horiz-adv-x="591" 
d="M533 265q0 -127 -63 -202t-174 -75t-174.5 75t-63.5 202t63 201t175 74q111 0 174 -74t63 -201zM476 265q0 102 -45.5 165t-134.5 63t-135 -63t-46 -165t46.5 -166t134.5 -64q89 0 134.5 63.5t45.5 166.5zM446 604h-49l-102 129l-101 -129h-49l120 164h60z" />
    <glyph glyph-name="otilde" unicode="&#xf5;" horiz-adv-x="591" 
d="M533 265q0 -127 -63 -202t-174 -75t-174.5 75t-63.5 202t63 201t175 74q111 0 174 -74t63 -201zM476 265q0 102 -45.5 165t-134.5 63t-135 -63t-46 -165t46.5 -166t134.5 -64q89 0 134.5 63.5t45.5 166.5zM302 703q44 -33 63 -33q40 0 43 67h43q-5 -110 -84 -110
q-34 0 -79 34q-42 33 -63 33q-40 0 -43 -67h-43q2 51 23.5 80.5t61.5 29.5q33 0 78 -34z" />
    <glyph glyph-name="odieresis" unicode="&#xf6;" horiz-adv-x="591" 
d="M533 265q0 -127 -63 -202t-174 -75t-174.5 75t-63.5 202t63 201t175 74q111 0 174 -74t63 -201zM476 265q0 102 -45.5 165t-134.5 63t-135 -63t-46 -165t46.5 -166t134.5 -64q89 0 134.5 63.5t45.5 166.5zM179 714h62v-73h-62v73zM350 714h61v-73h-61v73z" />
    <glyph glyph-name="divide" unicode="&#xf7;" horiz-adv-x="536" 
d="M491 293h-446v44h446v-44zM303 171v-72h-66v72h66zM303 530v-73h-66v73h66z" />
    <glyph glyph-name="oslash" unicode="&#xf8;" horiz-adv-x="591" 
d="M537 528l-60 -71q56 -73 56 -192q0 -127 -63 -202t-174 -75q-99 0 -162 61l-62 -74l-26 22l65 78q-53 71 -53 190q0 127 63 201t175 74q96 0 158 -57l57 68zM476 265q0 91 -35 149l-273 -324q47 -55 128 -55q89 0 134.5 63.5t45.5 166.5zM115 265q0 -87 33 -146l272 324
q-47 50 -124 50q-89 0 -135 -63t-46 -165z" />
    <glyph glyph-name="ugrave" unicode="&#xf9;" horiz-adv-x="590" 
d="M500 0h-55v90h-2q-23 -48 -69.5 -75t-103.5 -27q-89 0 -138 52.5t-49 141.5v346h57v-326q0 -167 142 -167q68 0 114.5 46.5t46.5 138.5v308h57v-528zM286 604l-117 164h64l96 -164h-43z" />
    <glyph glyph-name="uacute" unicode="&#xfa;" horiz-adv-x="590" 
d="M500 0h-55v90h-2q-23 -48 -69.5 -75t-103.5 -27q-89 0 -138 52.5t-49 141.5v346h57v-326q0 -167 142 -167q68 0 114.5 46.5t46.5 138.5v308h57v-528zM421 768l-117 -164h-43l97 164h63z" />
    <glyph glyph-name="ucircumflex" unicode="&#xfb;" horiz-adv-x="590" 
d="M500 0h-55v90h-2q-23 -48 -69.5 -75t-103.5 -27q-89 0 -138 52.5t-49 141.5v346h57v-326q0 -167 142 -167q68 0 114.5 46.5t46.5 138.5v308h57v-528zM445 604h-49l-102 129l-101 -129h-49l120 164h60z" />
    <glyph glyph-name="udieresis" unicode="&#xfc;" horiz-adv-x="590" 
d="M500 0h-55v90h-2q-23 -48 -69.5 -75t-103.5 -27q-89 0 -138 52.5t-49 141.5v346h57v-326q0 -167 142 -167q68 0 114.5 46.5t46.5 138.5v308h57v-528zM177 714h62v-73h-62v73zM348 714h61v-73h-61v73z" />
    <glyph glyph-name="yacute" unicode="&#xfd;" horiz-adv-x="485" 
d="M69 528l177 -454h2l170 454h61l-285 -723h-60l81 203l-208 520h62zM375 768l-117 -164h-43l97 164h63z" />
    <glyph glyph-name="thorn" unicode="&#xfe;" horiz-adv-x="602" 
d="M147 99v-294h-57v930h57v-311h2q24 51 71.5 83.5t107.5 32.5q100 0 158 -78t58 -197q0 -120 -59.5 -198.5t-160.5 -78.5q-58 0 -104 30.5t-71 80.5h-2zM487 265q0 99 -44 163.5t-123 64.5q-82 0 -129 -63t-47 -165q0 -101 47.5 -165.5t127.5 -64.5t124 65t44 165z" />
    <glyph glyph-name="ydieresis" unicode="&#xff;" horiz-adv-x="485" 
d="M69 528l177 -454h2l170 454h61l-285 -723h-60l81 203l-208 520h62zM131 714h62v-73h-62v73zM302 714h61v-73h-61v73z" />
    <glyph glyph-name="Amacron" unicode="&#x100;" horiz-adv-x="642" 
d="M156 227l-88 -227h-62l277 714h80l273 -714h-63l-89 227h-328zM322 670l-150 -393h297zM446 857v-45h-247v45h247z" />
    <glyph glyph-name="amacron" unicode="&#x101;" horiz-adv-x="546" 
d="M403 321v25q0 147 -144 147q-72 0 -138 -30l-13 48q74 29 154 29q198 0 198 -189v-224q0 -74 10 -127h-52q-8 39 -10 101h-2q-21 -50 -67.5 -81.5t-116.5 -31.5q-71 0 -119 40t-48 116q0 53 25.5 88.5t75 54.5t108.5 26.5t139 7.5zM403 278h-25q-59 0 -103.5 -5.5
t-83.5 -19.5t-60 -40.5t-21 -65.5q0 -51 30 -81.5t86 -30.5q87 0 132 56t45 137v50zM399 698v-45h-247v45h247z" />
    <glyph glyph-name="Abreve" unicode="&#x102;" horiz-adv-x="642" 
d="M156 227l-88 -227h-62l277 714h80l273 -714h-63l-89 227h-328zM322 670l-150 -393h297zM322 815q86 0 94 86h46q-6 -129 -140 -129q-70 0 -103.5 36t-35.5 93h46q3 -86 93 -86z" />
    <glyph glyph-name="abreve" unicode="&#x103;" horiz-adv-x="546" 
d="M403 321v25q0 147 -144 147q-72 0 -138 -30l-13 48q74 29 154 29q198 0 198 -189v-224q0 -74 10 -127h-52q-8 39 -10 101h-2q-21 -50 -67.5 -81.5t-116.5 -31.5q-71 0 -119 40t-48 116q0 53 25.5 88.5t75 54.5t108.5 26.5t139 7.5zM403 278h-25q-59 0 -103.5 -5.5
t-83.5 -19.5t-60 -40.5t-21 -65.5q0 -51 30 -81.5t86 -30.5q87 0 132 56t45 137v50zM276 655q47 0 68.5 22.5t25.5 63.5h46q-6 -128 -140 -128q-70 0 -103.5 35.5t-35.5 92.5h46q3 -86 93 -86z" />
    <glyph glyph-name="Aogonek" unicode="&#x104;" horiz-adv-x="642" 
d="M156 227l-88 -227h-62l277 714h80l273 -714h-25q-42 -47 -57 -73.5t-15 -50.5q0 -44 48 -44q28 0 56 13l6 -35q-29 -15 -70 -15q-37 0 -60.5 18.5t-23.5 54.5q0 30 16.5 60t61.5 72l-89 227h-328zM322 670l-150 -393h297z" />
    <glyph glyph-name="aogonek" unicode="&#x105;" horiz-adv-x="546" 
d="M403 321v25q0 147 -144 147q-72 0 -138 -30l-13 48q74 29 154 29q198 0 198 -189v-224q0 -74 10 -127h-19q-42 -47 -57 -73.5t-15 -50.5q0 -44 48 -44q28 0 56 13l6 -35q-29 -15 -70 -15q-37 0 -60.5 18.5t-23.5 54.5q0 31 17 61.5t65 74.5q-7 33 -9 97h-2
q-21 -50 -67.5 -81.5t-116.5 -31.5q-71 0 -119 40t-48 116q0 53 25.5 88.5t75 54.5t108.5 26.5t139 7.5zM403 278h-25q-59 0 -103.5 -5.5t-83.5 -19.5t-60 -40.5t-21 -65.5q0 -51 30 -81.5t86 -30.5q87 0 132 56t45 137v50z" />
    <glyph glyph-name="Cacute" unicode="&#x106;" horiz-adv-x="605" 
d="M567 691l-18 -47q-62 32 -146 32q-136 0 -210.5 -90t-74.5 -232q0 -137 74 -226.5t210 -89.5q90 0 156 37l17 -47q-75 -40 -176 -40q-159 0 -249 101.5t-90 265.5q0 108 38.5 190.5t117 131t187.5 49.5q97 2 164 -35zM419 903h67l-108 -134h-44z" />
    <glyph glyph-name="cacute" unicode="&#x107;" horiz-adv-x="475" 
d="M435 520l-13 -47q-44 20 -103 20q-96 0 -150 -65t-54 -164t54 -164t149 -65q59 0 107 20l10 -46q-53 -21 -118 -21q-123 0 -191 77.5t-68 198.5t70 198.5t190 77.5q65 0 117 -20zM435 768l-117 -164h-43l97 164h63z" />
    <glyph glyph-name="Ccircumflex" unicode="&#x108;" horiz-adv-x="605" 
d="M567 691l-18 -47q-62 32 -146 32q-136 0 -210.5 -90t-74.5 -232q0 -137 74 -226.5t210 -89.5q90 0 156 37l17 -47q-75 -40 -176 -40q-159 0 -249 101.5t-90 265.5q0 108 38.5 190.5t117 131t187.5 49.5q97 2 164 -35zM529 762h-49l-102 111l-101 -111h-49l120 146h60z
" />
    <glyph glyph-name="ccircumflex" unicode="&#x109;" horiz-adv-x="475" 
d="M435 520l-13 -47q-44 20 -103 20q-96 0 -150 -65t-54 -164t54 -164t149 -65q59 0 107 20l10 -46q-53 -21 -118 -21q-123 0 -191 77.5t-68 198.5t70 198.5t190 77.5q65 0 117 -20zM452 604h-49l-102 129l-101 -129h-49l120 164h60z" />
    <glyph glyph-name="Cdotaccent" unicode="&#x10a;" horiz-adv-x="605" 
d="M567 691l-18 -47q-62 32 -146 32q-136 0 -210.5 -90t-74.5 -232q0 -137 74 -226.5t210 -89.5q90 0 156 37l17 -47q-75 -40 -176 -40q-159 0 -249 101.5t-90 265.5q0 108 38.5 190.5t117 131t187.5 49.5q97 2 164 -35zM347 874h69v-75h-69v75z" />
    <glyph glyph-name="cdotaccent" unicode="&#x10b;" horiz-adv-x="475" 
d="M435 520l-13 -47q-44 20 -103 20q-96 0 -150 -65t-54 -164t54 -164t149 -65q59 0 107 20l10 -46q-53 -21 -118 -21q-123 0 -191 77.5t-68 198.5t70 198.5t190 77.5q65 0 117 -20zM274 717h69v-75h-69v75z" />
    <glyph glyph-name="Ccaron" unicode="&#x10c;" horiz-adv-x="605" 
d="M567 691l-18 -47q-62 32 -146 32q-136 0 -210.5 -90t-74.5 -232q0 -137 74 -226.5t210 -89.5q90 0 156 37l17 -47q-75 -40 -176 -40q-159 0 -249 101.5t-90 265.5q0 108 38.5 190.5t117 131t187.5 49.5q97 2 164 -35zM484 906h49l-120 -146h-60l-121 146h49l102 -110z
" />
    <glyph glyph-name="ccaron" unicode="&#x10d;" horiz-adv-x="475" 
d="M435 520l-13 -47q-44 20 -103 20q-96 0 -150 -65t-54 -164t54 -164t149 -65q59 0 107 20l10 -46q-53 -21 -118 -21q-123 0 -191 77.5t-68 198.5t70 198.5t190 77.5q65 0 117 -20zM407 766h49l-120 -164h-60l-121 164h49l102 -129z" />
    <glyph glyph-name="Dcaron" unicode="&#x10e;" horiz-adv-x="687" 
d="M95 0v714h180q166 1 260.5 -92.5t94.5 -264.5q0 -172 -94 -264.5t-261 -92.5h-180zM153 664v-614h114q150 0 227.5 79.5t77.5 227.5t-78 227.5t-227 79.5h-114zM389 906h49l-120 -146h-60l-121 146h49l102 -110z" />
    <glyph glyph-name="dcaron" unicode="&#x10f;" horiz-adv-x="602" 
d="M456 429v306h57v-735h-56v104h-2q-26 -52 -73.5 -84t-107.5 -32q-100 0 -158 78.5t-58 198.5q0 119 59.5 197t159.5 78q119 0 177 -111h2zM115 265q0 -100 44 -165t123 -65q81 0 129 64t48 165t-48.5 165t-127.5 64q-80 0 -124 -64.5t-44 -163.5zM654 768l-37 -164h-36
l19 164h54z" />
    <glyph glyph-name="Dcroat" unicode="&#x110;" horiz-adv-x="687" 
d="M290 349h-137v-299h114q149 0 227 79.5t78 227.5t-78 227.5t-227 79.5h-114v-276h137v-39zM21 388h74v326h180q167 0 261 -92.5t94 -264.5t-94 -264.5t-261 -92.5h-180v349h-74v39z" />
    <glyph glyph-name="dcroat" unicode="&#x111;" horiz-adv-x="602" 
d="M455 429v183h-120v41h120v82h57v-82h44v-41h-44v-612h-55v104h-2q-26 -52 -73.5 -84t-107.5 -32q-100 0 -158 78.5t-58 198.5q0 119 59.5 197t159.5 78q118 0 176 -111h2zM115 265q0 -100 44 -165t123 -65q81 0 128.5 63.5t47.5 165.5q0 101 -48 165t-127 64
q-80 0 -124 -64.5t-44 -163.5z" />
    <glyph glyph-name="Emacron" unicode="&#x112;" horiz-adv-x="536" 
d="M95 0v714h380v-50h-322v-271h299v-50h-299v-293h331v-50h-389zM415 857v-45h-247v45h247z" />
    <glyph glyph-name="emacron" unicode="&#x113;" horiz-adv-x="557" 
d="M504 283v-32h-391q2 -94 55.5 -155t151.5 -61q81 0 140 25l10 -46q-67 -26 -152 -26q-126 0 -193.5 77.5t-67.5 202.5q0 116 61.5 194t170.5 78q108 0 161.5 -69t53.5 -188zM451 298v5q0 87 -42 138.5t-120 51.5q-83 0 -127 -56t-49 -139h338zM421 698v-45h-247v45h247z
" />
    <glyph glyph-name="Ebreve" unicode="&#x114;" horiz-adv-x="536" 
d="M95 0v714h380v-50h-322v-271h299v-50h-299v-293h331v-50h-389zM287 815q86 0 94 86h46q-6 -129 -140 -129q-70 0 -103.5 36t-35.5 93h46q3 -86 93 -86z" />
    <glyph glyph-name="ebreve" unicode="&#x115;" horiz-adv-x="557" 
d="M504 283v-32h-391q2 -94 55.5 -155t151.5 -61q81 0 140 25l10 -46q-67 -26 -152 -26q-126 0 -193.5 77.5t-67.5 202.5q0 116 61.5 194t170.5 78q108 0 161.5 -69t53.5 -188zM451 298v5q0 87 -42 138.5t-120 51.5q-83 0 -127 -56t-49 -139h338zM294 655q47 0 68.5 22.5
t25.5 63.5h46q-6 -128 -140 -128q-70 0 -103.5 35.5t-35.5 92.5h46q3 -86 93 -86z" />
    <glyph glyph-name="Edotaccent" unicode="&#x116;" horiz-adv-x="536" 
d="M95 0v714h380v-50h-322v-271h299v-50h-299v-293h331v-50h-389zM258 874h69v-75h-69v75z" />
    <glyph glyph-name="edotaccent" unicode="&#x117;" horiz-adv-x="557" 
d="M504 283v-32h-391q2 -94 55.5 -155t151.5 -61q81 0 140 25l10 -46q-67 -26 -152 -26q-126 0 -193.5 77.5t-67.5 202.5q0 116 61.5 194t170.5 78q108 0 161.5 -69t53.5 -188zM451 298v5q0 87 -42 138.5t-120 51.5q-83 0 -127 -56t-49 -139h338zM259 717h69v-75h-69v75z
" />
    <glyph glyph-name="Eogonek" unicode="&#x118;" horiz-adv-x="536" 
d="M95 0v714h380v-50h-322v-271h299v-50h-299v-293h331v-50h-30q-42 -47 -57 -73.5t-15 -50.5q0 -44 48 -44q28 0 56 13l6 -35q-29 -15 -70 -15q-37 0 -60.5 18.5t-23.5 54.5q0 59 77 132h-320z" />
    <glyph glyph-name="eogonek" unicode="&#x119;" horiz-adv-x="557" 
d="M504 283v-32h-390q2 -94 55.5 -155t150.5 -61q81 0 140 25l10 -46l-17 -6q-47 -51 -63.5 -79t-16.5 -53q0 -44 48 -44q28 0 56 13l6 -35q-29 -15 -70 -15q-37 0 -60.5 18.5t-23.5 54.5q0 58 72 128q-43 -8 -83 -8q-126 0 -193.5 77.5t-67.5 202.5q0 116 61.5 194
t170.5 78q108 0 161.5 -69t53.5 -188zM451 298v5q0 87 -42 138.5t-120 51.5q-83 0 -126.5 -56t-48.5 -139h337z" />
    <glyph glyph-name="Ecaron" unicode="&#x11a;" horiz-adv-x="536" 
d="M95 0v714h380v-50h-322v-271h299v-50h-299v-293h331v-50h-389zM389 906h49l-120 -146h-60l-121 146h49l102 -110z" />
    <glyph glyph-name="ecaron" unicode="&#x11b;" horiz-adv-x="557" 
d="M504 283v-32h-391q2 -94 55.5 -155t151.5 -61q81 0 140 25l10 -46q-67 -26 -152 -26q-126 0 -193.5 77.5t-67.5 202.5q0 116 61.5 194t170.5 78q108 0 161.5 -69t53.5 -188zM451 298v5q0 87 -42 138.5t-120 51.5q-83 0 -127 -56t-49 -139h338zM396 766h49l-120 -164h-60
l-121 164h49l102 -129z" />
    <glyph glyph-name="Gcircumflex" unicode="&#x11c;" horiz-adv-x="709" 
d="M605 686l-18 -51q-77 41 -171 41q-141 0 -219.5 -90.5t-78.5 -228.5q0 -137 79 -228t218 -91q88 0 150 35v251h-165v50h223v-334q-96 -52 -212 -52q-162 0 -256.5 103.5t-94.5 267.5q0 162 96 264.5t261 102.5q106 0 188 -40zM552 762h-49l-102 111l-101 -111h-49
l120 146h60z" />
    <glyph glyph-name="gcircumflex" unicode="&#x11d;" horiz-adv-x="601" 
d="M513 528v-503q0 -107 -64 -163.5t-172 -56.5q-91 0 -157 28l12 47q64 -28 145 -28q90 0 135.5 45t45.5 131v89h-2q-26 -50 -72 -80.5t-107 -30.5q-102 0 -160.5 75t-58.5 192q0 116 60 191.5t161 75.5q61 0 106.5 -29.5t70.5 -80.5h2v98h55zM115 273q0 -97 44 -158.5
t125 -61.5t128 60.5t47 159.5t-47.5 159.5t-126.5 60.5q-81 0 -125.5 -61.5t-44.5 -158.5zM449 604h-49l-102 129l-101 -129h-49l120 164h60z" />
    <glyph glyph-name="Gbreve" unicode="&#x11e;" horiz-adv-x="709" 
d="M605 686l-18 -51q-77 41 -171 41q-141 0 -219.5 -90.5t-78.5 -228.5q0 -137 79 -228t218 -91q88 0 150 35v251h-165v50h223v-334q-96 -52 -212 -52q-162 0 -256.5 103.5t-94.5 267.5q0 162 96 264.5t261 102.5q106 0 188 -40zM402 815q86 0 94 86h46q-6 -129 -140 -129
q-70 0 -103.5 36t-35.5 93h46q3 -86 93 -86z" />
    <glyph glyph-name="gbreve" unicode="&#x11f;" horiz-adv-x="601" 
d="M513 528v-503q0 -107 -64 -163.5t-172 -56.5q-91 0 -157 28l12 47q64 -28 145 -28q90 0 135.5 45t45.5 131v89h-2q-26 -50 -72 -80.5t-107 -30.5q-102 0 -160.5 75t-58.5 192q0 116 60 191.5t161 75.5q61 0 106.5 -29.5t70.5 -80.5h2v98h55zM115 273q0 -97 44 -158.5
t125 -61.5t128 60.5t47 159.5t-47.5 159.5t-126.5 60.5q-81 0 -125.5 -61.5t-44.5 -158.5zM288 655q47 0 68.5 22.5t25.5 63.5h46q-6 -128 -140 -128q-70 0 -103.5 35.5t-35.5 92.5h46q3 -86 93 -86z" />
    <glyph glyph-name="Gdotaccent" unicode="&#x120;" horiz-adv-x="709" 
d="M605 686l-18 -51q-77 41 -171 41q-141 0 -219.5 -90.5t-78.5 -228.5q0 -137 79 -228t218 -91q88 0 150 35v251h-165v50h223v-334q-96 -52 -212 -52q-162 0 -256.5 103.5t-94.5 267.5q0 162 96 264.5t261 102.5q106 0 188 -40zM371 874h69v-75h-69v75z" />
    <glyph glyph-name="gdotaccent" unicode="&#x121;" horiz-adv-x="601" 
d="M513 528v-503q0 -107 -64 -163.5t-172 -56.5q-91 0 -157 28l12 47q64 -28 145 -28q90 0 135.5 45t45.5 131v89h-2q-26 -50 -72 -80.5t-107 -30.5q-102 0 -160.5 75t-58.5 192q0 116 60 191.5t161 75.5q61 0 106.5 -29.5t70.5 -80.5h2v98h55zM115 273q0 -97 44 -158.5
t125 -61.5t128 60.5t47 159.5t-47.5 159.5t-126.5 60.5q-81 0 -125.5 -61.5t-44.5 -158.5zM256 717h69v-75h-69v75z" />
    <glyph glyph-name="Gcommaaccent" unicode="&#x122;" horiz-adv-x="709" 
d="M605 686l-18 -51q-77 41 -171 41q-141 0 -219.5 -90.5t-78.5 -228.5q0 -137 79 -228t218 -91q88 0 150 35v251h-165v50h223v-334q-96 -52 -212 -52q-162 0 -256.5 103.5t-94.5 267.5q0 162 96 264.5t261 102.5q106 0 188 -40zM424 -58l-73 -156h-41l50 156h64z" />
    <glyph glyph-name="gcommaaccent" unicode="&#x123;" horiz-adv-x="601" 
d="M513 528v-503q0 -107 -64 -163.5t-172 -56.5q-91 0 -157 28l12 47q64 -28 145 -28q90 0 135.5 45t45.5 131v89h-2q-26 -50 -72 -80.5t-107 -30.5q-102 0 -160.5 75t-58.5 192q0 116 60 191.5t161 75.5q61 0 106.5 -29.5t70.5 -80.5h2v98h55zM115 273q0 -97 44 -158.5
t125 -61.5t128 60.5t47 159.5t-47.5 159.5t-126.5 60.5q-81 0 -125.5 -61.5t-44.5 -158.5zM248 604l76 164h41l-53 -164h-64z" />
    <glyph glyph-name="Hcircumflex" unicode="&#x124;" horiz-adv-x="685" 
d="M95 0v714h58v-321h379v321h58v-714h-58v343h-379v-343h-58zM493 762h-49l-102 111l-101 -111h-49l120 146h60z" />
    <glyph glyph-name="hcircumflex" unicode="&#x125;" horiz-adv-x="590" 
d="M90 735h57v-297h2q23 48 68.5 75t102.5 27q89 0 138 -52.5t49 -141.5v-346h-57v326q0 167 -142 167q-68 0 -114.5 -46.5t-46.5 -138.5v-308h-57v735zM434 783h-49l-102 111l-101 -111h-49l120 146h60z" />
    <glyph glyph-name="Hbar" unicode="&#x126;" horiz-adv-x="685" 
d="M95 0v564h-79v42h79v108h58v-108h379v108h58v-108h79v-42h-79v-564h-58v343h-379v-343h-58zM153 393h379v171h-379v-171z" />
    <glyph glyph-name="hbar" unicode="&#x127;" horiz-adv-x="590" 
d="M256 612h-109v-174h2q23 48 68.5 75t102.5 27q89 0 138 -52.5t49 -141.5v-346h-57v326q0 167 -142 167q-68 0 -114.5 -46.5t-46.5 -138.5v-308h-57v612h-55v41h55v82h57v-82h109v-41z" />
    <glyph glyph-name="Itilde" unicode="&#x128;" horiz-adv-x="248" 
d="M95 0v714h58v-714h-58zM131 856q43 -32 63 -32q40 0 43 67h43q-5 -111 -84 -111q-34 0 -79 34q-40 33 -63 33q-40 0 -43 -67h-43q2 51 23.5 81t61.5 30q34 0 78 -35z" />
    <glyph glyph-name="itilde" unicode="&#x129;" horiz-adv-x="237" 
d="M90 528h57v-528h-57v528zM125 703q44 -33 63 -33q40 0 43 67h43q-5 -110 -84 -110q-34 0 -79 34q-42 33 -63 33q-40 0 -43 -67h-43q2 51 23.5 80.5t61.5 29.5q33 0 78 -34z" />
    <glyph glyph-name="Imacron" unicode="&#x12a;" horiz-adv-x="248" 
d="M95 0v714h58v-714h-58zM248 857v-45h-247v45h247z" />
    <glyph glyph-name="imacron" unicode="&#x12b;" horiz-adv-x="237" 
d="M90 528h57v-528h-57v528zM242 698v-45h-247v45h247z" />
    <glyph glyph-name="Ibreve" unicode="&#x12c;" horiz-adv-x="248" 
d="M95 0v714h58v-714h-58zM123 815q86 0 94 86h46q-6 -129 -140 -129q-70 0 -103.5 36t-35.5 93h46q3 -86 93 -86z" />
    <glyph glyph-name="ibreve" unicode="&#x12d;" horiz-adv-x="237" 
d="M90 528h57v-528h-57v528zM119 655q47 0 68.5 22.5t25.5 63.5h46q-6 -128 -140 -128q-70 0 -103.5 35.5t-35.5 92.5h46q3 -86 93 -86z" />
    <glyph glyph-name="Iogonek" unicode="&#x12e;" horiz-adv-x="248" 
d="M153 0h-20q-43 -47 -58 -73.5t-15 -50.5q0 -44 48 -44q28 0 56 13l6 -35q-29 -15 -70 -15q-37 0 -60.5 18.5t-23.5 54.5q0 30 16.5 60t62.5 72v714h58v-714z" />
    <glyph glyph-name="iogonek" unicode="&#x12f;" horiz-adv-x="237" 
d="M90 528h57v-528h-12q-42 -47 -57 -73.5t-15 -50.5q0 -44 48 -44q28 0 56 13l6 -35q-29 -15 -70 -15q-37 0 -60.5 18.5t-23.5 54.5q0 59 77 132h-6v528zM86 727h65v-69h-65v69z" />
    <glyph glyph-name="Idotaccent" unicode="&#x130;" horiz-adv-x="248" 
d="M95 0v714h58v-714h-58zM89 874h69v-75h-69v75z" />
    <glyph glyph-name="dotlessi" unicode="&#x131;" horiz-adv-x="237" 
d="M90 528h57v-528h-57v528z" />
    <glyph glyph-name="Jcircumflex" unicode="&#x134;" horiz-adv-x="301" 
d="M217 714v-575q0 -151 -141 -151q-40 0 -69 6v50q29 -6 60 -6q49 1 70.5 25t21.5 78v573h58zM336 762h-49l-102 111l-101 -111h-49l120 146h60z" />
    <glyph glyph-name="jcircumflex" unicode="&#x135;" horiz-adv-x="237" 
d="M147 528v-577q0 -146 -134 -146q-23 0 -47 4v46q24 -3 41 -3q48 0 65.5 26t17.5 82v568h57zM268 604h-49l-102 129l-101 -129h-49l120 164h60z" />
    <glyph glyph-name="Kcommaaccent" unicode="&#x136;" horiz-adv-x="563" 
d="M464 714h76l-323 -342l339 -372h-77l-324 359h-2v-359h-58v714h58v-334h2zM327 -58l-73 -156h-41l50 156h64z" />
    <glyph glyph-name="kcommaaccent" unicode="&#x137;" horiz-adv-x="487" 
d="M386 528h75l-252 -237l264 -291h-76l-248 278h-2v-278h-57v735h57v-436h2zM289 -58l-73 -156h-41l50 156h64z" />
    <glyph glyph-name="kgreenlandic" unicode="&#x138;" horiz-adv-x="487" 
d="M386 528h75l-252 -237l264 -291h-76l-248 278h-2v-278h-57v528h57v-229h2z" />
    <glyph glyph-name="Lacute" unicode="&#x139;" horiz-adv-x="470" 
d="M95 0v714h58v-664h303v-50h-361zM187 903h67l-108 -134h-44z" />
    <glyph glyph-name="lacute" unicode="&#x13a;" horiz-adv-x="237" 
d="M90 735h57v-735h-57v735zM180 924h67l-108 -134h-44z" />
    <glyph glyph-name="Lcommaaccent" unicode="&#x13b;" horiz-adv-x="470" 
d="M95 0v714h58v-664h303v-50h-361zM297 -58l-73 -156h-41l50 156h64z" />
    <glyph glyph-name="lcommaaccent" unicode="&#x13c;" horiz-adv-x="237" 
d="M90 735h57v-735h-57v735zM152 -58l-73 -156h-41l50 156h64z" />
    <glyph glyph-name="Lcaron" unicode="&#x13d;" horiz-adv-x="470" 
d="M95 0v714h58v-664h303v-50h-361zM311 768l-37 -164h-36l19 164h54z" />
    <glyph glyph-name="lcaron" unicode="&#x13e;" horiz-adv-x="237" 
d="M90 735h57v-735h-57v735zM285 768l-37 -164h-36l19 164h54z" />
    <glyph glyph-name="Ldot" unicode="&#x13f;" horiz-adv-x="480" 
d="M95 0v714h58v-664h303v-50h-361zM329 416h69v-75h-69v75z" />
    <glyph glyph-name="ldot" unicode="&#x140;" horiz-adv-x="346" 
d="M90 735h57v-735h-57v735zM257 416h69v-75h-69v75z" />
    <glyph glyph-name="Lslash" unicode="&#x141;" horiz-adv-x="470" 
d="M95 0v333l-71 -45v45l71 45v336h58v-301l114 75v-44l-114 -76v-318h303v-50h-361z" />
    <glyph glyph-name="lslash" unicode="&#x142;" horiz-adv-x="249" 
d="M224 464l-71 -52v-412h-57v371l-70 -51v46l70 50v319h57v-278l71 52v-45z" />
    <glyph glyph-name="Nacute" unicode="&#x143;" horiz-adv-x="691" 
d="M185 714l354 -654h2v654h55v-714h-89l-355 656h-2v-656h-55v714h90zM395 903h67l-108 -134h-44z" />
    <glyph glyph-name="nacute" unicode="&#x144;" horiz-adv-x="590" 
d="M90 528h55v-90h2q23 48 69.5 75t103.5 27q89 0 138 -52.5t49 -141.5v-346h-58v326q0 167 -141 167q-68 0 -114.5 -46.5t-46.5 -138.5v-308h-57v528zM426 768l-117 -164h-43l97 164h63z" />
    <glyph glyph-name="Ncommaaccent" unicode="&#x145;" horiz-adv-x="691" 
d="M185 714l354 -654h2v654h55v-714h-89l-355 656h-2v-656h-55v714h90zM380 -58l-73 -156h-41l50 156h64z" />
    <glyph glyph-name="ncommaaccent" unicode="&#x146;" horiz-adv-x="590" 
d="M90 528h55v-90h2q23 48 69.5 75t103.5 27q89 0 138 -52.5t49 -141.5v-346h-58v326q0 167 -141 167q-68 0 -114.5 -46.5t-46.5 -138.5v-308h-57v528zM337 -58l-73 -156h-41l50 156h64z" />
    <glyph glyph-name="Ncaron" unicode="&#x147;" horiz-adv-x="691" 
d="M185 714l354 -654h2v654h55v-714h-89l-355 656h-2v-656h-55v714h90zM456 906h49l-120 -146h-60l-121 146h49l102 -110z" />
    <glyph glyph-name="ncaron" unicode="&#x148;" horiz-adv-x="590" 
d="M90 528h55v-90h2q23 48 69.5 75t103.5 27q89 0 138 -52.5t49 -141.5v-346h-58v326q0 167 -141 167q-68 0 -114.5 -46.5t-46.5 -138.5v-308h-57v528zM416 766h49l-120 -164h-60l-121 164h49l102 -129z" />
    <glyph glyph-name="Eng" unicode="&#x14a;" horiz-adv-x="691" 
d="M185 714l354 -654h2v654h55v-763q0 -146 -134 -146q-23 0 -47 4v46q24 -3 41 -3q48 0 65.5 26t17.5 82v40h-32l-355 656h-2v-656h-55v714h90z" />
    <glyph glyph-name="eng" unicode="&#x14b;" horiz-adv-x="590" 
d="M90 528h55v-90h2q23 48 69.5 75t103.5 27q89 0 138 -52.5t49 -141.5v-395q0 -146 -134 -146q-23 0 -47 4v46q24 -3 41 -3q48 0 65.5 26t17.5 82v366q0 167 -142 167q-68 0 -114.5 -46.5t-46.5 -138.5v-308h-57v528z" />
    <glyph glyph-name="Omacron" unicode="&#x14c;" horiz-adv-x="747" 
d="M684 356q0 -164 -83 -266t-227 -102q-145 0 -228 101.5t-83 266.5q0 166 82.5 268t228.5 102t228 -102t82 -268zM626 356q0 139 -66 229.5t-186 90.5q-121 0 -187 -90.5t-66 -229.5q0 -138 65.5 -228t187.5 -90q121 0 186.5 90.5t65.5 227.5zM497 857v-45h-247v45h247z
" />
    <glyph glyph-name="omacron" unicode="&#x14d;" horiz-adv-x="591" 
d="M533 265q0 -127 -63 -202t-174 -75t-174.5 75t-63.5 202t63 201t175 74q111 0 174 -74t63 -201zM476 265q0 102 -45.5 165t-134.5 63t-135 -63t-46 -165t46.5 -166t134.5 -64q89 0 134.5 63.5t45.5 166.5zM419 698v-45h-247v45h247z" />
    <glyph glyph-name="Obreve" unicode="&#x14e;" horiz-adv-x="747" 
d="M684 356q0 -164 -83 -266t-227 -102q-145 0 -228 101.5t-83 266.5q0 166 82.5 268t228.5 102t228 -102t82 -268zM626 356q0 139 -66 229.5t-186 90.5q-121 0 -187 -90.5t-66 -229.5q0 -138 65.5 -228t187.5 -90q121 0 186.5 90.5t65.5 227.5zM373 815q86 0 94 86h46
q-6 -129 -140 -129q-70 0 -103.5 36t-35.5 93h46q3 -86 93 -86z" />
    <glyph glyph-name="obreve" unicode="&#x14f;" horiz-adv-x="591" 
d="M533 265q0 -127 -63 -202t-174 -75t-174.5 75t-63.5 202t63 201t175 74q111 0 174 -74t63 -201zM476 265q0 102 -45.5 165t-134.5 63t-135 -63t-46 -165t46.5 -166t134.5 -64q89 0 134.5 63.5t45.5 166.5zM295 655q47 0 68.5 22.5t25.5 63.5h46q-6 -128 -140 -128
q-70 0 -103.5 35.5t-35.5 92.5h46q3 -86 93 -86z" />
    <glyph glyph-name="Ohungarumlaut" unicode="&#x150;" horiz-adv-x="747" 
d="M684 356q0 -164 -83 -266t-227 -102q-145 0 -228 101.5t-83 266.5q0 166 82.5 268t228.5 102t228 -102t82 -268zM626 356q0 139 -66 229.5t-186 90.5q-121 0 -187 -90.5t-66 -229.5q0 -138 65.5 -228t187.5 -90q121 0 186.5 90.5t65.5 227.5zM417 905l-89 -137h-44
l69 137h64zM543 905l-97 -137h-45l75 137h67z" />
    <glyph glyph-name="ohungarumlaut" unicode="&#x151;" horiz-adv-x="591" 
d="M533 265q0 -127 -63 -202t-174 -75t-174.5 75t-63.5 202t63 201t175 74q111 0 174 -74t63 -201zM476 265q0 102 -45.5 165t-134.5 63t-135 -63t-46 -165t46.5 -166t134.5 -64q89 0 134.5 63.5t45.5 166.5zM348 768l-99 -164h-42l78 164h63zM474 768l-107 -164h-43l84 164
h66z" />
    <glyph glyph-name="OE" unicode="&#x152;" horiz-adv-x="945" 
d="M62 357q0 171 94 264t261 93h467v-50h-318v-271h295v-50h-295v-293h327v-50h-476q-167 0 -261 92.5t-94 264.5zM508 50v614h-83q-149 0 -227 -80t-78 -227t78 -227t227 -80h83z" />
    <glyph glyph-name="oe" unicode="&#x153;" horiz-adv-x="973" 
d="M920 283v-32h-392q3 -94 56.5 -155t150.5 -61q82 0 141 25l10 -46q-68 -26 -153 -26q-87 0 -144.5 40t-84.5 109q-23 -69 -76.5 -109t-132.5 -40q-111 0 -174.5 75t-63.5 202t63.5 201t174.5 74q77 0 130 -37.5t78 -106.5q57 144 202 144q108 0 161.5 -69t53.5 -188z
M295 35q89 0 135 63.5t46 165.5q0 104 -46.5 166.5t-134.5 62.5q-89 0 -135 -63t-46 -165q0 -103 46.5 -166.5t134.5 -63.5zM867 298v5q0 86 -42 138t-120 52q-83 0 -127 -56t-50 -139h339z" />
    <glyph glyph-name="Racute" unicode="&#x154;" horiz-adv-x="613" 
d="M95 0v714h231q102 0 159.5 -45t57.5 -140q0 -67 -37 -110t-99 -57v-2q41 -10 65 -40.5t43 -96.5q28 -98 67 -223h-62q-9 29 -31.5 110.5t-30.5 108.5q-21 69 -52.5 92.5t-107.5 23.5h-145v-335h-58zM153 664v-279h159q82 0 127.5 36t45.5 105q0 77 -45 107.5t-124 30.5
h-163zM339 903h67l-108 -134h-44z" />
    <glyph glyph-name="racute" unicode="&#x155;" horiz-adv-x="339" 
d="M330 538l-3 -48q-18 3 -41 3q-63 0 -101 -47t-38 -136v-310h-57v528h55v-89h2q17 47 55 74t90 27q25 0 38 -2zM315 768l-117 -164h-43l97 164h63z" />
    <glyph glyph-name="Rcommaaccent" unicode="&#x156;" horiz-adv-x="613" 
d="M95 0v714h231q102 0 159.5 -45t57.5 -140q0 -67 -37 -110t-99 -57v-2q41 -10 65 -40.5t43 -96.5q28 -98 67 -223h-62q-9 29 -31.5 110.5t-30.5 108.5q-21 69 -52.5 92.5t-107.5 23.5h-145v-335h-58zM153 664v-279h159q82 0 127.5 36t45.5 105q0 77 -45 107.5t-124 30.5
h-163zM345 -58l-73 -156h-41l50 156h64z" />
    <glyph glyph-name="rcommaaccent" unicode="&#x157;" horiz-adv-x="339" 
d="M330 538l-3 -48q-18 3 -41 3q-63 0 -101 -47t-38 -136v-310h-57v528h55v-89h2q17 47 55 74t90 27q25 0 38 -2zM155 -58l-73 -156h-41l50 156h64z" />
    <glyph glyph-name="Rcaron" unicode="&#x158;" horiz-adv-x="613" 
d="M95 0v714h231q102 0 159.5 -45t57.5 -140q0 -67 -37 -110t-99 -57v-2q41 -10 65 -40.5t43 -96.5q28 -98 67 -223h-62q-9 29 -31.5 110.5t-30.5 108.5q-21 69 -52.5 92.5t-107.5 23.5h-145v-335h-58zM153 664v-279h159q82 0 127.5 36t45.5 105q0 77 -45 107.5t-124 30.5
h-163zM407 906h49l-120 -146h-60l-121 146h49l102 -110z" />
    <glyph glyph-name="rcaron" unicode="&#x159;" horiz-adv-x="339" 
d="M330 538l-3 -48q-18 3 -41 3q-63 0 -101 -47t-38 -136v-310h-57v528h55v-89h2q17 47 55 74t90 27q25 0 38 -2zM295 766h49l-120 -164h-60l-121 164h49l102 -129z" />
    <glyph glyph-name="Sacute" unicode="&#x15a;" horiz-adv-x="529" 
d="M451 694l-16 -50q-73 32 -156 32q-69 0 -116 -31t-47 -96q0 -56 36 -89t121 -67q106 -42 156.5 -88.5t50.5 -125.5q0 -94 -64.5 -142.5t-163.5 -48.5q-109 0 -204 45l16 52q88 -47 189 -47q77 0 123 35t46 102q0 60 -43.5 96t-137.5 74q-94 39 -138.5 84t-44.5 117
q0 88 65.5 134t156.5 46q97 0 171 -32zM323 903h67l-108 -134h-44z" />
    <glyph glyph-name="sacute" unicode="&#x15b;" horiz-adv-x="456" 
d="M378 511l-15 -45q-55 27 -127 27q-51 0 -84.5 -21t-33.5 -67q0 -41 26.5 -63.5t92.5 -47.5q83 -30 123 -64.5t40 -95.5q0 -73 -51.5 -109.5t-129.5 -36.5q-95 0 -168 38l16 46q76 -37 156 -37q120 0 120 96q0 42 -32.5 67.5t-102.5 51.5q-75 28 -111 61t-36 89
q0 68 51.5 104t123.5 36q85 0 142 -29zM361 768l-117 -164h-43l97 164h63z" />
    <glyph glyph-name="Scircumflex" unicode="&#x15c;" horiz-adv-x="529" 
d="M451 694l-16 -50q-73 32 -156 32q-69 0 -116 -31t-47 -96q0 -56 36 -89t121 -67q106 -42 156.5 -88.5t50.5 -125.5q0 -94 -64.5 -142.5t-163.5 -48.5q-109 0 -204 45l16 52q88 -47 189 -47q77 0 123 35t46 102q0 60 -43.5 96t-137.5 74q-94 39 -138.5 84t-44.5 117
q0 88 65.5 134t156.5 46q97 0 171 -32zM419 762h-49l-102 111l-101 -111h-49l120 146h60z" />
    <glyph glyph-name="scircumflex" unicode="&#x15d;" horiz-adv-x="456" 
d="M378 511l-15 -45q-55 27 -127 27q-51 0 -84.5 -21t-33.5 -67q0 -41 26.5 -63.5t92.5 -47.5q83 -30 123 -64.5t40 -95.5q0 -73 -51.5 -109.5t-129.5 -36.5q-95 0 -168 38l16 46q76 -37 156 -37q120 0 120 96q0 42 -32.5 67.5t-102.5 51.5q-75 28 -111 61t-36 89
q0 68 51.5 104t123.5 36q85 0 142 -29zM387 604h-49l-102 129l-101 -129h-49l120 164h60z" />
    <glyph glyph-name="Scedilla" unicode="&#x15e;" horiz-adv-x="529" 
d="M451 694l-16 -50q-73 32 -156 32q-69 0 -116 -31t-47 -96q0 -56 36.5 -89t121.5 -67q106 -42 156 -88t50 -126q0 -92 -61.5 -140.5t-156.5 -50.5l-10 -52q12 3 29 3q36 0 58 -18t22 -51q0 -40 -30 -61t-76 -21q-30 0 -55 5l4 34q20 -4 46 -4q68 0 68 45q0 38 -58 38
q-23 0 -47 -3l12 86q-101 7 -177 44l16 52q88 -47 189 -47q77 0 123 35t46 102q0 60 -43.5 96t-137.5 74q-94 39 -138.5 84t-44.5 117q0 88 65.5 134t156.5 46q97 0 171 -32z" />
    <glyph glyph-name="scedilla" unicode="&#x15f;" horiz-adv-x="456" 
d="M378 511l-15 -45q-55 27 -127 27q-51 0 -84.5 -21t-33.5 -67q0 -41 26.5 -63.5t92.5 -47.5q83 -30 123 -64.5t40 -95.5q0 -71 -47.5 -107t-121.5 -39l-10 -52q12 3 29 3q36 0 58 -18t22 -51q0 -40 -30 -61t-76 -21q-30 0 -55 5l4 34q20 -4 46 -4q68 0 68 45q0 38 -58 38
q-23 0 -47 -3l12 86q-84 5 -143 37l16 46q76 -37 153 -37q123 0 123 96q0 42 -32.5 67.5t-102.5 51.5q-75 28 -111 61t-36 89q0 68 51.5 104t123.5 36q85 0 142 -29z" />
    <glyph glyph-name="Scaron" unicode="&#x160;" horiz-adv-x="529" 
d="M451 694l-16 -50q-73 32 -156 32q-69 0 -116 -31t-47 -96q0 -56 36 -89t121 -67q106 -42 156.5 -88.5t50.5 -125.5q0 -94 -64.5 -142.5t-163.5 -48.5q-109 0 -204 45l16 52q88 -47 189 -47q77 0 123 35t46 102q0 60 -43.5 96t-137.5 74q-94 39 -138.5 84t-44.5 117
q0 88 65.5 134t156.5 46q97 0 171 -32zM376 906h49l-120 -146h-60l-121 146h49l102 -110z" />
    <glyph glyph-name="scaron" unicode="&#x161;" horiz-adv-x="456" 
d="M378 511l-15 -45q-55 27 -127 27q-51 0 -84.5 -21t-33.5 -67q0 -41 26.5 -63.5t92.5 -47.5q83 -30 123 -64.5t40 -95.5q0 -73 -51.5 -109.5t-129.5 -36.5q-95 0 -168 38l16 46q76 -37 156 -37q120 0 120 96q0 42 -32.5 67.5t-102.5 51.5q-75 28 -111 61t-36 89
q0 68 51.5 104t123.5 36q85 0 142 -29zM338 766h49l-120 -164h-60l-121 164h49l102 -129z" />
    <glyph glyph-name="uni0162" unicode="&#x162;" horiz-adv-x="530" 
d="M239 0v664h-225v50h502v-50h-219v-664h-58zM304 -58l-73 -156h-41l50 156h64z" />
    <glyph glyph-name="uni0163" unicode="&#x163;" horiz-adv-x="331" 
d="M16 481v47h99v130h57v-130h128v-47h-128v-352q0 -54 15 -71.5t60 -17.5q32 0 56 4v-44q-40 -7 -70 -7q-67 0 -92.5 30.5t-25.5 101.5v356h-99zM233 -58l-73 -156h-41l50 156h64z" />
    <glyph glyph-name="Tcaron" unicode="&#x164;" horiz-adv-x="530" 
d="M239 0v664h-225v50h502v-50h-219v-664h-58zM370 906h49l-120 -146h-60l-121 146h49l102 -110z" />
    <glyph glyph-name="tcaron" unicode="&#x165;" horiz-adv-x="331" 
d="M16 481v47h99v130h57v-130h128v-47h-128v-352q0 -54 15 -71.5t60 -17.5q32 0 56 4v-44q-40 -7 -70 -7q-67 0 -92.5 30.5t-25.5 101.5v356h-99zM331 768l-37 -164h-36l19 164h54z" />
    <glyph glyph-name="Tbar" unicode="&#x166;" horiz-adv-x="530" 
d="M239 394h-121v39h121v231h-225v50h502v-50h-219v-231h122v-39h-122v-394h-58v394z" />
    <glyph glyph-name="tbar" unicode="&#x167;" horiz-adv-x="331" 
d="M270 258h-98v-129q0 -54 15 -71.5t60 -17.5q32 0 56 4v-44q-40 -7 -70 -7q-67 0 -92.5 30.5t-25.5 101.5v133h-83v36h83v187h-99v47h99v130h57v-130h128v-47h-128v-187h98v-36z" />
    <glyph glyph-name="Utilde" unicode="&#x168;" horiz-adv-x="679" 
d="M596 714v-495q0 -105 -65.5 -168t-192.5 -63t-191 62.5t-64 168.5v495h58v-491q0 -185 197 -185q101 0 150 49.5t49 135.5v491h59zM351 856q43 -32 63 -32q40 0 43 67h43q-5 -111 -84 -111q-34 0 -79 34q-40 33 -63 33q-40 0 -43 -67h-43q2 51 23.5 81t61.5 30
q34 0 78 -35z" />
    <glyph glyph-name="utilde" unicode="&#x169;" horiz-adv-x="590" 
d="M500 0h-55v90h-2q-23 -48 -69.5 -75t-103.5 -27q-89 0 -138 52.5t-49 141.5v346h57v-326q0 -167 142 -167q68 0 114.5 46.5t46.5 138.5v308h57v-528zM303 703q44 -33 63 -33q40 0 43 67h43q-5 -110 -84 -110q-34 0 -79 34q-42 33 -63 33q-40 0 -43 -67h-43
q2 51 23.5 80.5t61.5 29.5q33 0 78 -34z" />
    <glyph glyph-name="Umacron" unicode="&#x16a;" horiz-adv-x="679" 
d="M596 714v-495q0 -105 -65.5 -168t-192.5 -63t-191 62.5t-64 168.5v495h58v-491q0 -185 197 -185q101 0 150 49.5t49 135.5v491h59zM463 857v-45h-247v45h247z" />
    <glyph glyph-name="umacron" unicode="&#x16b;" horiz-adv-x="590" 
d="M500 0h-55v90h-2q-23 -48 -69.5 -75t-103.5 -27q-89 0 -138 52.5t-49 141.5v346h57v-326q0 -167 142 -167q68 0 114.5 46.5t46.5 138.5v308h57v-528zM417 698v-45h-247v45h247z" />
    <glyph glyph-name="Ubreve" unicode="&#x16c;" horiz-adv-x="679" 
d="M596 714v-495q0 -105 -65.5 -168t-192.5 -63t-191 62.5t-64 168.5v495h58v-491q0 -185 197 -185q101 0 150 49.5t49 135.5v491h59zM340 815q86 0 94 86h46q-6 -129 -140 -129q-70 0 -103.5 36t-35.5 93h46q3 -86 93 -86z" />
    <glyph glyph-name="ubreve" unicode="&#x16d;" horiz-adv-x="590" 
d="M500 0h-55v90h-2q-23 -48 -69.5 -75t-103.5 -27q-89 0 -138 52.5t-49 141.5v346h57v-326q0 -167 142 -167q68 0 114.5 46.5t46.5 138.5v308h57v-528zM292 655q47 0 68.5 22.5t25.5 63.5h46q-6 -128 -140 -128q-70 0 -103.5 35.5t-35.5 92.5h46q3 -86 93 -86z" />
    <glyph glyph-name="Uring" unicode="&#x16e;" horiz-adv-x="679" 
d="M596 714v-495q0 -105 -65.5 -168t-192.5 -63t-191 62.5t-64 168.5v495h58v-491q0 -185 197 -185q101 0 150 49.5t49 135.5v491h59zM340 940q39 0 67 -29t28 -68q0 -40 -27.5 -67.5t-67.5 -27.5q-41 0 -69 27.5t-28 67.5q0 41 28.5 69t68.5 28zM339 907q-26 0 -45 -18.5
t-19 -45.5q0 -26 19 -44.5t46 -18.5q26 0 44.5 18.5t18.5 44.5q0 28 -18.5 46t-45.5 18z" />
    <glyph glyph-name="uring" unicode="&#x16f;" horiz-adv-x="590" 
d="M500 0h-55v90h-2q-23 -48 -69.5 -75t-103.5 -27q-89 0 -138 52.5t-49 141.5v346h57v-326q0 -167 142 -167q68 0 114.5 46.5t46.5 138.5v308h57v-528zM294 787q39 0 67 -28.5t28 -67.5q0 -40 -27.5 -68t-67.5 -28t-68.5 28t-28.5 68t28.5 68t68.5 28zM293 755
q-26 0 -45 -19t-19 -45q0 -27 19 -45.5t46 -18.5q26 0 44.5 18.5t18.5 45.5t-18.5 45.5t-45.5 18.5z" />
    <glyph glyph-name="Uhungarumlaut" unicode="&#x170;" horiz-adv-x="679" 
d="M596 714v-495q0 -105 -65.5 -168t-192.5 -63t-191 62.5t-64 168.5v495h58v-491q0 -185 197 -185q101 0 150 49.5t49 135.5v491h59zM378 905l-89 -137h-44l69 137h64zM504 905l-97 -137h-45l75 137h67z" />
    <glyph glyph-name="uhungarumlaut" unicode="&#x171;" horiz-adv-x="590" 
d="M500 0h-55v90h-2q-23 -48 -69.5 -75t-103.5 -27q-89 0 -138 52.5t-49 141.5v346h57v-326q0 -167 142 -167q68 0 114.5 46.5t46.5 138.5v308h57v-528zM343 768l-99 -164h-42l78 164h63zM469 768l-107 -164h-43l84 164h66z" />
    <glyph glyph-name="Uogonek" unicode="&#x172;" horiz-adv-x="679" 
d="M596 714v-495q0 -96 -54.5 -157t-160.5 -72q-63 -70 -63 -114t48 -44q28 0 56 13l6 -35q-29 -15 -70 -15q-37 0 -60.5 18.5t-23.5 54.5q0 55 65 120q-127 0 -191.5 62.5t-64.5 168.5v495h58v-491q0 -185 197 -185q101 0 150.5 49.5t49.5 135.5v491h58z" />
    <glyph glyph-name="uogonek" unicode="&#x173;" horiz-adv-x="590" 
d="M500 0h-19q-42 -47 -57 -73.5t-15 -50.5q0 -44 48 -44q28 0 56 13l6 -35q-29 -15 -70 -15q-37 0 -60.5 18.5t-23.5 54.5q0 30 17 60.5t63 73.5v88h-2q-23 -48 -69.5 -75t-103.5 -27q-89 0 -138 52.5t-49 141.5v346h57v-326q0 -167 142 -167q68 0 114.5 46.5t46.5 138.5
v308h57v-528z" />
    <glyph glyph-name="Wcircumflex" unicode="&#x174;" horiz-adv-x="933" 
d="M626 0l-160 668h-2l-157 -668h-85l-180 714h62l160 -660h2l155 660h90l157 -660h2l160 660h61l-181 -714h-84zM617 762h-49l-102 111l-101 -111h-49l120 146h60z" />
    <glyph glyph-name="wcircumflex" unicode="&#x175;" horiz-adv-x="779" 
d="M522 0l-131 479h-2l-133 -479h-76l-156 528h62l132 -478h2l130 478h80l131 -478h2l131 478h61l-157 -528h-76zM541 604h-49l-102 129l-101 -129h-49l120 164h60z" />
    <glyph glyph-name="Ycircumflex" unicode="&#x176;" horiz-adv-x="587" 
d="M264 0v295l-263 419h70l223 -365l227 365h65l-264 -419v-295h-58zM445 762h-49l-102 111l-101 -111h-49l120 146h60z" />
    <glyph glyph-name="ycircumflex" unicode="&#x177;" horiz-adv-x="485" 
d="M69 528l177 -454h2l170 454h61l-285 -723h-60l81 203l-208 520h62zM399 604h-49l-102 129l-101 -129h-49l120 164h60z" />
    <glyph glyph-name="Ydieresis" unicode="&#x178;" horiz-adv-x="587" 
d="M264 0v295l-263 419h70l223 -365l227 365h65l-264 -419v-295h-58zM178 876h62v-73h-62v73zM349 876h61v-73h-61v73z" />
    <glyph glyph-name="Zacute" unicode="&#x179;" horiz-adv-x="561" 
d="M42 50l404 614h-372v50h440v-50l-406 -614h414v-50h-480v50zM335 903h67l-108 -134h-44z" />
    <glyph glyph-name="zacute" unicode="&#x17a;" horiz-adv-x="479" 
d="M46 45l311 436h-292v47h357v-46l-310 -435h321v-47h-387v45zM368 768l-117 -164h-43l97 164h63z" />
    <glyph glyph-name="Zdotaccent" unicode="&#x17b;" horiz-adv-x="561" 
d="M42 50l404 614h-372v50h440v-50l-406 -614h414v-50h-480v50zM259 874h69v-75h-69v75z" />
    <glyph glyph-name="zdotaccent" unicode="&#x17c;" horiz-adv-x="479" 
d="M46 45l311 436h-292v47h357v-46l-310 -435h321v-47h-387v45zM215 717h69v-75h-69v75z" />
    <glyph glyph-name="Zcaron" unicode="&#x17d;" horiz-adv-x="561" 
d="M42 50l404 614h-372v50h440v-50l-406 -614h414v-50h-480v50zM397 906h49l-120 -146h-60l-121 146h49l102 -110z" />
    <glyph glyph-name="zcaron" unicode="&#x17e;" horiz-adv-x="479" 
d="M46 45l311 436h-292v47h357v-46l-310 -435h321v-47h-387v45zM350 766h49l-120 -164h-60l-121 164h49l102 -129z" />
    <glyph glyph-name="florin" unicode="&#x192;" horiz-adv-x="526" 
d="M323 559l-24 -166h140v-46h-146l-46 -323q-6 -72 -45.5 -116t-109.5 -44q-47 0 -85 17l11 49q30 -15 67 -15q50 1 73 27t32 84l45 321h-133v46h140l26 179q8 66 51.5 110t113.5 44q53 0 89 -18l-17 -48q-29 15 -72 15q-93 0 -110 -116z" />
    <glyph glyph-name="uni01A0" unicode="&#x1a0;" horiz-adv-x="747" 
d="M684 356q0 -164 -83 -266t-227 -102q-145 0 -228 101.5t-83 266.5q0 166 82.5 268t228.5 102q67 0 125 -24q39 -16 75 -16q43 0 60 13t17 41q0 33 -16 58l48 13q19 -32 19 -70q0 -93 -110 -93h-12q104 -101 104 -292zM626 356q0 139 -66 229.5t-186 90.5
q-121 0 -187 -90.5t-66 -229.5q0 -138 65.5 -228t187.5 -90q121 0 186.5 90.5t65.5 227.5z" />
    <glyph glyph-name="uni01A1" unicode="&#x1a1;" horiz-adv-x="591" 
d="M533 265q0 -127 -63 -202t-174 -75t-174.5 75t-63.5 202t63 201t175 74q45 0 81 -12q49 -16 71 -16q59 0 59 53q0 33 -16 58l48 13q19 -32 19 -70q0 -86 -95 -93q70 -75 70 -208zM476 265q0 102 -45.5 165t-134.5 63t-135 -63t-46 -165t46.5 -166t134.5 -64
q89 0 134.5 63.5t45.5 166.5z" />
    <glyph glyph-name="uni01AF" unicode="&#x1af;" horiz-adv-x="679" 
d="M537 223v491h43q41 0 57.5 12t16.5 41q0 33 -16 58l48 13q19 -32 19 -70q0 -91 -109 -93v-456q0 -105 -65.5 -168t-192.5 -63t-191 62.5t-64 168.5v495h58v-491q0 -185 197 -185q101 0 150 49.5t49 135.5z" />
    <glyph glyph-name="uni01B0" unicode="&#x1b0;" horiz-adv-x="590" 
d="M500 0h-55v90h-2q-23 -48 -69.5 -75t-103.5 -27q-89 0 -138 52.5t-49 141.5v346h57v-326q0 -167 142 -167q68 0 114.5 46.5t46.5 138.5v308h41q41 0 57.5 12t16.5 41q0 33 -16 58l48 13q19 -32 19 -70q0 -91 -109 -93v-489z" />
    <glyph glyph-name="Scommaaccent" unicode="&#x218;" horiz-adv-x="529" 
d="M451 694l-16 -50q-73 32 -156 32q-69 0 -116 -31t-47 -96q0 -56 36 -89t121 -67q106 -42 156.5 -88.5t50.5 -125.5q0 -94 -64.5 -142.5t-163.5 -48.5q-109 0 -204 45l16 52q88 -47 189 -47q77 0 123 35t46 102q0 60 -43.5 96t-137.5 74q-94 39 -138.5 84t-44.5 117
q0 88 65.5 134t156.5 46q97 0 171 -32zM298 -58l-73 -156h-41l50 156h64z" />
    <glyph glyph-name="scommaaccent" unicode="&#x219;" horiz-adv-x="456" 
d="M378 511l-15 -45q-55 27 -127 27q-51 0 -84.5 -21t-33.5 -67q0 -41 26.5 -63.5t92.5 -47.5q83 -30 123 -64.5t40 -95.5q0 -73 -51.5 -109.5t-129.5 -36.5q-95 0 -168 38l16 46q76 -37 156 -37q120 0 120 96q0 42 -32.5 67.5t-102.5 51.5q-75 28 -111 61t-36 89
q0 68 51.5 104t123.5 36q85 0 142 -29zM267 -58l-73 -156h-41l50 156h64z" />
    <glyph glyph-name="uni021A" unicode="&#x21a;" horiz-adv-x="530" 
d="M239 0v664h-225v50h502v-50h-219v-664h-58zM304 -58l-73 -156h-41l50 156h64z" />
    <glyph glyph-name="uni021B" unicode="&#x21b;" horiz-adv-x="331" 
d="M16 481v47h99v130h57v-130h128v-47h-128v-352q0 -54 15 -71.5t60 -17.5q32 0 56 4v-44q-40 -7 -70 -7q-67 0 -92.5 30.5t-25.5 101.5v356h-99zM233 -58l-73 -156h-41l50 156h64z" />
    <glyph glyph-name="dotlessj" unicode="&#x237;" horiz-adv-x="237" 
d="M147 528v-577q0 -146 -134 -146q-23 0 -47 4v46q24 -3 41 -3q48 0 65.5 26t17.5 82v568h57z" />
    <glyph glyph-name="circumflex" unicode="&#x2c6;" 
d="M384 604h-49l-102 129l-101 -129h-49l120 164h60z" />
    <glyph glyph-name="caron" unicode="&#x2c7;" 
d="M334 766h49l-120 -164h-60l-121 164h49l102 -129z" />
    <glyph glyph-name="uni02C9" unicode="&#x2c9;" 
d="M357 756v-45h-247v45h247z" />
    <glyph glyph-name="breve" unicode="&#x2d8;" 
d="M233 655q47 0 68.5 22.5t25.5 63.5h46q-6 -128 -140 -128q-70 0 -103.5 35.5t-35.5 92.5h46q3 -86 93 -86z" />
    <glyph glyph-name="dotaccent" unicode="&#x2d9;" 
d="M201 717h69v-75h-69v75z" />
    <glyph glyph-name="ring" unicode="&#x2da;" 
d="M234 787q39 0 67 -28.5t28 -67.5q0 -40 -27.5 -68t-67.5 -28t-68.5 28t-28.5 68t28.5 68t68.5 28zM233 755q-26 0 -45 -19t-19 -45q0 -27 19 -45.5t46 -18.5q26 0 44.5 18.5t18.5 45.5t-18.5 45.5t-45.5 18.5z" />
    <glyph glyph-name="ogonek" unicode="&#x2db;" 
d="M244 8h38q-47 -51 -63.5 -79t-16.5 -53q0 -44 48 -44q28 0 56 13l6 -35q-29 -15 -70 -15q-37 0 -60.5 18.5t-23.5 54.5q0 31 18 62.5t68 77.5z" />
    <glyph glyph-name="tilde" unicode="&#x2dc;" 
d="M241 703q44 -33 63 -33q40 0 43 67h43q-5 -110 -84 -110q-34 0 -79 34q-42 33 -63 33q-40 0 -43 -67h-43q2 51 23.5 80.5t61.5 29.5q33 0 78 -34z" />
    <glyph glyph-name="hungarumlaut" unicode="&#x2dd;" 
d="M271 768l-99 -164h-42l78 164h63zM397 768l-107 -164h-43l84 164h66z" />
    <glyph glyph-name="gravecomb" unicode="&#x300;" horiz-adv-x="0" 
d="M-93 604l-117 164h64l96 -164h-43z" />
    <glyph glyph-name="acutecomb" unicode="&#x301;" horiz-adv-x="0" 
d="M-40 768l-117 -164h-43l97 164h63z" />
    <glyph glyph-name="circumflexcomb" unicode="&#x302;" horiz-adv-x="0" 
d="M21 604h-49l-102 129l-101 -129h-49l120 164h60z" />
    <glyph glyph-name="tildecomb" unicode="&#x303;" horiz-adv-x="0" 
d="M-123 703q44 -33 63 -33q40 0 43 67h43q-5 -110 -84 -110q-34 0 -79 34q-42 33 -63 33q-40 0 -43 -67h-43q2 51 23.5 80.5t61.5 29.5q33 0 78 -34z" />
    <glyph glyph-name="dieresiscomb" unicode="&#x308;" horiz-adv-x="0" 
d="M-246 714h62v-73h-62v73zM-75 714h61v-73h-61v73z" />
    <glyph glyph-name="hookcmb" unicode="&#x309;" horiz-adv-x="0" 
d="M-120 607h-42q0 24 7 35.5t30 24.5q37 21 37 45q0 38 -49 38q-27 0 -57 -14l-10 34q32 17 74 17q37 0 60.5 -18.5t23.5 -54.5q0 -47 -54 -75q-20 -10 -20 -32z" />
    <glyph glyph-name="dotbelowcmb" unicode="&#x323;" horiz-adv-x="0" 
d="M-164 -128h69v-75h-69v75z" />
    <glyph glyph-name="uni0374" unicode="&#x374;" horiz-adv-x="436" 
d="M320 735l-90 -204h-39l57 204h72z" />
    <glyph glyph-name="uni0375" unicode="&#x375;" horiz-adv-x="436" 
d="M191 -183l90 204h39l-57 -204h-72z" />
    <glyph glyph-name="uni037E" unicode="&#x37e;" horiz-adv-x="320" 
d="M86 -145l48 229h63l-73 -229h-38zM125 447v81h72v-81h-72z" />
    <glyph glyph-name="tonos" unicode="&#x384;" horiz-adv-x="438" 
d="M322 768l-90 -164h-41l59 164h72z" />
    <glyph glyph-name="dieresistonos" unicode="&#x385;" horiz-adv-x="513" 
d="M316 768l-69 -164h-37l41 164h65zM117 714h62v-73h-62v73zM335 714h61v-73h-61v73z" />
    <glyph glyph-name="Alphatonos" unicode="&#x386;" horiz-adv-x="642" 
d="M156 227l-88 -227h-62l277 714h80l273 -714h-63l-89 227h-328zM322 670l-150 -393h297zM187 714l-90 -164h-41l59 164h72z" />
    <glyph glyph-name="anoteleia" unicode="&#x387;" horiz-adv-x="264" 
d="M94 263v80h75v-80h-75z" />
    <glyph glyph-name="Epsilontonos" unicode="&#x388;" horiz-adv-x="536" 
d="M95 0v714h380v-50h-322v-271h299v-50h-299v-293h331v-50h-389zM21 714l-90 -164h-41l59 164h72z" />
    <glyph glyph-name="Etatonos" unicode="&#x389;" horiz-adv-x="685" 
d="M95 0v714h58v-321h379v321h58v-714h-58v343h-379v-343h-58zM21 714l-90 -164h-41l59 164h72z" />
    <glyph glyph-name="Iotatonos" unicode="&#x38a;" horiz-adv-x="248" 
d="M95 0v714h58v-714h-58zM21 714l-90 -164h-41l59 164h72z" />
    <glyph glyph-name="Omicrontonos" unicode="&#x38c;" horiz-adv-x="747" 
d="M684 356q0 -164 -83 -266t-227 -102q-145 0 -228 101.5t-83 266.5q0 166 82.5 268t228.5 102t228 -102t82 -268zM626 356q0 139 -66 229.5t-186 90.5q-121 0 -187 -90.5t-66 -229.5q0 -138 65.5 -228t187.5 -90q121 0 186.5 90t65.5 228zM83 714l-90 -164h-41l59 164h72z
" />
    <glyph glyph-name="Upsilontonos" unicode="&#x38e;" horiz-adv-x="587" 
d="M264 0v295l-263 419h70l223 -365l227 365h65l-264 -419v-295h-58zM-54 714l-90 -164h-41l59 164h72z" />
    <glyph glyph-name="Omegatonos" unicode="&#x38f;" horiz-adv-x="782" 
d="M392 676q-124 0 -188 -77t-64 -197q0 -209 193 -267v-135h-239v50h187v56q-201 73 -201 296q0 142 81.5 233t230.5 91q148 0 229 -91t81 -233q0 -225 -200 -296v-56h187v-50h-240v135q194 57 194 267q0 120 -64 197t-187 77zM89 714l-90 -164h-41l59 164h72z" />
    <glyph glyph-name="iotadieresistonos" unicode="&#x390;" horiz-adv-x="303" 
d="M85 125v403h57v-399q0 -55 15 -72t59 -17q32 0 55 4v-44q-40 -7 -69 -7q-66 0 -91.5 30.5t-25.5 101.5zM206 768l-69 -164h-37l41 164h65zM7 714h62v-73h-62v73zM225 714h61v-73h-61v73z" />
    <glyph glyph-name="Alpha" unicode="&#x391;" horiz-adv-x="642" 
d="M156 227l-88 -227h-62l277 714h80l273 -714h-63l-89 227h-328zM322 670l-150 -393h297z" />
    <glyph glyph-name="Beta" unicode="&#x392;" horiz-adv-x="610" 
d="M95 0v714h225q99 0 156.5 -45t57.5 -135q0 -67 -37 -108t-100 -55v-2q69 -13 112.5 -54.5t43.5 -117.5q0 -88 -58 -142.5t-168 -54.5h-232zM153 664v-271h148q83 0 129 34.5t46 103.5q0 133 -168 133h-155zM153 343v-293h165q177 0 177 148q0 145 -194 145h-148z" />
    <glyph glyph-name="Gamma" unicode="&#x393;" horiz-adv-x="502" 
d="M153 664v-664h-58v714h366v-50h-308z" />
    <glyph glyph-name="uni0394" unicode="&#x394;" horiz-adv-x="653" 
d="M30 50l261 664h78l254 -664v-50h-593v50zM328 669l-236 -619h468z" />
    <glyph glyph-name="Epsilon" unicode="&#x395;" horiz-adv-x="536" 
d="M95 0v714h380v-50h-322v-271h299v-50h-299v-293h331v-50h-389z" />
    <glyph glyph-name="Zeta" unicode="&#x396;" horiz-adv-x="561" 
d="M42 50l404 614h-372v50h440v-50l-406 -614h414v-50h-480v50z" />
    <glyph glyph-name="Eta" unicode="&#x397;" horiz-adv-x="685" 
d="M95 0v714h58v-321h379v321h58v-714h-58v343h-379v-343h-58z" />
    <glyph glyph-name="Theta" unicode="&#x398;" horiz-adv-x="747" 
d="M684 356q0 -164 -83 -266t-227 -102q-145 0 -228 101.5t-83 266.5q0 166 82.5 268t228.5 102t228 -102t82 -268zM626 356q0 139 -66 229.5t-186 90.5q-121 0 -187 -90.5t-66 -229.5q0 -138 65.5 -228t187.5 -90q121 0 186.5 90t65.5 228zM213 331v53h320v-53h-320z" />
    <glyph glyph-name="Iota" unicode="&#x399;" horiz-adv-x="248" 
d="M95 0v714h58v-714h-58z" />
    <glyph glyph-name="Kappa" unicode="&#x39a;" horiz-adv-x="563" 
d="M464 714h76l-323 -342l339 -372h-77l-324 359h-2v-359h-58v714h58v-334h2z" />
    <glyph glyph-name="Lambda" unicode="&#x39b;" horiz-adv-x="622" 
d="M553 0l-241 670l-244 -670h-62l267 714h80l263 -714h-63z" />
    <glyph glyph-name="Mu" unicode="&#x39c;" horiz-adv-x="861" 
d="M195 714l233 -660h2l236 660h100v-714h-56v669h-2l-243 -669h-75l-238 669h-2v-669h-55v714h100z" />
    <glyph glyph-name="Nu" unicode="&#x39d;" horiz-adv-x="691" 
d="M185 714l354 -654h2v654h55v-714h-89l-355 656h-2v-656h-55v714h90z" />
    <glyph glyph-name="Xi" unicode="&#x39e;" horiz-adv-x="587" 
d="M535 714v-53h-483v53h483zM535 53v-53h-483v53h483zM85 342v53h416v-53h-416z" />
    <glyph glyph-name="Omicron" unicode="&#x39f;" horiz-adv-x="747" 
d="M684 356q0 -164 -83 -266t-227 -102q-145 0 -228 101.5t-83 266.5q0 166 82.5 268t228.5 102t228 -102t82 -268zM626 356q0 139 -66 229.5t-186 90.5q-121 0 -187 -90.5t-66 -229.5q0 -138 65.5 -228t187.5 -90q121 0 186.5 90t65.5 228z" />
    <glyph glyph-name="Pi" unicode="&#x3a0;" horiz-adv-x="680" 
d="M95 0v714h490v-714h-58v664h-374v-664h-58z" />
    <glyph glyph-name="Rho" unicode="&#x3a1;" horiz-adv-x="593" 
d="M95 0v714h215q234 0 234 -195q0 -205 -233 -205h-158v-314h-58zM153 664v-300h152q181 0 181 152q0 45 -14.5 75.5t-42.5 45.5t-58.5 21t-71.5 6h-146z" />
    <glyph glyph-name="Sigma" unicode="&#x3a3;" horiz-adv-x="585" 
d="M351 366l-236 -316h428v-50h-491v49l232 315v2l-228 297v51h476v-50h-409z" />
    <glyph glyph-name="Tau" unicode="&#x3a4;" horiz-adv-x="530" 
d="M239 0v664h-225v50h502v-50h-219v-664h-58z" />
    <glyph glyph-name="Upsilon" unicode="&#x3a5;" horiz-adv-x="587" 
d="M264 0v295l-263 419h70l223 -365l227 365h65l-264 -419v-295h-58z" />
    <glyph glyph-name="Phi" unicode="&#x3a6;" horiz-adv-x="822" 
d="M382 -17v70q-150 5 -239 79t-89 229q0 147 85.5 223.5t242.5 82.5v71h58v-71q160 -6 244 -84t84 -222q0 -152 -88 -227.5t-240 -80.5v-70h-58zM710 361q0 130 -71.5 192.5t-198.5 64.5v-516q270 3 270 259zM112 360q0 -255 270 -258v516q-129 -2 -199.5 -66t-70.5 -192z
" />
    <glyph glyph-name="Chi" unicode="&#x3a7;" horiz-adv-x="586" 
d="M11 0l249 371l-226 343h68l193 -300l197 300h66l-229 -343l246 -371h-70l-212 325l-214 -325h-68z" />
    <glyph glyph-name="Psi" unicode="&#x3a8;" horiz-adv-x="804" 
d="M373 0v126h-2q-153 0 -220.5 61.5t-67.5 189.5v337h58v-326q0 -113 50 -161.5t182 -49.5v537h58v-537q136 1 184 51.5t48 159.5v326h58v-337q0 -128 -67 -189.5t-220 -61.5h-3v-126h-58z" />
    <glyph glyph-name="uni03A9" unicode="&#x3a9;" horiz-adv-x="782" 
d="M392 676q-124 0 -188 -77t-64 -197q0 -209 193 -267v-135h-239v50h187v56q-201 73 -201 296q0 142 81.5 233t230.5 91q148 0 229 -91t81 -233q0 -225 -200 -296v-56h187v-50h-240v135q194 57 194 267q0 120 -64 197t-187 77z" />
    <glyph glyph-name="Iotadieresis" unicode="&#x3aa;" horiz-adv-x="248" 
d="M95 0v714h58v-714h-58zM8 876h62v-73h-62v73zM179 876h61v-73h-61v73z" />
    <glyph glyph-name="Upsilondieresis" unicode="&#x3ab;" horiz-adv-x="587" 
d="M264 0v295l-263 419h70l223 -365l227 365h65l-264 -419v-295h-58zM177 876h62v-73h-62v73zM348 876h61v-73h-61v73z" />
    <glyph glyph-name="alphatonos" unicode="&#x3ac;" horiz-adv-x="655" 
d="M574 528q-17 -160 -74 -312l9 -58q5 -31 7.5 -43.5t8 -31t12 -25.5t17.5 -12.5t27 -5.5q15 0 27 3v-44q-18 -6 -40 -6q-47 0 -68 23t-30 76l-8 45h-1q-19 -64 -67.5 -106.5t-118.5 -42.5q-105 0 -161 82t-56 195q0 116 59 195.5t163 79.5q87 0 140 -57t59 -164h2
q25 93 40 209h53zM115 265q0 -103 45 -166.5t118 -63.5q45 0 79 21.5t51.5 56.5t26 72t8.5 76q0 117 -46.5 174.5t-113.5 57.5q-73 0 -120.5 -61t-47.5 -167zM411 768l-90 -164h-41l59 164h72z" />
    <glyph glyph-name="epsilontonos" unicode="&#x3ad;" horiz-adv-x="490" 
d="M179 277v2q-104 21 -104 116q0 67 50.5 106t147.5 39q106 0 164 -30l-13 -46q-64 28 -150 28q-144 0 -144 -97q0 -93 152 -93l71 2v-51q-57 2 -71 2q-168 0 -168 -109q0 -56 44 -83t117 -27q93 0 160 29l10 -46q-65 -31 -170 -31q-97 0 -157.5 39t-60.5 114
q0 115 122 136zM391 768l-90 -164h-41l59 164h72z" />
    <glyph glyph-name="etatonos" unicode="&#x3ae;" horiz-adv-x="591" 
d="M82 528h54q10 -38 10 -90h2q23 48 69 75t105 27q88 0 137 -53t49 -141v-541h-57v520q0 168 -142 168q-68 0 -114.5 -47t-46.5 -139v-307h-57v403q0 73 -9 125zM396 768l-90 -164h-41l59 164h72z" />
    <glyph glyph-name="iotatonos" unicode="&#x3af;" horiz-adv-x="303" 
d="M85 125v403h57v-399q0 -55 15 -72t59 -17q32 0 55 4v-44q-40 -7 -69 -7q-66 0 -91.5 30.5t-25.5 101.5zM226 768l-90 -164h-41l59 164h72z" />
    <glyph glyph-name="upsilondieresistonos" unicode="&#x3b0;" horiz-adv-x="575" 
d="M287 -12q-202 0 -202 212v328h57v-327q0 -83 33.5 -124.5t114.5 -41.5q39 0 68.5 12t47.5 32.5t29 52t15 64.5t4 76q0 132 -38 256h56q39 -92 39 -250q0 -45 -4 -81.5t-18 -77t-37.5 -68t-65.5 -45.5t-99 -18zM347 768l-69 -164h-37l41 164h65zM148 714h62v-73h-62v73z
M366 714h61v-73h-61v73z" />
    <glyph glyph-name="alpha" unicode="&#x3b1;" horiz-adv-x="655" 
d="M574 528q-17 -160 -74 -312l9 -58q5 -31 7.5 -43.5t8 -31t12 -25.5t17.5 -12.5t27 -5.5q15 0 27 3v-44q-18 -6 -40 -6q-47 0 -68 23t-30 76l-8 45h-1q-19 -64 -67.5 -106.5t-118.5 -42.5q-105 0 -161 82t-56 195q0 116 59 195.5t163 79.5q87 0 140 -57t59 -164h2
q25 93 40 209h53zM115 265q0 -103 45 -166.5t118 -63.5q45 0 79 21.5t51.5 56.5t26 72t8.5 76q0 117 -46.5 174.5t-113.5 57.5q-73 0 -120.5 -61t-47.5 -167z" />
    <glyph glyph-name="beta" unicode="&#x3b2;" horiz-adv-x="605" 
d="M90 -195v692q0 123 56.5 180.5t154.5 57.5q35 0 68 -8.5t64.5 -27t50.5 -55t19 -86.5q0 -64 -34.5 -106t-85.5 -53v-2q68 -7 115 -55.5t47 -139.5q0 -88 -54 -151t-154 -63q-134 0 -188 112h-2v-295h-57zM329 35q69 0 114 44t45 122q0 51 -18 86t-50 52.5t-64 24.5t-70 7
q-34 0 -47 -1v52q9 -1 41 -1q88 0 127 37.5t39 96.5q0 65 -38.5 99t-107.5 34q-153 0 -153 -182v-261q0 -96 50 -153t132 -57z" />
    <glyph glyph-name="gamma" unicode="&#x3b3;" horiz-adv-x="528" 
d="M242 -195q1 24 1 155q0 1 -94 259q-32 86 -72.5 193t-43.5 116h62q45 -121 175 -490h4q89 184 119.5 280.5t31.5 195.5v14h56v-7q0 -114 -39.5 -230.5t-146.5 -312.5q0 -2 1 -14t2 -30.5t1 -37.5q0 -61 -3 -91h-54z" />
    <glyph glyph-name="delta" unicode="&#x3b4;" horiz-adv-x="564" 
d="M58 229q0 99 51 166.5t140 96.5v2q-51 30 -74.5 57t-23.5 64q0 50 39.5 85t126.5 35q81 0 147 -24l-4 -51q-71 26 -147 26q-103 0 -103 -67q0 -29 21.5 -47.5t98.5 -64.5q96 -57 140 -119.5t44 -152.5q0 -110 -61.5 -178.5t-167.5 -68.5q-100 0 -163.5 64.5t-63.5 176.5z
M285 35q81 0 126.5 52t45.5 148q0 76 -35 128t-107 95l-16 9q-86 -23 -135 -81.5t-49 -153.5q0 -86 44 -141.5t126 -55.5z" />
    <glyph glyph-name="epsilon" unicode="&#x3b5;" horiz-adv-x="490" 
d="M179 277v2q-104 21 -104 116q0 67 50.5 106t147.5 39q106 0 164 -30l-13 -46q-64 28 -150 28q-144 0 -144 -97q0 -93 152 -93l71 2v-51q-57 2 -71 2q-168 0 -168 -109q0 -56 44 -83t117 -27q93 0 160 29l10 -46q-65 -31 -170 -31q-97 0 -157.5 39t-60.5 114
q0 115 122 136z" />
    <glyph glyph-name="zeta" unicode="&#x3b6;" horiz-adv-x="453" 
d="M427 -67q0 -45 -29 -113h-53q26 62 26 101q0 32 -18.5 49t-80.5 39q-120 43 -169 102t-49 160q0 127 73.5 234.5t209.5 180.5v2h-244v47h335v-46q-317 -161 -317 -417q0 -89 39 -131.5t138 -80.5q85 -33 112 -55.5t27 -71.5z" />
    <glyph glyph-name="eta" unicode="&#x3b7;" horiz-adv-x="591" 
d="M82 528h54q10 -38 10 -90h2q23 48 69 75t105 27q88 0 137 -53t49 -141v-541h-57v520q0 168 -142 168q-68 0 -114.5 -47t-46.5 -139v-307h-57v403q0 73 -9 125z" />
    <glyph glyph-name="theta" unicode="&#x3b8;" horiz-adv-x="602" 
d="M300 -12q-113 0 -175.5 93.5t-62.5 280.5q0 182 61.5 277.5t176.5 95.5q113 0 176.5 -92t63.5 -281q0 -188 -63 -281t-177 -93zM119 344q5 -309 181 -309q178 0 183 309h-364zM119 391h364q-8 297 -182 297q-175 0 -182 -297z" />
    <glyph glyph-name="iota" unicode="&#x3b9;" horiz-adv-x="303" 
d="M85 125v403h57v-399q0 -55 15 -72t59 -17q32 0 55 4v-44q-40 -7 -69 -7q-66 0 -91.5 30.5t-25.5 101.5z" />
    <glyph glyph-name="kappa" unicode="&#x3ba;" horiz-adv-x="543" 
d="M147 528v-300h2l200 243q32 38 53.5 52t49.5 14q22 0 34 -4l-5 -53q-11 2 -24 2q-19 -1 -32.5 -9.5t-32.5 -31.5l-101 -120l225 -321h-67l-194 279l-108 -128v-151h-57v528h57z" />
    <glyph glyph-name="lambda" unicode="&#x3bb;" horiz-adv-x="588" 
d="M564 42v-45q-15 -4 -34 -4q-39 0 -60 15.5t-35 55.5l-133 376h-2l-200 -440h-62l238 506l-45 125q-11 30 -24 42.5t-36 12.5q-22 0 -36 -4l-4 45q21 8 50 8q43 0 63 -18t35 -59l206 -572q9 -26 19.5 -36t34.5 -10q9 0 25 2z" />
    <glyph glyph-name="uni03BC" unicode="&#x3bc;" horiz-adv-x="621" 
d="M90 -195v723h57v-326q0 -167 142 -167q68 0 114.5 46.5t46.5 138.5v308h57v-428q0 -33 10.5 -46.5t34.5 -13.5q10 0 24 2v-45q-13 -4 -37 -4q-87 0 -86 100h-2q-22 -50 -69 -77.5t-105 -27.5q-95 0 -127 60h-2v-243h-58z" />
    <glyph glyph-name="nu" unicode="&#x3bd;" horiz-adv-x="515" 
d="M294 0h-70l-191 528h62l167 -479h5l39 84q61 132 83.5 215.5t22.5 169.5v10h56v-9q0 -113 -38.5 -226t-135.5 -293z" />
    <glyph glyph-name="xi" unicode="&#x3be;" horiz-adv-x="478" 
d="M442 -67q0 -45 -29 -113h-53q26 65 26 101q0 33 -20.5 50.5t-90.5 42.5q-125 44 -170.5 84.5t-45.5 119.5q0 64 38.5 112.5t108.5 65.5v2q-115 32 -115 138q0 59 33.5 98.5t87.5 51.5v2h-132v47h358v-46l-69 -3q-112 -5 -169 -38t-57 -103q0 -123 181 -123l76 1v-50
q-66 1 -75 1q-114 0 -163 -42.5t-49 -107.5q0 -63 39 -93t143 -68q89 -33 118 -57t29 -73z" />
    <glyph glyph-name="omicron" unicode="&#x3bf;" horiz-adv-x="591" 
d="M533 265q0 -127 -63 -202t-174 -75t-174.5 75t-63.5 202t63 201t175 74q111 0 174 -74t63 -201zM476 265q0 102 -45.5 165t-134.5 63t-135 -63t-46 -165t46.5 -166t134.5 -64q89 0 134.5 63.5t45.5 166.5z" />
    <glyph glyph-name="pi" unicode="&#x3c0;" horiz-adv-x="679" 
d="M503 479v-351q0 -52 13 -70t50 -18q22 0 36 3v-44q-21 -6 -48 -6q-58 0 -82.5 29t-24.5 101v356h-216l-48 -479h-59l53 479h-128v49h577v-49h-123z" />
    <glyph glyph-name="rho" unicode="&#x3c1;" horiz-adv-x="593" 
d="M135 99v-294h-58v440q0 150 64 222.5t166 72.5q111 0 169.5 -76.5t58.5 -199.5q0 -116 -58 -196t-164 -80q-57 0 -104 30t-72 81h-2zM478 264q0 98 -43.5 163.5t-128.5 65.5q-84 0 -129 -60.5t-45 -174.5q0 -103 49 -163t128 -60q77 0 123 63.5t46 165.5z" />
    <glyph glyph-name="sigma1" unicode="&#x3c2;" horiz-adv-x="477" 
d="M58 272q0 116 69.5 192t192.5 76q67 0 119 -20l-13 -48q-47 18 -105 18q-100 0 -153 -62.5t-53 -153.5q0 -87 38 -131.5t139 -83.5q83 -33 109.5 -55t26.5 -71q0 -45 -29 -113h-53q26 62 26 101q0 32 -18.5 49t-80.5 39q-120 43 -167.5 103.5t-47.5 159.5z" />
    <glyph glyph-name="sigma" unicode="&#x3c3;" horiz-adv-x="626" 
d="M431 479v-2q101 -62 101 -215q0 -124 -63 -199t-174 -75q-110 0 -173.5 74t-63.5 199q0 123 67 195t178 72h288v-49h-160zM475 261q0 104 -48.5 161.5t-122.5 57.5q-51 0 -89 -19.5t-59 -52.5t-31 -70t-10 -77q0 -96 45.5 -161t133.5 -65q92 0 136.5 65.5t44.5 160.5z
" />
    <glyph glyph-name="tau" unicode="&#x3c4;" horiz-adv-x="487" 
d="M34 528h417v-49h-192v-350q0 -54 14.5 -71.5t58.5 -17.5q26 0 49 4v-45q-27 -6 -63 -6q-66 0 -91 30.5t-25 101.5v354h-168v49z" />
    <glyph glyph-name="upsilon" unicode="&#x3c5;" horiz-adv-x="575" 
d="M287 -12q-202 0 -202 212v328h57v-327q0 -83 33.5 -124.5t114.5 -41.5q39 0 68.5 12t47.5 32.5t29 52t15 64.5t4 76q0 132 -38 256h56q39 -92 39 -250q0 -45 -4 -81.5t-18 -77t-37.5 -68t-65.5 -45.5t-99 -18z" />
    <glyph glyph-name="phi" unicode="&#x3c6;" horiz-adv-x="739" 
d="M341 677h57v-136q135 -4 209 -76t74 -201q0 -125 -70.5 -198.5t-212.5 -78.5v-182h-57v182q-138 4 -210.5 76.5t-72.5 200.5q0 129 73.5 201t209.5 76v136zM624 264q0 109 -56.5 168t-169.5 63v-463q112 3 169 63.5t57 168.5zM115 264q0 -106 56 -167.5t170 -64.5v463
q-110 -3 -168 -62t-58 -169z" />
    <glyph glyph-name="chi" unicode="&#x3c7;" horiz-adv-x="560" 
d="M175 462l124 -242h2l164 308h64l-197 -355l130 -245q30 -57 42 -70t39 -13q10 0 22 2v-44q-15 -4 -37 -4q-42 0 -61 17.5t-45 68.5l-125 242h-2l-180 -322h-64l212 366l-130 251q-21 41 -35.5 53t-35.5 12q-8 0 -22 -4l-4 48q24 6 39 6q37 0 58 -17t42 -58z" />
    <glyph glyph-name="psi" unicode="&#x3c8;" horiz-adv-x="725" 
d="M400 -12h-4v-183h-57v183h-4q-121 0 -185.5 52t-64.5 171v317h57v-309q0 -99 42.5 -142t150.5 -43h4v643h57v-643q110 0 159 54t49 183q0 135 -38 257h56q39 -96 39 -250q0 -46 -5.5 -83.5t-22.5 -77.5t-44.5 -67t-76 -44.5t-112.5 -17.5z" />
    <glyph glyph-name="omega" unicode="&#x3c9;" horiz-adv-x="769" 
d="M243 -12q-178 0 -178 249q0 93 23.5 170t59.5 121h60q-86 -115 -86 -293q0 -200 122 -200q58 0 85 38.5t27 121.5v200h57v-200q0 -84 27 -122t84 -38q123 0 123 200q0 180 -86 293h60q36 -44 59.5 -121t23.5 -170q0 -249 -179 -249q-108 0 -140 110h-1
q-32 -110 -141 -110z" />
    <glyph glyph-name="iotadieresis" unicode="&#x3ca;" horiz-adv-x="303" 
d="M85 125v403h57v-399q0 -55 15 -72t59 -17q32 0 55 4v-44q-40 -7 -69 -7q-66 0 -91.5 30.5t-25.5 101.5zM1 714h62v-73h-62v73zM172 714h61v-73h-61v73z" />
    <glyph glyph-name="upsilondieresis" unicode="&#x3cb;" horiz-adv-x="575" 
d="M287 -12q-202 0 -202 212v328h57v-327q0 -83 33.5 -124.5t114.5 -41.5q39 0 68.5 12t47.5 32.5t29 52t15 64.5t4 76q0 132 -38 256h56q39 -92 39 -250q0 -45 -4 -81.5t-18 -77t-37.5 -68t-65.5 -45.5t-99 -18zM161 714h62v-73h-62v73zM332 714h61v-73h-61v73z" />
    <glyph glyph-name="omicrontonos" unicode="&#x3cc;" horiz-adv-x="591" 
d="M533 265q0 -127 -63 -202t-174 -75t-174.5 75t-63.5 202t63 201t175 74q111 0 174 -74t63 -201zM476 265q0 102 -45.5 165t-134.5 63t-135 -63t-46 -165t46.5 -166t134.5 -64q89 0 134.5 63.5t45.5 166.5zM407 768l-90 -164h-41l59 164h72z" />
    <glyph glyph-name="upsilontonos" unicode="&#x3cd;" horiz-adv-x="575" 
d="M287 -12q-202 0 -202 212v328h57v-327q0 -83 33.5 -124.5t114.5 -41.5q39 0 68.5 12t47.5 32.5t29 52t15 64.5t4 76q0 132 -38 256h56q39 -92 39 -250q0 -45 -4 -81.5t-18 -77t-37.5 -68t-65.5 -45.5t-99 -18zM386 768l-90 -164h-41l59 164h72z" />
    <glyph glyph-name="omegatonos" unicode="&#x3ce;" horiz-adv-x="769" 
d="M243 -12q-178 0 -178 249q0 93 23.5 170t59.5 121h60q-86 -115 -86 -293q0 -200 122 -200q58 0 85 38.5t27 121.5v200h57v-200q0 -84 27 -122t84 -38q123 0 123 200q0 180 -86 293h60q36 -44 59.5 -121t23.5 -170q0 -249 -179 -249q-108 0 -140 110h-1
q-32 -110 -141 -110zM500 768l-90 -164h-41l59 164h72z" />
    <glyph glyph-name="uni0400" unicode="&#x400;" horiz-adv-x="536" 
d="M95 0v714h380v-50h-322v-271h299v-50h-299v-293h331v-50h-389zM175 904h67l84 -134h-45z" />
    <glyph glyph-name="uni0401" unicode="&#x401;" horiz-adv-x="536" 
d="M95 0v714h380v-50h-322v-271h299v-50h-299v-293h331v-50h-389zM175 876h62v-73h-62v73zM346 876h61v-73h-61v73z" />
    <glyph glyph-name="uni0402" unicode="&#x402;" horiz-adv-x="755" 
d="M476 -7q-17 0 -52 7v49q25 -5 48 -5q84 0 130 44t46 128q0 79 -48.5 121.5t-126.5 42.5q-100 0 -176 -31v-349h-58v664h-225v50h502v-50h-219v-264q101 30 179 30q98 0 164.5 -55.5t66.5 -155.5q0 -107 -60.5 -166.5t-170.5 -59.5z" />
    <glyph glyph-name="uni0403" unicode="&#x403;" horiz-adv-x="489" 
d="M95 0v714h380v-50h-322v-664h-58zM320 903h67l-108 -134h-44z" />
    <glyph glyph-name="uni0404" unicode="&#x404;" horiz-adv-x="605" 
d="M399 -12q-159 0 -249 103.5t-90 270.5q0 162 90.5 263t252.5 101q94 0 164 -35l-18 -46q-64 31 -145 31q-129 0 -202.5 -78.5t-81.5 -204.5h313v-50h-314q5 -136 78.5 -220.5t204.5 -84.5q88 0 156 37l17 -47q-73 -40 -176 -40z" />
    <glyph glyph-name="uni0405" unicode="&#x405;" horiz-adv-x="529" 
d="M252 -12q-109 0 -204 45l16 52q88 -47 189 -47q77 0 123 35t46 102q0 60 -43.5 96t-137.5 74q-94 39 -138.5 84t-44.5 117q0 88 65.5 134t156.5 46q97 0 171 -32l-16 -50q-73 32 -156 32q-69 0 -116 -31t-47 -96q0 -56 36.5 -89t121.5 -67q106 -42 156 -88t50 -126
q0 -94 -64.5 -142.5t-163.5 -48.5z" />
    <glyph glyph-name="uni0406" unicode="&#x406;" horiz-adv-x="248" 
d="M95 0v714h58v-714h-58z" />
    <glyph glyph-name="uni0407" unicode="&#x407;" horiz-adv-x="248" 
d="M95 0v714h58v-714h-58zM8 876h62v-73h-62v73zM179 876h61v-73h-61v73z" />
    <glyph glyph-name="uni0408" unicode="&#x408;" horiz-adv-x="301" 
d="M217 714v-575q0 -151 -142 -151q-39 0 -68 6v50q29 -6 60 -6q49 0 70.5 24.5t21.5 78.5v573h58z" />
    <glyph glyph-name="uni0409" unicode="&#x409;" horiz-adv-x="1051" 
d="M55 -3q-23 0 -46 3v52q18 -3 35 -3q103 0 129 120t32 441q1 68 2 104h401v-311h164q103 0 168.5 -46.5t65.5 -154.5q0 -202 -234 -202h-222v664h-286q-3 -312 -16 -414q-22 -179 -100 -229q-38 -24 -93 -24zM608 50h153q41 0 71.5 6t58.5 21.5t42.5 47t14.5 77.5
q0 151 -181 151h-159v-303z" />
    <glyph glyph-name="uni040A" unicode="&#x40a;" horiz-adv-x="1031" 
d="M95 0v714h58v-316h379v316h58v-316h170q99 0 163 -46.5t64 -150.5q0 -201 -228 -201h-227v348h-379v-348h-58zM590 50h158q84 0 132.5 32t48.5 119q0 147 -171 147h-168v-298z" />
    <glyph glyph-name="uni040B" unicode="&#x40b;" horiz-adv-x="758" 
d="M239 0v664h-225v50h502v-50h-219v-265q90 31 169 31q48 0 82 -7t67.5 -27.5t51 -64t17.5 -110.5v-221h-57v219q0 92 -41.5 126t-128.5 34q-41 0 -88 -10t-72 -20v-349h-58z" />
    <glyph glyph-name="uni040C" unicode="&#x40c;" horiz-adv-x="563" 
d="M95 0v714h58v-334h2l309 334h76l-323 -342l339 -372h-77l-324 359h-2v-359h-58zM351 903h67l-108 -134h-44z" />
    <glyph glyph-name="uni040D" unicode="&#x40d;" horiz-adv-x="696" 
d="M95 0v714h58v-648h2l366 648h85v-714h-58v651h-2l-368 -651h-83zM231 904h67l84 -134h-45z" />
    <glyph glyph-name="uni040E" unicode="&#x40e;" horiz-adv-x="598" 
d="M153 0l125 229l-275 485h66l240 -426l223 426h63l-377 -714h-65zM308 773q-134 0 -140 128h46q4 -41 25.5 -63.5t68.5 -22.5q87 0 94 86h46q-6 -128 -140 -128z" />
    <glyph glyph-name="uni040F" unicode="&#x40f;" horiz-adv-x="677" 
d="M317 -174l-8 174h-214v714h58v-664h371v664h58v-714h-214l-7 -174h-44z" />
    <glyph glyph-name="uni0410" unicode="&#x410;" horiz-adv-x="642" 
d="M6 0l277 714h80l273 -714h-63l-89 227h-328l-88 -227h-62zM172 277h297l-147 393z" />
    <glyph glyph-name="uni0411" unicode="&#x411;" horiz-adv-x="609" 
d="M95 0v714h406v-50h-348v-266h172q100 0 163.5 -46.5t63.5 -150.5q0 -201 -228 -201h-229zM153 50h160q84 0 132.5 32t48.5 119q0 147 -171 147h-170v-298z" />
    <glyph glyph-name="uni0412" unicode="&#x412;" horiz-adv-x="610" 
d="M95 0v714h225q99 0 156.5 -45t57.5 -135q0 -67 -37 -108t-100 -55v-2q69 -13 112.5 -54.5t43.5 -117.5q0 -88 -58 -142.5t-168 -54.5h-232zM153 50h165q177 0 177 148q0 145 -194 145h-148v-293zM153 393h148q83 0 129 34.5t46 103.5q0 133 -168 133h-155v-271z" />
    <glyph glyph-name="uni0413" unicode="&#x413;" horiz-adv-x="489" 
d="M95 0v714h380v-50h-322v-664h-58z" />
    <glyph glyph-name="uni0414" unicode="&#x414;" horiz-adv-x="708" 
d="M10 -174v224h68q60 82 89.5 212t29.5 335v117h400v-664h95v-224h-49l-7 174h-570l-7 -174h-49zM144 50h395v614h-287v-86q0 -365 -108 -528z" />
    <glyph glyph-name="uni0415" unicode="&#x415;" horiz-adv-x="536" 
d="M95 0v714h380v-50h-322v-271h299v-50h-299v-293h331v-50h-389z" />
    <glyph glyph-name="uni0416" unicode="&#x416;" horiz-adv-x="847" 
d="M7 0l320 372l-304 342h76l294 -337h1v337h59v-337h1l294 337h76l-304 -342l321 -372h-78l-309 362h-1v-362h-59v362h-1l-309 -362h-77z" />
    <glyph glyph-name="uni0417" unicode="&#x417;" horiz-adv-x="538" 
d="M244 -12q-116 0 -198 45l19 50q72 -45 179 -45q80 0 130 40.5t50 115.5q0 149 -198 149h-59v50h58q180 0 180 152q0 62 -44 96.5t-113 34.5q-92 0 -160 -36l-16 48q86 38 178 38q91 0 152 -47t61 -130q0 -145 -138 -178v-2q72 -11 114.5 -56.5t42.5 -116.5
q0 -97 -67.5 -152.5t-170.5 -55.5z" />
    <glyph glyph-name="uni0418" unicode="&#x418;" horiz-adv-x="701" 
d="M95 0v714h58v-648h2l366 648h85v-714h-58v651h-2l-368 -651h-83z" />
    <glyph glyph-name="uni0419" unicode="&#x419;" horiz-adv-x="701" 
d="M95 0v714h58v-648h2l366 648h85v-714h-58v651h-2l-368 -651h-83zM349 773q-134 0 -140 128h46q4 -41 25.5 -63.5t68.5 -22.5q87 0 94 86h46q-6 -128 -140 -128z" />
    <glyph glyph-name="uni041A" unicode="&#x41a;" horiz-adv-x="563" 
d="M95 0v714h58v-334h2l309 334h76l-323 -342l339 -372h-77l-324 359h-2v-359h-58z" />
    <glyph glyph-name="uni041B" unicode="&#x41b;" horiz-adv-x="703" 
d="M55 -3q-23 0 -46 3v52q18 -3 35 -3q103 0 129 120t32 441q1 68 2 104h401v-714h-58v664h-286q-3 -312 -16 -414q-22 -179 -100 -229q-38 -24 -93 -24z" />
    <glyph glyph-name="uni041C" unicode="&#x41c;" horiz-adv-x="861" 
d="M95 0v714h100l233 -660h2l236 660h100v-714h-56v669h-2l-243 -669h-75l-238 669h-2v-669h-55z" />
    <glyph glyph-name="uni041D" unicode="&#x41d;" horiz-adv-x="685" 
d="M95 0v714h58v-321h379v321h58v-714h-58v343h-379v-343h-58z" />
    <glyph glyph-name="uni041E" unicode="&#x41e;" horiz-adv-x="747" 
d="M374 -12q-145 0 -228 101.5t-83 266.5q0 166 82.5 268t228.5 102t228 -102t82 -268q0 -164 -83 -266t-227 -102zM374 38q121 0 186.5 90t65.5 228q0 139 -66 229.5t-186 90.5q-121 0 -187 -90.5t-66 -229.5q0 -138 65.5 -228t187.5 -90z" />
    <glyph glyph-name="uni041F" unicode="&#x41f;" horiz-adv-x="677" 
d="M95 0v714h487v-714h-58v664h-371v-664h-58z" />
    <glyph glyph-name="uni0420" unicode="&#x420;" horiz-adv-x="593" 
d="M95 0v714h215q234 0 234 -195q0 -205 -233 -205h-158v-314h-58zM153 364h152q181 0 181 152q0 45 -14.5 75.5t-42.5 45.5t-58.5 21t-71.5 6h-146v-300z" />
    <glyph glyph-name="uni0421" unicode="&#x421;" horiz-adv-x="605" 
d="M399 -12q-159 0 -249 101.5t-90 265.5q0 165 90.5 268t252.5 103q100 0 164 -35l-18 -47q-62 32 -145 32q-138 0 -212 -89.5t-74 -232.5q0 -137 74 -226.5t210 -89.5q90 0 156 37l17 -47q-75 -40 -176 -40z" />
    <glyph glyph-name="uni0422" unicode="&#x422;" horiz-adv-x="530" 
d="M239 0v664h-225v50h502v-50h-219v-664h-58z" />
    <glyph glyph-name="uni0423" unicode="&#x423;" horiz-adv-x="598" 
d="M153 0l125 229l-275 485h66l240 -426l223 426h63l-377 -714h-65z" />
    <glyph glyph-name="uni0424" unicode="&#x424;" horiz-adv-x="814" 
d="M378 -12v91q-157 4 -239 80t-82 205q0 128 82 207t239 83v72h58v-72q157 -4 239.5 -83t82.5 -207q0 -129 -82.5 -205t-239.5 -80v-91h-58zM378 129v475q-120 -5 -191 -67t-71 -173q0 -112 71 -171.5t191 -63.5zM436 129q121 4 192.5 63.5t71.5 171.5q0 111 -72 173
t-192 67v-475z" />
    <glyph glyph-name="uni0425" unicode="&#x425;" horiz-adv-x="585" 
d="M10 0l249 371l-226 343h68l193 -300l197 300h66l-229 -343l246 -371h-70l-212 325l-214 -325h-68z" />
    <glyph glyph-name="uni0426" unicode="&#x426;" horiz-adv-x="692" 
d="M628 -174l-7 174h-526v714h58v-664h371v664h58v-664h95v-224h-49z" />
    <glyph glyph-name="uni0427" unicode="&#x427;" horiz-adv-x="620" 
d="M467 0v316q-84 -25 -173 -25q-38 0 -66 3.5t-58.5 16t-49.5 34.5t-31.5 61t-12.5 93v215h58v-213q0 -92 41.5 -126t127.5 -34q40 0 91.5 8.5t72.5 15.5v349h59v-714h-59z" />
    <glyph glyph-name="uni0428" unicode="&#x428;" horiz-adv-x="976" 
d="M95 0v714h58v-664h306v664h58v-664h306v664h58v-714h-786z" />
    <glyph glyph-name="uni0429" unicode="&#x429;" horiz-adv-x="992" 
d="M928 -174l-8 174h-825v714h58v-664h306v664h58v-664h306v664h58v-664h95v-224h-48z" />
    <glyph glyph-name="uni042A" unicode="&#x42a;" horiz-adv-x="690" 
d="M189 0v664h-175v50h233v-311h165q48 0 87.5 -10t74 -32t53.5 -62.5t19 -96.5q0 -202 -234 -202h-223zM247 50h154q41 0 71.5 6t58 21.5t42.5 47t15 77.5q0 151 -181 151h-160v-303z" />
    <glyph glyph-name="uni042B" unicode="&#x42b;" horiz-adv-x="796" 
d="M95 0v714h58v-311h161q103 0 169 -46.5t66 -154.5q0 -202 -235 -202h-219zM153 50h150q41 0 71.5 6t58.5 21.5t42.5 47t14.5 77.5q0 151 -181 151h-156v-303zM642 0v714h58v-714h-58z" />
    <glyph glyph-name="uni042C" unicode="&#x42c;" horiz-adv-x="596" 
d="M95 0v714h58v-311h164q103 0 168.5 -46.5t65.5 -154.5q0 -202 -234 -202h-222zM153 50h153q41 0 71.5 6t58.5 21.5t42.5 47t14.5 77.5q0 151 -181 151h-159v-303z" />
    <glyph glyph-name="uni042D" unicode="&#x42d;" horiz-adv-x="605" 
d="M206 -12q-103 0 -176 40l17 47q69 -37 156 -37q131 0 204.5 84.5t78.5 220.5h-314v50h314q-9 126 -82 204.5t-202 78.5q-83 0 -145 -31l-18 46q68 35 163 35q163 0 253 -101t90 -263q0 -167 -90 -270.5t-249 -103.5z" />
    <glyph glyph-name="uni042E" unicode="&#x42e;" horiz-adv-x="949" 
d="M589 -12q-139 0 -217.5 97.5t-82.5 257.5h-136v-343h-58v714h58v-321h138q9 151 87 242t211 91q141 0 219 -102t78 -268q0 -165 -78.5 -266.5t-218.5 -101.5zM589 38q117 0 178.5 89t61.5 229q0 141 -61.5 230.5t-178.5 89.5t-179 -89.5t-62 -230.5q0 -140 61.5 -229
t179.5 -89z" />
    <glyph glyph-name="uni042F" unicode="&#x42f;" horiz-adv-x="609" 
d="M33 0l203 315q-170 25 -170 194q0 59 19 100.5t54.5 63.5t77.5 31.5t97 9.5h200v-714h-59v310h-153l-196 -310h-73zM310 360h145v304h-138q-90 0 -141.5 -32.5t-51.5 -118.5t49 -119.5t137 -33.5z" />
    <glyph glyph-name="uni0430" unicode="&#x430;" horiz-adv-x="546" 
d="M222 -12q-71 0 -119 40t-48 116q0 53 25.5 88.5t75 54.5t108.5 26.5t139 7.5v25q0 147 -144 147q-72 0 -138 -30l-13 48q74 29 154 29q198 0 198 -189v-224q0 -74 10 -127h-52q-8 39 -10 101h-2q-21 -50 -67.5 -81.5t-116.5 -31.5zM226 35q87 0 132 56t45 137v50h-25
q-59 0 -103.5 -5.5t-83.5 -19.5t-60 -40.5t-21 -65.5q0 -51 30 -81.5t86 -30.5z" />
    <glyph glyph-name="uni0431" unicode="&#x431;" horiz-adv-x="593" 
d="M305 -12q-236 0 -236 301q0 150 14.5 229.5t66.5 124.5q56 48 202 69q116 16 155 23l7 -49q-25 -5 -88 -13.5t-82 -11.5q-113 -18 -164 -56q-56 -43 -58 -190h2q59 113 190 113q101 0 161 -74.5t60 -193.5q0 -123 -61.5 -197.5t-168.5 -74.5zM305 35q82 0 127.5 62
t45.5 162q0 102 -44.5 162.5t-127.5 60.5q-85 0 -132 -61.5t-47 -159.5q0 -107 48 -166.5t130 -59.5z" />
    <glyph glyph-name="uni0432" unicode="&#x432;" horiz-adv-x="539" 
d="M90 0v528h219q73 0 115.5 -33t42.5 -100q0 -92 -98 -117v-1q48 -9 80 -42t32 -89q0 -66 -43 -106t-124 -40h-224zM147 47h152q125 0 125 103q0 102 -137 102h-140v-205zM147 297h144q122 0 122 94q0 90 -117 90h-149v-184z" />
    <glyph glyph-name="uni0433" unicode="&#x433;" horiz-adv-x="419" 
d="M90 0v528h320v-47h-263v-481h-57z" />
    <glyph glyph-name="uni0434" unicode="&#x434;" horiz-adv-x="602" 
d="M12 -158v205h64q45 64 67.5 148.5t22.5 228.5v104h336v-481h86v-205h-46l-7 158h-471l-6 -158h-46zM140 47h305v434h-225v-61q0 -260 -80 -373z" />
    <glyph glyph-name="uni0435" unicode="&#x435;" horiz-adv-x="557" 
d="M318 -12q-126 0 -193.5 77.5t-67.5 202.5q0 116 61.5 194t170.5 78q108 0 161.5 -69t53.5 -188v-32h-390q2 -94 55.5 -155t150.5 -61q81 0 140 25l10 -46q-67 -26 -152 -26zM114 298h337v5q0 87 -42 138.5t-120 51.5q-83 0 -126.5 -56t-48.5 -139z" />
    <glyph glyph-name="uni0436" unicode="&#x436;" horiz-adv-x="740" 
d="M14 0l261 279l-252 249h74l242 -244h2v244h57v-244h2l242 244h75l-254 -249l262 -279h-75l-250 269h-2v-269h-57v269h-2l-250 -269h-75z" />
    <glyph glyph-name="uni0437" unicode="&#x437;" horiz-adv-x="463" 
d="M203 -12q-97 0 -166 33l16 47q62 -33 147 -33q73 0 111.5 29.5t38.5 81.5q0 106 -152 106h-51v47h51q62 0 100.5 26.5t38.5 78.5q0 46 -36.5 67.5t-91.5 21.5q-77 0 -137 -30l-14 45q71 32 158 32q80 0 129 -34t49 -100q0 -50 -29 -81.5t-80 -43.5v-2q53 -6 88 -41
t35 -90q0 -79 -57 -119.5t-148 -40.5z" />
    <glyph glyph-name="uni0438" unicode="&#x438;" horiz-adv-x="605" 
d="M90 0v528h57v-466h1l288 466h79v-528h-57v468h-1l-290 -468h-77z" />
    <glyph glyph-name="uni0439" unicode="&#x439;" horiz-adv-x="605" 
d="M90 0v528h57v-466h1l288 466h79v-528h-57v468h-1l-290 -468h-77zM303 613q-134 0 -140 129h46q8 -86 94 -86q48 0 69.5 22t24.5 64h46q-6 -129 -140 -129z" />
    <glyph glyph-name="uni043A" unicode="&#x43a;" horiz-adv-x="491" 
d="M90 0v528h57v-240h2l250 240h75l-266 -249l275 -279h-75l-259 265h-2v-265h-57z" />
    <glyph glyph-name="uni043B" unicode="&#x43b;" horiz-adv-x="588" 
d="M47 -4q-24 0 -41 4v46q18 -2 28 -2q81 0 102 98.5t26 385.5h336v-528h-57v481h-224q-1 -88 -2.5 -143t-7.5 -117.5t-17 -98t-29.5 -67.5t-46.5 -45.5t-67 -13.5z" />
    <glyph glyph-name="uni043C" unicode="&#x43c;" horiz-adv-x="728" 
d="M90 0v528h91l180 -479h2l182 479h93v-528h-56v482h-2l-184 -482h-69l-181 482h-1v-482h-55z" />
    <glyph glyph-name="uni043D" unicode="&#x43d;" horiz-adv-x="593" 
d="M90 0v528h57v-230h299v230h58v-528h-58v251h-299v-251h-57z" />
    <glyph glyph-name="uni043E" unicode="&#x43e;" horiz-adv-x="591" 
d="M296 -12q-111 0 -174.5 75t-63.5 202t63 201t175 74q111 0 174 -74t63 -201t-63 -202t-174 -75zM296 35q89 0 134.5 63.5t45.5 166.5q0 102 -45.5 165t-134.5 63t-135 -63t-46 -165t46.5 -166t134.5 -64z" />
    <glyph glyph-name="uni043F" unicode="&#x43f;" horiz-adv-x="587" 
d="M90 0v528h407v-528h-57v481h-293v-481h-57z" />
    <glyph glyph-name="uni0440" unicode="&#x440;" horiz-adv-x="602" 
d="M90 -195v723h55v-104h2q24 51 72 83.5t109 32.5q100 0 158 -78.5t58 -197.5q0 -120 -59.5 -198t-160.5 -78q-58 0 -103.5 30.5t-71.5 80.5h-2v-294h-57zM319 35q80 0 124 65t44 164q0 100 -44 164.5t-123 64.5q-82 0 -129 -63.5t-47 -165.5q0 -101 47.5 -165t127.5 -64z
" />
    <glyph glyph-name="uni0441" unicode="&#x441;" horiz-adv-x="475" 
d="M317 -12q-123 0 -191 77.5t-68 198.5t70 198.5t190 77.5q65 0 117 -20l-13 -47q-44 20 -103 20q-96 0 -150 -65t-54 -164t54 -164t149 -65q59 0 107 20l10 -46q-53 -21 -118 -21z" />
    <glyph glyph-name="uni0442" unicode="&#x442;" horiz-adv-x="437" 
d="M190 0v481h-181v47h419v-47h-181v-481h-57z" />
    <glyph glyph-name="uni0443" unicode="&#x443;" horiz-adv-x="485" 
d="M134 -195l81 203l-208 520h62l177 -454h2l170 454h61l-285 -723h-60z" />
    <glyph glyph-name="uni0444" unicode="&#x444;" horiz-adv-x="717" 
d="M330 -195v188q-129 5 -201.5 75t-72.5 197q0 125 74 195.5t200 74.5v200h57v-200q127 -4 200.5 -74.5t73.5 -195.5q0 -127 -72.5 -197t-201.5 -75v-188h-57zM330 39v449q-103 -4 -159.5 -62.5t-56.5 -160.5q0 -104 56 -163t160 -63zM387 37v2q106 5 161 64t55 163
q0 102 -57 160t-159 62v-451z" />
    <glyph glyph-name="uni0445" unicode="&#x445;" horiz-adv-x="479" 
d="M15 0l190 274l-173 254h66l143 -217l145 217h64l-174 -253l187 -275h-66l-158 236l-159 -236h-65z" />
    <glyph glyph-name="uni0446" unicode="&#x446;" horiz-adv-x="597" 
d="M537 -158l-7 158h-440v528h57v-481h293v481h57v-481h86v-205h-46z" />
    <glyph glyph-name="uni0447" unicode="&#x447;" horiz-adv-x="533" 
d="M386 0v222q-19 -6 -68 -15t-85 -9q-87 0 -130 37.5t-43 123.5v169h57v-158q0 -71 31.5 -98t98.5 -27q31 0 76.5 8.5t62.5 14.5v260h57v-528h-57z" />
    <glyph glyph-name="uni0448" unicode="&#x448;" horiz-adv-x="857" 
d="M90 0v528h57v-481h253v481h57v-481h253v481h57v-528h-677z" />
    <glyph glyph-name="uni0449" unicode="&#x449;" horiz-adv-x="867" 
d="M807 -158l-7 158h-710v528h57v-481h253v481h57v-481h253v481h57v-481h86v-205h-46z" />
    <glyph glyph-name="uni044A" unicode="&#x44a;" horiz-adv-x="579" 
d="M150 0v481h-140v47h197v-212h157q75 0 124.5 -39t49.5 -117q0 -160 -182 -160h-206zM207 47h139q64 0 99.5 24t35.5 88q0 57 -35 83.5t-87 26.5h-152v-222z" />
    <glyph glyph-name="uni044B" unicode="&#x44b;" horiz-adv-x="699" 
d="M90 0v528h57v-212h151q75 0 124.5 -39t49.5 -117q0 -160 -182 -160h-200zM147 47h133q64 0 99.5 24t35.5 88q0 57 -35 83.5t-87 26.5h-146v-222zM552 0v528h57v-528h-57z" />
    <glyph glyph-name="uni044C" unicode="&#x44c;" horiz-adv-x="519" 
d="M90 0v528h57v-212h156q75 0 125 -39t50 -117q0 -160 -182 -160h-206zM147 47h139q63 0 98.5 24t35.5 88q0 57 -34.5 83.5t-86.5 26.5h-152v-222z" />
    <glyph glyph-name="uni044D" unicode="&#x44d;" horiz-adv-x="477" 
d="M159 -12q-65 0 -121 21l14 46q49 -20 106 -20q93 0 146.5 61t57.5 155h-241v47h240q-9 87 -62 141t-139 54q-59 0 -102 -19l-14 45q55 21 117 21q119 0 188.5 -77t69.5 -198t-68 -199t-192 -78z" />
    <glyph glyph-name="uni044E" unicode="&#x44e;" horiz-adv-x="774" 
d="M486 -12q-104 0 -165 70t-66 193h-108v-251h-57v528h57v-230h110q7 111 68 176.5t161 65.5q106 0 168 -73.5t62 -201.5q0 -129 -61.5 -203t-168.5 -74zM486 35q84 0 128.5 61.5t44.5 168.5q0 105 -45 166.5t-128 61.5t-128 -61.5t-45 -166.5q0 -106 45 -168t128 -62z" />
    <glyph glyph-name="uni044F" unicode="&#x44f;" horiz-adv-x="542" 
d="M48 0l149 215q-57 12 -91 49.5t-34 101.5q0 162 184 162h196v-528h-57v210h-140l-139 -210h-68zM263 256h132v225h-124q-68 0 -106 -24t-38 -88q0 -113 136 -113z" />
    <glyph glyph-name="uni0450" unicode="&#x450;" horiz-adv-x="557" 
d="M293 604l-117 164h64l96 -164h-43zM318 -12q-126 0 -193.5 77.5t-67.5 202.5q0 116 61.5 194t170.5 78q108 0 161.5 -69t53.5 -188v-32h-390q2 -94 55.5 -155t150.5 -61q81 0 140 25l10 -46q-67 -26 -152 -26zM114 298h337v5q0 87 -42 138.5t-120 51.5q-83 0 -126.5 -56
t-48.5 -139z" />
    <glyph glyph-name="uni0451" unicode="&#x451;" horiz-adv-x="557" 
d="M318 -12q-126 0 -193.5 77.5t-67.5 202.5q0 116 61.5 194t170.5 78q108 0 161.5 -69t53.5 -188v-32h-390q2 -94 55.5 -155t150.5 -61q81 0 140 25l10 -46q-67 -26 -152 -26zM114 298h337v5q0 87 -42 138.5t-120 51.5q-83 0 -126.5 -56t-48.5 -139zM180 714h62v-73h-62v73
zM351 714h61v-73h-61v73z" />
    <glyph glyph-name="uni0452" unicode="&#x452;" horiz-adv-x="590" 
d="M347 -195q-24 0 -48 4v46q24 -3 42 -3q61 0 85 36.5t24 110.5v316q0 167 -142 167q-68 0 -114.5 -47t-46.5 -138v-297h-57v589h-101v47h101v99h57v-99h164v-47h-164v-162h2q23 48 68.5 75t102.5 27q89 0 138 -52.5t49 -141.5v-358q0 -81 -40.5 -126.5t-119.5 -45.5z" />
    <glyph glyph-name="uni0453" unicode="&#x453;" horiz-adv-x="419" 
d="M351 768l-117 -164h-43l97 164h63zM90 0v528h320v-47h-263v-481h-57z" />
    <glyph glyph-name="uni0454" unicode="&#x454;" horiz-adv-x="479" 
d="M320 -12q-124 0 -193 78t-69 199q0 120 70.5 197.5t189.5 77.5q60 0 117 -21l-15 -45q-42 19 -101 19q-86 0 -140 -54.5t-63 -140.5h236v-47h-238q5 -94 59 -155t147 -61q58 0 107 20l13 -46q-54 -21 -120 -21z" />
    <glyph glyph-name="uni0455" unicode="&#x455;" horiz-adv-x="456" 
d="M219 -12q-95 0 -168 38l16 46q76 -37 153 -37q123 0 123 96q0 42 -32.5 67.5t-102.5 51.5q-75 28 -111 61t-36 89q0 68 51.5 104t123.5 36q85 0 142 -29l-15 -45q-55 27 -127 27q-51 0 -84.5 -21t-33.5 -67q0 -41 26.5 -63.5t92.5 -47.5q83 -30 123 -64.5t40 -95.5
q0 -73 -51.5 -109.5t-129.5 -36.5z" />
    <glyph glyph-name="uni0456" unicode="&#x456;" horiz-adv-x="236" 
d="M90 0v528h57v-528h-57zM86 658v69h65v-69h-65z" />
    <glyph glyph-name="uni0457" unicode="&#x457;" horiz-adv-x="236" 
d="M2 714h62v-73h-62v73zM173 714h61v-73h-61v73zM90 528h57v-528h-57v528z" />
    <glyph glyph-name="uni0458" unicode="&#x458;" horiz-adv-x="236" 
d="M13 -195q-23 0 -47 4v46q24 -3 41 -3q48 0 65.5 26t17.5 82v568h57v-577q0 -146 -134 -146zM86 658v69h65v-69h-65z" />
    <glyph glyph-name="uni0459" unicode="&#x459;" horiz-adv-x="870" 
d="M47 -4q-24 0 -41 4v46q18 -2 28 -2q81 0 102 98.5t26 385.5h336v-212h157q75 0 124.5 -39t49.5 -117q0 -160 -182 -160h-206v481h-224q-1 -88 -2.5 -143t-7.5 -117.5t-17 -98t-29.5 -67.5t-46.5 -45.5t-67 -13.5zM498 47h139q63 0 98.5 24t35.5 88q0 57 -34.5 83.5
t-86.5 26.5h-152v-222z" />
    <glyph glyph-name="uni045A" unicode="&#x45a;" horiz-adv-x="875" 
d="M90 0v528h57v-229h299v229h57v-229h164q72 0 119.5 -36t47.5 -111q0 -85 -46.5 -118.5t-127.5 -33.5h-214v252h-299v-252h-57zM503 47h147q62 0 95 21.5t33 82.5q0 53 -33 77t-83 24h-159v-205z" />
    <glyph glyph-name="uni045B" unicode="&#x45b;" horiz-adv-x="590" 
d="M90 0v589h-101v47h101v99h57v-99h164v-47h-164v-162h2q23 48 68.5 75t102.5 27q89 0 138 -52.5t49 -141.5v-335h-57v315q0 167 -142 167q-68 0 -114.5 -47t-46.5 -138v-297h-57z" />
    <glyph glyph-name="uni045C" unicode="&#x45c;" horiz-adv-x="491" 
d="M385 768l-117 -164h-43l97 164h63zM90 0v528h57v-240h2l250 240h75l-266 -249l275 -279h-75l-259 265h-2v-265h-57z" />
    <glyph glyph-name="uni045D" unicode="&#x45d;" horiz-adv-x="599" 
d="M297 604l-117 164h64l96 -164h-43zM90 0v528h57v-466h1l288 466h79v-528h-57v468h-1l-290 -468h-77z" />
    <glyph glyph-name="uni045E" unicode="&#x45e;" horiz-adv-x="485" 
d="M134 -195l81 203l-208 520h62l177 -454h2l170 454h61l-285 -723h-60zM247 613q-134 0 -140 129h46q8 -86 94 -86q48 0 69.5 22t24.5 64h46q-6 -129 -140 -129z" />
    <glyph glyph-name="uni045F" unicode="&#x45f;" horiz-adv-x="587" 
d="M272 -158l-8 158h-174v528h57v-481h293v481h58v-528h-176l-8 -158h-42z" />
    <glyph glyph-name="uni0490" unicode="&#x490;" horiz-adv-x="489" 
d="M95 0v714h325l9 148h46v-198h-322v-664h-58z" />
    <glyph glyph-name="uni0491" unicode="&#x491;" horiz-adv-x="419" 
d="M90 0v528h268l7 135h45v-182h-263v-481h-57z" />
    <glyph glyph-name="Wgrave" unicode="&#x1e80;" horiz-adv-x="933" 
d="M626 0l-160 668h-2l-157 -668h-85l-180 714h62l160 -660h2l155 660h90l157 -660h2l160 660h61l-181 -714h-84zM341 904h67l84 -134h-45z" />
    <glyph glyph-name="wgrave" unicode="&#x1e81;" horiz-adv-x="779" 
d="M522 0l-131 479h-2l-133 -479h-76l-156 528h62l132 -478h2l130 478h80l131 -478h2l131 478h61l-157 -528h-76zM378 604l-117 164h64l96 -164h-43z" />
    <glyph glyph-name="Wacute" unicode="&#x1e82;" horiz-adv-x="933" 
d="M626 0l-160 668h-2l-157 -668h-85l-180 714h62l160 -660h2l155 660h90l157 -660h2l160 660h61l-181 -714h-84zM523 903h67l-108 -134h-44z" />
    <glyph glyph-name="wacute" unicode="&#x1e83;" horiz-adv-x="779" 
d="M522 0l-131 479h-2l-133 -479h-76l-156 528h62l132 -478h2l130 478h80l131 -478h2l131 478h61l-157 -528h-76zM524 768l-117 -164h-43l97 164h63z" />
    <glyph glyph-name="Wdieresis" unicode="&#x1e84;" horiz-adv-x="933" 
d="M626 0l-160 668h-2l-157 -668h-85l-180 714h62l160 -660h2l155 660h90l157 -660h2l160 660h61l-181 -714h-84zM350 876h62v-73h-62v73zM521 876h61v-73h-61v73z" />
    <glyph glyph-name="wdieresis" unicode="&#x1e85;" horiz-adv-x="779" 
d="M522 0l-131 479h-2l-133 -479h-76l-156 528h62l132 -478h2l130 478h80l131 -478h2l131 478h61l-157 -528h-76zM274 714h62v-73h-62v73zM445 714h61v-73h-61v73z" />
    <glyph glyph-name="uni1EA0" unicode="&#x1ea0;" horiz-adv-x="642" 
d="M156 227l-88 -227h-62l277 714h80l273 -714h-63l-89 227h-328zM322 670l-150 -393h297zM288 -128h69v-75h-69v75z" />
    <glyph glyph-name="uni1EA1" unicode="&#x1ea1;" horiz-adv-x="546" 
d="M403 321v25q0 147 -144 147q-72 0 -138 -30l-13 48q74 29 154 29q198 0 198 -189v-224q0 -74 10 -127h-52q-8 39 -10 101h-2q-21 -50 -67.5 -81.5t-116.5 -31.5q-71 0 -119 40t-48 116q0 53 25.5 88.5t75 54.5t108.5 26.5t139 7.5zM403 278h-25q-59 0 -103.5 -5.5
t-83.5 -19.5t-60 -40.5t-21 -65.5q0 -51 30 -81.5t86 -30.5q87 0 132 56t45 137v50zM242 -128h69v-75h-69v75z" />
    <glyph glyph-name="uni1EA2" unicode="&#x1ea2;" horiz-adv-x="642" 
d="M156 227l-88 -227h-62l277 714h80l273 -714h-63l-89 227h-328zM322 670l-150 -393h297zM344 758h-42q0 24 7 35.5t30 24.5q37 21 37 45q0 38 -49 38q-27 0 -57 -14l-10 34q32 17 74 17q37 0 60.5 -18.5t23.5 -54.5q0 -47 -54 -75q-20 -10 -20 -32z" />
    <glyph glyph-name="uni1EA3" unicode="&#x1ea3;" horiz-adv-x="546" 
d="M403 321v25q0 147 -144 147q-72 0 -138 -30l-13 48q74 29 154 29q198 0 198 -189v-224q0 -74 10 -127h-52q-8 39 -10 101h-2q-21 -50 -67.5 -81.5t-116.5 -31.5q-71 0 -119 40t-48 116q0 53 25.5 88.5t75 54.5t108.5 26.5t139 7.5zM403 278h-25q-59 0 -103.5 -5.5
t-83.5 -19.5t-60 -40.5t-21 -65.5q0 -51 30 -81.5t86 -30.5q87 0 132 56t45 137v50zM291 607h-42q0 24 7 35.5t30 24.5q37 21 37 45q0 38 -49 38q-27 0 -57 -14l-10 34q32 17 74 17q37 0 60.5 -18.5t23.5 -54.5q0 -47 -54 -75q-20 -10 -20 -32z" />
    <glyph glyph-name="uni1EA4" unicode="&#x1ea4;" horiz-adv-x="642" 
d="M156 227l-88 -227h-62l277 714h80l273 -714h-63l-89 227h-328zM322 670l-150 -393h297zM473 762h-49l-102 111l-101 -111h-49l120 146h60zM506 970h65l-92 -114h-44z" />
    <glyph glyph-name="uni1EA5" unicode="&#x1ea5;" horiz-adv-x="546" 
d="M403 321v25q0 147 -144 147q-72 0 -138 -30l-13 48q74 29 154 29q198 0 198 -189v-224q0 -74 10 -127h-52q-8 39 -10 101h-2q-21 -50 -67.5 -81.5t-116.5 -31.5q-71 0 -119 40t-48 116q0 53 25.5 88.5t75 54.5t108.5 26.5t139 7.5zM403 278h-25q-59 0 -103.5 -5.5
t-83.5 -19.5t-60 -40.5t-21 -65.5q0 -51 30 -81.5t86 -30.5q87 0 132 56t45 137v50zM426 604h-49l-102 129l-101 -129h-49l120 164h60zM513 855l-92 -133h-43l74 133h61z" />
    <glyph glyph-name="uni1EA6" unicode="&#x1ea6;" horiz-adv-x="642" 
d="M156 227l-88 -227h-62l277 714h80l273 -714h-63l-89 227h-328zM322 670l-150 -393h297zM473 762h-49l-102 111l-101 -111h-49l120 146h60zM73 970h65l71 -114h-44z" />
    <glyph glyph-name="uni1EA7" unicode="&#x1ea7;" horiz-adv-x="546" 
d="M403 321v25q0 147 -144 147q-72 0 -138 -30l-13 48q74 29 154 29q198 0 198 -189v-224q0 -74 10 -127h-52q-8 39 -10 101h-2q-21 -50 -67.5 -81.5t-116.5 -31.5q-71 0 -119 40t-48 116q0 53 25.5 88.5t75 54.5t108.5 26.5t139 7.5zM403 278h-25q-59 0 -103.5 -5.5
t-83.5 -19.5t-60 -40.5t-21 -65.5q0 -51 30 -81.5t86 -30.5q87 0 132 56t45 137v50zM426 604h-49l-102 129l-101 -129h-49l120 164h60zM129 722l-92 133h61l74 -133h-43z" />
    <glyph glyph-name="uni1EA8" unicode="&#x1ea8;" horiz-adv-x="642" 
d="M156 227l-88 -227h-62l277 714h80l273 -714h-63l-89 227h-328zM322 670l-150 -393h297zM473 762h-49l-102 111l-101 -111h-49l120 146h60zM480 845h-42q0 24 6.5 35t30.5 24q36 20 36 45q0 35 -48 35q-27 0 -57 -14l-10 34q32 17 74 17q37 0 60 -18t23 -52q0 -47 -53 -75
q-20 -11 -20 -31z" />
    <glyph glyph-name="uni1EA9" unicode="&#x1ea9;" horiz-adv-x="546" 
d="M403 321v25q0 147 -144 147q-72 0 -138 -30l-13 48q74 29 154 29q198 0 198 -189v-224q0 -74 10 -127h-52q-8 39 -10 101h-2q-21 -50 -67.5 -81.5t-116.5 -31.5q-71 0 -119 40t-48 116q0 53 25.5 88.5t75 54.5t108.5 26.5t139 7.5zM403 278h-25q-59 0 -103.5 -5.5
t-83.5 -19.5t-60 -40.5t-21 -65.5q0 -51 30 -81.5t86 -30.5q87 0 132 56t45 137v50zM426 604h-49l-102 129l-101 -129h-49l120 164h60zM433 705h-42q0 24 6.5 35t30.5 24q36 20 36 45q0 35 -48 35q-27 0 -57 -14l-10 34q32 17 74 17q37 0 60 -18t23 -52q0 -47 -53 -75
q-20 -11 -20 -31z" />
    <glyph glyph-name="uni1EAA" unicode="&#x1eaa;" horiz-adv-x="642" 
d="M156 227l-88 -227h-62l277 714h80l273 -714h-63l-89 227h-328zM322 670l-150 -393h297zM475 762h-49l-104 100l-103 -100h-49l122 133h60zM389 971q19 0 27 13t10 45h43q-3 -99 -81 -99q-34 0 -73 29q-37 28 -59 28q-37 0 -38 -58h-43q3 99 82 99q34 0 73 -29
q37 -28 59 -28z" />
    <glyph glyph-name="uni1EAB" unicode="&#x1eab;" horiz-adv-x="546" 
d="M403 321v25q0 147 -144 147q-72 0 -138 -30l-13 48q74 29 154 29q198 0 198 -189v-224q0 -74 10 -127h-52q-8 39 -10 101h-2q-21 -50 -67.5 -81.5t-116.5 -31.5q-71 0 -119 40t-48 116q0 53 25.5 88.5t75 54.5t108.5 26.5t139 7.5zM403 278h-25q-59 0 -103.5 -5.5
t-83.5 -19.5t-60 -40.5t-21 -65.5q0 -51 30 -81.5t86 -30.5q87 0 132 56t45 137v50zM428 604h-49l-104 110l-103 -110h-49l122 144h60zM342 824q19 0 27 13t10 45h43q-3 -99 -81 -99q-34 0 -73 29q-37 28 -59 28q-37 0 -38 -58h-43q3 99 82 99q34 0 73 -29q37 -28 59 -28z
" />
    <glyph glyph-name="uni1EAC" unicode="&#x1eac;" horiz-adv-x="642" 
d="M156 227l-88 -227h-62l277 714h80l273 -714h-63l-89 227h-328zM322 670l-150 -393h297zM473 762h-49l-102 111l-101 -111h-49l120 146h60zM286 -128h69v-75h-69v75z" />
    <glyph glyph-name="uni1EAD" unicode="&#x1ead;" horiz-adv-x="546" 
d="M403 321v25q0 147 -144 147q-72 0 -138 -30l-13 48q74 29 154 29q198 0 198 -189v-224q0 -74 10 -127h-52q-8 39 -10 101h-2q-21 -50 -67.5 -81.5t-116.5 -31.5q-71 0 -119 40t-48 116q0 53 25.5 88.5t75 54.5t108.5 26.5t139 7.5zM403 278h-25q-59 0 -103.5 -5.5
t-83.5 -19.5t-60 -40.5t-21 -65.5q0 -51 30 -81.5t86 -30.5q87 0 132 56t45 137v50zM426 604h-49l-102 129l-101 -129h-49l120 164h60zM242 -128h69v-75h-69v75z" />
    <glyph glyph-name="uni1EAE" unicode="&#x1eae;" horiz-adv-x="642" 
d="M156 227l-88 -227h-62l277 714h80l273 -714h-63l-89 227h-328zM322 670l-150 -393h297zM322 814q84 0 94 78h46q-3 -51 -36 -85.5t-104 -34.5q-69 0 -102.5 35t-36.5 85h46q4 -78 93 -78zM369 1016h67l-101 -124h-44z" />
    <glyph glyph-name="uni1EAF" unicode="&#x1eaf;" horiz-adv-x="546" 
d="M403 321v25q0 147 -144 147q-72 0 -138 -30l-13 48q74 29 154 29q198 0 198 -189v-224q0 -74 10 -127h-52q-8 39 -10 101h-2q-21 -50 -67.5 -81.5t-116.5 -31.5q-71 0 -119 40t-48 116q0 53 25.5 88.5t75 54.5t108.5 26.5t139 7.5zM403 278h-25q-59 0 -103.5 -5.5
t-83.5 -19.5t-60 -40.5t-21 -65.5q0 -51 30 -81.5t86 -30.5q87 0 132 56t45 137v50zM276 655q84 0 94 78h46q-3 -51 -36 -85.5t-104 -34.5q-69 0 -102.5 35t-36.5 85h46q4 -78 93 -78zM388 875l-100 -139h-43l81 139h62z" />
    <glyph glyph-name="uni1EB0" unicode="&#x1eb0;" horiz-adv-x="642" 
d="M156 227l-88 -227h-62l277 714h80l273 -714h-63l-89 227h-328zM322 670l-150 -393h297zM323 814q89 0 93 78h46q-3 -50 -36.5 -85t-102.5 -35q-71 0 -104 34.5t-36 85.5h46q10 -78 94 -78zM210 1016h67l78 -124h-44z" />
    <glyph glyph-name="uni1EB1" unicode="&#x1eb1;" horiz-adv-x="546" 
d="M403 321v25q0 147 -144 147q-72 0 -138 -30l-13 48q74 29 154 29q198 0 198 -189v-224q0 -74 10 -127h-52q-8 39 -10 101h-2q-21 -50 -67.5 -81.5t-116.5 -31.5q-71 0 -119 40t-48 116q0 53 25.5 88.5t75 54.5t108.5 26.5t139 7.5zM403 278h-25q-59 0 -103.5 -5.5
t-83.5 -19.5t-60 -40.5t-21 -65.5q0 -51 30 -81.5t86 -30.5q87 0 132 56t45 137v50zM277 655q89 0 93 78h46q-3 -50 -36.5 -85t-102.5 -35q-71 0 -104 34.5t-36 85.5h46q10 -78 94 -78zM266 736l-100 139h62l81 -139h-43z" />
    <glyph glyph-name="uni1EB2" unicode="&#x1eb2;" horiz-adv-x="642" 
d="M156 227l-88 -227h-62l277 714h80l273 -714h-63l-89 227h-328zM322 670l-150 -393h297zM323 814q89 0 93 78h46q-3 -50 -36.5 -85t-102.5 -35q-71 0 -104 34.5t-36 85.5h46q10 -78 94 -78zM338 885h-42q0 24 6.5 35t30.5 24q36 20 36 45q0 35 -48 35q-27 0 -57 -14
l-10 34q32 17 74 17q37 0 60 -18t23 -52q0 -47 -53 -75q-20 -11 -20 -31z" />
    <glyph glyph-name="uni1EB3" unicode="&#x1eb3;" horiz-adv-x="546" 
d="M403 321v25q0 147 -144 147q-72 0 -138 -30l-13 48q74 29 154 29q198 0 198 -189v-224q0 -74 10 -127h-52q-8 39 -10 101h-2q-21 -50 -67.5 -81.5t-116.5 -31.5q-71 0 -119 40t-48 116q0 53 25.5 88.5t75 54.5t108.5 26.5t139 7.5zM403 278h-25q-59 0 -103.5 -5.5
t-83.5 -19.5t-60 -40.5t-21 -65.5q0 -51 30 -81.5t86 -30.5q87 0 132 56t45 137v50zM277 655q89 0 93 78h46q-3 -50 -36.5 -85t-102.5 -35q-71 0 -104 34.5t-36 85.5h46q10 -78 94 -78zM292 726h-42q0 24 6.5 35t30.5 24q36 20 36 45q0 35 -48 35q-27 0 -57 -14l-10 34
q32 17 74 17q37 0 60 -18t23 -52q0 -47 -53 -75q-20 -11 -20 -31z" />
    <glyph glyph-name="uni1EB4" unicode="&#x1eb4;" horiz-adv-x="642" 
d="M156 227l-88 -227h-62l277 714h80l273 -714h-63l-89 227h-328zM322 670l-150 -393h297zM323 814q89 0 93 78h46q-3 -50 -36.5 -85t-102.5 -35q-71 0 -104 34.5t-36 85.5h46q10 -78 94 -78zM389 983q19 0 27 13t10 45h43q-3 -99 -81 -99q-34 0 -73 29q-37 28 -59 28
q-37 0 -38 -58h-43q3 99 82 99q34 0 73 -29q37 -28 59 -28z" />
    <glyph glyph-name="uni1EB5" unicode="&#x1eb5;" horiz-adv-x="546" 
d="M403 321v25q0 147 -144 147q-72 0 -138 -30l-13 48q74 29 154 29q198 0 198 -189v-224q0 -74 10 -127h-52q-8 39 -10 101h-2q-21 -50 -67.5 -81.5t-116.5 -31.5q-71 0 -119 40t-48 116q0 53 25.5 88.5t75 54.5t108.5 26.5t139 7.5zM403 278h-25q-59 0 -103.5 -5.5
t-83.5 -19.5t-60 -40.5t-21 -65.5q0 -51 30 -81.5t86 -30.5q87 0 132 56t45 137v50zM277 655q89 0 93 78h46q-3 -50 -36.5 -85t-102.5 -35q-71 0 -104 34.5t-36 85.5h46q10 -78 94 -78zM343 824q19 0 27 13t10 45h43q-3 -99 -81 -99q-34 0 -73 29q-37 28 -59 28
q-37 0 -38 -58h-43q3 99 82 99q34 0 73 -29q37 -28 59 -28z" />
    <glyph glyph-name="uni1EB6" unicode="&#x1eb6;" horiz-adv-x="642" 
d="M156 227l-88 -227h-62l277 714h80l273 -714h-63l-89 227h-328zM322 670l-150 -393h297zM322 815q86 0 94 86h46q-6 -129 -140 -129q-70 0 -103.5 36t-35.5 93h46q3 -86 93 -86zM286 -128h69v-75h-69v75z" />
    <glyph glyph-name="uni1EB7" unicode="&#x1eb7;" horiz-adv-x="546" 
d="M403 321v25q0 147 -144 147q-72 0 -138 -30l-13 48q74 29 154 29q198 0 198 -189v-224q0 -74 10 -127h-52q-8 39 -10 101h-2q-21 -50 -67.5 -81.5t-116.5 -31.5q-71 0 -119 40t-48 116q0 53 25.5 88.5t75 54.5t108.5 26.5t139 7.5zM403 278h-25q-59 0 -103.5 -5.5
t-83.5 -19.5t-60 -40.5t-21 -65.5q0 -51 30 -81.5t86 -30.5q87 0 132 56t45 137v50zM276 655q47 0 68.5 22.5t25.5 63.5h46q-6 -128 -140 -128q-70 0 -103.5 35.5t-35.5 92.5h46q3 -86 93 -86zM242 -128h69v-75h-69v75z" />
    <glyph glyph-name="uni1EB8" unicode="&#x1eb8;" horiz-adv-x="536" 
d="M95 0v714h380v-50h-322v-271h299v-50h-299v-293h331v-50h-389zM258 -128h69v-75h-69v75z" />
    <glyph glyph-name="uni1EB9" unicode="&#x1eb9;" horiz-adv-x="557" 
d="M504 283v-32h-391q2 -94 55.5 -155t151.5 -61q81 0 140 25l10 -46q-67 -26 -152 -26q-126 0 -193.5 77.5t-67.5 202.5q0 116 61.5 194t170.5 78q108 0 161.5 -69t53.5 -188zM451 298v5q0 87 -42 138.5t-120 51.5q-83 0 -127 -56t-49 -139h338zM259 -128h69v-75h-69v75z
" />
    <glyph glyph-name="uni1EBA" unicode="&#x1eba;" horiz-adv-x="536" 
d="M95 0v714h380v-50h-322v-271h299v-50h-299v-293h331v-50h-389zM312 758h-42q0 24 7 35.5t30 24.5q37 21 37 45q0 38 -49 38q-27 0 -57 -14l-10 34q32 17 74 17q37 0 60.5 -18.5t23.5 -54.5q0 -47 -54 -75q-20 -10 -20 -32z" />
    <glyph glyph-name="uni1EBB" unicode="&#x1ebb;" horiz-adv-x="557" 
d="M504 283v-32h-391q2 -94 55.5 -155t151.5 -61q81 0 140 25l10 -46q-67 -26 -152 -26q-126 0 -193.5 77.5t-67.5 202.5q0 116 61.5 194t170.5 78q108 0 161.5 -69t53.5 -188zM451 298v5q0 87 -42 138.5t-120 51.5q-83 0 -127 -56t-49 -139h338zM312 607h-42q0 24 7 35.5
t30 24.5q37 21 37 45q0 38 -49 38q-27 0 -57 -14l-10 34q32 17 74 17q37 0 60.5 -18.5t23.5 -54.5q0 -47 -54 -75q-20 -10 -20 -32z" />
    <glyph glyph-name="uni1EBC" unicode="&#x1ebc;" horiz-adv-x="536" 
d="M95 0v714h380v-50h-322v-271h299v-50h-299v-293h331v-50h-389zM299 856q43 -32 63 -32q40 0 43 67h43q-5 -111 -84 -111q-34 0 -79 34q-41 33 -63 33q-40 0 -43 -67h-43q2 51 23.5 81t61.5 30q34 0 78 -35z" />
    <glyph glyph-name="uni1EBD" unicode="&#x1ebd;" horiz-adv-x="557" 
d="M504 283v-32h-391q2 -94 55.5 -155t151.5 -61q81 0 140 25l10 -46q-67 -26 -152 -26q-126 0 -193.5 77.5t-67.5 202.5q0 116 61.5 194t170.5 78q108 0 161.5 -69t53.5 -188zM451 298v5q0 87 -42 138.5t-120 51.5q-83 0 -127 -56t-49 -139h338zM304 703q44 -33 63 -33
q40 0 43 67h43q-5 -110 -84 -110q-34 0 -79 34q-42 33 -63 33q-40 0 -43 -67h-43q2 51 23.5 80.5t61.5 29.5q33 0 78 -34z" />
    <glyph glyph-name="uni1EBE" unicode="&#x1ebe;" horiz-adv-x="536" 
d="M95 0v714h380v-50h-322v-271h299v-50h-299v-293h331v-50h-389zM442 762h-49l-102 111l-101 -111h-49l120 146h60zM475 970h65l-92 -114h-44z" />
    <glyph glyph-name="uni1EBF" unicode="&#x1ebf;" horiz-adv-x="557" 
d="M504 283v-32h-391q2 -94 55.5 -155t151.5 -61q81 0 140 25l10 -46q-67 -26 -152 -26q-126 0 -193.5 77.5t-67.5 202.5q0 116 61.5 194t170.5 78q108 0 161.5 -69t53.5 -188zM451 298v5q0 87 -42 138.5t-120 51.5q-83 0 -127 -56t-49 -139h338zM447 604h-49l-102 129
l-101 -129h-49l120 164h60zM534 855l-92 -133h-43l74 133h61z" />
    <glyph glyph-name="uni1EC0" unicode="&#x1ec0;" horiz-adv-x="536" 
d="M95 0v714h380v-50h-322v-271h299v-50h-299v-293h331v-50h-389zM442 762h-49l-102 111l-101 -111h-49l120 146h60zM42 970h65l71 -114h-44z" />
    <glyph glyph-name="uni1EC1" unicode="&#x1ec1;" horiz-adv-x="557" 
d="M504 283v-32h-391q2 -94 55.5 -155t151.5 -61q81 0 140 25l10 -46q-67 -26 -152 -26q-126 0 -193.5 77.5t-67.5 202.5q0 116 61.5 194t170.5 78q108 0 161.5 -69t53.5 -188zM451 298v5q0 87 -42 138.5t-120 51.5q-83 0 -127 -56t-49 -139h338zM447 604h-49l-102 129
l-101 -129h-49l120 164h60zM150 722l-92 133h61l74 -133h-43z" />
    <glyph glyph-name="uni1EC2" unicode="&#x1ec2;" horiz-adv-x="536" 
d="M95 0v714h380v-50h-322v-271h299v-50h-299v-293h331v-50h-389zM442 762h-49l-102 111l-101 -111h-49l120 146h60zM449 845h-42q0 24 6.5 35t30.5 24q36 20 36 45q0 35 -48 35q-27 0 -57 -14l-10 34q32 17 74 17q37 0 60 -18t23 -52q0 -47 -53 -75q-20 -11 -20 -31z" />
    <glyph glyph-name="uni1EC3" unicode="&#x1ec3;" horiz-adv-x="557" 
d="M504 283v-32h-391q2 -94 55.5 -155t151.5 -61q81 0 140 25l10 -46q-67 -26 -152 -26q-126 0 -193.5 77.5t-67.5 202.5q0 116 61.5 194t170.5 78q108 0 161.5 -69t53.5 -188zM451 298v5q0 87 -42 138.5t-120 51.5q-83 0 -127 -56t-49 -139h338zM447 604h-49l-102 129
l-101 -129h-49l120 164h60zM454 705h-42q0 24 6.5 35t30.5 24q36 20 36 45q0 35 -48 35q-27 0 -57 -14l-10 34q32 17 74 17q37 0 60 -18t23 -52q0 -47 -53 -75q-20 -11 -20 -31z" />
    <glyph glyph-name="uni1EC4" unicode="&#x1ec4;" horiz-adv-x="536" 
d="M95 0v714h380v-50h-322v-271h299v-50h-299v-293h331v-50h-389zM444 762h-49l-104 100l-103 -100h-49l122 133h60zM358 971q19 0 27 13t10 45h43q-3 -99 -81 -99q-34 0 -73 29q-37 28 -59 28q-37 0 -38 -58h-43q3 99 82 99q34 0 73 -29q37 -28 59 -28z" />
    <glyph glyph-name="uni1EC5" unicode="&#x1ec5;" horiz-adv-x="557" 
d="M504 283v-32h-391q2 -94 55.5 -155t151.5 -61q81 0 140 25l10 -46q-67 -26 -152 -26q-126 0 -193.5 77.5t-67.5 202.5q0 116 61.5 194t170.5 78q108 0 161.5 -69t53.5 -188zM451 298v5q0 87 -42 138.5t-120 51.5q-83 0 -127 -56t-49 -139h338zM449 604h-49l-104 110
l-103 -110h-49l122 144h60zM363 824q19 0 27 13t10 45h43q-3 -99 -81 -99q-34 0 -73 29q-37 28 -59 28q-37 0 -38 -58h-43q3 99 82 99q34 0 73 -29q37 -28 59 -28z" />
    <glyph glyph-name="uni1EC6" unicode="&#x1ec6;" horiz-adv-x="536" 
d="M95 0v714h380v-50h-322v-271h299v-50h-299v-293h331v-50h-389zM442 762h-49l-102 111l-101 -111h-49l120 146h60zM258 -128h69v-75h-69v75z" />
    <glyph glyph-name="uni1EC7" unicode="&#x1ec7;" horiz-adv-x="557" 
d="M504 283v-32h-391q2 -94 55.5 -155t151.5 -61q81 0 140 25l10 -46q-67 -26 -152 -26q-126 0 -193.5 77.5t-67.5 202.5q0 116 61.5 194t170.5 78q108 0 161.5 -69t53.5 -188zM451 298v5q0 87 -42 138.5t-120 51.5q-83 0 -127 -56t-49 -139h338zM447 604h-49l-102 129
l-101 -129h-49l120 164h60zM259 -128h69v-75h-69v75z" />
    <glyph glyph-name="uni1EC8" unicode="&#x1ec8;" horiz-adv-x="248" 
d="M95 0v714h58v-714h-58zM144 758h-42q0 24 7 35.5t30 24.5q37 21 37 45q0 38 -49 38q-27 0 -57 -14l-10 34q32 17 74 17q37 0 60.5 -18.5t23.5 -54.5q0 -47 -54 -75q-20 -10 -20 -32z" />
    <glyph glyph-name="uni1EC9" unicode="&#x1ec9;" horiz-adv-x="237" 
d="M90 528h57v-528h-57v528zM139 607h-42q0 24 7 35.5t30 24.5q37 21 37 45q0 38 -49 38q-27 0 -57 -14l-10 34q32 17 74 17q37 0 60.5 -18.5t23.5 -54.5q0 -47 -54 -75q-20 -10 -20 -32z" />
    <glyph glyph-name="uni1ECA" unicode="&#x1eca;" horiz-adv-x="248" 
d="M95 0v714h58v-714h-58zM89 -128h69v-75h-69v75z" />
    <glyph glyph-name="uni1ECB" unicode="&#x1ecb;" horiz-adv-x="237" 
d="M90 528h57v-528h-57v528zM86 727h65v-69h-65v69zM84 -128h69v-75h-69v75z" />
    <glyph glyph-name="uni1ECC" unicode="&#x1ecc;" horiz-adv-x="747" 
d="M684 356q0 -164 -83 -266t-227 -102q-145 0 -228 101.5t-83 266.5q0 166 82.5 268t228.5 102t228 -102t82 -268zM626 356q0 139 -66 229.5t-186 90.5q-121 0 -187 -90.5t-66 -229.5q0 -138 65.5 -228t187.5 -90q121 0 186.5 90.5t65.5 227.5zM339 -128h69v-75h-69v75z
" />
    <glyph glyph-name="uni1ECD" unicode="&#x1ecd;" horiz-adv-x="591" 
d="M533 265q0 -127 -63 -202t-174 -75t-174.5 75t-63.5 202t63 201t175 74q111 0 174 -74t63 -201zM476 265q0 102 -45.5 165t-134.5 63t-135 -63t-46 -165t46.5 -166t134.5 -64q89 0 134.5 63.5t45.5 166.5zM261 -128h69v-75h-69v75z" />
    <glyph glyph-name="uni1ECE" unicode="&#x1ece;" horiz-adv-x="747" 
d="M684 356q0 -164 -83 -266t-227 -102q-145 0 -228 101.5t-83 266.5q0 166 82.5 268t228.5 102t228 -102t82 -268zM626 356q0 139 -66 229.5t-186 90.5q-121 0 -187 -90.5t-66 -229.5q0 -138 65.5 -228t187.5 -90q121 0 186.5 90.5t65.5 227.5zM390 758h-42q0 24 7 35.5
t30 24.5q37 21 37 45q0 38 -49 38q-27 0 -57 -14l-10 34q32 17 74 17q37 0 60.5 -18.5t23.5 -54.5q0 -47 -54 -75q-20 -10 -20 -32z" />
    <glyph glyph-name="uni1ECF" unicode="&#x1ecf;" horiz-adv-x="591" 
d="M533 265q0 -127 -63 -202t-174 -75t-174.5 75t-63.5 202t63 201t175 74q111 0 174 -74t63 -201zM476 265q0 102 -45.5 165t-134.5 63t-135 -63t-46 -165t46.5 -166t134.5 -64q89 0 134.5 63.5t45.5 166.5zM313 607h-42q0 24 7 35.5t30 24.5q37 21 37 45q0 38 -49 38
q-27 0 -57 -14l-10 34q32 17 74 17q37 0 60.5 -18.5t23.5 -54.5q0 -47 -54 -75q-20 -10 -20 -32z" />
    <glyph glyph-name="uni1ED0" unicode="&#x1ed0;" horiz-adv-x="747" 
d="M684 356q0 -164 -83 -266t-227 -102q-145 0 -228 101.5t-83 266.5q0 166 82.5 268t228.5 102t228 -102t82 -268zM626 356q0 139 -66 229.5t-186 90.5q-121 0 -187 -90.5t-66 -229.5q0 -138 65.5 -228t187.5 -90q121 0 186.5 90.5t65.5 227.5zM524 762h-49l-102 111
l-101 -111h-49l120 146h60zM557 970h65l-92 -114h-44z" />
    <glyph glyph-name="uni1ED1" unicode="&#x1ed1;" horiz-adv-x="591" 
d="M533 265q0 -127 -63 -202t-174 -75t-174.5 75t-63.5 202t63 201t175 74q111 0 174 -74t63 -201zM476 265q0 102 -45.5 165t-134.5 63t-135 -63t-46 -165t46.5 -166t134.5 -64q89 0 134.5 63.5t45.5 166.5zM446 604h-49l-102 129l-101 -129h-49l120 164h60zM533 855
l-92 -133h-43l74 133h61z" />
    <glyph glyph-name="uni1ED2" unicode="&#x1ed2;" horiz-adv-x="747" 
d="M684 356q0 -164 -83 -266t-227 -102q-145 0 -228 101.5t-83 266.5q0 166 82.5 268t228.5 102t228 -102t82 -268zM626 356q0 139 -66 229.5t-186 90.5q-121 0 -187 -90.5t-66 -229.5q0 -138 65.5 -228t187.5 -90q121 0 186.5 90.5t65.5 227.5zM524 762h-49l-102 111
l-101 -111h-49l120 146h60zM124 970h65l71 -114h-44z" />
    <glyph glyph-name="uni1ED3" unicode="&#x1ed3;" horiz-adv-x="591" 
d="M533 265q0 -127 -63 -202t-174 -75t-174.5 75t-63.5 202t63 201t175 74q111 0 174 -74t63 -201zM476 265q0 102 -45.5 165t-134.5 63t-135 -63t-46 -165t46.5 -166t134.5 -64q89 0 134.5 63.5t45.5 166.5zM446 604h-49l-102 129l-101 -129h-49l120 164h60zM149 722
l-92 133h61l74 -133h-43z" />
    <glyph glyph-name="uni1ED4" unicode="&#x1ed4;" horiz-adv-x="747" 
d="M684 356q0 -164 -83 -266t-227 -102q-145 0 -228 101.5t-83 266.5q0 166 82.5 268t228.5 102t228 -102t82 -268zM626 356q0 139 -66 229.5t-186 90.5q-121 0 -187 -90.5t-66 -229.5q0 -138 65.5 -228t187.5 -90q121 0 186.5 90.5t65.5 227.5zM524 762h-49l-102 111
l-101 -111h-49l120 146h60zM531 845h-42q0 24 6.5 35t30.5 24q36 20 36 45q0 35 -48 35q-27 0 -57 -14l-10 34q32 17 74 17q37 0 60 -18t23 -52q0 -47 -53 -75q-20 -11 -20 -31z" />
    <glyph glyph-name="uni1ED5" unicode="&#x1ed5;" horiz-adv-x="591" 
d="M533 265q0 -127 -63 -202t-174 -75t-174.5 75t-63.5 202t63 201t175 74q111 0 174 -74t63 -201zM476 265q0 102 -45.5 165t-134.5 63t-135 -63t-46 -165t46.5 -166t134.5 -64q89 0 134.5 63.5t45.5 166.5zM446 604h-49l-102 129l-101 -129h-49l120 164h60zM453 705h-42
q0 24 6.5 35t30.5 24q36 20 36 45q0 35 -48 35q-27 0 -57 -14l-10 34q32 17 74 17q37 0 60 -18t23 -52q0 -47 -53 -75q-20 -11 -20 -31z" />
    <glyph glyph-name="uni1ED6" unicode="&#x1ed6;" horiz-adv-x="747" 
d="M684 356q0 -164 -83 -266t-227 -102q-145 0 -228 101.5t-83 266.5q0 166 82.5 268t228.5 102t228 -102t82 -268zM626 356q0 139 -66 229.5t-186 90.5q-121 0 -187 -90.5t-66 -229.5q0 -138 65.5 -228t187.5 -90q121 0 186.5 90.5t65.5 227.5zM526 762h-49l-104 100
l-103 -100h-49l122 133h60zM440 971q19 0 27 13t10 45h43q-3 -99 -81 -99q-34 0 -73 29q-37 28 -59 28q-37 0 -38 -58h-43q3 99 82 99q34 0 73 -29q37 -28 59 -28z" />
    <glyph glyph-name="uni1ED7" unicode="&#x1ed7;" horiz-adv-x="591" 
d="M533 265q0 -127 -63 -202t-174 -75t-174.5 75t-63.5 202t63 201t175 74q111 0 174 -74t63 -201zM476 265q0 102 -45.5 165t-134.5 63t-135 -63t-46 -165t46.5 -166t134.5 -64q89 0 134.5 63.5t45.5 166.5zM448 604h-49l-104 110l-103 -110h-49l122 144h60zM362 824
q19 0 27 13t10 45h43q-3 -99 -81 -99q-34 0 -73 29q-37 28 -59 28q-37 0 -38 -58h-43q3 99 82 99q34 0 73 -29q37 -28 59 -28z" />
    <glyph glyph-name="uni1ED8" unicode="&#x1ed8;" horiz-adv-x="747" 
d="M684 356q0 -164 -83 -266t-227 -102q-145 0 -228 101.5t-83 266.5q0 166 82.5 268t228.5 102t228 -102t82 -268zM626 356q0 139 -66 229.5t-186 90.5q-121 0 -187 -90.5t-66 -229.5q0 -138 65.5 -228t187.5 -90q121 0 186.5 90.5t65.5 227.5zM524 762h-49l-102 111
l-101 -111h-49l120 146h60zM339 -128h69v-75h-69v75z" />
    <glyph glyph-name="uni1ED9" unicode="&#x1ed9;" horiz-adv-x="591" 
d="M533 265q0 -127 -63 -202t-174 -75t-174.5 75t-63.5 202t63 201t175 74q111 0 174 -74t63 -201zM476 265q0 102 -45.5 165t-134.5 63t-135 -63t-46 -165t46.5 -166t134.5 -64q89 0 134.5 63.5t45.5 166.5zM446 604h-49l-102 129l-101 -129h-49l120 164h60zM261 -128h69
v-75h-69v75z" />
    <glyph glyph-name="uni1EDA" unicode="&#x1eda;" horiz-adv-x="747" 
d="M684 356q0 -164 -83 -266t-227 -102q-145 0 -228 101.5t-83 266.5q0 166 82.5 268t228.5 102q67 0 125 -24q39 -16 75 -16q43 0 60 13t17 41q0 33 -16 58l48 13q19 -32 19 -70q0 -93 -110 -93h-12q104 -101 104 -292zM626 356q0 139 -66 229.5t-186 90.5
q-121 0 -187 -90.5t-66 -229.5q0 -138 65.5 -228t187.5 -90q121 0 186.5 90.5t65.5 227.5zM413 903h67l-108 -134h-44z" />
    <glyph glyph-name="uni1EDB" unicode="&#x1edb;" horiz-adv-x="591" 
d="M533 265q0 -127 -63 -202t-174 -75t-174.5 75t-63.5 202t63 201t175 74q45 0 81 -12q49 -16 71 -16q59 0 59 53q0 33 -16 58l48 13q19 -32 19 -70q0 -86 -95 -93q70 -75 70 -208zM476 265q0 102 -45.5 165t-134.5 63t-135 -63t-46 -165t46.5 -166t134.5 -64
q89 0 134.5 63.5t45.5 166.5zM412 768l-117 -164h-43l97 164h63z" />
    <glyph glyph-name="uni1EDC" unicode="&#x1edc;" horiz-adv-x="747" 
d="M684 356q0 -164 -83 -266t-227 -102q-145 0 -228 101.5t-83 266.5q0 166 82.5 268t228.5 102q67 0 125 -24q39 -16 75 -16q43 0 60 13t17 41q0 33 -16 58l48 13q19 -32 19 -70q0 -93 -110 -93h-12q104 -101 104 -292zM626 356q0 139 -66 229.5t-186 90.5
q-121 0 -187 -90.5t-66 -229.5q0 -138 65.5 -228t187.5 -90q121 0 186.5 90.5t65.5 227.5zM260 904h67l84 -134h-45z" />
    <glyph glyph-name="uni1EDD" unicode="&#x1edd;" horiz-adv-x="591" 
d="M533 265q0 -127 -63 -202t-174 -75t-174.5 75t-63.5 202t63 201t175 74q45 0 81 -12q49 -16 71 -16q59 0 59 53q0 33 -16 58l48 13q19 -32 19 -70q0 -86 -95 -93q70 -75 70 -208zM476 265q0 102 -45.5 165t-134.5 63t-135 -63t-46 -165t46.5 -166t134.5 -64
q89 0 134.5 63.5t45.5 166.5zM293 604l-117 164h64l96 -164h-43z" />
    <glyph glyph-name="uni1EDE" unicode="&#x1ede;" horiz-adv-x="747" 
d="M684 356q0 -164 -83 -266t-227 -102q-145 0 -228 101.5t-83 266.5q0 166 82.5 268t228.5 102q67 0 125 -24q39 -16 75 -16q43 0 60 13t17 41q0 33 -16 58l48 13q19 -32 19 -70q0 -93 -110 -93h-12q104 -101 104 -292zM626 356q0 139 -66 229.5t-186 90.5
q-121 0 -187 -90.5t-66 -229.5q0 -138 65.5 -228t187.5 -90q121 0 186.5 90.5t65.5 227.5zM390 758h-42q0 24 7 35.5t30 24.5q37 21 37 45q0 38 -49 38q-27 0 -57 -14l-10 34q32 17 74 17q37 0 60.5 -18.5t23.5 -54.5q0 -47 -54 -75q-20 -10 -20 -32z" />
    <glyph glyph-name="uni1EDF" unicode="&#x1edf;" horiz-adv-x="591" 
d="M533 265q0 -127 -63 -202t-174 -75t-174.5 75t-63.5 202t63 201t175 74q45 0 81 -12q49 -16 71 -16q59 0 59 53q0 33 -16 58l48 13q19 -32 19 -70q0 -86 -95 -93q70 -75 70 -208zM476 265q0 102 -45.5 165t-134.5 63t-135 -63t-46 -165t46.5 -166t134.5 -64
q89 0 134.5 63.5t45.5 166.5zM313 607h-42q0 24 7 35.5t30 24.5q37 21 37 45q0 38 -49 38q-27 0 -57 -14l-10 34q32 17 74 17q37 0 60.5 -18.5t23.5 -54.5q0 -47 -54 -75q-20 -10 -20 -32z" />
    <glyph glyph-name="uni1EE0" unicode="&#x1ee0;" horiz-adv-x="747" 
d="M684 356q0 -164 -83 -266t-227 -102q-145 0 -228 101.5t-83 266.5q0 166 82.5 268t228.5 102q67 0 125 -24q39 -16 75 -16q43 0 60 13t17 41q0 33 -16 58l48 13q19 -32 19 -70q0 -93 -110 -93h-12q104 -101 104 -292zM626 356q0 139 -66 229.5t-186 90.5
q-121 0 -187 -90.5t-66 -229.5q0 -138 65.5 -228t187.5 -90q121 0 186.5 90.5t65.5 227.5zM380 856q43 -32 63 -32q40 0 43 67h43q-5 -111 -84 -111q-34 0 -79 34q-41 33 -63 33q-40 0 -43 -67h-43q2 51 23.5 81t61.5 30q34 0 78 -35z" />
    <glyph glyph-name="uni1EE1" unicode="&#x1ee1;" horiz-adv-x="591" 
d="M533 265q0 -127 -63 -202t-174 -75t-174.5 75t-63.5 202t63 201t175 74q45 0 81 -12q49 -16 71 -16q59 0 59 53q0 33 -16 58l48 13q19 -32 19 -70q0 -86 -95 -93q70 -75 70 -208zM476 265q0 102 -45.5 165t-134.5 63t-135 -63t-46 -165t46.5 -166t134.5 -64
q89 0 134.5 63.5t45.5 166.5zM302 703q44 -33 63 -33q40 0 43 67h43q-5 -110 -84 -110q-34 0 -79 34q-42 33 -63 33q-40 0 -43 -67h-43q2 51 23.5 80.5t61.5 29.5q33 0 78 -34z" />
    <glyph glyph-name="uni1EE2" unicode="&#x1ee2;" horiz-adv-x="747" 
d="M684 356q0 -164 -83 -266t-227 -102q-145 0 -228 101.5t-83 266.5q0 166 82.5 268t228.5 102q67 0 125 -24q39 -16 75 -16q43 0 60 13t17 41q0 33 -16 58l48 13q19 -32 19 -70q0 -93 -110 -93h-12q104 -101 104 -292zM626 356q0 139 -66 229.5t-186 90.5
q-121 0 -187 -90.5t-66 -229.5q0 -138 65.5 -228t187.5 -90q121 0 186.5 90.5t65.5 227.5zM339 -128h69v-75h-69v75z" />
    <glyph glyph-name="uni1EE3" unicode="&#x1ee3;" horiz-adv-x="591" 
d="M533 265q0 -127 -63 -202t-174 -75t-174.5 75t-63.5 202t63 201t175 74q45 0 81 -12q49 -16 71 -16q59 0 59 53q0 33 -16 58l48 13q19 -32 19 -70q0 -86 -95 -93q70 -75 70 -208zM476 265q0 102 -45.5 165t-134.5 63t-135 -63t-46 -165t46.5 -166t134.5 -64
q89 0 134.5 63.5t45.5 166.5zM261 -128h69v-75h-69v75z" />
    <glyph glyph-name="uni1EE4" unicode="&#x1ee4;" horiz-adv-x="679" 
d="M596 714v-495q0 -105 -65.5 -168t-192.5 -63t-191 62.5t-64 168.5v495h58v-491q0 -185 197 -185q101 0 150 49.5t49 135.5v491h59zM305 -128h69v-75h-69v75z" />
    <glyph glyph-name="uni1EE5" unicode="&#x1ee5;" horiz-adv-x="590" 
d="M500 0h-55v90h-2q-23 -48 -69.5 -75t-103.5 -27q-89 0 -138 52.5t-49 141.5v346h57v-326q0 -167 142 -167q68 0 114.5 46.5t46.5 138.5v308h57v-528zM260 -128h69v-75h-69v75z" />
    <glyph glyph-name="uni1EE6" unicode="&#x1ee6;" horiz-adv-x="679" 
d="M596 714v-495q0 -105 -65.5 -168t-192.5 -63t-191 62.5t-64 168.5v495h58v-491q0 -185 197 -185q101 0 150 49.5t49 135.5v491h59zM358 758h-42q0 24 7 35.5t30 24.5q37 21 37 45q0 38 -49 38q-27 0 -57 -14l-10 34q32 17 74 17q37 0 60.5 -18.5t23.5 -54.5
q0 -47 -54 -75q-20 -10 -20 -32z" />
    <glyph glyph-name="uni1EE7" unicode="&#x1ee7;" horiz-adv-x="590" 
d="M500 0h-55v90h-2q-23 -48 -69.5 -75t-103.5 -27q-89 0 -138 52.5t-49 141.5v346h57v-326q0 -167 142 -167q68 0 114.5 46.5t46.5 138.5v308h57v-528zM311 607h-42q0 24 7 35.5t30 24.5q37 21 37 45q0 38 -49 38q-27 0 -57 -14l-10 34q32 17 74 17q37 0 60.5 -18.5
t23.5 -54.5q0 -47 -54 -75q-20 -10 -20 -32z" />
    <glyph glyph-name="uni1EE8" unicode="&#x1ee8;" horiz-adv-x="679" 
d="M537 223v491h43q41 0 57.5 12t16.5 41q0 33 -16 58l48 13q19 -32 19 -70q0 -91 -109 -93v-456q0 -105 -65.5 -168t-192.5 -63t-191 62.5t-64 168.5v495h58v-491q0 -185 197 -185q101 0 150 49.5t49 135.5zM384 903h67l-108 -134h-44z" />
    <glyph glyph-name="uni1EE9" unicode="&#x1ee9;" horiz-adv-x="590" 
d="M500 0h-55v90h-2q-23 -48 -69.5 -75t-103.5 -27q-89 0 -138 52.5t-49 141.5v346h57v-326q0 -167 142 -167q68 0 114.5 46.5t46.5 138.5v308h41q41 0 57.5 12t16.5 41q0 33 -16 58l48 13q19 -32 19 -70q0 -91 -109 -93v-489zM421 768l-117 -164h-43l97 164h63z" />
    <glyph glyph-name="uni1EEA" unicode="&#x1eea;" horiz-adv-x="679" 
d="M537 223v491h43q41 0 57.5 12t16.5 41q0 33 -16 58l48 13q19 -32 19 -70q0 -91 -109 -93v-456q0 -105 -65.5 -168t-192.5 -63t-191 62.5t-64 168.5v495h58v-491q0 -185 197 -185q101 0 150 49.5t49 135.5zM221 904h67l84 -134h-45z" />
    <glyph glyph-name="uni1EEB" unicode="&#x1eeb;" horiz-adv-x="590" 
d="M500 0h-55v90h-2q-23 -48 -69.5 -75t-103.5 -27q-89 0 -138 52.5t-49 141.5v346h57v-326q0 -167 142 -167q68 0 114.5 46.5t46.5 138.5v308h41q41 0 57.5 12t16.5 41q0 33 -16 58l48 13q19 -32 19 -70q0 -91 -109 -93v-489zM286 604l-117 164h64l96 -164h-43z" />
    <glyph glyph-name="uni1EEC" unicode="&#x1eec;" horiz-adv-x="679" 
d="M537 223v491h43q41 0 57.5 12t16.5 41q0 33 -16 58l48 13q19 -32 19 -70q0 -91 -109 -93v-456q0 -105 -65.5 -168t-192.5 -63t-191 62.5t-64 168.5v495h58v-491q0 -185 197 -185q101 0 150 49.5t49 135.5zM358 758h-42q0 24 7 35.5t30 24.5q37 21 37 45q0 38 -49 38
q-27 0 -57 -14l-10 34q32 17 74 17q37 0 60.5 -18.5t23.5 -54.5q0 -47 -54 -75q-20 -10 -20 -32z" />
    <glyph glyph-name="uni1EED" unicode="&#x1eed;" horiz-adv-x="590" 
d="M500 0h-55v90h-2q-23 -48 -69.5 -75t-103.5 -27q-89 0 -138 52.5t-49 141.5v346h57v-326q0 -167 142 -167q68 0 114.5 46.5t46.5 138.5v308h41q41 0 57.5 12t16.5 41q0 33 -16 58l48 13q19 -32 19 -70q0 -91 -109 -93v-489zM312 607h-42q0 24 7 35.5t30 24.5q37 21 37 45
q0 38 -49 38q-27 0 -57 -14l-10 34q32 17 74 17q37 0 60.5 -18.5t23.5 -54.5q0 -47 -54 -75q-20 -10 -20 -32z" />
    <glyph glyph-name="uni1EEE" unicode="&#x1eee;" horiz-adv-x="679" 
d="M537 223v491h43q41 0 57.5 12t16.5 41q0 33 -16 58l48 13q19 -32 19 -70q0 -91 -109 -93v-456q0 -105 -65.5 -168t-192.5 -63t-191 62.5t-64 168.5v495h58v-491q0 -185 197 -185q101 0 150 49.5t49 135.5zM351 856q43 -32 63 -32q40 0 43 67h43q-5 -111 -84 -111
q-34 0 -79 34q-40 33 -63 33q-40 0 -43 -67h-43q2 51 23.5 81t61.5 30q34 0 78 -35z" />
    <glyph glyph-name="uni1EEF" unicode="&#x1eef;" horiz-adv-x="590" 
d="M500 0h-55v90h-2q-23 -48 -69.5 -75t-103.5 -27q-89 0 -138 52.5t-49 141.5v346h57v-326q0 -167 142 -167q68 0 114.5 46.5t46.5 138.5v308h41q41 0 57.5 12t16.5 41q0 33 -16 58l48 13q19 -32 19 -70q0 -91 -109 -93v-489zM303 703q44 -33 63 -33q40 0 43 67h43
q-5 -110 -84 -110q-34 0 -79 34q-42 33 -63 33q-40 0 -43 -67h-43q2 51 23.5 80.5t61.5 29.5q33 0 78 -34z" />
    <glyph glyph-name="uni1EF0" unicode="&#x1ef0;" horiz-adv-x="679" 
d="M537 223v491h43q41 0 57.5 12t16.5 41q0 33 -16 58l48 13q19 -32 19 -70q0 -91 -109 -93v-456q0 -105 -65.5 -168t-192.5 -63t-191 62.5t-64 168.5v495h58v-491q0 -185 197 -185q101 0 150 49.5t49 135.5zM305 -128h69v-75h-69v75z" />
    <glyph glyph-name="uni1EF1" unicode="&#x1ef1;" horiz-adv-x="590" 
d="M500 0h-55v90h-2q-23 -48 -69.5 -75t-103.5 -27q-89 0 -138 52.5t-49 141.5v346h57v-326q0 -167 142 -167q68 0 114.5 46.5t46.5 138.5v308h41q41 0 57.5 12t16.5 41q0 33 -16 58l48 13q19 -32 19 -70q0 -91 -109 -93v-489zM260 -128h69v-75h-69v75z" />
    <glyph glyph-name="Ygrave" unicode="&#x1ef2;" horiz-adv-x="587" 
d="M264 0v295l-263 419h70l223 -365l227 365h65l-264 -419v-295h-58zM191 904h67l84 -134h-45z" />
    <glyph glyph-name="ygrave" unicode="&#x1ef3;" horiz-adv-x="485" 
d="M69 528l177 -454h2l170 454h61l-285 -723h-60l81 203l-208 520h62zM234 604l-117 164h64l96 -164h-43z" />
    <glyph glyph-name="uni1EF4" unicode="&#x1ef4;" horiz-adv-x="587" 
d="M264 0v295l-263 419h70l223 -365l227 365h65l-264 -419v-295h-58zM258 -128h69v-75h-69v75z" />
    <glyph glyph-name="uni1EF5" unicode="&#x1ef5;" horiz-adv-x="485" 
d="M69 528l177 -454h2l170 454h61l-285 -723h-60l81 203l-208 520h62zM299 -128h69v-75h-69v75z" />
    <glyph glyph-name="uni1EF6" unicode="&#x1ef6;" horiz-adv-x="587" 
d="M264 0v295l-263 419h70l223 -365l227 365h65l-264 -419v-295h-58zM312 758h-42q0 24 7 35.5t30 24.5q37 21 37 45q0 38 -49 38q-27 0 -57 -14l-10 34q32 17 74 17q37 0 60.5 -18.5t23.5 -54.5q0 -47 -54 -75q-20 -10 -20 -32z" />
    <glyph glyph-name="uni1EF7" unicode="&#x1ef7;" horiz-adv-x="485" 
d="M69 528l177 -454h2l170 454h61l-285 -723h-60l81 203l-208 520h62zM266 607h-42q0 24 7 35.5t30 24.5q37 21 37 45q0 38 -49 38q-27 0 -57 -14l-10 34q32 17 74 17q37 0 60.5 -18.5t23.5 -54.5q0 -47 -54 -75q-20 -10 -20 -32z" />
    <glyph glyph-name="uni1EF8" unicode="&#x1ef8;" horiz-adv-x="587" 
d="M264 0v295l-263 419h70l223 -365l227 365h65l-264 -419v-295h-58zM301 856q43 -32 63 -32q40 0 43 67h43q-5 -111 -84 -111q-34 0 -79 34q-41 33 -63 33q-40 0 -43 -67h-43q2 51 23.5 81t61.5 30q34 0 78 -35z" />
    <glyph glyph-name="uni1EF9" unicode="&#x1ef9;" horiz-adv-x="485" 
d="M69 528l177 -454h2l170 454h61l-285 -723h-60l81 203l-208 520h62zM254 703q44 -33 63 -33q40 0 43 67h43q-5 -110 -84 -110q-34 0 -79 34q-42 33 -63 33q-40 0 -43 -67h-43q2 51 23.5 80.5t61.5 29.5q33 0 78 -34z" />
    <glyph glyph-name="uni2010" unicode="&#x2010;" horiz-adv-x="380" 
d="M74 277v48h232v-48h-232z" />
    <glyph glyph-name="uni2011" unicode="&#x2011;" horiz-adv-x="380" 
d="M74 277v48h232v-48h-232z" />
    <glyph glyph-name="endash" unicode="&#x2013;" horiz-adv-x="446" 
d="M27 279v42h391v-42h-391z" />
    <glyph glyph-name="emdash" unicode="&#x2014;" horiz-adv-x="698" 
d="M27 279v42h643v-42h-643z" />
    <glyph glyph-name="afii00208" unicode="&#x2015;" horiz-adv-x="698" 
d="M27 279v42h643v-42h-643z" />
    <glyph glyph-name="quoteleft" unicode="&#x2018;" horiz-adv-x="271" 
d="M192 735l-49 -212h-66l73 212h42z" />
    <glyph glyph-name="quoteright" unicode="&#x2019;" horiz-adv-x="271" 
d="M77 523l50 212h65l-73 -212h-42z" />
    <glyph glyph-name="quotesinglbase" unicode="&#x201a;" horiz-adv-x="271" 
d="M77 -130l50 210h65l-74 -210h-41z" />
    <glyph glyph-name="quotedblleft" unicode="&#x201c;" horiz-adv-x="399" 
d="M192 735l-52 -212h-63l73 212h42zM320 735l-50 -212h-62l71 212h41z" />
    <glyph glyph-name="quotedblright" unicode="&#x201d;" horiz-adv-x="399" 
d="M78 524l49 211h63l-71 -211h-41zM206 524l52 211h63l-75 -211h-40z" />
    <glyph glyph-name="quotedblbase" unicode="&#x201e;" horiz-adv-x="399" 
d="M78 -130l49 210h63l-71 -210h-41zM206 -130l52 210h63l-75 -210h-40z" />
    <glyph glyph-name="dagger" unicode="&#x2020;" horiz-adv-x="519" 
d="M287 668v-202h199v-51h-199v-541h-55v541h-200v51h200v202h55z" />
    <glyph glyph-name="daggerdbl" unicode="&#x2021;" horiz-adv-x="519" 
d="M287 668v-191h190v-51h-190v-311h190v-51h-190v-190h-55v190h-191v51h191v311h-191v51h191v191h55z" />
    <glyph glyph-name="bullet" unicode="&#x2022;" horiz-adv-x="465" 
d="M68 329q0 68 48 116.5t116 48.5q69 0 117 -48.5t48 -116.5t-48 -116t-117 -48q-68 0 -116 48t-48 116z" />
    <glyph glyph-name="ellipsis" unicode="&#x2026;" horiz-adv-x="795" 
d="M96 0v81h75v-81h-75zM360 0v81h75v-81h-75zM624 0v81h75v-81h-75z" />
    <glyph glyph-name="perthousand" unicode="&#x2030;" horiz-adv-x="1087" 
d="M626 714l-446 -714h-43l446 714h43zM327 536q0 -81 -34 -129t-97 -48q-62 0 -96.5 48.5t-34.5 128.5q0 82 34.5 130t96.5 48q63 0 97 -48t34 -130zM279 536q0 62 -20.5 99.5t-62.5 37.5t-62.5 -38t-20.5 -99q0 -60 20.5 -98t61.5 -38q43 0 63.5 38t20.5 98zM700 172
q0 -81 -34 -129t-97 -48q-62 0 -96 48.5t-34 128.5q0 81 34.5 129.5t96.5 48.5q63 0 96.5 -48t33.5 -130zM653 172q0 136 -83 136q-42 0 -62.5 -37.5t-20.5 -98.5q0 -60 21 -98t62 -38q43 0 63 37.5t20 98.5zM1023 172q0 -81 -34 -129t-97 -48q-62 0 -96.5 48.5t-34.5 128.5
q0 81 34.5 129.5t96.5 48.5q63 0 97 -48t34 -130zM976 172q0 62 -20.5 99.5t-63.5 37.5q-42 0 -62.5 -38t-20.5 -99q0 -60 21 -97.5t62 -37.5q43 0 63.5 37.5t20.5 97.5z" />
    <glyph glyph-name="guilsinglleft" unicode="&#x2039;" horiz-adv-x="334" 
d="M254 481l-120 -183l120 -183h-54l-119 180v5l120 181h53z" />
    <glyph glyph-name="guilsinglright" unicode="&#x203a;" horiz-adv-x="334" 
d="M81 115l120 183l-120 183h54l119 -181v-5l-121 -180h-52z" />
    <glyph glyph-name="interrobang" unicode="&#x203d;" horiz-adv-x="462" 
d="M235 553l-3 -214h2q16 24 64 66q74 65 74 142q0 66 -41 97.5t-106 31.5q-72 0 -141 -39l-18 45q74 44 164 44q86 0 142.5 -44.5t56.5 -134.5q0 -54 -23.5 -91.5t-77.5 -83.5q-55 -47 -73.5 -81.5t-18.5 -95.5v-33h-53l-6 391h58zM172 0v78h76v-78h-76z" />
    <glyph glyph-name="fraction" unicode="&#x2044;" horiz-adv-x="121" 
d="M290 714l-415 -714h-44l414 714h45z" />
    <glyph glyph-name="zero.superior" unicode="&#x2070;" horiz-adv-x="379" 
d="M190 864q76 0 115 -60.5t39 -163.5q0 -101 -39 -160t-115 -59q-77 0 -115.5 59t-38.5 160q0 103 39 163.5t115 60.5zM190 823q-99 -1 -103 -183q-2 -78 24.5 -128t78.5 -50t77.5 48t24.5 130q-1 86 -26 135t-76 48z" />
    <glyph glyph-name="four.superior" unicode="&#x2074;" horiz-adv-x="379" 
d="M284 857v-282h62v-43h-62v-104h-48v104h-202v47l186 278h64zM236 575v234h-1l-154 -234h155z" />
    <glyph glyph-name="five.superior" unicode="&#x2075;" horiz-adv-x="379" 
d="M278 559q0 48 -31.5 69.5t-77.5 21.5q-50 0 -95 -11l9 218h223v-42h-177l-6 -129q28 6 61 6q64 0 104 -34.5t40 -97.5q0 -68 -43 -103.5t-111 -35.5q-66 0 -119 25l14 40q48 -23 100 -23q50 0 79.5 24t29.5 72z" />
    <glyph glyph-name="six.superior" unicode="&#x2076;" horiz-adv-x="379" 
d="M95 654h2q37 52 107 52q63 0 99 -39t36 -101q0 -63 -40 -104t-103 -41q-79 0 -115.5 56.5t-36.5 136.5q0 110 42.5 180t131.5 70q46 0 82 -14l-10 -41q-32 13 -71 13q-112 0 -124 -168zM96 579q0 -44 25 -80t73 -36q44 0 69.5 28.5t25.5 74.5q0 42 -24.5 70.5t-67.5 28.5
q-44 0 -72.5 -25.5t-28.5 -60.5z" />
    <glyph glyph-name="seven.superior" unicode="&#x2077;" horiz-adv-x="379" 
d="M62 815v42h260v-39q-58 -95 -95 -199t-45 -191h-51q8 88 46 193.5t94 193.5h-209z" />
    <glyph glyph-name="eight.superior" unicode="&#x2078;" horiz-adv-x="379" 
d="M190 630q-40 0 -70.5 -22.5t-30.5 -61.5q0 -41 28.5 -62t72.5 -21q45 0 73 21t28 62q0 39 -31 61.5t-70 22.5zM189 864q58 0 98.5 -29.5t40.5 -82.5q0 -39 -20.5 -64.5t-54.5 -35.5v-2q88 -30 88 -109q0 -59 -43 -89.5t-108 -30.5q-66 0 -108.5 30.5t-42.5 89.5
q0 43 24.5 72t64.5 40q-76 25 -76 99q0 52 41 82t96 30zM190 671q37 0 62.5 19.5t25.5 58.5q0 33 -24.5 53.5t-63.5 20.5t-63.5 -20.5t-24.5 -53.5q0 -39 25.5 -58.5t62.5 -19.5z" />
    <glyph glyph-name="nine.superior" unicode="&#x2079;" horiz-adv-x="379" 
d="M284 631h-1q-39 -52 -108 -52q-62 0 -98.5 39t-36.5 100q0 63 40 104.5t103 41.5q78 0 115 -56t37 -136q0 -110 -42.5 -180.5t-131.5 -70.5q-49 0 -85 14l10 41q32 -13 74 -13q60 0 90 48t34 120zM283 706q0 44 -25.5 80t-73.5 36q-42 0 -68 -29t-26 -75q0 -42 24 -70
t67 -28q44 0 73 25.5t29 60.5z" />
    <glyph glyph-name="zero.inferior" unicode="&#x2080;" horiz-adv-x="379" 
d="M190 296q76 0 115 -60.5t39 -163.5q0 -101 -39 -160t-115 -59q-77 0 -115.5 59t-38.5 160q0 103 39 163.5t115 60.5zM190 255q-99 -1 -103 -183q-2 -78 24.5 -128t78.5 -50t77.5 48t24.5 130q-1 86 -26 135t-76 48z" />
    <glyph glyph-name="one.inferior" unicode="&#x2081;" horiz-adv-x="379" 
d="M231 289v-429h-51v379l-90 -56l-19 37l111 69h49z" />
    <glyph glyph-name="two.inferior" unicode="&#x2082;" horiz-adv-x="379" 
d="M324 -97v-43h-271v45q133 121 173 172.5t40 97.5q0 37 -23 58t-61 21q-52 0 -102 -40l-20 36q54 46 125 46q60 0 95.5 -31t35.5 -89q0 -57 -39.5 -107.5t-165.5 -164.5v-1h213z" />
    <glyph glyph-name="three.inferior" unicode="&#x2083;" horiz-adv-x="379" 
d="M111 61v40h50q48 0 76 21t28 59q0 35 -23.5 54t-63.5 19q-54 0 -101 -27l-14 40q51 29 118 29q61 0 97.5 -29t36.5 -81q0 -79 -82 -102v-1q43 -9 68.5 -37t25.5 -68q0 -59 -41.5 -92t-107.5 -33q-73 0 -128 29l16 41q50 -28 111 -28q45 0 72.5 21t27.5 62
q0 42 -32.5 62.5t-83.5 20.5h-50z" />
    <glyph glyph-name="four.inferior" unicode="&#x2084;" horiz-adv-x="379" 
d="M284 289v-282h62v-43h-62v-104h-48v104h-202v47l186 278h64zM236 7v234h-1l-154 -234h155z" />
    <glyph glyph-name="five.inferior" unicode="&#x2085;" horiz-adv-x="379" 
d="M278 -9q0 48 -31.5 69.5t-77.5 21.5q-50 0 -95 -11l9 218h223v-42h-177l-6 -129q29 6 61 6q64 0 104 -34.5t40 -97.5q0 -68 -43 -103.5t-111 -35.5q-66 0 -119 25l14 40q48 -23 100 -23q50 0 79.5 24t29.5 72z" />
    <glyph glyph-name="six.inferior" unicode="&#x2086;" horiz-adv-x="379" 
d="M95 86h2q37 52 107 52q63 0 99 -39t36 -101q0 -63 -40 -104t-103 -41q-79 0 -115.5 56.5t-36.5 136.5q0 110 42.5 180t131.5 70q46 0 82 -14l-10 -41q-32 13 -71 13q-112 0 -124 -168zM96 11q0 -44 25 -80t73 -36q44 0 69.5 28.5t25.5 74.5q0 42 -24.5 70.5t-67.5 28.5
q-44 0 -72.5 -25.5t-28.5 -60.5z" />
    <glyph glyph-name="seven.inferior" unicode="&#x2087;" horiz-adv-x="379" 
d="M62 247v42h260v-39q-58 -95 -95 -199t-45 -191h-51q8 88 46 193.5t94 193.5h-209z" />
    <glyph glyph-name="eight.inferior" unicode="&#x2088;" horiz-adv-x="379" 
d="M190 62q-40 0 -70.5 -22.5t-30.5 -61.5q0 -41 28.5 -62t72.5 -21q45 0 73 21t28 62q0 39 -31 61.5t-70 22.5zM189 296q58 0 98.5 -29.5t40.5 -82.5q0 -39 -20.5 -64.5t-54.5 -35.5v-2q88 -30 88 -109q0 -59 -43 -89.5t-108 -30.5q-66 0 -108.5 30.5t-42.5 89.5
q0 43 24.5 72t64.5 40q-76 25 -76 99q0 52 41 82t96 30zM190 103q37 0 62.5 19.5t25.5 58.5q0 33 -24.5 53.5t-63.5 20.5t-63.5 -20.5t-24.5 -53.5q0 -39 25.5 -58.5t62.5 -19.5z" />
    <glyph glyph-name="nine.inferior" unicode="&#x2089;" horiz-adv-x="379" 
d="M284 63h-1q-39 -52 -108 -52q-62 0 -98.5 39t-36.5 100q0 63 40 104.5t103 41.5q78 0 115 -56t37 -136q0 -110 -42.5 -180.5t-131.5 -70.5q-49 0 -85 14l10 41q32 -13 74 -13q60 0 90 48t34 120zM283 138q0 44 -25.5 80t-73.5 36q-42 0 -68 -29t-26 -75q0 -42 24 -70
t67 -28q44 0 73 25.5t29 60.5z" />
    <glyph glyph-name="uni20AB" unicode="&#x20ab;" horiz-adv-x="602" 
d="M455 429v183h-120v41h120v82h57v-82h44v-41h-44v-612h-55v104h-2q-26 -52 -73.5 -84t-107.5 -32q-100 0 -158 78.5t-58 198.5q0 119 59.5 197t159.5 78q118 0 176 -111h2zM115 265q0 -100 44 -165t123 -65q81 0 128.5 63.5t47.5 165.5q0 101 -48 165t-127 64
q-80 0 -124 -64.5t-44 -163.5zM526 -128h-443v44h443v-44z" />
    <glyph glyph-name="Euro" unicode="&#x20ac;" horiz-adv-x="664" 
d="M36 418l13 42h77q25 123 107.5 194.5t216.5 71.5q92 0 158 -33l-16 -49q-58 31 -141 31q-110 0 -176.5 -57.5t-88.5 -157.5h352l-12 -42h-348q-4 -28 -4 -64q0 -15 2 -41h326l-12 -43h-309q19 -106 86.5 -169t181.5 -63q84 0 152 34l17 -47q-71 -37 -172 -37
q-137 0 -220 75.5t-104 206.5h-86l13 43h68q-1 13 -1 42q0 31 3 63h-83z" />
    <glyph glyph-name="afii61248" unicode="&#x2105;" horiz-adv-x="756" 
d="M289 710l-10 -38q-35 14 -67 14q-55 0 -83.5 -35.5t-28.5 -91.5q0 -55 28.5 -90.5t83.5 -35.5q33 0 69 15l8 -39q-43 -15 -78 -15q-77 0 -119 45.5t-42 119.5t43.5 120t118.5 46q38 0 77 -15zM602 714l-415 -714h-44l414 714h45zM706 154q-1 -77 -40.5 -121.5
t-108.5 -44.5q-68 0 -108 45t-40 121t40 120.5t109 44.5q70 0 109.5 -44.5t38.5 -120.5zM657 154q0 57 -25.5 91.5t-74.5 34.5t-74 -34.5t-25 -91.5t26 -92t73 -35q49 0 74.5 35t25.5 92z" />
    <glyph glyph-name="afii61289" unicode="&#x2113;" horiz-adv-x="404" 
d="M115 338q0 203 30 298t109 95q96 0 96 -150q0 -123 -46 -220t-129 -151q4 -100 26 -136t72 -36q28 0 59 11l1 -45q-31 -13 -70 -13q-70 0 -103.5 43.5t-39.5 149.5q-42 -20 -88 -29v47q49 9 85 29q-2 62 -2 107zM173 339v-77q123 99 123 321q0 103 -46 103
q-42 0 -59.5 -87.5t-17.5 -259.5z" />
    <glyph glyph-name="uni2116" unicode="&#x2116;" horiz-adv-x="1027" 
d="M95 0v714h90l354 -654h2v654h55v-714h-89l-355 656h-2v-656h-55zM706 311v42h250v-42h-250zM831 395q-69 0 -109 45t-40 121t40 120.5t109 44.5t109 -44.5t40 -120.5t-40 -121t-109 -45zM831 434q48 0 73.5 35t25.5 92t-25 91.5t-74 34.5t-74 -34.5t-25 -91.5t26 -92
t73 -35z" />
    <glyph glyph-name="published" unicode="&#x2117;" horiz-adv-x="804" 
d="M79 356q0 -138 92 -232t232 -94q139 0 230.5 94t91.5 232t-91.5 233.5t-230.5 95.5t-231.5 -95.5t-92.5 -233.5zM37 356q0 155 104.5 261t261.5 106t260.5 -105.5t103.5 -261.5q0 -154 -103.5 -259.5t-260.5 -105.5t-261.5 105.5t-104.5 259.5zM284 137v432h144
q64 0 105.5 -29.5t41.5 -96.5q0 -69 -41.5 -101t-105.5 -32h-96v-173h-48zM332 526v-173h92q103 0 103 89q0 84 -106 84h-89z" />
    <glyph glyph-name="trademark" unicode="&#x2122;" horiz-adv-x="917" 
d="M350 714v-37h-107v-346h-43v346h-109v37h259zM764 714v-383h-40v339h-2l-115 -339h-44l-114 339h-2v-339h-41v383h70l109 -330h2l109 330h68z" />
    <glyph glyph-name="Omega" unicode="&#x2126;" horiz-adv-x="782" 
d="M392 676q-124 0 -188 -77t-64 -197q0 -209 193 -267v-135h-239v50h187v56q-201 73 -201 296q0 142 81.5 233t230.5 91q148 0 229 -91t81 -233q0 -225 -200 -296v-56h187v-50h-240v135q194 57 194 267q0 120 -64 197t-187 77z" />
    <glyph glyph-name="estimated" unicode="&#x212e;" horiz-adv-x="793" 
d="M630 126h63q-56 -63 -128 -100t-179 -37q-144 0 -246.5 90.5t-102.5 240.5q0 145 108.5 242t258.5 98q86 0 156 -28.5t113 -77t66 -107.5t23 -122v-3h-570l-8 -10v-213q86 -77 207 -77q146 0 239 104zM608 355l8 9v190q-78 73 -210 73q-136 0 -222 -81v-182l8 -9h416z
" />
    <glyph glyph-name="partialdiff" unicode="&#x2202;" horiz-adv-x="597" 
d="M459 403q-30 103 -112 179.5t-192 113.5l34 35q165 -59 255 -185.5t90 -293.5q0 -117 -64 -190.5t-172 -73.5q-103 0 -168.5 68t-65.5 178t62.5 178.5t163.5 68.5q110 0 166 -78h3zM299 438q-81 0 -129.5 -55t-48.5 -149q0 -91 50.5 -145t128.5 -54q82 0 130 57.5
t48 149.5t-51.5 144t-127.5 52z" />
    <glyph glyph-name="Delta" unicode="&#x2206;" horiz-adv-x="653" 
d="M30 50l261 664h78l254 -664v-50h-593v50zM328 669l-236 -619h468z" />
    <glyph glyph-name="product" unicode="&#x220f;" horiz-adv-x="724" 
d="M625 714v-909h-58v859h-410v-859h-58v909h526z" />
    <glyph glyph-name="summation" unicode="&#x2211;" horiz-adv-x="627" 
d="M398 272l-292 -417h471v-50h-532v50l287 413l-279 395v51h511v-50h-443z" />
    <glyph glyph-name="minus" unicode="&#x2212;" horiz-adv-x="536" 
d="M491 293h-446v44h446v-44z" />
    <glyph glyph-name="uni2215" unicode="&#x2215;" horiz-adv-x="121" 
d="M290 714l-415 -714h-44l414 714h45z" />
    <glyph glyph-name="uni2219" unicode="&#x2219;" horiz-adv-x="264" 
d="M94 263v80h75v-80h-75z" />
    <glyph glyph-name="radical" unicode="&#x221a;" horiz-adv-x="596" 
d="M215 214l97 -354h2l200 854h52l-222 -909h-61l-107 365h-135v44h174z" />
    <glyph glyph-name="infinity" unicode="&#x221e;" horiz-adv-x="835" 
d="M393 243q-60 145 -164 145q-57 0 -93 -41.5t-36 -107.5q0 -64 36.5 -105.5t93.5 -41.5q110 0 163 151zM411 192q-60 -150 -186 -150q-76 0 -125 55.5t-49 143.5q0 87 50 142t127 55q128 0 195 -149q62 149 186 149q76 0 125.5 -55t49.5 -144q0 -87 -50 -142t-127 -55
q-130 0 -196 150zM442 238q57 -146 164 -146q57 0 93.5 42t36.5 107q0 64 -37.5 105.5t-94.5 41.5q-110 0 -162 -150z" />
    <glyph glyph-name="integral" unicode="&#x222b;" horiz-adv-x="318" 
d="M124 -49v613q0 72 30.5 111t92.5 39q35 0 63 -10l-8 -50q-23 10 -48 10q-72 0 -72 -102v-612q0 -145 -126 -145q-32 0 -58 9l6 50q25 -9 48 -9q39 0 55.5 22.5t16.5 73.5z" />
    <glyph glyph-name="approxequal" unicode="&#x2248;" horiz-adv-x="536" 
d="M491 441v-48q-49 -43 -121 -43q-43 0 -108 30.5t-104 30.5q-59 0 -113 -47v49q49 43 121 43q43 0 108 -31t104 -31q59 0 113 47zM491 260v-49q-49 -43 -121 -43q-43 0 -108 31t-104 31q-59 0 -113 -47v48q49 43 121 43q43 0 108 -30.5t104 -30.5q59 0 113 47z" />
    <glyph glyph-name="notequal" unicode="&#x2260;" horiz-adv-x="536" 
d="M491 384h-161l-73 -137h234v-44h-258l-83 -157h-51l83 157h-137v44h161l74 137h-235v44h258l85 157h50l-85 -157h138v-44z" />
    <glyph glyph-name="lessequal" unicode="&#x2264;" horiz-adv-x="536" 
d="M491 176l-446 155v63l446 155v-47l-402 -138v-2l402 -140v-46zM491 81h-446v44h446v-44z" />
    <glyph glyph-name="greaterequal" unicode="&#x2265;" horiz-adv-x="536" 
d="M491 331l-446 -155v46l401 140v2l-401 138v47l446 -155v-63zM491 81h-446v44h446v-44z" />
    <glyph glyph-name="lozenge" unicode="&#x25ca;" horiz-adv-x="446" 
d="M414 324l-165 -324h-52l-165 324l165 324h51zM222 604l-139 -280l140 -280h2l138 280l-139 280h-2z" />
    <glyph glyph-name="f_i" unicode="&#xf001;" horiz-adv-x="542" 
d="M451 723l-5 -47q-69 12 -129 12q-73 0 -105 -30t-32 -99v-31h277v-528h-57v481h-220v-481h-57v481h-114v47h114v43q0 82 46.5 123t147.5 41q70 0 134 -12z" />
    <glyph glyph-name="f_l" unicode="&#xf002;" horiz-adv-x="546" 
d="M315 528v-47h-135v-481h-57v481h-114v47h114v42q0 165 194 165q58 0 140 -14v-721h-57v681q-44 7 -82 7q-73 0 -105.5 -29.5t-32.5 -98.5v-32h135z" />
    <glyph glyph-name="commaaccent" unicode="&#xf6c3;" 
d="M284 -58l-73 -156h-41l50 156h64z" />
    <glyph glyph-name="cyrbreve" unicode="&#xf6d4;" 
d="M233 613q-134 0 -140 129h46q8 -86 94 -86q48 0 69.5 22t24.5 64h46q-6 -129 -140 -129z" />
    <glyph glyph-name="uniF8FF" unicode="&#xf8ff;" horiz-adv-x="512" 
d="M278 117h-56v67h56v-67zM271 234h-46l-2 17q0 56 13 81q16 31 46 59q50 46 50 83q0 36 -22.5 60.5t-53.5 24.5q-71 0 -82 -95l-50 8q7 69 43 103t92 34q54 0 89 -36t35 -95q0 -34 -13 -60t-50 -60q-37 -33 -43 -52q-6 -20 -6 -72zM50 50h412v617h-412v-617zM0 718h512
v-718h-512v718z" />
    <glyph glyph-name="uniFEFF" unicode="&#xfeff;" horiz-adv-x="0" 
 />
    <glyph glyph-name="grave.cap" 
d="M121 904h67l84 -134h-45z" />
    <glyph glyph-name="acute.cap" 
d="M284 903h67l-108 -134h-44z" />
    <glyph glyph-name="circumflex.cap" 
d="M384 762h-49l-102 111l-101 -111h-49l120 146h60z" />
    <glyph glyph-name="caron.cap" 
d="M334 906h49l-120 -146h-60l-121 146h49l102 -110z" />
    <glyph glyph-name="caron.alt" 
d="M280 768l-37 -164h-36l19 164h54z" />
    <glyph glyph-name="tilde.cap" 
d="M241 856q43 -32 63 -32q40 0 43 67h43q-5 -111 -84 -111q-34 0 -79 34q-41 33 -63 33q-40 0 -43 -67h-43q2 51 23.5 81t61.5 30q34 0 78 -35z" />
    <glyph glyph-name="dieresis.cap" 
d="M117 876h62v-73h-62v73zM288 876h61v-73h-61v73z" />
    <glyph glyph-name="macron.cap" 
d="M356 857v-45h-247v45h247z" />
    <glyph glyph-name="breve.cap" 
d="M233 815q86 0 94 86h46q-6 -129 -140 -129q-70 0 -103.5 36t-35.5 93h46q3 -86 93 -86z" />
    <glyph glyph-name="ring.cap" 
d="M234 940q39 0 67 -29t28 -68q0 -40 -27.5 -67.5t-67.5 -27.5q-41 0 -69 27.5t-28 67.5q0 41 28.5 69t68.5 28zM233 907q-26 0 -45 -18.5t-19 -45.5q0 -26 19 -44.5t46 -18.5q26 0 44.5 18.5t18.5 44.5q0 28 -18.5 46t-45.5 18z" />
    <glyph glyph-name="hungarumlaut.cap" 
d="M267 905l-89 -137h-44l69 137h64zM393 905l-97 -137h-45l75 137h67z" />
    <glyph glyph-name="dotaccent.cap" 
d="M201 874h69v-75h-69v75z" />
    <glyph glyph-name="commaaccent.alt" 
d="M178 604l76 164h41l-53 -164h-64z" />
    <glyph glyph-name="zero.denominator" horiz-adv-x="379" 
d="M190 436q76 0 115 -60.5t39 -163.5q0 -101 -39 -160t-115 -59q-77 0 -115.5 59t-38.5 160q0 103 39 163.5t115 60.5zM190 395q-99 -1 -103 -183q-2 -78 24.5 -128t78.5 -50t77.5 48t24.5 130q-1 86 -26 135t-76 48z" />
    <glyph glyph-name="one.denominator" horiz-adv-x="379" 
d="M231 429v-429h-51v379l-90 -56l-19 37l111 69h49z" />
    <glyph glyph-name="two.denominator" horiz-adv-x="379" 
d="M324 43v-43h-271v45q133 121 173 172.5t40 97.5q0 37 -23 58t-61 21q-52 0 -102 -40l-20 36q54 46 125 46q60 0 95.5 -31t35.5 -89q0 -57 -39.5 -107.5t-165.5 -164.5v-1h213z" />
    <glyph glyph-name="three.denominator" horiz-adv-x="379" 
d="M111 201v40h50q48 0 76 21t28 59q0 35 -23.5 54t-63.5 19q-54 0 -101 -27l-14 40q51 29 118 29q61 0 97.5 -29t36.5 -81q0 -79 -82 -102v-1q43 -9 68.5 -37t25.5 -68q0 -59 -41.5 -92t-107.5 -33q-73 0 -128 29l16 41q50 -28 111 -28q45 0 72.5 21t27.5 62
q0 42 -32.5 62.5t-83.5 20.5h-50z" />
    <glyph glyph-name="four.denominator" horiz-adv-x="379" 
d="M284 429v-282h62v-43h-62v-104h-48v104h-202v47l186 278h64zM236 147v234h-1l-154 -234h155z" />
    <glyph glyph-name="five.denominator" horiz-adv-x="379" 
d="M278 131q0 48 -31.5 69.5t-77.5 21.5q-50 0 -95 -11l9 218h223v-42h-177l-6 -129q29 6 61 6q64 0 104 -34.5t40 -97.5q0 -68 -43 -103.5t-111 -35.5q-66 0 -119 25l14 40q48 -23 100 -23q50 0 79.5 24t29.5 72z" />
    <glyph glyph-name="six.denominator" horiz-adv-x="379" 
d="M95 226h2q37 52 107 52q63 0 99 -39t36 -101q0 -63 -40 -104t-103 -41q-79 0 -115.5 56.5t-36.5 136.5q0 110 42.5 180t131.5 70q46 0 82 -14l-10 -41q-32 13 -71 13q-112 0 -124 -168zM96 151q0 -44 25 -80t73 -36q44 0 69.5 28.5t25.5 74.5q0 42 -24.5 70.5t-67.5 28.5
q-44 0 -72.5 -25.5t-28.5 -60.5z" />
    <glyph glyph-name="seven.denominator" horiz-adv-x="379" 
d="M62 387v42h260v-39q-58 -95 -95 -199t-45 -191h-51q8 88 46 193.5t94 193.5h-209z" />
    <glyph glyph-name="eight.denominator" horiz-adv-x="379" 
d="M190 202q-40 0 -70.5 -22.5t-30.5 -61.5q0 -41 28.5 -62t72.5 -21q45 0 73 21t28 62q0 39 -31 61.5t-70 22.5zM189 436q58 0 98.5 -29.5t40.5 -82.5q0 -39 -20.5 -64.5t-54.5 -35.5v-2q88 -30 88 -109q0 -59 -43 -89.5t-108 -30.5q-66 0 -108.5 30.5t-42.5 89.5
q0 43 24.5 72t64.5 40q-76 25 -76 99q0 52 41 82t96 30zM190 243q37 0 62.5 19.5t25.5 58.5q0 33 -24.5 53.5t-63.5 20.5t-63.5 -20.5t-24.5 -53.5q0 -39 25.5 -58.5t62.5 -19.5z" />
    <glyph glyph-name="nine.denominator" horiz-adv-x="379" 
d="M284 203h-1q-39 -52 -108 -52q-62 0 -98.5 39t-36.5 100q0 63 40 104.5t103 41.5q78 0 115 -56t37 -136q0 -110 -42.5 -180.5t-131.5 -70.5q-49 0 -85 14l10 41q32 -13 74 -13q60 0 90 48t34 120zM283 278q0 44 -25.5 80t-73.5 36q-42 0 -68 -29t-26 -75q0 -42 24 -70
t67 -28q44 0 73 25.5t29 60.5z" />
    <glyph glyph-name="zero.numerator" horiz-adv-x="379" 
d="M190 721q76 0 115 -60.5t39 -163.5q0 -101 -39 -160t-115 -59q-77 0 -115.5 59t-38.5 160q0 103 39 163.5t115 60.5zM190 680q-99 -1 -103 -183q-2 -78 24.5 -128t78.5 -50t77.5 48t24.5 130q-1 86 -26 135t-76 48z" />
    <glyph glyph-name="one.numerator" horiz-adv-x="379" 
d="M231 714v-429h-51v379l-90 -56l-19 37l111 69h49z" />
    <glyph glyph-name="two.numerator" horiz-adv-x="379" 
d="M324 328v-43h-271v45q133 121 173 172.5t40 97.5q0 37 -23 58t-61 21q-52 0 -102 -40l-20 36q54 46 125 46q60 0 95.5 -31t35.5 -89q0 -57 -39.5 -107.5t-165.5 -164.5v-1h213z" />
    <glyph glyph-name="three.numerator" horiz-adv-x="379" 
d="M111 486v40h50q48 0 76 21t28 59q0 35 -23.5 54t-63.5 19q-54 0 -101 -27l-14 40q51 29 118 29q61 0 97.5 -29t36.5 -81q0 -79 -82 -102v-1q43 -9 68.5 -37t25.5 -68q0 -59 -41.5 -92t-107.5 -33q-73 0 -128 29l16 41q50 -28 111 -28q45 0 72.5 21t27.5 62
q0 42 -32.5 62.5t-83.5 20.5h-50z" />
    <glyph glyph-name="four.numerator" horiz-adv-x="379" 
d="M284 714v-282h62v-43h-62v-104h-48v104h-202v47l186 278h64zM236 432v234h-1l-154 -234h155z" />
    <glyph glyph-name="five.numerator" horiz-adv-x="379" 
d="M278 416q0 48 -31.5 69.5t-77.5 21.5q-50 0 -95 -11l9 218h223v-42h-177l-6 -129q28 6 61 6q64 0 104 -34.5t40 -97.5q0 -68 -43 -103.5t-111 -35.5q-66 0 -119 25l14 40q48 -23 100 -23q50 0 79.5 24t29.5 72z" />
    <glyph glyph-name="six.numerator" horiz-adv-x="379" 
d="M95 511h2q37 52 107 52q63 0 99 -39t36 -101q0 -63 -40 -104t-103 -41q-79 0 -115.5 56.5t-36.5 136.5q0 110 42.5 180t131.5 70q46 0 82 -14l-10 -41q-32 13 -71 13q-112 0 -124 -168zM96 436q0 -44 25 -80t73 -36q44 0 69.5 28.5t25.5 74.5q0 42 -24.5 70.5t-67.5 28.5
q-44 0 -72.5 -25.5t-28.5 -60.5z" />
    <glyph glyph-name="seven.numerator" horiz-adv-x="379" 
d="M62 672v42h260v-39q-58 -95 -95 -199t-45 -191h-51q8 88 46 193.5t94 193.5h-209z" />
    <glyph glyph-name="eight.numerator" horiz-adv-x="379" 
d="M190 487q-40 0 -70.5 -22.5t-30.5 -61.5q0 -41 28.5 -62t72.5 -21q45 0 73 21t28 62q0 39 -31 61.5t-70 22.5zM189 721q58 0 98.5 -29.5t40.5 -82.5q0 -39 -20.5 -64.5t-54.5 -35.5v-2q88 -30 88 -109q0 -59 -43 -89.5t-108 -30.5q-66 0 -108.5 30.5t-42.5 89.5
q0 43 24.5 72t64.5 40q-76 25 -76 99q0 52 41 82t96 30zM190 528q37 0 62.5 19.5t25.5 58.5q0 33 -24.5 53.5t-63.5 20.5t-63.5 -20.5t-24.5 -53.5q0 -39 25.5 -58.5t62.5 -19.5z" />
    <glyph glyph-name="nine.numerator" horiz-adv-x="379" 
d="M284 488h-1q-39 -52 -108 -52q-62 0 -98.5 39t-36.5 100q0 63 40 104.5t103 41.5q78 0 115 -56t37 -136q0 -110 -42.5 -180.5t-131.5 -70.5q-49 0 -85 14l10 41q32 -13 74 -13q60 0 90 48t34 120zM283 563q0 44 -25.5 80t-73.5 36q-42 0 -68 -29t-26 -75q0 -42 24 -70
t67 -28q44 0 73 25.5t29 60.5z" />
    <glyph glyph-name="tonos.cap" horiz-adv-x="438" 
d="M322 714l-90 -164h-41l59 164h72z" />
    <glyph glyph-name="cyrbreve.cap" 
d="M233 773q-134 0 -140 128h46q4 -41 25.5 -63.5t68.5 -22.5q87 0 94 86h46q-6 -128 -140 -128z" />
    <glyph glyph-name="hyphen.cap" horiz-adv-x="380" 
d="M74 345v48h232v-48h-232z" />
    <glyph glyph-name="endash.cap" horiz-adv-x="446" 
d="M27 347v42h391v-42h-391z" />
    <glyph glyph-name="emdash.cap" horiz-adv-x="698" 
d="M27 347v42h643v-42h-643z" />
    <glyph glyph-name="colon.cap" horiz-adv-x="320" 
d="M125 93v81h72v-81h-72zM125 540v81h72v-81h-72z" />
    <glyph glyph-name="registered.alt1" horiz-adv-x="804" 
d="M79 356q0 -138 92 -232t232 -94q139 0 230.5 94t91.5 232t-91.5 233.5t-230.5 95.5t-231.5 -95.5t-92.5 -233.5zM37 356q0 155 104.5 261t261.5 106t260.5 -105.5t103.5 -261.5q0 -154 -103.5 -259.5t-260.5 -105.5t-261.5 105.5t-104.5 259.5zM267 142v432h145
q150 0 150 -114q0 -43 -22.5 -69.5t-60.5 -35.5v-2q23 -8 36 -24t25 -56q23 -75 42 -131h-56q-22 80 -35 119q-13 42 -32.5 56.5t-65.5 14.5h-77v-190h-49zM316 531v-157h89q108 0 108 82q0 75 -109 75h-88z" />
    <glyph glyph-name="zero.slash" horiz-adv-x="581" 
d="M291 726q116 0 175 -100t59 -271q0 -170 -59 -268.5t-175 -98.5q-119 0 -177 98t-58 269q0 173 57.5 272t177.5 99zM291 676q-91 0 -134 -86.5t-43 -234.5q0 -125 30 -202l278 438q-47 85 -131 85zM468 355q0 121 -30 196l-278 -437q45 -76 131 -76q90 0 134 85t43 232z
" />
    <glyph glyph-name="zero.tnum" horiz-adv-x="581" 
d="M291 726q115 0 174.5 -100.5t59.5 -270.5t-59 -268.5t-175 -98.5q-119 0 -177 98t-58 269q0 173 57.5 272t177.5 99zM291 676q-91 0 -134 -86.5t-43 -234.5q0 -146 43 -231.5t134 -85.5q90 0 133.5 84.5t43.5 232.5q0 146 -44 233.5t-133 87.5z" />
    <glyph glyph-name="one.tnum" horiz-adv-x="581" 
d="M351 714v-714h-58v658l-154 -105l-27 42l175 119h64z" />
    <glyph glyph-name="two.tnum" horiz-adv-x="581" 
d="M509 50v-50h-440v53q160 149 236.5 231.5t106 137t29.5 111.5q0 66 -45 104.5t-115 38.5q-91 0 -169 -70l-27 41q82 79 197 79q96 0 156.5 -50t60.5 -141q0 -52 -13.5 -92.5t-58 -99t-105.5 -119.5t-180 -174h367z" />
    <glyph glyph-name="three.tnum" horiz-adv-x="581" 
d="M160 343v50h67q89 0 144.5 37t55.5 110q0 65 -43.5 100.5t-115.5 35.5q-94 0 -170 -45l-19 48q84 47 192 47q95 0 154.5 -49t59.5 -133q0 -135 -147 -173v-2q78 -12 123 -57t45 -119q0 -95 -67 -150t-174 -55q-119 0 -203 47l19 48q81 -45 185 -45q82 0 132 39t50 116
q0 79 -63 114.5t-158 35.5h-67z" />
    <glyph glyph-name="four.tnum" horiz-adv-x="581" 
d="M442 714v-482h105v-50h-105v-182h-58v182h-349v61l316 471h91zM384 232v433h-2l-290 -433h292z" />
    <glyph glyph-name="five.tnum" horiz-adv-x="581" 
d="M448 216q0 87 -59.5 128t-146.5 41q-73 0 -145 -15l14 344h354v-50h-302l-11 -238q49 8 100 8q109 0 181.5 -55.5t72.5 -159.5q0 -111 -71 -171t-182 -60q-104 0 -186 38l18 49q79 -37 167 -37t142 45t54 133z" />
    <glyph glyph-name="six.tnum" horiz-adv-x="581" 
d="M121 249q0 -51 16.5 -97t58.5 -80t103 -34q79 0 126.5 53t47.5 137q0 78 -44 130t-123 52t-132 -48t-53 -113zM116 357h2q26 46 77 74.5t114 28.5q101 0 161.5 -65.5t60.5 -166.5q0 -105 -64 -172.5t-166 -67.5q-54 0 -96.5 18.5t-69.5 48.5t-44.5 72t-24.5 86t-7 93
q0 88 15.5 162t47.5 133t86.5 92t127.5 33q72 0 134 -25l-15 -47q-55 22 -119 22q-58 0 -101 -27t-67.5 -74.5t-36.5 -101t-15 -116.5z" />
    <glyph glyph-name="seven.tnum" horiz-adv-x="581" 
d="M79 664v50h425v-50q-103 -152 -166.5 -331.5t-79.5 -332.5h-58q15 152 81 337t160 327h-362z" />
    <glyph glyph-name="eight.tnum" horiz-adv-x="581" 
d="M290 346q-74 0 -130 -40t-56 -115q0 -76 52 -114.5t134 -38.5q83 0 135 38.5t52 114.5q0 75 -56.5 115t-130.5 40zM289 726q92 0 157 -48.5t65 -137.5q0 -69 -35.5 -109.5t-92.5 -55.5v-2q152 -43 152 -186q0 -98 -70 -148.5t-175 -50.5t-174.5 50.5t-69.5 148.5
q0 74 44.5 121t109.5 62v2q-56 14 -93 57t-37 111q0 89 64 137.5t155 48.5zM290 395q69 0 116 36t47 109q0 62 -45 99t-119 37q-72 0 -115.5 -37t-43.5 -99q0 -73 45.5 -109t114.5 -36z" />
    <glyph glyph-name="nine.tnum" horiz-adv-x="581" 
d="M461 465q0 82 -45 146.5t-134 64.5q-79 0 -126.5 -53t-47.5 -137q0 -78 44 -130t123 -52q80 0 133 48t53 113zM465 357h-2q-25 -46 -76.5 -74.5t-114.5 -28.5q-100 0 -161 65.5t-61 166.5q0 105 64 172.5t166 67.5q67 0 116 -27t75.5 -74.5t39 -101t12.5 -115.5
q0 -88 -15.5 -162t-47.5 -133t-86.5 -92t-126.5 -33q-86 0 -146 25l13 48q62 -23 131 -23q58 0 101.5 27.5t67.5 75t36.5 101t14.5 115.5z" />
    <glyph glyph-name="dollar.tnum" horiz-adv-x="581" 
d="M470 671l-14 -45q-66 28 -135 30v-275q90 -35 133.5 -78t43.5 -115q0 -79 -49.5 -124t-127.5 -53v-89h-44v87q-99 0 -187 44q3 9 8 25.5t6 21.5q84 -44 173 -46v289l-28 12q-77 33 -112.5 73t-35.5 105q0 74 50 117t126 50v83h44v-81q86 -3 149 -31zM443 185
q0 48 -30.5 80t-91.5 59v-266q57 8 89.5 40t32.5 87zM154 537q0 -50 29.5 -80.5t93.5 -57.5v256q-55 -6 -89 -35.5t-34 -82.5z" />
    <glyph glyph-name="currency.tnum" horiz-adv-x="581" 
d="M292 212q48 0 79 32t31 81t-31.5 80.5t-78.5 31.5q-48 0 -79.5 -31.5t-31.5 -80.5t31.5 -81t79.5 -32zM70 507l39 39l87 -86q42 29 96 29q53 0 95 -29l87 86l38 -38l-86 -86q31 -44 31 -97q0 -56 -30 -97l85 -86l-39 -38l-86 84q-40 -29 -95 -29t-97 31l-87 -86l-38 38
l86 86q-30 39 -30 97q0 55 29 96z" />
    <glyph glyph-name="Euro.tnum" horiz-adv-x="581" 
d="M37 418l13 43h77q25 123 107 194t217 71q45 0 86 -9l-10 -49q-34 7 -75 7q-110 0 -176.5 -57t-88.5 -157h302l-12 -43h-298q-3 -21 -3 -64q0 -34 1 -41h276l-12 -43h-258q19 -106 86 -169t181 -63q46 0 84 9l7 -47q-45 -12 -94 -12q-137 0 -219.5 75t-103.5 206h-87
l13 44h68q-1 13 -1 42q0 31 3 63h-83z" />
    <glyph glyph-name="cent.tnum" horiz-adv-x="581" 
d="M322 -67v58q-104 12 -161 86t-57 186t58 186t160 87v64h45v-60q66 -1 114 -19l-14 -47q-45 18 -100 19v-459q59 1 105 21l10 -47q-54 -19 -115 -20v-55h-45zM162 263q0 -88 41 -149.5t119 -75.5v451q-78 -14 -119 -75.5t-41 -150.5z" />
    <glyph glyph-name="sterling.tnum" horiz-adv-x="581" 
d="M498 695l-20 -49q-52 30 -108 30q-70 0 -104.5 -41.5t-34.5 -112.5v-129h158v-42h-158v-301h294v-50h-464v50h112v301h-104v42h104v134q0 91 51.5 145t145.5 54q71 0 128 -31z" />
    <glyph glyph-name="florin.tnum" horiz-adv-x="581" 
d="M348 558l-24 -166h140v-46h-146l-46 -323q-6 -72 -45.5 -116t-109.5 -44q-47 0 -85 17l11 49q30 -15 67 -15q50 1 73 27t32 84l45 321h-133v46h140l26 179q8 66 51.5 110t113.5 44q53 0 89 -18l-17 -48q-29 15 -72 15q-93 0 -110 -116z" />
    <glyph glyph-name="yen.tnum" horiz-adv-x="581" 
d="M84 193h178v105h-178v42h163l-210 374h62l194 -359l191 359h60l-209 -374h162v-42h-178v-105h178v-42h-178v-151h-57v151h-178v42z" />
    <glyph glyph-name="acutecmb.cap" horiz-adv-x="0" 
d="M-195 903h67l-108 -134h-44z" />
    <glyph glyph-name="hookcmb.cap" horiz-adv-x="0" 
d="M-226 758h-42q0 24 7 35.5t30 24.5q37 21 37 45q0 38 -49 38q-27 0 -57 -14l-10 34q32 17 74 17q37 0 60.5 -18.5t23.5 -54.5q0 -47 -54 -75q-20 -10 -20 -32z" />
    <glyph glyph-name="acubreveviet" 
d="M233 655q84 0 94 78h46q-3 -51 -36 -85.5t-104 -34.5q-69 0 -102.5 35t-36.5 85h46q4 -78 93 -78zM345 875l-100 -139h-43l81 139h62z" />
    <glyph glyph-name="acubreveviet.cap" 
d="M233 814q84 0 94 78h46q-3 -51 -36 -85.5t-104 -34.5q-69 0 -102.5 35t-36.5 85h46q4 -78 93 -78zM280 1016h67l-101 -124h-44z" />
    <glyph glyph-name="acutcircviet" 
d="M384 604h-49l-102 129l-101 -129h-49l120 164h60zM471 855l-92 -133h-43l74 133h61z" />
    <glyph glyph-name="acutcircviet.cap" 
d="M384 762h-49l-102 111l-101 -111h-49l120 146h60zM417 970h65l-92 -114h-44z" />
    <glyph glyph-name="gravbreveviet" 
d="M234 655q89 0 93 78h46q-3 -50 -36.5 -85t-102.5 -35q-71 0 -104 34.5t-36 85.5h46q10 -78 94 -78zM223 736l-100 139h62l81 -139h-43z" />
    <glyph glyph-name="gravbreveviet.cap" 
d="M234 814q89 0 93 78h46q-3 -50 -36.5 -85t-102.5 -35q-71 0 -104 34.5t-36 85.5h46q10 -78 94 -78zM121 1016h67l78 -124h-44z" />
    <glyph glyph-name="gravcircviet" 
d="M384 604h-49l-102 129l-101 -129h-49l120 164h60zM87 722l-92 133h61l74 -133h-43z" />
    <glyph glyph-name="gravcircviet.cap" 
d="M384 762h-49l-102 111l-101 -111h-49l120 146h60zM-16 970h65l71 -114h-44z" />
    <glyph glyph-name="hoibreveviet" 
d="M234 655q89 0 93 78h46q-3 -50 -36.5 -85t-102.5 -35q-71 0 -104 34.5t-36 85.5h46q10 -78 94 -78zM249 726h-42q0 24 6.5 35t30.5 24q36 20 36 45q0 35 -48 35q-27 0 -57 -14l-10 34q32 17 74 17q37 0 60 -18t23 -52q0 -47 -53 -75q-20 -11 -20 -31z" />
    <glyph glyph-name="hoibreveviet.cap" 
d="M234 814q89 0 93 78h46q-3 -50 -36.5 -85t-102.5 -35q-71 0 -104 34.5t-36 85.5h46q10 -78 94 -78zM249 885h-42q0 24 6.5 35t30.5 24q36 20 36 45q0 35 -48 35q-27 0 -57 -14l-10 34q32 17 74 17q37 0 60 -18t23 -52q0 -47 -53 -75q-20 -11 -20 -31z" />
    <glyph glyph-name="hoicircviet" 
d="M384 604h-49l-102 129l-101 -129h-49l120 164h60zM391 705h-42q0 24 6.5 35t30.5 24q36 20 36 45q0 35 -48 35q-27 0 -57 -14l-10 34q32 17 74 17q37 0 60 -18t23 -52q0 -47 -53 -75q-20 -11 -20 -31z" />
    <glyph glyph-name="hoicircviet.cap" 
d="M384 762h-49l-102 111l-101 -111h-49l120 146h60zM391 845h-42q0 24 6.5 35t30.5 24q36 20 36 45q0 35 -48 35q-27 0 -57 -14l-10 34q32 17 74 17q37 0 60 -18t23 -52q0 -47 -53 -75q-20 -11 -20 -31z" />
    <glyph glyph-name="tildebreveviet" 
d="M234 655q89 0 93 78h46q-3 -50 -36.5 -85t-102.5 -35q-71 0 -104 34.5t-36 85.5h46q10 -78 94 -78zM300 824q19 0 27 13t10 45h43q-3 -99 -81 -99q-34 0 -73 29q-37 28 -59 28q-37 0 -38 -58h-43q3 99 82 99q34 0 73 -29q37 -28 59 -28z" />
    <glyph glyph-name="tildebreveviet.cap" 
d="M234 814q89 0 93 78h46q-3 -50 -36.5 -85t-102.5 -35q-71 0 -104 34.5t-36 85.5h46q10 -78 94 -78zM300 983q19 0 27 13t10 45h43q-3 -99 -81 -99q-34 0 -73 29q-37 28 -59 28q-37 0 -38 -58h-43q3 99 82 99q34 0 73 -29q37 -28 59 -28z" />
    <glyph glyph-name="tildecircviet" 
d="M386 604h-49l-104 110l-103 -110h-49l122 144h60zM300 824q19 0 27 13t10 45h43q-3 -99 -81 -99q-34 0 -73 29q-37 28 -59 28q-37 0 -38 -58h-43q3 99 82 99q34 0 73 -29q37 -28 59 -28z" />
    <glyph glyph-name="tildecircviet.cap" 
d="M386 762h-49l-104 100l-103 -100h-49l122 133h60zM300 971q19 0 27 13t10 45h43q-3 -99 -81 -99q-34 0 -73 29q-37 28 -59 28q-37 0 -38 -58h-43q3 99 82 99q34 0 73 -29q37 -28 59 -28z" />
    <glyph glyph-name="uni20AB.tnum" horiz-adv-x="581" 
d="M442 429v183h-120v41h120v82h57v-82h44v-41h-44v-612h-55v104h-2q-26 -52 -72.5 -84t-105.5 -32q-100 0 -156.5 78.5t-56.5 198.5t58 197.5t158 77.5q115 0 173 -111h2zM108 265q0 -100 42.5 -165t121.5 -65q81 0 127 63.5t46 165.5q0 101 -46.5 165t-125.5 64
q-80 0 -122.5 -64.5t-42.5 -163.5zM513 -128h-437v44h437v-44z" />
    </font>
</defs>
</svg>
