<?xml version="1.0" standalone="no"?>
<!DOCTYPE svg PUBLIC "-//W3C//DTD SVG 1.1//EN" "http://www.w3.org/Graphics/SVG/1.1/DTD/svg11.dtd" >
<svg xmlns="http://www.w3.org/2000/svg" xmlns:xlink="http://www.w3.org/1999/xlink" version="1.1">
<metadata>
Created by FontForge 20170731 at Wed May 24 14:50:15 2017
 By Aleksey,,,
Copyright (c) 2012-2017 Monotype GmbH, www.monotype.com. All rights reserved. This font software may not be reproduced, modified, disclosed or transferred without the express written approval of Linotype GmbH. SST is a trademark of Linotype GmbH and may be registered in certain jurisdictions. This typeface is original artwork of Akira Kobayashi. The design may be protected in certain jurisdictions.
</metadata>
<defs>
<font id="SSTVietnamese-Medium" horiz-adv-x="463" >
  <font-face 
    font-family="SST Vietnamese Medium"
    font-weight="500"
    font-stretch="normal"
    units-per-em="1000"
    panose-1="2 11 6 4 3 5 4 2 2 4"
    ascent="770"
    descent="-230"
    x-height="528"
    cap-height="714"
    bbox="-337 -217 1121 1067"
    underline-thickness="50"
    underline-position="-200"
    unicode-range="U+0020-FEFF"
  />
<missing-glyph horiz-adv-x="512" 
d="M278 117h-56v67h56v-67zM271 234h-46l-2 17q0 56 13 81q15 28 46 59q31 29 40.5 46t9.5 37q0 36 -22.5 60.5t-53.5 24.5q-71 0 -82 -95l-50 8q7 69 43 103t92 34q54 0 89 -36t35 -95q0 -34 -13 -60t-50 -60q-37 -33 -43 -52q-6 -20 -6 -72zM50 50h412v617h-412v-617z
M0 718h512v-718h-512v718z" />
    <glyph glyph-name="IJ" unicode="IJ" horiz-adv-x="601" 
d="M83 0v714h117v-714h-117zM529 714v-548q0 -89 -44 -133.5t-140 -44.5q-46 0 -79 6v95q28 -6 61 -6q45 0 65 21t20 70v540h117z" />
    <glyph glyph-name="ij" unicode="ij" horiz-adv-x="535" 
d="M76 528h114v-528h-114v528zM75 730h117v-106h-117v106zM458 528v-563q0 -160 -163 -160q-35 0 -63 4v87q24 -4 46 -4q38 0 52 20.5t14 65.5v550h114zM343 730h117v-106h-117v106z" />
    <glyph glyph-name="napostrophe" unicode="&#x22;n" horiz-adv-x="615" 
d="M76 528h111v-74h2q21 41 65 63.5t98 22.5q89 0 140.5 -52t51.5 -140v-348h-114v305q0 74 -24.5 111t-86.5 37q-53 0 -91 -40t-38 -121v-292h-114v528zM127 768l-37 -164h-65l13 164h89z" />
    <glyph glyph-name="f_f" unicode="ff" horiz-adv-x="662" 
d="M696 726l-8 -86q-31 8 -71 8q-43 0 -60 -21.5t-17 -71.5v-27h117v-87h-117v-441h-114v441h-206v-441h-114v441h-96v87h96v38q0 82 41 125.5t140 43.5q47 0 89 -9l-8 -86q-31 8 -70 8q-44 0 -61 -21.5t-17 -71.5v-27h206v38q0 82 41 125.5t139 43.5q50 0 90 -9z" />
    <glyph glyph-name="fi" unicode="fi" horiz-adv-x="603" 
d="M507 723l-7 -85q-78 10 -148 10t-101 -23t-31 -76v-21h307v-528h-114v441h-193v-441h-114v441h-96v87h96v32q0 175 241 175q82 0 160 -12z" />
    <glyph glyph-name="fl" unicode="fl" horiz-adv-x="603" 
d="M527 720v-720h-114v644q-29 4 -68 4q-62 0 -93.5 -22t-31.5 -75v-23h117v-87h-117v-441h-114v441h-96v87h96v39q0 79 58 123.5t176 44.5q86 0 187 -15z" />
    <glyph glyph-name="f_f_i" unicode="ffi" horiz-adv-x="924" 
d="M827 723l-6 -86q-72 11 -148 11q-70 0 -101.5 -23t-31.5 -77v-20h308v-528h-114v441h-194v-441h-114v441h-206v-441h-114v441h-96v87h96v37q0 82 41 126t141 44q43 0 88 -10l-7 -85q-37 8 -70 8q-44 0 -61.5 -21.5t-17.5 -71.5v-27h206v32q0 175 241 175q82 0 160 -12z
" />
    <glyph glyph-name="f_f_l" unicode="ffl" horiz-adv-x="924" 
d="M848 720v-720h-114v644q-42 4 -69 4q-125 0 -125 -97v-23h118v-87h-118v-441h-114v441h-206v-441h-114v441h-96v87h96v37q0 82 41 126t141 44q43 0 88 -10l-7 -85q-37 8 -70 8q-44 0 -61.5 -21.5t-17.5 -71.5v-27h206v39q0 79 58 123.5t176 44.5q85 0 188 -15z" />
    <glyph glyph-name=".notdef" horiz-adv-x="512" 
d="M278 117h-56v67h56v-67zM271 234h-46l-2 17q0 56 13 81q15 28 46 59q31 29 40.5 46t9.5 37q0 36 -22.5 60.5t-53.5 24.5q-71 0 -82 -95l-50 8q7 69 43 103t92 34q54 0 89 -36t35 -95q0 -34 -13 -60t-50 -60q-37 -33 -43 -52q-6 -20 -6 -72zM50 50h412v617h-412v-617z
M0 718h512v-718h-512v718z" />
    <glyph glyph-name=".null" horiz-adv-x="0" 
 />
    <glyph glyph-name=".null" horiz-adv-x="0" 
 />
    <glyph glyph-name="nonmarkingreturn" horiz-adv-x="333" 
 />
    <glyph glyph-name="space" unicode=" " horiz-adv-x="260" 
 />
    <glyph glyph-name="exclam" unicode="!" horiz-adv-x="311" 
d="M222 714l-18 -490h-97l-18 490h133zM92 0v124h125v-124h-125z" />
    <glyph glyph-name="quotedbl" unicode="&#x22;" horiz-adv-x="419" 
d="M91 501l-21 235h113l-22 -235h-70zM260 501l-22 235h111l-21 -235h-68z" />
    <glyph glyph-name="numbersign" unicode="#" horiz-adv-x="580" 
d="M99 0l28 203h-96v81h107l21 149h-107v81h118l28 200h87l-28 -200h118l28 200h86l-28 -200h88v-81h-99l-20 -149h96v-81h-107l-28 -203h-87l28 203h-118l-28 -203h-87zM246 433l-21 -149h118l21 149h-118z" />
    <glyph glyph-name="dollar" unicode="$" horiz-adv-x="554" 
d="M465 678l-22 -87q-62 22 -127 27v-216q96 -40 139 -86t43 -117q0 -77 -50 -128t-137 -62v-87h-67v84q-103 3 -189 38l24 90q81 -36 165 -40v224q-97 39 -139 86t-42 114q0 77 51 126.5t136 59.5v79h66v-78q88 -3 149 -27zM166 529q0 -32 17.5 -54.5t66.5 -44.5v186
q-41 -7 -62.5 -30.5t-21.5 -56.5zM393 194q0 60 -82 98v-194q82 18 82 96z" />
    <glyph glyph-name="percent" unicode="%" horiz-adv-x="826" 
d="M669 714l-432 -714h-81l432 714h81zM353 523q0 -89 -39 -139.5t-111 -50.5q-71 0 -110 50.5t-39 139.5q0 90 39 141.5t110 51.5q72 0 111 -51.5t39 -141.5zM265 523q0 53 -15.5 85.5t-46.5 32.5q-30 0 -45 -32.5t-15 -85.5q0 -51 15 -83.5t45 -32.5q31 0 46.5 32.5
t15.5 83.5zM772 191q0 -89 -39 -140t-110 -51t-110 51t-39 140q0 90 39 141t110 51t110 -51t39 -141zM684 191q0 53 -15 85t-46 32t-46 -32t-15 -85t15 -85t46 -32t46 32t15 85z" />
    <glyph glyph-name="ampersand" unicode="&#x26;" horiz-adv-x="722" 
d="M392 561q0 37 -21.5 59t-58.5 22q-39 0 -61.5 -24t-22.5 -62q0 -56 62 -116q102 44 102 121zM408 158l-154 176q-96 -45 -96 -135q0 -52 33.5 -85t85.5 -33q83 0 131 77zM543 167l145 -167h-142l-71 83q-70 -94 -203 -94q-98 0 -162 52.5t-64 146.5q0 143 150 211
q-74 74 -74 156t55.5 126.5t134.5 44.5q81 0 133 -40.5t52 -122.5q0 -119 -147 -188l121 -134q37 71 62 138h116q-54 -126 -106 -212z" />
    <glyph glyph-name="quotesingle" unicode="'" horiz-adv-x="253" 
d="M91 501l-21 235h113l-22 -235h-70z" />
    <glyph glyph-name="parenleft" unicode="(" horiz-adv-x="322" 
d="M139 302q0 -134 34.5 -263.5t98.5 -233.5h-103q-60 97 -95 226t-35 271q0 285 130 495h103q-64 -104 -98.5 -233.5t-34.5 -261.5z" />
    <glyph glyph-name="parenright" unicode=")" horiz-adv-x="322" 
d="M183 299q0 133 -34.5 263t-98.5 234h102q61 -97 96 -225.5t35 -271.5q0 -286 -131 -495h-102q64 104 98.5 233.5t34.5 261.5z" />
    <glyph glyph-name="asterisk" unicode="*" horiz-adv-x="429" 
d="M251 714v-125l120 41l26 -70l-121 -39l78 -111l-60 -43l-80 114l-79 -114l-61 43l78 111l-120 39l26 70l119 -41v125h74z" />
    <glyph glyph-name="plus" unicode="+" horiz-adv-x="546" 
d="M231 548h85v-193h192v-81h-192v-203h-85v203h-193v81h193v193z" />
    <glyph glyph-name="comma" unicode="," horiz-adv-x="292" 
d="M57 -134l42 261h120l-85 -261h-77z" />
    <glyph glyph-name="hyphen" unicode="-" horiz-adv-x="398" 
d="M71 254v93h255v-93h-255z" />
    <glyph glyph-name="period" unicode="." horiz-adv-x="292" 
d="M82 0v129h128v-129h-128z" />
    <glyph glyph-name="slash" unicode="/" horiz-adv-x="491" 
d="M28 0l332 714h103l-332 -714h-103z" />
    <glyph glyph-name="zero" unicode="0" horiz-adv-x="622" 
d="M311 726q129 0 196 -99.5t67 -273.5q0 -173 -66.5 -269t-196.5 -96q-131 0 -197 96t-66 269q0 175 66.5 274t196.5 99zM311 631q-146 0 -146 -278q0 -270 146 -270q147 0 147 270q0 130 -36 204t-111 74z" />
    <glyph glyph-name="one" unicode="1" horiz-adv-x="422" 
d="M310 714v-714h-117v602l-141 -90l-46 85l183 117h121z" />
    <glyph glyph-name="two" unicode="2" horiz-adv-x="544" 
d="M499 95v-95h-465v98q205 184 272.5 267.5t67.5 153.5q0 51 -36 81.5t-91 30.5q-77 0 -163 -60l-41 83q90 72 210 72q107 0 172.5 -53.5t65.5 -150.5q0 -66 -31 -125t-91.5 -123t-189.5 -179h320z" />
    <glyph glyph-name="three" unicode="3" horiz-adv-x="546" 
d="M120 318v96h71q77 0 124.5 27t47.5 87q0 50 -34.5 76.5t-92.5 26.5q-85 0 -162 -41l-32 92q89 44 205 44q100 0 166.5 -47.5t66.5 -137.5q0 -62 -34 -106.5t-99 -62.5v-2q72 -12 111.5 -58t39.5 -109q0 -104 -73.5 -159.5t-186.5 -55.5q-120 0 -214 47l31 91
q88 -43 179 -43q67 0 107 30.5t40 90.5q0 114 -191 114h-70z" />
    <glyph glyph-name="four" unicode="4" horiz-adv-x="591" 
d="M471 714v-459h87v-95h-87v-160h-117v160h-336v115l284 439h169zM354 255v358h-2l-225 -358h227z" />
    <glyph glyph-name="five" unicode="5" horiz-adv-x="555" 
d="M391 220q0 70 -53 101.5t-131 31.5q-63 0 -137 -12l19 373h382v-95h-280l-11 -177q40 4 69 4q111 0 185 -57t74 -163q0 -114 -75.5 -176t-189.5 -62q-118 0 -208 41l31 91q82 -37 169 -37q69 0 112.5 33.5t43.5 103.5z" />
    <glyph glyph-name="six" unicode="6" horiz-adv-x="592" 
d="M353 631q-90 0 -136 -64.5t-54 -167.5h2q27 34 70.5 53.5t90.5 19.5q107 0 168.5 -66t61.5 -171q0 -108 -69 -177.5t-180 -69.5q-61 0 -107.5 20.5t-75 53.5t-46.5 78t-24.5 89t-6.5 92q0 181 76 293t224 112q80 0 141 -24l-22 -93q-49 22 -113 22zM166 250
q0 -67 36 -117t105 -50q61 0 98 42t37 110q0 63 -34 104t-96 41q-64 0 -105 -39t-41 -91z" />
    <glyph glyph-name="seven" unicode="7" horiz-adv-x="509" 
d="M33 619v95h453v-95q-100 -146 -157.5 -309t-70.5 -310h-118q13 145 73 315.5t148 303.5h-328z" />
    <glyph glyph-name="eight" unicode="8" horiz-adv-x="596" 
d="M298 322q-55 0 -99 -31.5t-44 -90.5q0 -58 39.5 -88.5t103.5 -30.5t103.5 31t39.5 88q0 59 -44 90.5t-99 31.5zM297 726q99 0 169 -50.5t70 -140.5q0 -122 -113 -160v-2q135 -50 135 -183q0 -96 -73.5 -149t-186.5 -53t-186.5 53t-73.5 149q0 71 38 115t96 63v2
q-112 46 -112 165q0 90 68.5 140.5t168.5 50.5zM297 413q53 0 89 29.5t36 85.5q0 50 -33.5 78t-91.5 28q-56 0 -89.5 -28t-33.5 -78q0 -56 35 -85.5t88 -29.5z" />
    <glyph glyph-name="nine" unicode="9" horiz-adv-x="592" 
d="M238 83q91 0 137 65t53 166h-2q-26 -35 -69.5 -54t-91.5 -19q-107 0 -168 66t-61 171q0 108 69 178t180 70q61 0 107.5 -20.5t75 -53.5t46.5 -78t24.5 -89t6.5 -93q0 -181 -76 -292.5t-225 -111.5q-86 0 -152 23l20 93q61 -21 126 -21zM425 463q0 67 -36 117.5t-104 50.5
q-62 0 -98.5 -42t-36.5 -111q0 -62 33.5 -103.5t96.5 -41.5t104 39t41 91z" />
    <glyph glyph-name="colon" unicode=":" horiz-adv-x="348" 
d="M110 0v129h128v-129h-128zM110 399v129h128v-129h-128z" />
    <glyph glyph-name="semicolon" unicode=";" horiz-adv-x="348" 
d="M110 399v129h128v-129h-128zM76 -134l42 261h120l-86 -261h-76z" />
    <glyph glyph-name="less" unicode="&#x3c;" horiz-adv-x="546" 
d="M508 89l-470 161v116l470 162v-86l-387 -131v-2l387 -134v-86z" />
    <glyph glyph-name="equal" unicode="=" horiz-adv-x="546" 
d="M508 371h-470v81h470v-81zM508 177h-470v81h470v-81z" />
    <glyph glyph-name="greater" unicode="&#x3e;" horiz-adv-x="546" 
d="M508 250l-470 -161v86l386 132v2l-386 133v86l470 -162v-116z" />
    <glyph glyph-name="question" unicode="?" horiz-adv-x="481" 
d="M269 201h-107v30q0 56 18.5 92.5t62.5 72.5l33 27q34 27 50.5 52.5t16.5 61.5q0 94 -116 94q-67 0 -146 -42l-34 86q89 51 191 51q95 0 157.5 -44t62.5 -140q0 -61 -27.5 -106t-89.5 -92q-43 -32 -57.5 -55.5t-14.5 -65.5v-22zM283 0h-130v124h130v-124z" />
    <glyph glyph-name="at" unicode="@" horiz-adv-x="945" 
d="M489 435q-57 0 -91 -63.5t-34 -139.5q0 -46 18 -81t60 -35q43 0 73 36t41.5 80t11.5 87q0 116 -79 116zM733 -52l21 -81q-114 -52 -260 -52q-208 0 -327 123.5t-119 326.5q0 202 127.5 332.5t321.5 130.5q175 0 287.5 -98t112.5 -287q0 -145 -65.5 -229.5t-164.5 -84.5
q-49 0 -74.5 25t-26.5 63h-2q-16 -35 -54 -61.5t-84 -26.5q-81 0 -122.5 58t-41.5 149q0 114 62 198.5t163 84.5q40 0 69.5 -21t40.5 -51h2l11 50h89l-44 -232q-14 -63 -14 -97q0 -56 46 -56q50 0 83.5 66t33.5 155q0 149 -82.5 229.5t-225.5 80.5q-156 0 -252 -107.5
t-96 -272.5q0 -168 94 -264.5t259 -96.5q131 0 232 46z" />
    <glyph glyph-name="A" unicode="A" horiz-adv-x="692" 
d="M198 194l-71 -194h-125l265 714h159l264 -714h-126l-73 194h-293zM345 624l-118 -334h235z" />
    <glyph glyph-name="B" unicode="B" horiz-adv-x="639" 
d="M83 0v714h270q100 0 159.5 -45t59.5 -136q0 -123 -124 -161v-2q143 -35 143 -171q0 -86 -57.5 -142.5t-171.5 -56.5h-279zM200 619v-205h116q139 0 139 105q0 100 -131 100h-124zM200 318v-223h135q67 0 103 25t36 87q0 111 -159 111h-115z" />
    <glyph glyph-name="C" unicode="C" horiz-adv-x="614" 
d="M577 695l-27 -92q-58 28 -132 28q-120 0 -183.5 -78t-63.5 -199q0 -115 64.5 -193t181.5 -78q79 0 141 31l25 -91q-71 -35 -177 -35q-161 0 -256.5 102t-95.5 265q0 165 95 268t262 103q101 0 166 -31z" />
    <glyph glyph-name="D" unicode="D" horiz-adv-x="716" 
d="M83 0v714h223q170 0 262.5 -94.5t92.5 -260.5q0 -167 -93 -263t-262 -96h-223zM200 619v-524h89q127 0 191 69t64 194q0 123 -64 192t-191 69h-89z" />
    <glyph glyph-name="E" unicode="E" horiz-adv-x="550" 
d="M83 0v714h411v-95h-294v-205h271v-96h-271v-223h303v-95h-420z" />
    <glyph glyph-name="F" unicode="F" horiz-adv-x="521" 
d="M83 0v714h402v-95h-285v-205h265v-96h-265v-318h-117z" />
    <glyph glyph-name="G" unicode="G" horiz-adv-x="726" 
d="M631 685l-33 -97q-74 43 -166 43q-120 0 -190.5 -76.5t-70.5 -201.5q0 -115 69 -192.5t186 -77.5q66 0 107 22v199h-136v96h253v-360q-103 -52 -232 -52q-163 0 -263.5 102t-100.5 265q0 165 100.5 268t276.5 103q113 0 200 -41z" />
    <glyph glyph-name="H" unicode="H" horiz-adv-x="708" 
d="M83 0v714h117v-300h308v300h117v-714h-117v318h-308v-318h-117z" />
    <glyph glyph-name="I" unicode="I" horiz-adv-x="283" 
d="M83 0v714h117v-714h-117z" />
    <glyph glyph-name="J" unicode="J" horiz-adv-x="337" 
d="M265 714v-548q0 -89 -44 -133.5t-140 -44.5q-46 0 -79 6v95q28 -6 61 -6q45 0 65 21t20 70v540h117z" />
    <glyph glyph-name="K" unicode="K" horiz-adv-x="621" 
d="M462 714h141l-275 -343l291 -371h-147l-271 356h-1v-356h-117v714h117v-335h1z" />
    <glyph glyph-name="L" unicode="L" horiz-adv-x="513" 
d="M83 0v714h117v-619h300v-95h-417z" />
    <glyph glyph-name="M" unicode="M" horiz-adv-x="899" 
d="M279 714l167 -605h3l169 605h198v-714h-111v620h-2l-185 -620h-146l-179 620h-2v-620h-108v714h196z" />
    <glyph glyph-name="N" unicode="N" horiz-adv-x="719" 
d="M261 714l263 -596h2v596h110v-714h-173l-269 602h-2v-602h-109v714h178z" />
    <glyph glyph-name="O" unicode="O" horiz-adv-x="765" 
d="M709 356q0 -165 -86.5 -266.5t-239.5 -101.5t-240 102t-87 266q0 166 86 268t241 102q154 0 240 -102t86 -268zM592 356q0 120 -53.5 197.5t-155.5 77.5t-156 -77.5t-54 -197.5q0 -119 54 -196t156 -77t155.5 77t53.5 196z" />
    <glyph glyph-name="P" unicode="P" horiz-adv-x="619" 
d="M83 0v714h251q71 0 124 -18.5t88 -67.5t35 -126q0 -115 -68.5 -168.5t-177.5 -53.5h-135v-280h-117zM200 619v-243h123q141 0 141 122q0 69 -38.5 95t-110.5 26h-115z" />
    <glyph glyph-name="Q" unicode="Q" horiz-adv-x="765" 
d="M709 356q0 -111 -39.5 -194.5t-114.5 -128.5l117 -150h-138l-83 112q-39 -7 -68 -7q-153 0 -240 102t-87 266q0 166 86 268t241 102q154 0 240 -102t86 -268zM592 356q0 120 -53.5 197.5t-155.5 77.5t-156 -77.5t-54 -197.5q0 -119 54 -196t156 -77t155.5 77t53.5 196z
" />
    <glyph glyph-name="R" unicode="R" horiz-adv-x="638" 
d="M83 0v714h262q104 0 169.5 -46.5t65.5 -145.5q0 -62 -33 -105t-94 -61v-2q37 -10 57.5 -38t39.5 -93q58 -193 67 -223h-126q-37 144 -52 197q-19 65 -45.5 86t-102.5 21h-91v-304h-117zM200 619v-219h117q146 0 146 110q0 109 -141 109h-122z" />
    <glyph glyph-name="S" unicode="S" horiz-adv-x="555" 
d="M475 698l-23 -95q-74 28 -155 28q-54 0 -91.5 -22t-37.5 -71q0 -41 31 -67t111 -59q104 -42 152.5 -89.5t48.5 -130.5q0 -100 -73 -152t-179 -52q-115 0 -214 40l24 97q94 -42 188 -42q64 0 101 25.5t37 75.5q0 44 -36.5 72.5t-119.5 62.5q-94 38 -141 87t-47 122
q0 97 72.5 147.5t169.5 50.5q105 0 182 -28z" />
    <glyph glyph-name="T" unicode="T" horiz-adv-x="542" 
d="M215 0v619h-203v95h518v-95h-198v-619h-117z" />
    <glyph glyph-name="U" unicode="U" horiz-adv-x="692" 
d="M620 714v-503q0 -103 -75 -163t-199 -60q-123 0 -198.5 60.5t-75.5 162.5v503h117v-489q0 -71 41 -106.5t115 -35.5q73 0 115.5 37.5t42.5 104.5v489h117z" />
    <glyph glyph-name="V" unicode="V" horiz-adv-x="653" 
d="M252 0l-249 714h127l196 -604h2l196 604h126l-251 -714h-147z" />
    <glyph glyph-name="W" unicode="W" horiz-adv-x="967" 
d="M601 0l-116 614h-2l-118 -614h-165l-164 714h126l123 -609h2l110 609h175l110 -609h2l125 609h122l-165 -714h-165z" />
    <glyph glyph-name="X" unicode="X" horiz-adv-x="627" 
d="M608 714l-217 -343l234 -371h-138l-174 287l-175 -287h-136l237 371l-215 343h135l157 -262l161 262h131z" />
    <glyph glyph-name="Y" unicode="Y" horiz-adv-x="642" 
d="M263 0v281l-262 433h137l185 -323l186 323h132l-261 -433v-281h-117z" />
    <glyph glyph-name="Z" unicode="Z" horiz-adv-x="593" 
d="M42 95l364 524h-337v95h473v-95l-364 -524h374v-95h-510v95z" />
    <glyph glyph-name="bracketleft" unicode="[" horiz-adv-x="322" 
d="M255 797v-77h-97v-838h97v-77h-193v992h193z" />
    <glyph glyph-name="backslash" unicode="\" horiz-adv-x="491" 
d="M133 714l332 -714h-107l-332 714h107z" />
    <glyph glyph-name="bracketright" unicode="]" horiz-adv-x="322" 
d="M67 -195v77h97v838h-97v77h193v-992h-193z" />
    <glyph glyph-name="asciicircum" unicode="^" horiz-adv-x="546" 
d="M482 299h-101l-108 305h-2l-107 -305h-101l157 399h105z" />
    <glyph glyph-name="underscore" unicode="_" horiz-adv-x="477" 
d="M0 -86h477v-63h-477v63z" />
    <glyph glyph-name="grave" unicode="`" 
d="M223 604l-128 164h121l91 -164h-84z" />
    <glyph glyph-name="a" unicode="a" horiz-adv-x="569" 
d="M380 332v12q0 109 -123 109q-66 0 -135 -29l-23 85q78 31 166 31q229 0 229 -196v-224q0 -76 9 -120h-101q-8 26 -12 72h-2q-21 -38 -62.5 -61t-97.5 -23q-76 0 -129.5 40t-53.5 122q0 55 26 92.5t75 56t104 26t130 7.5zM380 256h-22q-203 0 -203 -101q0 -39 22.5 -61
t65.5 -22q67 0 102 41.5t35 101.5v41z" />
    <glyph glyph-name="b" unicode="b" horiz-adv-x="628" 
d="M187 65v-65h-111v735h114v-281h2q58 86 162 86q103 0 163 -78.5t60 -197.5q0 -120 -61 -198t-165 -78q-107 0 -162 77h-2zM463 264q0 83 -34.5 136t-99.5 53q-68 0 -106.5 -53t-38.5 -136t38.5 -136t106.5 -53q65 0 99.5 53.5t34.5 135.5z" />
    <glyph glyph-name="c" unicode="c" horiz-adv-x="484" 
d="M449 521l-22 -87q-42 19 -94 19q-79 0 -123.5 -54t-44.5 -136t44.5 -135t125.5 -53q54 0 95 19l19 -86q-53 -20 -121 -20q-132 0 -204.5 76.5t-72.5 198.5t74.5 199.5t201.5 77.5q71 0 122 -19z" />
    <glyph glyph-name="d" unicode="d" horiz-adv-x="628" 
d="M438 463v272h114v-735h-111v73h-2q-59 -85 -165 -85q-104 0 -163.5 78t-59.5 198t61 198t165 78t159 -77h2zM165 264q0 -83 34.5 -136t100.5 -53q67 0 105.5 53.5t38.5 136.5q0 82 -38.5 135t-105.5 53q-66 0 -100.5 -53t-34.5 -136z" />
    <glyph glyph-name="e" unicode="e" horiz-adv-x="580" 
d="M531 231h-369q5 -74 54 -115t127 -41q75 0 134 22l15 -85q-69 -24 -159 -24q-133 0 -208 76t-75 199q0 122 68.5 199.5t183.5 77.5q111 0 170 -69.5t59 -190.5v-49zM302 458q-59 0 -96 -39t-44 -104h263v2q1 65 -33 103t-90 38z" />
    <glyph glyph-name="f" unicode="f" horiz-adv-x="343" 
d="M376 726l-8 -86q-31 8 -70 8q-44 0 -61 -21t-17 -72v-27h117v-87h-117v-441h-114v441h-96v87h96v38q0 82 41 125.5t140 43.5q47 0 89 -9z" />
    <glyph glyph-name="g" unicode="g" horiz-adv-x="626" 
d="M164 276q0 -79 34.5 -128.5t100.5 -49.5t105 50.5t39 127.5t-39 127t-105 50t-100.5 -49.5t-34.5 -127.5zM440 40v50h-2q-54 -79 -159 -79t-167 75t-62 190t63 189.5t166 74.5t159 -76h2v64h111v-488q0 -120 -76.5 -177.5t-192.5 -57.5q-96 0 -166 24l17 86
q62 -23 140 -23q167 0 167 148z" />
    <glyph glyph-name="h" unicode="h" horiz-adv-x="615" 
d="M76 735h114v-281h2q22 41 64.5 63.5t95.5 22.5q89 0 140.5 -52t51.5 -140v-348h-114v305q0 74 -24.5 111t-86.5 37q-53 0 -91 -40t-38 -121v-292h-114v735z" />
    <glyph glyph-name="i" unicode="i" horiz-adv-x="267" 
d="M76 528h114v-528h-114v528zM75 730h117v-106h-117v106z" />
    <glyph glyph-name="j" unicode="j" horiz-adv-x="267" 
d="M190 528v-563q0 -160 -163 -160q-35 0 -63 4v87q24 -4 46 -4q38 0 52 20.5t14 65.5v550h114zM75 730h117v-106h-117v106z" />
    <glyph glyph-name="k" unicode="k" horiz-adv-x="544" 
d="M387 528h138l-213 -236l224 -292h-140l-204 277h-2v-277h-114v735h114v-435h2z" />
    <glyph glyph-name="l" unicode="l" horiz-adv-x="266" 
d="M76 735h114v-735h-114v735z" />
    <glyph glyph-name="m" unicode="m" horiz-adv-x="929" 
d="M76 528h111v-76h2q19 41 61 64.5t94 23.5q118 0 156 -86h3q49 86 165 86q94 0 142 -51.5t48 -140.5v-348h-114v305q0 74 -21.5 111t-81.5 37q-48 0 -81.5 -32.5t-33.5 -98.5v-322h-114v311q0 73 -21 107.5t-81 34.5q-51 0 -85.5 -39t-34.5 -116v-298h-114v528z" />
    <glyph glyph-name="n" unicode="n" horiz-adv-x="615" 
d="M76 528h111v-74h2q21 41 65 63.5t98 22.5q89 0 140.5 -52t51.5 -140v-348h-114v305q0 74 -24.5 111t-86.5 37q-53 0 -91 -40t-38 -121v-292h-114v528z" />
    <glyph glyph-name="o" unicode="o" horiz-adv-x="616" 
d="M565 265q0 -128 -69.5 -202.5t-187.5 -74.5t-187.5 74.5t-69.5 202.5t69.5 201.5t187.5 73.5q119 0 188 -73.5t69 -201.5zM451 265q0 86 -36 137t-107 51t-107 -51t-36 -137q0 -87 36.5 -138.5t106.5 -51.5q71 0 107 51t36 139z" />
    <glyph glyph-name="p" unicode="p" horiz-adv-x="628" 
d="M190 65v-260h-114v723h111v-74h2q57 86 165 86q103 0 163 -78.5t60 -197.5q0 -120 -61 -198t-165 -78t-159 77h-2zM463 264q0 83 -34.5 136t-99.5 53q-68 0 -106.5 -53t-38.5 -136t38.5 -136t106.5 -53q65 0 99.5 53t34.5 136z" />
    <glyph glyph-name="q" unicode="q" horiz-adv-x="628" 
d="M441 463v65h111v-723h-114v268h-2q-59 -85 -162 -85q-104 0 -163.5 77.5t-59.5 197.5t61 198.5t165 78.5q108 0 162 -77h2zM165 264q0 -83 34.5 -136t100.5 -53q67 0 105.5 53.5t38.5 136.5q0 82 -38.5 135t-105.5 53q-66 0 -100.5 -53t-34.5 -136z" />
    <glyph glyph-name="r" unicode="r" horiz-adv-x="375" 
d="M365 538l-5 -89q-17 4 -43 4q-58 0 -92.5 -40.5t-34.5 -130.5v-282h-114v528h111v-70h2q38 82 138 82q12 0 38 -2z" />
    <glyph glyph-name="s" unicode="s" horiz-adv-x="481" 
d="M409 510l-26 -85q-64 28 -137 28q-36 0 -61 -14.5t-25 -44.5q0 -27 22 -44t84 -38q86 -29 128 -67t42 -102q0 -80 -60 -117.5t-146 -37.5q-103 0 -188 37l25 88q87 -38 164 -38q97 0 97 62q0 29 -27 47.5t-93 40.5q-80 27 -118 65t-38 93q0 77 57.5 117t137.5 40
q93 0 162 -30z" />
    <glyph glyph-name="t" unicode="t" horiz-adv-x="361" 
d="M14 441v87h88v137h114v-137h116v-87h-116v-276q0 -54 11 -69t52 -15q20 0 52 4v-85q-46 -6 -86 -6q-86 0 -114.5 35t-28.5 115v297h-88z" />
    <glyph glyph-name="u" unicode="u" horiz-adv-x="615" 
d="M539 0h-111v74h-2q-21 -41 -65 -63.5t-97 -22.5q-89 0 -141 52.5t-52 139.5v348h114v-305q0 -73 25 -110.5t87 -37.5q53 0 90.5 40t37.5 121v292h114v-528z" />
    <glyph glyph-name="v" unicode="v" horiz-adv-x="537" 
d="M129 528l140 -427h2l140 427h121l-198 -528h-133l-196 528h124z" />
    <glyph glyph-name="w" unicode="w" horiz-adv-x="833" 
d="M491 528l100 -427h2l99 427h118l-146 -528h-146l-100 432h-2l-102 -432h-146l-145 528h119l101 -427h2l97 427h149z" />
    <glyph glyph-name="x" unicode="x" horiz-adv-x="528" 
d="M508 528l-167 -254l178 -274h-130l-123 202l-128 -202h-129l181 273l-166 255h128l115 -187l116 187h125z" />
    <glyph glyph-name="y" unicode="y" horiz-adv-x="539" 
d="M129 528l142 -389h2l141 389h120l-287 -723h-120l85 206l-207 517h124z" />
    <glyph glyph-name="z" unicode="z" horiz-adv-x="501" 
d="M41 83l277 358h-256v87h389v-85l-275 -356h286v-87h-421v83z" />
    <glyph glyph-name="braceleft" unicode="{" horiz-adv-x="322" 
d="M8 255v93q46 4 60 32t14 95v168q0 77 40 115.5t107 38.5h46v-80h-26q-35 0 -51.5 -22t-16.5 -74v-155q0 -75 -20.5 -111.5t-73.5 -52.5v-2q53 -17 73.5 -53t20.5 -110v-155q0 -53 16 -75t52 -22h26v-80h-46q-67 0 -107 39t-40 117v166q0 67 -14 95t-60 33z" />
    <glyph glyph-name="bar" unicode="|" horiz-adv-x="465" 
d="M190 735h85v-930h-85v930z" />
    <glyph glyph-name="braceright" unicode="}" horiz-adv-x="322" 
d="M314 347v-92q-46 -5 -60 -33t-14 -95v-166q0 -78 -40 -117t-107 -39h-46v80h26q36 0 52 22t16 75v155q0 74 20.5 110t73.5 53v2q-53 16 -73.5 52.5t-20.5 111.5v155q0 52 -16.5 74t-51.5 22h-26v80h46q67 0 107 -38.5t40 -115.5v-168q0 -67 14.5 -95.5t59.5 -32.5z" />
    <glyph glyph-name="asciitilde" unicode="~" horiz-adv-x="546" 
d="M392 326q72 3 114 50v-90q-50 -45 -127 -45q-49 0 -114 32t-104 32q-75 0 -120 -50v90q47 45 128 45q49 0 115 -32t108 -32z" />
    <glyph glyph-name="uni00A0" unicode="&#xa0;" horiz-adv-x="260" 
 />
    <glyph glyph-name="exclamdown" unicode="&#xa1;" horiz-adv-x="311" 
d="M89 -186l18 490h97l18 -490h-133zM219 528v-123h-125v123h125z" />
    <glyph glyph-name="cent" unicode="&#xa2;" horiz-adv-x="486" 
d="M447 522l-21 -88q-39 15 -79 18v-376q46 3 83 20l18 -88q-53 -16 -101 -19v-56h-71v59q-106 16 -164 88t-58 183q0 104 57 180.5t165 92.5v64h71v-61q51 -2 100 -17zM168 263q0 -69 27.5 -117t80.5 -64v363q-56 -17 -82 -68.5t-26 -113.5z" />
    <glyph glyph-name="sterling" unicode="&#xa3;" horiz-adv-x="594" 
d="M518 699l-31 -94q-43 23 -97 23q-61 0 -90 -35.5t-29 -94.5v-86h161v-80h-161v-237h270v-95h-487v95h101v237h-94v80h94v91q0 102 60.5 161.5t172.5 59.5q77 0 130 -25z" />
    <glyph glyph-name="currency" unicode="&#xa4;" horiz-adv-x="547" 
d="M275 140q-51 0 -91 23l-76 -75l-72 71l76 76q-23 40 -23 90q0 44 22 88l-75 77l73 73l76 -77q41 22 90 22q47 0 89 -22l75 77l72 -73l-76 -75q24 -43 24 -90q0 -50 -23 -90l75 -75l-73 -72q-38 36 -74 74q-40 -22 -89 -22zM275 231q39 0 64.5 26.5t25.5 67.5q0 39 -26 66
t-64 27q-39 0 -65.5 -27t-26.5 -66q0 -41 26 -67.5t66 -26.5z" />
    <glyph glyph-name="yen" unicode="&#xa5;" horiz-adv-x="622" 
d="M86 221h168v73h-168v74h135l-200 346h124l169 -317l168 317h119l-200 -346h134v-74h-168v-73h168v-74h-168v-147h-113v147h-168v74z" />
    <glyph glyph-name="brokenbar" unicode="&#xa6;" horiz-adv-x="465" 
d="M190 735h85v-368h-85v368zM190 173h85v-368h-85v368z" />
    <glyph glyph-name="section" unicode="&#xa7;" horiz-adv-x="538" 
d="M70 -115l32 88q78 -40 157 -40q107 0 107 77q0 33 -28 55.5t-114 60.5q-93 40 -130.5 75t-37.5 98q0 94 99 134q-76 43 -76 125q0 47 18.5 81t50.5 52t68.5 26.5t79.5 8.5q85 0 151 -27l-29 -90q-56 27 -123 27q-106 0 -106 -73q0 -34 28.5 -56t106.5 -56
q87 -37 125.5 -75.5t38.5 -98.5q0 -90 -86 -131q76 -46 76 -129q0 -92 -62.5 -133.5t-157.5 -41.5q-104 0 -188 43zM293 359l-63 27q-30 -6 -50.5 -25t-20.5 -50q0 -33 21.5 -52t80.5 -45l64 -28q62 19 62 76q0 34 -23.5 55.5t-70.5 41.5z" />
    <glyph glyph-name="dieresis" unicode="&#xa8;" 
d="M188 732v-107h-105v107h105zM380 732v-107h-106v107h106z" />
    <glyph glyph-name="copyright" unicode="&#xa9;" horiz-adv-x="798" 
d="M93 355q0 -131 86.5 -221t221.5 -90q133 0 219 90.5t86 220.5q0 132 -86 224t-219 92q-135 0 -221.5 -92t-86.5 -224zM34 355q0 156 104 262t263 106q158 0 260.5 -106t102.5 -262q0 -154 -102.5 -259t-260.5 -105q-159 0 -263 105.5t-104 258.5zM521 567l-16 -70
q-38 16 -79 16q-68 0 -100.5 -44.5t-32.5 -112.5q0 -65 33.5 -108t99.5 -43q46 0 83 17l14 -69q-42 -19 -107 -19q-98 0 -154.5 61.5t-56.5 160.5q0 101 55.5 164t156.5 63q68 0 104 -16z" />
    <glyph glyph-name="ordfeminine" unicode="&#xaa;" horiz-adv-x="349" 
d="M224 572v8q0 55 -67 55q-43 0 -85 -19l-15 61q47 21 107 21q143 0 143 -121v-133q0 -49 4 -73h-74q-5 23 -5 38h-2q-27 -45 -96 -45q-46 0 -78 23.5t-32 73.5q0 45 29 70.5t69.5 33t101.5 7.5zM223 519h-9q-108 0 -108 -54q0 -42 47 -42q35 0 52.5 23.5t17.5 55.5v17z
" />
    <glyph glyph-name="guillemotleft" unicode="&#xab;" horiz-adv-x="547" 
d="M285 496l-120 -198l120 -199h-101l-119 196v5l122 196h98zM482 496l-120 -198l120 -199h-100l-119 196v5l122 196h97z" />
    <glyph glyph-name="logicalnot" unicode="&#xac;" horiz-adv-x="546" 
d="M504 158h-82v212h-388v78h470v-290z" />
    <glyph glyph-name="uni00AD" unicode="&#xad;" horiz-adv-x="398" 
d="M71 254v93h255v-93h-255z" />
    <glyph glyph-name="registered" unicode="&#xae;" horiz-adv-x="500" 
d="M38 525q0 89 60 149.5t153 60.5t152 -60.5t59 -149.5q0 -90 -59 -150t-152 -60t-153 60t-60 150zM72 525q0 -76 49.5 -127.5t129.5 -51.5q79 0 128.5 51.5t49.5 127.5q0 75 -49.5 126.5t-128.5 51.5q-80 0 -129.5 -51.5t-49.5 -126.5zM162 404v243h104q82 0 82 -65
q0 -46 -46 -59v-1q25 -7 36 -44q5 -18 24 -74h-55q-6 18 -17 62q-6 21 -16 28t-36 7h-24v-97h-52zM214 610v-71h35q49 0 49 36q0 35 -46 35h-38z" />
    <glyph glyph-name="macron" unicode="&#xaf;" 
d="M368 716v-78h-271v78h271z" />
    <glyph glyph-name="degree" unicode="&#xb0;" horiz-adv-x="370" 
d="M187 726q60 0 102 -43.5t42 -103.5q0 -62 -42.5 -104.5t-103.5 -42.5q-62 0 -104.5 43t-42.5 105q0 61 43 103.5t106 42.5zM184 659q-32 0 -55 -24t-23 -56q0 -34 23 -57t55 -23q34 0 56.5 23t22.5 57t-23 57t-56 23z" />
    <glyph glyph-name="plusminus" unicode="&#xb1;" horiz-adv-x="546" 
d="M508 73h-470v81h470v-81zM231 209v145h-193v81h193v145h85v-145h192v-81h-192v-145h-85z" />
    <glyph glyph-name="twosuperior" unicode="&#xb2;" horiz-adv-x="383" 
d="M334 498v-70h-286v74q114 98 153 145t39 86q0 28 -17.5 44t-46.5 16q-47 0 -98 -32l-28 62q58 41 133 41q67 0 105.5 -33.5t37.5 -94.5q0 -56 -36.5 -102.5t-139.5 -134.5l3 -1h181z" />
    <glyph glyph-name="threesuperior" unicode="&#xb3;" horiz-adv-x="383" 
d="M103 613v68h53q86 0 86 59q0 26 -19 40t-49 14q-47 0 -96 -24l-21 68q55 26 127 26q63 0 104 -28t41 -85q0 -74 -75 -97v-2q41 -10 63 -38t22 -63q0 -65 -45.5 -97.5t-116.5 -32.5q-73 0 -134 28l24 68q51 -25 106 -25q36 0 57.5 15.5t21.5 45.5q0 60 -97 60h-52z" />
    <glyph glyph-name="acute" unicode="&#xb4;" 
d="M362 768l-127 -164h-84l91 164h120z" />
    <glyph glyph-name="mu" unicode="&#xb5;" horiz-adv-x="644" 
d="M435 78h-2q-20 -44 -59.5 -67t-91.5 -23q-66 0 -90 27h-2v-210h-114v723h114v-305q0 -74 25 -111t86 -37q54 0 91.5 40t37.5 121v292h114v-380q0 -41 9.5 -54t32.5 -13q16 0 23 3v-85q-28 -5 -55 -5q-103 0 -119 84z" />
    <glyph glyph-name="paragraph" unicode="&#xb6;" horiz-adv-x="556" 
d="M508 714v-831h-79v764h-98v-764h-79v441q-91 0 -149.5 53.5t-58.5 132.5q0 96 60.5 150t166.5 54h237z" />
    <glyph glyph-name="periodcentered" unicode="&#xb7;" horiz-adv-x="292" 
d="M82 237v130h128v-130h-128z" />
    <glyph glyph-name="cedilla" unicode="&#xb8;" 
d="M226 9l-14 -60q8 1 24 1q36 0 60.5 -20t24.5 -56q0 -45 -34.5 -67.5t-88.5 -22.5q-38 0 -67 6l6 53q18 -3 52 -3q57 0 57 30q0 29 -52 29q-26 0 -49 -3l15 113h66z" />
    <glyph glyph-name="onesuperior" unicode="&#xb9;" horiz-adv-x="383" 
d="M255 856v-428h-89v346l-81 -48l-30 65l113 65h87z" />
    <glyph glyph-name="ordmasculine" unicode="&#xba;" horiz-adv-x="380" 
d="M352 531q0 -77 -44 -122t-118 -45t-118 45t-44 122q0 78 43.5 122.5t118.5 44.5t118.5 -44.5t43.5 -122.5zM266 531q0 104 -76 104q-38 0 -57.5 -28t-19.5 -76t20 -76t57 -28q76 0 76 104z" />
    <glyph glyph-name="guillemotright" unicode="&#xbb;" horiz-adv-x="547" 
d="M263 99l120 199l-120 198h100l119 -196v-5l-123 -196h-96zM65 99l120 199l-120 198h101l119 -196v-5l-123 -196h-97z" />
    <glyph glyph-name="onequarter" unicode="&#xbc;" horiz-adv-x="883" 
d="M701 714l-409 -714h-82l409 714h82zM255 716v-428h-89v346l-81 -48l-30 65l113 65h87zM808 428v-269h51v-70h-51v-89h-85v89h-194v83l165 256h114zM723 159v190h-2l-117 -190h119z" />
    <glyph glyph-name="onehalf" unicode="&#xbd;" horiz-adv-x="883" 
d="M694 714l-409 -714h-82l409 714h82zM255 716v-428h-89v346l-81 -48l-30 65l113 65h87zM836 70v-70h-286v74q114 98 153 145t39 86q0 28 -17.5 44t-46.5 16q-47 0 -98 -32l-28 62q58 41 133 41q67 0 105.5 -33.5t37.5 -94.5q0 -56 -36.5 -102.5t-139.5 -134.5l3 -1h181z
" />
    <glyph glyph-name="threequarters" unicode="&#xbe;" horiz-adv-x="883" 
d="M701 714l-409 -714h-82l409 714h82zM103 473v68h53q86 0 86 59q0 26 -19 40t-49 14q-47 0 -96 -24l-21 68q55 26 127 26q63 0 104 -28t41 -85q0 -74 -75 -97v-2q41 -10 63 -38t22 -63q0 -65 -45.5 -97.5t-116.5 -32.5q-73 0 -134 28l24 68q51 -25 106 -25q36 0 57.5 15.5
t21.5 45.5q0 60 -97 60h-52zM808 428v-269h51v-70h-51v-89h-85v89h-194v83l165 256h114zM723 159v190h-2l-117 -190h119z" />
    <glyph glyph-name="questiondown" unicode="&#xbf;" horiz-adv-x="481" 
d="M212 327h107v-30q0 -56 -18.5 -92.5t-62.5 -72.5l-33 -27q-34 -27 -50.5 -52.5t-16.5 -61.5q0 -94 116 -94q66 0 146 42l34 -86q-89 -51 -191 -51q-95 0 -157.5 44t-62.5 140q0 61 27.5 106t89.5 92q43 32 57.5 55.5t14.5 65.5v22zM198 528h130v-124h-130v124z" />
    <glyph glyph-name="Agrave" unicode="&#xc0;" horiz-adv-x="692" 
d="M198 194l-71 -194h-125l265 714h159l264 -714h-126l-73 194h-293zM345 624l-118 -334h235zM205 903h127l85 -140h-89z" />
    <glyph glyph-name="Aacute" unicode="&#xc1;" horiz-adv-x="692" 
d="M198 194l-71 -194h-125l265 714h159l264 -714h-126l-73 194h-293zM345 624l-118 -334h235zM503 903l-125 -140h-89l87 140h127z" />
    <glyph glyph-name="Acircumflex" unicode="&#xc2;" horiz-adv-x="692" 
d="M198 194l-71 -194h-125l265 714h159l264 -714h-126l-73 194h-293zM345 624l-118 -334h235zM521 758h-93l-82 93l-82 -93h-94l117 149h117z" />
    <glyph glyph-name="Atilde" unicode="&#xc3;" horiz-adv-x="692" 
d="M198 194l-71 -194h-125l265 714h159l264 -714h-126l-73 194h-293zM345 624l-118 -334h235zM359 868q36 -26 55 -26q33 0 36 60h71q-3 -63 -27.5 -101t-71.5 -38q-36 0 -84 32q-41 28 -60 28q-34 0 -37 -59h-71q4 64 30 101t71 37q40 0 88 -34z" />
    <glyph glyph-name="Adieresis" unicode="&#xc4;" horiz-adv-x="692" 
d="M198 194l-71 -194h-125l265 714h159l264 -714h-126l-73 194h-293zM345 624l-118 -334h235zM302 895v-109h-105v109h105zM494 895v-109h-106v109h106z" />
    <glyph glyph-name="Aring" unicode="&#xc5;" horiz-adv-x="692" 
d="M198 194l-71 -194h-125l265 714h159l264 -714h-126l-73 194h-293zM345 624l-118 -334h235zM346 949q44 0 73.5 -30.5t29.5 -74.5t-29.5 -73.5t-74.5 -29.5q-44 0 -74 29.5t-30 73.5t30.5 74.5t74.5 30.5zM345 902q-24 0 -40 -17t-16 -41q0 -25 16 -41t40 -16t40.5 16
t16.5 41q0 24 -17 41t-40 17z" />
    <glyph glyph-name="AE" unicode="&#xc6;" horiz-adv-x="896" 
d="M218 181l-88 -181h-128l350 714h488v-95h-294v-205h271v-96h-271v-223h303v-95h-417v181h-214zM430 624l-168 -348h170v348h-2z" />
    <glyph glyph-name="Ccedilla" unicode="&#xc7;" horiz-adv-x="614" 
d="M577 695l-27 -92q-58 28 -132 28q-120 0 -183.5 -78t-63.5 -199q0 -115 64.5 -193t181.5 -78q79 0 141 31l25 -91q-73 -33 -171 -35h-7l-8 -39q7 1 23 1q36 0 61 -20t25 -56q0 -45 -34.5 -67.5t-88.5 -22.5q-39 0 -67 6l6 53q18 -3 52 -3q57 0 57 30q0 29 -52 29
q-27 0 -49 -3l13 97q-134 19 -211.5 117.5t-77.5 244.5q0 165 95 268t262 103q101 0 166 -31z" />
    <glyph glyph-name="Egrave" unicode="&#xc8;" horiz-adv-x="550" 
d="M83 0v714h411v-95h-294v-205h271v-96h-271v-223h303v-95h-420zM140 903h127l85 -140h-89z" />
    <glyph glyph-name="Eacute" unicode="&#xc9;" horiz-adv-x="550" 
d="M83 0v714h411v-95h-294v-205h271v-96h-271v-223h303v-95h-420zM453 903l-125 -140h-89l87 140h127z" />
    <glyph glyph-name="Ecircumflex" unicode="&#xca;" horiz-adv-x="550" 
d="M83 0v714h411v-95h-294v-205h271v-96h-271v-223h303v-95h-420zM468 758h-93l-82 93l-82 -93h-94l117 149h117z" />
    <glyph glyph-name="Edieresis" unicode="&#xcb;" horiz-adv-x="550" 
d="M83 0v714h411v-95h-294v-205h271v-96h-271v-223h303v-95h-420zM248 895v-109h-105v109h105zM440 895v-109h-106v109h106z" />
    <glyph glyph-name="Igrave" unicode="&#xcc;" horiz-adv-x="283" 
d="M83 0v714h117v-714h-117zM-16 903h127l85 -140h-89z" />
    <glyph glyph-name="Iacute" unicode="&#xcd;" horiz-adv-x="283" 
d="M83 0v714h117v-714h-117zM304 903l-125 -140h-89l87 140h127z" />
    <glyph glyph-name="Icircumflex" unicode="&#xce;" horiz-adv-x="283" 
d="M83 0v714h117v-714h-117zM317 758h-93l-82 93l-82 -93h-94l117 149h117z" />
    <glyph glyph-name="Idieresis" unicode="&#xcf;" horiz-adv-x="283" 
d="M83 0v714h117v-714h-117zM98 895v-109h-105v109h105zM290 895v-109h-106v109h106z" />
    <glyph glyph-name="Eth" unicode="&#xd0;" horiz-adv-x="716" 
d="M83 0v333h-67v68h67v313h223q170 0 262.5 -94.5t92.5 -260.5q0 -167 -93 -263t-262 -96h-223zM200 95h89q127 0 191 69t64 194q0 123 -64 192t-191 69h-89v-218h125v-68h-125v-238z" />
    <glyph glyph-name="Ntilde" unicode="&#xd1;" horiz-adv-x="719" 
d="M261 714l263 -596h2v596h110v-714h-173l-269 602h-2v-602h-109v714h178zM381 868q36 -26 55 -26q33 0 36 60h71q-3 -63 -27.5 -101t-71.5 -38q-36 0 -84 32q-41 28 -60 28q-34 0 -37 -59h-71q4 64 30 101t71 37q40 0 88 -34z" />
    <glyph glyph-name="Ograve" unicode="&#xd2;" horiz-adv-x="765" 
d="M709 356q0 -165 -86.5 -266.5t-239.5 -101.5t-240 102t-87 266q0 166 86 268t241 102q154 0 240 -102t86 -268zM592 356q0 120 -53.5 197.5t-155.5 77.5t-156 -77.5t-54 -197.5q0 -119 54 -196t156 -77t155.5 77t53.5 196zM225 903h127l85 -140h-89z" />
    <glyph glyph-name="Oacute" unicode="&#xd3;" horiz-adv-x="765" 
d="M709 356q0 -165 -86.5 -266.5t-239.5 -101.5t-240 102t-87 266q0 166 86 268t241 102q154 0 240 -102t86 -268zM592 356q0 120 -53.5 197.5t-155.5 77.5t-156 -77.5t-54 -197.5q0 -119 54 -196t156 -77t155.5 77t53.5 196zM537 903l-125 -140h-89l87 140h127z" />
    <glyph glyph-name="Ocircumflex" unicode="&#xd4;" horiz-adv-x="765" 
d="M709 356q0 -165 -86.5 -266.5t-239.5 -101.5t-240 102t-87 266q0 166 86 268t241 102q154 0 240 -102t86 -268zM592 356q0 120 -53.5 197.5t-155.5 77.5t-156 -77.5t-54 -197.5q0 -119 54 -196t156 -77t155.5 77t53.5 196zM558 758h-93l-82 93l-82 -93h-94l117 149h117z
" />
    <glyph glyph-name="Otilde" unicode="&#xd5;" horiz-adv-x="765" 
d="M709 356q0 -165 -86.5 -266.5t-239.5 -101.5t-240 102t-87 266q0 166 86 268t241 102q154 0 240 -102t86 -268zM592 356q0 120 -53.5 197.5t-155.5 77.5t-156 -77.5t-54 -197.5q0 -119 54 -196t156 -77t155.5 77t53.5 196zM396 868q36 -26 55 -26q33 0 36 60h71
q-3 -63 -27.5 -101t-71.5 -38q-36 0 -84 32q-41 28 -60 28q-34 0 -37 -59h-71q4 64 30 101t71 37q40 0 88 -34z" />
    <glyph glyph-name="Odieresis" unicode="&#xd6;" horiz-adv-x="765" 
d="M709 356q0 -165 -86.5 -266.5t-239.5 -101.5t-240 102t-87 266q0 166 86 268t241 102q154 0 240 -102t86 -268zM592 356q0 120 -53.5 197.5t-155.5 77.5t-156 -77.5t-54 -197.5q0 -119 54 -196t156 -77t155.5 77t53.5 196zM339 895v-109h-105v109h105zM531 895v-109h-106
v109h106z" />
    <glyph glyph-name="multiply" unicode="&#xd7;" horiz-adv-x="546" 
d="M510 485l-176 -175l176 -176l-61 -61l-176 175l-175 -175l-62 61l176 176l-176 175l62 61l175 -175l176 175z" />
    <glyph glyph-name="Oslash" unicode="&#xd8;" horiz-adv-x="765" 
d="M709 356q0 -165 -86.5 -266.5t-239.5 -101.5q-117 0 -197 60l-61 -79l-54 42l66 85q-81 99 -81 260q0 166 86 268t241 102q112 0 193 -59l59 76l56 -43l-64 -82q82 -100 82 -262zM592 356q0 99 -37 169l-304 -393q52 -49 132 -49q102 0 155.5 77t53.5 196zM173 356
q0 -100 35 -167l304 394q-53 48 -129 48q-102 0 -156 -77.5t-54 -197.5z" />
    <glyph glyph-name="Ugrave" unicode="&#xd9;" horiz-adv-x="692" 
d="M620 714v-503q0 -103 -75 -163t-199 -60q-123 0 -198.5 60.5t-75.5 162.5v503h117v-489q0 -71 41 -106.5t115 -35.5q73 0 115.5 37.5t42.5 104.5v489h117zM189 903h127l85 -140h-89z" />
    <glyph glyph-name="Uacute" unicode="&#xda;" horiz-adv-x="692" 
d="M620 714v-503q0 -103 -75 -163t-199 -60q-123 0 -198.5 60.5t-75.5 162.5v503h117v-489q0 -71 41 -106.5t115 -35.5q73 0 115.5 37.5t42.5 104.5v489h117zM498 903l-125 -140h-89l87 140h127z" />
    <glyph glyph-name="Ucircumflex" unicode="&#xdb;" horiz-adv-x="692" 
d="M620 714v-503q0 -103 -75 -163t-199 -60q-123 0 -198.5 60.5t-75.5 162.5v503h117v-489q0 -71 41 -106.5t115 -35.5q73 0 115.5 37.5t42.5 104.5v489h117zM522 758h-93l-82 93l-82 -93h-94l117 149h117z" />
    <glyph glyph-name="Udieresis" unicode="&#xdc;" horiz-adv-x="692" 
d="M620 714v-503q0 -103 -75 -163t-199 -60q-123 0 -198.5 60.5t-75.5 162.5v503h117v-489q0 -71 41 -106.5t115 -35.5q73 0 115.5 37.5t42.5 104.5v489h117zM303 895v-109h-105v109h105zM495 895v-109h-106v109h106z" />
    <glyph glyph-name="Yacute" unicode="&#xdd;" horiz-adv-x="642" 
d="M263 0v281l-262 433h137l185 -323l186 323h132l-261 -433v-281h-117zM486 903l-125 -140h-89l87 140h127z" />
    <glyph glyph-name="Thorn" unicode="&#xde;" horiz-adv-x="623" 
d="M83 0v714h117v-115h137q110 0 177 -50.5t67 -163.5q0 -115 -67 -168t-176 -53h-138v-164h-117zM200 504v-245h126q138 0 138 122q0 69 -37.5 96t-108.5 27h-118z" />
    <glyph glyph-name="germandbls" unicode="&#xdf;" horiz-adv-x="668" 
d="M342 735q103 0 169.5 -50t66.5 -146q0 -67 -39 -109t-105 -54v-2q73 -9 125 -52t52 -127q0 -71 -33.5 -119.5t-82.5 -68t-109 -19.5q-77 0 -125 19l15 85q45 -17 99 -17q56 0 89 30.5t33 88.5q0 125 -187 125v92q154 8 154 120q0 54 -35 83.5t-90 29.5q-149 0 -149 -170
v-474h-114v484q0 69 22 119.5t61 78.5t84 40.5t99 12.5z" />
    <glyph glyph-name="agrave" unicode="&#xe0;" horiz-adv-x="569" 
d="M380 332v12q0 109 -123 109q-66 0 -135 -29l-23 85q78 31 166 31q229 0 229 -196v-224q0 -76 9 -120h-101q-8 26 -12 72h-2q-21 -38 -62.5 -61t-97.5 -23q-76 0 -129.5 40t-53.5 122q0 55 26 92.5t75 56t104 26t130 7.5zM380 256h-22q-203 0 -203 -101q0 -39 22.5 -61
t65.5 -22q67 0 102 41.5t35 101.5v41zM274 604l-128 164h121l91 -164h-84z" />
    <glyph glyph-name="aacute" unicode="&#xe1;" horiz-adv-x="569" 
d="M380 332v12q0 109 -123 109q-66 0 -135 -29l-23 85q78 31 166 31q229 0 229 -196v-224q0 -76 9 -120h-101q-8 26 -12 72h-2q-21 -38 -62.5 -61t-97.5 -23q-76 0 -129.5 40t-53.5 122q0 55 26 92.5t75 56t104 26t130 7.5zM380 256h-22q-203 0 -203 -101q0 -39 22.5 -61
t65.5 -22q67 0 102 41.5t35 101.5v41zM444 768l-127 -164h-84l91 164h120z" />
    <glyph glyph-name="acircumflex" unicode="&#xe2;" horiz-adv-x="569" 
d="M380 332v12q0 109 -123 109q-66 0 -135 -29l-23 85q78 31 166 31q229 0 229 -196v-224q0 -76 9 -120h-101q-8 26 -12 72h-2q-21 -38 -62.5 -61t-97.5 -23q-76 0 -129.5 40t-53.5 122q0 55 26 92.5t75 56t104 26t130 7.5zM380 256h-22q-203 0 -203 -101q0 -39 22.5 -61
t65.5 -22q67 0 102 41.5t35 101.5v41zM454 604h-88l-80 109l-78 -109h-88l110 164h114z" />
    <glyph glyph-name="atilde" unicode="&#xe3;" horiz-adv-x="569" 
d="M380 332v12q0 109 -123 109q-66 0 -135 -29l-23 85q78 31 166 31q229 0 229 -196v-224q0 -76 9 -120h-101q-8 26 -12 72h-2q-21 -38 -62.5 -61t-97.5 -23q-76 0 -129.5 40t-53.5 122q0 55 26 92.5t75 56t104 26t130 7.5zM380 256h-22q-203 0 -203 -101q0 -39 22.5 -61
t65.5 -22q67 0 102 41.5t35 101.5v41zM300 716q37 -27 55 -27q33 0 36 60h71q-3 -63 -27.5 -100.5t-71.5 -37.5q-37 0 -84 31q-43 29 -60 29q-34 0 -37 -60h-71q4 64 30 101t71 37q39 0 88 -33z" />
    <glyph glyph-name="adieresis" unicode="&#xe4;" horiz-adv-x="569" 
d="M380 332v12q0 109 -123 109q-66 0 -135 -29l-23 85q78 31 166 31q229 0 229 -196v-224q0 -76 9 -120h-101q-8 26 -12 72h-2q-21 -38 -62.5 -61t-97.5 -23q-76 0 -129.5 40t-53.5 122q0 55 26 92.5t75 56t104 26t130 7.5zM380 256h-22q-203 0 -203 -101q0 -39 22.5 -61
t65.5 -22q67 0 102 41.5t35 101.5v41zM244 732v-107h-105v107h105zM436 732v-107h-106v107h106z" />
    <glyph glyph-name="aring" unicode="&#xe5;" horiz-adv-x="569" 
d="M380 332v12q0 109 -123 109q-66 0 -135 -29l-23 85q78 31 166 31q229 0 229 -196v-224q0 -76 9 -120h-101q-8 26 -12 72h-2q-21 -38 -62.5 -61t-97.5 -23q-76 0 -129.5 40t-53.5 122q0 55 26 92.5t75 56t104 26t130 7.5zM380 256h-22q-203 0 -203 -101q0 -39 22.5 -61
t65.5 -22q67 0 102 41.5t35 101.5v41zM291 798q44 0 73.5 -30t29.5 -74q0 -45 -29.5 -74.5t-74.5 -29.5q-44 0 -74 29.5t-30 74.5q0 44 30.5 74t74.5 30zM290 751q-24 0 -40 -16.5t-16 -40.5q0 -25 16 -41.5t40 -16.5t40.5 16.5t16.5 41.5q0 24 -16.5 40.5t-40.5 16.5z" />
    <glyph glyph-name="ae" unicode="&#xe6;" horiz-adv-x="899" 
d="M660 75q81 0 138 22l15 -85q-71 -24 -161 -24q-156 0 -219 112h-1q-59 -112 -202 -112q-79 0 -132 38.5t-53 119.5q0 55 25.5 91.5t75.5 54t104 24t130 6.5v20q0 111 -122 111q-66 0 -136 -29l-23 85q78 31 166 31q143 0 189 -83h1q27 37 71.5 60t98.5 23
q105 0 165.5 -67t60.5 -186v-52h-364q7 -75 52.5 -117.5t120.5 -42.5zM380 226v20h-21q-45 0 -78 -3.5t-63.5 -13.5t-46.5 -29.5t-16 -49.5q0 -78 94 -78q67 0 99 46.5t32 107.5zM625 458q-57 0 -93.5 -37t-43.5 -102h257v4q0 61 -33 98t-87 37z" />
    <glyph glyph-name="ccedilla" unicode="&#xe7;" horiz-adv-x="484" 
d="M449 521l-22 -87q-42 19 -94 19q-79 0 -123.5 -54t-44.5 -136t44.5 -135t125.5 -53q54 0 95 19l19 -86q-53 -20 -121 -20h-17l-9 -39q8 1 24 1q36 0 60.5 -20t24.5 -56q0 -45 -34.5 -67.5t-88.5 -22.5q-38 0 -67 6l6 53q18 -3 52 -3q57 0 57 30q0 29 -52 29q-27 0 -49 -3
l13 101q-95 21 -146 92.5t-51 173.5q0 122 74.5 199.5t201.5 77.5q71 0 122 -19z" />
    <glyph glyph-name="egrave" unicode="&#xe8;" horiz-adv-x="579" 
d="M531 231h-369q5 -74 54 -115t127 -41q75 0 134 22l15 -85q-69 -24 -159 -24q-133 0 -208 76t-75 199q0 122 68.5 199.5t183.5 77.5q111 0 170 -69.5t59 -190.5v-49zM302 458q-59 0 -96 -39t-44 -104h263v2q1 65 -33 103t-90 38zM280 604l-128 164h121l91 -164h-84z" />
    <glyph glyph-name="eacute" unicode="&#xe9;" horiz-adv-x="579" 
d="M531 231h-369q5 -74 54 -115t127 -41q75 0 134 22l15 -85q-69 -24 -159 -24q-133 0 -208 76t-75 199q0 122 68.5 199.5t183.5 77.5q111 0 170 -69.5t59 -190.5v-49zM302 458q-59 0 -96 -39t-44 -104h263v2q1 65 -33 103t-90 38zM458 768l-127 -164h-84l91 164h120z" />
    <glyph glyph-name="ecircumflex" unicode="&#xea;" horiz-adv-x="579" 
d="M531 231h-369q5 -74 54 -115t127 -41q75 0 134 22l15 -85q-69 -24 -159 -24q-133 0 -208 76t-75 199q0 122 68.5 199.5t183.5 77.5q111 0 170 -69.5t59 -190.5v-49zM302 458q-59 0 -96 -39t-44 -104h263v2q1 65 -33 103t-90 38zM470 604h-88l-80 109l-78 -109h-88
l110 164h114z" />
    <glyph glyph-name="edieresis" unicode="&#xeb;" horiz-adv-x="579" 
d="M531 231h-369q5 -74 54 -115t127 -41q75 0 134 22l15 -85q-69 -24 -159 -24q-133 0 -208 76t-75 199q0 122 68.5 199.5t183.5 77.5q111 0 170 -69.5t59 -190.5v-49zM302 458q-59 0 -96 -39t-44 -104h263v2q1 65 -33 103t-90 38zM262 732v-107h-105v107h105zM454 732v-107
h-106v107h106z" />
    <glyph glyph-name="igrave" unicode="&#xec;" horiz-adv-x="267" 
d="M76 528h115v-528h-115v528zM103 604l-128 164h121l91 -164h-84z" />
    <glyph glyph-name="iacute" unicode="&#xed;" horiz-adv-x="267" 
d="M76 528h115v-528h-115v528zM291 768l-127 -164h-84l91 164h120z" />
    <glyph glyph-name="icircumflex" unicode="&#xee;" horiz-adv-x="267" 
d="M76 528h115v-528h-115v528zM300 604h-88l-80 109l-78 -109h-88l110 164h114z" />
    <glyph glyph-name="idieresis" unicode="&#xef;" horiz-adv-x="267" 
d="M76 528h115v-528h-115v528zM90 732v-107h-105v107h105zM282 732v-107h-106v107h106z" />
    <glyph glyph-name="eth" unicode="&#xf0;" horiz-adv-x="617" 
d="M452 247q0 78 -38 124t-105 46q-68 0 -106 -46t-38 -124q0 -79 38 -125.5t106 -46.5t105.5 46t37.5 126zM503 646l-61 -22q123 -126 123 -353q0 -134 -66.5 -208.5t-191.5 -74.5q-117 0 -186.5 70t-69.5 187q0 118 67 187t181 69q79 0 133 -40h2q-28 75 -92 127l-176 -63
v73l102 36q-49 21 -95 31l56 74q88 -22 152 -65h1l121 43v-71z" />
    <glyph glyph-name="ntilde" unicode="&#xf1;" horiz-adv-x="615" 
d="M76 528h111v-74h2q21 41 65 63.5t98 22.5q89 0 140.5 -52t51.5 -140v-348h-114v305q0 74 -24.5 111t-86.5 37q-53 0 -91 -40t-38 -121v-292h-114v528zM339 716q37 -27 55 -27q33 0 36 60h71q-3 -63 -27.5 -100.5t-71.5 -37.5q-38 0 -84 31q-43 29 -60 29q-34 0 -37 -60
h-71q4 64 30 101t71 37q39 0 88 -33z" />
    <glyph glyph-name="ograve" unicode="&#xf2;" horiz-adv-x="616" 
d="M565 265q0 -128 -69.5 -202.5t-187.5 -74.5t-187.5 74.5t-69.5 202.5t69.5 201.5t187.5 73.5q119 0 188 -73.5t69 -201.5zM451 265q0 86 -36 137t-107 51t-107 -51t-36 -137q0 -87 36.5 -138.5t106.5 -51.5q71 0 107 51t36 139zM279 604l-128 164h121l91 -164h-84z" />
    <glyph glyph-name="oacute" unicode="&#xf3;" horiz-adv-x="616" 
d="M565 265q0 -128 -69.5 -202.5t-187.5 -74.5t-187.5 74.5t-69.5 202.5t69.5 201.5t187.5 73.5q119 0 188 -73.5t69 -201.5zM451 265q0 86 -36 137t-107 51t-107 -51t-36 -137q0 -87 36.5 -138.5t106.5 -51.5q71 0 107 51t36 139zM465 768l-127 -164h-84l91 164h120z" />
    <glyph glyph-name="ocircumflex" unicode="&#xf4;" horiz-adv-x="616" 
d="M565 265q0 -128 -69.5 -202.5t-187.5 -74.5t-187.5 74.5t-69.5 202.5t69.5 201.5t187.5 73.5q119 0 188 -73.5t69 -201.5zM451 265q0 86 -36 137t-107 51t-107 -51t-36 -137q0 -87 36.5 -138.5t106.5 -51.5q71 0 107 51t36 139zM476 604h-88l-80 109l-78 -109h-88
l110 164h114z" />
    <glyph glyph-name="otilde" unicode="&#xf5;" horiz-adv-x="616" 
d="M565 265q0 -128 -69.5 -202.5t-187.5 -74.5t-187.5 74.5t-69.5 202.5t69.5 201.5t187.5 73.5q119 0 188 -73.5t69 -201.5zM451 265q0 86 -36 137t-107 51t-107 -51t-36 -137q0 -87 36.5 -138.5t106.5 -51.5q71 0 107 51t36 139zM326 716q37 -27 55 -27q33 0 36 60h71
q-3 -63 -27.5 -100.5t-71.5 -37.5q-37 0 -84 31q-43 29 -60 29q-34 0 -37 -60h-71q4 64 30 101t71 37q39 0 88 -33z" />
    <glyph glyph-name="odieresis" unicode="&#xf6;" horiz-adv-x="616" 
d="M565 265q0 -128 -69.5 -202.5t-187.5 -74.5t-187.5 74.5t-69.5 202.5t69.5 201.5t187.5 73.5q119 0 188 -73.5t69 -201.5zM451 265q0 86 -36 137t-107 51t-107 -51t-36 -137q0 -87 36.5 -138.5t106.5 -51.5q71 0 107 51t36 139zM265 732v-107h-105v107h105zM457 732v-107
h-106v107h106z" />
    <glyph glyph-name="divide" unicode="&#xf7;" horiz-adv-x="546" 
d="M508 274h-470v81h470v-81zM327 187v-103h-102v103h102zM327 543v-103h-102v103h102z" />
    <glyph glyph-name="oslash" unicode="&#xf8;" horiz-adv-x="616" 
d="M565 265q0 -128 -69.5 -202.5t-187.5 -74.5q-89 0 -152 43l-54 -66l-47 38l56 69q-60 72 -60 193q0 128 69.5 201.5t187.5 73.5q89 0 150 -41l51 62l48 -38l-53 -65q61 -74 61 -193zM451 265q0 63 -19 105l-214 -263q34 -32 90 -32q71 0 107 51t36 139zM165 265
q0 -61 18 -105l213 262q-34 31 -88 31q-71 0 -107 -51t-36 -137z" />
    <glyph glyph-name="ugrave" unicode="&#xf9;" horiz-adv-x="615" 
d="M539 0h-111v74h-2q-21 -41 -65 -63.5t-97 -22.5q-89 0 -141 52.5t-52 139.5v348h114v-305q0 -73 25 -110.5t87 -37.5q53 0 90.5 40t37.5 121v292h114v-528zM277 604l-128 164h121l91 -164h-84z" />
    <glyph glyph-name="uacute" unicode="&#xfa;" horiz-adv-x="615" 
d="M539 0h-111v74h-2q-21 -41 -65 -63.5t-97 -22.5q-89 0 -141 52.5t-52 139.5v348h114v-305q0 -73 25 -110.5t87 -37.5q53 0 90.5 40t37.5 121v292h114v-528zM461 768l-127 -164h-84l91 164h120z" />
    <glyph glyph-name="ucircumflex" unicode="&#xfb;" horiz-adv-x="615" 
d="M539 0h-111v74h-2q-21 -41 -65 -63.5t-97 -22.5q-89 0 -141 52.5t-52 139.5v348h114v-305q0 -73 25 -110.5t87 -37.5q53 0 90.5 40t37.5 121v292h114v-528zM473 604h-88l-80 109l-78 -109h-88l110 164h114z" />
    <glyph glyph-name="udieresis" unicode="&#xfc;" horiz-adv-x="615" 
d="M539 0h-111v74h-2q-21 -41 -65 -63.5t-97 -22.5q-89 0 -141 52.5t-52 139.5v348h114v-305q0 -73 25 -110.5t87 -37.5q53 0 90.5 40t37.5 121v292h114v-528zM262 732v-107h-105v107h105zM454 732v-107h-106v107h106z" />
    <glyph glyph-name="yacute" unicode="&#xfd;" horiz-adv-x="539" 
d="M129 528l142 -389h2l141 389h120l-287 -723h-120l85 206l-207 517h124zM436 768l-127 -164h-84l91 164h120z" />
    <glyph glyph-name="thorn" unicode="&#xfe;" horiz-adv-x="628" 
d="M190 65v-260h-114v930h114v-281h2q55 86 162 86q103 0 163 -78.5t60 -197.5q0 -120 -61 -198t-166 -78q-103 0 -158 77h-2zM463 264q0 83 -34.5 136t-99.5 53q-68 0 -106.5 -53t-38.5 -136t38.5 -136t106.5 -53q65 0 99.5 53.5t34.5 135.5z" />
    <glyph glyph-name="ydieresis" unicode="&#xff;" horiz-adv-x="539" 
d="M129 528l142 -389h2l141 389h120l-287 -723h-120l85 206l-207 517h124zM230 732v-107h-105v107h105zM422 732v-107h-106v107h106z" />
    <glyph glyph-name="Amacron" unicode="&#x100;" horiz-adv-x="692" 
d="M198 194l-71 -194h-125l265 714h159l264 -714h-126l-73 194h-293zM345 624l-118 -334h235zM481 874v-78h-271v78h271z" />
    <glyph glyph-name="amacron" unicode="&#x101;" horiz-adv-x="569" 
d="M380 332v12q0 109 -123 109q-66 0 -135 -29l-23 85q78 31 166 31q229 0 229 -196v-224q0 -76 9 -120h-101q-8 26 -12 72h-2q-21 -38 -62.5 -61t-97.5 -23q-76 0 -129.5 40t-53.5 122q0 55 26 92.5t75 56t104 26t130 7.5zM380 256h-22q-203 0 -203 -101q0 -39 22.5 -61
t65.5 -22q67 0 102 41.5t35 101.5v41zM425 716v-78h-271v78h271z" />
    <glyph glyph-name="Abreve" unicode="&#x102;" horiz-adv-x="692" 
d="M198 194l-71 -194h-125l265 714h159l264 -714h-126l-73 194h-293zM345 624l-118 -334h235zM344 836q78 0 81 76h82q-3 -66 -41 -107.5t-122 -41.5q-80 0 -119 42t-41 107h81q2 -76 79 -76z" />
    <glyph glyph-name="abreve" unicode="&#x103;" horiz-adv-x="569" 
d="M380 332v12q0 109 -123 109q-66 0 -135 -29l-23 85q78 31 166 31q229 0 229 -196v-224q0 -76 9 -120h-101q-8 26 -12 72h-2q-21 -38 -62.5 -61t-97.5 -23q-76 0 -129.5 40t-53.5 122q0 55 26 92.5t75 56t104 26t130 7.5zM380 256h-22q-203 0 -203 -101q0 -39 22.5 -61
t65.5 -22q67 0 102 41.5t35 101.5v41zM288 676q77 0 81 76h82q-3 -66 -41 -107.5t-122 -41.5q-80 0 -119 42t-41 107h81q2 -76 79 -76z" />
    <glyph glyph-name="Aogonek" unicode="&#x104;" horiz-adv-x="692" 
d="M198 194l-71 -194h-125l265 714h159l264 -714h-59q-64 -68 -64 -107q0 -35 41 -35q30 0 55 12l10 -60q-33 -16 -80 -16q-45 0 -76 19.5t-31 63.5q0 62 78 123l-73 194h-293zM345 624l-118 -334h235z" />
    <glyph glyph-name="aogonek" unicode="&#x105;" horiz-adv-x="569" 
d="M380 332v12q0 109 -123 109q-66 0 -135 -29l-23 85q78 31 166 31q229 0 229 -196v-224q0 -76 9 -120h-38q-64 -68 -64 -107q0 -35 41 -35q28 0 55 12l10 -60q-33 -16 -80 -16q-45 0 -76 19.5t-31 63.5q0 63 80 126q-6 23 -10 69h-2q-21 -38 -62.5 -61t-97.5 -23
q-76 0 -129.5 40t-53.5 122q0 55 26 92.5t75 56t104 26t130 7.5zM380 256h-22q-203 0 -203 -101q0 -39 22.5 -61t65.5 -22q67 0 102 41.5t35 101.5v41z" />
    <glyph glyph-name="Cacute" unicode="&#x106;" horiz-adv-x="614" 
d="M577 695l-27 -92q-58 28 -132 28q-120 0 -183.5 -78t-63.5 -199q0 -115 64.5 -193t181.5 -78q79 0 141 31l25 -91q-71 -35 -177 -35q-161 0 -256.5 102t-95.5 265q0 165 95 268t262 103q101 0 166 -31zM544 903l-125 -140h-89l87 140h127z" />
    <glyph glyph-name="cacute" unicode="&#x107;" horiz-adv-x="484" 
d="M449 521l-22 -87q-42 19 -94 19q-79 0 -123.5 -54t-44.5 -136t44.5 -135t125.5 -53q54 0 95 19l19 -86q-53 -20 -121 -20q-132 0 -204.5 76.5t-72.5 198.5t74.5 199.5t201.5 77.5q71 0 122 -19zM467 768l-127 -164h-84l91 164h120z" />
    <glyph glyph-name="Ccircumflex" unicode="&#x108;" horiz-adv-x="614" 
d="M577 695l-27 -92q-58 28 -132 28q-120 0 -183.5 -78t-63.5 -199q0 -115 64.5 -193t181.5 -78q79 0 141 31l25 -91q-71 -35 -177 -35q-161 0 -256.5 102t-95.5 265q0 165 95 268t262 103q101 0 166 -31zM557 758h-93l-82 93l-82 -93h-94l117 149h117z" />
    <glyph glyph-name="ccircumflex" unicode="&#x109;" horiz-adv-x="484" 
d="M449 521l-22 -87q-42 19 -94 19q-79 0 -123.5 -54t-44.5 -136t44.5 -135t125.5 -53q54 0 95 19l19 -86q-53 -20 -121 -20q-132 0 -204.5 76.5t-72.5 198.5t74.5 199.5t201.5 77.5q71 0 122 -19zM467 604h-88l-80 109l-78 -109h-88l110 164h114z" />
    <glyph glyph-name="Cdotaccent" unicode="&#x10a;" horiz-adv-x="614" 
d="M577 695l-27 -92q-58 28 -132 28q-120 0 -183.5 -78t-63.5 -199q0 -115 64.5 -193t181.5 -78q79 0 141 31l25 -91q-71 -35 -177 -35q-161 0 -256.5 102t-95.5 265q0 165 95 268t262 103q101 0 166 -31zM453 894v-113h-121v113h121z" />
    <glyph glyph-name="cdotaccent" unicode="&#x10b;" horiz-adv-x="484" 
d="M449 521l-22 -87q-42 19 -94 19q-79 0 -123.5 -54t-44.5 -136t44.5 -135t125.5 -53q54 0 95 19l19 -86q-53 -20 -121 -20q-132 0 -204.5 76.5t-72.5 198.5t74.5 199.5t201.5 77.5q71 0 122 -19zM378 736v-113h-121v113h121z" />
    <glyph glyph-name="Ccaron" unicode="&#x10c;" horiz-adv-x="614" 
d="M577 695l-27 -92q-58 28 -132 28q-120 0 -183.5 -78t-63.5 -199q0 -115 64.5 -193t181.5 -78q79 0 141 31l25 -91q-71 -35 -177 -35q-161 0 -256.5 102t-95.5 265q0 165 95 268t262 103q101 0 166 -31zM215 907h92l82 -93l83 93h93l-116 -149h-117z" />
    <glyph glyph-name="ccaron" unicode="&#x10d;" horiz-adv-x="484" 
d="M449 521l-22 -87q-42 19 -94 19q-79 0 -123.5 -54t-44.5 -136t44.5 -135t125.5 -53q54 0 95 19l19 -86q-53 -20 -121 -20q-132 0 -204.5 76.5t-72.5 198.5t74.5 199.5t201.5 77.5q71 0 122 -19zM142 767h88l79 -110l78 110h89l-110 -164h-114z" />
    <glyph glyph-name="Dcaron" unicode="&#x10e;" horiz-adv-x="716" 
d="M83 0v714h223q170 0 262.5 -94.5t92.5 -260.5q0 -167 -93 -263t-262 -96h-223zM200 619v-524h89q127 0 191 69t64 194q0 123 -64 192t-191 69h-89zM122 907h92l82 -93l83 93h93l-116 -149h-117z" />
    <glyph glyph-name="dcaron" unicode="&#x10f;" horiz-adv-x="628" 
d="M438 463v272h114v-735h-111v73h-2q-59 -85 -165 -85q-104 0 -163.5 78t-59.5 198t61 198t165 78t159 -77h2zM165 264q0 -83 34.5 -136t100.5 -53q67 0 105.5 53.5t38.5 136.5q0 82 -38.5 135t-105.5 53q-66 0 -100.5 -53t-34.5 -136zM708 768l-37 -164h-65l13 164h89z
" />
    <glyph glyph-name="Dcroat" unicode="&#x110;" horiz-adv-x="716" 
d="M83 0v333h-67v68h67v313h223q170 0 262.5 -94.5t92.5 -260.5q0 -167 -93 -263t-262 -96h-223zM200 95h89q127 0 191 69t64 194q0 123 -64 192t-191 69h-89v-218h125v-68h-125v-238z" />
    <glyph glyph-name="dcroat" unicode="&#x111;" horiz-adv-x="628" 
d="M438 463v129h-104v72h104v71h114v-71h47v-72h-47v-592h-111v73h-2q-59 -85 -165 -85q-104 0 -163.5 78t-59.5 198t61 198t165 78t159 -77h2zM165 264q0 -83 34.5 -136t100.5 -53q67 0 105.5 53.5t38.5 136.5q0 82 -38.5 135t-105.5 53q-66 0 -100.5 -53t-34.5 -136z" />
    <glyph glyph-name="Emacron" unicode="&#x112;" horiz-adv-x="550" 
d="M83 0v714h411v-95h-294v-205h271v-96h-271v-223h303v-95h-420zM430 874v-78h-271v78h271z" />
    <glyph glyph-name="emacron" unicode="&#x113;" horiz-adv-x="579" 
d="M531 231h-369q5 -74 54 -115t127 -41q75 0 134 22l15 -85q-69 -24 -159 -24q-133 0 -208 76t-75 199q0 122 68.5 199.5t183.5 77.5q111 0 170 -69.5t59 -190.5v-49zM302 458q-59 0 -96 -39t-44 -104h263v2q1 65 -33 103t-90 38zM442 716v-78h-271v78h271z" />
    <glyph glyph-name="Ebreve" unicode="&#x114;" horiz-adv-x="550" 
d="M83 0v714h411v-95h-294v-205h271v-96h-271v-223h303v-95h-420zM290 836q78 0 81 76h82q-3 -66 -41 -107.5t-122 -41.5q-80 0 -119 42t-41 107h81q2 -76 79 -76z" />
    <glyph glyph-name="ebreve" unicode="&#x115;" horiz-adv-x="579" 
d="M531 231h-369q5 -74 54 -115t127 -41q75 0 134 22l15 -85q-69 -24 -159 -24q-133 0 -208 76t-75 199q0 122 68.5 199.5t183.5 77.5q111 0 170 -69.5t59 -190.5v-49zM302 458q-59 0 -96 -39t-44 -104h263v2q1 65 -33 103t-90 38zM300 676q77 0 81 76h82q-3 -66 -41 -107.5
t-122 -41.5q-80 0 -119 42t-41 107h81q2 -76 79 -76z" />
    <glyph glyph-name="Edotaccent" unicode="&#x116;" horiz-adv-x="550" 
d="M83 0v714h411v-95h-294v-205h271v-96h-271v-223h303v-95h-420zM359 894v-113h-121v113h121z" />
    <glyph glyph-name="edotaccent" unicode="&#x117;" horiz-adv-x="579" 
d="M531 231h-369q5 -74 54 -115t127 -41q75 0 134 22l15 -85q-69 -24 -159 -24q-133 0 -208 76t-75 199q0 122 68.5 199.5t183.5 77.5q111 0 170 -69.5t59 -190.5v-49zM302 458q-59 0 -96 -39t-44 -104h263v2q1 65 -33 103t-90 38zM362 736v-113h-121v113h121z" />
    <glyph glyph-name="Eogonek" unicode="&#x118;" horiz-adv-x="550" 
d="M83 0v714h411v-95h-294v-205h271v-96h-271v-223h303v-95h-30q-64 -68 -64 -107q0 -35 41 -35q28 0 55 12l10 -60q-33 -16 -80 -16q-45 0 -76 19.5t-31 63.5q0 62 77 123h-322z" />
    <glyph glyph-name="eogonek" unicode="&#x119;" horiz-adv-x="579" 
d="M531 231h-369q5 -74 54 -115t127 -41q75 0 134 22l15 -85q-4 -2 -13 -4.5t-13 -3.5q-69 -70 -69 -111q0 -35 41 -35q30 0 55 12l10 -60q-33 -16 -80 -16q-45 0 -76 19.5t-31 63.5q0 56 65 114q-24 -3 -48 -3q-133 0 -208 76t-75 199q0 122 68.5 199.5t183.5 77.5
q111 0 170 -69.5t59 -190.5v-49zM302 458q-59 0 -96 -39t-44 -104h263v2q1 65 -33 103t-90 38z" />
    <glyph glyph-name="Ecaron" unicode="&#x11a;" horiz-adv-x="550" 
d="M83 0v714h411v-95h-294v-205h271v-96h-271v-223h303v-95h-420zM114 907h92l82 -93l83 93h93l-116 -149h-117z" />
    <glyph glyph-name="ecaron" unicode="&#x11b;" horiz-adv-x="579" 
d="M531 231h-369q5 -74 54 -115t127 -41q75 0 134 22l15 -85q-69 -24 -159 -24q-133 0 -208 76t-75 199q0 122 68.5 199.5t183.5 77.5q111 0 170 -69.5t59 -190.5v-49zM302 458q-59 0 -96 -39t-44 -104h263v2q1 65 -33 103t-90 38zM135 767h88l79 -110l78 110h89l-110 -164
h-114z" />
    <glyph glyph-name="Gcircumflex" unicode="&#x11c;" horiz-adv-x="726" 
d="M631 685l-33 -97q-74 43 -166 43q-120 0 -190.5 -76.5t-70.5 -201.5q0 -115 69 -192.5t186 -77.5q66 0 107 22v199h-136v96h253v-360q-103 -52 -232 -52q-163 0 -263.5 102t-100.5 265q0 165 100.5 268t276.5 103q113 0 200 -41zM580 758h-93l-82 93l-82 -93h-94l117 149
h117z" />
    <glyph glyph-name="gcircumflex" unicode="&#x11d;" horiz-adv-x="626" 
d="M164 276q0 -79 34.5 -128.5t100.5 -49.5t105 50.5t39 127.5t-39 127t-105 50t-100.5 -49.5t-34.5 -127.5zM440 40v50h-2q-54 -79 -159 -79t-167 75t-62 190t63 189.5t166 74.5t159 -76h2v64h111v-488q0 -120 -76.5 -177.5t-192.5 -57.5q-96 0 -166 24l17 86
q62 -23 140 -23q167 0 167 148zM486 604h-88l-80 109l-78 -109h-88l110 164h114z" />
    <glyph glyph-name="Gbreve" unicode="&#x11e;" horiz-adv-x="726" 
d="M631 685l-33 -97q-74 43 -166 43q-120 0 -190.5 -76.5t-70.5 -201.5q0 -115 69 -192.5t186 -77.5q66 0 107 22v199h-136v96h253v-360q-103 -52 -232 -52q-163 0 -263.5 102t-100.5 265q0 165 100.5 268t276.5 103q113 0 200 -41zM407 836q78 0 81 76h82
q-3 -66 -41 -107.5t-122 -41.5q-80 0 -119 42t-41 107h81q2 -76 79 -76z" />
    <glyph glyph-name="gbreve" unicode="&#x11f;" horiz-adv-x="626" 
d="M164 276q0 -79 34.5 -128.5t100.5 -49.5t105 50.5t39 127.5t-39 127t-105 50t-100.5 -49.5t-34.5 -127.5zM440 40v50h-2q-54 -79 -159 -79t-167 75t-62 190t63 189.5t166 74.5t159 -76h2v64h111v-488q0 -120 -76.5 -177.5t-192.5 -57.5q-96 0 -166 24l17 86
q62 -23 140 -23q167 0 167 148zM300 676q77 0 81 76h82q-3 -66 -41 -107.5t-122 -41.5q-80 0 -119 42t-41 107h81q2 -76 79 -76z" />
    <glyph glyph-name="Gdotaccent" unicode="&#x120;" horiz-adv-x="726" 
d="M631 685l-33 -97q-74 43 -166 43q-120 0 -190.5 -76.5t-70.5 -201.5q0 -115 69 -192.5t186 -77.5q66 0 107 22v199h-136v96h253v-360q-103 -52 -232 -52q-163 0 -263.5 102t-100.5 265q0 165 100.5 268t276.5 103q113 0 200 -41zM474 894v-113h-121v113h121z" />
    <glyph glyph-name="gdotaccent" unicode="&#x121;" horiz-adv-x="626" 
d="M164 276q0 -79 34.5 -128.5t100.5 -49.5t105 50.5t39 127.5t-39 127t-105 50t-100.5 -49.5t-34.5 -127.5zM440 40v50h-2q-54 -79 -159 -79t-167 75t-62 190t63 189.5t166 74.5t159 -76h2v64h111v-488q0 -120 -76.5 -177.5t-192.5 -57.5q-96 0 -166 24l17 86
q62 -23 140 -23q167 0 167 148zM368 736v-113h-121v113h121z" />
    <glyph glyph-name="Gcommaaccent" unicode="&#x122;" horiz-adv-x="726" 
d="M631 685l-33 -97q-74 43 -166 43q-120 0 -190.5 -76.5t-70.5 -201.5q0 -115 69 -192.5t186 -77.5q66 0 107 22v199h-136v96h253v-360q-103 -52 -232 -52q-163 0 -263.5 102t-100.5 265q0 165 100.5 268t276.5 103q113 0 200 -41zM457 -57l-101 -160h-83l61 160h123z" />
    <glyph glyph-name="gcommaaccent" unicode="&#x123;" horiz-adv-x="626" 
d="M164 276q0 -79 34.5 -128.5t100.5 -49.5t105 50.5t39 127.5t-39 127t-105 50t-100.5 -49.5t-34.5 -127.5zM440 40v50h-2q-54 -79 -159 -79t-167 75t-62 190t63 189.5t166 74.5t159 -76h2v64h111v-488q0 -120 -76.5 -177.5t-192.5 -57.5q-96 0 -166 24l17 86
q62 -23 140 -23q167 0 167 148zM230 603l102 164h84l-63 -164h-123z" />
    <glyph glyph-name="Hcircumflex" unicode="&#x124;" horiz-adv-x="708" 
d="M83 0v714h117v-300h308v300h117v-714h-117v318h-308v-318h-117zM529 758h-93l-82 93l-82 -93h-94l117 149h117z" />
    <glyph glyph-name="hcircumflex" unicode="&#x125;" horiz-adv-x="615" 
d="M76 735h114v-281h2q22 41 64.5 63.5t95.5 22.5q89 0 140.5 -52t51.5 -140v-348h-114v305q0 74 -24.5 111t-86.5 37q-53 0 -91 -40t-38 -121v-292h-114v735zM460 782h-93l-82 93l-82 -93h-94l117 149h117z" />
    <glyph glyph-name="Hbar" unicode="&#x126;" horiz-adv-x="708" 
d="M83 0v552h-68v72h68v90h117v-90h308v90h117v-90h68v-72h-68v-552h-117v318h-308v-318h-117zM200 414h308v138h-308v-138z" />
    <glyph glyph-name="hbar" unicode="&#x127;" horiz-adv-x="615" 
d="M76 735h114v-71h93v-72h-93v-138h2q22 41 64.5 63.5t95.5 22.5q89 0 140.5 -52t51.5 -140v-348h-114v305q0 74 -24.5 111t-86.5 37q-53 0 -91 -40t-38 -121v-292h-114v592h-58v72h58v71z" />
    <glyph glyph-name="Itilde" unicode="&#x128;" horiz-adv-x="283" 
d="M83 0v714h117v-714h-117zM155 868q36 -26 55 -26q33 0 36 60h71q-3 -63 -27.5 -101t-71.5 -38q-36 0 -84 32q-41 28 -60 28q-34 0 -37 -59h-71q4 64 30 101t71 37q40 0 88 -34z" />
    <glyph glyph-name="itilde" unicode="&#x129;" horiz-adv-x="267" 
d="M76 528h115v-528h-115v528zM147 716q37 -27 55 -27q33 0 36 60h71q-3 -63 -27.5 -100.5t-71.5 -37.5q-38 0 -84 31q-43 29 -60 29q-34 0 -37 -60h-71q4 64 30 101t71 37q39 0 88 -33z" />
    <glyph glyph-name="Imacron" unicode="&#x12a;" horiz-adv-x="283" 
d="M83 0v714h117v-714h-117zM277 874v-78h-271v78h271z" />
    <glyph glyph-name="imacron" unicode="&#x12b;" horiz-adv-x="267" 
d="M76 528h115v-528h-115v528zM269 716v-78h-271v78h271z" />
    <glyph glyph-name="Ibreve" unicode="&#x12c;" horiz-adv-x="283" 
d="M83 0v714h117v-714h-117zM140 836q78 0 81 76h82q-3 -66 -41 -107.5t-122 -41.5q-80 0 -119 42t-41 107h81q2 -76 79 -76z" />
    <glyph glyph-name="ibreve" unicode="&#x12d;" horiz-adv-x="267" 
d="M76 528h115v-528h-115v528zM132 676q77 0 81 76h82q-3 -66 -41 -107.5t-122 -41.5q-80 0 -119 42t-41 107h81q2 -76 79 -76z" />
    <glyph glyph-name="Iogonek" unicode="&#x12e;" horiz-adv-x="283" 
d="M200 0h-40q-64 -68 -64 -107q0 -35 41 -35q28 0 55 12l10 -60q-33 -16 -80 -16q-45 0 -76 19.5t-31 63.5q0 62 78 123h-10v714h117v-714z" />
    <glyph glyph-name="iogonek" unicode="&#x12f;" horiz-adv-x="267" 
d="M76 528h114v-528h-23q-64 -68 -64 -107q0 -35 41 -35q30 0 55 12l10 -60q-33 -16 -80 -16q-45 0 -76 19.5t-31 63.5q0 61 77 123h-23v528zM75 730h117v-106h-117v106z" />
    <glyph glyph-name="Idotaccent" unicode="&#x130;" horiz-adv-x="283" 
d="M83 0v714h117v-714h-117zM202 894v-113h-121v113h121z" />
    <glyph glyph-name="dotlessi" unicode="&#x131;" horiz-adv-x="267" 
d="M76 528h115v-528h-115v528z" />
    <glyph glyph-name="Jcircumflex" unicode="&#x134;" horiz-adv-x="337" 
d="M283 714v-548q0 -89 -44 -133.5t-140 -44.5q-46 0 -79 6v95q29 -6 61 -6q45 0 65 21t20 70v540h117zM399 758h-93l-82 93l-82 -93h-94l117 149h117z" />
    <glyph glyph-name="jcircumflex" unicode="&#x135;" horiz-adv-x="267" 
d="M190 528v-563q0 -160 -163 -160q-35 0 -63 4v87q24 -4 46 -4q38 0 52 20.5t14 65.5v550h114zM298 604h-88l-80 109l-78 -109h-88l110 164h114z" />
    <glyph glyph-name="Kcommaaccent" unicode="&#x136;" horiz-adv-x="621" 
d="M462 714h141l-275 -343l291 -371h-147l-271 356h-1v-356h-117v714h117v-335h1zM380 -57l-101 -160h-83l61 160h123z" />
    <glyph glyph-name="kcommaaccent" unicode="&#x137;" horiz-adv-x="544" 
d="M387 528h138l-213 -236l224 -292h-140l-204 277h-2v-277h-114v735h114v-435h2zM341 -57l-101 -160h-83l61 160h123z" />
    <glyph glyph-name="kgreenlandic" unicode="&#x138;" horiz-adv-x="544" 
d="M387 528h138l-213 -236l224 -292h-140l-204 277h-2v-277h-114v528h114v-228h2z" />
    <glyph glyph-name="Lacute" unicode="&#x139;" horiz-adv-x="513" 
d="M83 0v714h117v-619h300v-95h-417zM310 903l-125 -140h-89l87 140h127z" />
    <glyph glyph-name="lacute" unicode="&#x13a;" horiz-adv-x="266" 
d="M76 735h114v-735h-114v735zM298 930l-125 -140h-89l87 140h127z" />
    <glyph glyph-name="Lcommaaccent" unicode="&#x13b;" horiz-adv-x="513" 
d="M83 0v714h117v-619h300v-95h-417zM341 -57l-101 -160h-83l61 160h123z" />
    <glyph glyph-name="lcommaaccent" unicode="&#x13c;" horiz-adv-x="266" 
d="M76 735h114v-735h-114v735zM197 -57l-101 -160h-83l61 160h123z" />
    <glyph glyph-name="Lcaron" unicode="&#x13d;" horiz-adv-x="513" 
d="M83 0v714h117v-619h300v-95h-417zM372 768l-37 -164h-65l13 164h89z" />
    <glyph glyph-name="lcaron" unicode="&#x13e;" horiz-adv-x="266" 
d="M76 735h114v-735h-114v735zM344 768l-37 -164h-65l13 164h89z" />
    <glyph glyph-name="Ldot" unicode="&#x13f;" horiz-adv-x="532" 
d="M83 0v714h117v-619h300v-95h-417zM468 462v-113h-121v113h121z" />
    <glyph glyph-name="ldot" unicode="&#x140;" horiz-adv-x="401" 
d="M76 735h114v-735h-114v735zM394 448v-113h-121v113h121z" />
    <glyph glyph-name="Lslash" unicode="&#x141;" horiz-adv-x="513" 
d="M83 0v311l-68 -42v78l68 42v325h117v-261l105 68v-77l-105 -69v-280h300v-95h-417z" />
    <glyph glyph-name="lslash" unicode="&#x142;" horiz-adv-x="286" 
d="M267 450l-67 -48v-402h-114v335l-67 -46v79l67 46v321h114v-254l67 48v-79z" />
    <glyph glyph-name="Nacute" unicode="&#x143;" horiz-adv-x="719" 
d="M261 714l263 -596h2v596h110v-714h-173l-269 602h-2v-602h-109v714h178zM510 903l-125 -140h-89l87 140h127z" />
    <glyph glyph-name="nacute" unicode="&#x144;" horiz-adv-x="615" 
d="M76 528h111v-74h2q21 41 65 63.5t98 22.5q89 0 140.5 -52t51.5 -140v-348h-114v305q0 74 -24.5 111t-86.5 37q-53 0 -91 -40t-38 -121v-292h-114v528zM474 768l-127 -164h-84l91 164h120z" />
    <glyph glyph-name="Ncommaaccent" unicode="&#x145;" horiz-adv-x="719" 
d="M261 714l263 -596h2v596h110v-714h-173l-269 602h-2v-602h-109v714h178zM438 -57l-101 -160h-83l61 160h123z" />
    <glyph glyph-name="ncommaaccent" unicode="&#x146;" horiz-adv-x="615" 
d="M76 528h111v-74h2q21 41 65 63.5t98 22.5q89 0 140.5 -52t51.5 -140v-348h-114v305q0 74 -24.5 111t-86.5 37q-53 0 -91 -40t-38 -121v-292h-114v528zM370 -57l-101 -160h-83l61 160h123z" />
    <glyph glyph-name="Ncaron" unicode="&#x147;" horiz-adv-x="719" 
d="M261 714l263 -596h2v596h110v-714h-173l-269 602h-2v-602h-109v714h178zM190 907h92l82 -93l83 93h93l-116 -149h-117z" />
    <glyph glyph-name="ncaron" unicode="&#x148;" horiz-adv-x="615" 
d="M76 528h111v-74h2q21 41 65 63.5t98 22.5q89 0 140.5 -52t51.5 -140v-348h-114v305q0 74 -24.5 111t-86.5 37q-53 0 -91 -40t-38 -121v-292h-114v528zM162 767h88l79 -110l78 110h89l-110 -164h-114z" />
    <glyph glyph-name="Eng" unicode="&#x14a;" horiz-adv-x="719" 
d="M261 714l263 -596h2v596h110v-753q0 -156 -160 -156q-30 0 -67 5v86q24 -4 46 -4q37 0 52 20t15 61v27h-59l-269 602h-2v-602h-109v714h178z" />
    <glyph glyph-name="eng" unicode="&#x14b;" horiz-adv-x="615" 
d="M76 528h111v-74h2q21 41 65 63.5t98 22.5q89 0 140.5 -52t51.5 -140v-387q0 -156 -159 -156q-33 0 -68 5v86q24 -4 46 -4q38 0 52.5 21t14.5 65v327q0 74 -24.5 111t-86.5 37q-53 0 -91 -40t-38 -121v-292h-114v528z" />
    <glyph glyph-name="Omacron" unicode="&#x14c;" horiz-adv-x="765" 
d="M709 356q0 -165 -86.5 -266.5t-239.5 -101.5t-240 102t-87 266q0 166 86 268t241 102q154 0 240 -102t86 -268zM592 356q0 120 -53.5 197.5t-155.5 77.5t-156 -77.5t-54 -197.5q0 -119 54 -196t156 -77t155.5 77t53.5 196zM518 874v-78h-271v78h271z" />
    <glyph glyph-name="omacron" unicode="&#x14d;" horiz-adv-x="616" 
d="M565 265q0 -128 -69.5 -202.5t-187.5 -74.5t-187.5 74.5t-69.5 202.5t69.5 201.5t187.5 73.5q119 0 188 -73.5t69 -201.5zM451 265q0 86 -36 137t-107 51t-107 -51t-36 -137q0 -87 36.5 -138.5t106.5 -51.5q71 0 107 51t36 139zM443 716v-78h-271v78h271z" />
    <glyph glyph-name="Obreve" unicode="&#x14e;" horiz-adv-x="765" 
d="M709 356q0 -165 -86.5 -266.5t-239.5 -101.5t-240 102t-87 266q0 166 86 268t241 102q154 0 240 -102t86 -268zM592 356q0 120 -53.5 197.5t-155.5 77.5t-156 -77.5t-54 -197.5q0 -119 54 -196t156 -77t155.5 77t53.5 196zM381 836q78 0 81 76h82q-3 -66 -41 -107.5
t-122 -41.5q-80 0 -119 42t-41 107h81q2 -76 79 -76z" />
    <glyph glyph-name="obreve" unicode="&#x14f;" horiz-adv-x="616" 
d="M565 265q0 -128 -69.5 -202.5t-187.5 -74.5t-187.5 74.5t-69.5 202.5t69.5 201.5t187.5 73.5q119 0 188 -73.5t69 -201.5zM451 265q0 86 -36 137t-107 51t-107 -51t-36 -137q0 -87 36.5 -138.5t106.5 -51.5q71 0 107 51t36 139zM306 676q77 0 81 76h82q-3 -66 -41 -107.5
t-122 -41.5q-80 0 -119 42t-41 107h81q2 -76 79 -76z" />
    <glyph glyph-name="Ohungarumlaut" unicode="&#x150;" horiz-adv-x="765" 
d="M709 356q0 -165 -86.5 -266.5t-239.5 -101.5t-240 102t-87 266q0 166 86 268t241 102q154 0 240 -102t86 -268zM592 356q0 120 -53.5 197.5t-155.5 77.5t-156 -77.5t-54 -197.5q0 -119 54 -196t156 -77t155.5 77t53.5 196zM429 905l-98 -142h-82l72 142h108zM595 905
l-109 -142h-86l80 142h115z" />
    <glyph glyph-name="ohungarumlaut" unicode="&#x151;" horiz-adv-x="616" 
d="M565 265q0 -128 -69.5 -202.5t-187.5 -74.5t-187.5 74.5t-69.5 202.5t69.5 201.5t187.5 73.5q119 0 188 -73.5t69 -201.5zM451 265q0 86 -36 137t-107 51t-107 -51t-36 -137q0 -87 36.5 -138.5t106.5 -51.5q71 0 107 51t36 139zM380 768l-107 -164h-80l80 164h107z
M544 768l-118 -164h-83l88 164h113z" />
    <glyph glyph-name="OE" unicode="&#x152;" horiz-adv-x="973" 
d="M56 355q0 168 93 263.5t262 95.5h507v-95h-296v-205h273v-96h-273v-223h304v-95h-515q-170 0 -262.5 94.5t-92.5 260.5zM505 95v524h-77q-127 0 -191 -69t-64 -194q0 -123 64 -192t191 -69h77z" />
    <glyph glyph-name="oe" unicode="&#x153;" horiz-adv-x="976" 
d="M928 231h-369q6 -74 54.5 -115t124.5 -41q77 0 136 22l15 -85q-63 -24 -161 -24q-153 0 -221 107q-61 -107 -202 -107q-116 0 -185 74.5t-69 202.5t68.5 201.5t185.5 73.5q140 0 202 -105q61 105 192 105q112 0 170.5 -69.5t58.5 -190.5v-49zM451 265q0 86 -35.5 137
t-107.5 51t-107.5 -51t-35.5 -137q0 -88 36 -139t107 -51q72 0 107.5 51t35.5 139zM699 458q-60 0 -96.5 -39t-43.5 -104h263v3q0 65 -33.5 102.5t-89.5 37.5z" />
    <glyph glyph-name="Racute" unicode="&#x154;" horiz-adv-x="638" 
d="M83 0v714h262q104 0 169.5 -46.5t65.5 -145.5q0 -62 -33 -105t-94 -61v-2q37 -10 57.5 -38t39.5 -93q58 -193 67 -223h-126q-37 144 -52 197q-19 65 -45.5 86t-102.5 21h-91v-304h-117zM200 619v-219h117q146 0 146 110q0 109 -141 109h-122zM463 903l-125 -140h-89
l87 140h127z" />
    <glyph glyph-name="racute" unicode="&#x155;" horiz-adv-x="375" 
d="M365 538l-5 -89q-17 4 -43 4q-58 0 -92.5 -40.5t-34.5 -130.5v-282h-114v528h111v-70h2q38 82 138 82q12 0 38 -2zM345 768l-127 -164h-84l91 164h120z" />
    <glyph glyph-name="Rcommaaccent" unicode="&#x156;" horiz-adv-x="638" 
d="M83 0v714h262q104 0 169.5 -46.5t65.5 -145.5q0 -62 -33 -105t-94 -61v-2q37 -10 57.5 -38t39.5 -93q58 -193 67 -223h-126q-37 144 -52 197q-19 65 -45.5 86t-102.5 21h-91v-304h-117zM200 619v-219h117q146 0 146 110q0 109 -141 109h-122zM386 -57l-101 -160h-83
l61 160h123z" />
    <glyph glyph-name="rcommaaccent" unicode="&#x157;" horiz-adv-x="375" 
d="M365 538l-5 -89q-17 4 -43 4q-58 0 -92.5 -40.5t-34.5 -130.5v-282h-114v528h111v-70h2q38 82 138 82q12 0 38 -2zM207 -57l-101 -160h-83l61 160h123z" />
    <glyph glyph-name="Rcaron" unicode="&#x158;" horiz-adv-x="638" 
d="M83 0v714h262q104 0 169.5 -46.5t65.5 -145.5q0 -62 -33 -105t-94 -61v-2q37 -10 57.5 -38t39.5 -93q58 -193 67 -223h-126q-37 144 -52 197q-19 65 -45.5 86t-102.5 21h-91v-304h-117zM200 619v-219h117q146 0 146 110q0 109 -141 109h-122zM143 907h92l82 -93l83 93h93
l-116 -149h-117z" />
    <glyph glyph-name="rcaron" unicode="&#x159;" horiz-adv-x="375" 
d="M365 538l-5 -89q-17 4 -43 4q-58 0 -92.5 -40.5t-34.5 -130.5v-282h-114v528h111v-70h2q38 82 138 82q12 0 38 -2zM37 767h88l79 -110l78 110h89l-110 -164h-114z" />
    <glyph glyph-name="Sacute" unicode="&#x15a;" horiz-adv-x="555" 
d="M475 698l-23 -95q-74 28 -155 28q-54 0 -91.5 -22t-37.5 -71q0 -41 31 -67t111 -59q104 -42 152.5 -89.5t48.5 -130.5q0 -100 -73 -152t-179 -52q-115 0 -214 40l24 97q94 -42 188 -42q64 0 101 25.5t37 75.5q0 44 -36.5 72.5t-119.5 62.5q-94 38 -141 87t-47 122
q0 97 72.5 147.5t169.5 50.5q105 0 182 -28zM439 903l-125 -140h-89l87 140h127z" />
    <glyph glyph-name="sacute" unicode="&#x15b;" horiz-adv-x="481" 
d="M409 510l-26 -85q-64 28 -137 28q-36 0 -61 -14.5t-25 -44.5q0 -27 22 -44t84 -38q86 -29 128 -67t42 -102q0 -80 -60 -117.5t-146 -37.5q-103 0 -188 37l25 88q87 -38 164 -38q97 0 97 62q0 29 -27 47.5t-93 40.5q-80 27 -118 65t-38 93q0 77 57.5 117t137.5 40
q93 0 162 -30zM404 768l-127 -164h-84l91 164h120z" />
    <glyph glyph-name="Scircumflex" unicode="&#x15c;" horiz-adv-x="555" 
d="M475 698l-23 -95q-74 28 -155 28q-54 0 -91.5 -22t-37.5 -71q0 -41 31 -67t111 -59q104 -42 152.5 -89.5t48.5 -130.5q0 -100 -73 -152t-179 -52q-115 0 -214 40l24 97q94 -42 188 -42q64 0 101 25.5t37 75.5q0 44 -36.5 72.5t-119.5 62.5q-94 38 -141 87t-47 122
q0 97 72.5 147.5t169.5 50.5q105 0 182 -28zM456 758h-93l-82 93l-82 -93h-94l117 149h117z" />
    <glyph glyph-name="scircumflex" unicode="&#x15d;" horiz-adv-x="481" 
d="M409 510l-26 -85q-64 28 -137 28q-36 0 -61 -14.5t-25 -44.5q0 -27 22 -44t84 -38q86 -29 128 -67t42 -102q0 -80 -60 -117.5t-146 -37.5q-103 0 -188 37l25 88q87 -38 164 -38q97 0 97 62q0 29 -27 47.5t-93 40.5q-80 27 -118 65t-38 93q0 77 57.5 117t137.5 40
q93 0 162 -30zM413 604h-88l-80 109l-78 -109h-88l110 164h114z" />
    <glyph glyph-name="Scedilla" unicode="&#x15e;" horiz-adv-x="555" 
d="M475 698l-23 -95q-74 28 -155 28q-54 0 -91.5 -22t-37.5 -71q0 -41 31 -67t111 -59q104 -42 152.5 -89.5t48.5 -130.5q0 -93 -63 -144t-157 -58l-9 -41q8 1 23 1q36 0 61 -20t25 -56q0 -45 -34.5 -67.5t-88.5 -22.5q-38 0 -67 6l6 53q18 -3 52 -3q57 0 57 30q0 29 -53 29
q-24 0 -48 -3l12 93q-98 5 -182 39l24 97q94 -42 188 -42q64 0 101 25.5t37 75.5q0 44 -36.5 72.5t-119.5 62.5q-94 38 -141 87t-47 122q0 97 72.5 147.5t169.5 50.5q105 0 182 -28z" />
    <glyph glyph-name="scedilla" unicode="&#x15f;" horiz-adv-x="481" 
d="M409 510l-26 -85q-64 28 -137 28q-86 0 -86 -58q0 -27 22.5 -44.5t83.5 -38.5q86 -29 128 -67t42 -102q0 -72 -49.5 -109t-125.5 -44l-9 -41q8 1 24 1q36 0 60.5 -20t24.5 -56q0 -45 -34.5 -67.5t-88.5 -22.5q-38 0 -67 6l6 53q18 -3 52 -3q57 0 57 30q0 29 -52 29
q-26 0 -49 -3l13 93q-91 7 -156 36l25 88q87 -38 164 -38q97 0 97 62q0 29 -27 47.5t-93 40.5q-80 27 -118 65t-38 93q0 77 57.5 117t137.5 40q93 0 162 -30z" />
    <glyph glyph-name="Scaron" unicode="&#x160;" horiz-adv-x="555" 
d="M475 698l-23 -95q-74 28 -155 28q-54 0 -91.5 -22t-37.5 -71q0 -41 31 -67t111 -59q104 -42 152.5 -89.5t48.5 -130.5q0 -100 -73 -152t-179 -52q-115 0 -214 40l24 97q94 -42 188 -42q64 0 101 25.5t37 75.5q0 44 -36.5 72.5t-119.5 62.5q-94 38 -141 87t-47 122
q0 97 72.5 147.5t169.5 50.5q105 0 182 -28zM113 907h92l82 -93l83 93h93l-116 -149h-117z" />
    <glyph glyph-name="scaron" unicode="&#x161;" horiz-adv-x="481" 
d="M409 510l-26 -85q-64 28 -137 28q-36 0 -61 -14.5t-25 -44.5q0 -27 22 -44t84 -38q86 -29 128 -67t42 -102q0 -80 -60 -117.5t-146 -37.5q-103 0 -188 37l25 88q87 -38 164 -38q97 0 97 62q0 29 -27 47.5t-93 40.5q-80 27 -118 65t-38 93q0 77 57.5 117t137.5 40
q93 0 162 -30zM83 767h88l79 -110l78 110h89l-110 -164h-114z" />
    <glyph glyph-name="uni0162" unicode="&#x162;" horiz-adv-x="542" 
d="M215 0v619h-203v95h518v-95h-198v-619h-117zM339 -57l-101 -160h-83l61 160h123z" />
    <glyph glyph-name="uni0163" unicode="&#x163;" horiz-adv-x="361" 
d="M14 441v87h88v137h114v-137h116v-87h-116v-276q0 -54 11 -69t52 -15q20 0 52 4v-85q-46 -6 -86 -6q-86 0 -114.5 35t-28.5 115v297h-88zM278 -57l-101 -160h-83l61 160h123z" />
    <glyph glyph-name="Tcaron" unicode="&#x164;" horiz-adv-x="542" 
d="M215 0v619h-203v95h518v-95h-198v-619h-117zM98 907h92l82 -93l83 93h93l-116 -149h-117z" />
    <glyph glyph-name="tcaron" unicode="&#x165;" horiz-adv-x="361" 
d="M14 441v87h88v137h114v-137h116v-87h-116v-276q0 -54 11 -69t52 -15q20 0 52 4v-85q-46 -6 -86 -6q-86 0 -114.5 35t-28.5 115v297h-88zM388 768l-37 -164h-65l13 164h89z" />
    <glyph glyph-name="Tbar" unicode="&#x166;" horiz-adv-x="542" 
d="M215 0v368h-106v66h106v185h-203v95h518v-95h-198v-185h104v-66h-104v-368h-117z" />
    <glyph glyph-name="tbar" unicode="&#x167;" horiz-adv-x="361" 
d="M14 441v87h88v137h114v-137h116v-87h-116v-136h88v-64h-88v-76q0 -54 11 -69t52 -15q20 0 52 4v-85q-46 -6 -86 -6q-86 0 -114.5 35t-28.5 115v97h-74v64h74v136h-88z" />
    <glyph glyph-name="Utilde" unicode="&#x168;" horiz-adv-x="692" 
d="M620 714v-503q0 -103 -75 -163t-199 -60q-123 0 -198.5 60.5t-75.5 162.5v503h117v-489q0 -71 41 -106.5t115 -35.5q73 0 115.5 37.5t42.5 104.5v489h117zM365 868q36 -26 55 -26q33 0 36 60h71q-3 -63 -27.5 -101t-71.5 -38q-36 0 -84 32q-41 28 -60 28q-34 0 -37 -59
h-71q4 64 30 101t71 37q40 0 88 -34z" />
    <glyph glyph-name="utilde" unicode="&#x169;" horiz-adv-x="615" 
d="M539 0h-111v74h-2q-21 -41 -65 -63.5t-97 -22.5q-89 0 -141 52.5t-52 139.5v348h114v-305q0 -73 25 -110.5t87 -37.5q53 0 90.5 40t37.5 121v292h114v-528zM324 716q37 -27 55 -27q33 0 36 60h71q-3 -63 -27.5 -100.5t-71.5 -37.5q-37 0 -84 31q-43 29 -60 29
q-34 0 -37 -60h-71q4 64 30 101t71 37q39 0 88 -33z" />
    <glyph glyph-name="Umacron" unicode="&#x16a;" horiz-adv-x="692" 
d="M620 714v-503q0 -103 -75 -163t-199 -60q-123 0 -198.5 60.5t-75.5 162.5v503h117v-489q0 -71 41 -106.5t115 -35.5q73 0 115.5 37.5t42.5 104.5v489h117zM482 874v-78h-271v78h271z" />
    <glyph glyph-name="umacron" unicode="&#x16b;" horiz-adv-x="615" 
d="M539 0h-111v74h-2q-21 -41 -65 -63.5t-97 -22.5q-89 0 -141 52.5t-52 139.5v348h114v-305q0 -73 25 -110.5t87 -37.5q53 0 90.5 40t37.5 121v292h114v-528zM441 716v-78h-271v78h271z" />
    <glyph glyph-name="Ubreve" unicode="&#x16c;" horiz-adv-x="692" 
d="M620 714v-503q0 -103 -75 -163t-199 -60q-123 0 -198.5 60.5t-75.5 162.5v503h117v-489q0 -71 41 -106.5t115 -35.5q73 0 115.5 37.5t42.5 104.5v489h117zM345 836q78 0 81 76h82q-3 -66 -41 -107.5t-122 -41.5q-80 0 -119 42t-41 107h81q2 -76 79 -76z" />
    <glyph glyph-name="ubreve" unicode="&#x16d;" horiz-adv-x="615" 
d="M539 0h-111v74h-2q-21 -41 -65 -63.5t-97 -22.5q-89 0 -141 52.5t-52 139.5v348h114v-305q0 -73 25 -110.5t87 -37.5q53 0 90.5 40t37.5 121v292h114v-528zM302 676q77 0 81 76h82q-3 -66 -41 -107.5t-122 -41.5q-80 0 -119 42t-41 107h81q2 -76 79 -76z" />
    <glyph glyph-name="Uring" unicode="&#x16e;" horiz-adv-x="692" 
d="M620 714v-503q0 -103 -75 -163t-199 -60q-123 0 -198.5 60.5t-75.5 162.5v503h117v-489q0 -71 41 -106.5t115 -35.5q73 0 115.5 37.5t42.5 104.5v489h117zM347 949q44 0 73.5 -30.5t29.5 -74.5t-29.5 -73.5t-74.5 -29.5q-44 0 -74 29.5t-30 73.5t30.5 74.5t74.5 30.5z
M346 902q-24 0 -40 -17t-16 -41q0 -25 16 -41t40 -16t40.5 16t16.5 41q0 24 -16.5 41t-40.5 17z" />
    <glyph glyph-name="uring" unicode="&#x16f;" horiz-adv-x="615" 
d="M539 0h-111v74h-2q-21 -41 -65 -63.5t-97 -22.5q-89 0 -141 52.5t-52 139.5v348h114v-305q0 -73 25 -110.5t87 -37.5q53 0 90.5 40t37.5 121v292h114v-528zM306 798q44 0 73.5 -30t29.5 -74q0 -45 -29.5 -74.5t-74.5 -29.5q-44 0 -74 29.5t-30 74.5q0 44 30.5 74t74.5 30
zM305 751q-24 0 -40 -16.5t-16 -40.5q0 -25 16 -41.5t40 -16.5t40.5 16.5t16.5 41.5q0 24 -16.5 40.5t-40.5 16.5z" />
    <glyph glyph-name="Uhungarumlaut" unicode="&#x170;" horiz-adv-x="692" 
d="M620 714v-503q0 -103 -75 -163t-199 -60q-123 0 -198.5 60.5t-75.5 162.5v503h117v-489q0 -71 41 -106.5t115 -35.5q73 0 115.5 37.5t42.5 104.5v489h117zM391 905l-98 -142h-82l72 142h108zM557 905l-109 -142h-86l80 142h115z" />
    <glyph glyph-name="uhungarumlaut" unicode="&#x171;" horiz-adv-x="615" 
d="M539 0h-111v74h-2q-21 -41 -65 -63.5t-97 -22.5q-89 0 -141 52.5t-52 139.5v348h114v-305q0 -73 25 -110.5t87 -37.5q53 0 90.5 40t37.5 121v292h114v-528zM372 768l-107 -164h-80l80 164h107zM536 768l-118 -164h-83l88 164h113z" />
    <glyph glyph-name="Uogonek" unicode="&#x172;" horiz-adv-x="692" 
d="M620 714v-503q0 -91 -59.5 -149t-160.5 -70q-56 -61 -56 -99q0 -35 41 -35q30 0 55 12l10 -60q-33 -16 -80 -16q-45 0 -76 19.5t-31 63.5q0 57 63 112q-115 5 -184.5 64.5t-69.5 157.5v503h117v-489q0 -71 41 -106.5t115 -35.5q73 0 115.5 37.5t42.5 104.5v489h117z" />
    <glyph glyph-name="uogonek" unicode="&#x173;" horiz-adv-x="615" 
d="M539 0h-43q-64 -68 -64 -107q0 -35 41 -35q28 0 55 12l10 -60q-33 -16 -80 -16q-45 0 -76 19.5t-31 63.5q0 62 77 123v74h-2q-21 -41 -65 -63.5t-97 -22.5q-89 0 -141 52.5t-52 139.5v348h114v-305q0 -73 25 -110.5t87 -37.5q53 0 90.5 40t37.5 121v292h114v-528z" />
    <glyph glyph-name="Wcircumflex" unicode="&#x174;" horiz-adv-x="967" 
d="M601 0l-116 614h-2l-118 -614h-165l-164 714h126l123 -609h2l110 609h175l110 -609h2l125 609h122l-165 -714h-165zM660 758h-93l-82 93l-82 -93h-94l117 149h117z" />
    <glyph glyph-name="wcircumflex" unicode="&#x175;" horiz-adv-x="833" 
d="M491 528l100 -427h2l99 427h118l-146 -528h-146l-100 432h-2l-102 -432h-146l-145 528h119l101 -427h2l97 427h149zM584 604h-88l-80 109l-78 -109h-88l110 164h114z" />
    <glyph glyph-name="Ycircumflex" unicode="&#x176;" horiz-adv-x="642" 
d="M263 0v281l-262 433h137l185 -323l186 323h132l-261 -433v-281h-117zM499 758h-93l-82 93l-82 -93h-94l117 149h117z" />
    <glyph glyph-name="ycircumflex" unicode="&#x177;" horiz-adv-x="539" 
d="M129 528l142 -389h2l141 389h120l-287 -723h-120l85 206l-207 517h124zM440 604h-88l-80 109l-78 -109h-88l110 164h114z" />
    <glyph glyph-name="Ydieresis" unicode="&#x178;" horiz-adv-x="642" 
d="M263 0v281l-262 433h137l185 -323l186 323h132l-261 -433v-281h-117zM280 895v-109h-105v109h105zM472 895v-109h-106v109h106z" />
    <glyph glyph-name="Zacute" unicode="&#x179;" horiz-adv-x="593" 
d="M42 95l364 524h-337v95h473v-95l-364 -524h374v-95h-510v95zM460 903l-125 -140h-89l87 140h127z" />
    <glyph glyph-name="zacute" unicode="&#x17a;" horiz-adv-x="501" 
d="M41 83l277 358h-256v87h389v-85l-275 -356h286v-87h-421v83zM415 768l-127 -164h-84l91 164h120z" />
    <glyph glyph-name="Zdotaccent" unicode="&#x17b;" horiz-adv-x="593" 
d="M42 95l364 524h-337v95h473v-95l-364 -524h374v-95h-510v95zM371 894v-113h-121v113h121z" />
    <glyph glyph-name="zdotaccent" unicode="&#x17c;" horiz-adv-x="501" 
d="M41 83l277 358h-256v87h389v-85l-275 -356h286v-87h-421v83zM322 736v-113h-121v113h121z" />
    <glyph glyph-name="Zcaron" unicode="&#x17d;" horiz-adv-x="593" 
d="M42 95l364 524h-337v95h473v-95l-364 -524h374v-95h-510v95zM135 907h92l82 -93l83 93h93l-116 -149h-117z" />
    <glyph glyph-name="zcaron" unicode="&#x17e;" horiz-adv-x="501" 
d="M41 83l277 358h-256v87h389v-85l-275 -356h286v-87h-421v83zM98 767h88l79 -110l78 110h89l-110 -164h-114z" />
    <glyph glyph-name="florin" unicode="&#x192;" horiz-adv-x="555" 
d="M468 419v-87h-136l-48 -305q-25 -160 -180 -160q-44 0 -86 15l18 88q31 -11 63 -11q36 0 53 20.5t24 65.5l46 287h-119v87h133l22 139q27 167 188 167q54 0 94 -15l-27 -89q-27 13 -63 13q-39 0 -57.5 -24t-26.5 -69l-20 -122h122z" />
    <glyph glyph-name="uni01A0" unicode="&#x1a0;" horiz-adv-x="765" 
d="M592 356q0 120 -53.5 197.5t-155.5 77.5t-156 -77.5t-54 -197.5q0 -119 54 -196t156 -77t155.5 77t53.5 196zM642 739q0 28 -16 58l85 23q20 -39 20 -83q0 -98 -112 -110q90 -99 90 -271q0 -165 -86.5 -266.5t-239.5 -101.5t-240 102t-87 266q0 166 86 268t241 102
q58 0 122 -20q53 -16 81 -16q56 0 56 49z" />
    <glyph glyph-name="uni01A1" unicode="&#x1a1;" horiz-adv-x="616" 
d="M451 265q0 86 -36 137t-107 51t-107 -51t-36 -137q0 -87 36.5 -138.5t106.5 -51.5q71 0 107 51t36 139zM589 565q0 -90 -87 -105q63 -71 63 -195q0 -128 -69.5 -202.5t-187.5 -74.5t-187.5 74.5t-69.5 202.5t69.5 201.5t187.5 73.5q42 0 82 -11q42 -11 62 -11q48 0 48 49
q0 28 -16 58l85 23q20 -39 20 -83z" />
    <glyph glyph-name="uni01AF" unicode="&#x1af;" horiz-adv-x="692" 
d="M649 763q0 28 -16 58l85 23q20 -39 20 -83q0 -106 -118 -109v-441q0 -103 -75 -163t-199 -60q-123 0 -198.5 60.5t-75.5 162.5v503h117v-489q0 -71 41 -106.5t115 -35.5q73 0 115.5 37.5t42.5 104.5v489h99q47 0 47 49z" />
    <glyph glyph-name="uni01B0" unicode="&#x1b0;" horiz-adv-x="615" 
d="M567 577q0 28 -16 58l85 23q20 -39 20 -83q0 -106 -117 -109v-466h-111v74h-2q-21 -41 -65 -63.5t-97 -22.5q-89 0 -141 52.5t-52 139.5v348h114v-305q0 -73 25 -110.5t87 -37.5q53 0 90.5 40t37.5 121v292h95q47 0 47 49z" />
    <glyph glyph-name="Scommaaccent" unicode="&#x218;" horiz-adv-x="555" 
d="M475 698l-23 -95q-74 28 -155 28q-54 0 -91.5 -22t-37.5 -71q0 -41 31 -67t111 -59q104 -42 152.5 -89.5t48.5 -130.5q0 -100 -73 -152t-179 -52q-115 0 -214 40l24 97q94 -42 188 -42q64 0 101 25.5t37 75.5q0 44 -36.5 72.5t-119.5 62.5q-94 38 -141 87t-47 122
q0 97 72.5 147.5t169.5 50.5q105 0 182 -28zM342 -57l-101 -160h-83l61 160h123z" />
    <glyph glyph-name="scommaaccent" unicode="&#x219;" horiz-adv-x="481" 
d="M409 510l-26 -85q-64 28 -137 28q-36 0 -61 -14.5t-25 -44.5q0 -27 22 -44t84 -38q86 -29 128 -67t42 -102q0 -80 -60 -117.5t-146 -37.5q-103 0 -188 37l25 88q87 -38 164 -38q97 0 97 62q0 29 -27 47.5t-93 40.5q-80 27 -118 65t-38 93q0 77 57.5 117t137.5 40
q93 0 162 -30zM313 -57l-101 -160h-83l61 160h123z" />
    <glyph glyph-name="uni021A" unicode="&#x21a;" horiz-adv-x="542" 
d="M215 0v619h-203v95h518v-95h-198v-619h-117zM339 -57l-101 -160h-83l61 160h123z" />
    <glyph glyph-name="uni021B" unicode="&#x21b;" horiz-adv-x="361" 
d="M14 441v87h88v137h114v-137h116v-87h-116v-276q0 -54 11 -69t52 -15q20 0 52 4v-85q-46 -6 -86 -6q-86 0 -114.5 35t-28.5 115v297h-88zM278 -57l-101 -160h-83l61 160h123z" />
    <glyph glyph-name="dotlessj" unicode="&#x237;" horiz-adv-x="267" 
d="M190 528v-563q0 -160 -163 -160q-35 0 -63 4v87q24 -4 46 -4q38 0 52 20.5t14 65.5v550h114z" />
    <glyph glyph-name="circumflex" unicode="&#x2c6;" 
d="M398 604h-88l-80 109l-78 -109h-88l110 164h114z" />
    <glyph glyph-name="caron" unicode="&#x2c7;" 
d="M64 767h88l79 -110l78 110h89l-110 -164h-114z" />
    <glyph glyph-name="uni02C9" unicode="&#x2c9;" 
d="M368 781v-78h-271v78h271z" />
    <glyph glyph-name="breve" unicode="&#x2d8;" 
d="M230 676q77 0 81 76h82q-3 -66 -41 -107.5t-122 -41.5q-80 0 -119 42t-41 107h81q2 -76 79 -76z" />
    <glyph glyph-name="dotaccent" unicode="&#x2d9;" 
d="M293 736v-113h-121v113h121z" />
    <glyph glyph-name="ring" unicode="&#x2da;" 
d="M232 798q44 0 73.5 -30t29.5 -74q0 -45 -29.5 -74.5t-74.5 -29.5q-44 0 -74 29.5t-30 74.5q0 44 30.5 74t74.5 30zM231 751q-24 0 -40 -16.5t-16 -40.5q0 -25 16 -41.5t40 -16.5t40.5 16.5t16.5 41.5q0 24 -16.5 40.5t-40.5 16.5z" />
    <glyph glyph-name="ogonek" unicode="&#x2db;" 
d="M231 8h66q-72 -73 -72 -115q0 -35 41 -35q28 0 55 12l10 -60q-33 -16 -80 -16q-45 0 -76 19.5t-31 63.5q0 65 87 131z" />
    <glyph glyph-name="tilde" unicode="&#x2dc;" 
d="M246 716q37 -27 55 -27q33 0 36 60h71q-3 -63 -27.5 -100.5t-71.5 -37.5q-37 0 -84 31q-43 29 -60 29q-34 0 -37 -60h-71q4 64 30 101t71 37q39 0 88 -33z" />
    <glyph glyph-name="hungarumlaut" unicode="&#x2dd;" 
d="M274 768l-107 -164h-80l80 164h107zM438 768l-118 -164h-83l88 164h113z" />
    <glyph glyph-name="gravecomb" unicode="&#x300;" horiz-adv-x="0" 
d="M-108 604l-128 164h121l91 -164h-84z" />
    <glyph glyph-name="acutecomb" unicode="&#x301;" horiz-adv-x="0" 
d="M-19 768l-127 -164h-84l91 164h120z" />
    <glyph glyph-name="circumflexcomb" unicode="&#x302;" horiz-adv-x="0" 
d="M38 604h-88l-80 109l-78 -109h-88l110 164h114z" />
    <glyph glyph-name="tildecomb" unicode="&#x303;" horiz-adv-x="0" 
d="M-111 716q37 -27 55 -27q33 0 36 60h71q-3 -63 -27.5 -100.5t-71.5 -37.5q-38 0 -84 31q-43 29 -60 29q-34 0 -37 -60h-71q4 64 30 101t71 37q39 0 88 -33z" />
    <glyph glyph-name="dieresiscomb" unicode="&#x308;" horiz-adv-x="0" 
d="M-171 732v-107h-105v107h105zM21 732v-107h-106v107h106z" />
    <glyph glyph-name="hookcmb" unicode="&#x309;" horiz-adv-x="0" 
d="M-110 607h-74q0 27 8 41t30 25q32 16 32 32q0 24 -39 24q-26 0 -56 -11l-16 58q41 17 85 17q47 0 76.5 -20t29.5 -62q0 -48 -47 -72q-19 -10 -24 -16t-5 -16z" />
    <glyph glyph-name="dotbelowcmb" unicode="&#x323;" horiz-adv-x="0" 
d="M-71 -95v-113h-121v113h121z" />
    <glyph glyph-name="uni0374" unicode="&#x374;" horiz-adv-x="484" 
d="M340 736l-106 -204h-83l51 204h138z" />
    <glyph glyph-name="uni0375" unicode="&#x375;" horiz-adv-x="484" 
d="M151 -184l106 204h83l-51 -204h-138z" />
    <glyph glyph-name="uni037E" unicode="&#x37e;" horiz-adv-x="348" 
d="M110 399v129h128v-129h-128zM76 -134l42 261h120l-86 -261h-76z" />
    <glyph glyph-name="tonos" unicode="&#x384;" horiz-adv-x="429" 
d="M337 770l-106 -164h-79l51 164h134z" />
    <glyph glyph-name="dieresistonos" unicode="&#x385;" horiz-adv-x="579" 
d="M188 732v-107h-105v107h105zM496 732v-107h-106v107h106zM378 770l-85 -164h-72l30 164h127z" />
    <glyph glyph-name="Alphatonos" unicode="&#x386;" horiz-adv-x="692" 
d="M182 714l-106 -164h-79l51 164h134zM198 194l-71 -194h-125l265 714h159l264 -714h-126l-73 194h-293zM345 624l-118 -334h235z" />
    <glyph glyph-name="anoteleia" unicode="&#x387;" horiz-adv-x="292" 
d="M82 237v130h128v-130h-128z" />
    <glyph glyph-name="Epsilontonos" unicode="&#x388;" horiz-adv-x="550" 
d="M20 714l-106 -164h-79l51 164h134zM83 0v714h411v-95h-294v-205h271v-96h-271v-223h303v-95h-420z" />
    <glyph glyph-name="Etatonos" unicode="&#x389;" horiz-adv-x="708" 
d="M20 714l-106 -164h-79l51 164h134zM83 0v714h117v-300h308v300h117v-714h-117v318h-308v-318h-117z" />
    <glyph glyph-name="Iotatonos" unicode="&#x38a;" horiz-adv-x="283" 
d="M20 714l-106 -164h-79l51 164h134zM83 0v714h117v-714h-117z" />
    <glyph glyph-name="Omicrontonos" unicode="&#x38c;" horiz-adv-x="766" 
d="M84 714l-106 -164h-79l51 164h134zM709 356q0 -165 -86.5 -266.5t-239.5 -101.5t-240 102t-87 266q0 166 86 268t241 102q154 0 240 -102t86 -268zM592 356q0 120 -53.5 197.5t-155.5 77.5t-156 -77.5t-54 -197.5q0 -119 54 -196t156 -77t155.5 77t53.5 196z" />
    <glyph glyph-name="Upsilontonos" unicode="&#x38e;" horiz-adv-x="643" 
d="M-58 714l-106 -164h-79l51 164h134zM263 0v281l-262 433h137l185 -323l186 323h132l-261 -433v-281h-117z" />
    <glyph glyph-name="Omegatonos" unicode="&#x38f;" horiz-adv-x="779" 
d="M389 631q-99 0 -150.5 -62t-51.5 -163q0 -180 152 -230v-176h-264v95h164v38q-169 71 -169 275q0 141 84.5 229.5t234.5 88.5q151 0 235.5 -88.5t84.5 -229.5q0 -206 -169 -275v-38h164v-95h-264v176q152 48 152 230q0 101 -51.5 163t-151.5 62zM95 714l-106 -164h-79
l51 164h134z" />
    <glyph glyph-name="iotadieresistonos" unicode="&#x390;" horiz-adv-x="336" 
d="M214 -6q-84 0 -112.5 35.5t-28.5 114.5v384h114v-363q0 -54 11 -69t51 -15q20 0 52 4v-85q-46 -6 -87 -6zM52 732v-107h-105v107h105zM360 732v-107h-106v107h106zM242 770l-85 -164h-72l30 164h127z" />
    <glyph glyph-name="Alpha" unicode="&#x391;" horiz-adv-x="692" 
d="M198 194l-71 -194h-125l265 714h159l264 -714h-126l-73 194h-293zM345 624l-118 -334h235z" />
    <glyph glyph-name="Beta" unicode="&#x392;" horiz-adv-x="639" 
d="M83 0v714h270q100 0 159.5 -45t59.5 -136q0 -123 -124 -161v-2q143 -35 143 -171q0 -86 -57.5 -142.5t-171.5 -56.5h-279zM200 619v-205h116q139 0 139 105q0 100 -131 100h-124zM200 318v-223h135q67 0 103 25t36 87q0 111 -159 111h-115z" />
    <glyph glyph-name="Gamma" unicode="&#x393;" horiz-adv-x="521" 
d="M200 619v-619h-117v714h402v-95h-285z" />
    <glyph glyph-name="uni0394" unicode="&#x394;" horiz-adv-x="700" 
d="M664 0h-628v95l235 619h159l234 -619v-95zM349 624l-188 -529h376z" />
    <glyph glyph-name="Epsilon" unicode="&#x395;" horiz-adv-x="550" 
d="M83 0v714h411v-95h-294v-205h271v-96h-271v-223h303v-95h-420z" />
    <glyph glyph-name="Zeta" unicode="&#x396;" horiz-adv-x="593" 
d="M42 95l364 524h-337v95h473v-95l-364 -524h374v-95h-510v95z" />
    <glyph glyph-name="Eta" unicode="&#x397;" horiz-adv-x="708" 
d="M83 0v714h117v-300h308v300h117v-714h-117v318h-308v-318h-117z" />
    <glyph glyph-name="Theta" unicode="&#x398;" horiz-adv-x="770" 
d="M713 356q0 -162 -85.5 -265t-242.5 -103q-156 0 -242.5 102t-86.5 266q0 163 85 266.5t244 103.5t243.5 -103.5t84.5 -266.5zM596 356q0 121 -54 198t-157 77t-157.5 -76.5t-54.5 -198.5q0 -119 54 -196t158 -77q105 0 158 77.5t53 195.5zM247 311v95h275v-95h-275z" />
    <glyph glyph-name="Iota" unicode="&#x399;" horiz-adv-x="283" 
d="M83 0v714h117v-714h-117z" />
    <glyph glyph-name="Kappa" unicode="&#x39a;" horiz-adv-x="621" 
d="M462 714h141l-275 -343l291 -371h-147l-271 356h-1v-356h-117v714h117v-335h1z" />
    <glyph glyph-name="Lambda" unicode="&#x39b;" horiz-adv-x="672" 
d="M544 0l-209 624l-208 -624h-125l255 714h159l254 -714h-126z" />
    <glyph glyph-name="Mu" unicode="&#x39c;" horiz-adv-x="899" 
d="M279 714l167 -605h3l169 605h198v-714h-111v620h-2l-185 -620h-146l-179 620h-2v-620h-108v714h196z" />
    <glyph glyph-name="Nu" unicode="&#x39d;" horiz-adv-x="719" 
d="M261 714l263 -596h2v596h110v-714h-173l-269 602h-2v-602h-109v714h178z" />
    <glyph glyph-name="Xi" unicode="&#x39e;" horiz-adv-x="607" 
d="M47 0v101h513v-101h-513zM83 313v101h441v-101h-441zM47 613v101h513v-101h-513z" />
    <glyph glyph-name="Omicron" unicode="&#x39f;" horiz-adv-x="765" 
d="M709 356q0 -165 -86.5 -266.5t-239.5 -101.5t-240 102t-87 266q0 166 86 268t241 102q154 0 240 -102t86 -268zM592 356q0 120 -53.5 197.5t-155.5 77.5t-156 -77.5t-54 -197.5q0 -119 54 -196t156 -77t155.5 77t53.5 196z" />
    <glyph glyph-name="Pi" unicode="&#x3a0;" horiz-adv-x="703" 
d="M83 0v714h537v-714h-117v619h-303v-619h-117z" />
    <glyph glyph-name="Rho" unicode="&#x3a1;" horiz-adv-x="619" 
d="M83 0v714h251q71 0 124 -18.5t88 -67.5t35 -126q0 -115 -68.5 -168.5t-177.5 -53.5h-135v-280h-117zM200 619v-243h123q141 0 141 122q0 69 -38.5 95t-110.5 26h-115z" />
    <glyph glyph-name="Sigma" unicode="&#x3a3;" horiz-adv-x="606" 
d="M44 0v93l200 270v2l-196 254v95h503v-95h-365l192 -252l-202 -272h386v-95h-518z" />
    <glyph glyph-name="Tau" unicode="&#x3a4;" horiz-adv-x="542" 
d="M215 0v619h-203v95h518v-95h-198v-619h-117z" />
    <glyph glyph-name="Upsilon" unicode="&#x3a5;" horiz-adv-x="642" 
d="M263 0v281l-262 433h137l185 -323l186 323h132l-261 -433v-281h-117z" />
    <glyph glyph-name="Phi" unicode="&#x3a6;" horiz-adv-x="851" 
d="M367 -20v72q-157 8 -238.5 86.5t-81.5 223.5q0 134 75.5 215.5t244.5 90.5v73h117v-73q91 -5 156 -32t99.5 -71t49.5 -93.5t15 -109.5q0 -136 -77 -218.5t-243 -91.5v-72h-117zM367 146v429q-204 0 -204 -215q0 -214 204 -214zM484 146q204 1 204 214q0 102 -50 158.5
t-154 56.5v-429z" />
    <glyph glyph-name="Chi" unicode="&#x3a7;" horiz-adv-x="627" 
d="M608 714l-217 -343l234 -371h-138l-174 287l-175 -287h-136l237 371l-215 343h135l157 -262l161 262h131z" />
    <glyph glyph-name="Psi" unicode="&#x3a8;" horiz-adv-x="826" 
d="M354 0v118q-141 2 -213 62t-72 198v336h116v-329q0 -92 37 -129.5t132 -41.5v500h117v-500q103 3 136.5 44.5t33.5 126.5v329h116v-336q0 -139 -73 -198.5t-213 -61.5v-118h-117z" />
    <glyph glyph-name="uni03A9" unicode="&#x3a9;" horiz-adv-x="779" 
d="M389 631q-99 0 -150.5 -62t-51.5 -163q0 -180 152 -230v-176h-264v95h164v38q-169 71 -169 275q0 141 84.5 229.5t234.5 88.5q151 0 235.5 -88.5t84.5 -229.5q0 -206 -169 -275v-38h164v-95h-264v176q152 48 152 230q0 101 -51.5 163t-151.5 62z" />
    <glyph glyph-name="Iotadieresis" unicode="&#x3aa;" horiz-adv-x="283" 
d="M98 895v-109h-105v109h105zM290 895v-109h-106v109h106zM83 0v714h117v-714h-117z" />
    <glyph glyph-name="Upsilondieresis" unicode="&#x3ab;" horiz-adv-x="643" 
d="M278 895v-109h-105v109h105zM470 895v-109h-106v109h106zM263 0v281l-262 433h137l185 -323l186 323h132l-261 -433v-281h-117z" />
    <glyph glyph-name="alphatonos" unicode="&#x3ac;" horiz-adv-x="684" 
d="M617 528q-17 -159 -81 -316l16 -60q8 -44 23.5 -57.5t43.5 -13.5q4 0 25 3v-84q-26 -6 -53 -6q-53 0 -82.5 17.5t-41.5 67.5l-3 17h-2q-56 -108 -183 -108q-60 0 -105.5 24.5t-71.5 65t-38.5 88t-12.5 98.5q0 117 61.5 196.5t174.5 79.5q88 0 136 -44t61 -119h2
q19 71 28 151h103zM165 264q0 -89 36 -139t93 -50q70 0 100 55t30 134q0 98 -37 143.5t-93 45.5q-51 0 -90 -46.5t-39 -142.5zM462 770l-106 -164h-79l51 164h134z" />
    <glyph glyph-name="epsilontonos" unicode="&#x3ad;" horiz-adv-x="506" 
d="M156 277v2q-92 28 -92 114q0 62 52 104.5t165 42.5q110 0 174 -31l-21 -87q-62 29 -147 29q-116 0 -116 -68q0 -66 120 -66l80 2v-87q-60 1 -81 1q-130 0 -130 -77q0 -78 124 -78q90 0 163 28l18 -84q-76 -34 -185 -34q-106 0 -170 38.5t-64 117.5q0 108 110 133z
M427 770l-106 -164h-79l51 164h134z" />
    <glyph glyph-name="etatonos" unicode="&#x3ae;" horiz-adv-x="616" 
d="M76 0v409q0 76 -9 119h109q9 -31 11 -74h2q21 41 65 63.5t98 22.5q89 0 140.5 -52t51.5 -140v-543h-114v500q0 73 -24.5 110.5t-86.5 37.5q-53 0 -91 -40t-38 -121v-292h-114zM440 770l-106 -164h-79l51 164h134z" />
    <glyph glyph-name="iotatonos" unicode="&#x3af;" horiz-adv-x="336" 
d="M214 -6q-84 0 -112.5 35.5t-28.5 114.5v384h114v-363q0 -54 11 -69t51 -15q20 0 52 4v-85q-46 -6 -87 -6zM276 770l-106 -164h-79l51 164h134z" />
    <glyph glyph-name="upsilondieresistonos" unicode="&#x3b0;" horiz-adv-x="595" 
d="M294 -12q-226 0 -226 217v323h114v-327q0 -126 117 -126q34 0 58 11.5t37 29t20.5 46t9.5 54.5t2 63q0 128 -36 249h111q15 -31 27 -97.5t12 -141.5q0 -51 -5.5 -91.5t-21.5 -81t-42.5 -67.5t-71.5 -44t-105 -17zM185 732v-107h-105v107h105zM493 732v-107h-106v107h106z
M375 770l-85 -164h-72l30 164h127z" />
    <glyph glyph-name="alpha" unicode="&#x3b1;" horiz-adv-x="684" 
d="M617 528q-17 -159 -81 -316l16 -60q8 -44 23.5 -57.5t43.5 -13.5q4 0 25 3v-84q-26 -6 -53 -6q-53 0 -82.5 17.5t-41.5 67.5l-3 17h-2q-56 -108 -183 -108q-60 0 -105.5 24.5t-71.5 65t-38.5 88t-12.5 98.5q0 117 61.5 196.5t174.5 79.5q88 0 136 -44t61 -119h2
q19 71 28 151h103zM165 264q0 -89 36 -139t93 -50q70 0 100 55t30 134q0 98 -37 143.5t-93 45.5q-51 0 -90 -46.5t-39 -142.5z" />
    <glyph glyph-name="beta" unicode="&#x3b2;" horiz-adv-x="632" 
d="M76 -195v677q0 253 233 253q112 0 170 -49.5t58 -134.5q0 -57 -30 -98t-71 -55v-2q68 -14 106.5 -63t38.5 -127q0 -92 -58.5 -155t-163.5 -63q-113 0 -167 77h-2v-260h-114zM334 75q53 0 90.5 32.5t37.5 99.5q0 138 -162 138q-28 0 -41 -1v90q10 -1 35 -1q69 0 100.5 31
t31.5 78q0 55 -32 80.5t-85 25.5q-119 0 -119 -139v-266q0 -80 40 -124t104 -44z" />
    <glyph glyph-name="gamma" unicode="&#x3b3;" horiz-adv-x="561" 
d="M231 -195q1 0 1 137q0 9 -89 246l-125 340h120q52 -137 152 -444h4q119 250 120 427v17h109v-13q-1 -245 -184 -545q5 -30 5 -81q0 -26 -4 -84h-109z" />
    <glyph glyph-name="delta" unicode="&#x3b4;" horiz-adv-x="587" 
d="M296 -12q-113 0 -179 67.5t-66 176.5q0 187 169 256v2q-40 29 -58 55t-18 60q0 55 46.5 92.5t139.5 37.5q90 0 163 -21l-9 -95q-90 24 -150 24q-67 0 -67 -41q0 -18 14.5 -31.5t62.5 -44.5l22 -14q97 -62 136 -124.5t39 -145.5q0 -110 -65.5 -182t-179.5 -72zM296 75
q64 0 100 42t36 125q0 119 -118 190l-13 7q-66 -23 -103 -76t-37 -127t35.5 -117.5t99.5 -43.5z" />
    <glyph glyph-name="epsilon" unicode="&#x3b5;" horiz-adv-x="506" 
d="M156 277v2q-92 28 -92 114q0 62 52 104.5t165 42.5q110 0 174 -31l-21 -87q-62 29 -147 29q-116 0 -116 -68q0 -66 120 -66l80 2v-87q-60 1 -81 1q-130 0 -130 -77q0 -78 124 -78q90 0 163 28l18 -84q-76 -34 -185 -34q-106 0 -170 38.5t-64 117.5q0 108 110 133z" />
    <glyph glyph-name="zeta" unicode="&#x3b6;" horiz-adv-x="479" 
d="M322 -184q30 75 30 113q0 28 -14.5 42t-63.5 30q-122 38 -175 99.5t-53 166.5q0 116 62.5 215t171.5 159v2h-202v92h377v-82q-155 -77 -225 -176t-70 -200q0 -74 34.5 -112t131.5 -71q78 -27 105.5 -54t27.5 -81q0 -65 -37 -143h-100z" />
    <glyph glyph-name="eta" unicode="&#x3b7;" horiz-adv-x="616" 
d="M76 0v409q0 76 -9 119h109q9 -31 11 -74h2q21 41 65 63.5t98 22.5q89 0 140.5 -52t51.5 -140v-543h-114v500q0 73 -24.5 110.5t-86.5 37.5q-53 0 -91 -40t-38 -121v-292h-114z" />
    <glyph glyph-name="theta" unicode="&#x3b8;" horiz-adv-x="621" 
d="M310 -12q-257 0 -257 374q0 175 62 274t195 99q122 0 190 -90.5t68 -282.5q0 -374 -258 -374zM310 75q71 0 107.5 55t37.5 185h-289q1 -135 38 -187.5t106 -52.5zM166 404h289q-6 244 -144 244q-75 0 -108.5 -63t-36.5 -181z" />
    <glyph glyph-name="iota" unicode="&#x3b9;" horiz-adv-x="336" 
d="M214 -6q-84 0 -112.5 35.5t-28.5 114.5v384h114v-363q0 -54 11 -69t51 -15q20 0 52 4v-85q-46 -6 -87 -6z" />
    <glyph glyph-name="kappa" unicode="&#x3ba;" horiz-adv-x="566" 
d="M190 0h-114v528h114v-235h2l148 172q37 43 63 57t63 14q26 0 53 -5l-9 -97q-16 3 -31 3q-16 0 -31.5 -9.5t-25 -19.5t-27.5 -31l-56 -66l202 -311h-121l-152 230l-78 -85v-145z" />
    <glyph glyph-name="lambda" unicode="&#x3bb;" horiz-adv-x="601" 
d="M135 0h-115l233 504l-32 87q-11 31 -25 43.5t-40 12.5q-11 0 -39 -6l-8 85q32 9 69 9q59 0 90 -23.5t55 -90.5l184 -501q8 -22 18.5 -30.5t28.5 -8.5t27 2v-85q-29 -4 -54 -4q-50 0 -74.5 16t-40.5 60l-112 305h-2z" />
    <glyph glyph-name="uni03BC" unicode="&#x3bc;" horiz-adv-x="644" 
d="M435 78h-2q-20 -44 -59.5 -67t-91.5 -23q-66 0 -90 27h-2v-210h-114v723h114v-305q0 -74 25 -111t86 -37q54 0 91.5 40t37.5 121v292h114v-380q0 -41 9.5 -54t32.5 -13q16 0 23 3v-85q-28 -5 -55 -5q-103 0 -119 84z" />
    <glyph glyph-name="nu" unicode="&#x3bd;" horiz-adv-x="544" 
d="M200 0l-182 528h120l139 -436h4q116 248 116 419v17h109v-14q0 -230 -165 -514h-141z" />
    <glyph glyph-name="xi" unicode="&#x3be;" horiz-adv-x="497" 
d="M330 -184q30 74 30 113q0 29 -16 43t-77 34q-126 42 -172.5 86t-46.5 120q0 62 34.5 107.5t95.5 62.5v2q-50 18 -74.5 52.5t-24.5 76.5q0 49 24 82t67 46v2h-102v92h387v-90l-105 -6q-93 -5 -129.5 -33t-36.5 -75q0 -96 151 -96l81 1v-97q-63 1 -87 1q-167 0 -167 -113
q0 -52 33 -74.5t136 -57.5q82 -28 109 -55.5t27 -80.5q0 -64 -37 -143h-100z" />
    <glyph glyph-name="omicron" unicode="&#x3bf;" horiz-adv-x="616" 
d="M565 265q0 -128 -69.5 -202.5t-187.5 -74.5t-187.5 74.5t-69.5 202.5t69.5 201.5t187.5 73.5q119 0 188 -73.5t69 -201.5zM451 265q0 86 -36 137t-107 51t-107 -51t-36 -137q0 -87 36.5 -138.5t106.5 -51.5q71 0 107 51t36 139z" />
    <glyph glyph-name="pi" unicode="&#x3c0;" horiz-adv-x="706" 
d="M543 439v-277q0 -51 11 -66t48 -15q18 0 40 4v-85q-33 -6 -72 -6q-78 0 -108.5 32.5t-30.5 108.5v304h-165l-45 -439h-117l52 439h-116v89h621v-89h-118z" />
    <glyph glyph-name="rho" unicode="&#x3c1;" horiz-adv-x="615" 
d="M63 -195v435q0 83 20.5 143t57 93.5t79.5 48.5t95 15q122 0 185.5 -74.5t63.5 -201.5q0 -116 -59 -196t-167 -80q-105 0 -159 77h-2v-260h-114zM316 75q62 0 98 51t36 138q0 84 -34.5 136.5t-101.5 52.5q-66 0 -104.5 -49t-38.5 -143q0 -81 39 -133.5t106 -52.5z" />
    <glyph glyph-name="sigma1" unicode="&#x3c2;" horiz-adv-x="499" 
d="M327 -184q30 78 30 114q0 27 -15 41t-64 30q-122 40 -174.5 101t-52.5 165q0 119 71.5 196t198.5 77q82 0 141 -22l-23 -93q-49 20 -110 20q-79 0 -121.5 -46t-42.5 -124q0 -70 33 -108t124 -70q83 -30 112.5 -55t29.5 -83q0 -63 -37 -143h-100z" />
    <glyph glyph-name="sigma" unicode="&#x3c3;" horiz-adv-x="651" 
d="M305 -12q-116 0 -185.5 74t-69.5 198q0 117 69 192.5t203 75.5h297v-89h-131v-2q71 -57 71 -177q0 -122 -68.5 -197t-185.5 -75zM304 75q74 0 108.5 53t34.5 132q0 77 -35.5 128t-100.5 51q-72 0 -109.5 -50.5t-37.5 -128.5q0 -82 36.5 -133.5t103.5 -51.5z" />
    <glyph glyph-name="tau" unicode="&#x3c4;" horiz-adv-x="525" 
d="M335 -6q-86 0 -114.5 35t-28.5 115v295h-156v89h450v-89h-180v-276q0 -53 11.5 -67.5t51.5 -14.5q13 0 43 4v-85q-46 -6 -77 -6z" />
    <glyph glyph-name="upsilon" unicode="&#x3c5;" horiz-adv-x="595" 
d="M294 -12q-226 0 -226 217v323h114v-327q0 -126 117 -126q34 0 58 11.5t37 29t20.5 46t9.5 54.5t2 63q0 128 -36 249h111q15 -31 27 -97.5t12 -141.5q0 -51 -5.5 -91.5t-21.5 -81t-42.5 -67.5t-71.5 -44t-105 -17z" />
    <glyph glyph-name="phi" unicode="&#x3c6;" horiz-adv-x="789" 
d="M338 -195v180q-136 4 -210.5 77.5t-74.5 201.5q0 130 76 202.5t209 76.5v141h113v-141q131 -4 208 -75.5t77 -202.5q0 -126 -72.5 -200.5t-212.5 -79.5v-180h-113zM338 71v386q-172 -7 -172 -193q0 -187 172 -193zM451 71q172 7 172 193q0 185 -172 193v-386z" />
    <glyph glyph-name="chi" unicode="&#x3c7;" horiz-adv-x="597" 
d="M41 -195l204 363l-112 219q-19 36 -32.5 47.5t-33.5 11.5q-14 0 -24 -4l-8 88q32 7 56 7q48 0 76.5 -17t53.5 -66l95 -189h2l135 263h122l-196 -355l112 -214q25 -48 40 -60.5t39 -12.5q14 0 22 2v-84q-30 -5 -44 -5q-50 0 -80.5 17.5t-56.5 68.5l-99 193h-1l-149 -273
h-121z" />
    <glyph glyph-name="psi" unicode="&#x3c8;" horiz-adv-x="765" 
d="M328 -195v183q-141 1 -200.5 60t-59.5 178v302h114v-310q0 -81 36 -112t110 -31v609h114v-609h5q82 0 115.5 46t33.5 153q0 137 -36 254h112q38 -87 38 -239q0 -63 -11 -113t-38.5 -94.5t-81 -69t-130.5 -24.5h-7v-183h-114z" />
    <glyph glyph-name="omega" unicode="&#x3c9;" horiz-adv-x="810" 
d="M254 -12q-194 0 -194 251q0 86 21 164t59 125h115q-81 -125 -81 -299q0 -154 87 -154q43 0 65 30.5t22 98.5v193h114v-193q0 -73 23 -101t64 -28q87 0 87 154q0 175 -81 299h115q38 -47 59 -124.5t21 -164.5q0 -251 -194 -251q-116 0 -150 98h-2q-35 -98 -150 -98z" />
    <glyph glyph-name="iotadieresis" unicode="&#x3ca;" horiz-adv-x="336" 
d="M214 -6q-84 0 -112.5 35.5t-28.5 114.5v384h114v-363q0 -54 11 -69t51 -15q20 0 52 4v-85q-46 -6 -87 -6zM86 732v-107h-105v107h105zM278 732v-107h-106v107h106z" />
    <glyph glyph-name="upsilondieresis" unicode="&#x3cb;" horiz-adv-x="595" 
d="M294 -12q-226 0 -226 217v323h114v-327q0 -126 117 -126q34 0 58 11.5t37 29t20.5 46t9.5 54.5t2 63q0 128 -36 249h111q15 -31 27 -97.5t12 -141.5q0 -51 -5.5 -91.5t-21.5 -81t-42.5 -67.5t-71.5 -44t-105 -17zM245 732v-107h-105v107h105zM437 732v-107h-106v107h106z
" />
    <glyph glyph-name="omicrontonos" unicode="&#x3cc;" horiz-adv-x="616" 
d="M456 770l-106 -164h-79l51 164h134zM565 265q0 -128 -69.5 -202.5t-187.5 -74.5t-187.5 74.5t-69.5 202.5t69.5 201.5t187.5 73.5q119 0 188 -73.5t69 -201.5zM451 265q0 86 -36 137t-107 51t-107 -51t-36 -137q0 -87 36.5 -138.5t106.5 -51.5q71 0 107 51t36 139z" />
    <glyph glyph-name="upsilontonos" unicode="&#x3cd;" horiz-adv-x="595" 
d="M294 -12q-226 0 -226 217v323h114v-327q0 -126 117 -126q34 0 58 11.5t37 29t20.5 46t9.5 54.5t2 63q0 128 -36 249h111q15 -31 27 -97.5t12 -141.5q0 -51 -5.5 -91.5t-21.5 -81t-42.5 -67.5t-71.5 -44t-105 -17zM427 770l-106 -164h-79l51 164h134z" />
    <glyph glyph-name="omegatonos" unicode="&#x3ce;" horiz-adv-x="810" 
d="M254 -12q-194 0 -194 251q0 86 21 164t59 125h115q-81 -125 -81 -299q0 -154 87 -154q43 0 65 30.5t22 98.5v193h114v-193q0 -73 23 -101t64 -28q87 0 87 154q0 175 -81 299h115q38 -47 59 -124.5t21 -164.5q0 -251 -194 -251q-116 0 -150 98h-2q-35 -98 -150 -98z
M552 770l-106 -164h-79l51 164h134z" />
    <glyph glyph-name="uni0400" unicode="&#x400;" horiz-adv-x="549" 
d="M83 0v714h411v-95h-294v-205h271v-96h-271v-223h303v-95h-420zM137 903h127l85 -140h-89z" />
    <glyph glyph-name="uni0401" unicode="&#x401;" horiz-adv-x="549" 
d="M83 0v714h411v-95h-294v-205h271v-96h-271v-223h303v-95h-420zM248 895v-109h-105v109h105zM440 895v-109h-106v109h106z" />
    <glyph glyph-name="uni0402" unicode="&#x402;" horiz-adv-x="776" 
d="M506 -5q-34 0 -72 5v94q26 -4 44 -4q144 0 144 128q0 61 -37.5 93t-98.5 32q-92 0 -155 -25v-318h-116v619h-203v95h517v-95h-198v-207q83 26 166 26q108 0 174.5 -55t66.5 -162q0 -112 -63 -169t-169 -57z" />
    <glyph glyph-name="uni0403" unicode="&#x403;" horiz-adv-x="503" 
d="M424 902l-124 -139h-89l87 139h126zM83 0v714h407v-95h-291v-619h-116z" />
    <glyph glyph-name="uni0404" unicode="&#x404;" horiz-adv-x="616" 
d="M409 -12q-165 0 -260 102t-95 267t94.5 267t261.5 102q95 0 168 -31l-27 -90q-60 26 -132 26q-110 0 -173.5 -61t-71.5 -156h286v-95h-289q8 -103 71.5 -169.5t176.5 -66.5q78 0 141 30l25 -90q-71 -35 -176 -35z" />
    <glyph glyph-name="uni0405" unicode="&#x405;" horiz-adv-x="555" 
d="M475 698l-23 -95q-74 28 -155 28q-54 0 -91.5 -22t-37.5 -71q0 -41 31 -67t111 -59q104 -42 152.5 -89.5t48.5 -130.5q0 -100 -73 -152t-179 -52q-115 0 -214 40l24 97q94 -42 188 -42q64 0 101 25.5t37 75.5q0 44 -36.5 72.5t-119.5 62.5q-94 38 -141 87t-47 122
q0 97 72.5 147.5t169.5 50.5q105 0 182 -28z" />
    <glyph glyph-name="uni0406" unicode="&#x406;" horiz-adv-x="283" 
d="M83 0v714h117v-714h-117z" />
    <glyph glyph-name="uni0407" unicode="&#x407;" horiz-adv-x="282" 
d="M83 0v714h117v-714h-117zM99 895v-109h-105v109h105zM291 895v-109h-106v109h106z" />
    <glyph glyph-name="uni0408" unicode="&#x408;" horiz-adv-x="337" 
d="M265 714v-548q0 -89 -44 -133.5t-140 -44.5q-46 0 -79 6v95q28 -6 61 -6q45 0 65 21t20 70v540h117z" />
    <glyph glyph-name="uni0409" unicode="&#x409;" horiz-adv-x="1067" 
d="M73 -5q-38 0 -65 5v96q18 -3 36 -3q34 0 57.5 13.5t39 42.5t25 72.5t14.5 107.5t7.5 143.5t4.5 182.5v20t0.5 18.5t0.5 20.5h450v-280h140q109 0 177.5 -52t68.5 -163q0 -117 -68 -168t-179 -51h-256v619h-221q-1 -104 -3.5 -174t-8.5 -141t-16.5 -115.5t-27 -85t-41 -62
t-58 -34t-77.5 -12.5zM643 95h119q72 0 111.5 27t39.5 97q0 120 -143 120h-127v-244z" />
    <glyph glyph-name="uni040A" unicode="&#x40a;" horiz-adv-x="1052" 
d="M83 0v714h116v-292h309v292h117v-292h146q108 0 175.5 -50.5t67.5 -158.5q0 -112 -67 -162.5t-177 -50.5h-262v327h-309v-327h-116zM625 95h124q71 0 110 26t39 91q0 115 -141 115h-132v-232z" />
    <glyph glyph-name="uni040B" unicode="&#x40b;" horiz-adv-x="779" 
d="M215 0v619h-203v95h517v-95h-198v-209q84 28 152 28q53 0 90 -8t72 -31t52.5 -69.5t17.5 -117.5v-212h-114v200q0 79 -32.5 111t-111.5 32q-56 0 -126 -27v-316h-116z" />
    <glyph glyph-name="uni040C" unicode="&#x40c;" horiz-adv-x="621" 
d="M462 714h141l-275 -343l291 -371h-147l-271 356h-1v-356h-117v714h117v-335h1zM469 903l-125 -140h-89l87 140h127z" />
    <glyph glyph-name="uni040D" unicode="&#x40d;" horiz-adv-x="728" 
d="M83 0v714h114v-564h2l293 564h153v-714h-114v571h-2l-298 -571h-148zM205 903h127l85 -140h-89z" />
    <glyph glyph-name="uni040E" unicode="&#x40e;" horiz-adv-x="646" 
d="M153 0l116 218l-268 496h131l200 -378l186 378h127l-363 -714h-129zM332 763q-83 0 -121 41.5t-41 107.5h81q3 -37 20.5 -57t60.5 -20q76 0 81 77h80q-2 -66 -40 -107.5t-121 -41.5z" />
    <glyph glyph-name="uni040F" unicode="&#x40f;" horiz-adv-x="699" 
d="M307 -162l-10 162h-214v714h116v-619h301v619h116v-714h-214l-9 -162h-86z" />
    <glyph glyph-name="uni0410" unicode="&#x410;" horiz-adv-x="692" 
d="M198 194l-71 -194h-125l265 714h159l264 -714h-126l-73 194h-293zM345 624l-118 -334h235z" />
    <glyph glyph-name="uni0411" unicode="&#x411;" horiz-adv-x="637" 
d="M83 0v714h451v-95h-335v-197h146q109 0 176.5 -50.5t67.5 -158.5q0 -112 -67 -162.5t-177 -50.5h-262zM199 95h125q71 0 109.5 26t38.5 91q0 115 -140 115h-133v-232z" />
    <glyph glyph-name="uni0412" unicode="&#x412;" horiz-adv-x="639" 
d="M83 0v714h270q100 0 159.5 -45t59.5 -136q0 -123 -124 -161v-2q143 -35 143 -171q0 -86 -57.5 -142.5t-171.5 -56.5h-279zM200 619v-205h116q139 0 139 105q0 100 -131 100h-124zM200 318v-223h135q67 0 103 25t36 87q0 111 -159 111h-115z" />
    <glyph glyph-name="uni0413" unicode="&#x413;" horiz-adv-x="503" 
d="M83 0v714h407v-95h-291v-619h-116z" />
    <glyph glyph-name="uni0414" unicode="&#x414;" horiz-adv-x="738" 
d="M10 -162v257h61q110 152 110 518v101h453v-619h86v-257h-99l-9 162h-495l-9 -162h-98zM197 95h321v524h-226v-52q0 -329 -95 -472z" />
    <glyph glyph-name="uni0415" unicode="&#x415;" horiz-adv-x="550" 
d="M83 0v714h411v-95h-294v-205h271v-96h-271v-223h303v-95h-420z" />
    <glyph glyph-name="uni0416" unicode="&#x416;" horiz-adv-x="924" 
d="M2 0l271 371l-255 343h142l242 -338h2v338h116v-338h2l242 338h142l-255 -343l271 -371h-146l-254 359h-2v-359h-116v359h-2l-254 -359h-146z" />
    <glyph glyph-name="uni0417" unicode="&#x417;" horiz-adv-x="556" 
d="M247 -12q-118 0 -206 39l26 96q87 -41 177 -41q68 0 108.5 30t40.5 91q0 115 -165 115h-67v95h69q145 0 145 113q0 52 -35 78.5t-95 26.5q-84 0 -161 -33l-23 92q95 36 196 36q102 0 168.5 -48.5t66.5 -141.5q0 -127 -124 -164v-2q68 -14 104 -59t36 -110
q0 -104 -73 -158.5t-188 -54.5z" />
    <glyph glyph-name="uni0418" unicode="&#x418;" horiz-adv-x="728" 
d="M83 0v714h114v-564h2l293 564h153v-714h-114v571h-2l-298 -571h-148z" />
    <glyph glyph-name="uni0419" unicode="&#x419;" horiz-adv-x="728" 
d="M83 0v714h114v-564h2l293 564h153v-714h-114v571h-2l-298 -571h-148zM357 763q-83 0 -121 41.5t-41 107.5h81q3 -37 20.5 -57t60.5 -20q76 0 81 77h80q-2 -66 -40 -107.5t-121 -41.5z" />
    <glyph glyph-name="uni041A" unicode="&#x41a;" horiz-adv-x="621" 
d="M462 714h141l-275 -343l291 -371h-147l-271 356h-1v-356h-117v714h117v-335h1z" />
    <glyph glyph-name="uni041B" unicode="&#x41b;" horiz-adv-x="726" 
d="M73 -5q-38 0 -65 5v96q18 -3 36 -3q34 0 57.5 13.5t39 42.5t25 72.5t14.5 107.5t7.5 143.5t4.5 182.5v20t0.5 18.5t0.5 20.5h450v-714h-117v619h-221q-1 -104 -3.5 -174t-8.5 -141t-16.5 -115.5t-27 -85t-41 -62t-58 -34t-77.5 -12.5z" />
    <glyph glyph-name="uni041C" unicode="&#x41c;" horiz-adv-x="899" 
d="M279 714l167 -605h3l169 605h198v-714h-111v620h-2l-185 -620h-146l-179 620h-2v-620h-108v714h196z" />
    <glyph glyph-name="uni041D" unicode="&#x41d;" horiz-adv-x="708" 
d="M83 0v714h117v-300h308v300h117v-714h-117v318h-308v-318h-117z" />
    <glyph glyph-name="uni041E" unicode="&#x41e;" horiz-adv-x="765" 
d="M709 356q0 -165 -86.5 -266.5t-239.5 -101.5t-240 102t-87 266q0 166 86 268t241 102q154 0 240 -102t86 -268zM592 356q0 120 -53.5 197.5t-155.5 77.5t-156 -77.5t-54 -197.5q0 -119 54 -196t156 -77t155.5 77t53.5 196z" />
    <glyph glyph-name="uni041F" unicode="&#x41f;" horiz-adv-x="699" 
d="M83 0v714h533v-714h-116v619h-301v-619h-116z" />
    <glyph glyph-name="uni0420" unicode="&#x420;" horiz-adv-x="619" 
d="M83 0v714h251q71 0 124 -18.5t88 -67.5t35 -126q0 -115 -68.5 -168.5t-177.5 -53.5h-135v-280h-117zM200 619v-243h123q141 0 141 122q0 69 -38.5 95t-110.5 26h-115z" />
    <glyph glyph-name="uni0421" unicode="&#x421;" horiz-adv-x="614" 
d="M577 695l-27 -92q-58 28 -132 28q-120 0 -183.5 -78t-63.5 -199q0 -115 64.5 -193t181.5 -78q79 0 141 31l25 -91q-71 -35 -177 -35q-161 0 -256.5 102t-95.5 265q0 165 95 268t262 103q101 0 166 -31z" />
    <glyph glyph-name="uni0422" unicode="&#x422;" horiz-adv-x="542" 
d="M215 0v619h-203v95h518v-95h-198v-619h-117z" />
    <glyph glyph-name="uni0423" unicode="&#x423;" horiz-adv-x="646" 
d="M153 0l116 218l-268 496h131l200 -378l186 378h127l-363 -714h-129z" />
    <glyph glyph-name="uni0424" unicode="&#x424;" horiz-adv-x="858" 
d="M371 -12v84q-157 4 -240 83t-83 212q0 131 83.5 209t239.5 82v68h116v-68q155 -4 239 -82t84 -209q0 -135 -83.5 -213t-239.5 -82v-84h-116zM371 167v397q-98 -5 -152 -56t-54 -141q0 -94 54 -144.5t152 -55.5zM487 167q97 5 151.5 56t54.5 144q0 90 -54.5 141t-151.5 56
v-397z" />
    <glyph glyph-name="uni0425" unicode="&#x425;" horiz-adv-x="627" 
d="M608 714l-217 -343l234 -371h-138l-174 287l-175 -287h-136l237 371l-215 343h135l157 -262l161 262h131z" />
    <glyph glyph-name="uni0426" unicode="&#x426;" horiz-adv-x="720" 
d="M603 -162l-9 162h-511v714h116v-619h301v619h116v-619h85v-257h-98z" />
    <glyph glyph-name="uni0427" unicode="&#x427;" horiz-adv-x="644" 
d="M444 0v291q-79 -22 -151 -22q-52 0 -89 8t-71.5 31t-52 69.5t-17.5 117.5v219h116v-206q0 -79 31.5 -111t109.5 -32q72 0 124 19v330h117v-714h-117z" />
    <glyph glyph-name="uni0428" unicode="&#x428;" horiz-adv-x="1006" 
d="M83 0v714h116v-619h245v619h117v-619h245v619h117v-714h-840z" />
    <glyph glyph-name="uni0429" unicode="&#x429;" horiz-adv-x="1027" 
d="M909 -162l-8 162h-818v714h116v-619h245v619h117v-619h245v619h117v-619h85v-257h-99z" />
    <glyph glyph-name="uni042A" unicode="&#x42a;" horiz-adv-x="712" 
d="M171 0v619h-159v95h275v-280h140q109 0 178 -52t69 -163q0 -117 -68 -168t-179 -51h-256zM287 95h120q72 0 111 26.5t39 97.5q0 120 -142 120h-128v-244z" />
    <glyph glyph-name="uni042B" unicode="&#x42b;" horiz-adv-x="860" 
d="M83 0v714h116v-280h134q109 0 177.5 -52t68.5 -163q0 -117 -68 -168t-179 -51h-249zM199 95h113q72 0 111 26.5t39 97.5q0 120 -142 120h-121v-244zM660 0v714h117v-714h-117z" />
    <glyph glyph-name="uni042C" unicode="&#x42c;" horiz-adv-x="624" 
d="M83 0v714h116v-280h140q109 0 178 -52t69 -163q0 -117 -68 -168t-179 -51h-256zM199 95h120q72 0 111 26.5t39 97.5q0 120 -142 120h-128v-244z" />
    <glyph glyph-name="uni042D" unicode="&#x42d;" horiz-adv-x="616" 
d="M207 -12q-105 0 -176 35l25 90q63 -30 141 -30q113 0 177 67t71 169h-287v95h285q-9 95 -72.5 156t-173.5 61q-72 0 -132 -26l-27 90q73 31 167 31q169 0 263 -102t94 -267t-95 -267t-260 -102z" />
    <glyph glyph-name="uni042E" unicode="&#x42e;" horiz-adv-x="992" 
d="M624 -12q-140 0 -221 89.5t-90 240.5h-114v-318h-116v714h116v-301h116q14 143 94 228t215 85q148 0 229.5 -101.5t81.5 -269.5q0 -166 -82 -266.5t-229 -100.5zM624 83q96 0 145.5 75t49.5 197q0 123 -49.5 199.5t-145.5 76.5q-97 0 -146 -76.5t-49 -199.5
q0 -122 49.5 -197t145.5 -75z" />
    <glyph glyph-name="uni042F" unicode="&#x42f;" horiz-adv-x="641" 
d="M160 0h-139l184 294q-145 41 -145 200q0 220 260 220h238v-714h-117v280h-113zM326 375h115v243h-109q-76 0 -115.5 -25.5t-39.5 -94.5q0 -68 39 -95.5t110 -27.5z" />
    <glyph glyph-name="uni0430" unicode="&#x430;" horiz-adv-x="569" 
d="M380 332v12q0 109 -123 109q-66 0 -135 -29l-23 85q78 31 166 31q229 0 229 -196v-224q0 -76 9 -120h-101q-8 26 -12 72h-2q-21 -38 -62.5 -61t-97.5 -23q-76 0 -129.5 40t-53.5 122q0 55 26 92.5t75 56t104 26t130 7.5zM380 256h-22q-203 0 -203 -101q0 -39 22.5 -61
t65.5 -22q67 0 102 41.5t35 101.5v41z" />
    <glyph glyph-name="uni0431" unicode="&#x431;" horiz-adv-x="613" 
d="M313 -12q-84 0 -141.5 37t-83.5 99q-30 70 -30 180q0 131 17.5 211t69.5 127q35 31 95.5 47.5t158 28t130.5 17.5l13 -91q-30 -7 -105.5 -16t-136 -21.5t-88.5 -32.5q-54 -39 -56 -146h2q54 95 179 95q99 0 162 -73t63 -192q0 -123 -68 -196.5t-181 -73.5zM313 75
q64 0 99.5 49t35.5 133q0 86 -34.5 133t-99.5 47q-67 0 -104.5 -48.5t-37.5 -132.5q0 -87 38 -134t103 -47z" />
    <glyph glyph-name="uni0432" unicode="&#x432;" horiz-adv-x="568" 
d="M76 0v528h262q76 0 120.5 -33t44.5 -101q0 -88 -87 -116v-2q44 -10 73 -42t29 -87q0 -63 -43.5 -105t-129.5 -42h-269zM188 81h122q46 0 70 17t24 59q0 75 -108 75h-108v-151zM188 311h114q92 0 92 70q0 65 -87 65h-119v-135z" />
    <glyph glyph-name="uni0433" unicode="&#x433;" horiz-adv-x="435" 
d="M76 0v528h350v-87h-236v-441h-114z" />
    <glyph glyph-name="uni0434" unicode="&#x434;" horiz-adv-x="629" 
d="M12 -145v232h54q40 63 58.5 146t18.5 212v83h395v-441h75v-232h-90l-9 145h-403l-9 -145h-90zM187 87h238v354h-174v-33q0 -219 -64 -321z" />
    <glyph glyph-name="uni0435" unicode="&#x435;" horiz-adv-x="580" 
d="M531 231h-369q5 -74 54 -115t127 -41q75 0 134 22l15 -85q-69 -24 -159 -24q-133 0 -208 76t-75 199q0 122 68.5 199.5t183.5 77.5q111 0 170 -69.5t59 -190.5v-49zM302 458q-59 0 -96 -39t-44 -104h263v2q1 65 -33 103t-90 38z" />
    <glyph glyph-name="uni0436" unicode="&#x436;" horiz-adv-x="807" 
d="M8 0l215 278l-204 250h136l189 -246h2v246h114v-246h2l189 246h136l-204 -250l215 -278h-137l-199 266h-2v-266h-114v266h-2l-199 -266h-137z" />
    <glyph glyph-name="uni0437" unicode="&#x437;" horiz-adv-x="497" 
d="M219 -12q-109 0 -183 30l24 86q67 -30 147 -30q125 0 125 80q0 77 -125 77h-61v83h55q117 0 117 75q0 66 -105 66q-70 0 -138 -27l-22 81q87 31 179 31t145.5 -34t53.5 -105q0 -45 -25.5 -76t-73.5 -44v-2q53 -9 83.5 -43t30.5 -85q0 -82 -65 -122.5t-162 -40.5z" />
    <glyph glyph-name="uni0438" unicode="&#x438;" horiz-adv-x="629" 
d="M76 0v528h112v-391h2l224 391h139v-528h-112v395h-2l-229 -395h-134z" />
    <glyph glyph-name="uni0439" unicode="&#x439;" horiz-adv-x="629" 
d="M76 0v528h112v-391h2l224 391h139v-528h-112v395h-2l-229 -395h-134zM314 603q-83 0 -121 41.5t-41 107.5h81q2 -37 20 -56.5t61 -19.5q76 0 81 76h80q-2 -66 -40 -107.5t-121 -41.5z" />
    <glyph glyph-name="uni043A" unicode="&#x43a;" horiz-adv-x="544" 
d="M76 0v528h114v-242h2l201 242h138l-219 -250l230 -278h-140l-210 263h-2v-263h-114z" />
    <glyph glyph-name="uni043B" unicode="&#x43b;" horiz-adv-x="610" 
d="M61 -4q-36 0 -57 4v87q10 -2 28 -2q68 0 85 83.5t23 359.5h394v-528h-114v441h-171q-1 -125 -8.5 -202.5t-28 -135.5t-57 -82.5t-94.5 -24.5z" />
    <glyph glyph-name="uni043C" unicode="&#x43c;" horiz-adv-x="767" 
d="M76 0v528h170l134 -435h2l137 435h171v-528h-107v437h-1l-140 -437h-124l-137 437h-1v-437h-104z" />
    <glyph glyph-name="uni043D" unicode="&#x43d;" horiz-adv-x="616" 
d="M76 0v528h114v-212h236v212h114v-528h-114v229h-236v-229h-114z" />
    <glyph glyph-name="uni043E" unicode="&#x43e;" horiz-adv-x="616" 
d="M565 265q0 -128 -69.5 -202.5t-187.5 -74.5t-187.5 74.5t-69.5 202.5t69.5 201.5t187.5 73.5q119 0 188 -73.5t69 -201.5zM451 265q0 86 -36 137t-107 51t-107 -51t-36 -137q0 -87 36.5 -138.5t106.5 -51.5q71 0 107 51t36 139z" />
    <glyph glyph-name="uni043F" unicode="&#x43f;" horiz-adv-x="611" 
d="M76 0v528h458v-528h-113v441h-231v-441h-114z" />
    <glyph glyph-name="uni0440" unicode="&#x440;" horiz-adv-x="628" 
d="M190 65v-260h-114v723h111v-74h2q57 86 165 86q103 0 163 -78.5t60 -197.5q0 -120 -61 -198t-165 -78t-159 77h-2zM463 264q0 83 -34.5 136t-99.5 53q-68 0 -106.5 -53t-38.5 -136t38.5 -136t106.5 -53q65 0 99.5 53t34.5 136z" />
    <glyph glyph-name="uni0441" unicode="&#x441;" horiz-adv-x="484" 
d="M449 521l-22 -87q-42 19 -94 19q-79 0 -123.5 -54t-44.5 -136t44.5 -135t125.5 -53q54 0 95 19l19 -86q-53 -20 -121 -20q-132 0 -204.5 76.5t-72.5 198.5t74.5 199.5t201.5 77.5q71 0 122 -19z" />
    <glyph glyph-name="uni0442" unicode="&#x442;" horiz-adv-x="465" 
d="M176 0v441h-167v87h447v-87h-167v-441h-113z" />
    <glyph glyph-name="uni0443" unicode="&#x443;" horiz-adv-x="539" 
d="M129 528l142 -389h2l141 389h120l-287 -723h-120l85 206l-207 517h124z" />
    <glyph glyph-name="uni0444" unicode="&#x444;" horiz-adv-x="764" 
d="M325 -195v188q-124 5 -200.5 74.5t-76.5 196.5t75.5 196t201.5 74v201h114v-201q126 -5 201.5 -74t75.5 -196t-76 -196.5t-201 -74.5v-188h-114zM325 80v367q-78 -4 -120.5 -52.5t-42.5 -130.5q0 -83 43 -131.5t120 -52.5zM439 80q76 4 119.5 52.5t43.5 131.5
q0 82 -43 130.5t-120 52.5v-367z" />
    <glyph glyph-name="uni0445" unicode="&#x445;" horiz-adv-x="528" 
d="M508 528l-167 -254l178 -274h-130l-123 202l-128 -202h-129l181 273l-166 255h128l115 -187l116 187h125z" />
    <glyph glyph-name="uni0446" unicode="&#x446;" horiz-adv-x="625" 
d="M519 -145l-9 145h-434v528h114v-441h231v441h113v-441h75v-232h-90z" />
    <glyph glyph-name="uni0447" unicode="&#x447;" horiz-adv-x="563" 
d="M373 0v205q-63 -21 -141 -21q-88 0 -134 41t-46 133v170h113v-144q0 -64 24 -88.5t82 -24.5q57 0 102 18v239h113v-528h-113z" />
    <glyph glyph-name="uni0448" unicode="&#x448;" horiz-adv-x="888" 
d="M76 0v528h114v-441h197v441h114v-441h197v441h113v-528h-735z" />
    <glyph glyph-name="uni0449" unicode="&#x449;" horiz-adv-x="902" 
d="M796 -145l-9 145h-711v528h114v-441h197v441h114v-441h197v441h113v-441h75v-232h-90z" />
    <glyph glyph-name="uni044A" unicode="&#x44a;" horiz-adv-x="615" 
d="M142 0v441h-132v87h246v-188h127q88 0 142.5 -40.5t54.5 -127.5q0 -172 -197 -172h-241zM256 85h105q52 0 79.5 18t27.5 68q0 84 -101 84h-111v-170z" />
    <glyph glyph-name="uni044B" unicode="&#x44b;" horiz-adv-x="761" 
d="M76 0v528h114v-188h119q87 0 141.5 -40.5t54.5 -127.5q0 -172 -197 -172h-232zM190 84h96q52 0 79.5 18.5t27.5 68.5q0 84 -101 84h-102v-171zM571 0v528h114v-528h-114z" />
    <glyph glyph-name="uni044C" unicode="&#x44c;" horiz-adv-x="548" 
d="M76 0v528h114v-188h127q88 0 142 -40.5t54 -127.5q0 -172 -196 -172h-241zM190 84h104q52 0 79.5 18.5t27.5 68.5q0 84 -107 84h-104v-171z" />
    <glyph glyph-name="uni044D" unicode="&#x44d;" horiz-adv-x="493" 
d="M166 -12q-70 0 -130 21l22 85q49 -19 100 -19q76 0 120 42t51 112h-211v84h209q-9 63 -53 101.5t-112 38.5q-52 0 -97 -17l-24 82q63 22 129 22q125 0 198.5 -76.5t73.5 -200.5t-72 -199.5t-204 -75.5z" />
    <glyph glyph-name="uni044E" unicode="&#x44e;" horiz-adv-x="827" 
d="M527 -12q-106 0 -173 64.5t-75 176.5h-89v-229h-114v528h114v-212h90q13 105 79 164.5t168 59.5q114 0 181.5 -73.5t67.5 -201.5t-68 -202.5t-181 -74.5zM527 75q67 0 101 51.5t34 138.5q0 85 -34 136.5t-101 51.5t-101.5 -51.5t-34.5 -136.5q0 -87 35 -138.5t101 -51.5z
" />
    <glyph glyph-name="uni044F" unicode="&#x44f;" horiz-adv-x="569" 
d="M33 0l134 201q-108 36 -108 155q0 172 195 172h238v-528h-113v187h-98l-115 -187h-133zM277 271h102v172h-96q-55 0 -84.5 -18t-29.5 -67q0 -87 108 -87z" />
    <glyph glyph-name="uni0450" unicode="&#x450;" horiz-adv-x="578" 
d="M531 231h-369q5 -74 54 -115t127 -41q75 0 134 22l15 -85q-69 -24 -159 -24q-133 0 -208 76t-75 199q0 122 68.5 199.5t183.5 77.5q111 0 170 -69.5t59 -190.5v-49zM302 458q-59 0 -96 -39t-44 -104h263v2q1 65 -33 103t-90 38zM279 604l-128 164h121l91 -164h-84z" />
    <glyph glyph-name="uni0451" unicode="&#x451;" horiz-adv-x="578" 
d="M531 231h-369q5 -74 54 -115t127 -41q75 0 134 22l15 -85q-69 -24 -159 -24q-133 0 -208 76t-75 199q0 122 68.5 199.5t183.5 77.5q111 0 170 -69.5t59 -190.5v-49zM302 458q-59 0 -96 -39t-44 -104h263v2q1 65 -33 103t-90 38zM261 732v-107h-105v107h105zM453 732v-107
h-106v107h106z" />
    <glyph glyph-name="uni0452" unicode="&#x452;" horiz-adv-x="615" 
d="M342 -195q-35 0 -63 4v87q25 -4 46 -4q58 0 81.5 37t23.5 110v254q0 74 -24.5 111t-86.5 37q-54 0 -91.5 -40t-37.5 -121v-280h-114v569h-87v80h87v86h114v-86h160v-80h-160v-128h2q22 41 64 64t95 23q89 0 140.5 -52t51.5 -140v-325q0 -206 -201 -206z" />
    <glyph glyph-name="uni0453" unicode="&#x453;" horiz-adv-x="435" 
d="M381 768l-127 -164h-84l91 164h120zM76 0v528h350v-87h-236v-441h-114z" />
    <glyph glyph-name="uni0454" unicode="&#x454;" horiz-adv-x="493" 
d="M326 -12q-131 0 -203 75.5t-72 199.5q0 125 73 201t198 76q68 0 129 -22l-23 -82q-47 17 -98 17q-67 0 -111.5 -38.5t-52.5 -101.5h202v-84h-205q5 -69 50 -111.5t122 -42.5q51 0 100 19l21 -85q-60 -21 -130 -21z" />
    <glyph glyph-name="uni0455" unicode="&#x455;" horiz-adv-x="481" 
d="M409 510l-26 -85q-64 28 -137 28q-36 0 -61 -14.5t-25 -44.5q0 -27 22 -44t84 -38q86 -29 128 -67t42 -102q0 -80 -60 -117.5t-146 -37.5q-103 0 -188 37l25 88q87 -38 164 -38q97 0 97 62q0 29 -27 47.5t-93 40.5q-80 27 -118 65t-38 93q0 77 57.5 117t137.5 40
q93 0 162 -30z" />
    <glyph glyph-name="uni0456" unicode="&#x456;" horiz-adv-x="267" 
d="M76 528h114v-528h-114v528zM75 730h117v-106h-117v106z" />
    <glyph glyph-name="uni0457" unicode="&#x457;" horiz-adv-x="267" 
d="M76 528h115v-528h-115v528zM91 732v-107h-105v107h105zM283 732v-107h-106v107h106z" />
    <glyph glyph-name="uni0458" unicode="&#x458;" horiz-adv-x="267" 
d="M190 528v-563q0 -160 -163 -160q-35 0 -63 4v87q24 -4 46 -4q38 0 52 20.5t14 65.5v550h114zM75 730h117v-106h-117v106z" />
    <glyph glyph-name="uni0459" unicode="&#x459;" horiz-adv-x="892" 
d="M61 -4q-36 0 -57 4v87q10 -2 28 -2q68 0 85 83.5t23 359.5h394v-188h127q88 0 142 -40.5t54 -127.5q0 -172 -197 -172h-240v441h-171q-1 -125 -8.5 -202.5t-28 -135.5t-57 -82.5t-94.5 -24.5zM534 85h104q52 0 79.5 18t27.5 68q0 84 -100 84h-111v-170z" />
    <glyph glyph-name="uni045A" unicode="&#x45a;" horiz-adv-x="898" 
d="M76 0v528h114v-208h236v208h114v-208h138q185 0 185 -158q0 -162 -185 -162h-252v233h-236v-233h-114zM540 84h115q48 0 72.5 16t24.5 61q0 74 -92 74h-120v-151z" />
    <glyph glyph-name="uni045B" unicode="&#x45b;" horiz-adv-x="615" 
d="M76 0v569h-87v80h87v86h114v-86h160v-80h-160v-128h2q22 41 64 64t95 23q89 0 140.5 -52t51.5 -140v-336h-113v293q0 74 -24.5 111t-86.5 37q-54 0 -91.5 -40t-37.5 -121v-280h-114z" />
    <glyph glyph-name="uni045C" unicode="&#x45c;" horiz-adv-x="544" 
d="M76 0v528h114v-242h2l201 242h138l-219 -250l230 -278h-140l-210 263h-2v-263h-114zM433 768l-127 -164h-84l91 164h120z" />
    <glyph glyph-name="uni045D" unicode="&#x45d;" horiz-adv-x="629" 
d="M76 0v528h112v-391h2l224 391h139v-528h-112v395h-2l-229 -395h-134zM288 604l-128 164h121l91 -164h-84z" />
    <glyph glyph-name="uni045E" unicode="&#x45e;" horiz-adv-x="539" 
d="M274 603q-83 0 -121 41.5t-41 107.5h81q2 -37 20 -56.5t61 -19.5q76 0 81 76h80q-2 -66 -40 -107.5t-121 -41.5zM129 528l142 -389h2l141 389h120l-287 -723h-120l85 206l-207 517h124z" />
    <glyph glyph-name="uni045F" unicode="&#x45f;" horiz-adv-x="611" 
d="M265 -145l-9 145h-180v528h114v-441h231v441h113v-528h-178l-9 -145h-82z" />
    <glyph glyph-name="uni0490" unicode="&#x490;" horiz-adv-x="503" 
d="M83 0v714h306l10 148h91v-243h-291v-619h-116z" />
    <glyph glyph-name="uni0491" unicode="&#x491;" horiz-adv-x="435" 
d="M76 0v528h255l9 131h86v-218h-236v-441h-114z" />
    <glyph glyph-name="Wgrave" unicode="&#x1e80;" horiz-adv-x="967" 
d="M601 0l-116 614h-2l-118 -614h-165l-164 714h126l123 -609h2l110 609h175l110 -609h2l125 609h122l-165 -714h-165zM329 903h127l85 -140h-89z" />
    <glyph glyph-name="wgrave" unicode="&#x1e81;" horiz-adv-x="833" 
d="M491 528l100 -427h2l99 427h118l-146 -528h-146l-100 432h-2l-102 -432h-146l-145 528h119l101 -427h2l97 427h149zM390 604l-128 164h121l91 -164h-84z" />
    <glyph glyph-name="Wacute" unicode="&#x1e82;" horiz-adv-x="967" 
d="M601 0l-116 614h-2l-118 -614h-165l-164 714h126l123 -609h2l110 609h175l110 -609h2l125 609h122l-165 -714h-165zM642 903l-125 -140h-89l87 140h127z" />
    <glyph glyph-name="wacute" unicode="&#x1e83;" horiz-adv-x="833" 
d="M491 528l100 -427h2l99 427h118l-146 -528h-146l-100 432h-2l-102 -432h-146l-145 528h119l101 -427h2l97 427h149zM576 768l-127 -164h-84l91 164h120z" />
    <glyph glyph-name="Wdieresis" unicode="&#x1e84;" horiz-adv-x="967" 
d="M601 0l-116 614h-2l-118 -614h-165l-164 714h126l123 -609h2l110 609h175l110 -609h2l125 609h122l-165 -714h-165zM441 895v-109h-105v109h105zM633 895v-109h-106v109h106z" />
    <glyph glyph-name="wdieresis" unicode="&#x1e85;" horiz-adv-x="833" 
d="M491 528l100 -427h2l99 427h118l-146 -528h-146l-100 432h-2l-102 -432h-146l-145 528h119l101 -427h2l97 427h149zM374 732v-107h-105v107h105zM566 732v-107h-106v107h106z" />
    <glyph glyph-name="uni1EA0" unicode="&#x1ea0;" horiz-adv-x="692" 
d="M198 194l-71 -194h-125l265 714h159l264 -714h-126l-73 194h-293zM345 624l-118 -334h235zM408 -95v-113h-121v113h121z" />
    <glyph glyph-name="uni1EA1" unicode="&#x1ea1;" horiz-adv-x="569" 
d="M380 332v12q0 109 -123 109q-66 0 -135 -29l-23 85q78 31 166 31q229 0 229 -196v-224q0 -76 9 -120h-101q-8 26 -12 72h-2q-21 -38 -62.5 -61t-97.5 -23q-76 0 -129.5 40t-53.5 122q0 55 26 92.5t75 56t104 26t130 7.5zM380 256h-22q-203 0 -203 -101q0 -39 22.5 -61
t65.5 -22q67 0 102 41.5t35 101.5v41zM350 -95v-113h-121v113h121z" />
    <glyph glyph-name="uni1EA2" unicode="&#x1ea2;" horiz-adv-x="692" 
d="M198 194l-71 -194h-125l265 714h159l264 -714h-126l-73 194h-293zM345 624l-118 -334h235zM381 758h-74q0 26 8 40.5t31 25.5q32 16 32 32q0 24 -39 24q-27 0 -56 -11l-16 58q39 17 85 17t75.5 -20t29.5 -62q0 -48 -47 -72q-19 -10 -24 -16t-5 -16z" />
    <glyph glyph-name="uni1EA3" unicode="&#x1ea3;" horiz-adv-x="569" 
d="M380 332v12q0 109 -123 109q-66 0 -135 -29l-23 85q78 31 166 31q229 0 229 -196v-224q0 -76 9 -120h-101q-8 26 -12 72h-2q-21 -38 -62.5 -61t-97.5 -23q-76 0 -129.5 40t-53.5 122q0 55 26 92.5t75 56t104 26t130 7.5zM380 256h-22q-203 0 -203 -101q0 -39 22.5 -61
t65.5 -22q67 0 102 41.5t35 101.5v41zM312 607h-74q0 27 8 41t30 25q32 16 32 32q0 24 -39 24q-26 0 -56 -11l-16 58q41 17 85 17q47 0 76.5 -20t29.5 -62q0 -48 -47 -72q-19 -10 -24 -16t-5 -16z" />
    <glyph glyph-name="uni1EA4" unicode="&#x1ea4;" horiz-adv-x="692" 
d="M198 194l-71 -194h-125l265 714h159l264 -714h-126l-73 194h-293zM345 624l-118 -334h235zM521 758h-93l-82 93l-82 -93h-94l117 149h117zM653 970l-100 -114h-87l71 114h116z" />
    <glyph glyph-name="uni1EA5" unicode="&#x1ea5;" horiz-adv-x="569" 
d="M380 332v12q0 109 -123 109q-66 0 -135 -29l-23 85q78 31 166 31q229 0 229 -196v-224q0 -76 9 -120h-101q-8 26 -12 72h-2q-21 -38 -62.5 -61t-97.5 -23q-76 0 -129.5 40t-53.5 122q0 55 26 92.5t75 56t104 26t130 7.5zM380 256h-22q-203 0 -203 -101q0 -39 22.5 -61
t65.5 -22q67 0 102 41.5t35 101.5v41zM454 604h-88l-80 109l-78 -109h-88l110 164h114zM588 855l-101 -133h-83l72 133h112z" />
    <glyph glyph-name="uni1EA6" unicode="&#x1ea6;" horiz-adv-x="692" 
d="M198 194l-71 -194h-125l265 714h159l264 -714h-126l-73 194h-293zM345 624l-118 -334h235zM521 758h-93l-82 93l-82 -93h-94l117 149h117zM139 856l-100 114h116l71 -114h-87z" />
    <glyph glyph-name="uni1EA7" unicode="&#x1ea7;" horiz-adv-x="569" 
d="M380 332v12q0 109 -123 109q-66 0 -135 -29l-23 85q78 31 166 31q229 0 229 -196v-224q0 -76 9 -120h-101q-8 26 -12 72h-2q-21 -38 -62.5 -61t-97.5 -23q-76 0 -129.5 40t-53.5 122q0 55 26 92.5t75 56t104 26t130 7.5zM380 256h-22q-203 0 -203 -101q0 -39 22.5 -61
t65.5 -22q67 0 102 41.5t35 101.5v41zM454 604h-88l-80 109l-78 -109h-88l110 164h114zM87 722l-101 133h112l72 -133h-83z" />
    <glyph glyph-name="uni1EA8" unicode="&#x1ea8;" horiz-adv-x="692" 
d="M198 194l-71 -194h-125l265 714h159l264 -714h-126l-73 194h-293zM345 624l-118 -334h235zM521 758h-93l-82 93l-82 -93h-94l117 149h117zM541 849h-71q0 24 8 38t29 24q31 15 31 32q0 22 -37 22q-24 0 -54 -10l-16 55q42 16 85 16q44 0 71 -19t27 -57q0 -47 -44 -71
q-19 -11 -24 -16.5t-5 -13.5z" />
    <glyph glyph-name="uni1EA9" unicode="&#x1ea9;" horiz-adv-x="569" 
d="M380 332v12q0 109 -123 109q-66 0 -135 -29l-23 85q78 31 166 31q229 0 229 -196v-224q0 -76 9 -120h-101q-8 26 -12 72h-2q-21 -38 -62.5 -61t-97.5 -23q-76 0 -129.5 40t-53.5 122q0 55 26 92.5t75 56t104 26t130 7.5zM380 256h-22q-203 0 -203 -101q0 -39 22.5 -61
t65.5 -22q67 0 102 41.5t35 101.5v41zM454 604h-88l-80 109l-78 -109h-88l110 164h114zM476 706h-71q0 24 8 38t29 24q31 16 31 32q0 22 -37 22q-24 0 -54 -10l-16 55q42 16 85 16q44 0 71 -19t27 -58q0 -46 -44 -70q-19 -11 -24 -16.5t-5 -13.5z" />
    <glyph glyph-name="uni1EAA" unicode="&#x1eaa;" horiz-adv-x="692" 
d="M198 194l-71 -194h-125l265 714h159l264 -714h-126l-73 194h-293zM345 624l-118 -334h235zM521 758h-93l-82 81l-82 -81h-94l117 137h117zM359 1022q38 -23 53 -23q32 0 34 51h70q-7 -122 -97 -122q-39 0 -80 25q-44 26 -57 26q-34 0 -35 -51h-70q6 122 97 122
q38 0 85 -28z" />
    <glyph glyph-name="uni1EAB" unicode="&#x1eab;" horiz-adv-x="569" 
d="M380 332v12q0 109 -123 109q-66 0 -135 -29l-23 85q78 31 166 31q229 0 229 -196v-224q0 -76 9 -120h-101q-8 26 -12 72h-2q-21 -38 -62.5 -61t-97.5 -23q-76 0 -129.5 40t-53.5 122q0 55 26 92.5t75 56t104 26t130 7.5zM380 256h-22q-203 0 -203 -101q0 -39 22.5 -61
t65.5 -22q67 0 102 41.5t35 101.5v41zM454 604h-88l-80 93l-78 -93h-88l110 147h114zM300 878q38 -23 53 -23q33 0 34 51h70q-7 -122 -97 -122q-39 0 -80 25q-44 26 -57 26q-33 0 -35 -51h-70q6 122 97 122q38 0 85 -28z" />
    <glyph glyph-name="uni1EAC" unicode="&#x1eac;" horiz-adv-x="692" 
d="M198 194l-71 -194h-125l265 714h159l264 -714h-126l-73 194h-293zM345 624l-118 -334h235zM521 758h-93l-82 93l-82 -93h-94l117 149h117zM408 -95v-113h-121v113h121z" />
    <glyph glyph-name="uni1EAD" unicode="&#x1ead;" horiz-adv-x="569" 
d="M380 332v12q0 109 -123 109q-66 0 -135 -29l-23 85q78 31 166 31q229 0 229 -196v-224q0 -76 9 -120h-101q-8 26 -12 72h-2q-21 -38 -62.5 -61t-97.5 -23q-76 0 -129.5 40t-53.5 122q0 55 26 92.5t75 56t104 26t130 7.5zM380 256h-22q-203 0 -203 -101q0 -39 22.5 -61
t65.5 -22q67 0 102 41.5t35 101.5v41zM454 604h-88l-80 109l-78 -109h-88l110 164h114zM350 -95v-113h-121v113h121z" />
    <glyph glyph-name="uni1EAE" unicode="&#x1eae;" horiz-adv-x="692" 
d="M198 194l-71 -194h-125l265 714h159l264 -714h-126l-73 194h-293zM345 624l-118 -334h235zM485 1016l-105 -123h-79l65 123h119zM344 834q74 0 85 62h80q-6 -61 -46.5 -97.5t-118.5 -36.5q-74 0 -115.5 37t-47.5 97h81q11 -62 82 -62z" />
    <glyph glyph-name="uni1EAF" unicode="&#x1eaf;" horiz-adv-x="569" 
d="M380 332v12q0 109 -123 109q-66 0 -135 -29l-23 85q78 31 166 31q229 0 229 -196v-224q0 -76 9 -120h-101q-8 26 -12 72h-2q-21 -38 -62.5 -61t-97.5 -23q-76 0 -129.5 40t-53.5 122q0 55 26 92.5t75 56t104 26t130 7.5zM380 256h-22q-203 0 -203 -101q0 -39 22.5 -61
t65.5 -22q67 0 102 41.5t35 101.5v41zM435 875l-112 -138h-78l73 138h117zM288 674q74 0 85 62h80q-6 -61 -46.5 -97.5t-118.5 -36.5q-74 0 -115.5 37t-47.5 97h81q11 -62 82 -62z" />
    <glyph glyph-name="uni1EB0" unicode="&#x1eb0;" horiz-adv-x="692" 
d="M198 194l-71 -194h-125l265 714h159l264 -714h-126l-73 194h-293zM345 624l-118 -334h235zM312 893l-106 123h120l64 -123h-78zM344 834q74 0 85 62h80q-6 -61 -46.5 -97.5t-118.5 -36.5q-74 0 -115.5 37t-47.5 97h81q11 -62 82 -62z" />
    <glyph glyph-name="uni1EB1" unicode="&#x1eb1;" horiz-adv-x="569" 
d="M380 332v12q0 109 -123 109q-66 0 -135 -29l-23 85q78 31 166 31q229 0 229 -196v-224q0 -76 9 -120h-101q-8 26 -12 72h-2q-21 -38 -62.5 -61t-97.5 -23q-76 0 -129.5 40t-53.5 122q0 55 26 92.5t75 56t104 26t130 7.5zM380 256h-22q-203 0 -203 -101q0 -39 22.5 -61
t65.5 -22q67 0 102 41.5t35 101.5v41zM256 737l-112 138h116l74 -138h-78zM288 674q74 0 85 62h80q-6 -61 -46.5 -97.5t-118.5 -36.5q-74 0 -115.5 37t-47.5 97h81q11 -62 82 -62z" />
    <glyph glyph-name="uni1EB2" unicode="&#x1eb2;" horiz-adv-x="692" 
d="M198 194l-71 -194h-125l265 714h159l264 -714h-126l-73 194h-293zM345 624l-118 -334h235zM344 834q74 0 85 62h80q-6 -61 -46.5 -97.5t-118.5 -36.5q-74 0 -115.5 37t-47.5 97h81q11 -62 82 -62zM377 890h-71q0 24 8 38t29 24q31 16 31 32q0 22 -37 22q-24 0 -54 -10
l-16 55q42 16 85 16q44 0 71 -19t27 -58q0 -46 -44 -70q-19 -11 -24 -16.5t-5 -13.5z" />
    <glyph glyph-name="uni1EB3" unicode="&#x1eb3;" horiz-adv-x="569" 
d="M380 332v12q0 109 -123 109q-66 0 -135 -29l-23 85q78 31 166 31q229 0 229 -196v-224q0 -76 9 -120h-101q-8 26 -12 72h-2q-21 -38 -62.5 -61t-97.5 -23q-76 0 -129.5 40t-53.5 122q0 55 26 92.5t75 56t104 26t130 7.5zM380 256h-22q-203 0 -203 -101q0 -39 22.5 -61
t65.5 -22q67 0 102 41.5t35 101.5v41zM288 674q74 0 85 62h80q-6 -61 -46.5 -97.5t-118.5 -36.5q-74 0 -115.5 37t-47.5 97h81q11 -62 82 -62zM321 730h-71q0 24 8 38t29 24q31 16 31 32q0 22 -37 22q-24 0 -54 -10l-16 55q42 16 85 16q44 0 71 -19t27 -58q0 -46 -44 -70
q-19 -11 -24 -16.5t-5 -13.5z" />
    <glyph glyph-name="uni1EB4" unicode="&#x1eb4;" horiz-adv-x="692" 
d="M198 194l-71 -194h-125l265 714h159l264 -714h-126l-73 194h-293zM345 624l-118 -334h235zM358 1030q38 -23 53 -23q33 0 34 51h70q-7 -122 -97 -122q-39 0 -80 25q-44 26 -57 26q-33 0 -35 -51h-70q6 122 97 122q38 0 85 -28zM344 834q74 0 85 62h80q-6 -61 -46.5 -97.5
t-118.5 -36.5q-74 0 -115.5 37t-47.5 97h81q11 -62 82 -62z" />
    <glyph glyph-name="uni1EB5" unicode="&#x1eb5;" horiz-adv-x="569" 
d="M380 332v12q0 109 -123 109q-66 0 -135 -29l-23 85q78 31 166 31q229 0 229 -196v-224q0 -76 9 -120h-101q-8 26 -12 72h-2q-21 -38 -62.5 -61t-97.5 -23q-76 0 -129.5 40t-53.5 122q0 55 26 92.5t75 56t104 26t130 7.5zM380 256h-22q-203 0 -203 -101q0 -39 22.5 -61
t65.5 -22q67 0 102 41.5t35 101.5v41zM302 870q38 -23 53 -23q33 0 34 51h70q-7 -122 -97 -122q-39 0 -80 25q-44 26 -57 26q-33 0 -35 -51h-70q6 122 97 122q38 0 85 -28zM288 674q74 0 85 62h80q-6 -61 -46.5 -97.5t-118.5 -36.5q-74 0 -115.5 37t-47.5 97h81
q11 -62 82 -62z" />
    <glyph glyph-name="uni1EB6" unicode="&#x1eb6;" horiz-adv-x="692" 
d="M198 194l-71 -194h-125l265 714h159l264 -714h-126l-73 194h-293zM345 624l-118 -334h235zM344 836q78 0 81 76h82q-3 -66 -41 -107.5t-122 -41.5q-80 0 -119 42t-41 107h81q2 -76 79 -76zM408 -95v-113h-121v113h121z" />
    <glyph glyph-name="uni1EB7" unicode="&#x1eb7;" horiz-adv-x="569" 
d="M380 332v12q0 109 -123 109q-66 0 -135 -29l-23 85q78 31 166 31q229 0 229 -196v-224q0 -76 9 -120h-101q-8 26 -12 72h-2q-21 -38 -62.5 -61t-97.5 -23q-76 0 -129.5 40t-53.5 122q0 55 26 92.5t75 56t104 26t130 7.5zM380 256h-22q-203 0 -203 -101q0 -39 22.5 -61
t65.5 -22q67 0 102 41.5t35 101.5v41zM288 676q77 0 81 76h82q-3 -66 -41 -107.5t-122 -41.5q-80 0 -119 42t-41 107h81q2 -76 79 -76zM351 -95v-113h-121v113h121z" />
    <glyph glyph-name="uni1EB8" unicode="&#x1eb8;" horiz-adv-x="550" 
d="M83 0v714h411v-95h-294v-205h271v-96h-271v-223h303v-95h-420zM359 -95v-113h-121v113h121z" />
    <glyph glyph-name="uni1EB9" unicode="&#x1eb9;" horiz-adv-x="580" 
d="M531 231h-369q5 -74 54 -115t127 -41q75 0 134 22l15 -85q-69 -24 -159 -24q-133 0 -208 76t-75 199q0 122 68.5 199.5t183.5 77.5q111 0 170 -69.5t59 -190.5v-49zM302 458q-59 0 -96 -39t-44 -104h263v2q1 65 -33 103t-90 38zM363 -95v-113h-121v113h121z" />
    <glyph glyph-name="uni1EBA" unicode="&#x1eba;" horiz-adv-x="550" 
d="M83 0v714h411v-95h-294v-205h271v-96h-271v-223h303v-95h-420zM327 758h-74q0 26 8 40.5t31 25.5q32 16 32 32q0 24 -39 24q-27 0 -56 -11l-16 58q39 17 85 17t75.5 -20t29.5 -62q0 -48 -47 -72q-19 -10 -24 -16t-5 -16z" />
    <glyph glyph-name="uni1EBB" unicode="&#x1ebb;" horiz-adv-x="580" 
d="M531 231h-369q5 -74 54 -115t127 -41q75 0 134 22l15 -85q-69 -24 -159 -24q-133 0 -208 76t-75 199q0 122 68.5 199.5t183.5 77.5q111 0 170 -69.5t59 -190.5v-49zM302 458q-59 0 -96 -39t-44 -104h263v2q1 65 -33 103t-90 38zM332 607h-74q0 27 8 41t30 25q32 16 32 32
q0 24 -39 24q-26 0 -56 -11l-16 58q41 17 85 17q47 0 76.5 -20t29.5 -62q0 -48 -47 -72q-19 -10 -24 -16t-5 -16z" />
    <glyph glyph-name="uni1EBC" unicode="&#x1ebc;" horiz-adv-x="550" 
d="M83 0v714h411v-95h-294v-205h271v-96h-271v-223h303v-95h-420zM304 868q36 -26 55 -26q33 0 36 60h71q-3 -63 -27.5 -101t-71.5 -38q-36 0 -84 32q-41 28 -60 28q-34 0 -37 -59h-71q4 64 30 101t71 37q40 0 88 -34z" />
    <glyph glyph-name="uni1EBD" unicode="&#x1ebd;" horiz-adv-x="580" 
d="M531 231h-369q5 -74 54 -115t127 -41q75 0 134 22l15 -85q-69 -24 -159 -24q-133 0 -208 76t-75 199q0 122 68.5 199.5t183.5 77.5q111 0 170 -69.5t59 -190.5v-49zM302 458q-59 0 -96 -39t-44 -104h263v2q1 65 -33 103t-90 38zM321 716q37 -27 55 -27q33 0 36 60h71
q-3 -63 -27.5 -100.5t-71.5 -37.5q-38 0 -84 31q-43 29 -60 29q-34 0 -37 -60h-71q4 64 30 101t71 37q39 0 88 -33z" />
    <glyph glyph-name="uni1EBE" unicode="&#x1ebe;" horiz-adv-x="550" 
d="M83 0v714h411v-95h-294v-205h271v-96h-271v-223h303v-95h-420zM468 758h-93l-82 93l-82 -93h-94l117 149h117zM600 970l-100 -114h-87l71 114h116z" />
    <glyph glyph-name="uni1EBF" unicode="&#x1ebf;" horiz-adv-x="580" 
d="M531 231h-369q5 -74 54 -115t127 -41q75 0 134 22l15 -85q-69 -24 -159 -24q-133 0 -208 76t-75 199q0 122 68.5 199.5t183.5 77.5q111 0 170 -69.5t59 -190.5v-49zM302 458q-59 0 -96 -39t-44 -104h263v2q1 65 -33 103t-90 38zM470 604h-88l-80 109l-78 -109h-88
l110 164h114zM604 855l-101 -133h-83l72 133h112z" />
    <glyph glyph-name="uni1EC0" unicode="&#x1ec0;" horiz-adv-x="550" 
d="M83 0v714h411v-95h-294v-205h271v-96h-271v-223h303v-95h-420zM468 758h-93l-82 93l-82 -93h-94l117 149h117zM86 856l-100 114h116l71 -114h-87z" />
    <glyph glyph-name="uni1EC1" unicode="&#x1ec1;" horiz-adv-x="580" 
d="M531 231h-369q5 -74 54 -115t127 -41q75 0 134 22l15 -85q-69 -24 -159 -24q-133 0 -208 76t-75 199q0 122 68.5 199.5t183.5 77.5q111 0 170 -69.5t59 -190.5v-49zM302 458q-59 0 -96 -39t-44 -104h263v2q1 65 -33 103t-90 38zM470 604h-88l-80 109l-78 -109h-88
l110 164h114zM103 722l-101 133h112l72 -133h-83z" />
    <glyph glyph-name="uni1EC2" unicode="&#x1ec2;" horiz-adv-x="550" 
d="M83 0v714h411v-95h-294v-205h271v-96h-271v-223h303v-95h-420zM468 758h-93l-82 93l-82 -93h-94l117 149h117zM488 849h-71q0 24 8 38t29 24q31 15 31 32q0 22 -37 22q-24 0 -54 -10l-16 55q42 16 85 16q44 0 71 -19t27 -57q0 -47 -44 -71q-19 -11 -24 -16.5t-5 -13.5z
" />
    <glyph glyph-name="uni1EC3" unicode="&#x1ec3;" horiz-adv-x="580" 
d="M531 231h-369q5 -74 54 -115t127 -41q75 0 134 22l15 -85q-69 -24 -159 -24q-133 0 -208 76t-75 199q0 122 68.5 199.5t183.5 77.5q111 0 170 -69.5t59 -190.5v-49zM302 458q-59 0 -96 -39t-44 -104h263v2q1 65 -33 103t-90 38zM470 604h-88l-80 109l-78 -109h-88
l110 164h114zM492 706h-71q0 24 8 38t29 24q31 16 31 32q0 22 -37 22q-24 0 -54 -10l-16 55q42 16 85 16q44 0 71 -19t27 -58q0 -46 -44 -70q-19 -11 -24 -16.5t-5 -13.5z" />
    <glyph glyph-name="uni1EC4" unicode="&#x1ec4;" horiz-adv-x="550" 
d="M83 0v714h411v-95h-294v-205h271v-96h-271v-223h303v-95h-420zM468 758h-93l-82 81l-82 -81h-94l117 137h117zM306 1022q38 -23 53 -23q33 0 34 51h70q-7 -122 -97 -122q-39 0 -80 25q-44 26 -57 26q-33 0 -35 -51h-70q6 122 97 122q38 0 85 -28z" />
    <glyph glyph-name="uni1EC5" unicode="&#x1ec5;" horiz-adv-x="580" 
d="M531 231h-369q5 -74 54 -115t127 -41q75 0 134 22l15 -85q-69 -24 -159 -24q-133 0 -208 76t-75 199q0 122 68.5 199.5t183.5 77.5q111 0 170 -69.5t59 -190.5v-49zM302 458q-59 0 -96 -39t-44 -104h263v2q1 65 -33 103t-90 38zM470 604h-88l-80 93l-78 -93h-88l110 147
h114zM316 878q38 -23 53 -23q33 0 34 51h70q-7 -122 -97 -122q-39 0 -80 25q-44 26 -57 26q-33 0 -35 -51h-70q6 122 97 122q38 0 85 -28z" />
    <glyph glyph-name="uni1EC6" unicode="&#x1ec6;" horiz-adv-x="550" 
d="M83 0v714h411v-95h-294v-205h271v-96h-271v-223h303v-95h-420zM468 758h-93l-82 93l-82 -93h-94l117 149h117zM359 -95v-113h-121v113h121z" />
    <glyph glyph-name="uni1EC7" unicode="&#x1ec7;" horiz-adv-x="580" 
d="M531 231h-369q5 -74 54 -115t127 -41q75 0 134 22l15 -85q-69 -24 -159 -24q-133 0 -208 76t-75 199q0 122 68.5 199.5t183.5 77.5q111 0 170 -69.5t59 -190.5v-49zM302 458q-59 0 -96 -39t-44 -104h263v2q1 65 -33 103t-90 38zM470 604h-88l-80 109l-78 -109h-88
l110 164h114zM363 -95v-113h-121v113h121z" />
    <glyph glyph-name="uni1EC8" unicode="&#x1ec8;" horiz-adv-x="283" 
d="M83 0v714h117v-714h-117zM176 758h-74q0 26 8 40.5t31 25.5q32 16 32 32q0 24 -39 24q-27 0 -56 -11l-16 58q39 17 85 17t75.5 -20t29.5 -62q0 -48 -47 -72q-19 -10 -24 -16t-5 -16z" />
    <glyph glyph-name="uni1EC9" unicode="&#x1ec9;" horiz-adv-x="267" 
d="M76 528h115v-528h-115v528zM169 607h-74q0 27 8 41t30 25q32 16 32 32q0 24 -39 24q-26 0 -56 -11l-16 58q41 17 85 17q47 0 76.5 -20t29.5 -62q0 -48 -47 -72q-19 -10 -24 -16t-5 -16z" />
    <glyph glyph-name="uni1ECA" unicode="&#x1eca;" horiz-adv-x="283" 
d="M83 0v714h117v-714h-117zM202 -95v-113h-121v113h121z" />
    <glyph glyph-name="uni1ECB" unicode="&#x1ecb;" horiz-adv-x="267" 
d="M76 528h114v-528h-114v528zM75 730h117v-106h-117v106zM194 -95v-113h-121v113h121z" />
    <glyph glyph-name="uni1ECC" unicode="&#x1ecc;" horiz-adv-x="765" 
d="M709 356q0 -165 -86.5 -266.5t-239.5 -101.5t-240 102t-87 266q0 166 86 268t241 102q154 0 240 -102t86 -268zM592 356q0 120 -53.5 197.5t-155.5 77.5t-156 -77.5t-54 -197.5q0 -119 54 -196t156 -77t155.5 77t53.5 196zM444 -95v-113h-121v113h121z" />
    <glyph glyph-name="uni1ECD" unicode="&#x1ecd;" horiz-adv-x="616" 
d="M565 265q0 -128 -69.5 -202.5t-187.5 -74.5t-187.5 74.5t-69.5 202.5t69.5 201.5t187.5 73.5q119 0 188 -73.5t69 -201.5zM451 265q0 86 -36 137t-107 51t-107 -51t-36 -137q0 -87 36.5 -138.5t106.5 -51.5q71 0 107 51t36 139zM369 -95v-113h-121v113h121z" />
    <glyph glyph-name="uni1ECE" unicode="&#x1ece;" horiz-adv-x="765" 
d="M709 356q0 -165 -86.5 -266.5t-239.5 -101.5t-240 102t-87 266q0 166 86 268t241 102q154 0 240 -102t86 -268zM592 356q0 120 -53.5 197.5t-155.5 77.5t-156 -77.5t-54 -197.5q0 -119 54 -196t156 -77t155.5 77t53.5 196zM416 758h-74q0 26 8 40.5t31 25.5q32 16 32 32
q0 24 -39 24q-27 0 -56 -11l-16 58q39 17 85 17t75.5 -20t29.5 -62q0 -48 -47 -72q-19 -10 -24 -16t-5 -16z" />
    <glyph glyph-name="uni1ECF" unicode="&#x1ecf;" horiz-adv-x="616" 
d="M565 265q0 -128 -69.5 -202.5t-187.5 -74.5t-187.5 74.5t-69.5 202.5t69.5 201.5t187.5 73.5q119 0 188 -73.5t69 -201.5zM451 265q0 86 -36 137t-107 51t-107 -51t-36 -137q0 -87 36.5 -138.5t106.5 -51.5q71 0 107 51t36 139zM343 607h-74q0 27 8 41t30 25q32 16 32 32
q0 24 -39 24q-26 0 -56 -11l-16 58q41 17 85 17q47 0 76.5 -20t29.5 -62q0 -48 -47 -72q-19 -10 -24 -16t-5 -16z" />
    <glyph glyph-name="uni1ED0" unicode="&#x1ed0;" horiz-adv-x="765" 
d="M709 356q0 -165 -86.5 -266.5t-239.5 -101.5t-240 102t-87 266q0 166 86 268t241 102q154 0 240 -102t86 -268zM592 356q0 120 -53.5 197.5t-155.5 77.5t-156 -77.5t-54 -197.5q0 -119 54 -196t156 -77t155.5 77t53.5 196zM560 758h-93l-82 93l-82 -93h-94l117 149h117z
M692 970l-100 -114h-87l71 114h116z" />
    <glyph glyph-name="uni1ED1" unicode="&#x1ed1;" horiz-adv-x="616" 
d="M565 265q0 -128 -69.5 -202.5t-187.5 -74.5t-187.5 74.5t-69.5 202.5t69.5 201.5t187.5 73.5q119 0 188 -73.5t69 -201.5zM451 265q0 86 -36 137t-107 51t-107 -51t-36 -137q0 -87 36.5 -138.5t106.5 -51.5q71 0 107 51t36 139zM476 604h-88l-80 109l-78 -109h-88
l110 164h114zM610 855l-101 -133h-83l72 133h112z" />
    <glyph glyph-name="uni1ED2" unicode="&#x1ed2;" horiz-adv-x="765" 
d="M709 356q0 -165 -86.5 -266.5t-239.5 -101.5t-240 102t-87 266q0 166 86 268t241 102q154 0 240 -102t86 -268zM592 356q0 120 -53.5 197.5t-155.5 77.5t-156 -77.5t-54 -197.5q0 -119 54 -196t156 -77t155.5 77t53.5 196zM560 758h-93l-82 93l-82 -93h-94l117 149h117z
M178 856l-100 114h116l71 -114h-87z" />
    <glyph glyph-name="uni1ED3" unicode="&#x1ed3;" horiz-adv-x="616" 
d="M565 265q0 -128 -69.5 -202.5t-187.5 -74.5t-187.5 74.5t-69.5 202.5t69.5 201.5t187.5 73.5q119 0 188 -73.5t69 -201.5zM451 265q0 86 -36 137t-107 51t-107 -51t-36 -137q0 -87 36.5 -138.5t106.5 -51.5q71 0 107 51t36 139zM476 604h-88l-80 109l-78 -109h-88
l110 164h114zM109 722l-101 133h112l72 -133h-83z" />
    <glyph glyph-name="uni1ED4" unicode="&#x1ed4;" horiz-adv-x="765" 
d="M709 356q0 -165 -86.5 -266.5t-239.5 -101.5t-240 102t-87 266q0 166 86 268t241 102q154 0 240 -102t86 -268zM592 356q0 120 -53.5 197.5t-155.5 77.5t-156 -77.5t-54 -197.5q0 -119 54 -196t156 -77t155.5 77t53.5 196zM560 758h-93l-82 93l-82 -93h-94l117 149h117z
M580 849h-71q0 24 8 38t29 24q31 15 31 32q0 22 -37 22q-24 0 -54 -10l-16 55q42 16 85 16q44 0 71 -19t27 -57q0 -47 -44 -71q-19 -11 -24 -16.5t-5 -13.5z" />
    <glyph glyph-name="uni1ED5" unicode="&#x1ed5;" horiz-adv-x="616" 
d="M565 265q0 -128 -69.5 -202.5t-187.5 -74.5t-187.5 74.5t-69.5 202.5t69.5 201.5t187.5 73.5q119 0 188 -73.5t69 -201.5zM451 265q0 86 -36 137t-107 51t-107 -51t-36 -137q0 -87 36.5 -138.5t106.5 -51.5q71 0 107 51t36 139zM476 604h-88l-80 109l-78 -109h-88
l110 164h114zM498 706h-71q0 24 8 38t29 24q31 16 31 32q0 22 -37 22q-24 0 -54 -10l-16 55q42 16 85 16q44 0 71 -19t27 -58q0 -46 -44 -70q-19 -11 -24 -16.5t-5 -13.5z" />
    <glyph glyph-name="uni1ED6" unicode="&#x1ed6;" horiz-adv-x="765" 
d="M709 356q0 -165 -86.5 -266.5t-239.5 -101.5t-240 102t-87 266q0 166 86 268t241 102q154 0 240 -102t86 -268zM592 356q0 120 -53.5 197.5t-155.5 77.5t-156 -77.5t-54 -197.5q0 -119 54 -196t156 -77t155.5 77t53.5 196zM560 758h-93l-82 81l-82 -81h-94l117 137h117z
M398 1022q38 -23 53 -23q33 0 34 51h70q-7 -122 -97 -122q-39 0 -80 25q-44 26 -57 26q-33 0 -35 -51h-70q6 122 97 122q38 0 85 -28z" />
    <glyph glyph-name="uni1ED7" unicode="&#x1ed7;" horiz-adv-x="616" 
d="M565 265q0 -128 -69.5 -202.5t-187.5 -74.5t-187.5 74.5t-69.5 202.5t69.5 201.5t187.5 73.5q119 0 188 -73.5t69 -201.5zM451 265q0 86 -36 137t-107 51t-107 -51t-36 -137q0 -87 36.5 -138.5t106.5 -51.5q71 0 107 51t36 139zM476 604h-88l-80 93l-78 -93h-88l110 147
h114zM322 878q38 -23 53 -23q33 0 34 51h70q-7 -122 -97 -122q-39 0 -80 25q-44 26 -57 26q-33 0 -35 -51h-70q6 122 97 122q38 0 85 -28z" />
    <glyph glyph-name="uni1ED8" unicode="&#x1ed8;" horiz-adv-x="765" 
d="M709 356q0 -165 -86.5 -266.5t-239.5 -101.5t-240 102t-87 266q0 166 86 268t241 102q154 0 240 -102t86 -268zM592 356q0 120 -53.5 197.5t-155.5 77.5t-156 -77.5t-54 -197.5q0 -119 54 -196t156 -77t155.5 77t53.5 196zM560 758h-93l-82 93l-82 -93h-94l117 149h117z
M447 -95v-113h-121v113h121z" />
    <glyph glyph-name="uni1ED9" unicode="&#x1ed9;" horiz-adv-x="616" 
d="M565 265q0 -128 -69.5 -202.5t-187.5 -74.5t-187.5 74.5t-69.5 202.5t69.5 201.5t187.5 73.5q119 0 188 -73.5t69 -201.5zM451 265q0 86 -36 137t-107 51t-107 -51t-36 -137q0 -87 36.5 -138.5t106.5 -51.5q71 0 107 51t36 139zM476 604h-88l-80 109l-78 -109h-88
l110 164h114zM369 -95v-113h-121v113h121z" />
    <glyph glyph-name="uni1EDA" unicode="&#x1eda;" horiz-adv-x="765" 
d="M592 356q0 120 -53.5 197.5t-155.5 77.5t-156 -77.5t-54 -197.5q0 -119 54 -196t156 -77t155.5 77t53.5 196zM642 739q0 28 -16 58l85 23q20 -39 20 -83q0 -98 -112 -110q90 -99 90 -271q0 -165 -86.5 -266.5t-239.5 -101.5t-240 102t-87 266q0 166 86 268t241 102
q58 0 122 -20q53 -16 81 -16q56 0 56 49zM537 903l-125 -140h-89l87 140h127z" />
    <glyph glyph-name="uni1EDB" unicode="&#x1edb;" horiz-adv-x="616" 
d="M451 265q0 86 -36 137t-107 51t-107 -51t-36 -137q0 -87 36.5 -138.5t106.5 -51.5q71 0 107 51t36 139zM589 565q0 -90 -87 -105q63 -71 63 -195q0 -128 -69.5 -202.5t-187.5 -74.5t-187.5 74.5t-69.5 202.5t69.5 201.5t187.5 73.5q42 0 82 -11q42 -11 62 -11q48 0 48 49
q0 28 -16 58l85 23q20 -39 20 -83zM465 768l-127 -164h-84l91 164h120z" />
    <glyph glyph-name="uni1EDC" unicode="&#x1edc;" horiz-adv-x="765" 
d="M592 356q0 120 -53.5 197.5t-155.5 77.5t-156 -77.5t-54 -197.5q0 -119 54 -196t156 -77t155.5 77t53.5 196zM642 739q0 28 -16 58l85 23q20 -39 20 -83q0 -98 -112 -110q90 -99 90 -271q0 -165 -86.5 -266.5t-239.5 -101.5t-240 102t-87 266q0 166 86 268t241 102
q58 0 122 -20q53 -16 81 -16q56 0 56 49zM225 903h127l85 -140h-89z" />
    <glyph glyph-name="uni1EDD" unicode="&#x1edd;" horiz-adv-x="616" 
d="M451 265q0 86 -36 137t-107 51t-107 -51t-36 -137q0 -87 36.5 -138.5t106.5 -51.5q71 0 107 51t36 139zM589 565q0 -90 -87 -105q63 -71 63 -195q0 -128 -69.5 -202.5t-187.5 -74.5t-187.5 74.5t-69.5 202.5t69.5 201.5t187.5 73.5q42 0 82 -11q42 -11 62 -11q48 0 48 49
q0 28 -16 58l85 23q20 -39 20 -83zM279 604l-128 164h121l91 -164h-84z" />
    <glyph glyph-name="uni1EDE" unicode="&#x1ede;" horiz-adv-x="765" 
d="M592 356q0 120 -53.5 197.5t-155.5 77.5t-156 -77.5t-54 -197.5q0 -119 54 -196t156 -77t155.5 77t53.5 196zM642 739q0 28 -16 58l85 23q20 -39 20 -83q0 -98 -112 -110q90 -99 90 -271q0 -165 -86.5 -266.5t-239.5 -101.5t-240 102t-87 266q0 166 86 268t241 102
q58 0 122 -20q53 -16 81 -16q56 0 56 49zM416 758h-74q0 26 8 40.5t31 25.5q32 16 32 32q0 24 -39 24q-27 0 -56 -11l-16 58q39 17 85 17t75.5 -20t29.5 -62q0 -48 -47 -72q-19 -10 -24 -16t-5 -16z" />
    <glyph glyph-name="uni1EDF" unicode="&#x1edf;" horiz-adv-x="616" 
d="M451 265q0 86 -36 137t-107 51t-107 -51t-36 -137q0 -87 36.5 -138.5t106.5 -51.5q71 0 107 51t36 139zM589 565q0 -90 -87 -105q63 -71 63 -195q0 -128 -69.5 -202.5t-187.5 -74.5t-187.5 74.5t-69.5 202.5t69.5 201.5t187.5 73.5q42 0 82 -11q42 -11 62 -11q48 0 48 49
q0 28 -16 58l85 23q20 -39 20 -83zM343 607h-74q0 27 8 41t30 25q32 16 32 32q0 24 -39 24q-26 0 -56 -11l-16 58q41 17 85 17q47 0 76.5 -20t29.5 -62q0 -48 -47 -72q-19 -10 -24 -16t-5 -16z" />
    <glyph glyph-name="uni1EE0" unicode="&#x1ee0;" horiz-adv-x="765" 
d="M592 356q0 120 -53.5 197.5t-155.5 77.5t-156 -77.5t-54 -197.5q0 -119 54 -196t156 -77t155.5 77t53.5 196zM642 739q0 28 -16 58l85 23q20 -39 20 -83q0 -98 -112 -110q90 -99 90 -271q0 -165 -86.5 -266.5t-239.5 -101.5t-240 102t-87 266q0 166 86 268t241 102
q58 0 122 -20q53 -16 81 -16q56 0 56 49zM396 868q36 -26 55 -26q33 0 36 60h71q-3 -63 -27.5 -101t-71.5 -38q-36 0 -84 32q-41 28 -60 28q-34 0 -37 -59h-71q4 64 30 101t71 37q40 0 88 -34z" />
    <glyph glyph-name="uni1EE1" unicode="&#x1ee1;" horiz-adv-x="616" 
d="M451 265q0 86 -36 137t-107 51t-107 -51t-36 -137q0 -87 36.5 -138.5t106.5 -51.5q71 0 107 51t36 139zM589 565q0 -90 -87 -105q63 -71 63 -195q0 -128 -69.5 -202.5t-187.5 -74.5t-187.5 74.5t-69.5 202.5t69.5 201.5t187.5 73.5q42 0 82 -11q42 -11 62 -11q48 0 48 49
q0 28 -16 58l85 23q20 -39 20 -83zM326 716q37 -27 55 -27q33 0 36 60h71q-3 -63 -27.5 -100.5t-71.5 -37.5q-37 0 -84 31q-43 29 -60 29q-34 0 -37 -60h-71q4 64 30 101t71 37q39 0 88 -33z" />
    <glyph glyph-name="uni1EE2" unicode="&#x1ee2;" horiz-adv-x="765" 
d="M592 356q0 120 -53.5 197.5t-155.5 77.5t-156 -77.5t-54 -197.5q0 -119 54 -196t156 -77t155.5 77t53.5 196zM642 739q0 28 -16 58l85 23q20 -39 20 -83q0 -98 -112 -110q90 -99 90 -271q0 -165 -86.5 -266.5t-239.5 -101.5t-240 102t-87 266q0 166 86 268t241 102
q58 0 122 -20q53 -16 81 -16q56 0 56 49zM444 -95v-113h-121v113h121z" />
    <glyph glyph-name="uni1EE3" unicode="&#x1ee3;" horiz-adv-x="616" 
d="M451 265q0 86 -36 137t-107 51t-107 -51t-36 -137q0 -87 36.5 -138.5t106.5 -51.5q71 0 107 51t36 139zM589 565q0 -90 -87 -105q63 -71 63 -195q0 -128 -69.5 -202.5t-187.5 -74.5t-187.5 74.5t-69.5 202.5t69.5 201.5t187.5 73.5q42 0 82 -11q42 -11 62 -11q48 0 48 49
q0 28 -16 58l85 23q20 -39 20 -83zM369 -95v-113h-121v113h121z" />
    <glyph glyph-name="uni1EE4" unicode="&#x1ee4;" horiz-adv-x="692" 
d="M620 714v-503q0 -103 -75 -163t-199 -60q-123 0 -198.5 60.5t-75.5 162.5v503h117v-489q0 -71 41 -106.5t115 -35.5q73 0 115.5 37.5t42.5 104.5v489h117zM407 -95v-113h-121v113h121z" />
    <glyph glyph-name="uni1EE5" unicode="&#x1ee5;" horiz-adv-x="615" 
d="M539 0h-111v74h-2q-21 -41 -65 -63.5t-97 -22.5q-89 0 -141 52.5t-52 139.5v348h114v-305q0 -73 25 -110.5t87 -37.5q53 0 90.5 40t37.5 121v292h114v-528zM367 -95v-113h-121v113h121z" />
    <glyph glyph-name="uni1EE6" unicode="&#x1ee6;" horiz-adv-x="692" 
d="M620 714v-503q0 -103 -75 -163t-199 -60q-123 0 -198.5 60.5t-75.5 162.5v503h117v-489q0 -71 41 -106.5t115 -35.5q73 0 115.5 37.5t42.5 104.5v489h117zM381 758h-74q0 26 8 40.5t31 25.5q32 16 32 32q0 24 -39 24q-27 0 -56 -11l-16 58q39 17 85 17t75.5 -20t29.5 -62
q0 -48 -47 -72q-19 -10 -24 -16t-5 -16z" />
    <glyph glyph-name="uni1EE7" unicode="&#x1ee7;" horiz-adv-x="615" 
d="M539 0h-111v74h-2q-21 -41 -65 -63.5t-97 -22.5q-89 0 -141 52.5t-52 139.5v348h114v-305q0 -73 25 -110.5t87 -37.5q53 0 90.5 40t37.5 121v292h114v-528zM340 607h-74q0 27 8 41t30 25q32 16 32 32q0 24 -39 24q-26 0 -56 -11l-16 58q41 17 85 17q47 0 76.5 -20
t29.5 -62q0 -48 -47 -72q-19 -10 -24 -16t-5 -16z" />
    <glyph glyph-name="uni1EE8" unicode="&#x1ee8;" horiz-adv-x="692" 
d="M649 763q0 28 -16 58l85 23q20 -39 20 -83q0 -106 -118 -109v-441q0 -103 -75 -163t-199 -60q-123 0 -198.5 60.5t-75.5 162.5v503h117v-489q0 -71 41 -106.5t115 -35.5q73 0 115.5 37.5t42.5 104.5v489h99q47 0 47 49zM498 903l-125 -140h-89l87 140h127z" />
    <glyph glyph-name="uni1EE9" unicode="&#x1ee9;" horiz-adv-x="615" 
d="M567 577q0 28 -16 58l85 23q20 -39 20 -83q0 -106 -117 -109v-466h-111v74h-2q-21 -41 -65 -63.5t-97 -22.5q-89 0 -141 52.5t-52 139.5v348h114v-305q0 -73 25 -110.5t87 -37.5q53 0 90.5 40t37.5 121v292h95q47 0 47 49zM461 768l-127 -164h-84l91 164h120z" />
    <glyph glyph-name="uni1EEA" unicode="&#x1eea;" horiz-adv-x="692" 
d="M649 763q0 28 -16 58l85 23q20 -39 20 -83q0 -106 -118 -109v-441q0 -103 -75 -163t-199 -60q-123 0 -198.5 60.5t-75.5 162.5v503h117v-489q0 -71 41 -106.5t115 -35.5q73 0 115.5 37.5t42.5 104.5v489h99q47 0 47 49zM189 903h127l85 -140h-89z" />
    <glyph glyph-name="uni1EEB" unicode="&#x1eeb;" horiz-adv-x="615" 
d="M567 577q0 28 -16 58l85 23q20 -39 20 -83q0 -106 -117 -109v-466h-111v74h-2q-21 -41 -65 -63.5t-97 -22.5q-89 0 -141 52.5t-52 139.5v348h114v-305q0 -73 25 -110.5t87 -37.5q53 0 90.5 40t37.5 121v292h95q47 0 47 49zM277 604l-128 164h121l91 -164h-84z" />
    <glyph glyph-name="uni1EEC" unicode="&#x1eec;" horiz-adv-x="692" 
d="M649 763q0 28 -16 58l85 23q20 -39 20 -83q0 -106 -118 -109v-441q0 -103 -75 -163t-199 -60q-123 0 -198.5 60.5t-75.5 162.5v503h117v-489q0 -71 41 -106.5t115 -35.5q73 0 115.5 37.5t42.5 104.5v489h99q47 0 47 49zM381 758h-74q0 26 8 40.5t31 25.5q32 16 32 32
q0 24 -39 24q-27 0 -56 -11l-16 58q39 17 85 17t75.5 -20t29.5 -62q0 -48 -47 -72q-19 -10 -24 -16t-5 -16z" />
    <glyph glyph-name="uni1EED" unicode="&#x1eed;" horiz-adv-x="615" 
d="M567 577q0 28 -16 58l85 23q20 -39 20 -83q0 -106 -117 -109v-466h-111v74h-2q-21 -41 -65 -63.5t-97 -22.5q-89 0 -141 52.5t-52 139.5v348h114v-305q0 -73 25 -110.5t87 -37.5q53 0 90.5 40t37.5 121v292h95q47 0 47 49zM340 607h-74q0 27 8 41t30 25q32 16 32 32
q0 24 -39 24q-26 0 -56 -11l-16 58q41 17 85 17q47 0 76.5 -20t29.5 -62q0 -48 -47 -72q-19 -10 -24 -16t-5 -16z" />
    <glyph glyph-name="uni1EEE" unicode="&#x1eee;" horiz-adv-x="692" 
d="M649 763q0 28 -16 58l85 23q20 -39 20 -83q0 -106 -118 -109v-441q0 -103 -75 -163t-199 -60q-123 0 -198.5 60.5t-75.5 162.5v503h117v-489q0 -71 41 -106.5t115 -35.5q73 0 115.5 37.5t42.5 104.5v489h99q47 0 47 49zM367 868q36 -26 55 -26q33 0 36 60h71
q-3 -63 -27.5 -101t-71.5 -38q-36 0 -84 32q-41 28 -60 28q-34 0 -37 -59h-71q4 64 30 101t71 37q40 0 88 -34z" />
    <glyph glyph-name="uni1EEF" unicode="&#x1eef;" horiz-adv-x="615" 
d="M567 577q0 28 -16 58l85 23q20 -39 20 -83q0 -106 -117 -109v-466h-111v74h-2q-21 -41 -65 -63.5t-97 -22.5q-89 0 -141 52.5t-52 139.5v348h114v-305q0 -73 25 -110.5t87 -37.5q53 0 90.5 40t37.5 121v292h95q47 0 47 49zM324 716q37 -27 55 -27q33 0 36 60h71
q-3 -63 -27.5 -100.5t-71.5 -37.5q-37 0 -84 31q-43 29 -60 29q-34 0 -37 -60h-71q4 64 30 101t71 37q39 0 88 -33z" />
    <glyph glyph-name="uni1EF0" unicode="&#x1ef0;" horiz-adv-x="692" 
d="M649 763q0 28 -16 58l85 23q20 -39 20 -83q0 -106 -118 -109v-441q0 -103 -75 -163t-199 -60q-123 0 -198.5 60.5t-75.5 162.5v503h117v-489q0 -71 41 -106.5t115 -35.5q73 0 115.5 37.5t42.5 104.5v489h99q47 0 47 49zM407 -95v-113h-121v113h121z" />
    <glyph glyph-name="uni1EF1" unicode="&#x1ef1;" horiz-adv-x="615" 
d="M567 577q0 28 -16 58l85 23q20 -39 20 -83q0 -106 -117 -109v-466h-111v74h-2q-21 -41 -65 -63.5t-97 -22.5q-89 0 -141 52.5t-52 139.5v348h114v-305q0 -73 25 -110.5t87 -37.5q53 0 90.5 40t37.5 121v292h95q47 0 47 49zM367 -95v-113h-121v113h121z" />
    <glyph glyph-name="Ygrave" unicode="&#x1ef2;" horiz-adv-x="642" 
d="M263 0v281l-262 433h137l185 -323l186 323h132l-261 -433v-281h-117zM175 903h127l85 -140h-89z" />
    <glyph glyph-name="ygrave" unicode="&#x1ef3;" horiz-adv-x="539" 
d="M129 528l142 -389h2l141 389h120l-287 -723h-120l85 206l-207 517h124zM238 604l-128 164h121l91 -164h-84z" />
    <glyph glyph-name="uni1EF4" unicode="&#x1ef4;" horiz-adv-x="642" 
d="M263 0v281l-262 433h137l185 -323l186 323h132l-261 -433v-281h-117zM382 -95v-113h-121v113h121z" />
    <glyph glyph-name="uni1EF5" unicode="&#x1ef5;" horiz-adv-x="539" 
d="M129 528l142 -389h2l141 389h120l-287 -723h-120l85 206l-207 517h124zM466 -95v-113h-121v113h121z" />
    <glyph glyph-name="uni1EF6" unicode="&#x1ef6;" horiz-adv-x="642" 
d="M263 0v281l-262 433h137l185 -323l186 323h132l-261 -433v-281h-117zM354 758h-74q0 26 8 40.5t31 25.5q32 16 32 32q0 24 -39 24q-27 0 -56 -11l-16 58q39 17 85 17t75.5 -20t29.5 -62q0 -48 -47 -72q-19 -10 -24 -16t-5 -16z" />
    <glyph glyph-name="uni1EF7" unicode="&#x1ef7;" horiz-adv-x="539" 
d="M129 528l142 -389h2l141 389h120l-287 -723h-120l85 206l-207 517h124zM304 607h-74q0 27 8 41t30 25q32 16 32 32q0 24 -39 24q-26 0 -56 -11l-16 58q41 17 85 17q47 0 76.5 -20t29.5 -62q0 -48 -47 -72q-19 -10 -24 -16t-5 -16z" />
    <glyph glyph-name="uni1EF8" unicode="&#x1ef8;" horiz-adv-x="642" 
d="M263 0v281l-262 433h137l185 -323l186 323h132l-261 -433v-281h-117zM336 868q36 -26 55 -26q33 0 36 60h71q-3 -63 -27.5 -101t-71.5 -38q-36 0 -84 32q-41 28 -60 28q-34 0 -37 -59h-71q4 64 30 101t71 37q40 0 88 -34z" />
    <glyph glyph-name="uni1EF9" unicode="&#x1ef9;" horiz-adv-x="539" 
d="M129 528l142 -389h2l141 389h120l-287 -723h-120l85 206l-207 517h124zM286 716q37 -27 55 -27q33 0 36 60h71q-3 -63 -27.5 -100.5t-71.5 -37.5q-37 0 -84 31q-43 29 -60 29q-34 0 -37 -60h-71q4 64 30 101t71 37q39 0 88 -33z" />
    <glyph glyph-name="uni2010" unicode="&#x2010;" horiz-adv-x="398" 
d="M71 254v93h255v-93h-255z" />
    <glyph glyph-name="uni2011" unicode="&#x2011;" horiz-adv-x="398" 
d="M71 254v93h255v-93h-255z" />
    <glyph glyph-name="endash" unicode="&#x2013;" horiz-adv-x="498" 
d="M472 338v-76h-446v76h446z" />
    <glyph glyph-name="emdash" unicode="&#x2014;" horiz-adv-x="798" 
d="M772 338v-76h-746v76h746z" />
    <glyph glyph-name="afii00208" unicode="&#x2015;" horiz-adv-x="798" 
d="M772 338v-76h-746v76h746z" />
    <glyph glyph-name="quoteleft" unicode="&#x2018;" horiz-adv-x="287" 
d="M224 735l-46 -233h-115l83 233h78z" />
    <glyph glyph-name="quoteright" unicode="&#x2019;" horiz-adv-x="287" 
d="M63 501l45 234h116l-84 -234h-77z" />
    <glyph glyph-name="quotesinglbase" unicode="&#x201a;" horiz-adv-x="287" 
d="M63 -138l45 233h116l-84 -233h-77z" />
    <glyph glyph-name="quotedblleft" unicode="&#x201c;" horiz-adv-x="449" 
d="M386 735l-46 -234h-108l78 234h76zM224 735l-52 -234h-109l84 234h77z" />
    <glyph glyph-name="quotedblright" unicode="&#x201d;" horiz-adv-x="449" 
d="M63 502l45 233h110l-78 -233h-77zM225 502l52 233h109l-85 -233h-76z" />
    <glyph glyph-name="quotedblbase" unicode="&#x201e;" horiz-adv-x="449" 
d="M63 -138l45 233h110l-78 -233h-77zM225 -138l52 233h109l-85 -233h-76z" />
    <glyph glyph-name="dagger" unicode="&#x2020;" horiz-adv-x="515" 
d="M309 668v-182h177v-88h-177v-522h-102v522h-178v88h178v182h102z" />
    <glyph glyph-name="daggerdbl" unicode="&#x2021;" horiz-adv-x="515" 
d="M309 668v-174h172v-88h-172v-270h172v-88h-172v-172h-102v172h-173v88h173v270h-173v88h173v174h102z" />
    <glyph glyph-name="bullet" unicode="&#x2022;" 
d="M67 329q0 68 48 116.5t116 48.5q69 0 117 -48.5t48 -116.5t-48 -116t-117 -48q-68 0 -116 48t-48 116z" />
    <glyph glyph-name="ellipsis" unicode="&#x2026;" horiz-adv-x="882" 
d="M83 0v129h128v-129h-128zM378 0v129h127v-129h-127zM672 0v129h127v-129h-127z" />
    <glyph glyph-name="perthousand" unicode="&#x2030;" horiz-adv-x="1175" 
d="M669 714l-432 -714h-81l432 714h81zM353 523q0 -89 -39 -139.5t-111 -50.5q-71 0 -110 50.5t-39 139.5q0 90 39 141.5t110 51.5q72 0 111 -51.5t39 -141.5zM265 523q0 53 -15.5 85.5t-46.5 32.5q-30 0 -45 -32.5t-15 -85.5q0 -51 15 -83.5t45 -32.5q31 0 46.5 32.5
t15.5 83.5zM772 191q0 -89 -39 -140t-110 -51t-110 51t-39 140q0 90 39 141t110 51t110 -51t39 -141zM684 191q0 53 -15 85t-46 32t-46 -32t-15 -85t15 -85t46 -32t46 32t15 85zM1121 191q0 -90 -39 -140.5t-111 -50.5q-71 0 -110 51t-39 140q0 90 39 141t110 51
q72 0 111 -51t39 -141zM1033 191q0 117 -62 117q-31 0 -46 -32t-15 -85t15 -85t46 -32q62 0 62 117z" />
    <glyph glyph-name="guilsinglleft" unicode="&#x2039;" horiz-adv-x="350" 
d="M285 496l-120 -198l120 -199h-101l-119 196v5l122 196h98z" />
    <glyph glyph-name="guilsinglright" unicode="&#x203a;" horiz-adv-x="350" 
d="M65 99l120 199l-120 198h101l119 -196v-5l-123 -196h-97z" />
    <glyph glyph-name="interrobang" unicode="&#x203d;" horiz-adv-x="497" 
d="M273 526l-5 -141h2l33 30q30 27 44 52.5t14 60.5q0 55 -34 80t-88 25q-75 0 -147 -41l-33 83q86 51 192 51q93 0 156 -48t63 -148q0 -62 -25.5 -102.5t-77.5 -79.5q-51 -38 -68.5 -62.5t-17.5 -63.5v-21h-106l-9 325h107zM165 0v124h130v-124h-130z" />
    <glyph glyph-name="fraction" unicode="&#x2044;" horiz-adv-x="121" 
d="M306 714l-409 -714h-82l409 714h82z" />
    <glyph glyph-name="zero.superior" unicode="&#x2070;" horiz-adv-x="383" 
d="M192 864q79 0 120.5 -60t41.5 -165q0 -103 -41.5 -160.5t-120.5 -57.5q-80 0 -121 57.5t-41 160.5q0 105 41 165t121 60zM192 794q-38 0 -57 -43t-19 -112q0 -148 76 -148q37 0 56.5 41t19.5 107q0 68 -19.5 111.5t-56.5 43.5z" />
    <glyph glyph-name="four.superior" unicode="&#x2074;" horiz-adv-x="383" 
d="M306 856v-269h51v-70h-51v-89h-85v89h-194v83l165 256h114zM221 587v190h-2l-117 -190h119z" />
    <glyph glyph-name="five.superior" unicode="&#x2075;" horiz-adv-x="383" 
d="M252 561q0 70 -96 70q-42 0 -90 -10l13 236h241v-70h-163l-6 -93q14 3 44 3q63 0 103.5 -35.5t40.5 -96.5q0 -70 -45.5 -107t-115.5 -37q-76 0 -134 27l21 66q49 -23 101 -23q86 0 86 70z" />
    <glyph glyph-name="six.superior" unicode="&#x2076;" horiz-adv-x="383" 
d="M120 676h2q32 37 90 37q67 0 103 -39t36 -103q0 -66 -43.5 -108t-112.5 -42q-60 0 -98.5 33t-51.5 75.5t-13 93.5q0 108 47.5 174.5t142.5 66.5q50 0 84 -12l-14 -69q-30 11 -66 11q-93 0 -106 -118zM121 581q0 -35 20 -63t55 -28q31 0 50 22.5t19 58.5q0 32 -18 54
t-51 22q-34 0 -54.5 -20t-20.5 -46z" />
    <glyph glyph-name="seven.superior" unicode="&#x2077;" horiz-adv-x="383" 
d="M50 787v70h283v-68q-114 -190 -128 -361h-89q15 166 128 359h-194z" />
    <glyph glyph-name="eight.superior" unicode="&#x2078;" horiz-adv-x="383" 
d="M192 614q-28 0 -51 -16.5t-23 -46.5t20.5 -45.5t53.5 -15.5t54 15.5t21 45.5t-23.5 46.5t-51.5 16.5zM190 864q62 0 106 -30.5t44 -84.5q0 -70 -69 -95v-2q82 -31 82 -110q0 -57 -45.5 -89t-115.5 -32q-71 0 -116.5 32t-45.5 89q0 79 82 106v2q-69 28 -69 99
q0 54 42.5 84.5t104.5 30.5zM192 682q27 0 46 16t19 44q0 25 -18.5 40t-47.5 15q-28 0 -46 -15t-18 -40q0 -29 19 -44.5t46 -15.5z" />
    <glyph glyph-name="nine.superior" unicode="&#x2079;" horiz-adv-x="383" 
d="M263 608h-1q-35 -38 -91 -38q-66 0 -102.5 39.5t-36.5 102.5q0 66 43.5 109t112.5 43q46 0 79 -18.5t50.5 -50t25.5 -65t8 -70.5q0 -107 -47.5 -173t-142.5 -66q-51 0 -86 11l13 70q29 -12 68 -12q49 0 75.5 32.5t31.5 85.5zM262 704q0 34 -19.5 62t-54.5 28
q-31 0 -50.5 -22.5t-19.5 -58.5q0 -32 18 -54t51 -22t54 20.5t21 46.5z" />
    <glyph glyph-name="zero.inferior" unicode="&#x2080;" horiz-adv-x="383" 
d="M192 296q79 0 120.5 -60t41.5 -165q0 -103 -41.5 -160.5t-120.5 -57.5q-80 0 -121 57.5t-41 160.5q0 105 41 165t121 60zM192 226q-38 0 -57 -43t-19 -112q0 -148 76 -148q37 0 56.5 41t19.5 107q0 68 -19.5 111.5t-56.5 43.5z" />
    <glyph glyph-name="one.inferior" unicode="&#x2081;" horiz-adv-x="383" 
d="M255 288v-428h-89v346l-81 -48l-30 65l113 65h87z" />
    <glyph glyph-name="two.inferior" unicode="&#x2082;" horiz-adv-x="383" 
d="M334 -70v-70h-286v74q114 98 153 145t39 86q0 28 -17.5 44t-46.5 16q-47 0 -98 -32l-28 62q58 41 133 41q67 0 105.5 -33.5t37.5 -94.5q0 -56 -36.5 -102.5t-139.5 -134.5l3 -1h181z" />
    <glyph glyph-name="three.inferior" unicode="&#x2083;" horiz-adv-x="383" 
d="M103 45v68h53q86 0 86 59q0 26 -19 40t-49 14q-47 0 -96 -24l-21 68q55 26 127 26q63 0 104 -28t41 -85q0 -74 -75 -97v-2q41 -10 63 -38t22 -63q0 -65 -45.5 -97.5t-116.5 -32.5q-73 0 -134 28l24 68q51 -25 106 -25q36 0 57.5 15.5t21.5 45.5q0 60 -97 60h-52z" />
    <glyph glyph-name="four.inferior" unicode="&#x2084;" horiz-adv-x="383" 
d="M306 288v-269h51v-70h-51v-89h-85v89h-194v83l165 256h114zM221 19v190h-2l-117 -190h119z" />
    <glyph glyph-name="five.inferior" unicode="&#x2085;" horiz-adv-x="383" 
d="M252 -7q0 70 -96 70q-42 0 -90 -10l13 236h241v-70h-163l-6 -93q14 3 44 3q63 0 103.5 -35.5t40.5 -96.5q0 -70 -45.5 -107t-115.5 -37q-76 0 -134 27l21 66q49 -23 101 -23q86 0 86 70z" />
    <glyph glyph-name="six.inferior" unicode="&#x2086;" horiz-adv-x="383" 
d="M120 108h2q32 37 90 37q67 0 103 -39t36 -103q0 -66 -43.5 -108t-112.5 -42q-60 0 -98.5 33t-51.5 75.5t-13 93.5q0 108 47.5 174.5t142.5 66.5q50 0 84 -12l-14 -69q-30 11 -66 11q-93 0 -106 -118zM121 13q0 -35 20 -63t55 -28q31 0 50 22.5t19 58.5q0 32 -18 54
t-51 22q-34 0 -54.5 -20t-20.5 -46z" />
    <glyph glyph-name="seven.inferior" unicode="&#x2087;" horiz-adv-x="383" 
d="M50 219v70h283v-68q-114 -190 -128 -361h-89q15 166 128 359h-194z" />
    <glyph glyph-name="eight.inferior" unicode="&#x2088;" horiz-adv-x="383" 
d="M192 46q-28 0 -51 -16.5t-23 -46.5t20.5 -45.5t53.5 -15.5t54 15.5t21 45.5t-23.5 46.5t-51.5 16.5zM190 296q62 0 106 -30.5t44 -84.5q0 -70 -69 -95v-2q82 -31 82 -110q0 -57 -45.5 -89t-115.5 -32q-71 0 -116.5 32t-45.5 89q0 79 82 106v2q-69 28 -69 99
q0 54 42.5 84.5t104.5 30.5zM192 114q27 0 46 16t19 44q0 25 -18.5 40t-47.5 15q-28 0 -46 -15t-18 -40q0 -29 19 -44.5t46 -15.5z" />
    <glyph glyph-name="nine.inferior" unicode="&#x2089;" horiz-adv-x="383" 
d="M263 40h-1q-35 -38 -91 -38q-66 0 -102.5 39.5t-36.5 102.5q0 66 43.5 109t112.5 43q46 0 79 -18.5t50.5 -50t25.5 -65t8 -70.5q0 -107 -47.5 -173t-142.5 -66q-51 0 -86 11l13 70q29 -12 68 -12q49 0 75.5 32.5t31.5 85.5zM262 136q0 34 -19.5 62t-54.5 28
q-31 0 -50.5 -22.5t-19.5 -58.5q0 -32 18 -54t51 -22t54 20.5t21 46.5z" />
    <glyph glyph-name="uni20AB" unicode="&#x20ab;" horiz-adv-x="628" 
d="M438 463v129h-104v72h104v71h114v-71h47v-72h-47v-592h-111v73h-2q-59 -85 -165 -85q-104 0 -163.5 78t-59.5 198t61 198t165 78t159 -77h2zM165 264q0 -83 34.5 -136t100.5 -53q67 0 105.5 53.5t38.5 136.5q0 82 -38.5 135t-105.5 53q-66 0 -100.5 -53t-34.5 -136z
M566 -150h-493v81h493v-81z" />
    <glyph glyph-name="Euro" unicode="&#x20ac;" horiz-adv-x="654" 
d="M44 329h65q-1 12 -1 26q0 15 2 47h-87l21 74h78q29 114 113 182t220 68q98 0 161 -29l-29 -94q-49 27 -124 27q-175 0 -222 -154h308l-20 -74h-302q-2 -24 -2 -48q0 -14 1 -25h288l-21 -74h-257q42 -171 225 -171q75 0 136 28l25 -92q-68 -32 -173 -32q-133 0 -219.5 72
t-111.5 195h-95z" />
    <glyph glyph-name="afii61248" unicode="&#x2105;" horiz-adv-x="775" 
d="M295 711l-15 -65q-32 14 -61 14q-43 0 -66.5 -29t-23.5 -74q0 -44 23 -72t67 -28q31 0 64 15l12 -66q-42 -14 -80 -14q-82 0 -127 45.5t-45 119.5t46.5 121t125.5 47q42 0 80 -14zM622 714l-409 -714h-82l409 714h82zM732 155q0 -77 -44 -122t-117 -45t-117 45t-44 122
t43.5 121.5t117.5 44.5q75 0 118 -44t43 -122zM646 155q0 101 -75 101q-76 0 -76 -101q0 -47 20 -74.5t56 -27.5q75 0 75 102z" />
    <glyph glyph-name="afii61289" unicode="&#x2113;" horiz-adv-x="429" 
d="M89 357q0 94 7 158.5t25.5 117t53.5 77.5t87 25q125 0 125 -168q0 -123 -47 -219t-136 -154q9 -64 30.5 -88.5t60.5 -24.5q36 0 69 14l4 -86q-45 -15 -96 -15q-73 0 -113.5 36t-55.5 119q-37 -13 -78 -21v89q40 8 67 20q-3 53 -3 120zM197 357v-65q92 82 92 274
q0 85 -35 85q-57 0 -57 -294z" />
    <glyph glyph-name="uni2116" unicode="&#x2116;" horiz-adv-x="1079" 
d="M83 0v714h175l263 -587h2v587h109v-714h-169l-269 593h-2v-593h-109zM727 276v74h277v-74h-277zM866 392q-74 0 -118 45t-44 122t44 122t118 45t117.5 -45t43.5 -122t-44 -122t-117 -45zM866 456q75 0 75 103q0 47 -19 74.5t-56 27.5q-38 0 -57 -27.5t-19 -74.5
q0 -48 20 -75.5t56 -27.5z" />
    <glyph glyph-name="published" unicode="&#x2117;" horiz-adv-x="798" 
d="M93 355q0 -131 86.5 -221t221.5 -90q133 0 219 90.5t86 220.5q0 132 -86 224t-219 92q-135 0 -221.5 -92t-86.5 -224zM34 355q0 156 104 262t263 106q158 0 260.5 -106t102.5 -262q0 -154 -102.5 -259t-260.5 -105q-159 0 -263 105.5t-104 258.5zM267 140v428h163
q68 0 111.5 -32.5t43.5 -102.5q0 -71 -44 -106t-111 -35h-78v-152h-85zM352 497v-134h70q78 0 78 68q0 66 -83 66h-65z" />
    <glyph glyph-name="trademark" unicode="&#x2122;" horiz-adv-x="928" 
d="M360 714v-60h-103v-323h-74v323h-105v60h282zM802 714v-383h-70v309h-2l-93 -309h-69l-92 309h-2v-309h-67v383h114l82 -294h2l81 294h116z" />
    <glyph glyph-name="Omega" unicode="&#x2126;" horiz-adv-x="779" 
d="M389 631q-99 0 -150.5 -62t-51.5 -163q0 -180 152 -230v-176h-264v95h164v38q-169 71 -169 275q0 141 84.5 229.5t234.5 88.5q151 0 235.5 -88.5t84.5 -229.5q0 -206 -169 -275v-38h164v-95h-264v176q152 48 152 230q0 101 -51.5 163t-151.5 62z" />
    <glyph glyph-name="estimated" unicode="&#x212e;" horiz-adv-x="791" 
d="M627 126h63q-56 -63 -128 -100t-179 -37q-144 0 -246.5 90.5t-102.5 240.5q0 146 109.5 243t261.5 97q86 0 155 -29.5t111.5 -77.5t65 -107t22.5 -121v-3h-570l-8 -10v-213q86 -77 208 -77q145 0 238 104zM605 355l8 9v190q-78 73 -208 73q-138 0 -224 -81v-182l8 -9h416
z" />
    <glyph glyph-name="partialdiff" unicode="&#x2202;" horiz-adv-x="620" 
d="M425 431q-31 77 -112.5 140.5t-178.5 96.5l69 64q162 -57 262 -178.5t100 -289.5q0 -127 -71.5 -201t-185.5 -74q-112 0 -182 67t-70 179q0 109 64 176t165 67q85 0 138 -47h2zM313 402q-67 0 -105.5 -45.5t-38.5 -121.5q0 -73 38.5 -116.5t103.5 -43.5q62 0 102 45
t40 121q0 75 -40 118t-100 43z" />
    <glyph glyph-name="Delta" unicode="&#x2206;" horiz-adv-x="700" 
d="M664 0h-628v95l235 619h159l234 -619v-95zM349 624l-188 -529h376z" />
    <glyph glyph-name="product" unicode="&#x220f;" horiz-adv-x="730" 
d="M645 714v-909h-116v813h-327v-813h-117v909h560z" />
    <glyph glyph-name="summation" unicode="&#x2211;" horiz-adv-x="649" 
d="M439 273l-267 -374l436 1v-95h-565v94l263 369l-252 350v96h541v-95h-404z" />
    <glyph glyph-name="minus" unicode="&#x2212;" horiz-adv-x="546" 
d="M508 274h-470v81h470v-81z" />
    <glyph glyph-name="uni2215" unicode="&#x2215;" horiz-adv-x="121" 
d="M306 714l-409 -714h-82l409 714h82z" />
    <glyph glyph-name="uni2219" unicode="&#x2219;" horiz-adv-x="292" 
d="M82 237v130h128v-130h-128z" />
    <glyph glyph-name="radical" unicode="&#x221a;" horiz-adv-x="605" 
d="M224 240l93 -346h2l169 820h104l-203 -909h-138l-104 347h-121v88h198z" />
    <glyph glyph-name="infinity" unicode="&#x221e;" horiz-adv-x="872" 
d="M386 252q-50 123 -138 123q-50 0 -78.5 -35.5t-28.5 -90.5q0 -54 29.5 -88t78.5 -34q92 0 137 125zM427 160q-64 -130 -187 -130q-89 0 -141.5 61t-52.5 160q0 98 53 159t145 61q131 0 200 -131q64 131 187 131q90 0 142.5 -61t52.5 -160q0 -98 -53 -159.5t-145 -61.5
q-130 0 -201 131zM485 250q50 -124 139 -124q50 0 78.5 35.5t28.5 90.5q0 54 -29.5 88.5t-78.5 34.5q-90 0 -138 -125z" />
    <glyph glyph-name="integral" unicode="&#x222b;" horiz-adv-x="369" 
d="M123 -24v565q0 81 40.5 127t124.5 46q43 0 71 -8l-9 -90q-21 7 -46 7q-67 0 -67 -87v-565q0 -80 -41.5 -123.5t-126.5 -43.5q-37 0 -66 7l9 91q21 -7 44 -7q36 0 51.5 19t15.5 62z" />
    <glyph glyph-name="approxequal" unicode="&#x2248;" horiz-adv-x="546" 
d="M392 423q72 3 114 50v-90q-49 -44 -127 -44q-49 0 -114 32t-104 32q-74 0 -120 -51v90q47 45 128 45q49 0 115 -32t108 -32zM392 218q72 3 114 50v-90q-49 -44 -127 -44q-49 0 -114 32t-104 32q-74 0 -120 -51v90q47 45 128 45q49 0 115 -32t108 -32z" />
    <glyph glyph-name="notequal" unicode="&#x2260;" horiz-adv-x="546" 
d="M508 373h-158l-60 -117h218v-81h-260l-69 -135h-93l69 135h-117v81h159l60 117h-219v81h260l71 137h93l-71 -137h117v-81z" />
    <glyph glyph-name="lessequal" unicode="&#x2264;" horiz-adv-x="546" 
d="M508 172l-470 142v116l470 143v-86l-387 -113v-2l387 -115v-85zM508 61h-470v81h470v-81z" />
    <glyph glyph-name="greaterequal" unicode="&#x2265;" horiz-adv-x="546" 
d="M508 314l-470 -142v85l386 115v2l-386 113v86l470 -143v-116zM508 61h-470v81h470v-81z" />
    <glyph glyph-name="lozenge" unicode="&#x25ca;" horiz-adv-x="492" 
d="M456 324l-162 -324h-95l-163 324l163 325h94zM245 549l-102 -225l103 -226h2l101 226l-101 225h-3z" />
    <glyph glyph-name="f_i" unicode="&#xf001;" horiz-adv-x="603" 
d="M507 723l-7 -85q-78 10 -148 10t-101 -23t-31 -76v-21h307v-528h-114v441h-193v-441h-114v441h-96v87h96v32q0 175 241 175q82 0 160 -12z" />
    <glyph glyph-name="f_l" unicode="&#xf002;" horiz-adv-x="603" 
d="M527 720v-720h-114v644q-29 4 -68 4q-62 0 -93.5 -22t-31.5 -75v-23h117v-87h-117v-441h-114v441h-96v87h96v39q0 79 58 123.5t176 44.5q86 0 187 -15z" />
    <glyph glyph-name="commaaccent" unicode="&#xf6c3;" 
d="M319 -57l-101 -160h-83l61 160h123z" />
    <glyph glyph-name="cyrbreve" unicode="&#xf6d4;" 
d="M231 603q-83 0 -121 41.5t-41 107.5h81q2 -37 20 -56.5t61 -19.5q76 0 81 76h80q-2 -66 -40 -107.5t-121 -41.5z" />
    <glyph glyph-name="uniF8FF" unicode="&#xf8ff;" horiz-adv-x="512" 
d="M278 117h-56v67h56v-67zM271 234h-46l-2 17q0 56 13 81q15 28 46 59q31 29 40.5 46t9.5 37q0 36 -22.5 60.5t-53.5 24.5q-71 0 -82 -95l-50 8q7 69 43 103t92 34q54 0 89 -36t35 -95q0 -34 -13 -60t-50 -60q-37 -33 -43 -52q-6 -20 -6 -72zM50 50h412v617h-412v-617z
M0 718h512v-718h-512v718z" />
    <glyph glyph-name="uniFEFF" unicode="&#xfeff;" horiz-adv-x="0" 
 />
    <glyph glyph-name="grave.cap" 
d="M103 903h127l85 -140h-89z" />
    <glyph glyph-name="acute.cap" 
d="M362 903l-125 -140h-89l87 140h127z" />
    <glyph glyph-name="circumflex.cap" 
d="M406 758h-93l-82 93l-82 -93h-94l117 149h117z" />
    <glyph glyph-name="caron.cap" 
d="M56 907h92l82 -93l83 93h93l-116 -149h-117z" />
    <glyph glyph-name="caron.alt" 
d="M279 768l-37 -164h-65l13 164h89z" />
    <glyph glyph-name="tilde.cap" 
d="M246 868q36 -26 55 -26q33 0 36 60h71q-3 -63 -27.5 -101t-71.5 -38q-36 0 -84 32q-41 28 -60 28q-34 0 -37 -59h-71q4 64 30 101t71 37q40 0 88 -34z" />
    <glyph glyph-name="dieresis.cap" 
d="M188 895v-109h-105v109h105zM380 895v-109h-106v109h106z" />
    <glyph glyph-name="macron.cap" 
d="M366 874v-78h-271v78h271z" />
    <glyph glyph-name="breve.cap" 
d="M230 836q78 0 81 76h82q-3 -66 -41 -107.5t-122 -41.5q-80 0 -119 42t-41 107h81q2 -76 79 -76z" />
    <glyph glyph-name="ring.cap" 
d="M232 949q44 0 73.5 -30.5t29.5 -74.5t-29.5 -73.5t-74.5 -29.5q-44 0 -74 29.5t-30 73.5t30.5 74.5t74.5 30.5zM231 902q-24 0 -40 -17t-16 -41q0 -25 16 -41t40 -16t40.5 16t16.5 41q0 24 -17 41t-40 17z" />
    <glyph glyph-name="hungarumlaut.cap" 
d="M260 905l-98 -142h-82l72 142h108zM426 905l-109 -142h-86l80 142h115z" />
    <glyph glyph-name="dotaccent.cap" 
d="M293 894v-113h-121v113h121z" />
    <glyph glyph-name="commaaccent.alt" 
d="M136 603l102 164h84l-63 -164h-123z" />
    <glyph glyph-name="zero.denominator" horiz-adv-x="383" 
d="M192 436q79 0 120.5 -60t41.5 -165q0 -103 -41.5 -160.5t-120.5 -57.5q-80 0 -121 57.5t-41 160.5q0 105 41 165t121 60zM192 366q-38 0 -57 -43t-19 -112q0 -148 76 -148q37 0 56.5 41t19.5 107q0 68 -19.5 111.5t-56.5 43.5z" />
    <glyph glyph-name="one.denominator" horiz-adv-x="383" 
d="M255 428v-428h-89v346l-81 -48l-30 65l113 65h87z" />
    <glyph glyph-name="two.denominator" horiz-adv-x="383" 
d="M334 70v-70h-286v74q114 98 153 145t39 86q0 28 -17.5 44t-46.5 16q-47 0 -98 -32l-28 62q58 41 133 41q67 0 105.5 -33.5t37.5 -94.5q0 -56 -36.5 -102.5t-139.5 -134.5l3 -1h181z" />
    <glyph glyph-name="three.denominator" horiz-adv-x="383" 
d="M103 185v68h53q86 0 86 59q0 26 -19 40t-49 14q-47 0 -96 -24l-21 68q55 26 127 26q63 0 104 -28t41 -85q0 -74 -75 -97v-2q41 -10 63 -38t22 -63q0 -65 -45.5 -97.5t-116.5 -32.5q-73 0 -134 28l24 68q51 -25 106 -25q36 0 57.5 15.5t21.5 45.5q0 60 -97 60h-52z" />
    <glyph glyph-name="four.denominator" horiz-adv-x="383" 
d="M306 428v-269h51v-70h-51v-89h-85v89h-194v83l165 256h114zM221 159v190h-2l-117 -190h119z" />
    <glyph glyph-name="five.denominator" horiz-adv-x="383" 
d="M252 133q0 70 -96 70q-42 0 -90 -10l13 236h241v-70h-163l-6 -93q14 3 44 3q63 0 103.5 -35.5t40.5 -96.5q0 -70 -45.5 -107t-115.5 -37q-76 0 -134 27l21 66q49 -23 101 -23q86 0 86 70z" />
    <glyph glyph-name="six.denominator" horiz-adv-x="383" 
d="M120 248h2q32 37 90 37q67 0 103 -39t36 -103q0 -66 -43.5 -108t-112.5 -42q-60 0 -98.5 33t-51.5 75.5t-13 93.5q0 108 47.5 174.5t142.5 66.5q50 0 84 -12l-14 -69q-30 11 -66 11q-93 0 -106 -118zM121 153q0 -35 20 -63t55 -28q31 0 50 22.5t19 58.5q0 32 -18 54
t-51 22q-34 0 -54.5 -20t-20.5 -46z" />
    <glyph glyph-name="seven.denominator" horiz-adv-x="383" 
d="M50 359v70h283v-68q-114 -190 -128 -361h-89q15 166 128 359h-194z" />
    <glyph glyph-name="eight.denominator" horiz-adv-x="383" 
d="M192 186q-28 0 -51 -16.5t-23 -46.5t20.5 -45.5t53.5 -15.5t54 15.5t21 45.5t-23.5 46.5t-51.5 16.5zM190 436q62 0 106 -30.5t44 -84.5q0 -70 -69 -95v-2q82 -31 82 -110q0 -57 -45.5 -89t-115.5 -32q-71 0 -116.5 32t-45.5 89q0 79 82 106v2q-69 28 -69 99
q0 54 42.5 84.5t104.5 30.5zM192 254q27 0 46 16t19 44q0 25 -18.5 40t-47.5 15q-28 0 -46 -15t-18 -40q0 -29 19 -44.5t46 -15.5z" />
    <glyph glyph-name="nine.denominator" horiz-adv-x="383" 
d="M263 180h-1q-35 -38 -91 -38q-66 0 -102.5 39.5t-36.5 102.5q0 66 43.5 109t112.5 43q46 0 79 -18.5t50.5 -50t25.5 -65t8 -70.5q0 -107 -47.5 -173t-142.5 -66q-51 0 -86 11l13 70q29 -12 68 -12q49 0 75.5 32.5t31.5 85.5zM262 276q0 34 -19.5 62t-54.5 28
q-31 0 -50.5 -22.5t-19.5 -58.5q0 -32 18 -54t51 -22t54 20.5t21 46.5z" />
    <glyph glyph-name="zero.numerator" horiz-adv-x="383" 
d="M192 724q79 0 120.5 -60t41.5 -165q0 -103 -41.5 -160.5t-120.5 -57.5q-80 0 -121 57.5t-41 160.5q0 105 41 165t121 60zM192 654q-38 0 -57 -43t-19 -112q0 -148 76 -148q37 0 56.5 41t19.5 107q0 68 -19.5 111.5t-56.5 43.5z" />
    <glyph glyph-name="one.numerator" horiz-adv-x="383" 
d="M255 716v-428h-89v346l-81 -48l-30 65l113 65h87z" />
    <glyph glyph-name="two.numerator" horiz-adv-x="383" 
d="M334 358v-70h-286v74q114 98 153 145t39 86q0 28 -17.5 44t-46.5 16q-47 0 -98 -32l-28 62q58 41 133 41q67 0 105.5 -33.5t37.5 -94.5q0 -56 -36.5 -102.5t-139.5 -134.5l3 -1h181z" />
    <glyph glyph-name="three.numerator" horiz-adv-x="383" 
d="M103 473v68h53q86 0 86 59q0 26 -19 40t-49 14q-47 0 -96 -24l-21 68q55 26 127 26q63 0 104 -28t41 -85q0 -74 -75 -97v-2q41 -10 63 -38t22 -63q0 -65 -45.5 -97.5t-116.5 -32.5q-73 0 -134 28l24 68q51 -25 106 -25q36 0 57.5 15.5t21.5 45.5q0 60 -97 60h-52z" />
    <glyph glyph-name="four.numerator" horiz-adv-x="383" 
d="M306 716v-269h51v-70h-51v-89h-85v89h-194v83l165 256h114zM221 447v190h-2l-117 -190h119z" />
    <glyph glyph-name="five.numerator" horiz-adv-x="383" 
d="M252 421q0 70 -96 70q-42 0 -90 -10l13 236h241v-70h-163l-6 -93q14 3 44 3q63 0 103.5 -35.5t40.5 -96.5q0 -70 -45.5 -107t-115.5 -37q-76 0 -134 27l21 66q49 -23 101 -23q86 0 86 70z" />
    <glyph glyph-name="six.numerator" horiz-adv-x="383" 
d="M120 536h2q32 37 90 37q67 0 103 -39t36 -103q0 -66 -43.5 -108t-112.5 -42q-60 0 -98.5 33t-51.5 75.5t-13 93.5q0 108 47.5 174.5t142.5 66.5q50 0 84 -12l-14 -69q-30 11 -66 11q-93 0 -106 -118zM121 441q0 -35 20 -63t55 -28q31 0 50 22.5t19 58.5q0 32 -18 54
t-51 22q-34 0 -54.5 -20t-20.5 -46z" />
    <glyph glyph-name="seven.numerator" horiz-adv-x="383" 
d="M50 647v70h283v-68q-114 -190 -128 -361h-89q15 166 128 359h-194z" />
    <glyph glyph-name="eight.numerator" horiz-adv-x="383" 
d="M192 474q-28 0 -51 -16.5t-23 -46.5t20.5 -45.5t53.5 -15.5t54 15.5t21 45.5t-23.5 46.5t-51.5 16.5zM190 724q62 0 106 -30.5t44 -84.5q0 -70 -69 -95v-2q82 -31 82 -110q0 -57 -45.5 -89t-115.5 -32q-71 0 -116.5 32t-45.5 89q0 79 82 106v2q-69 28 -69 99
q0 54 42.5 84.5t104.5 30.5zM192 542q27 0 46 16t19 44q0 25 -18.5 40t-47.5 15q-28 0 -46 -15t-18 -40q0 -29 19 -44.5t46 -15.5z" />
    <glyph glyph-name="nine.numerator" horiz-adv-x="383" 
d="M263 468h-1q-35 -38 -91 -38q-66 0 -102.5 39.5t-36.5 102.5q0 66 43.5 109t112.5 43q46 0 79 -18.5t50.5 -50t25.5 -65t8 -70.5q0 -107 -47.5 -173t-142.5 -66q-51 0 -86 11l13 70q29 -12 68 -12q49 0 75.5 32.5t31.5 85.5zM262 564q0 34 -19.5 62t-54.5 28
q-31 0 -50.5 -22.5t-19.5 -58.5q0 -32 18 -54t51 -22t54 20.5t21 46.5z" />
    <glyph glyph-name="tonos.cap" horiz-adv-x="429" 
d="M337 714l-106 -164h-79l51 164h134z" />
    <glyph glyph-name="cyrbreve.cap" 
d="M231 763q-83 0 -121 41.5t-41 107.5h81q3 -37 20.5 -57t60.5 -20q76 0 81 77h80q-2 -66 -40 -107.5t-121 -41.5z" />
    <glyph glyph-name="hyphen.cap" horiz-adv-x="398" 
d="M71 320v93h255v-93h-255z" />
    <glyph glyph-name="endash.cap" horiz-adv-x="498" 
d="M472 404v-76h-446v76h446z" />
    <glyph glyph-name="emdash.cap" horiz-adv-x="798" 
d="M772 404v-76h-746v76h746z" />
    <glyph glyph-name="colon.cap" horiz-adv-x="348" 
d="M110 93v129h128v-129h-128zM110 492v129h128v-129h-128z" />
    <glyph glyph-name="registered.alt1" horiz-adv-x="798" 
d="M93 355q0 -131 86.5 -221t221.5 -90q133 0 219 90.5t86 220.5q0 132 -86 224t-219 92q-135 0 -221.5 -92t-86.5 -224zM34 355q0 156 104 262t263 106q158 0 260.5 -106t102.5 -262q0 -154 -102.5 -259t-260.5 -105q-159 0 -263 105.5t-104 258.5zM252 144v429h162
q66 0 109 -28t43 -91q0 -73 -70 -99v-2q20 -8 31.5 -24t22.5 -54q29 -97 40 -131h-96q-28 109 -29 112q-9 35 -24 46t-56 11h-48v-169h-85zM337 501v-121h58q86 0 86 63q0 58 -85 58h-59z" />
    <glyph glyph-name="zero.slash" horiz-adv-x="594" 
d="M297 726q122 0 184.5 -99t62.5 -274q0 -173 -62 -269t-185 -96q-125 0 -186.5 95.5t-61.5 269.5q0 176 62 274.5t186 98.5zM297 631q-132 0 -132 -278q0 -76 10 -129l224 328q-33 79 -102 79zM429 353q0 75 -10 129l-224 -327q33 -72 102 -72q132 0 132 270z" />
    <glyph glyph-name="zero.tnum" horiz-adv-x="594" 
d="M297 726q122 0 184.5 -99t62.5 -274q0 -173 -62 -269t-185 -96q-125 0 -186.5 95.5t-61.5 269.5q0 176 62 274.5t186 98.5zM297 631q-132 0 -132 -278q0 -270 132 -270t132 270q0 128 -32 203t-100 75z" />
    <glyph glyph-name="one.tnum" horiz-adv-x="594" 
d="M388 714v-714h-117v602l-141 -90l-46 85l183 117h121z" />
    <glyph glyph-name="two.tnum" horiz-adv-x="594" 
d="M529 95v-95h-465v98q205 184 272.5 267.5t67.5 153.5q0 51 -36.5 81.5t-90.5 30.5q-78 0 -163 -60l-42 83q91 72 211 72q107 0 172.5 -53.5t65.5 -150.5q0 -66 -31 -125t-91.5 -123t-189.5 -179h320z" />
    <glyph glyph-name="three.tnum" horiz-adv-x="594" 
d="M151 318v96h70q77 0 125 27t48 87q0 50 -34.5 76.5t-93.5 26.5q-84 0 -161 -41l-32 92q88 44 204 44q100 0 167 -47.5t67 -137.5q0 -62 -34 -106t-99 -63v-2q72 -13 111.5 -58.5t39.5 -108.5q0 -104 -73.5 -159.5t-187.5 -55.5q-121 0 -213 47l31 91q86 -43 178 -43
q68 0 108.5 30.5t40.5 90.5q0 114 -193 114h-69z" />
    <glyph glyph-name="four.tnum" horiz-adv-x="594" 
d="M480 714v-459h87v-95h-87v-160h-117v160h-336v115l284 439h169zM363 255v358h-2l-225 -358h227z" />
    <glyph glyph-name="five.tnum" horiz-adv-x="594" 
d="M413 220q0 70 -53 101.5t-132 31.5q-64 0 -137 -12l19 373h382v-95h-280l-11 -177q40 4 69 4q111 0 184.5 -56.5t73.5 -163.5q0 -114 -75 -176t-189 -62q-118 0 -208 41l31 91q82 -37 169 -37q69 0 113 33.5t44 103.5z" />
    <glyph glyph-name="six.tnum" horiz-adv-x="594" 
d="M353 631q-90 0 -136 -64.5t-54 -167.5h2q27 34 70.5 53.5t90.5 19.5q107 0 168.5 -66t61.5 -171q0 -108 -69 -177.5t-180 -69.5q-61 0 -107.5 20.5t-75 53.5t-46.5 78t-24.5 89t-6.5 92q0 181 76 293t224 112q80 0 141 -24l-22 -93q-49 22 -113 22zM166 250
q0 -67 36 -117t105 -50q61 0 98 42t37 110q0 63 -34 104t-96 41q-64 0 -105 -39t-41 -91z" />
    <glyph glyph-name="seven.tnum" horiz-adv-x="594" 
d="M71 619v95h453v-95q-100 -147 -157.5 -309.5t-70.5 -309.5h-118q13 144 73 315t148 304h-328z" />
    <glyph glyph-name="eight.tnum" horiz-adv-x="594" 
d="M297 322q-55 0 -99 -31.5t-44 -90.5q0 -58 39 -88.5t104 -30.5q64 0 103 30.5t39 88.5q0 59 -43.5 90.5t-98.5 31.5zM296 726q99 0 167.5 -50.5t68.5 -140.5q0 -122 -112 -160v-2q135 -50 135 -183q0 -96 -73 -149t-185 -53q-114 0 -186.5 53t-72.5 149q0 71 38 115
t96 63v2q-111 45 -111 165q0 90 68 140.5t167 50.5zM296 413q53 0 88 29.5t35 85.5q0 50 -33 78t-90 28q-56 0 -89 -28t-33 -78q0 -56 34.5 -85.5t87.5 -29.5z" />
    <glyph glyph-name="nine.tnum" horiz-adv-x="594" 
d="M240 83q91 0 136 64.5t53 166.5h-2q-26 -35 -69 -54t-91 -19q-107 0 -168.5 66t-61.5 171q0 108 69.5 178t179.5 70q61 0 107.5 -20.5t75 -53.5t46.5 -78t24.5 -89t6.5 -93q0 -181 -76 -292.5t-225 -111.5q-85 0 -152 23l20 93q63 -21 127 -21zM426 463q0 68 -35.5 118
t-104.5 50q-61 0 -98 -42t-37 -111q0 -62 34 -103.5t97 -41.5t103.5 39t40.5 91z" />
    <glyph glyph-name="dollar.tnum" horiz-adv-x="594" 
d="M484 678l-22 -87q-62 22 -127 27v-216q96 -40 139 -86t43 -117q0 -77 -50 -128t-137 -62v-87h-67v84q-103 3 -189 38l24 90q81 -36 165 -40v224q-97 39 -139 86t-42 114q0 77 51 126.5t136 59.5v79h66v-78q88 -3 149 -27zM185 529q0 -32 17.5 -54.5t66.5 -44.5v186
q-41 -7 -62.5 -30.5t-21.5 -56.5zM412 194q0 60 -82 98v-194q82 18 82 96z" />
    <glyph glyph-name="currency.tnum" horiz-adv-x="594" 
d="M298 140q-51 0 -91 23l-76 -75l-72 71l76 76q-23 40 -23 90q0 44 22 88l-75 77l73 73l76 -77q41 22 90 22q47 0 89 -22l75 77l72 -73l-76 -75q24 -43 24 -90q0 -50 -23 -90l75 -75l-73 -72q-38 36 -74 74q-40 -22 -89 -22zM298 231q39 0 64.5 26.5t25.5 67.5q0 39 -26 66
t-64 27q-39 0 -65.5 -27t-26.5 -66q0 -41 26 -67.5t66 -26.5z" />
    <glyph glyph-name="Euro.tnum" horiz-adv-x="594" 
d="M541 93l17 -92q-52 -13 -110 -13q-133 0 -218.5 71.5t-110.5 195.5h-90l20 74h61q-1 12 -1 30q0 17 2 43h-82l20 74h74q30 115 114 182.5t217 67.5q60 0 99 -9l-19 -94q-32 7 -72 7q-172 0 -220 -154h264l-19 -74h-259q-2 -28 -2 -44q0 -19 1 -29h246l-18 -74h-218
q20 -78 76.5 -124.5t147.5 -46.5q43 0 80 9z" />
    <glyph glyph-name="cent.tnum" horiz-adv-x="594" 
d="M492 522l-21 -88q-39 15 -79 18v-376q46 3 83 20l18 -88q-53 -16 -101 -19v-56h-71v59q-106 16 -164 88t-58 183q0 104 57 180.5t165 92.5v64h71v-61q51 -2 100 -17zM213 263q0 -69 27.5 -117t80.5 -64v363q-56 -17 -82 -68.5t-26 -113.5z" />
    <glyph glyph-name="sterling.tnum" horiz-adv-x="594" 
d="M517 699l-31 -94q-43 23 -97 23q-61 0 -90 -35.5t-29 -94.5v-86h161v-80h-161v-237h270v-95h-487v95h101v237h-94v80h94v91q0 102 60.5 161.5t172.5 59.5q77 0 130 -25z" />
    <glyph glyph-name="florin.tnum" horiz-adv-x="594" 
d="M485 419v-87h-136l-48 -305q-25 -160 -180 -160q-44 0 -86 15l18 88q31 -11 63 -11q36 0 53 20.5t24 65.5l46 287h-119v87h133l22 139q27 167 188 167q54 0 94 -15l-27 -89q-27 13 -63 13q-39 0 -57.5 -24t-26.5 -69l-20 -122h122z" />
    <glyph glyph-name="yen.tnum" horiz-adv-x="594" 
d="M72 221h168v73h-168v74h140l-195 346h123l160 -308l158 308h119l-195 -346h139v-74h-168v-73h168v-74h-168v-147h-113v147h-168v74z" />
    <glyph glyph-name="acutecmb.cap" horiz-adv-x="0" 
d="M-97 903l-125 -140h-89l87 140h127z" />
    <glyph glyph-name="hookcmb.cap" horiz-adv-x="0" 
d="M-223 758h-74q0 26 8 40.5t31 25.5q32 16 32 32q0 24 -39 24q-27 0 -56 -11l-16 58q39 17 85 17t75.5 -20t29.5 -62q0 -48 -47 -72q-19 -10 -24 -16t-5 -16z" />
    <glyph glyph-name="acubreveviet" 
d="M377 875l-112 -138h-78l73 138h117zM230 674q74 0 85 62h80q-6 -61 -46.5 -97.5t-118.5 -36.5q-74 0 -115.5 37t-47.5 97h81q11 -62 82 -62z" />
    <glyph glyph-name="acubreveviet.cap" 
d="M371 1016l-105 -123h-79l65 123h119zM230 834q74 0 85 62h80q-6 -61 -46.5 -97.5t-118.5 -36.5q-74 0 -115.5 37t-47.5 97h81q11 -62 82 -62z" />
    <glyph glyph-name="acutcircviet" 
d="M398 604h-88l-80 109l-78 -109h-88l110 164h114zM532 855l-101 -133h-83l72 133h112z" />
    <glyph glyph-name="acutcircviet.cap" 
d="M406 758h-93l-82 93l-82 -93h-94l117 149h117zM538 970l-100 -114h-87l71 114h116z" />
    <glyph glyph-name="gravbreveviet" 
d="M198 737l-112 138h116l74 -138h-78zM230 674q74 0 85 62h80q-6 -61 -46.5 -97.5t-118.5 -36.5q-74 0 -115.5 37t-47.5 97h81q11 -62 82 -62z" />
    <glyph glyph-name="gravbreveviet.cap" 
d="M198 893l-106 123h120l64 -123h-78zM230 834q74 0 85 62h80q-6 -61 -46.5 -97.5t-118.5 -36.5q-74 0 -115.5 37t-47.5 97h81q11 -62 82 -62z" />
    <glyph glyph-name="gravcircviet" 
d="M398 604h-88l-80 109l-78 -109h-88l110 164h114zM31 722l-101 133h112l72 -133h-83z" />
    <glyph glyph-name="gravcircviet.cap" 
d="M406 758h-93l-82 93l-82 -93h-94l117 149h117zM24 856l-100 114h116l71 -114h-87z" />
    <glyph glyph-name="hoibreveviet" 
d="M230 674q74 0 85 62h80q-6 -61 -46.5 -97.5t-118.5 -36.5q-74 0 -115.5 37t-47.5 97h81q11 -62 82 -62zM263 730h-71q0 24 8 38t29 24q31 16 31 32q0 22 -37 22q-24 0 -54 -10l-16 55q42 16 85 16q44 0 71 -19t27 -58q0 -46 -44 -70q-19 -11 -24 -16.5t-5 -13.5z" />
    <glyph glyph-name="hoibreveviet.cap" 
d="M230 834q74 0 85 62h80q-6 -61 -46.5 -97.5t-118.5 -36.5q-74 0 -115.5 37t-47.5 97h81q11 -62 82 -62zM263 890h-71q0 24 8 38t29 24q31 16 31 32q0 22 -37 22q-24 0 -54 -10l-16 55q42 16 85 16q44 0 71 -19t27 -58q0 -46 -44 -70q-19 -11 -24 -16.5t-5 -13.5z" />
    <glyph glyph-name="hoicircviet" 
d="M398 604h-88l-80 109l-78 -109h-88l110 164h114zM420 706h-71q0 24 8 38t29 24q31 16 31 32q0 22 -37 22q-24 0 -54 -10l-16 55q42 16 85 16q44 0 71 -19t27 -58q0 -46 -44 -70q-19 -11 -24 -16.5t-5 -13.5z" />
    <glyph glyph-name="hoicircviet.cap" 
d="M406 758h-93l-82 93l-82 -93h-94l117 149h117zM426 849h-71q0 24 8 38t29 24q31 15 31 32q0 22 -37 22q-24 0 -54 -10l-16 55q42 16 85 16q44 0 71 -19t27 -57q0 -47 -44 -71q-19 -11 -24 -16.5t-5 -13.5z" />
    <glyph glyph-name="tildebreveviet" 
d="M244 870q38 -23 53 -23q33 0 34 51h70q-7 -122 -97 -122q-39 0 -80 25q-44 26 -57 26q-33 0 -35 -51h-70q6 122 97 122q38 0 85 -28zM230 674q74 0 85 62h80q-6 -61 -46.5 -97.5t-118.5 -36.5q-74 0 -115.5 37t-47.5 97h81q11 -62 82 -62z" />
    <glyph glyph-name="tildebreveviet.cap" 
d="M244 1030q38 -23 53 -23q33 0 34 51h70q-7 -122 -97 -122q-39 0 -80 25q-44 26 -57 26q-33 0 -35 -51h-70q6 122 97 122q38 0 85 -28zM230 834q74 0 85 62h80q-6 -61 -46.5 -97.5t-118.5 -36.5q-74 0 -115.5 37t-47.5 97h81q11 -62 82 -62z" />
    <glyph glyph-name="tildecircviet" 
d="M398 604h-88l-80 93l-78 -93h-88l110 147h114zM244 878q38 -23 53 -23q33 0 34 51h70q-7 -122 -97 -122q-39 0 -80 25q-44 26 -57 26q-33 0 -35 -51h-70q6 122 97 122q38 0 85 -28z" />
    <glyph glyph-name="tildecircviet.cap" 
d="M406 758h-93l-82 81l-82 -81h-94l117 137h117zM244 1022q38 -23 53 -23q33 0 34 51h70q-7 -122 -97 -122q-39 0 -80 25q-44 26 -57 26q-33 0 -35 -51h-70q6 122 97 122q38 0 85 -28z" />
    <glyph glyph-name="uni20AB.tnum" horiz-adv-x="594" 
d="M413 463v129h-104v72h104v71h114v-71h47v-72h-47v-592h-111v73h-2q-55 -85 -158 -85q-99 0 -157.5 78.5t-58.5 197.5t60 197.5t159 78.5q97 0 152 -77h2zM154 264q0 -82 34 -135.5t95 -53.5q63 0 100 53.5t37 136.5q0 82 -37 135t-100 53q-61 0 -95 -53.5t-34 -135.5z
M541 -150h-479v81h479v-81z" />
    </font>
</defs>
</svg>
